<svg width="16" height="16" viewBox="0 0 16 16" fill="none" xmlns="http://www.w3.org/2000/svg">
<path fill-rule="evenodd" clip-rule="evenodd" d="M2.66671 5.99998V9.99998H2.00004C1.63185 9.99998 1.33337 10.2985 1.33337 10.6666C1.33337 11.0348 1.63185 11.3333 2.00004 11.3333H2.66671V13.3333C2.66671 14.0697 3.26366 14.6666 4.00004 14.6666H12C12.7364 14.6666 13.3334 14.0697 13.3334 13.3333V2.66665C13.3334 1.93027 12.7364 1.33331 12 1.33331H4.00004C3.26366 1.33331 2.66671 1.93027 2.66671 2.66665V4.66665H2.00004C1.63185 4.66665 1.33337 4.96512 1.33337 5.33331C1.33337 5.7015 1.63185 5.99998 2.00004 5.99998H2.66671ZM4.66671 9.99998H4.00004V5.99998H4.66671C5.0349 5.99998 5.33337 5.7015 5.33337 5.33331C5.33337 4.96512 5.0349 4.66665 4.66671 4.66665H4.00004V2.66665H12V13.3333H4.00004V11.3333H4.66671C5.0349 11.3333 5.33337 11.0348 5.33337 10.6666C5.33337 10.2985 5.0349 9.99998 4.66671 9.99998Z" fill="currentColor"/>
</svg>
