<svg width="16" height="16" viewBox="0 0 16 16" fill="none" xmlns="http://www.w3.org/2000/svg">
<path fill-rule="evenodd" clip-rule="evenodd" d="M2.66665 6V10H1.99998C1.63179 10 1.33331 10.2985 1.33331 10.6667C1.33331 11.0349 1.63179 11.3333 1.99998 11.3333H2.66665V13.3333C2.66665 14.0697 3.2636 14.6667 3.99998 14.6667H12C12.7364 14.6667 13.3333 14.0697 13.3333 13.3333V2.66667C13.3333 1.93029 12.7364 1.33333 12 1.33333H3.99998C3.2636 1.33333 2.66665 1.93029 2.66665 2.66667V4.66667H1.99998C1.63179 4.66667 1.33331 4.96514 1.33331 5.33333C1.33331 5.70152 1.63179 6 1.99998 6H2.66665ZM4.66665 10H3.99998V6H4.66665C5.03484 6 5.33331 5.70152 5.33331 5.33333C5.33331 4.96514 5.03484 4.66667 4.66665 4.66667H3.99998V2.66667H12V13.3333H3.99998V11.3333H4.66665C5.03484 11.3333 5.33331 11.0349 5.33331 10.6667C5.33331 10.2985 5.03484 10 4.66665 10Z" fill="#121312" fill-opacity="0.87"/>
</svg>
