<svg width="16" height="16" viewBox="0 0 16 16" fill="none" xmlns="http://www.w3.org/2000/svg">
<path fill-rule="evenodd" clip-rule="evenodd" d="M2.66659 6.00016V10.0002H1.99992C1.63173 10.0002 1.33325 10.2986 1.33325 10.6668C1.33325 11.035 1.63173 11.3335 1.99992 11.3335H2.66659V13.3335C2.66659 14.0699 3.26354 14.6668 3.99992 14.6668H11.9999C12.7363 14.6668 13.3333 14.0699 13.3333 13.3335V2.66683C13.3333 1.93045 12.7363 1.3335 11.9999 1.3335H3.99992C3.26354 1.3335 2.66659 1.93045 2.66659 2.66683V4.66683H1.99992C1.63173 4.66683 1.33325 4.96531 1.33325 5.3335C1.33325 5.70169 1.63173 6.00016 1.99992 6.00016H2.66659ZM4.66659 10.0002H3.99992V6.00016H4.66659C5.03478 6.00016 5.33325 5.70169 5.33325 5.3335C5.33325 4.96531 5.03478 4.66683 4.66659 4.66683H3.99992V2.66683H11.9999V13.3335H3.99992V11.3335H4.66659C5.03478 11.3335 5.33325 11.035 5.33325 10.6668C5.33325 10.2986 5.03478 10.0002 4.66659 10.0002Z" fill="#162D45"/>
</svg>
