<svg width="16" height="16" fill="none" xmlns="http://www.w3.org/2000/svg"><path fill-rule="evenodd" clip-rule="evenodd" d="M6 1.333H2.667c-.737 0-1.334.597-1.334 1.334V6c0 .736.597 1.333 1.334 1.333H6c.736 0 1.333-.597 1.333-1.333V2.667c0-.737-.597-1.334-1.333-1.334zM2.667 6V2.667H6V6H2.667zM13.333 8.667H10c-.736 0-1.333.597-1.333 1.333v3.333c0 .737.597 1.334 1.333 1.334h3.333c.737 0 1.334-.597 1.334-1.334V10c0-.736-.597-1.333-1.334-1.333zM10 13.333V10h3.333v3.333H10zM14.667 4.333a3 3 0 11-6 0 3 3 0 016 0zm-4.667 0a1.667 1.667 0 103.333 0 1.667 1.667 0 00-3.333 0zM4.334 12.573l-1.91 1.91a.64.64 0 01-.902 0l-.002-.004a.64.64 0 010-.902l1.909-1.91-1.91-1.91a.64.64 0 010-.901l.004-.003a.64.64 0 01.902 0l1.91 1.909 1.909-1.91a.64.64 0 01.902 0l.003.004a.64.64 0 010 .902l-1.91 1.91 1.91 1.909a.64.64 0 010 .902l-.003.004a.64.64 0 01-.902 0l-1.91-1.91z" fill="#162D45"/></svg>