<svg width="16" height="16" viewBox="0 0 16 16" fill="none" xmlns="http://www.w3.org/2000/svg">
<path fill-rule="evenodd" clip-rule="evenodd" d="M5.99992 1.3335H2.66659C1.93021 1.3335 1.33325 1.93045 1.33325 2.66683V6.00016C1.33325 6.73654 1.93021 7.3335 2.66659 7.3335H5.99992C6.7363 7.3335 7.33325 6.73654 7.33325 6.00016V2.66683C7.33325 1.93045 6.7363 1.3335 5.99992 1.3335ZM2.66659 6.00016V2.66683H5.99992V6.00016H2.66659Z" fill="#162D45"/>
<path d="M2.66659 2.66683V2.41683H2.41659V2.66683H2.66659ZM2.66659 6.00016H2.41659V6.25016H2.66659V6.00016ZM5.99992 2.66683H6.24992V2.41683H5.99992V2.66683ZM5.99992 6.00016V6.25016H6.24992V6.00016H5.99992ZM2.66659 1.5835H5.99992V1.0835H2.66659V1.5835ZM1.58325 2.66683C1.58325 2.06852 2.06828 1.5835 2.66659 1.5835V1.0835C1.79213 1.0835 1.08325 1.79238 1.08325 2.66683H1.58325ZM1.58325 6.00016V2.66683H1.08325V6.00016H1.58325ZM2.66659 7.0835C2.06828 7.0835 1.58325 6.59847 1.58325 6.00016H1.08325C1.08325 6.87461 1.79213 7.5835 2.66659 7.5835V7.0835ZM5.99992 7.0835H2.66659V7.5835H5.99992V7.0835ZM7.08325 6.00016C7.08325 6.59847 6.59823 7.0835 5.99992 7.0835V7.5835C6.87437 7.5835 7.58325 6.87461 7.58325 6.00016H7.08325ZM7.08325 2.66683V6.00016H7.58325V2.66683H7.08325ZM5.99992 1.5835C6.59823 1.5835 7.08325 2.06852 7.08325 2.66683H7.58325C7.58325 1.79238 6.87437 1.0835 5.99992 1.0835V1.5835ZM2.41659 2.66683V6.00016H2.91659V2.66683H2.41659ZM5.99992 2.41683H2.66659V2.91683H5.99992V2.41683ZM6.24992 6.00016V2.66683H5.74992V6.00016H6.24992ZM2.66659 6.25016H5.99992V5.75016H2.66659V6.25016Z" fill="#162D45"/>
<path fill-rule="evenodd" clip-rule="evenodd" d="M13.3332 8.66699H9.99984C9.26346 8.66699 8.6665 9.26395 8.6665 10.0003V13.3337C8.6665 14.07 9.26346 14.667 9.99984 14.667H13.3332C14.0696 14.667 14.6665 14.07 14.6665 13.3337V10.0003C14.6665 9.26395 14.0696 8.66699 13.3332 8.66699ZM9.99984 13.3337V10.0003H13.3332V13.3337H9.99984Z" fill="#162D45"/>
<path d="M9.99984 10.0003V9.75033H9.74984V10.0003H9.99984ZM9.99984 13.3337H9.74984V13.5837H9.99984V13.3337ZM13.3332 10.0003H13.5832V9.75033H13.3332V10.0003ZM13.3332 13.3337V13.5837H13.5832V13.3337H13.3332ZM9.99984 8.91699H13.3332V8.41699H9.99984V8.91699ZM8.9165 10.0003C8.9165 9.40202 9.40153 8.91699 9.99984 8.91699V8.41699C9.12539 8.41699 8.4165 9.12587 8.4165 10.0003H8.9165ZM8.9165 13.3337V10.0003H8.4165V13.3337H8.9165ZM9.99984 14.417C9.40153 14.417 8.9165 13.932 8.9165 13.3337H8.4165C8.4165 14.2081 9.12539 14.917 9.99984 14.917V14.417ZM13.3332 14.417H9.99984V14.917H13.3332V14.417ZM14.4165 13.3337C14.4165 13.932 13.9315 14.417 13.3332 14.417V14.917C14.2076 14.917 14.9165 14.2081 14.9165 13.3337H14.4165ZM14.4165 10.0003V13.3337H14.9165V10.0003H14.4165ZM13.3332 8.91699C13.9315 8.91699 14.4165 9.40202 14.4165 10.0003H14.9165C14.9165 9.12587 14.2076 8.41699 13.3332 8.41699V8.91699ZM9.74984 10.0003V13.3337H10.2498V10.0003H9.74984ZM13.3332 9.75033H9.99984V10.2503H13.3332V9.75033ZM13.5832 13.3337V10.0003H13.0832V13.3337H13.5832ZM9.99984 13.5837H13.3332V13.0837H9.99984V13.5837Z" fill="#162D45"/>
<path fill-rule="evenodd" clip-rule="evenodd" d="M14.6665 4.3335C14.6665 5.99035 13.3234 7.3335 11.6665 7.3335C10.0096 7.3335 8.6665 5.99035 8.6665 4.3335C8.6665 2.67664 10.0096 1.3335 11.6665 1.3335C13.3234 1.3335 14.6665 2.67664 14.6665 4.3335ZM9.99984 4.3335C9.99984 5.25397 10.746 6.00016 11.6665 6.00016C12.587 6.00016 13.3332 5.25397 13.3332 4.3335C13.3332 3.41302 12.587 2.66683 11.6665 2.66683C10.746 2.66683 9.99984 3.41302 9.99984 4.3335Z" fill="#162D45"/>
<path d="M11.6665 7.5835C13.4614 7.5835 14.9165 6.12842 14.9165 4.3335H14.4165C14.4165 5.85228 13.1853 7.0835 11.6665 7.0835V7.5835ZM8.4165 4.3335C8.4165 6.12842 9.87158 7.5835 11.6665 7.5835V7.0835C10.1477 7.0835 8.9165 5.85228 8.9165 4.3335H8.4165ZM11.6665 1.0835C9.87158 1.0835 8.4165 2.53857 8.4165 4.3335H8.9165C8.9165 2.81471 10.1477 1.5835 11.6665 1.5835V1.0835ZM14.9165 4.3335C14.9165 2.53857 13.4614 1.0835 11.6665 1.0835V1.5835C13.1853 1.5835 14.4165 2.81471 14.4165 4.3335H14.9165ZM11.6665 5.75016C10.8841 5.75016 10.2498 5.1159 10.2498 4.3335H9.74984C9.74984 5.39204 10.608 6.25016 11.6665 6.25016V5.75016ZM13.0832 4.3335C13.0832 5.1159 12.4489 5.75016 11.6665 5.75016V6.25016C12.725 6.25016 13.5832 5.39204 13.5832 4.3335H13.0832ZM11.6665 2.91683C12.4489 2.91683 13.0832 3.55109 13.0832 4.3335H13.5832C13.5832 3.27495 12.725 2.41683 11.6665 2.41683V2.91683ZM10.2498 4.3335C10.2498 3.55109 10.8841 2.91683 11.6665 2.91683V2.41683C10.608 2.41683 9.74984 3.27495 9.74984 4.3335H10.2498Z" fill="#162D45"/>
<path fill-rule="evenodd" clip-rule="evenodd" d="M4.3341 12.5731L2.42416 14.483C2.17616 14.731 1.77083 14.731 1.52216 14.483L1.5195 14.4797C1.2715 14.2317 1.2715 13.8257 1.5195 13.577L3.42883 11.6677L1.51976 9.75833C1.27176 9.51033 1.27176 9.10433 1.51976 8.85633L1.52243 8.85299C1.7711 8.60499 2.17643 8.60499 2.42443 8.85299L4.3341 10.7624L6.2435 8.85299C6.4915 8.60499 6.8975 8.60499 7.1455 8.85299L7.14883 8.85633C7.39683 9.10433 7.39683 9.51033 7.14883 9.75833L5.23949 11.6677L7.1491 13.577C7.3971 13.8257 7.3971 14.2317 7.1491 14.4797L7.14576 14.483C6.89776 14.731 6.49176 14.731 6.24376 14.483L4.3341 12.5731Z" fill="#162D45" stroke="#162D45" stroke-width="0.5"/>
</svg>
