<svg width="16" height="16" viewBox="0 0 16 16" fill="none" xmlns="http://www.w3.org/2000/svg">
<path fill-rule="evenodd" clip-rule="evenodd" d="M6.00004 1.33331H2.66671C1.93033 1.33331 1.33337 1.93027 1.33337 2.66665V5.99998C1.33337 6.73636 1.93033 7.33331 2.66671 7.33331H6.00004C6.73642 7.33331 7.33337 6.73636 7.33337 5.99998V2.66665C7.33337 1.93027 6.73642 1.33331 6.00004 1.33331ZM2.66671 5.99998V2.66665H6.00004V5.99998H2.66671Z" fill="currentColor"/>
<path fill-rule="evenodd" clip-rule="evenodd" d="M13.3334 8.66663H10.0001C9.2637 8.66663 8.66675 9.26358 8.66675 9.99996V13.3333C8.66675 14.0697 9.2637 14.6666 10.0001 14.6666H13.3334C14.0698 14.6666 14.6667 14.0697 14.6667 13.3333V9.99996C14.6667 9.26358 14.0698 8.66663 13.3334 8.66663ZM10.0001 13.3333V9.99996H13.3334V13.3333H10.0001Z" fill="currentColor"/>
<path fill-rule="evenodd" clip-rule="evenodd" d="M14.6667 4.33331C14.6667 5.99017 13.3236 7.33331 11.6667 7.33331C10.0099 7.33331 8.66675 5.99017 8.66675 4.33331C8.66675 2.67646 10.0099 1.33331 11.6667 1.33331C13.3236 1.33331 14.6667 2.67646 14.6667 4.33331ZM10.0001 4.33331C10.0001 5.25379 10.7463 5.99998 11.6667 5.99998C12.5872 5.99998 13.3334 5.25379 13.3334 4.33331C13.3334 3.41284 12.5872 2.66665 11.6667 2.66665C10.7463 2.66665 10.0001 3.41284 10.0001 4.33331Z" fill="currentColor"/>
<path fill-rule="evenodd" clip-rule="evenodd" d="M4.33422 12.5726L2.42428 14.4826C2.17628 14.7306 1.77095 14.7306 1.52228 14.4826L1.51962 14.4792C1.27162 14.2312 1.27162 13.8252 1.51962 13.5766L3.42895 11.6672L1.51988 9.7579C1.27188 9.5099 1.27188 9.1039 1.51988 8.8559L1.52255 8.85256C1.77122 8.60456 2.17655 8.60456 2.42455 8.85256L4.33422 10.762L6.24362 8.85256C6.49162 8.60456 6.89762 8.60456 7.14562 8.85256L7.14895 8.8559C7.39695 9.1039 7.39695 9.5099 7.14895 9.7579L5.23962 11.6672L7.14922 13.5766C7.39722 13.8252 7.39722 14.2312 7.14922 14.4792L7.14589 14.4826C6.89788 14.7306 6.49188 14.7306 6.24388 14.4826L4.33422 12.5726Z" fill="currentColor"/>
</svg>
