<svg width="16" height="16" viewBox="0 0 16 16" fill="none" xmlns="http://www.w3.org/2000/svg">
<path fill-rule="evenodd" clip-rule="evenodd" d="M5.99992 1.3335H2.66659C1.93021 1.3335 1.33325 1.93045 1.33325 2.66683V6.00016C1.33325 6.73654 1.93021 7.3335 2.66659 7.3335H5.99992C6.7363 7.3335 7.33325 6.73654 7.33325 6.00016V2.66683C7.33325 1.93045 6.7363 1.3335 5.99992 1.3335ZM2.66659 6.00016V2.66683H5.99992V6.00016H2.66659Z" fill="#162D45"/>
<path fill-rule="evenodd" clip-rule="evenodd" d="M13.3332 8.66699H9.99984C9.26346 8.66699 8.6665 9.26395 8.6665 10.0003V13.3337C8.6665 14.07 9.26346 14.667 9.99984 14.667H13.3332C14.0696 14.667 14.6665 14.07 14.6665 13.3337V10.0003C14.6665 9.26395 14.0696 8.66699 13.3332 8.66699ZM9.99984 13.3337V10.0003H13.3332V13.3337H9.99984Z" fill="#162D45"/>
<path fill-rule="evenodd" clip-rule="evenodd" d="M14.6665 4.3335C14.6665 5.99035 13.3234 7.3335 11.6665 7.3335C10.0096 7.3335 8.6665 5.99035 8.6665 4.3335C8.6665 2.67664 10.0096 1.3335 11.6665 1.3335C13.3234 1.3335 14.6665 2.67664 14.6665 4.3335ZM9.99984 4.3335C9.99984 5.25397 10.746 6.00016 11.6665 6.00016C12.587 6.00016 13.3332 5.25397 13.3332 4.3335C13.3332 3.41302 12.587 2.66683 11.6665 2.66683C10.746 2.66683 9.99984 3.41302 9.99984 4.3335Z" fill="#162D45"/>
<path fill-rule="evenodd" clip-rule="evenodd" d="M4.3341 12.5731L2.42416 14.483C2.17616 14.731 1.77083 14.731 1.52216 14.483L1.5195 14.4797C1.2715 14.2317 1.2715 13.8257 1.5195 13.577L3.42883 11.6677L1.51976 9.75833C1.27176 9.51033 1.27176 9.10433 1.51976 8.85633L1.52243 8.85299C1.7711 8.60499 2.17643 8.60499 2.42443 8.85299L4.3341 10.7624L6.2435 8.85299C6.4915 8.60499 6.8975 8.60499 7.1455 8.85299L7.14883 8.85633C7.39683 9.10433 7.39683 9.51033 7.14883 9.75833L5.23949 11.6677L7.1491 13.577C7.3971 13.8257 7.3971 14.2317 7.1491 14.4797L7.14576 14.483C6.89776 14.731 6.49176 14.731 6.24376 14.483L4.3341 12.5731Z" fill="#162D45"/>
</svg>
