<svg width="24" height="24" viewBox="0 0 24 24" fill="none" xmlns="http://www.w3.org/2000/svg">
<path fill-rule="evenodd" clip-rule="evenodd" d="M14.998 4.99951C11.133 4.99951 7.998 8.13451 7.998 11.9995C7.998 15.8655 11.133 18.9995 14.998 18.9995C18.864 18.9995 21.998 15.8655 21.998 11.9995C21.998 8.13451 18.864 4.99951 14.998 4.99951ZM14.998 6.99951C17.756 6.99951 19.998 9.24251 19.998 11.9995C19.998 14.7575 17.756 16.9995 14.998 16.9995C12.241 16.9995 9.998 14.7575 9.998 11.9995C9.998 9.24251 12.241 6.99951 14.998 6.99951Z"/>
<path d="M6.80445 5.3582C3.9593 6.29469 2.0001 8.95535 2.0001 11.9961C2.0001 15.0368 3.9593 17.6975 6.80445 18.6339C7.32905 18.8066 7.8943 18.5213 8.06697 17.9967C8.23964 17.4721 7.95435 16.9069 7.42975 16.7342C5.39865 16.0657 4.0001 14.1664 4.0001 11.9961C4.0001 9.82576 5.39865 7.92648 7.42975 7.25794C7.95435 7.08527 8.23964 6.52002 8.06697 5.99542C7.8943 5.47082 7.32905 5.18553 6.80445 5.3582Z"/>
</svg>
