<svg width="16" height="16" viewBox="0 0 16 16" fill="none" xmlns="http://www.w3.org/2000/svg">
<path fill-rule="evenodd" clip-rule="evenodd" d="M9.9987 3.33301C7.42203 3.33301 5.33203 5.42301 5.33203 7.99967C5.33203 10.577 7.42203 12.6663 9.9987 12.6663C12.576 12.6663 14.6654 10.577 14.6654 7.99967C14.6654 5.42301 12.576 3.33301 9.9987 3.33301ZM9.99871 4.6665C11.8374 4.6665 13.332 6.16184 13.332 7.99984C13.332 9.8385 11.8374 11.3332 9.99871 11.3332C8.16071 11.3332 6.66537 9.8385 6.66537 7.99984C6.66537 6.16184 8.16071 4.6665 9.99871 4.6665Z" fill="#162D45"/>
<path d="M9.9987 3.08301C7.28396 3.08301 5.08203 5.28494 5.08203 7.99967H5.58203C5.58203 5.56108 7.5601 3.58301 9.9987 3.58301V3.08301ZM5.08203 7.99967C5.08203 10.7151 7.28398 12.9163 9.9987 12.9163V12.4163C7.56008 12.4163 5.58203 10.4389 5.58203 7.99967H5.08203ZM9.9987 12.9163C12.7141 12.9163 14.9154 10.7151 14.9154 7.99967H14.4154C14.4154 10.4389 12.438 12.4163 9.9987 12.4163V12.9163ZM14.9154 7.99967C14.9154 5.28496 12.7141 3.08301 9.9987 3.08301V3.58301C12.4379 3.58301 14.4154 5.56106 14.4154 7.99967H14.9154ZM9.99871 4.9165C11.6993 4.9165 13.082 6.29988 13.082 7.99984H13.582C13.582 6.0238 11.9755 4.4165 9.99871 4.4165V4.9165ZM13.082 7.99984C13.082 9.70043 11.6993 11.0832 9.99871 11.0832V11.5832C11.9754 11.5832 13.582 9.97657 13.582 7.99984H13.082ZM9.99871 11.0832C8.29875 11.0832 6.91537 9.7004 6.91537 7.99984H6.41537C6.41537 9.97661 8.02267 11.5832 9.99871 11.5832V11.0832ZM6.91537 7.99984C6.91537 6.29991 8.29878 4.9165 9.99871 4.9165V4.4165C8.02264 4.4165 6.41537 6.02377 6.41537 7.99984H6.91537Z" fill="#162D45"/>
<path d="M4.53615 3.57218C2.63938 4.1965 1.33325 5.97027 1.33325 7.99742C1.33325 10.0246 2.63938 11.7983 4.53615 12.4227C4.88588 12.5378 5.26272 12.3476 5.37783 11.9979C5.49295 11.6481 5.30275 11.2713 4.95302 11.1562C3.59895 10.7105 2.66659 9.44429 2.66659 7.99742C2.66659 6.55055 3.59895 5.28436 4.95302 4.83867C5.30275 4.72355 5.49295 4.34672 5.37783 3.99699C5.26272 3.64726 4.88588 3.45706 4.53615 3.57218Z" fill="#162D45" stroke="#162D45" stroke-width="0.5"/>
</svg>
