<svg width="16" height="16" viewBox="0 0 16 16" fill="none" xmlns="http://www.w3.org/2000/svg">
<path d="M13 13V11C13 10.4477 13.4477 10 14 10C14.5523 10 15 10.4477 15 11V13C15 14.1046 14.1046 15 13 15H3C1.89543 15 1 14.1046 1 13V3C1 1.89543 1.89543 1 3 1H5C5.55228 1 6 1.44772 6 2C6 2.55228 5.55228 3 5 3H3V13H13Z" fill="#008C73"/>
<path fill-rule="evenodd" clip-rule="evenodd" d="M11.5858 3H9.00004C8.44776 3 8.00004 2.55228 8.00004 2C8.00004 1.44772 8.44776 1 9.00004 1H14C14.2762 1 14.5262 1.11193 14.7071 1.29289C14.8881 1.47386 15 1.72386 15 2V7C15 7.55228 14.5523 8 14 8C13.4478 8 13 7.55228 13 7V4.41421L6.7574 10.6569C6.36688 11.0474 5.73371 11.0474 5.34319 10.6569C4.95266 10.2663 4.95266 9.63316 5.34319 9.24264L11.5858 3Z" fill="#008C73"/>
</svg>
