<svg width="16" height="16" viewBox="0 0 16 16" fill="none" xmlns="http://www.w3.org/2000/svg">
<path fill-rule="evenodd" clip-rule="evenodd" d="M14.6666 8.00001C14.6666 11.6819 11.6819 14.6667 7.99998 14.6667C4.31808 14.6667 1.33331 11.6819 1.33331 8.00001C1.33331 4.31811 4.31808 1.33334 7.99998 1.33334C11.6819 1.33334 14.6666 4.31811 14.6666 8.00001ZM2.66665 8.00001C2.66665 10.9455 5.05446 13.3333 7.99998 13.3333C10.9455 13.3333 13.3333 10.9455 13.3333 8.00001C13.3333 5.05449 10.9455 2.66668 7.99998 2.66668C5.05446 2.66668 2.66665 5.05449 2.66665 8.00001Z" fill="#121312" fill-opacity="0.87"/>
<path d="M6.96132 6.08946C6.96132 5.57606 7.39589 5.15279 7.94132 5.15279C8.48555 5.15279 8.91999 5.57617 8.91999 6.08946C8.92575 6.46416 8.83049 6.59424 8.36985 6.93045L8.33836 6.95342C7.55721 7.52344 7.22942 7.97805 7.27552 8.88208L7.27466 9.01346C7.27466 9.38165 7.57313 9.68013 7.94132 9.68013C8.30951 9.68013 8.60799 9.38165 8.60799 9.01346V8.84812C8.58975 8.47343 8.67019 8.36186 9.12431 8.03049L9.15592 8.00742C9.93156 7.44129 10.2673 6.98282 10.2532 6.07907C10.2533 4.83198 9.21434 3.81946 7.94132 3.81946C6.66726 3.81946 5.62799 4.8317 5.62799 6.08946C5.62799 6.45765 5.92647 6.75612 6.29466 6.75612C6.66285 6.75612 6.96132 6.45765 6.96132 6.08946Z" fill="#121312" fill-opacity="0.87"/>
<path d="M8.00002 10.5C8.46026 10.5 8.83335 10.8731 8.83335 11.3333C8.83335 11.7936 8.46026 12.1667 8.00002 12.1667C7.53978 12.1667 7.16669 11.7936 7.16669 11.3333C7.16669 10.8731 7.53978 10.5 8.00002 10.5Z" fill="#121312" fill-opacity="0.87"/>
</svg>
