<svg width="24" height="24" viewBox="0 0 24 24" fill="none" xmlns="http://www.w3.org/2000/svg">
<path fill-rule="evenodd" clip-rule="evenodd" d="M22 12C22 17.5228 17.5228 22 12 22C6.47715 22 2 17.5228 2 12C2 6.47715 6.47715 2 12 2C17.5228 2 22 6.47715 22 12ZM4 12C4 16.4183 7.58172 20 12 20C16.4183 20 20 16.4183 20 12C20 7.58172 16.4183 4 12 4C7.58172 4 4 7.58172 4 12Z"/>
<path d="M10.442 9.13419C10.442 8.36408 11.0939 7.72919 11.912 7.72919C12.7283 7.72919 13.38 8.36426 13.38 9.13419C13.3886 9.69625 13.2458 9.89135 12.5548 10.3957L12.5076 10.4301C11.3358 11.2852 10.8441 11.9671 10.9133 13.3231L10.912 13.5202C10.912 14.0725 11.3597 14.5202 11.912 14.5202C12.4643 14.5202 12.912 14.0725 12.912 13.5202V13.2722C12.8846 12.7101 13.0053 12.5428 13.6865 12.0457L13.7339 12.0111C14.8974 11.1619 15.401 10.4742 15.3799 9.1186C15.38 7.24797 13.8215 5.72919 11.912 5.72919C10.0009 5.72919 8.442 7.24754 8.442 9.13419C8.442 9.68647 8.88972 10.1342 9.442 10.1342C9.99429 10.1342 10.442 9.68647 10.442 9.13419Z"/>
<path d="M12 15.75C12.6904 15.75 13.25 16.3096 13.25 17C13.25 17.6904 12.6904 18.25 12 18.25C11.3096 18.25 10.75 17.6904 10.75 17C10.75 16.3096 11.3096 15.75 12 15.75Z"/>
</svg>
