<svg width="16" height="16" viewBox="0 0 16 16" fill="none" xmlns="http://www.w3.org/2000/svg">
<path fill-rule="evenodd" clip-rule="evenodd" d="M14.6667 8.00016C14.6667 11.6821 11.6819 14.6668 8.00004 14.6668C4.31814 14.6668 1.33337 11.6821 1.33337 8.00016C1.33337 4.31826 4.31814 1.3335 8.00004 1.3335C11.6819 1.3335 14.6667 4.31826 14.6667 8.00016ZM2.66671 8.00016C2.66671 10.9457 5.05452 13.3335 8.00004 13.3335C10.9456 13.3335 13.3334 10.9457 13.3334 8.00016C13.3334 5.05464 10.9456 2.66683 8.00004 2.66683C5.05452 2.66683 2.66671 5.05464 2.66671 8.00016Z" fill="#162D45"/>
<path d="M6.96139 6.08934C6.96139 5.57593 7.39595 5.15267 7.94139 5.15267C8.48561 5.15267 8.92005 5.57605 8.92005 6.08934C8.92581 6.46404 8.83055 6.59411 8.36991 6.93033L8.33843 6.9533C7.55727 7.52332 7.22948 7.97792 7.27558 8.88196L7.27472 9.01334C7.27472 9.38153 7.5732 9.68 7.94139 9.68C8.30958 9.68 8.60805 9.38153 8.60805 9.01334V8.848C8.58981 8.47331 8.67025 8.36174 9.12437 8.03037L9.15598 8.0073C9.93162 7.44117 10.2674 6.9827 10.2533 6.07895C10.2534 4.83186 9.2144 3.81934 7.94139 3.81934C6.66733 3.81934 5.62805 4.83157 5.62805 6.08934C5.62805 6.45753 5.92653 6.756 6.29472 6.756C6.66291 6.756 6.96139 6.45753 6.96139 6.08934Z" fill="#162D45"/>
<path d="M7.99996 10.5C8.4602 10.5 8.83329 10.8731 8.83329 11.3333C8.83329 11.7936 8.4602 12.1667 7.99996 12.1667C7.53972 12.1667 7.16663 11.7936 7.16663 11.3333C7.16663 10.8731 7.53972 10.5 7.99996 10.5Z" fill="#162D45"/>
</svg>
