<svg width="16" height="16" fill="none" xmlns="http://www.w3.org/2000/svg"><path fill-rule="evenodd" clip-rule="evenodd" d="M14.667 8A6.667 6.667 0 111.333 8a6.667 6.667 0 0113.334 0zm-12 0a5.333 5.333 0 1010.666 0A5.333 5.333 0 002.667 8z" fill="#162D45"/><path d="M8 14.917A6.917 6.917 0 0014.917 8h-.5A6.417 6.417 0 018 14.417v.5zM1.083 8A6.917 6.917 0 008 14.917v-.5A6.417 6.417 0 011.583 8h-.5zM8 1.083A6.917 6.917 0 001.083 8h.5A6.417 6.417 0 018 1.583v-.5zM14.917 8A6.917 6.917 0 008 1.083v.5A6.417 6.417 0 0114.417 8h.5zM8 13.084A5.083 5.083 0 012.917 8h-.5c0 3.084 2.5 5.584 5.583 5.584v-.5zM13.083 8A5.083 5.083 0 018 13.084v.5c3.084 0 5.583-2.5 5.583-5.584h-.5zM8 2.917A5.083 5.083 0 0113.083 8h.5c0-3.083-2.5-5.583-5.583-5.583v.5zM2.917 8A5.083 5.083 0 018 2.917v-.5A5.583 5.583 0 002.417 8h.5z" fill="#162D45"/><path d="M6.961 6.09c0-.514.435-.937.98-.937.544 0 .979.423.979.936.006.375-.09.505-.55.841l-.032.023c-.78.57-1.109 1.025-1.063 1.929v.131a.667.667 0 101.333 0v-.165c-.018-.375.062-.486.516-.818l.032-.023c.775-.566 1.111-1.024 1.097-1.928 0-1.247-1.039-2.26-2.312-2.26-1.274 0-2.313 1.013-2.313 2.27a.667.667 0 001.333 0zM8 10.5a.833.833 0 110 1.667.833.833 0 010-1.667z" fill="#162D45" stroke="#162D45" stroke-width=".5"/></svg>