<svg width="16" height="16" fill="none" xmlns="http://www.w3.org/2000/svg"><path fill-rule="evenodd" clip-rule="evenodd" d="M7.59.807a.667.667 0 01.82 0l6 4.667c.162.126.257.32.257.526v7.333a2 2 0 01-2 2H3.333a2 2 0 01-2-2V6c0-.206.095-.4.258-.526l6-4.667zm-4.923 5.52v7.006a.667.667 0 00.666.667h9.334a.667.667 0 00.666-.667V6.326L8 2.178 2.667 6.326z" fill="#162D45"/><path fill-rule="evenodd" clip-rule="evenodd" d="M5.333 8c0-.368.299-.667.667-.667h4c.368 0 .667.299.667.667v6.667a.667.667 0 01-1.334 0v-6H6.667v6a.667.667 0 11-1.334 0V8z" fill="#162D45"/></svg>