<svg width="16" height="16" viewBox="0 0 16 16" fill="none" xmlns="http://www.w3.org/2000/svg">
<path fill-rule="evenodd" clip-rule="evenodd" d="M7.59069 0.807104C7.83143 0.619861 8.16853 0.619861 8.40927 0.807104L14.4093 5.47377C14.5717 5.60007 14.6666 5.79428 14.6666 6V13.3333C14.6666 13.8638 14.4559 14.3725 14.0809 14.7476C13.7058 15.1226 13.1971 15.3333 12.6666 15.3333H3.33331C2.80288 15.3333 2.29417 15.1226 1.9191 14.7476C1.54403 14.3725 1.33331 13.8638 1.33331 13.3333V6C1.33331 5.79428 1.42829 5.60007 1.59069 5.47377L7.59069 0.807104ZM2.66665 6.32606V13.3333C2.66665 13.5101 2.73688 13.6797 2.86191 13.8047C2.98693 13.9298 3.1565 14 3.33331 14H12.6666C12.8435 14 13.013 13.9298 13.1381 13.8047C13.2631 13.6797 13.3333 13.5101 13.3333 13.3333V6.32606L7.99998 2.17791L2.66665 6.32606Z" fill="#121312" fill-opacity="0.87"/>
<path fill-rule="evenodd" clip-rule="evenodd" d="M5.33331 7.99999C5.33331 7.63181 5.63179 7.33333 5.99998 7.33333H9.99998C10.3682 7.33333 10.6666 7.63181 10.6666 7.99999V14.6667C10.6666 15.0349 10.3682 15.3333 9.99998 15.3333C9.63179 15.3333 9.33331 15.0349 9.33331 14.6667V8.66666H6.66665V14.6667C6.66665 15.0349 6.36817 15.3333 5.99998 15.3333C5.63179 15.3333 5.33331 15.0349 5.33331 14.6667V7.99999Z" fill="#121312" fill-opacity="0.87"/>
</svg>
