<svg width="16" height="16" viewBox="0 0 16 16" fill="none" xmlns="http://www.w3.org/2000/svg">
<path d="M13 13V11C13 10.4477 13.4477 10 14 10C14.5523 10 15 10.4477 15 11V13C15 14.1046 14.1046 15 13 15H3C1.89543 15 1 14.1046 1 13V3C1 1.89543 1.89543 1 3 1H5C5.55228 1 6 1.44772 6 2C6 2.55228 5.55228 3 5 3H3V13H13Z" />
<path fill-rule="evenodd" clip-rule="evenodd" d="M11.5858 3H9.00001C8.44773 3 8.00001 2.55228 8.00001 2C8.00001 1.44772 8.44773 1 9.00001 1H14C14.2762 1 14.5262 1.11193 14.7071 1.29289C14.8881 1.47386 15 1.72386 15 2V7C15 7.55228 14.5523 8 14 8C13.4477 8 13 7.55228 13 7V4.41421L6.75737 10.6569C6.36685 11.0474 5.73368 11.0474 5.34316 10.6569C4.95263 10.2663 4.95263 9.63316 5.34316 9.24264L11.5858 3Z" />
</svg>
