<svg width="26" height="26" viewBox="0 0 26 26" fill="none" xmlns="http://www.w3.org/2000/svg">
<path d="M13 0.5C6.09644 0.5 0.5 6.09644 0.5 13C0.5 19.9036 6.09644 25.5 13 25.5C19.9036 25.5 25.5 19.9036 25.5 13C25.5 6.09644 19.9036 0.5 13 0.5Z" fill="#B0FFC9"/>
<path d="M13 0.5C6.09644 0.5 0.5 6.09644 0.5 13C0.5 19.9036 6.09644 25.5 13 25.5C19.9036 25.5 25.5 19.9036 25.5 13C25.5 6.09644 19.9036 0.5 13 0.5Z" stroke="white"/>
<rect x="8" y="8" width="4" height="4" rx="0.666667" fill="black"/>
<rect x="8" y="14" width="4" height="4" rx="0.666667" fill="black"/>
<rect x="14" y="8" width="4" height="4" rx="0.666667" fill="black"/>
<rect x="14" y="14" width="4" height="4" rx="0.666667" fill="black"/>
</svg>
