<svg
        xmlns="http://www.w3.org/2000/svg"
        xmlns:xlink="http://www.w3.org/1999/xlink" width="24" height="24" viewBox="0 0 24 24">
    <defs>
        <path id="a" d="M0 0h23.984v22.002H0z"/>
    </defs>
    <g fill="none" fill-rule="evenodd">
        <g transform="translate(0 1)">
            <path fill="currentColor" d="M11.992 19.384L3.05 8.003h17.884l-8.942 11.38zM5.999 2h12.4l2.709 4.003H2.993L5.999 2zm17.974 5.16a.908.908 0 00.01-.128.834.834 0 00-.028-.268.873.873 0 00-.044-.137c-.008-.02-.01-.042-.02-.061-.01-.022-.027-.038-.04-.06-.011-.02-.017-.043-.031-.063L19.759.44a1 1 0 00-.83-.44H5.5c-.315 0-.611.149-.8.4L.192 6.403c-.02.026-.03.056-.047.085-.016.027-.04.048-.052.078-.006.013-.008.028-.014.042-.02.045-.031.09-.045.138-.011.042-.023.084-.028.127-.007.047-.005.094-.005.142 0 .044 0 .088.006.13.007.048.02.092.035.137.012.044.023.087.043.128.005.014.006.028.012.04.017.033.04.058.06.088.018.028.028.058.049.083l11 13.999a.996.996 0 00.786.382c.307 0 .597-.14.786-.382l11-14c.019-.022.027-.05.044-.075.017-.025.038-.046.053-.073.009-.016.01-.033.018-.05a.827.827 0 00.046-.126.82.82 0 00.034-.136z" />
        </g>
    </g>
</svg>
