<svg width="16" height="16" viewBox="0 0 16 16" fill="none" xmlns="http://www.w3.org/2000/svg">
<path fill-rule="evenodd" clip-rule="evenodd" d="M6 1H2C1.44772 1 1 1.44772 1 2V6C1 6.55228 1.44772 7 2 7H6C6.55228 7 7 6.55228 7 6V2C7 1.44772 6.55228 1 6 1ZM3 5V3H5V5H3Z" />
<path fill-rule="evenodd" clip-rule="evenodd" d="M6 9H2C1.44772 9 1 9.44772 1 10V14C1 14.5523 1.44772 15 2 15H6C6.55228 15 7 14.5523 7 14V10C7 9.44772 6.55228 9 6 9ZM3 13V11H5V13H3Z" />
<path fill-rule="evenodd" clip-rule="evenodd" d="M14 1H10C9.44772 1 9 1.44772 9 2V6C9 6.55228 9.44772 7 10 7H14C14.5523 7 15 6.55228 15 6V2C15 1.44772 14.5523 1 14 1ZM11 5V3H13V5H11Z" />
<path d="M10.5 8.79999H9.50001C9.11341 8.79999 8.80001 9.11339 8.80001 9.49999V10.5C8.80001 10.8866 9.11341 11.2 9.50001 11.2H10.5C10.8866 11.2 11.2 10.8866 11.2 10.5V9.49999C11.2 9.11339 10.8866 8.79999 10.5 8.79999Z" />
<path d="M14.5 8.79999H13.5C13.1134 8.79999 12.8 9.11339 12.8 9.49999V10.5C12.8 10.8866 13.1134 11.2 13.5 11.2H14.5C14.8866 11.2 15.2 10.8866 15.2 10.5V9.49999C15.2 9.11339 14.8866 8.79999 14.5 8.79999Z" />
<path d="M14.5 12.8H13.5C13.1134 12.8 12.8 13.1134 12.8 13.5V14.5C12.8 14.8866 13.1134 15.2 13.5 15.2H14.5C14.8866 15.2 15.2 14.8866 15.2 14.5V13.5C15.2 13.1134 14.8866 12.8 14.5 12.8Z" />
<path d="M10.5 12.8H9.50001C9.11341 12.8 8.80001 13.1134 8.80001 13.5V14.5C8.80001 14.8866 9.11341 15.2 9.50001 15.2H10.5C10.8866 15.2 11.2 14.8866 11.2 14.5V13.5C11.2 13.1134 10.8866 12.8 10.5 12.8Z" />
<path d="M12.5 10.8H11.5C11.1134 10.8 10.8 11.1134 10.8 11.5V12.5C10.8 12.8866 11.1134 13.2 11.5 13.2H12.5C12.8866 13.2 13.2 12.8866 13.2 12.5V11.5C13.2 11.1134 12.8866 10.8 12.5 10.8Z" />
</svg>
