<svg width="16" height="16" viewBox="0 0 16 16" fill="none" xmlns="http://www.w3.org/2000/svg">
<path fill-rule="evenodd" clip-rule="evenodd" d="M6 1H2C1.44772 1 1 1.44772 1 2V6C1 6.55228 1.44772 7 2 7H6C6.55228 7 7 6.55228 7 6V2C7 1.44772 6.55228 1 6 1ZM3 5V3H5V5H3Z" fill="#008C73"/>
<path fill-rule="evenodd" clip-rule="evenodd" d="M6 9H2C1.44772 9 1 9.44772 1 10V14C1 14.5523 1.44772 15 2 15H6C6.55228 15 7 14.5523 7 14V10C7 9.44772 6.55228 9 6 9ZM3 13V11H5V13H3Z" fill="#008C73"/>
<path fill-rule="evenodd" clip-rule="evenodd" d="M14 1H10C9.44772 1 9 1.44772 9 2V6C9 6.55228 9.44772 7 10 7H14C14.5523 7 15 6.55228 15 6V2C15 1.44772 14.5523 1 14 1ZM11 5V3H13V5H11Z" fill="#008C73"/>
<path d="M10.5 8.7998H9.49995C9.11335 8.7998 8.79995 9.11321 8.79995 9.4998V10.4998C8.79995 10.8864 9.11335 11.1998 9.49995 11.1998H10.5C10.8866 11.1998 11.2 10.8864 11.2 10.4998V9.4998C11.2 9.11321 10.8866 8.7998 10.5 8.7998Z" fill="#008C73"/>
<path d="M14.5 8.7998H13.5C13.1134 8.7998 12.8 9.11321 12.8 9.4998V10.4998C12.8 10.8864 13.1134 11.1998 13.5 11.1998H14.5C14.8866 11.1998 15.2 10.8864 15.2 10.4998V9.4998C15.2 9.11321 14.8866 8.7998 14.5 8.7998Z" fill="#008C73"/>
<path d="M14.5 12.7998H13.5C13.1134 12.7998 12.8 13.1132 12.8 13.4998V14.4998C12.8 14.8864 13.1134 15.1998 13.5 15.1998H14.5C14.8866 15.1998 15.2 14.8864 15.2 14.4998V13.4998C15.2 13.1132 14.8866 12.7998 14.5 12.7998Z" fill="#008C73"/>
<path d="M10.5 12.7998H9.49995C9.11335 12.7998 8.79995 13.1132 8.79995 13.4998V14.4998C8.79995 14.8864 9.11335 15.1998 9.49995 15.1998H10.5C10.8866 15.1998 11.2 14.8864 11.2 14.4998V13.4998C11.2 13.1132 10.8866 12.7998 10.5 12.7998Z" fill="#008C73"/>
<path d="M12.5 10.7998H11.5C11.1134 10.7998 10.8 11.1132 10.8 11.4998V12.4998C10.8 12.8864 11.1134 13.1998 11.5 13.1998H12.5C12.8866 13.1998 13.2 12.8864 13.2 12.4998V11.4998C13.2 11.1132 12.8866 10.7998 12.5 10.7998Z" fill="#008C73"/>
</svg>
