<svg width="16" height="16" fill="none" xmlns="http://www.w3.org/2000/svg"><path fill-rule="evenodd" clip-rule="evenodd" d="M6 1H2a1 1 0 00-1 1v4a1 1 0 001 1h4a1 1 0 001-1V2a1 1 0 00-1-1zM3 5V3h2v2H3zM6 9H2a1 1 0 00-1 1v4a1 1 0 001 1h4a1 1 0 001-1v-4a1 1 0 00-1-1zm-3 4v-2h2v2H3zM14 1h-4a1 1 0 00-1 1v4a1 1 0 001 1h4a1 1 0 001-1V2a1 1 0 00-1-1zm-3 4V3h2v2h-2z" fill="#008C73"/><path d="M10.5 8.8h-1a.7.7 0 00-.7.7v1a.7.7 0 00.7.7h1a.7.7 0 00.7-.7v-1a.7.7 0 00-.7-.7zM14.5 8.8h-1a.7.7 0 00-.7.7v1a.7.7 0 00.7.7h1a.7.7 0 00.7-.7v-1a.7.7 0 00-.7-.7zM14.5 12.8h-1a.7.7 0 00-.7.7v1a.7.7 0 00.7.7h1a.7.7 0 00.7-.7v-1a.7.7 0 00-.7-.7zM10.5 12.8h-1a.7.7 0 00-.7.7v1a.7.7 0 00.7.7h1a.7.7 0 00.7-.7v-1a.7.7 0 00-.7-.7z" fill="#008C73"/><path d="M12.5 10.8h-1a.7.7 0 00-.7.7v1a.7.7 0 00.7.7h1a.7.7 0 00.7-.7v-1a.7.7 0 00-.7-.7z" fill="#008C73"/></svg>