<svg width="24" height="24" viewBox="0 0 24 24" fill="none" xmlns="http://www.w3.org/2000/svg">
<path fill-rule="evenodd" clip-rule="evenodd" d="M10 5H6C5.44772 5 5 5.44772 5 6V10C5 10.5523 5.44772 11 6 11H10C10.5523 11 11 10.5523 11 10V6C11 5.44772 10.5523 5 10 5ZM7 9V7H9V9H7Z" fill="#121312"/>
<path fill-rule="evenodd" clip-rule="evenodd" d="M10 13H6C5.44772 13 5 13.4477 5 14V18C5 18.5523 5.44772 19 6 19H10C10.5523 19 11 18.5523 11 18V14C11 13.4477 10.5523 13 10 13ZM7 17V15H9V17H7Z" fill="#121312"/>
<path fill-rule="evenodd" clip-rule="evenodd" d="M18 5H14C13.4477 5 13 5.44772 13 6V10C13 10.5523 13.4477 11 14 11H18C18.5523 11 19 10.5523 19 10V6C19 5.44772 18.5523 5 18 5ZM15 9V7H17V9H15Z" fill="#121312"/>
<path d="M14.5 12.8H13.5C13.1134 12.8 12.8 13.1134 12.8 13.5V14.5C12.8 14.8866 13.1134 15.2 13.5 15.2H14.5C14.8866 15.2 15.2 14.8866 15.2 14.5V13.5C15.2 13.1134 14.8866 12.8 14.5 12.8Z" fill="#121312"/>
<path d="M18.5 12.8H17.5C17.1134 12.8 16.8 13.1134 16.8 13.5V14.5C16.8 14.8866 17.1134 15.2 17.5 15.2H18.5C18.8866 15.2 19.2 14.8866 19.2 14.5V13.5C19.2 13.1134 18.8866 12.8 18.5 12.8Z" fill="#121312"/>
<path d="M18.5 16.8H17.5C17.1134 16.8 16.8 17.1134 16.8 17.5V18.5C16.8 18.8866 17.1134 19.2 17.5 19.2H18.5C18.8866 19.2 19.2 18.8866 19.2 18.5V17.5C19.2 17.1134 18.8866 16.8 18.5 16.8Z" fill="#121312"/>
<path d="M14.5 16.8H13.5C13.1134 16.8 12.8 17.1134 12.8 17.5V18.5C12.8 18.8866 13.1134 19.2 13.5 19.2H14.5C14.8866 19.2 15.2 18.8866 15.2 18.5V17.5C15.2 17.1134 14.8866 16.8 14.5 16.8Z" fill="#121312"/>
<path d="M16.5 14.8H15.5C15.1134 14.8 14.8 15.1134 14.8 15.5V16.5C14.8 16.8866 15.1134 17.2 15.5 17.2H16.5C16.8866 17.2 17.2 16.8866 17.2 16.5V15.5C17.2 15.1134 16.8866 14.8 16.5 14.8Z" fill="#121312"/>
</svg>
