<svg width="16" height="16" viewBox="0 0 16 16" fill="none" xmlns="http://www.w3.org/2000/svg">
<path fill-rule="evenodd" clip-rule="evenodd" d="M8.00659 11.9997C5.80059 11.9997 4.00659 10.2057 4.00659 7.99967C4.00659 5.79367 5.80059 3.99967 8.00659 3.99967C10.2126 3.99967 12.0066 5.79367 12.0066 7.99967C12.0066 10.2057 10.2126 11.9997 8.00659 11.9997ZM14.1006 7.19234L13.8699 7.17234C13.4079 7.12301 13.2339 6.84501 13.1726 6.69434C13.0446 6.18567 12.8439 5.70767 12.5819 5.26834C12.5186 5.12167 12.4373 4.79767 12.7346 4.43034L12.8826 4.25301C13.2066 3.88367 13.0773 3.65234 12.8186 3.39234L12.6039 3.17834C12.3446 2.91901 12.1126 2.79034 11.7433 3.11367L11.5659 3.26234C11.1759 3.57701 10.8353 3.46767 10.7033 3.40367C10.2906 3.16101 9.84259 2.97367 9.36859 2.84834C9.25859 2.81767 8.88259 2.67301 8.82459 2.12701L8.80392 1.89634C8.77125 1.40634 8.51725 1.33301 8.14992 1.33301H7.84659C7.47992 1.33301 7.22459 1.40634 7.19258 1.89634L7.17192 2.12701C7.10392 2.76634 6.59659 2.85701 6.59659 2.85701C6.59659 2.85834 6.59725 2.85967 6.59725 2.86101C6.15859 2.98101 5.74325 3.15767 5.35792 3.37901C5.35659 3.37701 5.35592 3.37367 5.35392 3.37167C5.35392 3.37167 4.93125 3.66634 4.43125 3.26301L4.25325 3.11367C3.88392 2.79034 3.65192 2.91901 3.39259 3.17834L3.17859 3.39234C2.91925 3.65234 2.79059 3.88367 3.11325 4.25301L3.26259 4.43034C3.66659 4.93101 3.37125 5.35367 3.37125 5.35367C3.37459 5.35634 3.37859 5.35767 3.38192 5.35967C3.16059 5.74567 2.98525 6.16034 2.86592 6.59901C2.86259 6.59834 2.85925 6.59701 2.85659 6.59634C2.85659 6.59634 2.76659 7.10367 2.12725 7.17234L1.89592 7.19234C1.40659 7.22501 1.33325 7.48034 1.33325 7.84701V8.15034C1.33325 8.51634 1.40659 8.77167 1.89592 8.80367L2.12725 8.82434C2.76659 8.89234 2.85659 9.40034 2.85659 9.40034C2.85925 9.40034 2.86192 9.39901 2.86459 9.39834C2.98459 9.83701 3.15659 10.2537 3.37659 10.6397C3.37525 10.641 3.37259 10.641 3.37125 10.6423C3.37125 10.6423 3.66659 11.0657 3.26259 11.5657L3.11325 11.743C2.79059 12.1123 2.91859 12.345 3.17859 12.6037L3.39259 12.8183C3.65192 13.0777 3.88392 13.2063 4.25325 12.8823L4.43125 12.7343C4.93125 12.3297 5.35392 12.625 5.35392 12.625C5.35459 12.6243 5.35459 12.6237 5.35525 12.623C5.74192 12.845 6.15792 13.0177 6.59659 13.1383V13.1403C6.59659 13.1403 7.10392 13.231 7.17192 13.8703L7.19258 14.1003C7.22459 14.5903 7.47992 14.663 7.84659 14.663H8.14992C8.51725 14.663 8.77125 14.5903 8.80392 14.1003L8.82459 13.8703C8.87792 13.3717 9.19525 13.2077 9.33392 13.1597C9.81859 13.0357 10.2746 12.843 10.6953 12.597C10.8206 12.5343 11.1666 12.4117 11.5659 12.7343L11.7433 12.883C12.1126 13.2063 12.3446 13.0777 12.6039 12.8183L12.8186 12.6037C13.0773 12.345 13.2066 12.1123 12.8826 11.743L12.7346 11.5663C12.4153 11.1703 12.5313 10.827 12.5953 10.699C12.8499 10.2663 13.0486 9.79767 13.1746 9.29834C13.2373 9.14701 13.4106 8.87367 13.8699 8.82434L14.1006 8.80367C14.5899 8.77167 14.6626 8.51634 14.6626 8.15034V7.84701C14.6626 7.48034 14.5899 7.22501 14.1006 7.19234Z" fill="#162D45"/>
</svg>
