<svg width="14" height="14" viewBox="0 0 14 14" fill="none" xmlns="http://www.w3.org/2000/svg">
<path fill-rule="evenodd" clip-rule="evenodd" d="M7.00665 10.9998C4.80065 10.9998 3.00665 9.2058 3.00665 6.9998C3.00665 4.7938 4.80065 2.9998 7.00665 2.9998C9.21265 2.9998 11.0066 4.7938 11.0066 6.9998C11.0066 9.2058 9.21265 10.9998 7.00665 10.9998M13.1006 6.19247L12.87 6.17247C12.408 6.12313 12.234 5.84513 12.1726 5.69447C12.0446 5.1858 11.844 4.7078 11.582 4.26847C11.5186 4.1218 11.4373 3.7978 11.7346 3.43047L11.8826 3.25313C12.2066 2.8838 12.0773 2.65247 11.8186 2.39247L11.604 2.17847C11.3446 1.91913 11.1126 1.79047 10.7433 2.1138L10.566 2.26247C10.176 2.57713 9.83531 2.4678 9.70331 2.4038C9.29065 2.16113 8.84265 1.9738 8.36865 1.84847C8.25865 1.8178 7.88265 1.67313 7.82465 1.12713L7.80398 0.896467C7.77131 0.406467 7.51731 0.333134 7.14998 0.333134H6.84665C6.47998 0.333134 6.22465 0.406467 6.19265 0.896467L6.17198 1.12713C6.10398 1.76647 5.59665 1.85713 5.59665 1.85713C5.59665 1.85847 5.59731 1.8598 5.59731 1.86113C5.15865 1.98113 4.74331 2.1578 4.35798 2.37913C4.35665 2.37713 4.35598 2.3738 4.35398 2.3718C4.35398 2.3718 3.93131 2.66647 3.43131 2.26313L3.25331 2.1138C2.88398 1.79047 2.65198 1.91913 2.39265 2.17847L2.17865 2.39247C1.91931 2.65247 1.79065 2.8838 2.11331 3.25313L2.26265 3.43047C2.66665 3.93113 2.37131 4.3538 2.37131 4.3538C2.37465 4.35647 2.37865 4.3578 2.38198 4.3598C2.16065 4.7458 1.98531 5.16047 1.86598 5.59913C1.86265 5.59847 1.85931 5.59713 1.85665 5.59647C1.85665 5.59647 1.76665 6.1038 1.12731 6.17247L0.89598 6.19247C0.406646 6.22513 0.333313 6.48047 0.333313 6.84713V7.15047C0.333313 7.51647 0.406646 7.7718 0.89598 7.8038L1.12731 7.82447C1.76665 7.89247 1.85665 8.40047 1.85665 8.40047C1.85931 8.40047 1.86198 8.39913 1.86465 8.39847C1.98465 8.83713 2.15665 9.2538 2.37665 9.6398C2.37531 9.64113 2.37265 9.64113 2.37131 9.64247C2.37131 9.64247 2.66665 10.0658 2.26265 10.5658L2.11331 10.7431C1.79065 11.1125 1.91865 11.3451 2.17865 11.6038L2.39265 11.8185C2.65198 12.0778 2.88398 12.2065 3.25331 11.8825L3.43131 11.7345C3.93131 11.3298 4.35398 11.6251 4.35398 11.6251C4.35465 11.6245 4.35465 11.6238 4.35531 11.6231C4.74198 11.8451 5.15798 12.0178 5.59665 12.1385V12.1405C5.59665 12.1405 6.10398 12.2311 6.17198 12.8705L6.19265 13.1005C6.22465 13.5905 6.47998 13.6631 6.84665 13.6631H7.14998C7.51731 13.6631 7.77131 13.5905 7.80398 13.1005L7.82465 12.8705C7.87798 12.3718 8.19531 12.2078 8.33398 12.1598C8.81865 12.0358 9.27465 11.8431 9.69531 11.5971C9.82065 11.5345 10.1666 11.4118 10.566 11.7345L10.7433 11.8831C11.1126 12.2065 11.3446 12.0778 11.604 11.8185L11.8186 11.6038C12.0773 11.3451 12.2066 11.1125 11.8826 10.7431L11.7346 10.5665C11.4153 10.1705 11.5313 9.82713 11.5953 9.69913C11.85 9.26647 12.0486 8.7978 12.1746 8.29847C12.2373 8.14713 12.4106 7.8738 12.87 7.82447L13.1006 7.8038C13.59 7.7718 13.6626 7.51647 13.6626 7.15047V6.84713C13.6626 6.48047 13.59 6.22513 13.1006 6.19247" fill="#121312" fill-opacity="0.87"/>
</svg>
