<svg width="16" height="16" viewBox="0 0 16 16" fill="none" xmlns="http://www.w3.org/2000/svg">
<path fill-rule="evenodd" clip-rule="evenodd" d="M8.00671 11.9998C5.80071 11.9998 4.00671 10.2058 4.00671 7.9998C4.00671 5.7938 5.80071 3.9998 8.00671 3.9998C10.2127 3.9998 12.0067 5.7938 12.0067 7.9998C12.0067 10.2058 10.2127 11.9998 8.00671 11.9998M14.1007 7.19246L13.87 7.17246C13.408 7.12313 13.234 6.84513 13.1727 6.69446C13.0447 6.1858 12.844 5.7078 12.582 5.26846C12.5187 5.1218 12.4374 4.7978 12.7347 4.43046L12.8827 4.25313C13.2067 3.8838 13.0774 3.65246 12.8187 3.39246L12.604 3.17846C12.3447 2.91913 12.1127 2.79046 11.7434 3.1138L11.566 3.26246C11.176 3.57713 10.8354 3.4678 10.7034 3.4038C10.2907 3.16113 9.84271 2.9738 9.36871 2.84846C9.25871 2.8178 8.88271 2.67313 8.82471 2.12713L8.80404 1.89646C8.77137 1.40646 8.51737 1.33313 8.15004 1.33313H7.84671C7.48004 1.33313 7.22471 1.40646 7.19271 1.89646L7.17204 2.12713C7.10404 2.76646 6.59671 2.85713 6.59671 2.85713C6.59671 2.85846 6.59737 2.8598 6.59737 2.86113C6.15871 2.98113 5.74337 3.1578 5.35804 3.37913C5.35671 3.37713 5.35604 3.3738 5.35404 3.3718C5.35404 3.3718 4.93137 3.66646 4.43137 3.26313L4.25337 3.1138C3.88404 2.79046 3.65204 2.91913 3.39271 3.17846L3.17871 3.39246C2.91937 3.65246 2.79071 3.8838 3.11337 4.25313L3.26271 4.43046C3.66671 4.93113 3.37137 5.3538 3.37137 5.3538C3.37471 5.35646 3.37871 5.3578 3.38204 5.3598C3.16071 5.7458 2.98537 6.16046 2.86604 6.59913C2.86271 6.59846 2.85937 6.59713 2.85671 6.59646C2.85671 6.59646 2.76671 7.1038 2.12737 7.17246L1.89604 7.19246C1.40671 7.22513 1.33337 7.48046 1.33337 7.84713V8.15046C1.33337 8.51646 1.40671 8.7718 1.89604 8.8038L2.12737 8.82446C2.76671 8.89246 2.85671 9.40046 2.85671 9.40046C2.85937 9.40046 2.86204 9.39913 2.86471 9.39846C2.98471 9.83713 3.15671 10.2538 3.37671 10.6398C3.37537 10.6411 3.37271 10.6411 3.37137 10.6425C3.37137 10.6425 3.66671 11.0658 3.26271 11.5658L3.11337 11.7431C2.79071 12.1125 2.91871 12.3451 3.17871 12.6038L3.39271 12.8185C3.65204 13.0778 3.88404 13.2065 4.25337 12.8825L4.43137 12.7345C4.93137 12.3298 5.35404 12.6251 5.35404 12.6251C5.35471 12.6245 5.35471 12.6238 5.35537 12.6231C5.74204 12.8451 6.15804 13.0178 6.59671 13.1385V13.1405C6.59671 13.1405 7.10404 13.2311 7.17204 13.8705L7.19271 14.1005C7.22471 14.5905 7.48004 14.6631 7.84671 14.6631H8.15004C8.51737 14.6631 8.77137 14.5905 8.80404 14.1005L8.82471 13.8705C8.87804 13.3718 9.19537 13.2078 9.33404 13.1598C9.81871 13.0358 10.2747 12.8431 10.6954 12.5971C10.8207 12.5345 11.1667 12.4118 11.566 12.7345L11.7434 12.8831C12.1127 13.2065 12.3447 13.0778 12.604 12.8185L12.8187 12.6038C13.0774 12.3451 13.2067 12.1125 12.8827 11.7431L12.7347 11.5665C12.4154 11.1705 12.5314 10.8271 12.5954 10.6991C12.85 10.2665 13.0487 9.7978 13.1747 9.29846C13.2374 9.14713 13.4107 8.8738 13.87 8.82446L14.1007 8.8038C14.59 8.7718 14.6627 8.51646 14.6627 8.15046V7.84713C14.6627 7.48046 14.59 7.22513 14.1007 7.19246" fill="currentColor"/>
</svg>
