<svg width="16" height="16" viewBox="0 0 16 16" fill="none" xmlns="http://www.w3.org/2000/svg">
<path fill-rule="evenodd" clip-rule="evenodd" d="M8.00659 11.9997C5.80059 11.9997 4.00659 10.2057 4.00659 7.99967C4.00659 5.79367 5.80059 3.99967 8.00659 3.99967C10.2126 3.99967 12.0066 5.79367 12.0066 7.99967C12.0066 10.2057 10.2126 11.9997 8.00659 11.9997ZM14.1006 7.19234L13.8699 7.17234C13.4079 7.12301 13.2339 6.84501 13.1726 6.69434C13.0446 6.18567 12.8439 5.70767 12.5819 5.26834C12.5186 5.12167 12.4373 4.79767 12.7346 4.43034L12.8826 4.25301C13.2066 3.88367 13.0773 3.65234 12.8186 3.39234L12.6039 3.17834C12.3446 2.91901 12.1126 2.79034 11.7433 3.11367L11.5659 3.26234C11.1759 3.57701 10.8353 3.46767 10.7033 3.40367C10.2906 3.16101 9.84259 2.97367 9.36859 2.84834C9.25859 2.81767 8.88259 2.67301 8.82459 2.12701L8.80392 1.89634C8.77125 1.40634 8.51725 1.33301 8.14992 1.33301H7.84659C7.47992 1.33301 7.22459 1.40634 7.19258 1.89634L7.17192 2.12701C7.10392 2.76634 6.59659 2.85701 6.59659 2.85701C6.59659 2.85834 6.59725 2.85967 6.59725 2.86101C6.15859 2.98101 5.74325 3.15767 5.35792 3.37901C5.35659 3.37701 5.35592 3.37367 5.35392 3.37167C5.35392 3.37167 4.93125 3.66634 4.43125 3.26301L4.25325 3.11367C3.88392 2.79034 3.65192 2.91901 3.39259 3.17834L3.17859 3.39234C2.91925 3.65234 2.79059 3.88367 3.11325 4.25301L3.26259 4.43034C3.66659 4.93101 3.37125 5.35367 3.37125 5.35367C3.37459 5.35634 3.37859 5.35767 3.38192 5.35967C3.16059 5.74567 2.98525 6.16034 2.86592 6.59901C2.86259 6.59834 2.85925 6.59701 2.85659 6.59634C2.85659 6.59634 2.76659 7.10367 2.12725 7.17234L1.89592 7.19234C1.40659 7.22501 1.33325 7.48034 1.33325 7.84701V8.15034C1.33325 8.51634 1.40659 8.77167 1.89592 8.80367L2.12725 8.82434C2.76659 8.89234 2.85659 9.40034 2.85659 9.40034C2.85925 9.40034 2.86192 9.39901 2.86459 9.39834C2.98459 9.83701 3.15659 10.2537 3.37659 10.6397C3.37525 10.641 3.37259 10.641 3.37125 10.6423C3.37125 10.6423 3.66659 11.0657 3.26259 11.5657L3.11325 11.743C2.79059 12.1123 2.91859 12.345 3.17859 12.6037L3.39259 12.8183C3.65192 13.0777 3.88392 13.2063 4.25325 12.8823L4.43125 12.7343C4.93125 12.3297 5.35392 12.625 5.35392 12.625C5.35459 12.6243 5.35459 12.6237 5.35525 12.623C5.74192 12.845 6.15792 13.0177 6.59659 13.1383V13.1403C6.59659 13.1403 7.10392 13.231 7.17192 13.8703L7.19258 14.1003C7.22459 14.5903 7.47992 14.663 7.84659 14.663H8.14992C8.51725 14.663 8.77125 14.5903 8.80392 14.1003L8.82459 13.8703C8.87792 13.3717 9.19525 13.2077 9.33392 13.1597C9.81859 13.0357 10.2746 12.843 10.6953 12.597C10.8206 12.5343 11.1666 12.4117 11.5659 12.7343L11.7433 12.883C12.1126 13.2063 12.3446 13.0777 12.6039 12.8183L12.8186 12.6037C13.0773 12.345 13.2066 12.1123 12.8826 11.743L12.7346 11.5663C12.4153 11.1703 12.5313 10.827 12.5953 10.699C12.8499 10.2663 13.0486 9.79767 13.1746 9.29834C13.2373 9.14701 13.4106 8.87367 13.8699 8.82434L14.1006 8.80367C14.5899 8.77167 14.6626 8.51634 14.6626 8.15034V7.84701C14.6626 7.48034 14.5899 7.22501 14.1006 7.19234Z" fill="#162D45"/>
<path d="M13.8699 7.17234L13.8434 7.42098L13.8483 7.42141L13.8699 7.17234ZM13.1726 6.69434L12.9301 6.75535L12.9344 6.77236L12.941 6.7886L13.1726 6.69434ZM12.5819 5.26834L12.3524 5.36745L12.3589 5.3824L12.3672 5.39639L12.5819 5.26834ZM12.7346 4.43034L12.5426 4.27013L12.5403 4.27305L12.7346 4.43034ZM12.8826 4.25301L12.6946 4.08809L12.6906 4.09282L12.8826 4.25301ZM12.8186 3.39234L12.9958 3.21602L12.9951 3.21529L12.8186 3.39234ZM12.6039 3.17834L12.4271 3.35512L12.4274 3.35539L12.6039 3.17834ZM11.7433 3.11367L11.9039 3.3053L11.9079 3.30178L11.7433 3.11367ZM11.5659 3.26234L11.7229 3.45694L11.7265 3.45392L11.5659 3.26234ZM10.7033 3.40367L10.5765 3.61918L10.5852 3.62426L10.5942 3.62863L10.7033 3.40367ZM9.36859 2.84834L9.30144 3.08918L9.30468 3.09003L9.36859 2.84834ZM8.82459 2.12701L8.57555 2.14932L8.57598 2.15342L8.82459 2.12701ZM8.80392 1.89634L8.55441 1.91298L8.55492 1.91865L8.80392 1.89634ZM7.19258 1.89634L7.44166 1.91866L7.44205 1.91263L7.19258 1.89634ZM7.17192 2.12701L7.42055 2.15345L7.42092 2.14932L7.17192 2.12701ZM6.59659 2.85701L6.5526 2.61091L6.34659 2.64772V2.85701H6.59659ZM6.59725 2.86101L6.66322 3.10215L6.84725 3.0518V2.86101H6.59725ZM5.35792 3.37901L5.14991 3.51768L5.27964 3.71228L5.48244 3.59579L5.35792 3.37901ZM5.35392 3.37167L5.5307 3.1949L5.38267 3.04687L5.21094 3.16659L5.35392 3.37167ZM4.43125 3.26301L4.27054 3.45457L4.27429 3.45759L4.43125 3.26301ZM4.25325 3.11367L4.08854 3.30182L4.09257 3.3052L4.25325 3.11367ZM3.39259 3.17834L3.21581 3.00156L3.39259 3.17834ZM3.17859 3.39234L3.00181 3.21556L3.00158 3.21579L3.17859 3.39234ZM3.11325 4.25301L3.30451 4.09195L3.30152 4.08853L3.11325 4.25301ZM3.26259 4.43034L3.45719 4.27331L3.45381 4.26931L3.26259 4.43034ZM3.37125 5.35367L3.16632 5.21048L3.03213 5.40253L3.21508 5.54889L3.37125 5.35367ZM3.38192 5.35967L3.59879 5.48403L3.72072 5.2714L3.51054 5.1453L3.38192 5.35967ZM2.86592 6.59901L2.81689 6.84415L3.04586 6.88995L3.10715 6.66463L2.86592 6.59901ZM2.85659 6.59634L2.91722 6.35381L2.65724 6.28881L2.61043 6.55267L2.85659 6.59634ZM2.12725 7.17234L2.14879 7.42147L2.15395 7.42091L2.12725 7.17234ZM1.89592 7.19234L1.91257 7.44183L1.91745 7.44141L1.89592 7.19234ZM1.89592 8.80367L1.91817 8.5546L1.91223 8.55421L1.89592 8.80367ZM2.12725 8.82434L2.1537 8.57571L2.1495 8.57533L2.12725 8.82434ZM2.85659 9.40034L2.61042 9.44395L2.64698 9.65034H2.85659V9.40034ZM2.86459 9.39834L3.10573 9.33238L3.0412 9.09649L2.80395 9.1558L2.86459 9.39834ZM3.37659 10.6397L3.55336 10.8165L3.68823 10.6816L3.59378 10.5159L3.37659 10.6397ZM3.37125 10.6423L3.19448 10.4656L3.0464 10.6136L3.16622 10.7854L3.37125 10.6423ZM3.26259 11.5657L3.45385 11.7267L3.45704 11.7228L3.26259 11.5657ZM3.11325 11.743L3.30155 11.9075L3.30448 11.904L3.11325 11.743ZM3.17859 12.6037L3.35564 12.4272L3.35491 12.4264L3.17859 12.6037ZM3.39259 12.8183L3.21553 12.9948L3.21581 12.9951L3.39259 12.8183ZM4.25325 12.8823L4.09336 12.69L4.08839 12.6944L4.25325 12.8823ZM4.43125 12.7343L4.27396 12.54L4.27142 12.5421L4.43125 12.7343ZM5.35392 12.625L5.21073 12.8299L5.38251 12.95L5.5307 12.8018L5.35392 12.625ZM5.35525 12.623L5.47973 12.4062L5.31378 12.3109L5.17848 12.4462L5.35525 12.623ZM6.59659 13.1383H6.84659V12.9478L6.66289 12.8973L6.59659 13.1383ZM6.59659 13.1403H6.34659V13.3496L6.5526 13.3864L6.59659 13.1403ZM7.17192 13.8703L7.42095 13.848L7.42052 13.8439L7.17192 13.8703ZM7.19258 14.1003L7.44213 14.084L7.44158 14.078L7.19258 14.1003ZM8.80392 14.1003L8.55486 14.078L8.55447 14.0837L8.80392 14.1003ZM8.82459 13.8703L8.57597 13.8438L8.57559 13.848L8.82459 13.8703ZM9.33392 13.1597L9.27195 12.9175L9.26192 12.92L9.25214 12.9234L9.33392 13.1597ZM10.6953 12.597L10.5834 12.3734L10.5761 12.3771L10.5691 12.3812L10.6953 12.597ZM11.5659 12.7343L11.7266 12.5427L11.723 12.5399L11.5659 12.7343ZM11.7433 12.883L11.908 12.6949L11.9039 12.6914L11.7433 12.883ZM12.6039 12.8183L12.4271 12.6416L12.6039 12.8183ZM12.8186 12.6037L12.9954 12.7805L12.8186 12.6037ZM12.8826 11.743L12.6909 11.9036L12.6947 11.9079L12.8826 11.743ZM12.7346 11.5663L12.5399 11.7233L12.5429 11.7269L12.7346 11.5663ZM12.5953 10.699L12.3798 10.5722L12.3755 10.5796L12.3716 10.5872L12.5953 10.699ZM13.1746 9.29834L12.9436 9.20269L12.9366 9.21952L12.9322 9.23717L13.1746 9.29834ZM13.8699 8.82434L13.8476 8.5753L13.8432 8.57577L13.8699 8.82434ZM14.1006 8.80367L14.0843 8.55413L14.0783 8.55467L14.1006 8.80367ZM8.00659 11.7497C5.93866 11.7497 4.25659 10.0676 4.25659 7.99967H3.75659C3.75659 10.3437 5.66251 12.2497 8.00659 12.2497V11.7497ZM4.25659 7.99967C4.25659 5.93175 5.93866 4.24967 8.00659 4.24967V3.74967C5.66251 3.74967 3.75659 5.6556 3.75659 7.99967H4.25659ZM8.00659 4.24967C10.0745 4.24967 11.7566 5.93175 11.7566 7.99967H12.2566C12.2566 5.6556 10.3507 3.74967 8.00659 3.74967V4.24967ZM11.7566 7.99967C11.7566 10.0676 10.0745 11.7497 8.00659 11.7497V12.2497C10.3507 12.2497 12.2566 10.3437 12.2566 7.99967H11.7566ZM14.1222 6.94327L13.8915 6.92327L13.8483 7.42141L14.079 7.44141L14.1222 6.94327ZM13.8965 6.92375C13.5512 6.88689 13.4415 6.69186 13.4041 6.60008L12.941 6.7886C13.0263 6.99816 13.2646 7.35913 13.8434 7.42093L13.8965 6.92375ZM13.415 6.63333C13.281 6.10052 13.0708 5.59999 12.7966 5.14029L12.3672 5.39639C12.6171 5.81536 12.8082 6.27083 12.9301 6.75535L13.415 6.63333ZM12.8114 5.16923C12.7727 5.07942 12.7073 4.86138 12.9289 4.58763L12.5403 4.27305C12.1672 4.73397 12.2645 5.16393 12.3524 5.36745L12.8114 5.16923ZM12.9265 4.59053L13.0745 4.4132L12.6906 4.09282L12.5426 4.27015L12.9265 4.59053ZM13.0705 4.41787C13.2588 4.20326 13.3579 3.97876 13.3153 3.73809C13.2764 3.51867 13.127 3.34784 12.9958 3.21602L12.6414 3.56866C12.7689 3.69684 12.8134 3.77168 12.8229 3.82526C12.8286 3.85759 12.8304 3.93342 12.6947 4.08814L13.0705 4.41787ZM12.9951 3.21529L12.7804 3.00129L12.4274 3.35539L12.6421 3.56939L12.9951 3.21529ZM12.7807 3.00156C12.6488 2.86972 12.4781 2.7202 12.2584 2.68133C12.0178 2.63876 11.7932 2.73766 11.5786 2.92557L11.9079 3.30178C12.0626 3.16636 12.1387 3.16792 12.1713 3.17368C12.2248 3.18315 12.2997 3.22763 12.4271 3.35512L12.7807 3.00156ZM11.5826 2.92209L11.4053 3.07076L11.7265 3.45392L11.9039 3.30526L11.5826 2.92209ZM11.4089 3.06777C11.1192 3.30158 10.8903 3.21651 10.8123 3.17872L10.5942 3.62863C10.7802 3.71884 11.2327 3.85244 11.7229 3.45691L11.4089 3.06777ZM10.83 3.18817C10.3976 2.9339 9.92843 2.73778 9.43249 2.60665L9.30468 3.09003C9.75674 3.20957 10.1836 3.38811 10.5765 3.61918L10.83 3.18817ZM9.43572 2.60752C9.40513 2.599 9.32463 2.57061 9.24844 2.49889C9.17687 2.43151 9.09586 2.31402 9.07319 2.1006L8.57598 2.15342C8.61131 2.486 8.74731 2.71384 8.90573 2.86296C9.05954 3.00774 9.22204 3.06702 9.30145 3.08916L9.43572 2.60752ZM9.07359 2.1047L9.05292 1.87403L8.55492 1.91865L8.57558 2.14932L9.07359 2.1047ZM9.05337 1.87971C9.0344 1.5953 8.94592 1.36645 8.74595 1.22623C8.56322 1.09811 8.33667 1.08301 8.14992 1.08301V1.58301C8.3305 1.58301 8.41462 1.60457 8.45889 1.63562C8.48591 1.65457 8.54077 1.70738 8.55447 1.91297L9.05337 1.87971ZM8.14992 1.08301H7.84659V1.58301H8.14992V1.08301ZM7.84659 1.08301C7.66009 1.08301 7.43351 1.09813 7.2507 1.22613C7.05049 1.36631 6.96172 1.59522 6.94312 1.88005L7.44205 1.91263C7.45545 1.70746 7.51035 1.65471 7.53747 1.63572C7.58199 1.60455 7.66642 1.58301 7.84659 1.58301V1.08301ZM6.94358 1.87403L6.92292 2.1047L7.42092 2.14932L7.44159 1.91865L6.94358 1.87403ZM6.92332 2.10057C6.89707 2.34741 6.79158 2.46897 6.70773 2.53253C6.66275 2.56663 6.61924 2.58732 6.58806 2.59917C6.57264 2.60504 6.56083 2.60851 6.55421 2.61028C6.55093 2.61115 6.549 2.61158 6.54865 2.61166C6.54847 2.6117 6.54869 2.61165 6.54934 2.61152C6.54967 2.61145 6.5501 2.61137 6.55064 2.61127C6.55091 2.61122 6.55121 2.61116 6.55154 2.6111C6.5517 2.61107 6.55187 2.61104 6.55205 2.61101C6.55214 2.61099 6.55228 2.61097 6.55232 2.61096C6.55246 2.61093 6.5526 2.61091 6.59659 2.85701C6.64057 3.10311 6.64071 3.10308 6.64086 3.10306C6.64091 3.10305 6.64106 3.10302 6.64117 3.103C6.64138 3.10296 6.64159 3.10292 6.64182 3.10288C6.64227 3.1028 6.64275 3.10271 6.64327 3.10261C6.6443 3.10242 6.64546 3.10219 6.64674 3.10194C6.64932 3.10143 6.6524 3.10079 6.65595 3.10001C6.66306 3.09845 6.6721 3.0963 6.68282 3.09345C6.70422 3.08776 6.73257 3.07915 6.76577 3.06653C6.83185 3.0414 6.91942 2.99947 7.00977 2.93099C7.19659 2.78938 7.37877 2.54594 7.42052 2.15345L6.92332 2.10057ZM6.34659 2.85701C6.34659 2.87777 6.34915 2.89437 6.35097 2.90408C6.35191 2.90907 6.35282 2.9131 6.35339 2.91555C6.35369 2.91681 6.35394 2.91784 6.3541 2.91849C6.35425 2.9191 6.35438 2.91963 6.35438 2.91964C6.3545 2.92011 6.35409 2.91848 6.35364 2.91655C6.35314 2.91443 6.3523 2.91074 6.35143 2.90608C6.34973 2.89704 6.34725 2.8811 6.34725 2.86101H6.84725C6.84725 2.84025 6.84469 2.82364 6.84287 2.81394C6.84193 2.80895 6.84102 2.80492 6.84045 2.80246C6.84015 2.80121 6.8399 2.80017 6.83974 2.79952C6.83959 2.79892 6.83946 2.79839 6.83946 2.79838C6.83934 2.79791 6.83975 2.79953 6.8402 2.80146C6.8407 2.80358 6.84153 2.80728 6.84241 2.81194C6.8441 2.82098 6.84659 2.83692 6.84659 2.85701H6.34659ZM6.53129 2.61987C6.0711 2.74575 5.63617 2.93087 5.2334 3.16222L5.48244 3.59579C5.85033 3.38447 6.24607 3.21626 6.66322 3.10215L6.53129 2.61987ZM5.56593 3.24033C5.57701 3.25695 5.58335 3.27106 5.58499 3.27471C5.58557 3.27599 5.58602 3.27703 5.58629 3.27764C5.58642 3.27796 5.58653 3.27821 5.5866 3.27837C5.58663 3.27845 5.58666 3.27851 5.58668 3.27856C5.5867 3.2786 5.58671 3.27862 5.58671 3.27863C5.5869 3.27907 5.58605 3.27706 5.58521 3.27513C5.58352 3.27127 5.57871 3.26038 5.57114 3.24741C5.56343 3.23419 5.55058 3.21478 5.5307 3.1949L5.17714 3.54845C5.15826 3.52957 5.14624 3.51133 5.13926 3.49935C5.13242 3.48764 5.12824 3.47808 5.12713 3.47555C5.12658 3.47429 5.12601 3.47295 5.12648 3.47405C5.12665 3.47444 5.1277 3.47692 5.12903 3.47989C5.13041 3.48295 5.13274 3.48799 5.13589 3.49401C5.13903 3.50003 5.14365 3.5083 5.14991 3.51768L5.56593 3.24033ZM5.35392 3.37167C5.21094 3.16659 5.21106 3.16651 5.21118 3.16643C5.21122 3.1664 5.21133 3.16632 5.21141 3.16627C5.21155 3.16617 5.2117 3.16607 5.21183 3.16598C5.21211 3.16579 5.21236 3.16562 5.21259 3.16546C5.21304 3.16515 5.21341 3.1649 5.21368 3.16472C5.21423 3.16435 5.21442 3.16423 5.21427 3.16433C5.21396 3.16453 5.2123 3.16558 5.20935 3.16729C5.20343 3.17073 5.19262 3.17663 5.17757 3.18339C5.14714 3.19707 5.10176 3.21322 5.04585 3.22095C4.94163 3.23536 4.78119 3.22409 4.58822 3.06842L4.27429 3.45759C4.58132 3.70526 4.88221 3.74833 5.11432 3.71624C5.22658 3.70072 5.31811 3.66841 5.38256 3.63944C5.41495 3.62488 5.44107 3.61091 5.46021 3.59981C5.4698 3.59424 5.4777 3.58936 5.48383 3.58544C5.4869 3.58348 5.48952 3.58175 5.4917 3.5803C5.49279 3.57957 5.49377 3.5789 5.49464 3.57831C5.49507 3.57802 5.49547 3.57774 5.49585 3.57748C5.49604 3.57735 5.49622 3.57722 5.49639 3.5771C5.49648 3.57704 5.4966 3.57696 5.49665 3.57693C5.49677 3.57684 5.49689 3.57676 5.35392 3.37167ZM4.59193 3.07148L4.41393 2.92215L4.09257 3.3052L4.27057 3.45453L4.59193 3.07148ZM4.41793 2.92557C4.20328 2.73766 3.97869 2.63876 3.73811 2.68133C3.51845 2.7202 3.34766 2.86972 3.21581 3.00156L3.56936 3.35512C3.69685 3.22763 3.77172 3.18315 3.82523 3.17368C3.85782 3.16792 3.93389 3.16636 4.08858 3.30178L4.41793 2.92557ZM3.21581 3.00156L3.00181 3.21556L3.35536 3.56912L3.56936 3.35512L3.21581 3.00156ZM3.00158 3.21579C2.86992 3.34779 2.7205 3.51854 2.68152 3.73795C2.6388 3.9784 2.73746 4.20284 2.92498 4.41749L3.30152 4.08853C3.16638 3.93384 3.16803 3.85795 3.17381 3.8254C3.18334 3.77181 3.22791 3.69689 3.35559 3.56889L3.00158 3.21579ZM2.92202 4.41404L3.07136 4.59137L3.45381 4.26931L3.30448 4.09197L2.92202 4.41404ZM3.06803 4.58733C3.22402 4.78066 3.23524 4.94123 3.22079 5.04542C3.21303 5.10133 3.19685 5.14671 3.18315 5.17712C3.17637 5.19217 3.17046 5.20298 3.16702 5.2089C3.16531 5.21184 3.16425 5.2135 3.16405 5.21381C3.16395 5.21396 3.16407 5.21377 3.16444 5.21322C3.16463 5.21294 3.16487 5.21258 3.16519 5.21212C3.16534 5.2119 3.16551 5.21165 3.1657 5.21137C3.1658 5.21124 3.1659 5.21109 3.166 5.21094C3.16605 5.21087 3.16613 5.21075 3.16616 5.21072C3.16624 5.2106 3.16632 5.21048 3.37125 5.35367C3.57618 5.49687 3.57627 5.49674 3.57635 5.49662C3.57638 5.49658 3.57647 5.49645 3.57653 5.49637C3.57665 5.49619 3.57678 5.49601 3.57691 5.49582C3.57717 5.49545 3.57745 5.49504 3.57774 5.49461C3.57834 5.49374 3.579 5.49276 3.57973 5.49167C3.58119 5.48949 3.58292 5.48687 3.58489 5.4838C3.58882 5.47767 3.59371 5.46977 3.59929 5.46017C3.61042 5.44102 3.62443 5.4149 3.63902 5.38249C3.66807 5.31802 3.70047 5.22644 3.71605 5.1141C3.74827 4.88179 3.70515 4.58069 3.45714 4.27335L3.06803 4.58733ZM3.21508 5.54889C3.23795 5.56719 3.259 5.57764 3.26479 5.58053C3.26644 5.58136 3.26792 5.58208 3.26822 5.58223C3.26886 5.58254 3.26827 5.58225 3.26751 5.58188C3.26608 5.58116 3.26045 5.57834 3.25329 5.57405L3.51054 5.1453C3.50172 5.14001 3.49434 5.13627 3.49112 5.13466C3.48946 5.13383 3.48796 5.1331 3.4877 5.13297C3.48709 5.13268 3.48765 5.13295 3.48839 5.13332C3.48987 5.13406 3.49493 5.1366 3.50137 5.14042C3.50802 5.14437 3.51719 5.15027 3.52743 5.15846L3.21508 5.54889ZM3.16504 5.23532C2.93359 5.63896 2.74985 6.07329 2.62469 6.53338L3.10715 6.66463C3.22066 6.24739 3.38758 5.85239 3.59879 5.48403L3.16504 5.23532ZM2.91495 6.35386C2.92179 6.35523 2.92719 6.35665 2.9305 6.35757C2.93375 6.35847 2.93609 6.35922 2.93629 6.35928C2.93631 6.35928 2.93651 6.35935 2.93574 6.3591C2.93524 6.35895 2.93407 6.35857 2.9327 6.35815C2.93026 6.35739 2.92448 6.35562 2.91722 6.35381L2.79595 6.83888C2.79003 6.8374 2.78566 6.83604 2.7847 6.83574C2.78407 6.83555 2.78365 6.83541 2.78393 6.8355C2.78398 6.83552 2.78404 6.83554 2.78414 6.83557C2.78424 6.8356 2.78437 6.83564 2.78452 6.83569C2.7848 6.83578 2.78523 6.83591 2.78571 6.83607C2.7875 6.83663 2.79146 6.83787 2.79636 6.83924C2.80131 6.84062 2.80838 6.84245 2.81689 6.84415L2.91495 6.35386ZM2.85659 6.59634C2.61043 6.55267 2.61045 6.55253 2.61048 6.55239C2.61049 6.55235 2.61051 6.55221 2.61053 6.55212C2.61056 6.55194 2.61059 6.55177 2.61062 6.55161C2.61068 6.55128 2.61074 6.55098 2.61079 6.55071C2.61089 6.55017 2.61097 6.54973 2.61104 6.54941C2.61116 6.54876 2.61121 6.54853 2.61118 6.54871C2.6111 6.54906 2.61067 6.55098 2.6098 6.55427C2.60805 6.56088 2.60459 6.57269 2.59875 6.58811C2.58694 6.61928 2.56631 6.66279 2.53227 6.70779C2.46885 6.79165 2.34742 6.89726 2.10055 6.92377L2.15395 7.42091C2.54641 7.37876 2.78966 7.19636 2.93106 7.00939C2.99944 6.91898 3.04127 6.83136 3.06632 6.76526C3.0789 6.73205 3.08747 6.70368 3.09314 6.68228C3.09598 6.67156 3.09811 6.66251 3.09966 6.6554C3.10044 6.65184 3.10107 6.64876 3.10158 6.64619C3.10183 6.6449 3.10206 6.64374 3.10225 6.64271C3.10235 6.64219 3.10243 6.64171 3.10252 6.64126C3.10256 6.64104 3.1026 6.64082 3.10263 6.64061C3.10265 6.64051 3.10268 6.64036 3.10269 6.6403C3.10272 6.64015 3.10274 6.64001 2.85659 6.59634ZM2.10572 6.92327L1.87439 6.94327L1.91745 7.44141L2.14879 7.42141L2.10572 6.92327ZM1.87927 6.9429C1.59468 6.96189 1.3661 7.051 1.22617 7.25121C1.0984 7.43403 1.08325 7.66046 1.08325 7.84701H1.58325C1.58325 7.66689 1.60477 7.58232 1.636 7.53764C1.65507 7.51035 1.70783 7.45545 1.91257 7.44179L1.87927 6.9429ZM1.08325 7.84701V8.15034H1.58325V7.84701H1.08325ZM1.08325 8.15034C1.08325 8.33657 1.0984 8.56292 1.22627 8.74561C1.36632 8.9457 1.59501 9.03453 1.8796 9.05314L1.91223 8.55421C1.7075 8.54082 1.65485 8.48598 1.6359 8.4589C1.60477 8.41443 1.58325 8.33011 1.58325 8.15034H1.08325ZM1.87367 9.05268L2.10501 9.07335L2.1495 8.57533L1.91816 8.55467L1.87367 9.05268ZM2.10081 9.07294C2.34751 9.09918 2.46883 9.2047 2.53223 9.28859C2.56626 9.33361 2.5869 9.37716 2.59872 9.4084C2.60457 9.42384 2.60803 9.43568 2.60978 9.44231C2.61065 9.44561 2.61108 9.44754 2.61116 9.4479C2.6112 9.44808 2.61115 9.44786 2.61102 9.44721C2.61096 9.44689 2.61088 9.44646 2.61078 9.44592C2.61072 9.44564 2.61067 9.44534 2.61061 9.44502C2.61058 9.44485 2.61055 9.44468 2.61052 9.44451C2.6105 9.44442 2.61048 9.44428 2.61047 9.44423C2.61044 9.44409 2.61042 9.44395 2.85659 9.40034C3.10275 9.35673 3.10273 9.35658 3.1027 9.35643C3.10269 9.35638 3.10266 9.35623 3.10264 9.35613C3.10261 9.35592 3.10257 9.3557 3.10253 9.35548C3.10245 9.35503 3.10236 9.35454 3.10226 9.35403C3.10207 9.353 3.10185 9.35184 3.10159 9.35055C3.10108 9.34798 3.10045 9.3449 3.09967 9.34134C3.09812 9.33422 3.09599 9.32517 3.09316 9.31445C3.08749 9.29303 3.07893 9.26465 3.06635 9.23141C3.04131 9.16527 2.99949 9.07757 2.93111 8.9871C2.78968 8.79998 2.54633 8.6175 2.15369 8.57574L2.10081 9.07294ZM2.85659 9.65034C2.87793 9.65034 2.89571 9.64769 2.90836 9.64512C2.92077 9.6426 2.93047 9.63968 2.93516 9.63821C2.9378 9.63738 2.94462 9.63513 2.94053 9.63647C2.93957 9.63679 2.93343 9.63882 2.92522 9.64088L2.80395 9.1558C2.7944 9.15819 2.78693 9.16064 2.78464 9.1614C2.78381 9.16167 2.78195 9.16229 2.7828 9.16201C2.78289 9.16198 2.78421 9.16153 2.78601 9.16097C2.78937 9.15992 2.79773 9.15738 2.80881 9.15513C2.82013 9.15283 2.83658 9.15034 2.85659 9.15034V9.65034ZM2.62345 9.46431C2.74886 9.92277 2.92881 10.3589 3.15939 10.7635L3.59378 10.5159C3.38436 10.1484 3.22031 9.75125 3.10573 9.33238L2.62345 9.46431ZM3.19981 10.4629C3.21439 10.4483 3.22883 10.4375 3.24112 10.4296C3.25328 10.4218 3.26408 10.4164 3.27194 10.4129C3.27975 10.4093 3.28614 10.4069 3.28964 10.4057C3.29288 10.4045 3.29565 10.4036 3.29487 10.4038C3.29484 10.4038 3.29459 10.4039 3.29432 10.404C3.29402 10.4041 3.29356 10.4043 3.29301 10.4045C3.29195 10.4048 3.29023 10.4054 3.28815 10.4062C3.28416 10.4076 3.27729 10.4102 3.26902 10.414C3.26071 10.4177 3.24946 10.4234 3.2369 10.4314C3.22421 10.4396 3.20939 10.4507 3.19448 10.4656L3.54803 10.8191C3.53345 10.8337 3.519 10.8445 3.50672 10.8524C3.49456 10.8602 3.48376 10.8656 3.4759 10.8691C3.46808 10.8727 3.4617 10.8751 3.4582 10.8764C3.45496 10.8775 3.45219 10.8784 3.45296 10.8782C3.453 10.8782 3.45324 10.8781 3.45352 10.878C3.45382 10.8779 3.45428 10.8777 3.45482 10.8776C3.45589 10.8772 3.4576 10.8766 3.45969 10.8758C3.46367 10.8744 3.47054 10.8718 3.47882 10.8681C3.48713 10.8643 3.49837 10.8586 3.51094 10.8506C3.52363 10.8425 3.53845 10.8314 3.55336 10.8165L3.19981 10.4629ZM3.37125 10.6423C3.16622 10.7854 3.16613 10.7853 3.16605 10.7851C3.16603 10.7851 3.16595 10.785 3.1659 10.7849C3.16579 10.7848 3.16569 10.7846 3.1656 10.7845C3.16541 10.7842 3.16524 10.784 3.16508 10.7837C3.16477 10.7833 3.16453 10.7829 3.16435 10.7827C3.16398 10.7821 3.16386 10.7819 3.16396 10.7821C3.16416 10.7824 3.16523 10.7841 3.16694 10.787C3.1704 10.793 3.17632 10.8038 3.1831 10.8189C3.19683 10.8494 3.21303 10.8949 3.22079 10.9508C3.23525 11.0552 3.22399 11.2157 3.06813 11.4086L3.45704 11.7228C3.70518 11.4157 3.74826 11.1145 3.71605 10.8822C3.70048 10.7698 3.66809 10.6782 3.63907 10.6137C3.62448 10.5813 3.61048 10.5552 3.59936 10.536C3.59379 10.5264 3.58891 10.5185 3.58498 10.5124C3.58302 10.5093 3.58129 10.5067 3.57983 10.5045C3.5791 10.5034 3.57844 10.5024 3.57784 10.5016C3.57755 10.5011 3.57727 10.5007 3.57701 10.5003C3.57688 10.5002 3.57676 10.5 3.57664 10.4998C3.57658 10.4997 3.57649 10.4996 3.57646 10.4995C3.57637 10.4994 3.57629 10.4993 3.37125 10.6423ZM3.07136 11.4046L2.92202 11.582L3.30448 11.904L3.45381 11.7267L3.07136 11.4046ZM2.92498 11.5785C2.73743 11.7932 2.63871 12.0179 2.68124 12.2584C2.72012 12.4783 2.86972 12.649 3.00226 12.7809L3.35491 12.4264C3.22746 12.2996 3.18305 12.2247 3.1736 12.1713C3.16779 12.1385 3.16641 12.0621 3.30152 11.9075L2.92498 11.5785ZM3.00153 12.7802L3.21553 12.9948L3.56964 12.6418L3.35564 12.4272L3.00153 12.7802ZM3.21581 12.9951C3.34763 13.1269 3.51849 13.2765 3.73826 13.3153C3.97896 13.3577 4.20355 13.2585 4.41812 13.0703L4.08839 12.6944C3.93362 12.8302 3.85754 12.8286 3.82508 12.8229C3.77168 12.8135 3.69687 12.7691 3.56936 12.6416L3.21581 12.9951ZM4.41309 13.0746L4.59109 12.9266L4.27142 12.5421L4.09342 12.6901L4.41309 13.0746ZM4.58853 12.9287C4.78153 12.7725 4.94186 12.7612 5.04585 12.7756C5.10168 12.7833 5.14701 12.7994 5.1774 12.8131C5.19244 12.8199 5.20323 12.8258 5.20915 12.8292C5.21209 12.831 5.21375 12.832 5.21406 12.8322C5.21421 12.8323 5.21402 12.8322 5.21346 12.8318C5.21319 12.8316 5.21283 12.8314 5.21237 12.8311C5.21214 12.8309 5.21189 12.8307 5.21162 12.8306C5.21148 12.8305 5.21134 12.8304 5.21119 12.8303C5.21112 12.8302 5.211 12.8301 5.21096 12.8301C5.21085 12.83 5.21073 12.8299 5.35392 12.625C5.49711 12.4201 5.49699 12.42 5.49687 12.4199C5.49682 12.4199 5.4967 12.4198 5.49661 12.4197C5.49644 12.4196 5.49625 12.4195 5.49607 12.4194C5.49569 12.4191 5.49529 12.4188 5.49485 12.4185C5.49399 12.4179 5.49301 12.4173 5.49192 12.4165C5.48974 12.4151 5.48711 12.4133 5.48404 12.4114C5.47791 12.4074 5.47001 12.4025 5.46041 12.397C5.44126 12.3858 5.41513 12.3718 5.38273 12.3572C5.31825 12.3282 5.22666 12.2958 5.11432 12.2803C4.88198 12.2482 4.58097 12.2915 4.27397 12.54L4.58853 12.9287ZM5.5307 12.8018C5.53823 12.7942 5.54504 12.7865 5.55115 12.7787C5.55725 12.7709 5.56226 12.7635 5.56633 12.757C5.57033 12.7506 5.57332 12.7451 5.57525 12.7415C5.57621 12.7397 5.57697 12.7382 5.57744 12.7373C5.57768 12.7368 5.57788 12.7364 5.578 12.7362C5.57806 12.7361 5.57811 12.736 5.57815 12.7359C5.57818 12.7358 5.5782 12.7358 5.5782 12.7358C5.57846 12.7353 5.57714 12.7379 5.5755 12.741C5.57367 12.7445 5.57076 12.7498 5.56687 12.756C5.5629 12.7623 5.55801 12.7695 5.55204 12.7772C5.54606 12.7848 5.5394 12.7924 5.53203 12.7998L5.17848 12.4462C5.17094 12.4538 5.16413 12.4615 5.15802 12.4694C5.15192 12.4772 5.14691 12.4845 5.14285 12.491C5.13884 12.4974 5.13585 12.5029 5.13392 12.5065C5.13296 12.5083 5.1322 12.5098 5.13173 12.5107C5.13149 12.5112 5.13129 12.5116 5.13117 12.5118C5.13111 12.5119 5.13106 12.512 5.13103 12.5121C5.131 12.5122 5.13097 12.5122 5.13097 12.5122C5.13071 12.5127 5.13203 12.5101 5.13367 12.507C5.1355 12.5035 5.13841 12.4983 5.1423 12.492C5.14627 12.4857 5.15116 12.4785 5.15713 12.4709C5.16311 12.4632 5.16977 12.4556 5.17714 12.4482L5.5307 12.8018ZM5.23077 12.8398C5.63612 13.0725 6.07171 13.2532 6.53028 13.3794L6.66289 12.8973C6.24413 12.7821 5.84772 12.6175 5.47973 12.4062L5.23077 12.8398ZM6.34659 13.1383V13.1403H6.84659V13.1383H6.34659ZM6.59659 13.1403C6.5526 13.3864 6.55246 13.3864 6.55232 13.3864C6.55228 13.3864 6.55214 13.3864 6.55205 13.3863C6.55187 13.3863 6.5517 13.3863 6.55154 13.3862C6.55121 13.3862 6.55091 13.3861 6.55064 13.3861C6.5501 13.386 6.54967 13.3859 6.54934 13.3858C6.54869 13.3857 6.54847 13.3857 6.54865 13.3857C6.549 13.3858 6.55093 13.3862 6.55421 13.3871C6.56083 13.3888 6.57264 13.3923 6.58806 13.3982C6.61924 13.41 6.66275 13.4307 6.70773 13.4648C6.79158 13.5284 6.89707 13.6499 6.92332 13.8968L7.42052 13.8439C7.37877 13.4514 7.19659 13.208 7.00977 13.0664C6.91942 12.9979 6.83185 12.9559 6.76577 12.9308C6.73257 12.9182 6.70422 12.9096 6.68282 12.9039C6.6721 12.901 6.66306 12.8989 6.65595 12.8973C6.6524 12.8966 6.64932 12.8959 6.64674 12.8954C6.64546 12.8952 6.6443 12.8949 6.64327 12.8947C6.64275 12.8946 6.64227 12.8945 6.64182 12.8945C6.64159 12.8944 6.64138 12.8944 6.64117 12.8943C6.64106 12.8943 6.64091 12.8943 6.64086 12.8943C6.64071 12.8943 6.64057 12.8942 6.59659 13.1403ZM6.92292 13.8927L6.94359 14.1227L7.44158 14.078L7.42092 13.848L6.92292 13.8927ZM6.94312 14.1166C6.96172 14.4015 7.0505 14.6303 7.2509 14.7704C7.43373 14.8981 7.66032 14.913 7.84659 14.913V14.413C7.66619 14.413 7.58177 14.3916 7.53727 14.3605C7.51033 14.3417 7.45545 14.2892 7.44205 14.084L6.94312 14.1166ZM7.84659 14.913H8.14992V14.413H7.84659V14.913ZM8.14992 14.913C8.33644 14.913 8.563 14.8981 8.74574 14.7703C8.94591 14.6302 9.0344 14.4014 9.05337 14.117L8.55447 14.0837C8.54077 14.2893 8.48593 14.3418 8.45909 14.3606C8.41484 14.3916 8.33073 14.413 8.14992 14.413V14.913ZM9.05292 14.1227L9.07358 13.8927L8.57559 13.848L8.55492 14.078L9.05292 14.1227ZM9.07317 13.8969C9.11287 13.5257 9.33469 13.424 9.4157 13.3959L9.25214 12.9234C9.05581 12.9914 8.64297 13.2176 8.576 13.8438L9.07317 13.8969ZM9.39588 13.4019C9.9044 13.2718 10.3819 13.0699 10.8215 12.8128L10.5691 12.3812C10.1673 12.6162 9.73277 12.7996 9.27195 12.9175L9.39588 13.4019ZM10.8071 12.8206C10.847 12.8006 10.9249 12.77 11.0248 12.7712C11.1198 12.7723 11.2521 12.8022 11.4088 12.9288L11.723 12.5399C11.4804 12.3438 11.24 12.2737 11.0308 12.2712C10.8266 12.2687 10.6688 12.3307 10.5834 12.3734L10.8071 12.8206ZM11.4053 12.9259L11.5826 13.0746L11.9039 12.6914L11.7265 12.5428L11.4053 12.9259ZM11.5786 13.0711C11.7932 13.259 12.0178 13.3579 12.2584 13.3154C12.4781 13.2765 12.6488 13.127 12.7807 12.9951L12.4271 12.6416C12.2997 12.769 12.2248 12.8135 12.1713 12.823C12.1387 12.8288 12.0626 12.8303 11.9079 12.6949L11.5786 13.0711ZM12.7807 12.9951L12.9954 12.7805L12.6418 12.4269L12.4271 12.6416L12.7807 12.9951ZM12.9954 12.7805C13.1269 12.6489 13.2764 12.4781 13.3153 12.2584C13.3578 12.0177 13.2589 11.7929 13.0705 11.5781L12.6947 11.9079C12.8302 12.0624 12.8287 12.1386 12.8229 12.1713C12.8134 12.2249 12.7689 12.2998 12.6418 12.4269L12.9954 12.7805ZM13.0742 11.5825L12.9262 11.4058L12.5429 11.7269L12.6909 11.9036L13.0742 11.5825ZM12.9292 11.4094C12.6917 11.1149 12.7819 10.8846 12.8189 10.8108L12.3716 10.5872C12.2806 10.7694 12.1388 11.2258 12.54 11.7233L12.9292 11.4094ZM12.8107 10.8258C13.0766 10.3741 13.2848 9.88343 13.417 9.35951L12.9322 9.23717C12.8124 9.71191 12.6232 10.1586 12.3798 10.5722L12.8107 10.8258ZM13.4056 9.39399C13.4439 9.30149 13.5529 9.10983 13.8966 9.07291L13.8432 8.57577C13.2683 8.63752 13.0306 8.99253 12.9436 9.20269L13.4056 9.39399ZM13.8922 9.07334L14.1229 9.05268L14.0783 8.55467L13.8476 8.57534L13.8922 9.07334ZM14.1169 9.05314C14.4015 9.03453 14.6302 8.94568 14.77 8.74541C14.8977 8.5627 14.9126 8.33634 14.9126 8.15034H14.4126C14.4126 8.33034 14.3912 8.41465 14.3601 8.4591C14.3413 8.486 14.289 8.54082 14.0843 8.55421L14.1169 9.05314ZM14.9126 8.15034V7.84701H14.4126V8.15034H14.9126ZM14.9126 7.84701C14.9126 7.66069 14.8977 7.43425 14.7701 7.25141C14.6304 7.05102 14.4018 6.96189 14.1172 6.9429L14.0839 7.44179C14.2887 7.45545 14.3411 7.51033 14.36 7.53744C14.3912 7.5821 14.4126 7.66666 14.4126 7.84701H14.9126Z" fill="#162D45"/>
</svg>
