<svg width="16" height="16" viewBox="0 0 16 16" fill="none" xmlns="http://www.w3.org/2000/svg">
<path fill-rule="evenodd" clip-rule="evenodd" d="M8.7 5.08051C9.51563 4.79222 10.1 4.01435 10.1 3.1C10.1 1.9402 9.1598 1 8 1C6.8402 1 5.9 1.9402 5.9 3.1C5.9 4.01435 6.48437 4.79222 7.3 5.08051V7.3H4.5C3.3402 7.3 2.4 8.2402 2.4 9.4V10.9195C1.58437 11.2078 1 11.9856 1 12.9C1 14.0598 1.9402 15 3.1 15C4.2598 15 5.2 14.0598 5.2 12.9C5.2 12.3622 4.99787 11.8717 4.66545 11.5002H11.3346C11.0021 11.8717 10.8 12.3622 10.8 12.9C10.8 14.0598 11.7402 15 12.9 15C14.0598 15 15 14.0598 15 12.9C15 11.9856 14.4156 11.2078 13.6 10.9195V9.4C13.6 8.2402 12.6598 7.3 11.5 7.3H8.7V5.08051ZM7.99998 3.99971C8.49704 3.99971 8.89998 3.59676 8.89998 3.09971C8.89998 2.60265 8.49704 2.19971 7.99998 2.19971C7.50293 2.19971 7.09998 2.60265 7.09998 3.09971C7.09998 3.59676 7.50293 3.99971 7.99998 3.99971ZM12.2 10.9195C11.8641 11.0382 11.5675 11.2399 11.3347 11.5H4.66527C4.43249 11.2399 4.13584 11.0382 3.79998 10.9195V9.4002C3.79998 9.0136 4.11338 8.7002 4.49998 8.7002H11.5C11.8866 8.7002 12.2 9.0136 12.2 9.4002V10.9195ZM3.10001 13.7999C3.59706 13.7999 4.00001 13.397 4.00001 12.8999C4.00001 12.4028 3.59706 11.9999 3.10001 11.9999C2.60295 11.9999 2.20001 12.4028 2.20001 12.8999C2.20001 13.397 2.60295 13.7999 3.10001 13.7999ZM13.8 12.8999C13.8 13.397 13.3971 13.7999 12.9 13.7999C12.403 13.7999 12 13.397 12 12.8999C12 12.4028 12.403 11.9999 12.9 11.9999C13.3971 11.9999 13.8 12.4028 13.8 12.8999Z" fill="currentColor"/>
</svg>
