<svg width="16" height="16" viewBox="0 0 16 16" fill="none" xmlns="http://www.w3.org/2000/svg">
<path fill-rule="evenodd" clip-rule="evenodd" d="M9 6.05281C9.95372 5.65955 10.625 4.72067 10.625 3.625C10.625 2.17525 9.44975 1 8 1C6.55025 1 5.375 2.17525 5.375 3.625C5.375 4.72067 6.04628 5.65955 7 6.05281V7.125H4.85C3.6902 7.125 2.75 8.0652 2.75 9.225V9.89937C1.73046 10.2597 1 11.2321 1 12.375C1 13.8247 2.17525 15 3.625 15C5.07475 15 6.25 13.8247 6.25 12.375C6.25 11.2321 5.51954 10.2597 4.5 9.89937V9.575C4.5 9.1884 4.8134 8.875 5.2 8.875H10.8C11.1866 8.875 11.5 9.1884 11.5 9.575V9.89937C10.4805 10.2597 9.75 11.2321 9.75 12.375C9.75 13.8247 10.9253 15 12.375 15C13.8247 15 15 13.8247 15 12.375C15 11.2321 14.2695 10.2597 13.25 9.89937V9.225C13.25 8.0652 12.3098 7.125 11.15 7.125H9V6.05281ZM8 4.5C8.48325 4.5 8.875 4.10825 8.875 3.625C8.875 3.14175 8.48325 2.75 8 2.75C7.51675 2.75 7.125 3.14175 7.125 3.625C7.125 4.10825 7.51675 4.5 8 4.5ZM11.5 12.375C11.5 11.8918 11.8918 11.5 12.375 11.5C12.8582 11.5 13.25 11.8918 13.25 12.375C13.25 12.8582 12.8582 13.25 12.375 13.25C11.8918 13.25 11.5 12.8582 11.5 12.375ZM2.75 12.375C2.75 11.8918 3.14175 11.5 3.625 11.5C4.10825 11.5 4.5 11.8918 4.5 12.375C4.5 12.8582 4.10825 13.25 3.625 13.25C3.14175 13.25 2.75 12.8582 2.75 12.375Z" fill="currentColor"/>
</svg>
