<svg width="16" height="16" viewBox="0 0 24 24" fill="none" xmlns="http://www.w3.org/2000/svg"><path fill-rule="evenodd" clip-rule="evenodd" d="M21.7 13.297a1 1 0 00-1.413 0l-2.29 2.29V6c0-.55-.45-1-1-1-.551 0-1 .45-1 1v9.587l-2.291-2.29a1.002 1.002 0 00-1.414 0 1.003 1.003 0 000 1.414l3.998 3.997c.058.06.132.092.2.133.042.025.076.061.122.081.04.018.087.018.13.028a.995.995 0 00.64-.028c.044-.019.077-.054.118-.079.07-.041.143-.074.204-.135l3.997-3.997a1.003 1.003 0 000-1.414zM11.7 10.692a1 1 0 01-1.413 0l-2.29-2.29v9.587c0 .55-.45 1-1 1-.551 0-1-.45-1-1V8.402l-2.291 2.29a1.003 1.003 0 01-1.414 0 1.002 1.002 0 010-1.414L6.29 5.281c.058-.06.132-.092.2-.133.042-.025.076-.06.122-.08.04-.019.087-.019.13-.029a.995.995 0 01.64.028c.044.02.077.054.118.08.07.04.143.073.204.134L11.7 9.278a1.002 1.002 0 010 1.414z" fill="#162D45"/></svg>