<svg width="16" height="16" viewBox="0 0 16 16" fill="none" xmlns="http://www.w3.org/2000/svg">
<path fill-rule="evenodd" clip-rule="evenodd" d="M14.4672 8.86465C14.2078 8.60465 13.7838 8.60465 13.5245 8.86465L11.9978 10.3913V3.99998C11.9978 3.63331 11.6978 3.33331 11.3312 3.33331C10.9638 3.33331 10.6645 3.63331 10.6645 3.99998V10.3913L9.13717 8.86465C8.87783 8.60531 8.45383 8.60531 8.1945 8.86465C7.93517 9.12398 7.93517 9.54798 8.1945 9.80731L10.8598 12.472C10.8985 12.512 10.9478 12.5333 10.9932 12.5606C11.0212 12.5773 11.0438 12.6013 11.0745 12.6146C11.1018 12.6266 11.1325 12.6266 11.1612 12.6333C11.3025 12.6713 11.4518 12.6706 11.5878 12.6146C11.6172 12.602 11.6392 12.5786 11.6665 12.562C11.7132 12.5346 11.7618 12.5126 11.8025 12.472L14.4672 9.80731C14.7265 9.54798 14.7265 9.12398 14.4672 8.86465" fill="currentColor"/>
<path fill-rule="evenodd" clip-rule="evenodd" d="M7.80054 7.12827C7.54121 7.38827 7.11721 7.38827 6.85787 7.12827L5.33121 5.60161V11.9929C5.33121 12.3596 5.03121 12.6596 4.66454 12.6596C4.29721 12.6596 3.99787 12.3596 3.99787 11.9929V5.60161L2.47054 7.12827C2.21121 7.38761 1.78721 7.38761 1.52787 7.12827C1.26854 6.86894 1.26854 6.44494 1.52787 6.18561L4.19321 3.52094C4.23187 3.48094 4.28121 3.45961 4.32654 3.43227C4.35454 3.41561 4.37721 3.39161 4.40787 3.37827C4.43521 3.36627 4.46587 3.36627 4.49454 3.35961C4.63587 3.32161 4.78521 3.32227 4.92121 3.37827C4.95054 3.39094 4.97254 3.41427 4.99987 3.43094C5.04654 3.45827 5.09521 3.48027 5.13587 3.52094L7.80054 6.18561C8.05987 6.44494 8.05987 6.86894 7.80054 7.12827" fill="currentColor"/>
</svg>
