<svg width="16" height="16" viewBox="0 0 16 16" fill="none" xmlns="http://www.w3.org/2000/svg">
<path fill-rule="evenodd" clip-rule="evenodd" d="M14.4672 8.86467C14.2078 8.60467 13.7838 8.60467 13.5245 8.86467L11.9978 10.3913V4C11.9978 3.63334 11.6978 3.33334 11.3312 3.33334C10.9638 3.33334 10.6645 3.63334 10.6645 4V10.3913L9.13717 8.86467C8.87783 8.60534 8.45383 8.60534 8.1945 8.86467C7.93517 9.124 7.93517 9.548 8.1945 9.80734L10.8598 12.472C10.8985 12.512 10.9478 12.5333 10.9932 12.5607C11.0212 12.5773 11.0438 12.6013 11.0745 12.6147C11.1018 12.6267 11.1325 12.6267 11.1612 12.6333C11.3025 12.6713 11.4518 12.6707 11.5878 12.6147C11.6172 12.602 11.6392 12.5787 11.6665 12.562C11.7132 12.5347 11.7618 12.5127 11.8025 12.472L14.4672 9.80734C14.7265 9.548 14.7265 9.124 14.4672 8.86467Z" fill="#121312" fill-opacity="0.87"/>
<path fill-rule="evenodd" clip-rule="evenodd" d="M7.80048 7.12829C7.54115 7.38829 7.11715 7.38829 6.85781 7.12829L5.33115 5.60162V11.993C5.33115 12.3596 5.03115 12.6596 4.66448 12.6596C4.29715 12.6596 3.99781 12.3596 3.99781 11.993V5.60162L2.47048 7.12829C2.21115 7.38762 1.78715 7.38762 1.52781 7.12829C1.26848 6.86896 1.26848 6.44495 1.52781 6.18562L4.19315 3.52096C4.23181 3.48096 4.28115 3.45962 4.32648 3.43229C4.35448 3.41562 4.37715 3.39162 4.40781 3.37829C4.43515 3.36629 4.46581 3.36629 4.49448 3.35962C4.63581 3.32162 4.78515 3.32229 4.92115 3.37829C4.95048 3.39095 4.97248 3.41429 4.99981 3.43095C5.04648 3.45829 5.09515 3.48029 5.13581 3.52096L7.80048 6.18562C8.05981 6.44495 8.05981 6.86896 7.80048 7.12829Z" fill="#121312" fill-opacity="0.87"/>
</svg>
