<svg width="16" height="16" viewBox="0 0 16 16" fill="none" xmlns="http://www.w3.org/2000/svg">
    <path fill-rule="evenodd" clip-rule="evenodd" d="M3.25925 8C3.58653 8 3.85184 8.22386 3.85184 8.5V13H12.1481V8.5C12.1481 8.22386 12.4134 8 12.7407 8C13.068 8 13.3333 8.22386 13.3333 8.5V13.5C13.3333 13.7761 13.068 14 12.7407 14H3.25925C2.93197 14 2.66666 13.7761 2.66666 13.5V8.5C2.66666 8.22386 2.93197 8 3.25925 8Z" fill="#162D45" stroke="#162D45" stroke-width="0.5" stroke-linecap="round" stroke-linejoin="round"/>
    <path fill-rule="evenodd" clip-rule="evenodd" d="M2 5.80969C2 5.54669 2.24421 5.3335 2.54545 5.3335H13.4545C13.7558 5.3335 14 5.54669 14 5.80969V8.19064C14 8.45363 13.7558 8.66683 13.4545 8.66683H2.54545C2.24421 8.66683 2 8.45363 2 8.19064V5.80969ZM3.09091 6.28588V7.71445H12.9091V6.28588H3.09091Z" fill="#162D45" stroke="#162D45" stroke-width="0.5" stroke-linecap="round" stroke-linejoin="round"/>
    <path fill-rule="evenodd" clip-rule="evenodd" d="M8.00001 5.3335C8.3682 5.3335 8.66668 5.56174 8.66668 5.8433V13.4904C8.66668 13.7719 8.3682 14.0002 8.00001 14.0002C7.63182 14.0002 7.33334 13.7719 7.33334 13.4904V5.8433C7.33334 5.56174 7.63182 5.3335 8.00001 5.3335Z" fill="#162D45" stroke="#162D45" stroke-width="0.5" stroke-linecap="round" stroke-linejoin="round"/>
    <path fill-rule="evenodd" clip-rule="evenodd" d="M5.40742 3.14286C5.17167 3.14286 4.94558 3.23316 4.77888 3.39391C4.61218 3.55465 4.51853 3.77267 4.51853 4C4.51853 4.22733 4.61218 4.44535 4.77888 4.60609C4.94558 4.76684 5.17167 4.85714 5.40742 4.85714H7.27646C7.20412 4.67464 7.11255 4.47395 6.99929 4.27538C6.62657 3.62191 6.11491 3.14286 5.40742 3.14286ZM8.07408 5.42857C8.65516 5.31651 8.65512 5.31631 8.65508 5.3161L8.65498 5.31564L8.65475 5.3145L8.6541 5.31145L8.65211 5.30225C8.65047 5.29476 8.6482 5.2846 8.64526 5.27193C8.6394 5.24661 8.63088 5.21123 8.61947 5.16721C8.59667 5.0793 8.56217 4.95624 8.51402 4.80963C8.41841 4.51847 8.26567 4.1242 8.03776 3.72462C7.59567 2.94952 6.77399 2 5.40742 2C4.85734 2 4.32979 2.21071 3.94083 2.58579C3.55186 2.96086 3.33334 3.46957 3.33334 4C3.33334 4.53043 3.55186 5.03914 3.94083 5.41421C4.32979 5.78929 4.85734 6 5.40742 6H8.07408C8.25162 6 8.4198 5.92324 8.53236 5.79085C8.64491 5.65846 8.68998 5.48438 8.65517 5.31651L8.07408 5.42857Z" fill="#162D45" stroke="#162D45" stroke-width="0.5" stroke-linecap="round" stroke-linejoin="round"/>
    <path fill-rule="evenodd" clip-rule="evenodd" d="M7.96226 3.72462C8.40435 2.94952 9.22603 2 10.5926 2C11.1427 2 11.6702 2.21071 12.0592 2.58579C12.4482 2.96086 12.6667 3.46957 12.6667 4C12.6667 4.53043 12.4482 5.03914 12.0592 5.41421C11.6702 5.78929 11.1427 6 10.5926 6H7.92594C7.7484 6 7.58022 5.92324 7.46766 5.79085C7.35511 5.65846 7.31004 5.48438 7.34486 5.31651L7.92594 5.42857C7.34486 5.31651 7.3449 5.31631 7.34494 5.3161L7.34504 5.31564L7.34528 5.3145L7.34592 5.31145L7.34791 5.30225C7.34955 5.29476 7.35182 5.2846 7.35476 5.27193C7.36062 5.24661 7.36914 5.21123 7.38056 5.16721C7.40335 5.0793 7.43785 4.95624 7.486 4.80963C7.58162 4.51847 7.73435 4.1242 7.96226 3.72462ZM8.72356 4.85714H10.5926C10.8284 4.85714 11.0544 4.76684 11.2211 4.60609C11.3878 4.44535 11.4815 4.22733 11.4815 4C11.4815 3.77267 11.3878 3.55465 11.2211 3.39391C11.0544 3.23316 10.8284 3.14286 10.5926 3.14286C9.88511 3.14286 9.37345 3.62191 9.00073 4.27538C8.88748 4.47395 8.7959 4.67464 8.72356 4.85714ZM8.50682 5.5416C8.50679 5.54175 8.5068 5.54174 8.50683 5.54156L8.50682 5.5416Z" fill="#162D45" stroke="#162D45" stroke-width="0.5" stroke-linecap="round" stroke-linejoin="round"/>
</svg>
