<svg width="24" height="24" viewBox="0 0 24 24" fill="none" xmlns="http://www.w3.org/2000/svg">
<path fill-rule="evenodd" clip-rule="evenodd" d="M4.88889 12C5.37981 12 5.77778 12.3358 5.77778 12.75V19.5H18.2222V12.75C18.2222 12.3358 18.6202 12 19.1111 12C19.602 12 20 12.3358 20 12.75V20.25C20 20.6642 19.602 21 19.1111 21H4.88889C4.39797 21 4 20.6642 4 20.25V12.75C4 12.3358 4.39797 12 4.88889 12Z" />
<path fill-rule="evenodd" clip-rule="evenodd" d="M3 8.71429C3 8.3198 3.36631 8 3.81818 8H20.1818C20.6337 8 21 8.3198 21 8.71429V12.2857C21 12.6802 20.6337 13 20.1818 13H3.81818C3.36631 13 3 12.6802 3 12.2857V8.71429ZM4.63636 9.42857V11.5714H19.3636V9.42857H4.63636Z" />
<path fill-rule="evenodd" clip-rule="evenodd" d="M12 8C12.5523 8 13 8.34237 13 8.76471V20.2353C13 20.6576 12.5523 21 12 21C11.4477 21 11 20.6576 11 20.2353V8.76471C11 8.34237 11.4477 8 12 8Z" />
<path fill-rule="evenodd" clip-rule="evenodd" d="M8.11111 4.71429C7.75749 4.71429 7.41835 4.84974 7.1683 5.09086C6.91825 5.33198 6.77778 5.65901 6.77778 6C6.77778 6.34099 6.91825 6.66802 7.1683 6.90914C7.41835 7.15026 7.75749 7.28571 8.11111 7.28571H10.9147C10.8062 7.01195 10.6688 6.71093 10.4989 6.41307C9.93983 5.43287 9.17235 4.71429 8.11111 4.71429ZM12.1111 8.14286C12.9827 7.97476 12.9827 7.97446 12.9826 7.97416L12.9825 7.97345L12.9821 7.97175L12.9811 7.96717L12.9781 7.95337C12.9757 7.94214 12.9723 7.9269 12.9679 7.9079C12.9591 7.86992 12.9463 7.81684 12.9292 7.75082C12.895 7.61894 12.8432 7.43437 12.771 7.21445C12.6276 6.7777 12.3985 6.1863 12.0566 5.58693C11.3935 4.42428 10.161 3 8.11111 3C7.28599 3 6.49467 3.31607 5.91122 3.87868C5.32778 4.44129 5 5.20435 5 6C5 6.79565 5.32778 7.55871 5.91122 8.12132C6.49467 8.68393 7.28599 9 8.11111 9H12.1111C12.3774 9 12.6297 8.88487 12.7985 8.68628C12.9674 8.48769 13.035 8.22656 12.9827 7.97476L12.1111 8.14286Z" fill="#B2BBC0"/>
<path fill-rule="evenodd" clip-rule="evenodd" d="M11.9434 5.58693C12.6065 4.42428 13.839 3 15.8889 3C16.714 3 17.5053 3.31607 18.0888 3.87868C18.6722 4.44129 19 5.20435 19 6C19 6.79565 18.6722 7.55871 18.0888 8.12132C17.5053 8.68393 16.714 9 15.8889 9H11.8889C11.6226 9 11.3703 8.88487 11.2015 8.68628C11.0326 8.48769 10.965 8.22656 11.0173 7.97476L11.8889 8.14286C11.0173 7.97476 11.0173 7.97446 11.0174 7.97416L11.0175 7.97345L11.0179 7.97175L11.0189 7.96717L11.0219 7.95337C11.0243 7.94214 11.0277 7.9269 11.0321 7.9079C11.0409 7.86992 11.0537 7.81684 11.0708 7.75082C11.105 7.61894 11.1568 7.43437 11.229 7.21445C11.3724 6.7777 11.6015 6.1863 11.9434 5.58693ZM13.0853 7.28571H15.8889C16.2425 7.28571 16.5817 7.15026 16.8317 6.90914C17.0817 6.66802 17.2222 6.34099 17.2222 6C17.2222 5.65901 17.0817 5.33198 16.8317 5.09086C16.5817 4.84974 16.2425 4.71429 15.8889 4.71429C14.8276 4.71429 14.0602 5.43287 13.5011 6.41307C13.3312 6.71093 13.1938 7.01195 13.0853 7.28571ZM12.7602 8.3124C12.7602 8.31263 12.7602 8.31261 12.7602 8.31233L12.7602 8.3124Z" />
</svg>
