<svg width="16" height="16" fill="none" xmlns="http://www.w3.org/2000/svg"><path fill-rule="evenodd" clip-rule="evenodd" d="M3.26 8c.327 0 .592.224.592.5V13h8.296V8.5c0-.276.266-.5.593-.5.327 0 .592.224.592.5v5c0 .276-.265.5-.592.5H3.259c-.327 0-.592-.224-.592-.5v-5c0-.276.265-.5.592-.5z" fill="#162D45"/><path fill-rule="evenodd" clip-rule="evenodd" d="M2 5.81c0-.263.244-.477.545-.477h10.91c.3 0 .545.214.545.477v2.38c0 .263-.244.477-.546.477H2.545c-.3 0-.545-.214-.545-.477V5.81zm1.09.476v1.428h9.82V6.286H3.09z" fill="#162D45"/><path fill-rule="evenodd" clip-rule="evenodd" d="M8 5.333c.368 0 .667.229.667.51v7.647c0 .282-.299.51-.667.51-.368 0-.667-.228-.667-.51V5.843c0-.281.299-.51.667-.51z" fill="#162D45"/><path fill-rule="evenodd" clip-rule="evenodd" d="M5.407 3.143a.906.906 0 00-.628.25.842.842 0 00-.26.607c0 .227.093.445.26.606.167.16.393.251.628.251h1.87a4.61 4.61 0 00-.278-.582c-.372-.653-.884-1.132-1.592-1.132zm2.667 2.286l.581-.113V5.31l-.003-.009a2.503 2.503 0 00-.033-.135 5.993 5.993 0 00-.582-1.443C7.597 2.95 6.775 2 5.408 2c-.55 0-1.077.21-1.466.586A1.964 1.964 0 003.333 4c0 .53.219 1.04.608 1.414.389.375.916.586 1.466.586h2.667a.601.601 0 00.458-.21.556.556 0 00.123-.473l-.58.112z" fill="#162D45"/><path fill-rule="evenodd" clip-rule="evenodd" d="M7.962 3.725C8.404 2.95 9.226 2 10.592 2c.55 0 1.078.21 1.467.586.39.375.608.884.608 1.414 0 .53-.219 1.04-.608 1.414A2.114 2.114 0 0110.593 6H7.926a.601.601 0 01-.458-.21.556.556 0 01-.123-.473l.58.112-.58-.113V5.31l.003-.009a2.503 2.503 0 01.033-.135 5.993 5.993 0 01.582-1.443zm.762 1.132h1.869c.235 0 .461-.09.628-.25a.842.842 0 00.26-.607.842.842 0 00-.26-.606.906.906 0 00-.628-.251c-.708 0-1.22.479-1.592 1.132a4.61 4.61 0 00-.277.582zm-.217.685z" fill="#162D45"/></svg>