<svg width="24" height="24" viewBox="0 0 24 24" fill="none" xmlns="http://www.w3.org/2000/svg">
<path d="M20.9999 12.79C20.8426 14.4922 20.2038 16.1144 19.1581 17.4668C18.1125 18.8192 16.7034 19.8458 15.0956 20.4265C13.4878 21.0073 11.7479 21.1181 10.0794 20.7461C8.41092 20.3741 6.8829 19.5345 5.67413 18.3258C4.46536 17.117 3.62584 15.589 3.25381 13.9205C2.88178 12.252 2.99262 10.5121 3.57336 8.9043C4.15411 7.29651 5.18073 5.88737 6.53311 4.84175C7.8855 3.79614 9.5077 3.15731 11.2099 3C10.2133 4.34827 9.73375 6.00945 9.85843 7.68141C9.98312 9.35338 10.7038 10.9251 11.8893 12.1106C13.0748 13.2961 14.6465 14.0168 16.3185 14.1415C17.9905 14.2662 19.6516 13.7866 20.9999 12.79V12.79Z" stroke="#121312" stroke-width="2" stroke-linecap="round" stroke-linejoin="round"/>
</svg>
