<svg width="24" height="24" viewBox="0 0 24 24" fill="none" xmlns="http://www.w3.org/2000/svg">
<path fill-rule="evenodd" clip-rule="evenodd" d="M11.1213 17.9272V3.9C11.1213 3.40294 11.5147 3 12 3C12.4853 3 12.8787 3.40294 12.8787 3.9V17.9272L16.5 14.218C16.8431 13.8665 17.3995 13.8665 17.7426 14.218C18.0858 14.5695 18.0858 15.1393 17.7426 15.4908L12.7721 20.582C12.7465 20.6082 12.7198 20.6324 12.692 20.6547C12.5312 20.8649 12.281 21 12 21C11.719 21 11.4688 20.8649 11.308 20.6547C11.2802 20.6324 11.2535 20.6082 11.2279 20.582L6.25736 15.4908C5.91421 15.1393 5.91421 14.5695 6.25736 14.218C6.60051 13.8665 7.15685 13.8665 7.5 14.218L11.1213 17.9272Z" fill="black"/>
</svg>
