<svg width="24" height="24" viewBox="0 0 24 24" fill="none" xmlns="http://www.w3.org/2000/svg">
<path fill-rule="evenodd" clip-rule="evenodd" d="M11.5935 2.09598C11.8494 1.96801 12.1506 1.96801 12.4065 2.09598L21.4973 6.64143C21.8053 6.79542 21.9998 7.11021 21.9998 7.45455C21.9998 7.79888 21.8053 8.11367 21.4973 8.26766L12.4065 12.8131C12.1506 12.9411 11.8494 12.9411 11.5935 12.8131L2.50272 8.26766C2.19474 8.11367 2.0002 7.79888 2.0002 7.45455C2.0002 7.11021 2.19474 6.79542 2.50272 6.64143L11.5935 2.09598ZM4.94202 7.45455L12 10.9836L19.058 7.45455L12 3.92549L4.94202 7.45455ZM2.09617 11.5934C2.3207 11.1444 2.86676 10.9623 3.31582 11.1869L12 15.5291L20.6842 11.1869C21.1332 10.9623 21.6793 11.1444 21.9038 11.5934C22.1284 12.0425 21.9463 12.5886 21.4973 12.8131L12.4065 17.3586C12.1506 17.4865 11.8494 17.4865 11.5935 17.3586L2.50272 12.8131C2.05366 12.5886 1.87164 12.0425 2.09617 11.5934ZM2.09617 16.1389C2.3207 15.6898 2.86676 15.5078 3.31582 15.7323L12 20.0745L20.6842 15.7323C21.1332 15.5078 21.6793 15.6898 21.9038 16.1389C22.1284 16.588 21.9463 17.134 21.4973 17.3586L12.4065 21.904C12.1506 22.032 11.8494 22.032 11.5935 21.904L2.50272 17.3586C2.05366 17.134 1.87164 16.588 2.09617 16.1389Z" fill="black"/>
</svg>
