<svg width="24" height="24" viewBox="0 0 24 24" fill="none" xmlns="http://www.w3.org/2000/svg">
<path fill-rule="evenodd" clip-rule="evenodd" d="M7.625 4.8C7.39294 4.8 7.17038 4.89482 7.00628 5.0636C6.84219 5.23239 6.75 5.4613 6.75 5.7V18.3511L11.4914 14.8676C11.7957 14.6441 12.2043 14.6441 12.5086 14.8676L17.25 18.3511V5.7C17.25 5.46131 17.1578 5.23239 16.9937 5.0636C16.8296 4.89482 16.6071 4.8 16.375 4.8H7.625ZM5.76884 3.79081C6.26113 3.28446 6.92881 3 7.625 3H16.375C17.0712 3 17.7389 3.28446 18.2312 3.79081C18.7234 4.29716 19 4.98391 19 5.7V20.1C19 20.4371 18.8168 20.746 18.5254 20.9002C18.2339 21.0545 17.8831 21.0283 17.6164 20.8324L12 16.706L6.38358 20.8324C6.11687 21.0283 5.76605 21.0545 5.47462 20.9002C5.18318 20.746 5 20.4371 5 20.1V5.7C5 4.98392 5.27656 4.29716 5.76884 3.79081Z" fill="black"/>
</svg>
