<svg width="24" height="24" viewBox="0 0 24 24" fill="none" xmlns="http://www.w3.org/2000/svg">
<path fill-rule="evenodd" clip-rule="evenodd" d="M8.4 4L6 6.4H4.4C3.07452 6.4 2 7.47452 2 8.8V17.6034C2 18.9289 3.07452 20.0034 4.4 20.0034H19.6C20.9255 20.0034 22 18.9289 22 17.6034V8.8C22 7.47452 20.9255 6.4 19.6 6.4H18L15.6 4H8.4ZM6.82843 8.4L9.22843 6H14.7716L17.1716 8.4H19.6C19.8209 8.4 20 8.57909 20 8.8V17.6034C20 17.8243 19.8209 18.0034 19.6 18.0034H4.4C4.17909 18.0034 4 17.8243 4 17.6034V8.8C4 8.57909 4.17909 8.4 4.4 8.4H6.82843Z" fill="black"/>
<path fill-rule="evenodd" clip-rule="evenodd" d="M12 17C9.51472 17 7.5 14.9853 7.5 12.5C7.5 10.0147 9.51472 8 12 8C14.4853 8 16.5 10.0147 16.5 12.5C16.5 14.9853 14.4853 17 12 17ZM14.5 12.5C14.5 11.1193 13.3807 10 12 10C10.6193 10 9.5 11.1193 9.5 12.5C9.5 13.8807 10.6193 15 12 15C13.3807 15 14.5 13.8807 14.5 12.5Z" fill="black"/>
</svg>
