<svg width="24" height="24" viewBox="0 0 24 24" fill="none" xmlns="http://www.w3.org/2000/svg">
<path fill-rule="evenodd" clip-rule="evenodd" d="M9.89984 17C9.71363 17 9.53582 16.925 9.40491 16.7907L5.20529 12.5029C4.93157 12.2237 4.93157 11.7715 5.20529 11.493C5.47901 11.2137 5.92144 11.2137 6.19516 11.493L9.89984 15.2757L17.8048 7.20946C18.0786 6.93018 18.521 6.93018 18.7947 7.20946C19.0684 7.48874 19.0684 7.94016 18.7947 8.21944L10.3948 16.7907C10.2639 16.925 10.0861 17 9.89984 17Z" fill="black"/>
<path d="M9.89984 17V17C9.71363 17 9.53582 16.925 9.40491 16.7907L5.20529 12.5029C4.93157 12.2237 4.93157 11.7715 5.20529 11.493C5.47901 11.2137 5.92144 11.2137 6.19516 11.493L9.89984 15.2757L17.8048 7.20946C18.0786 6.93018 18.521 6.93018 18.7947 7.20946C19.0684 7.48874 19.0684 7.94016 18.7947 8.21944L10.3948 16.7907C10.2639 16.925 10.0861 17 9.89984 17" stroke="black"/>
</svg>
