<svg width="24" height="24" viewBox="0 0 24 24" fill="none" xmlns="http://www.w3.org/2000/svg">
<path fill-rule="evenodd" clip-rule="evenodd" d="M22 12C22 17.5228 17.5228 22 12 22C6.47715 22 2 17.5228 2 12C2 6.47715 6.47715 2 12 2C17.5228 2 22 6.47715 22 12ZM4 12C4 16.4183 7.58172 20 12 20C16.4183 20 20 16.4183 20 12C20 7.58172 16.4183 4 12 4C7.58172 4 4 7.58172 4 12Z" fill="black"/>
<path fill-rule="evenodd" clip-rule="evenodd" d="M13.4143 12L15.5356 14.1213C15.9261 14.5118 15.9261 15.145 15.5356 15.5355C15.1451 15.9261 14.5119 15.9261 14.1214 15.5355L12.0001 13.4142L9.87874 15.5355C9.48821 15.9261 8.85505 15.9261 8.46452 15.5355C8.074 15.145 8.074 14.5118 8.46452 14.1213L10.5858 12L8.46452 9.87868C8.074 9.48815 8.074 8.85499 8.46452 8.46446C8.85505 8.07394 9.48821 8.07394 9.87874 8.46446L12.0001 10.5858L14.1214 8.46446C14.5119 8.07394 15.1451 8.07394 15.5356 8.46446C15.9261 8.85499 15.9261 9.48815 15.5356 9.87868L13.4143 12Z" fill="black"/>
</svg>
