<svg width="24" height="24" viewBox="0 0 24 24" fill="none" xmlns="http://www.w3.org/2000/svg">
<path fill-rule="evenodd" clip-rule="evenodd" d="M4.0002 1.94995C2.31573 1.94995 0.950195 3.31548 0.950195 4.99995V15C0.950195 16.6844 2.31573 18.0499 4.0002 18.0499H10.9502V19.95H8.0002C7.4203 19.95 6.9502 20.4201 6.9502 21C6.9502 21.5798 7.4203 22.0499 8.0002 22.0499H16.0002C16.5801 22.0499 17.0502 21.5798 17.0502 21C17.0502 20.4201 16.5801 19.95 16.0002 19.95H13.0502V18.0499H20.0002C21.6847 18.0499 23.0502 16.6844 23.0502 15V4.99995C23.0502 3.31548 21.6847 1.94995 20.0002 1.94995H4.0002ZM3.0502 4.99995C3.0502 4.47528 3.47552 4.04995 4.0002 4.04995H20.0002C20.5249 4.04995 20.9502 4.47528 20.9502 4.99995V15C20.9502 15.5246 20.5249 15.95 20.0002 15.95H4.0002C3.47552 15.95 3.0502 15.5246 3.0502 15V4.99995Z" fill="black"/>
</svg>
