<svg width="24" height="24" viewBox="0 0 24 24" fill="none" xmlns="http://www.w3.org/2000/svg">
<g clip-path="url(#clip0_2176_507)">
<g clip-path="url(#clip1_2176_507)">
<path fill-rule="evenodd" clip-rule="evenodd" d="M7 12.0001C7 10.8956 7.89543 10.0001 9 10.0001C10.1046 10.0001 11 10.8956 11 12.0001C11 13.1047 10.1046 14.0001 9 14.0001C7.89543 14.0001 7 13.1047 7 12.0001Z" fill="#121312"/>
<path fill-rule="evenodd" clip-rule="evenodd" d="M13 12.0001C13 10.8956 13.8954 10.0001 15 10.0001C16.1046 10.0001 17 10.8956 17 12.0001C17 13.1047 16.1046 14.0001 15 14.0001C13.8954 14.0001 13 13.1047 13 12.0001Z" fill="#121312"/>
<path fill-rule="evenodd" clip-rule="evenodd" d="M7 5C7 3.89543 7.89543 3 9 3C10.1046 3 11 3.89543 11 5C11 6.10457 10.1046 7 9 7C7.89543 7 7 6.10457 7 5Z" fill="#121312"/>
<path fill-rule="evenodd" clip-rule="evenodd" d="M13 5C13 3.89543 13.8954 3 15 3C16.1046 3 17 3.89543 17 5C17 6.10457 16.1046 7 15 7C13.8954 7 13 6.10457 13 5Z" fill="#121312"/>
<path fill-rule="evenodd" clip-rule="evenodd" d="M7 18.9999C7 17.8953 7.89543 16.9999 9 16.9999C10.1046 16.9999 11 17.8953 11 18.9999C11 20.1044 10.1046 20.9999 9 20.9999C7.89543 20.9999 7 20.1044 7 18.9999Z" fill="#121312"/>
<path fill-rule="evenodd" clip-rule="evenodd" d="M13 18.9999C13 17.8953 13.8954 16.9999 15 16.9999C16.1046 16.9999 17 17.8953 17 18.9999C17 20.1044 16.1046 20.9999 15 20.9999C13.8954 20.9999 13 20.1044 13 18.9999Z" fill="#121312"/>
<path fill-rule="evenodd" clip-rule="evenodd" d="M7 12.0001C7 10.8956 7.89543 10.0001 9 10.0001C10.1046 10.0001 11 10.8956 11 12.0001C11 13.1047 10.1046 14.0001 9 14.0001C7.89543 14.0001 7 13.1047 7 12.0001Z" fill="#121312"/>
<path fill-rule="evenodd" clip-rule="evenodd" d="M13 12.0001C13 10.8956 13.8954 10.0001 15 10.0001C16.1046 10.0001 17 10.8956 17 12.0001C17 13.1047 16.1046 14.0001 15 14.0001C13.8954 14.0001 13 13.1047 13 12.0001Z" fill="#121312"/>
<path fill-rule="evenodd" clip-rule="evenodd" d="M7 5C7 3.89543 7.89543 3 9 3C10.1046 3 11 3.89543 11 5C11 6.10457 10.1046 7 9 7C7.89543 7 7 6.10457 7 5Z" fill="#121312"/>
<path fill-rule="evenodd" clip-rule="evenodd" d="M13 5C13 3.89543 13.8954 3 15 3C16.1046 3 17 3.89543 17 5C17 6.10457 16.1046 7 15 7C13.8954 7 13 6.10457 13 5Z" fill="#121312"/>
<path fill-rule="evenodd" clip-rule="evenodd" d="M7 18.9999C7 17.8953 7.89543 16.9999 9 16.9999C10.1046 16.9999 11 17.8953 11 18.9999C11 20.1044 10.1046 20.9999 9 20.9999C7.89543 20.9999 7 20.1044 7 18.9999Z" fill="#121312"/>
<path fill-rule="evenodd" clip-rule="evenodd" d="M13 18.9999C13 17.8953 13.8954 16.9999 15 16.9999C16.1046 16.9999 17 17.8953 17 18.9999C17 20.1044 16.1046 20.9999 15 20.9999C13.8954 20.9999 13 20.1044 13 18.9999Z" fill="#121312"/>
</g>
</g>
<defs>
<clipPath id="clip0_2176_507">
<rect width="24" height="24" fill="white"/>
</clipPath>
<clipPath id="clip1_2176_507">
<rect width="24" height="24" fill="white"/>
</clipPath>
</defs>
</svg>
