<svg width="24" height="24" viewBox="0 0 24 24" fill="none" xmlns="http://www.w3.org/2000/svg">
<path d="M20 20V12C20 11.4477 20.4477 11 21 11C21.5523 11 22 11.4477 22 12V20C22 21.1046 21.1046 22 20 22H4C2.89543 22 2 21.1046 2 20V4C2 2.89543 2.89543 2 4 2H12C12.5523 2 13 2.44772 13 3C13 3.55228 12.5523 4 12 4H4V20H20Z" fill="black"/>
<path fill-rule="evenodd" clip-rule="evenodd" d="M18.5355 4H15.9497C15.3975 4 14.9497 3.55228 14.9497 3C14.9497 2.44772 15.3975 2 15.9497 2H20.9497C21.2259 2 21.4759 2.11193 21.6569 2.29289C21.8378 2.47386 21.9497 2.72386 21.9497 3V8C21.9497 8.55228 21.502 9 20.9497 9C20.3975 9 19.9497 8.55228 19.9497 8V5.41421L10.7071 14.6569C10.3166 15.0474 9.68342 15.0474 9.29289 14.6569C8.90237 14.2663 8.90237 13.6332 9.29289 13.2426L18.5355 4Z" fill="black"/>
</svg>
