<svg width="24" height="24" viewBox="0 0 24 24" fill="none" xmlns="http://www.w3.org/2000/svg">
<path fill-rule="evenodd" clip-rule="evenodd" d="M8.7375 6.67897C9.70165 6.36578 10.7197 6.18246 11.7759 6.18246C15.5404 6.18246 18.9009 8.29726 20.5576 11.6386C19.8359 13.0943 18.7764 14.2968 17.5159 15.2146L19.1198 16.7739C20.8371 15.4524 22.193 13.6847 23 11.6386C21.2356 7.16674 16.8784 4 11.7759 4C10.0777 4 8.46587 4.35792 7 4.99084L8.7375 6.67897Z" fill="black"/>
<path fill-rule="evenodd" clip-rule="evenodd" d="M11.6602 9.99603C11.7176 9.99193 11.7718 9.97862 11.8312 9.97862C12.9807 9.97862 13.9156 10.8982 13.9156 12.0268C13.9156 12.0852 13.902 12.1384 13.8968 12.1937L15.5581 13.8261C15.8322 13.2813 16 12.6761 16 12.0268C16 9.76459 14.1334 7.93045 11.8312 7.93045C11.1704 7.93045 10.5545 8.09635 10 8.36364L11.6602 9.99603Z" fill="black"/>
<path fill-rule="evenodd" clip-rule="evenodd" d="M11.9996 17.1907C8.31101 17.1907 5.01739 15.0959 3.39478 11.786C3.86451 10.8272 4.48825 9.98517 5.2088 9.25229L7.61356 11.6152C7.61136 11.6671 7.60146 11.7168 7.60146 11.7687C7.60146 14.1576 9.57169 16.0925 12.0018 16.0925C12.0557 16.0925 12.1063 16.0838 12.1591 16.0817L13.1997 17.1032C12.8048 17.1551 12.4066 17.1907 11.9996 17.1907ZM18.3987 19.1548L4.03829 5.04529C3.60816 4.62264 2.91181 4.62264 2.48278 5.04529C2.05265 5.46686 2.05265 6.15109 2.48278 6.57374L3.66426 7.73468C2.52568 8.88264 1.60052 10.2479 0.998779 11.7861C2.7292 16.2158 6.99969 19.3527 11.9995 19.3527C13.0611 19.3527 14.0842 19.197 15.061 18.9322L16.8432 20.6833C17.0588 20.8952 17.3393 21 17.6209 21C17.9025 21 18.1841 20.8952 18.3987 20.6833C18.8288 20.2617 18.8288 19.5775 18.3987 19.1548Z" fill="black"/>
</svg>
