<svg width="24" height="24" viewBox="0 0 24 24" fill="none" xmlns="http://www.w3.org/2000/svg">
<path fill-rule="evenodd" clip-rule="evenodd" d="M11.4475 2.1915C11.7725 1.93617 12.2275 1.93617 12.5525 2.1915L20.6525 8.55513C20.8718 8.72737 21 8.99219 21 9.27273V19.2727C21 19.996 20.7155 20.6897 20.2092 21.2012C19.7028 21.7127 19.0161 22 18.3 22H5.7C4.98391 22 4.29716 21.7127 3.79081 21.2012C3.28446 20.6897 3 19.996 3 19.2727V9.27273C3 8.99219 3.12823 8.72737 3.34745 8.55513L11.4475 2.1915ZM4.8 9.71735V19.2727C4.8 19.5138 4.89482 19.7451 5.0636 19.9156C5.23239 20.086 5.46131 20.1818 5.7 20.1818H18.3C18.5387 20.1818 18.7676 20.086 18.9364 19.9156C19.1052 19.7451 19.2 19.5138 19.2 19.2727V9.71735L12 4.06078L4.8 9.71735Z" fill="black"/>
<path fill-rule="evenodd" clip-rule="evenodd" d="M8 11.9167C8 11.4104 8.44772 11 9 11H15C15.5523 11 16 11.4104 16 11.9167V21.0833C16 21.5896 15.5523 22 15 22C14.4477 22 14 21.5896 14 21.0833V12.8333H10V21.0833C10 21.5896 9.55228 22 9 22C8.44772 22 8 21.5896 8 21.0833V11.9167Z" fill="black"/>
</svg>
