<svg width="24" height="24" viewBox="0 0 24 24" fill="none" xmlns="http://www.w3.org/2000/svg">
<path d="M15.8718 7.24285L19.2081 3.90649M21.1146 2L19.2081 3.90649L21.1146 2ZM11.9539 11.1607C12.4461 11.6463 12.8374 12.2245 13.1052 12.862C13.373 13.4995 13.5121 14.1837 13.5144 14.8751C13.5167 15.5666 13.3823 16.2517 13.1187 16.8909C12.8552 17.5302 12.4678 18.111 11.9789 18.5999C11.4899 19.0889 10.9091 19.4763 10.2698 19.7398C9.63058 20.0033 8.9455 20.1378 8.25405 20.1355C7.56259 20.1332 6.87843 19.9941 6.24094 19.7263C5.60346 19.4585 5.02525 19.0672 4.5396 18.575C3.58457 17.5862 3.05612 16.2619 3.06807 14.8872C3.08001 13.5125 3.6314 12.1976 4.60347 11.2255C5.57553 10.2534 6.8905 9.70205 8.26516 9.69011C9.63982 9.67816 10.9642 10.2066 11.953 11.1616L11.9539 11.1607ZM11.9539 11.1607L15.8718 7.24285L11.9539 11.1607ZM15.8718 7.24285L18.7315 10.1026L22.0679 6.76623L19.2081 3.90649L15.8718 7.24285Z" stroke="#121312" stroke-width="2" stroke-linecap="round" stroke-linejoin="round"/>
</svg>
