<svg width="24" height="24" viewBox="0 0 24 24" fill="none" xmlns="http://www.w3.org/2000/svg">
<path d="M10.2257 15.1197C8.76615 15.363 7.7931 17.6537 7.48903 18.7686C7.04756 19.9849 12.3542 22.4175 13.5705 22.1135C14.5436 21.8702 14.9896 20.3904 15.0909 19.6808C15.6991 20.5931 12.0502 14.8156 10.2257 15.1197Z" fill="#121312"/>
<path fill-rule="evenodd" clip-rule="evenodd" d="M10.8553 15.5415C10.6112 15.428 10.4198 15.3956 10.2757 15.4196C9.68222 15.5186 9.13605 16.0513 8.68198 16.7784C8.23737 17.4902 7.92853 18.3128 7.7824 18.8486L7.77913 18.8606L7.77487 18.8724C7.76233 18.9069 7.7555 18.9807 7.83708 19.122C7.91838 19.2629 8.06618 19.4308 8.28129 19.6175C8.70924 19.9888 9.34475 20.3844 10.0457 20.74C10.7442 21.0943 11.4918 21.401 12.1348 21.5996C12.4566 21.6989 12.7466 21.7695 12.9878 21.8063C13.2368 21.8443 13.4044 21.8416 13.4968 21.8184C13.8522 21.7296 14.1526 21.3997 14.3859 20.9354C14.5907 20.5281 14.7155 20.0717 14.773 19.744C14.7255 19.6737 14.6655 19.586 14.5945 19.4842C14.3125 19.08 13.8614 18.4598 13.3358 17.8216C12.8085 17.1813 12.2149 16.5335 11.648 16.0672C11.3644 15.834 11.0967 15.6538 10.8553 15.5415ZM14.9005 18.8637C14.6177 18.469 14.2363 17.9585 13.8053 17.435C13.2683 16.783 12.6457 16.1005 12.0343 15.5975C11.7287 15.3462 11.4167 15.132 11.1118 14.9901C10.8094 14.8494 10.4878 14.7678 10.1757 14.8198C9.30967 14.9641 8.63953 15.6983 8.16617 16.4562C7.68629 17.2245 7.35766 18.0987 7.19859 18.678C7.10787 18.9431 7.18357 19.2063 7.31036 19.426C7.43952 19.6498 7.64338 19.8691 7.88269 20.0768C8.36359 20.4941 9.048 20.9158 9.77056 21.2823C10.4956 21.6502 11.2752 21.9706 11.9554 22.1807C12.2953 22.2856 12.616 22.3647 12.896 22.4075C13.1683 22.4491 13.4327 22.4614 13.6443 22.4084C14.262 22.254 14.6711 21.7223 14.9293 21.2085C15.1334 20.8026 15.2662 20.3632 15.341 20.0093C15.355 20.0024 15.3683 19.9947 15.3806 19.9863C15.435 19.9051 15.4625 19.7713 15.459 19.7318C15.4555 19.7133 15.4479 19.685 15.4444 19.6749C15.4383 19.6581 15.432 19.6454 15.4304 19.6421C15.4277 19.6367 15.4253 19.6323 15.4238 19.6296C15.4209 19.6242 15.418 19.6194 15.4161 19.6162C15.4089 19.6039 15.3984 19.5875 15.387 19.5696C15.3394 19.4958 15.2381 19.3438 15.0951 19.1389L14.9025 18.85L14.9005 18.8637Z" fill="#121312"/>
<path fill-rule="evenodd" clip-rule="evenodd" d="M19.0438 13.9034H12.6582V14.2075C12.6582 14.3917 12.7305 14.5944 12.821 14.7835C12.9157 14.9814 13.0485 15.2011 13.2059 15.4299C13.5212 15.888 13.9504 16.4044 14.4153 16.8887C14.88 17.3727 15.3881 17.8328 15.8636 18.1746C16.1012 18.3454 16.3364 18.4908 16.5585 18.5945C16.7764 18.6964 17.0037 18.7686 17.2193 18.7686C17.5634 18.7686 17.891 18.593 18.1738 18.3712C18.4628 18.1446 18.744 17.8391 19.0014 17.5125C19.5168 16.8584 19.9682 16.0793 20.228 15.5598L20.296 15.4238L20.2278 15.2874L20.2273 15.2865L20.2258 15.2834L20.2202 15.2723L20.1993 15.2317C20.1814 15.197 20.1555 15.1478 20.1236 15.0889C20.0601 14.9715 19.9713 14.8136 19.8718 14.6545C19.7737 14.4975 19.6591 14.3294 19.5435 14.1973C19.486 14.1316 19.4204 14.0657 19.3491 14.0138C19.2842 13.9666 19.1773 13.9034 19.0438 13.9034ZM19.9561 15.4237L20.2278 15.2874C20.2278 15.2874 20.228 15.2878 19.9561 15.4237Z" fill="#121312"/>
<path d="M11.442 2.34851L4.44825 13.9034C3.8593 14.8764 5.21644 17.5523 5.96863 18.7686L13.8746 5.69335C13.8746 2.53096 12.2529 2.1458 11.442 2.34851Z" fill="#121312"/>
<path fill-rule="evenodd" clip-rule="evenodd" d="M11.6327 2.62072L4.70839 14.0608C4.61613 14.2133 4.57958 14.4761 4.63279 14.8615C4.68454 15.2362 4.81389 15.6759 4.98962 16.1364C5.26496 16.858 5.6428 17.6016 5.97112 18.1768L13.5701 5.60923C13.556 4.1289 13.1689 3.36222 12.7565 2.9828C12.3852 2.64119 11.9519 2.57499 11.6327 2.62072ZM13.1683 2.53524C13.7617 3.08119 14.1787 4.06648 14.1787 5.69335V5.77813L5.97156 19.3515L5.71002 18.9285C5.32705 18.3093 4.78985 17.3187 4.42142 16.3532C4.23746 15.8711 4.09094 15.3833 4.03036 14.9446C3.97124 14.5166 3.98591 14.08 4.18812 13.7459L11.2467 2.0839L11.3683 2.05352C11.8552 1.93177 12.5737 1.9882 13.1683 2.53524Z" fill="#121312"/>
<path d="M14.4828 7.21373L12.0501 11.1667C11.8069 11.562 11.9488 12.1423 12.0501 12.383H16.9154L17.5235 11.1667C17.5235 8.73411 15.4963 7.51781 14.4828 7.21373Z" fill="#121312"/>
<path fill-rule="evenodd" clip-rule="evenodd" d="M14.3463 6.85532L14.5701 6.92248C15.6408 7.24368 17.8276 8.53765 17.8276 11.1667V11.2385L17.1033 12.6871H11.8482L11.7699 12.501C11.7079 12.3537 11.6383 12.1168 11.6178 11.8568C11.5975 11.5999 11.6221 11.282 11.7912 11.0073L14.3463 6.85532ZM14.6144 7.58002L12.3091 11.3261C12.2349 11.4467 12.2088 11.6166 12.224 11.8089C12.2317 11.9059 12.2491 11.9988 12.2696 12.0789H16.7274L17.2188 11.0962C17.1829 9.06542 15.599 7.95669 14.6144 7.58002Z" fill="#121312"/>
</svg>
