<svg width="24" height="24" viewBox="0 0 24 24" fill="none" xmlns="http://www.w3.org/2000/svg">
<path fill-rule="evenodd" clip-rule="evenodd" d="M16 1.99991H8C6.351 1.99991 5 3.34991 5 4.99991V18.9999C5 20.6499 6.351 21.9999 8 21.9999H16C17.65 21.9999 19 20.6499 19 18.9999V4.99991C19 3.34991 17.65 1.99991 16 1.99991ZM16 3.99991C16.542 3.99991 17 4.45791 17 4.99991V18.9999C17 19.5419 16.542 19.9999 16 19.9999H8C7.458 19.9999 7 19.5419 7 18.9999V4.99991C7 4.45791 7.458 3.99991 8 3.99991H16Z" fill="black"/>
<path fill-rule="evenodd" clip-rule="evenodd" d="M12 16.7567C11.31 16.7567 10.75 17.3167 10.75 18.0067C10.75 18.6967 11.31 19.2567 12 19.2567C12.69 19.2567 13.25 18.6967 13.25 18.0067C13.25 17.3167 12.69 16.7567 12 16.7567Z" fill="black"/>
</svg>
