<svg width="24" height="24" viewBox="0 0 24 24" fill="none" xmlns="http://www.w3.org/2000/svg">
<path d="M20.6133 7.85332H3.32935V9.58665H20.6133V7.85332Z" fill="black"/>
<path d="M21.1614 8.94L20.9454 8.77466C20.7134 8.59732 20.6667 8.26665 20.8414 8.03332L21.0054 7.81335C21.272 7.46265 21.1547 7.032 20.8481 6.67065L18.6134 3.54133C18.2774 3.07066 17.7347 2.79066 17.156 2.79066H6.83739C6.25873 2.79066 5.71606 3.07066 5.38006 3.54133L3.15072 6.67065C2.84405 7.032 2.72805 7.46133 2.99338 7.81335L3.15738 8.03332C3.33072 8.268 3.28538 8.59732 3.05339 8.77466L2.83739 8.94C2.48672 9.20666 2.41738 9.70665 2.68405 10.0573L10.5374 20.992C10.6547 21.1453 10.8361 21.236 11.0294 21.236H12.9667C13.16 21.236 13.3414 21.1453 13.4587 20.992L21.3161 10.0573C21.5827 9.70665 21.5134 9.20535 21.1627 8.94H21.1614ZM12.1747 19.6493C12.0854 19.7667 11.9094 19.7667 11.8201 19.6493L3.96406 8.87733C3.8747 8.76 3.90406 8.58933 3.99073 8.47335L6.47473 4.992C6.68405 4.69732 7.02272 4.524 7.38406 4.524H16.6094C16.9707 4.524 17.3094 4.69867 17.5187 4.992L20.0067 8.47335C20.0947 8.58933 20.1227 8.76135 20.0334 8.87733L12.1734 19.6493H12.1747Z" fill="black"/>
</svg>
