<svg width="24" height="24" viewBox="0 0 24 24" fill="none" xmlns="http://www.w3.org/2000/svg">
<path fill-rule="evenodd" clip-rule="evenodd" d="M11.7895 4C12.3708 4 12.8421 4.47128 12.8421 5.05263V18.9474C12.8421 19.5287 12.3708 20 11.7895 20C11.2081 20 10.7368 19.5287 10.7368 18.9474L10.7368 5.05263C10.7368 4.47128 11.2081 4 11.7895 4Z" fill="black"/>
<path fill-rule="evenodd" clip-rule="evenodd" d="M20 11.7895C20 12.3708 19.5287 12.8421 18.9474 12.8421H5.05263C4.47128 12.8421 4 12.3708 4 11.7895C4 11.2081 4.47128 10.7368 5.05263 10.7368L18.9474 10.7368C19.5287 10.7368 20 11.2081 20 11.7895Z" fill="black"/>
</svg>
