<svg width="24" height="24" viewBox="0 0 24 24" fill="none" xmlns="http://www.w3.org/2000/svg">
<path d="M22 4V8C22 8.55228 21.5523 9 21 9C20.4477 9 20 8.55228 20 8V4H16C15.4477 4 15 3.55228 15 3C15 2.44772 15.4477 2 16 2H20C21.1046 2 22 2.89543 22 4Z" fill="black"/>
<path d="M4 4V8C4 8.55228 3.55228 9 3 9C2.44772 9 2 8.55228 2 8V4C2 2.89543 2.89543 2 4 2H8C8.55228 2 9 2.44772 9 3C9 3.55228 8.55228 4 8 4H4Z" fill="black"/>
<path d="M20 20V16C20 15.4477 20.4477 15 21 15C21.5523 15 22 15.4477 22 16V20C22 21.1046 21.1046 22 20 22H16C15.4477 22 15 21.5523 15 21C15 20.4477 15.4477 20 16 20H20Z" fill="black"/>
<path d="M4 20H8C8.55228 20 9 20.4477 9 21C9 21.5523 8.55228 22 8 22H4C2.89543 22 2 21.1046 2 20V16C2 15.4477 2.44772 15 3 15C3.55228 15 4 15.4477 4 16V20Z" fill="black"/>
<rect x="2" y="11" width="20" height="2" rx="1" fill="black"/>
</svg>
