<svg width="24" height="24" viewBox="0 0 24 24" fill="none" xmlns="http://www.w3.org/2000/svg">
<path fill-rule="evenodd" clip-rule="evenodd" d="M12.01 17.9997C8.701 17.9997 6.01 15.3087 6.01 11.9997C6.01 8.6907 8.701 5.9997 12.01 5.9997C15.319 5.9997 18.01 8.6907 18.01 11.9997C18.01 15.3087 15.319 17.9997 12.01 17.9997ZM21.151 10.7887L20.805 10.7587C20.112 10.6847 19.851 10.2677 19.759 10.0417C19.567 9.2787 19.266 8.5617 18.873 7.9027C18.778 7.6827 18.656 7.1967 19.102 6.6457L19.324 6.3797C19.81 5.8257 19.616 5.4787 19.228 5.0887L18.906 4.7677C18.517 4.3787 18.169 4.1857 17.615 4.6707L17.349 4.8937C16.764 5.3657 16.253 5.2017 16.055 5.1057C15.436 4.7417 14.764 4.4607 14.053 4.2727C13.888 4.2267 13.324 4.0097 13.237 3.1907L13.206 2.8447C13.157 2.1097 12.776 1.9997 12.225 1.9997H11.77C11.22 1.9997 10.837 2.1097 10.789 2.8447L10.758 3.1907C10.656 4.1497 9.895 4.2857 9.895 4.2857C9.895 4.2877 9.896 4.2897 9.896 4.2917C9.238 4.4717 8.615 4.7367 8.037 5.0687C8.035 5.0657 8.034 5.0607 8.031 5.0577C8.031 5.0577 7.397 5.4997 6.647 4.8947L6.38 4.6707C5.826 4.1857 5.478 4.3787 5.089 4.7677L4.768 5.0887C4.379 5.4787 4.186 5.8257 4.67 6.3797L4.894 6.6457C5.5 7.3967 5.057 8.0307 5.057 8.0307C5.062 8.0347 5.068 8.0367 5.073 8.0397C4.741 8.6187 4.478 9.2407 4.299 9.8987C4.294 9.8977 4.289 9.8957 4.285 9.8947C4.285 9.8947 4.15 10.6557 3.191 10.7587L2.844 10.7887C2.11 10.8377 2 11.2207 2 11.7707V12.2257C2 12.7747 2.11 13.1577 2.844 13.2057L3.191 13.2367C4.15 13.3387 4.285 14.1007 4.285 14.1007C4.289 14.1007 4.293 14.0987 4.297 14.0977C4.477 14.7557 4.735 15.3807 5.065 15.9597C5.063 15.9617 5.059 15.9617 5.057 15.9637C5.057 15.9637 5.5 16.5987 4.894 17.3487L4.67 17.6147C4.186 18.1687 4.378 18.5177 4.768 18.9057L5.089 19.2277C5.478 19.6167 5.826 19.8097 6.38 19.3237L6.647 19.1017C7.397 18.4947 8.031 18.9377 8.031 18.9377C8.032 18.9367 8.032 18.9357 8.033 18.9347C8.613 19.2677 9.237 19.5267 9.895 19.7077V19.7107C9.895 19.7107 10.656 19.8467 10.758 20.8057L10.789 21.1507C10.837 21.8857 11.22 21.9947 11.77 21.9947H12.225C12.776 21.9947 13.157 21.8857 13.206 21.1507L13.237 20.8057C13.317 20.0577 13.793 19.8117 14.001 19.7397C14.728 19.5537 15.412 19.2647 16.043 18.8957C16.231 18.8017 16.75 18.6177 17.349 19.1017L17.615 19.3247C18.169 19.8097 18.517 19.6167 18.906 19.2277L19.228 18.9057C19.616 18.5177 19.81 18.1687 19.324 17.6147L19.102 17.3497C18.623 16.7557 18.797 16.2407 18.893 16.0487C19.275 15.3997 19.573 14.6967 19.762 13.9477C19.856 13.7207 20.116 13.3107 20.805 13.2367L21.151 13.2057C21.885 13.1577 21.994 12.7747 21.994 12.2257V11.7707C21.994 11.2207 21.885 10.8377 21.151 10.7887Z" fill="black"/>
</svg>
