<svg width="24" height="24" viewBox="0 0 24 24" fill="none" xmlns="http://www.w3.org/2000/svg">
<path fill-rule="evenodd" clip-rule="evenodd" d="M12.3921 20.3844L12.3991 21.7264C12.4001 21.8774 12.5221 21.9994 12.6731 21.9994H14.0061C14.0791 21.9994 14.1491 21.9704 14.2011 21.9194L18.2291 17.8904C18.3871 17.7324 18.3871 17.4754 18.2291 17.3174L17.0471 16.1354C16.9031 15.9914 16.6691 15.9914 16.5251 16.1354L12.4721 20.1894C12.4201 20.2404 12.3911 20.3114 12.3921 20.3844Z" fill="black"/>
<path fill-rule="evenodd" clip-rule="evenodd" d="M19.4341 16.6851L20.9131 15.2071C21.0241 15.0961 21.0241 14.9151 20.9131 14.8041L19.5861 13.4771C19.4751 13.3661 19.2941 13.3661 19.1831 13.4771L17.7051 14.9561C17.5931 15.0671 17.5931 15.2481 17.7051 15.3591L19.0321 16.6851C19.1431 16.7961 19.3231 16.7961 19.4341 16.6851Z" fill="black"/>
<path fill-rule="evenodd" clip-rule="evenodd" d="M12.9985 8.02011V4.83011L16.1755 8.00411L12.9985 8.02011ZM19.0005 10.9991V10.9951V10.9911V8.37211C19.0005 8.13211 18.9045 7.90311 18.7345 7.73411L13.3025 2.30711C13.1055 2.11011 12.8395 2.00011 12.5615 2.00011H5.00049C3.89449 2.00011 3.00049 2.89511 3.00049 4.00011V20.0001C3.00049 21.1041 3.89449 22.0001 5.00049 22.0001H8.98949C8.99349 22.0001 8.99649 22.0021 9.00049 22.0021C9.55349 22.0021 10.0005 21.5541 10.0005 21.0021C10.0005 20.4501 9.55349 20.0021 9.00049 20.0021V20.0001H5.00049V4.00011H10.9985V8.02011C10.9985 9.10911 11.8865 9.99511 12.9775 9.99511H17.0005V11.0041H17.0025C17.0085 11.5521 17.4515 11.9951 18.0005 11.9951C18.5505 11.9951 18.9935 11.5521 18.9985 11.0041H19.0005V10.9991Z" fill="black"/>
</svg>
