<svg width="24" height="24" viewBox="0 0 24 24" fill="none" xmlns="http://www.w3.org/2000/svg">
<path fill-rule="evenodd" clip-rule="evenodd" d="M14.998 4.9995C11.133 4.9995 7.99805 8.1345 7.99805 11.9995C7.99805 15.8655 11.133 18.9995 14.998 18.9995C18.864 18.9995 21.998 15.8655 21.998 11.9995C21.998 8.1345 18.864 4.9995 14.998 4.9995ZM14.998 6.9995C17.756 6.9995 19.998 9.2425 19.998 11.9995C19.998 14.7575 17.756 16.9995 14.998 16.9995C12.241 16.9995 9.99805 14.7575 9.99805 11.9995C9.99805 9.2425 12.241 6.9995 14.998 6.9995Z" fill="black"/>
<path d="M6.80435 5.35823C3.9592 6.29472 2 8.95538 2 11.9961C2 15.0368 3.9592 17.6975 6.80435 18.634C7.32895 18.8066 7.8942 18.5213 8.06687 17.9968C8.23954 17.4722 7.95425 16.9069 7.42965 16.7342C5.39855 16.0657 4 14.1664 4 11.9961C4 9.82579 5.39855 7.92651 7.42965 7.25797C7.95425 7.0853 8.23954 6.52005 8.06687 5.99545C7.8942 5.47085 7.32895 5.18556 6.80435 5.35823Z" fill="black"/>
</svg>
