<svg width="24" height="24" viewBox="0 0 24 24" fill="none" xmlns="http://www.w3.org/2000/svg">
<path fill-rule="evenodd" clip-rule="evenodd" d="M22.6788 13.4894C22.2506 13.0434 21.5505 13.0434 21.1223 13.4894L18.6014 16.1086V5.14372C18.6014 4.51467 18.106 4 17.5005 4C16.894 4 16.3997 4.51467 16.3997 5.14372V16.1086L13.8777 13.4894C13.4495 13.0445 12.7494 13.0445 12.3212 13.4894C11.8929 13.9344 11.8929 14.6618 12.3212 15.1067L16.7223 19.6781C16.7861 19.7467 16.8676 19.7833 16.9424 19.8302C16.9887 19.8588 17.0261 19.9 17.0767 19.9229C17.1219 19.9435 17.1725 19.9435 17.2198 19.9549C17.4532 20.0201 17.6998 20.0189 17.9244 19.9229C17.9728 19.9011 18.0091 19.8611 18.0543 19.8325C18.1313 19.7856 18.2117 19.7479 18.2788 19.6781L22.6788 15.1067C23.1071 14.6618 23.1071 13.9344 22.6788 13.4894Z" fill="black"/>
<path fill-rule="evenodd" clip-rule="evenodd" d="M11.6788 10.5106C11.2506 10.9566 10.5505 10.9566 10.1223 10.5106L7.60138 7.89144V18.8563C7.60138 19.4853 7.106 20 6.50055 20C5.894 20 5.39972 19.4853 5.39972 18.8563V7.89144L2.87773 10.5106C2.44951 10.9555 1.74939 10.9555 1.32117 10.5106C0.892945 10.0656 0.892945 9.33824 1.32117 8.89333L5.72227 4.32189C5.78611 4.25326 5.86758 4.21666 5.94243 4.16977C5.98867 4.14118 6.02609 4.1 6.07673 4.07713C6.12187 4.05654 6.1725 4.05654 6.21984 4.04511C6.45321 3.97991 6.6998 3.98106 6.92437 4.07713C6.9728 4.09886 7.00913 4.13889 7.05427 4.16748C7.13132 4.21438 7.21168 4.25212 7.27883 4.32189L11.6788 8.89333C12.1071 9.33824 12.1071 10.0656 11.6788 10.5106Z" fill="black"/>
</svg>
