<svg width="24" height="24" viewBox="0 0 24 24" fill="none" xmlns="http://www.w3.org/2000/svg">
<g clip-path="url(#clip0_2171_432)">
<path d="M12.0002 1.00009C10.5011 0.994129 9.017 1.29744 7.6405 1.89105C6.264 2.48467 5.02474 3.35583 4.00018 4.45009V2.50009C4.00182 2.35513 3.97192 2.21155 3.91257 2.0793C3.85321 1.94705 3.76581 1.82928 3.65642 1.73416C3.54703 1.63903 3.41826 1.56883 3.27905 1.52842C3.13984 1.488 2.9935 1.47833 2.85018 1.50009C2.60759 1.54711 2.38937 1.67818 2.23389 1.87024C2.07842 2.06229 1.99566 2.30303 2.00018 2.55009V7.00009C2.00018 7.2653 2.10553 7.51966 2.29307 7.70719C2.48061 7.89473 2.73496 8.00009 3.00018 8.00009H7.50017C7.64513 8.00173 7.78871 7.97183 7.92096 7.91248C8.05322 7.85312 8.17098 7.76572 8.2661 7.65633C8.36123 7.54694 8.43143 7.41818 8.47185 7.27896C8.51226 7.13975 8.52193 6.99341 8.50017 6.85009C8.45315 6.6075 8.32208 6.38928 8.13002 6.2338C7.93797 6.07833 7.69723 5.99557 7.45017 6.00009H5.30018C6.46493 4.70297 7.98133 3.77206 9.66514 3.32044C11.3489 2.86883 13.1277 2.91596 14.7852 3.45612C16.4427 3.99627 17.9077 5.00619 19.0021 6.36316C20.0965 7.72014 20.7733 9.36576 20.9502 11.1001C20.975 11.3476 21.0913 11.577 21.2762 11.7434C21.4611 11.9098 21.7014 12.0013 21.9502 12.0001C22.0904 12.0008 22.2291 11.972 22.3574 11.9156C22.4858 11.8592 22.6008 11.7765 22.6951 11.6728C22.7894 11.569 22.8609 11.4467 22.9048 11.3135C22.9487 11.1804 22.9642 11.0396 22.9502 10.9001C22.6774 8.18593 21.4059 5.66995 19.3824 3.84054C17.359 2.01114 14.728 0.998812 12.0002 1.00009Z" fill="black"/>
<path d="M21.0019 16H16.5019C16.3569 15.9984 16.2134 16.0283 16.0811 16.0876C15.9488 16.147 15.8311 16.2344 15.736 16.3438C15.6408 16.4532 15.5706 16.5819 15.5302 16.7211C15.4898 16.8604 15.4801 17.0067 15.5019 17.15C15.5489 17.3926 15.68 17.6108 15.872 17.7663C16.0641 17.9218 16.3048 18.0045 16.5519 18H18.7019C17.5371 19.2971 16.0207 20.228 14.3369 20.6797C12.6531 21.1313 10.8744 21.0841 9.21687 20.544C7.55935 20.0038 6.09437 18.9939 4.99995 17.6369C3.90553 16.28 3.22876 14.6343 3.05189 12.9C3.02702 12.6525 2.91077 12.4231 2.72587 12.2567C2.54096 12.0903 2.30066 11.9988 2.05189 12C1.91171 11.9993 1.77295 12.0281 1.64462 12.0845C1.51628 12.1409 1.40123 12.2236 1.30694 12.3273C1.21264 12.4311 1.14121 12.5534 1.09727 12.6866C1.05333 12.8197 1.03787 12.9605 1.05189 13.1C1.26191 15.1995 2.07129 17.1942 3.38353 18.8464C4.69577 20.4986 6.45549 21.7386 8.45288 22.4184C10.4503 23.0983 12.601 23.1893 14.6487 22.6807C16.6965 22.1722 18.5547 21.0854 20.0019 19.55V21.5C20.0002 21.645 20.0301 21.7885 20.0895 21.9208C20.1489 22.0531 20.2363 22.1708 20.3456 22.2659C20.455 22.3611 20.5838 22.4313 20.723 22.4717C20.8622 22.5121 21.0086 22.5218 21.1519 22.5C21.3945 22.453 21.6127 22.3219 21.7682 22.1299C21.9236 21.9378 22.0064 21.6971 22.0019 21.45V17C22.0019 16.7348 21.8965 16.4804 21.709 16.2929C21.5215 16.1054 21.2671 16 21.0019 16Z" fill="black"/>
<path fill-rule="evenodd" clip-rule="evenodd" d="M17.3166 10.9128H13.0914V6.68761C13.0914 6.0872 12.6047 5.59991 12.0037 5.59991C11.4033 5.59991 10.916 6.0872 10.916 6.68761V10.9128H6.69194C6.09099 10.9128 5.60425 11.4001 5.60425 12.0005C5.60425 12.6009 6.09099 13.0882 6.69194 13.0882H10.916V17.3128C10.916 17.9132 11.4033 18.4005 12.0037 18.4005C12.6047 18.4005 13.0914 17.9132 13.0914 17.3128V13.0882H17.3166C17.917 13.0882 18.4042 12.6009 18.4042 12.0005C18.4042 11.4001 17.917 10.9128 17.3166 10.9128Z" fill="black"/>
</g>
<defs>
<clipPath id="clip0_2171_432">
<rect width="24" height="24" fill="white"/>
</clipPath>
</defs>
</svg>
