<svg width="24" height="24" viewBox="0 0 24 24" fill="none" xmlns="http://www.w3.org/2000/svg">
<path fill-rule="evenodd" clip-rule="evenodd" d="M5.52577 8.32195C6.36635 8.32087 7.05263 9.00712 7.05155 9.84766L7.05155 14.7895L17.3964 4.44509C17.9899 3.85164 18.961 3.85164 19.5545 4.44509C20.149 5.03962 20.148 6.00964 19.5545 6.6031L9.20965 16.9475L14.1528 16.9486C14.9923 16.9486 15.6785 17.6348 15.6785 18.4743C15.6785 19.3138 14.9923 20 14.1528 20L5.52578 19.9989C5.39845 20.0011 5.28407 19.9558 5.16645 19.9266C5.09416 19.9083 5.01862 19.9104 4.94741 19.8824C4.88374 19.8576 4.83411 19.8079 4.77692 19.7723C4.48665 19.6051 4.24602 19.3623 4.11654 19.0516C4.08956 18.9836 4.09172 18.9102 4.07445 18.839C4.04316 18.7192 4 18.6049 4 18.4732L4 9.84766C4 9.0082 4.68628 8.32195 5.52577 8.32195Z" fill="black"/>
</svg>
