<svg width="24" height="25" viewBox="0 0 24 25" fill="none" xmlns="http://www.w3.org/2000/svg">
<path fill-rule="evenodd" clip-rule="evenodd" d="M16.3617 3.24871C16.0649 2.95975 15.5901 2.96609 15.3012 3.26286C15.0122 3.55964 15.0185 4.03447 15.3153 4.32342L17.1042 6.06519H8.06073C7.04316 6.06519 6.06335 6.45859 5.33787 7.16496C4.61171 7.872 4.19995 8.83527 4.19995 9.84404V11.3585C4.19995 11.7727 4.53573 12.1085 4.94995 12.1085C5.36416 12.1085 5.69994 11.7727 5.69994 11.3585V9.84404C5.69994 9.24621 5.94367 8.66868 6.38428 8.23968C6.82557 7.81001 7.42825 7.56518 8.06073 7.56518H17.1036L15.3153 9.30642C15.0185 9.59537 15.0122 10.0702 15.3012 10.367C15.5901 10.6637 16.0649 10.6701 16.3617 10.3811L19.4725 7.35228C19.6175 7.21109 19.6993 7.0173 19.6993 6.81492C19.6993 6.61254 19.6175 6.41875 19.4725 6.27756L16.3617 3.24871ZM8.59809 13.8639C8.88705 14.1607 8.88071 14.6355 8.58394 14.9245L6.79552 16.6658H15.8377C16.4702 16.6658 17.0729 16.421 17.5142 15.9913C17.9548 15.5623 18.1985 14.9848 18.1985 14.3869V12.8725C18.1985 12.4583 18.5343 12.1225 18.9485 12.1225C19.3627 12.1225 19.6985 12.4583 19.6985 12.8725V14.3869C19.6985 15.3957 19.2867 16.359 18.5606 17.066C17.8351 17.7724 16.8553 18.1658 15.8377 18.1658H6.79512L8.58394 19.9075C8.88071 20.1964 8.88705 20.6713 8.59809 20.968C8.30913 21.2648 7.83431 21.2711 7.53753 20.9822L4.42674 17.9533C4.38223 17.91 4.34367 17.8617 4.31161 17.8097C4.24435 17.701 4.20411 17.5737 4.20026 17.4374C4.20005 17.4302 4.19995 17.423 4.19995 17.4158C4.19995 17.1998 4.29124 17.0052 4.43732 16.8683L7.53753 13.8498C7.83431 13.5608 8.30913 13.5672 8.59809 13.8639Z" fill="black"/>
</svg>
