<svg width="24" height="24" viewBox="0 0 24 24" fill="none" xmlns="http://www.w3.org/2000/svg">
<path d="M22.9748 3.62217C23.0616 3.13253 23.0615 3.13251 23.0613 3.13248L23.4466 3.18985L23.5093 3.54294C23.5092 3.54276 23.5092 3.5426 22.9748 3.62217Z" fill="#121312"/>
<path fill-rule="evenodd" clip-rule="evenodd" d="M1.64457 3.5433L2.179 3.62252C1.64505 3.54302 1.64461 3.54312 1.64457 3.5433L1.7072 3.19021L2.09257 3.13283C2.09238 3.13286 2.09223 3.13331 2.179 3.62252L2.09257 3.13283L2.09447 3.13256L2.0988 3.13192L2.11359 3.12982L2.16698 3.12261C2.21289 3.1166 2.27913 3.10837 2.36364 3.09899C2.5326 3.08024 2.77495 3.05686 3.07408 3.03758C3.67134 2.99908 4.50006 2.97654 5.4258 3.0411C7.25547 3.16869 9.56859 3.64365 11.173 5.11363C11.7876 5.67678 12.2419 6.33453 12.5763 7.02326C12.9108 6.33448 13.3651 5.67668 13.9798 5.11349C15.5844 3.64335 17.8978 3.16834 19.7276 3.04073C20.6535 2.97617 21.4823 2.99871 22.0796 3.03721C22.3788 3.0565 22.6212 3.07987 22.7902 3.09863C22.8747 3.10801 22.9409 3.11624 22.9868 3.12225L23.0402 3.12946L23.055 3.13157L23.0594 3.1322L23.0613 3.13248L22.9748 3.62217L23.5093 3.54294L23.5096 3.54468L23.5103 3.54865L23.5125 3.5622L23.5204 3.61112C23.527 3.65319 23.536 3.71389 23.5462 3.79133C23.5667 3.94615 23.5922 4.16822 23.6132 4.44232C23.6553 4.98961 23.6799 5.74898 23.6094 6.59726C23.4701 8.27383 22.9517 10.3934 21.3471 11.8635C20.1236 12.9845 18.4902 13.5244 16.987 13.7749C15.7776 13.9764 14.6183 13.9963 13.7548 13.9653V19.8741C13.7548 20.4959 13.2046 21 12.5259 21C11.8472 21 11.297 20.4959 11.297 19.8741V13.9678C10.4244 13.9944 9.273 13.9666 8.07833 13.7592C6.60042 13.5026 5.00638 12.9623 3.8065 11.863C2.2021 10.393 1.68371 8.27365 1.54445 6.59727C1.47399 5.74909 1.49859 4.9898 1.54061 4.44257C1.56166 4.16851 1.58717 3.94647 1.60763 3.79166C1.61787 3.71423 1.62686 3.65353 1.63342 3.61147L1.64129 3.56256L1.64358 3.54901L1.64427 3.54504L1.64457 3.5433ZM19.9142 5.28614C20.3743 5.25405 20.8091 5.24751 21.1934 5.25435C21.2008 5.60644 21.1937 6.0048 21.1587 6.42636C21.0344 7.92179 20.5878 9.37452 19.6092 10.2712C18.6305 11.1679 17.0449 11.5771 15.4127 11.6909C14.9526 11.723 14.5178 11.7295 14.1336 11.7227C14.1261 11.3706 14.1332 10.9722 14.1683 10.5507C14.2925 9.05524 14.7391 7.60251 15.7178 6.70583C16.6964 5.80915 18.282 5.39996 19.9142 5.28614ZM3.99518 6.42637C3.96017 6.00495 3.95302 5.60671 3.96048 5.25472C4.34467 5.24788 4.77932 5.25443 5.23927 5.28651C6.87124 5.40031 8.45655 5.80945 9.43505 6.70597C10.4135 7.60249 10.8601 9.05498 10.9843 10.5502C11.0193 10.9716 11.0265 11.3699 11.019 11.7219C10.6348 11.7287 10.2002 11.7222 9.74021 11.6901C8.10825 11.5763 6.52294 11.1671 5.54444 10.2706C4.56594 9.3741 4.11939 7.92161 3.99518 6.42637Z" fill="#121312"/>
</svg>
