<svg width="24" height="24" viewBox="0 0 24 24" fill="none" xmlns="http://www.w3.org/2000/svg">
<path fill-rule="evenodd" clip-rule="evenodd" d="M21.3002 5.373C20.7722 5.203 20.2112 5.49 20.0392 6.015L19.6432 7.235C18.0292 4.638 15.1782 3 12.0032 3C7.80819 3 4.20619 5.848 3.24319 9.925C3.11619 10.462 3.44919 11.001 3.98819 11.128C4.06519 11.145 4.14219 11.154 4.21819 11.154C4.67119 11.154 5.08119 10.845 5.19119 10.384C5.93919 7.214 8.74019 5 12.0032 5C14.4942 5 16.7132 6.308 17.9622 8.359L16.4122 7.883C15.8832 7.719 15.3242 8.019 15.1622 8.545C15.0002 9.073 15.2972 9.633 15.8242 9.795L19.5112 10.928C19.6092 10.958 19.7082 10.972 19.8052 10.972C20.2272 10.972 20.6182 10.703 20.7562 10.281L21.9422 6.634C22.1122 6.108 21.8242 5.544 21.3002 5.373Z" fill="black"/>
<path fill-rule="evenodd" clip-rule="evenodd" d="M20.0463 12.5713C19.4973 12.4643 18.9773 12.8183 18.8713 13.3593C18.2293 16.6283 15.3403 19.0003 12.0033 19.0003C9.52031 19.0003 7.29931 17.6933 6.04931 15.6463L7.57831 16.1173C8.10831 16.2823 8.66631 15.9823 8.82831 15.4553C8.99031 14.9263 8.69431 14.3673 8.16631 14.2053L4.48031 13.0713C3.95731 12.9103 3.40431 13.1993 3.23431 13.7183L2.04931 17.3673C1.87831 17.8913 2.16631 18.4563 2.69231 18.6273C2.79431 18.6603 2.89831 18.6753 3.00031 18.6753C3.42231 18.6753 3.81431 18.4073 3.95131 17.9843L4.35331 16.7483C5.96531 19.3543 8.82731 21.0003 12.0033 21.0003C16.2933 21.0003 20.0073 17.9493 20.8343 13.7463C20.9413 13.2043 20.5873 12.6773 20.0463 12.5713Z" fill="black"/>
</svg>
