<svg width="24" height="24" viewBox="0 0 24 24" fill="none" xmlns="http://www.w3.org/2000/svg">
<path fill-rule="evenodd" clip-rule="evenodd" d="M10.9994 8.41608V20.9991C10.9994 21.5521 11.4474 21.9991 11.9994 21.9991C12.5524 21.9991 12.9994 21.5521 12.9994 20.9991V8.41608L17.1214 12.5371C17.5124 12.9281 18.1454 12.9281 18.5354 12.5371C18.9264 12.1461 18.9264 11.5141 18.5354 11.1231L12.8784 5.46608C12.8494 5.43708 12.8184 5.41008 12.7874 5.38608C12.6034 5.15108 12.3194 5.00208 11.9994 5.00208C11.6804 5.00208 11.3954 5.15108 11.2124 5.38608C11.1814 5.41008 11.1494 5.43708 11.1214 5.46608L5.46439 11.1231C5.07339 11.5141 5.07339 12.1461 5.46439 12.5371C5.85439 12.9281 6.48739 12.9281 6.87839 12.5371L10.9994 8.41608Z" fill="black"/>
<path fill-rule="evenodd" clip-rule="evenodd" d="M20.9995 4H2.99951C2.44951 4 1.99951 3.55 1.99951 3C1.99951 2.45 2.44951 2 2.99951 2H20.9995C21.5505 2 21.9995 2.45 21.9995 3C21.9995 3.55 21.5505 4 20.9995 4Z" fill="black"/>
</svg>
