<svg width="21" height="20" viewBox="0 0 21 20" fill="none" xmlns="http://www.w3.org/2000/svg">
<path fill-rule="evenodd" clip-rule="evenodd" d="M12.2355 6.84341H9.63669C9.08161 6.84341 8.63164 6.39344 8.63164 5.83836C8.63164 5.28329 9.08161 4.83331 9.63669 4.83331H14.6619C14.9395 4.83331 15.1907 4.94581 15.3726 5.12769C15.5545 5.30956 15.667 5.56083 15.667 5.83836V10.8636C15.667 11.4187 15.217 11.8687 14.6619 11.8687C14.1069 11.8687 13.6569 11.4187 13.6569 10.8636V8.26477L7.38272 14.5389C6.99022 14.9314 6.35386 14.9314 5.96136 14.5389C5.56887 14.1464 5.56887 13.5101 5.96136 13.1176L12.2355 6.84341Z" fill="currentColor"/>
</svg>
