<svg width="21" height="20" viewBox="0 0 21 20" fill="none" xmlns="http://www.w3.org/2000/svg">
<path fill-rule="evenodd" clip-rule="evenodd" d="M9.52621 12.4915H11.6919C12.1545 12.4915 12.5295 12.8665 12.5295 13.3291C12.5295 13.7916 12.1545 14.1666 11.6919 14.1666L7.50421 14.1666C7.27293 14.1666 7.06354 14.0729 6.91198 13.9213C6.76041 13.7698 6.66667 13.5604 6.66667 13.3291V9.14137C6.66667 8.67881 7.04165 8.30383 7.50421 8.30383C7.96677 8.30383 8.34175 8.67881 8.34175 9.14137V11.3071L13.5702 6.0786C13.8973 5.75152 14.4276 5.75152 14.7547 6.0786C15.0818 6.40568 15.0818 6.93599 14.7547 7.26307L9.52621 12.4915Z" fill="currentColor"/>
</svg>
