<svg width="16" height="16" viewBox="0 0 16 16" fill="none" xmlns="http://www.w3.org/2000/svg">
  <path fill-rule="evenodd" clip-rule="evenodd" d="M11.7664 9.11708C11.455 8.78255 10.9458 8.78255 10.6344 9.11708L8.801 11.0814V2.85779C8.801 2.38601 8.44073 2 8.0004 2C7.55927 2 7.1998 2.38601 7.1998 2.85779V11.0814L5.36562 9.11708C5.05419 8.7834 4.54501 8.7834 4.23358 9.11708C3.92214 9.45076 3.92214 9.99632 4.23358 10.33L7.43438 13.7586C7.48081 13.8101 7.54005 13.8375 7.5945 13.8727C7.62812 13.8941 7.65534 13.925 7.69217 13.9422C7.72499 13.9576 7.76182 13.9576 7.79625 13.9662C7.96597 14.0151 8.14531 14.0142 8.30863 13.9422C8.34386 13.9259 8.37028 13.8958 8.4031 13.8744C8.45914 13.8392 8.51759 13.8109 8.56642 13.7586L11.7664 10.33C12.0779 9.99632 12.0779 9.45076 11.7664 9.11708Z" fill="currentColor"/>
</svg>