<svg width="12" height="12" viewBox="0 0 12 12" fill="none" xmlns="http://www.w3.org/2000/svg">
<path fill-rule="evenodd" clip-rule="evenodd" d="M7.88225 2.41212L4.76364 2.41212C4.09755 2.41212 3.55757 1.87215 3.55757 1.20606C3.55757 0.539972 4.09755 3.58219e-07 4.76364 4.1645e-07L10.7939 9.43636e-07C11.127 9.72752e-07 11.4285 0.134994 11.6468 0.353248C11.865 0.571502 12 0.873017 12 1.20606L12 7.23637C12 7.90245 11.46 8.44243 10.7939 8.44243C10.1278 8.44243 9.58788 7.90245 9.58788 7.23637L9.58788 4.11775L2.05887 11.6468C1.58788 12.1177 0.824242 12.1177 0.353246 11.6468C-0.11775 11.1758 -0.11775 10.4121 0.353246 9.94113L7.88225 2.41212Z" fill="currentColor" />
</svg>
