<svg width="24" height="24" viewBox="0 0 24 24" fill="none" xmlns="http://www.w3.org/2000/svg">
<path fill-rule="evenodd" clip-rule="evenodd" d="M11.7154 5.06718C11.8946 4.97761 12.1054 4.97761 12.2846 5.06718L18.6481 8.249C18.8637 8.3568 18.9999 8.57714 18.9999 8.81818C18.9999 9.05922 18.8637 9.27957 18.6481 9.38736L12.2846 12.5692C12.1054 12.6588 11.8946 12.6588 11.7154 12.5692L5.35191 9.38736C5.13632 9.27957 5.00014 9.05922 5.00014 8.81818C5.00014 8.57714 5.13632 8.3568 5.35191 8.249L11.7154 5.06718ZM7.05941 8.81818L12 11.2885L16.9406 8.81818L12 6.34784L7.05941 8.81818ZM5.06732 11.7154C5.22449 11.4011 5.60673 11.2736 5.92108 11.4308L12 14.4703L18.0789 11.4308C18.3933 11.2736 18.7755 11.4011 18.9327 11.7154C19.0899 12.0298 18.9624 12.412 18.6481 12.5692L12.2846 15.751C12.1054 15.8406 11.8946 15.8406 11.7154 15.751L5.35191 12.5692C5.03756 12.412 4.91015 12.0298 5.06732 11.7154ZM5.06732 14.8972C5.22449 14.5829 5.60673 14.4555 5.92108 14.6126L12 17.6522L18.0789 14.6126C18.3933 14.4555 18.7755 14.5829 18.9327 14.8972C19.0899 15.2116 18.9624 15.5938 18.6481 15.751L12.2846 18.9328C12.1054 19.0224 11.8946 19.0224 11.7154 18.9328L5.35191 15.751C5.03756 15.5938 4.91015 15.2116 5.06732 14.8972Z" fill="currentColor" stroke="#currentColor" stroke-width="0.5" stroke-linecap="round" stroke-linejoin="round"/>
<g clip-path="url(#clip0_8730_20180)">
<path fill-rule="evenodd" clip-rule="evenodd" d="M11.7154 5.06718C11.8946 4.97761 12.1054 4.97761 12.2846 5.06718L18.6481 8.249C18.8637 8.3568 18.9999 8.57714 18.9999 8.81818C18.9999 9.05922 18.8637 9.27957 18.6481 9.38736L12.2846 12.5692C12.1054 12.6588 11.8946 12.6588 11.7154 12.5692L5.35191 9.38736C5.13632 9.27957 5.00014 9.05922 5.00014 8.81818C5.00014 8.57714 5.13632 8.3568 5.35191 8.249L11.7154 5.06718ZM7.05941 8.81818L12 11.2885L16.9406 8.81818L12 6.34784L7.05941 8.81818ZM5.06732 11.7154C5.22449 11.4011 5.60673 11.2736 5.92108 11.4308L12 14.4703L18.0789 11.4308C18.3933 11.2736 18.7755 11.4011 18.9327 11.7154C19.0899 12.0298 18.9624 12.412 18.6481 12.5692L12.2846 15.751C12.1054 15.8406 11.8946 15.8406 11.7154 15.751L5.35191 12.5692C5.03756 12.412 4.91015 12.0298 5.06732 11.7154ZM5.06732 14.8972C5.22449 14.5829 5.60673 14.4555 5.92108 14.6126L12 17.6522L18.0789 14.6126C18.3933 14.4555 18.7755 14.5829 18.9327 14.8972C19.0899 15.2116 18.9624 15.5938 18.6481 15.751L12.2846 18.9328C12.1054 19.0224 11.8946 19.0224 11.7154 18.9328L5.35191 15.751C5.03756 15.5938 4.91015 15.2116 5.06732 14.8972Z" fill="currentColor" stroke="currentColor" stroke-width="0.5" stroke-linecap="round" stroke-linejoin="round"/>
</g>
<defs>
<clipPath id="clip0_8730_20180">
<rect width="16" height="16" fill="white" transform="translate(4 4)"/>
</clipPath>
</defs>
</svg>
