<svg width="24" height="24" viewBox="0 0 24 24" fill="none" xmlns="http://www.w3.org/2000/svg">
<path fill-rule="evenodd" clip-rule="evenodd" d="M8.99901 19C8.73301 19 8.47901 18.895 8.29201 18.707L2.29301 12.704C1.90201 12.313 1.90201 11.68 2.29301 11.29C2.68401 10.899 3.31601 10.899 3.70701 11.29L8.99901 16.586L20.291 5.29301C20.682 4.90201 21.314 4.90201 21.705 5.29301C22.096 5.68401 22.096 6.31601 21.705 6.70701L9.70601 18.707C9.51901 18.895 9.26501 19 8.99901 19Z" fill="currentColor"/>
<path d="M8.99901 19V19C8.73301 19 8.47901 18.895 8.29201 18.707L2.29301 12.704C1.90201 12.313 1.90201 11.68 2.29301 11.29C2.68401 10.899 3.31601 10.899 3.70701 11.29L8.99901 16.586L20.291 5.29301C20.682 4.90201 21.314 4.90201 21.705 5.29301C22.096 5.68401 22.096 6.31601 21.705 6.70701L9.70601 18.707C9.51901 18.895 9.26501 19 8.99901 19" stroke="currentColor"/>
</svg>
