<svg width="20" height="20" viewBox="0 0 15 15" fill="none" xmlns="http://www.w3.org/2000/svg">
<path d="M15 7.5C15 11.6421 11.6421 15 7.5 15C3.35786 15 0 11.6421 0 7.5C0 3.35786 3.35786 0 7.5 0C11.6421 0 15 3.35786 15 7.5Z" fill="url(#paint0_linear_3421_13636)"/>
<path d="M14 7.5C14 11.0898 11.0898 14 7.5 14C3.91015 14 1 11.0898 1 7.5C1 3.91015 3.91015 1 7.5 1C11.0898 1 14 3.91015 14 7.5Z" stroke="white" stroke-opacity="0.35" stroke-width="2"/>
<path d="M4.875 8.15021L6.51562 9.66536L10.125 6.33203" stroke="white" stroke-width="1.5" stroke-linecap="round" stroke-linejoin="round"/>
<defs>
<linearGradient id="paint0_linear_3421_13636" x1="0" y1="7.5" x2="15" y2="7.5" gradientUnits="userSpaceOnUse">
<stop stop-color="#FFA620"/>
<stop offset="1" stop-color="#EF5B25"/>
</linearGradient>
</defs>
</svg>
