<svg width="16" height="16" viewBox="0 0 16 16" fill="none" xmlns="http://www.w3.org/2000/svg">
<path fill-rule="evenodd" clip-rule="evenodd" d="M5.99917 12.6694C5.82184 12.6694 5.65251 12.5994 5.52784 12.4741L1.52851 8.4721C1.26784 8.21144 1.26784 7.78944 1.52851 7.52944C1.78917 7.26877 2.21051 7.26877 2.47117 7.52944L5.99917 11.0601L13.5272 3.53144C13.7878 3.27077 14.2092 3.27077 14.4698 3.53144C14.7305 3.7921 14.7305 4.21344 14.4698 4.4741L6.47051 12.4741C6.34584 12.5994 6.17651 12.6694 5.99917 12.6694Z" fill="currentColor"/>
<path d="M5.99917 12.6694V12.6694C5.82184 12.6694 5.65251 12.5994 5.52784 12.4741L1.52851 8.4721C1.26784 8.21144 1.26784 7.78944 1.52851 7.52944C1.78917 7.26877 2.21051 7.26877 2.47117 7.52944L5.99917 11.0601L13.5272 3.53144C13.7878 3.27077 14.2092 3.27077 14.4698 3.53144C14.7305 3.7921 14.7305 4.21344 14.4698 4.4741L6.47051 12.4741C6.34584 12.5994 6.17651 12.6694 5.99917 12.6694" stroke="currentColor"/>
</svg>
