<svg width="16" height="16" viewBox="0 0 16 16" fill="none" xmlns="http://www.w3.org/2000/svg">
<path fill-rule="evenodd" clip-rule="evenodd" d="M13.009 8.005C13.009 5.24633 10.7662 3.00217 8.009 3V1C11.7576 1.00211 14.8269 3.9653 15.0012 7.67206V7.64777C15.0072 7.7661 15.0102 7.88521 15.0102 8.005C15.0102 8.12479 15.0072 8.2439 15.0012 8.36223V8.33794C14.8324 11.9275 11.9487 14.8189 8.36229 15H8.36248C8.33347 15.0015 8.30442 15.0027 8.27533 15.0039C8.1857 15.0073 8.09564 15.009 8.00519 15.009M8.009 15V13.009C10.7662 13.0068 13.009 10.7627 13.009 8.005M8.009 15H8.00119V1C4.2526 1.00211 1.18331 3.9653 1.009 7.67206V7.64777C1.00302 7.7661 1 7.88521 1 8.005C1 8.12479 1.00302 8.2439 1.009 8.36223V8.33794C1.17781 11.9275 4.0615 14.8189 7.6479 15H7.64771C7.6752 15.0014 7.70274 15.0026 7.73031 15.0037C7.82145 15.0072 7.91302 15.009 8.005 15.009" fill="#00B460"/>
</svg>
