<svg width="16" height="16" viewBox="0 0 16 16" fill="none" xmlns="http://www.w3.org/2000/svg">
<path fill-rule="evenodd" clip-rule="evenodd" d="M6.01238 10.0059C5.64538 10.0059 5.29238 9.80389 5.11638 9.45289C4.86938 8.95989 5.07038 8.35989 5.56438 8.11089L7.00638 7.38989V5.01489C7.00638 4.46189 7.45338 4.01489 8.00638 4.01489C8.55938 4.01489 9.00638 4.46189 9.00638 5.01489V8.00689C9.00638 8.38589 8.79238 8.73189 8.45338 8.90189L6.45838 9.90089C6.31538 9.97189 6.16238 10.0059 6.01238 10.0059Z" fill="#FF8061"/>
<path fill-rule="evenodd" clip-rule="evenodd" d="M8.004 3C5.245 3 3 5.245 3 8.005C3 10.764 5.245 13.009 8.004 13.009C10.764 13.009 13.009 10.764 13.009 8.005C13.009 5.245 10.764 3 8.004 3ZM8.004 15.009C4.142 15.009 1 11.867 1 8.005C1 4.143 4.142 1 8.004 1C11.866 1 15.009 4.143 15.009 8.005C15.009 11.867 11.866 15.009 8.004 15.009Z" fill="#FF8061"/>
</svg>
