<svg width="16" height="16" viewBox="0 0 16 16" fill="none" xmlns="http://www.w3.org/2000/svg">
<path fill-rule="evenodd" clip-rule="evenodd" d="M6.66667 12.0065C7.03533 12.0065 7.33333 11.7085 7.33333 11.3398V7.3398C7.33333 6.97113 7.03533 6.67313 6.66667 6.67313C6.298 6.67313 6 6.97113 6 7.3398V11.3398C6 11.7085 6.298 12.0065 6.66667 12.0065Z" />
<path fill-rule="evenodd" clip-rule="evenodd" d="M9.33402 12.0065C9.70269 12.0065 10.0007 11.7085 10.0007 11.3398V7.3398C10.0007 6.97113 9.70269 6.67313 9.33402 6.67313C8.96536 6.67313 8.66736 6.97113 8.66736 7.3398V11.3398C8.66736 11.7085 8.96536 12.0065 9.33402 12.0065Z" />
<path fill-rule="evenodd" clip-rule="evenodd" d="M11.0085 13.0339C10.9998 13.2032 10.8365 13.3359 10.6771 13.3345H5.31245C5.15912 13.3172 5.00512 13.2039 4.99645 13.0292L4.56445 5.3332H11.4225L11.0085 13.0339ZM6.66445 3.0772C6.66445 2.85453 6.85312 2.66653 7.07579 2.66653H8.92112C9.14779 2.66653 9.33245 2.8512 9.33245 3.0772V3.99987H6.66445V3.0772ZM13.3331 3.99987H12.1745C12.1705 3.99987 12.1665 3.99653 12.1618 3.99653C12.1538 3.99586 12.1471 3.99987 12.1385 3.99987H10.6658V3.0772C10.6658 2.11587 9.88379 1.3332 8.92112 1.3332H7.07579C6.11379 1.3332 5.33112 2.11587 5.33112 3.0772V3.99987H2.66645C2.29845 3.99987 1.99979 4.29787 1.99979 4.66653C1.99979 5.0352 2.29845 5.3332 2.66645 5.3332H3.22979L3.66512 13.0979C3.70712 13.9712 4.43912 14.6685 5.29179 14.6685C5.30379 14.6685 5.31579 14.6679 5.32779 14.6679H10.6611H10.6991C11.5658 14.6679 12.2985 13.9719 12.3405 13.1025L12.7578 5.3332H13.3331C13.7018 5.3332 13.9998 5.0352 13.9998 4.66653C13.9998 4.29787 13.7018 3.99987 13.3331 3.99987Z" />
</svg>
