<svg width="24" height="24" viewBox="0 0 24 24" fill="none" xmlns="http://www.w3.org/2000/svg">
<path fill-rule="evenodd" clip-rule="evenodd" d="M10 18.0097C10.553 18.0097 11 17.5627 11 17.0097V11.0097C11 10.4567 10.553 10.0097 10 10.0097C9.447 10.0097 9 10.4567 9 11.0097V17.0097C9 17.5627 9.447 18.0097 10 18.0097Z"/>
<path fill-rule="evenodd" clip-rule="evenodd" d="M14.001 18.0097C14.554 18.0097 15.001 17.5627 15.001 17.0097V11.0097C15.001 10.4567 14.554 10.0097 14.001 10.0097C13.448 10.0097 13.001 10.4567 13.001 11.0097V17.0097C13.001 17.5627 13.448 18.0097 14.001 18.0097Z"/>
<path fill-rule="evenodd" clip-rule="evenodd" d="M16.5127 19.5508C16.4997 19.8048 16.2547 20.0038 16.0157 20.0018H7.9687C7.7387 19.9758 7.5077 19.8058 7.4947 19.5438L6.8467 7.9998H17.1337L16.5127 19.5508ZM9.9967 4.6158C9.9967 4.2818 10.2797 3.9998 10.6137 3.9998H13.3817C13.7217 3.9998 13.9987 4.2768 13.9987 4.6158V5.9998H9.9967V4.6158ZM19.9997 5.9998H18.2617C18.2557 5.9998 18.2497 5.9948 18.2427 5.9948C18.2307 5.9938 18.2207 5.9998 18.2077 5.9998H15.9987V4.6158C15.9987 3.1738 14.8257 1.9998 13.3817 1.9998H10.6137C9.1707 1.9998 7.9967 3.1738 7.9967 4.6158V5.9998H3.9997C3.4477 5.9998 2.9997 6.4468 2.9997 6.9998C2.9997 7.5528 3.4477 7.9998 3.9997 7.9998H4.8447L5.4977 19.6468C5.5607 20.9568 6.6587 22.0028 7.9377 22.0028C7.9557 22.0028 7.9737 22.0018 7.9917 22.0018H15.9917H16.0487C17.3487 22.0018 18.4477 20.9578 18.5107 19.6538L19.1367 7.9998H19.9997C20.5527 7.9998 20.9997 7.5528 20.9997 6.9998C20.9997 6.4468 20.5527 5.9998 19.9997 5.9998Z"/>
</svg>
