<svg width="24" height="17" viewBox="0 0 24 17" fill="none" xmlns="http://www.w3.org/2000/svg">
<path  class="illustration-light-fill" d="M20.0961 2.05666C18.1569 0.498264 15.0905 0.234264 14.9609 0.223064C14.7561 0.205464 14.5617 0.321464 14.4776 0.508664C14.4745 0.515064 14.3033 1.01186 14.1377 1.49106C16.3913 1.88546 17.9224 2.76066 18.004 2.80866C18.3864 3.03106 18.5145 3.52146 18.2913 3.90306C18.1433 4.15746 17.8752 4.29986 17.6 4.29986C17.4633 4.29986 17.3257 4.26546 17.1993 4.19186C17.1769 4.17826 14.9305 2.89986 12.0016 2.89986C9.07205 2.89986 6.82485 4.17906 6.80245 4.19186C6.42085 4.41346 5.93125 4.28306 5.70965 3.90066C5.48805 3.51986 5.61685 3.03106 5.99765 2.80866C6.07925 2.76066 7.61605 1.88226 9.87605 1.48866C9.70165 1.00386 9.52565 0.515064 9.52245 0.508664C9.43845 0.320664 9.24405 0.202264 9.03925 0.223064C8.90965 0.233464 5.84325 0.497464 3.87845 2.07746C2.85125 3.02626 0.800049 8.57347 0.800049 13.3695C0.800049 13.4543 0.821649 13.5367 0.864049 13.6103C2.28085 16.0983 6.14325 16.7495 7.02325 16.7775C7.02885 16.7783 7.03365 16.7783 7.03845 16.7783C7.19365 16.7783 7.34005 16.7039 7.43205 16.5783L8.38405 15.2887C6.29605 14.7855 5.19205 13.9943 5.12565 13.9455C4.77045 13.6839 4.69365 13.1831 4.95525 12.8271C5.21605 12.4727 5.71525 12.3943 6.07045 12.6543C6.10005 12.6735 8.13765 14.0999 12 14.0999C15.8777 14.0999 17.9097 12.6679 17.9297 12.6535C18.2849 12.3959 18.7857 12.4735 19.0457 12.8303C19.3048 13.1855 19.2297 13.6831 18.876 13.9439C18.8097 13.9927 17.7113 14.7823 15.628 15.2855L16.568 16.5775C16.66 16.7039 16.8064 16.7775 16.9617 16.7775C16.9673 16.7775 16.9721 16.7775 16.9769 16.7767C17.8577 16.7487 21.7201 16.0975 23.1361 13.6095C23.1785 13.5359 23.2001 13.4535 23.2001 13.3687C23.2001 8.57347 21.1489 3.02626 20.0961 2.05666ZM8.80005 11.6999C7.91605 11.6999 7.20005 10.8047 7.20005 9.69987C7.20005 8.59507 7.91605 7.69986 8.80005 7.69986C9.68405 7.69986 10.4 8.59507 10.4 9.69987C10.4 10.8047 9.68405 11.6999 8.80005 11.6999ZM15.2001 11.6999C14.316 11.6999 13.6 10.8047 13.6 9.69987C13.6 8.59507 14.316 7.69986 15.2001 7.69986C16.0841 7.69986 16.8001 8.59507 16.8001 9.69987C16.8001 10.8047 16.0841 11.6999 15.2001 11.6999Z" fill="#A1A3A7"/>
</svg>
