<svg width="16" height="16" viewBox="0 0 16 16" fill="none" xmlns="http://www.w3.org/2000/svg">
  <path
    fill-rule="evenodd"
    clip-rule="evenodd"
    d="M14.5001 1.28307C14.143 1.02088 13.6734 0.975248 12.9812 1.00727L12.6941 1.0261C11.2552 1.1445 9.77385 1.62709 8.84778 2.48271L8.78539 2.54433L8.72264 2.52815C6.62381 2.11256 4.66553 2.4418 2.9371 3.24143C2.20952 3.57803 1.67909 3.92116 1.37204 4.16918C0.909913 4.54245 0.873177 5.23393 1.29315 5.65407L3.48239 7.84433L3.23809 8.0903L3.14169 8.19539C2.36183 9.12505 3.01796 10.5366 4.2409 11.7609L4.38286 11.8994C5.61975 13.0765 7.0197 13.6546 7.9115 12.7653L8.15639 12.5193L10.3466 14.7094L10.4405 14.7924C10.8638 15.1222 11.485 15.06 11.8317 14.6308C12.0798 14.3236 12.4231 13.793 12.7598 13.0652C13.5594 11.3369 13.8888 9.37893 13.4738 7.28041L13.4592 7.21715L13.4966 7.17923L13.6307 7.02438C14.8574 5.51934 15.378 2.38591 14.7097 1.49089C14.6505 1.41163 14.5799 1.3416 14.5001 1.28307ZM9.57039 11.1043L11.6525 9.02519C11.6631 10.1645 11.401 11.2391 10.9446 12.2254L10.862 12.395L9.57039 11.1043ZM12.989 3.011L12.8395 3.02115C11.8891 3.10408 10.9055 3.40452 10.3525 3.82628L10.2235 3.9342L4.877 9.279L4.89031 9.31166C4.98571 9.52503 5.15262 9.77905 5.3705 10.0372L5.50718 10.1923L5.65511 10.3467C5.96202 10.6533 6.2838 10.898 6.55775 11.0458L6.69046 11.1115L6.722 11.125L12.0541 5.79445C12.4452 5.37012 12.7497 4.60878 12.9039 3.72863C12.9295 3.58233 12.9501 3.43715 12.9655 3.29735L12.9848 3.0922L12.989 3.011ZM3.77685 5.05659L4.05309 4.9349C4.96339 4.55383 5.94466 4.33897 6.97925 4.3491L4.89739 6.43033L3.605 5.139L3.77685 5.05659Z"
    fill="currentColor"
  />
</svg>
