<svg width="16" height="16" viewBox="0 0 16 16" fill="none" xmlns="http://www.w3.org/2000/svg">
<path fill-rule="evenodd" clip-rule="evenodd" d="M11.7285 6.028L10.0079 4.29267L11.6539 2.67934L13.3185 4.35867C13.3225 4.36267 13.3152 4.42667 13.3199 4.43067L11.7285 6.028ZM4.39319 13.3333H2.66652V11.586L9.05652 5.22734L10.7865 6.972L4.39319 13.3333ZM14.6665 4.37134C14.6619 4.00067 14.5145 3.658 14.2652 3.42L12.6125 1.75334C12.3665 1.49067 12.0159 1.338 11.6492 1.33334H11.6312C11.2639 1.33334 10.9079 1.48134 10.6525 1.738L1.52986 10.836C1.40452 10.9607 1.33319 11.1313 1.33319 11.3087V14C1.33319 14.3687 1.63119 14.6667 1.99986 14.6667H4.66852C4.84519 14.6667 5.01386 14.5973 5.13852 14.4727L14.2652 5.37134C14.5252 5.10867 14.6719 4.744 14.6665 4.37134V4.37134Z" />
</svg>
