<svg xmlns="http://www.w3.org/2000/svg" xmlns:xlink="http://www.w3.org/1999/xlink" viewBox="0 0 225 25"><g transform="translate(0 0)" id="ss10265972182_1"><path d="M 0 0 L 25 0 L 25 25 L 0 25 Z" fill="transparent"></path><path d="M 7.348 14.233 C 8.066 14.233 8.768 13.993 9.334 13.555 L 4.778 9 C 3.681 10.421 3.942 12.463 5.362 13.562 C 5.933 13.996 6.631 14.232 7.348 14.234 Z M 20.9 10.98 C 20.9 10.261 20.66 9.56 20.222 8.994 L 15.666 13.55 C 16.646 14.308 17.972 14.442 19.083 13.896 C 20.195 13.35 20.899 12.219 20.899 10.98 Z" fill="black"></path><path d="M 23.195 6.02 L 21.18 8.037 C 22.805 9.982 22.546 12.877 20.602 14.503 C 18.898 15.928 16.418 15.928 14.714 14.503 L 12.5 16.716 L 10.292 14.508 C 8.347 16.133 5.452 15.874 3.826 13.93 C 2.401 12.226 2.401 9.746 3.826 8.042 L 2.792 7.008 L 1.811 6.021 C 0.626 7.974 -0.001 10.215 0 12.499 C 0 19.403 5.596 24.999 12.5 24.999 C 19.404 24.999 25 19.403 25 12.499 C 25.003 10.215 24.379 7.974 23.195 6.021 Z" fill="black"></path><path d="M 21.542 3.872 C 16.782 -1.122 8.872 -1.309 3.879 3.452 C 3.412 3.9 2.978 4.382 2.582 4.894 L 12.5 14.818 L 22.418 4.894 C 22.145 4.537 21.853 4.196 21.542 3.872 Z M 12.5 1.635 C 15.42 1.635 18.142 2.762 20.187 4.818 L 12.5 12.505 L 4.813 4.818 C 6.857 2.762 9.58 1.635 12.5 1.635 Z" fill="black"></path></g><path d="M 60.045 11.728 L 60.137 11.728 C 60.599 17.89 58.752 21.121 50.352 21.121 C 43.614 21.121 39.368 17.913 39.368 11.982 C 39.368 6.005 43.614 3.074 50.26 3.074 C 57.045 3.074 60.16 5.52 60.16 9.213 C 60.16 9.49 60.16 9.674 60.137 9.928 C 59.837 9.928 59.329 9.905 58.822 9.905 C 58.268 9.905 57.76 9.928 57.437 9.928 C 57.437 9.767 57.46 9.558 57.46 9.398 C 57.46 6.767 55.175 5.313 50.237 5.313 C 45.299 5.313 42.16 7.367 42.16 12.028 C 42.16 16.574 45.252 18.905 50.376 18.905 C 55.591 18.905 57.622 17.428 57.552 13.435 C 55.199 13.435 50.883 13.459 48.829 13.482 C 48.852 13.297 48.852 12.928 48.852 12.721 C 48.852 12.328 48.852 11.982 48.829 11.705 C 50.975 11.728 53.145 11.728 54.737 11.728 C 56.099 11.728 58.245 11.751 60.045 11.728 Z M 81.58 20.751 L 78.81 20.751 C 78.857 18.813 78.88 16.321 78.88 13.09 C 78.88 10.228 77.38 8.844 73.526 8.844 C 69.972 8.844 67.087 10.367 67.087 13.621 C 67.087 17.728 67.11 19.482 67.133 20.751 L 64.387 20.751 C 64.457 18.928 64.457 17.128 64.457 14.151 C 64.457 11.128 64.434 8.89 64.387 7.021 L 67.157 7.021 C 67.137 8.052 67.106 9.083 67.064 10.113 L 67.203 10.159 C 68.333 7.874 70.849 6.744 74.564 6.744 C 79.134 6.744 81.557 8.59 81.557 12.536 C 81.557 14.451 81.51 15.328 81.51 16.574 C 81.51 18.005 81.51 19.39 81.58 20.751 Z M 100.718 13.805 C 100.718 10.297 97.995 8.659 94.072 8.659 C 90.172 8.659 87.426 10.274 87.426 13.805 C 87.426 17.335 90.126 19.113 94.072 19.113 C 98.042 19.113 100.718 17.313 100.718 13.805 Z M 103.257 13.759 C 103.257 18.651 99.518 21.189 94.072 21.189 C 88.626 21.189 84.934 18.629 84.934 13.759 C 84.934 8.867 88.764 6.605 94.072 6.605 C 99.38 6.605 103.257 8.867 103.257 13.759 Z M 114.669 19.182 C 118.939 19.182 120.439 18.49 120.439 16.944 C 120.439 15.559 119.423 14.867 114.046 14.636 C 107.908 14.382 106.362 13.021 106.362 10.597 C 106.362 7.967 108.623 6.605 114.323 6.605 C 119.839 6.605 122.308 7.759 122.308 10.897 C 122.308 11.174 122.308 11.382 122.285 11.682 C 122.008 11.682 121.546 11.659 121.108 11.659 C 120.646 11.659 120.185 11.682 119.954 11.682 C 119.977 11.474 119.977 11.22 119.977 11.059 C 119.977 9.259 118.616 8.497 114.3 8.497 C 110.216 8.497 108.762 9.236 108.762 10.62 C 108.762 11.959 109.685 12.605 115.108 12.859 C 121.223 13.159 122.816 14.289 122.816 16.944 C 122.816 19.736 120.485 21.121 114.623 21.121 C 108.6 21.121 106.039 19.782 106.039 16.69 C 106.039 16.459 106.062 16.228 106.062 15.974 C 106.385 15.997 106.777 16.02 107.239 16.02 C 107.677 16.02 108.139 16.02 108.416 15.974 C 108.393 16.159 108.393 16.367 108.393 16.482 C 108.393 18.512 110.239 19.182 114.669 19.182 Z M 130.159 4.228 C 130.159 4.874 129.813 5.382 128.313 5.382 C 126.836 5.382 126.49 4.874 126.49 4.228 C 126.49 3.558 126.859 3.12 128.313 3.12 C 129.767 3.12 130.159 3.559 130.159 4.228 Z M 129.652 20.751 L 126.952 20.751 C 127.021 18.351 127.021 16.551 127.021 13.667 C 127.021 10.944 126.998 9.305 126.952 7.02 L 129.652 7.02 C 129.559 9.305 129.583 10.897 129.583 13.736 C 129.583 16.713 129.559 18.351 129.652 20.751 Z M 142.501 19.182 C 146.771 19.182 148.271 18.49 148.271 16.944 C 148.271 15.559 147.255 14.867 141.878 14.636 C 135.74 14.382 134.194 13.021 134.194 10.597 C 134.194 7.967 136.455 6.605 142.155 6.605 C 147.671 6.605 150.14 7.759 150.14 10.897 C 150.14 11.174 150.14 11.382 150.117 11.682 C 149.84 11.682 149.378 11.659 148.94 11.659 C 148.478 11.659 148.017 11.682 147.786 11.682 C 147.809 11.474 147.809 11.22 147.809 11.059 C 147.809 9.259 146.448 8.497 142.132 8.497 C 138.048 8.497 136.594 9.236 136.594 10.62 C 136.594 11.959 137.517 12.605 142.94 12.859 C 149.055 13.159 150.648 14.289 150.648 16.944 C 150.648 19.736 148.317 21.121 142.455 21.121 C 136.432 21.121 133.871 19.782 133.871 16.69 C 133.871 16.459 133.894 16.228 133.894 15.974 C 134.217 15.997 134.609 16.02 135.071 16.02 C 135.509 16.02 135.971 16.02 136.248 15.974 C 136.225 16.159 136.225 16.367 136.225 16.482 C 136.225 18.512 138.071 19.182 142.501 19.182 Z M 174.577 13.459 C 178.593 13.459 180.208 12.444 180.208 9.582 C 180.208 6.652 178.546 5.612 174.739 5.612 C 173.239 5.612 169.246 5.636 167.516 5.682 C 167.516 8.382 167.493 11.036 167.516 13.412 C 168.623 13.412 171.6 13.459 174.577 13.459 Z M 164.7 3.444 L 175.223 3.444 C 180.116 3.444 182.908 4.967 182.908 9.536 C 182.908 13.944 180.116 15.651 175.131 15.651 C 172.639 15.651 171.162 15.651 167.516 15.582 C 167.539 17.612 167.585 19.39 167.677 20.752 L 164.7 20.752 C 164.769 18.259 164.793 15.79 164.793 12.097 C 164.793 8.428 164.769 5.797 164.7 3.444 Z M 199.987 15.351 L 199.987 14.751 C 197.933 14.529 195.868 14.422 193.802 14.428 C 190.04 14.428 188.517 15.19 188.517 16.828 C 188.517 18.398 189.764 19.228 193.202 19.228 C 197.84 19.228 199.987 17.498 199.987 15.351 Z M 200.056 17.843 L 199.917 17.82 C 198.994 19.874 196.364 21.074 192.325 21.074 C 188.033 21.074 185.979 19.851 185.979 17.128 C 185.979 14.405 188.217 13.136 193.456 13.136 C 196.271 13.136 198.556 13.32 200.01 13.597 C 200.033 13.09 200.033 12.605 200.033 12.213 C 200.033 9.997 198.902 8.613 194.54 8.613 C 190.41 8.613 189.002 9.79 189.071 12.051 C 188.748 12.028 188.333 12.028 187.871 12.028 C 187.41 12.028 186.948 12.028 186.602 12.074 C 186.556 8.567 188.887 6.697 194.564 6.697 C 200.725 6.697 202.64 8.913 202.64 12.074 C 202.64 13.644 202.571 14.936 202.571 16.62 C 202.571 18.259 202.664 19.967 202.894 20.751 L 200.725 20.751 C 200.171 20.751 200.01 20.636 200.01 19.967 C 200.01 19.344 200.033 18.582 200.056 17.844 Z M 221.359 7.02 L 224.428 7.02 C 222.536 10.09 218.936 16.736 216.974 19.643 C 214.69 23.197 213.282 24.49 209.82 24.49 C 208.02 24.49 206.567 24.028 205.205 23.336 C 205.39 22.897 205.828 21.606 205.92 21.097 C 207.144 21.859 208.413 22.32 210.028 22.32 C 211.805 22.32 212.913 21.79 214.113 19.874 L 214.182 19.736 C 213.72 19.736 213.282 19.736 212.936 19.759 C 211.251 17.174 207.397 10.413 205.182 7.02 L 208.39 7.02 C 208.92 8.174 211.367 11.936 212.728 14.474 C 213.464 15.809 214.165 17.163 214.828 18.536 L 214.99 18.536 C 215.52 17.59 216.213 16.274 217.251 14.359 C 218.613 11.844 220.597 8.567 221.359 7.02 Z" fill="black"></path></svg>