<svg width="15" height="12" viewBox="0 0 15 12" fill="none" xmlns="http://www.w3.org/2000/svg">
    <path d="M14.3165 0.414781C14.3744 0.0883544 14.3743 0.088337 14.3742 0.0883176L14.6311 0.12657L14.6728 0.361961C14.6728 0.361842 14.6728 0.361735 14.3165 0.414781Z" fill="#121312"/>
    <path fill-rule="evenodd" clip-rule="evenodd" d="M0.0963827 0.3622L0.45267 0.415015C0.0967033 0.362015 0.0964041 0.36208 0.0963827 0.3622L0.138133 0.126809L0.395048 0.0885564C0.394918 0.0885759 0.394823 0.0888718 0.45267 0.415015L0.395048 0.0885564L0.396311 0.0883701L0.399202 0.0879494L0.409062 0.0865481L0.444652 0.0817412C0.475258 0.0777361 0.519422 0.0722459 0.575763 0.0659926C0.688403 0.0534907 0.849969 0.0379099 1.04938 0.0250551C1.44756 -0.000612232 2.00004 -0.0156369 2.6172 0.0274008C3.83698 0.112463 5.37906 0.429102 6.44866 1.40909C6.85842 1.78452 7.16125 2.22302 7.38423 2.68218C7.60723 2.22299 7.91009 1.78445 8.31988 1.409C9.3896 0.428903 10.9318 0.112227 12.1518 0.0271553C12.769 -0.0158874 13.3215 -0.000860966 13.7198 0.0248093C13.9192 0.0376655 14.0808 0.0532481 14.1934 0.0657515C14.2498 0.0720055 14.294 0.0774962 14.3246 0.0815018L14.3602 0.0863092L14.37 0.0877106L14.3729 0.0881314L14.3742 0.0883176L14.3165 0.414781L14.6728 0.361961L14.673 0.363118L14.6735 0.365767L14.675 0.374802L14.6803 0.407413C14.6846 0.435458 14.6906 0.475927 14.6975 0.527553C14.7111 0.630768 14.7281 0.778815 14.7422 0.961544C14.7702 1.3264 14.7866 1.83266 14.7396 2.39817C14.6467 3.51589 14.3011 4.92893 13.2314 5.90902C12.4157 6.65635 11.3268 7.01629 10.3246 7.18328C9.51838 7.31762 8.74554 7.3309 8.16986 7.31017V11.2494C8.16986 11.6639 7.80306 12 7.35058 12C6.89811 12 6.53131 11.6639 6.53131 11.2494V7.31187C5.94958 7.32958 5.182 7.31107 4.38555 7.1728C3.40028 7.00173 2.33759 6.64154 1.53767 5.90864C0.468068 4.92865 0.122475 3.51577 0.029635 2.39818C-0.0173382 1.83273 -0.000939562 1.32653 0.0270749 0.961715C0.041105 0.779007 0.0581106 0.630977 0.0717557 0.527774C0.0785809 0.476153 0.084573 0.435689 0.0889444 0.407647L0.0941909 0.375039L0.0957203 0.366005L0.0961795 0.363357L0.0963827 0.3622ZM12.2761 1.52409C12.5829 1.5027 12.8727 1.49834 13.1289 1.5029C13.1339 1.73763 13.1291 2.0032 13.1058 2.28424C13.023 3.28119 12.7252 4.24968 12.0728 4.84746C11.4203 5.44525 10.3633 5.71804 9.27516 5.79392C8.96842 5.81532 8.67856 5.81968 8.42237 5.81512C8.41739 5.58039 8.42216 5.31482 8.4455 5.03378C8.52832 4.03682 8.82606 3.06834 9.47851 2.47055C10.131 1.87277 11.188 1.59997 12.2761 1.52409ZM1.66345 2.28425C1.64012 2.0033 1.63535 1.73781 1.64032 1.50315C1.89644 1.49859 2.18621 1.50295 2.49285 1.52434C3.58082 1.60021 4.6377 1.87297 5.29003 2.47064C5.94236 3.06832 6.24006 4.03665 6.32287 5.03348C6.34621 5.31443 6.35097 5.57992 6.346 5.81458C6.08988 5.81914 5.80011 5.81477 5.49347 5.79339C4.4055 5.71752 3.34862 5.44476 2.69629 4.84708C2.04396 4.2494 1.74626 3.28107 1.66345 2.28425Z" fill="#121312"/>
</svg>
