<svg width="403" height="139" viewBox="0 0 403 139" fill="none" xmlns="http://www.w3.org/2000/svg">
<path d="M267.306 38.501H247.13C245.102 38.501 243.462 40.1322 243.462 42.1507V133.391C243.462 135.41 245.102 137.041 247.13 137.041H267.306C269.334 137.041 270.973 135.41 270.973 133.391V42.1507C270.973 40.1322 269.334 38.501 267.306 38.501Z" fill="#202020"/>
<path d="M320.494 62.0024V133.391C320.494 135.41 322.134 137.041 324.162 137.041H344.337C346.365 137.041 348.005 135.41 348.005 133.391V72.0942C348.005 68.652 350.798 65.8732 354.258 65.8732H369.237C372.696 65.8732 375.488 68.652 375.488 72.0942V133.391C375.488 135.41 377.129 137.041 379.157 137.041H399.331C401.361 137.041 403 135.41 403 133.391V62.0024C403 49.0213 392.427 38.501 379.379 38.501H344.115C331.067 38.501 320.494 49.0213 320.494 62.0024Z" fill="#202020"/>
<path d="M257.217 0C248.866 0 242.086 6.74628 242.086 15.0548C242.086 23.3631 248.866 30.1094 257.217 30.1094C265.568 30.1094 272.349 23.3631 272.349 15.0548C272.349 6.74628 265.582 0 257.217 0Z" fill="#202020"/>
<path d="M305.821 5.65381H285.645C283.617 5.65381 281.978 7.28508 281.978 9.30344V133.391C281.978 135.409 283.617 137.041 285.645 137.041H305.821C307.849 137.041 309.489 135.409 309.489 133.391V9.30344C309.489 7.28508 307.849 5.65381 305.821 5.65381Z" fill="#202020"/>
<path d="M237.348 131.359L209.434 89.7059C208.641 88.5308 208.614 86.9963 209.35 85.7798L234.958 44.0441C236.459 41.6111 234.694 38.4868 231.833 38.4868H210.142C208.864 38.4868 207.683 39.1502 207.016 40.2286L190.384 67.3243C189.676 68.4718 188.425 69.2736 186.967 69.2736C184.743 69.2736 182.937 67.4763 182.937 65.2645V13.4232C182.937 11.4048 181.298 9.77356 179.268 9.77356H159.094C157.065 9.77356 155.425 11.4048 155.425 13.4232V133.391C155.425 135.409 157.065 137.041 159.094 137.041H179.268C181.298 137.041 182.937 135.409 182.937 133.391V108.604C182.937 106.392 184.743 104.595 186.967 104.595C188.356 104.595 189.565 105.286 190.301 106.35L209.782 135.423C210.461 136.432 211.602 137.054 212.838 137.054H234.306C237.237 137.054 238.987 133.806 237.362 131.386" fill="#202020"/>
<path d="M61.0667 45.316C61.8031 44.5694 62.8173 44.1132 63.9429 44.1132C65.0683 44.1132 66.0687 44.5556 66.7913 45.2883L84.6598 63.0664C86.1048 64.5041 88.453 64.5041 89.898 63.0664L104.112 48.9241C105.557 47.4864 105.557 45.1501 104.112 43.7124L74.336 14.0453C68.6114 8.34966 59.3159 8.34966 53.5913 14.0453L23.7735 43.7124C22.3284 45.1501 22.3284 47.4864 23.7735 48.9241L37.9877 63.0664C39.4327 64.5041 41.7808 64.5041 43.226 63.0664L61.0667 45.316Z" fill="#FF6521"/>
<path d="M123.607 63.0802L117.146 56.6519C115.701 55.2142 113.352 55.2142 111.907 56.6519L66.7915 101.54C66.0689 102.258 65.0547 102.715 63.9431 102.715C62.8315 102.715 61.8311 102.272 61.0947 101.553L15.9927 56.6519C14.5476 55.2142 12.1995 55.2142 10.7544 56.6519L4.29344 63.0802C-1.43115 68.7758 -1.43115 78.0243 4.29344 83.72L53.5776 132.755C59.3023 138.451 68.5977 138.451 74.3223 132.755L123.607 83.72C129.331 78.0243 129.331 68.7758 123.607 63.0802Z" fill="#202020"/>
</svg>
