<svg width="40" height="40" viewBox="0 0 40 40" fill="none" xmlns="http://www.w3.org/2000/svg">
<path d="M36.7116 9.5326C34.736 6.43903 31.9501 3.9569 28.6553 2.35477L27.226 5.29417C32.9754 8.08997 36.5469 13.7955 36.5469 20.1845C36.5469 29.3085 29.1239 36.7313 20 36.7313C10.8761 36.7313 3.45311 29.3085 3.45311 20.1846C3.45311 14.7537 6.1659 9.6774 10.5395 6.61237L16.31 12.4107V0H3.95876L8.20274 4.26436C6.28945 5.68334 4.63665 7.43997 3.33196 9.46472C1.273 12.6603 0.18457 16.367 0.18457 20.1846C0.18457 31.1109 9.0737 40 20 40C30.9263 40 39.8154 31.1109 39.8154 20.1846C39.8154 16.3956 38.7421 12.7122 36.7116 9.5326Z"/>
</svg>
