<svg viewBox="0 0 120 15" fill="none" xmlns="http://www.w3.org/2000/svg" width="130px" height="24px">
    <path d="M113.66.001c-3.979 0-6.344 2.828-6.344 6.262 0 3.433 2.365 6.262 6.344 6.262 3.98 0 6.34-2.81 6.34-6.262C120 2.81 117.636 0 113.66 0zm0 11.03c-2.848 0-4.627-2.06-4.627-4.768 0-2.708 1.779-4.768 4.627-4.768s4.624 2.083 4.624 4.768c0 2.684-1.779 4.767-4.624 4.767zM57.424 1.495c2.22 0 3.797 1.537 3.898 3.133h1.658C62.878 2.303 60.858 0 57.506 0c-4.061 0-6.363 2.848-6.363 6.281 0 3.375 2.18 6.243 6.464 6.243 2.564 0 4.444-1.174 5.373-2.325l-1.092-.981a6.07 6.07 0 01-4.28 1.818c-3.212 0-4.73-2.103-4.73-4.748 0-2.828 1.76-4.787 4.546-4.787M75.863.406v5.069c0 3.616-2.161 5.559-4.578 5.559-1.998 0-3.09-1.436-3.09-3.84V.407h-3.923V1.82h2.262v5.778c0 2.867 1.635 4.928 4.624 4.928 2.325 0 3.898-1.194 4.686-2.891v2.485h1.658V.406h-1.639zM105.242.406l-4.251 10.039L96.649.406h-3.24V1.82h2.06l4.623 10.725c-.687 1.678-1.795 2.708-3.188 2.708a2.849 2.849 0 01-1.374-.285v1.514a4.44 4.44 0 001.616.265c1.998 0 3.371-1.174 4.319-3.355L107.024.406h-1.782zM85.283 2.525V.407h-4.97v1.412h3.312v8.888h-3.313v1.412h9.01v-1.412h-4.04V5.213c.328-1.92 2.018-3.695 4.101-3.695a5.176 5.176 0 012.158.383V.407A3.78 3.78 0 0089.746 0a5.232 5.232 0 00-4.463 2.524zM43.71 2.525V.406h-4.974V1.82h3.313v8.888h-3.313v1.412h9.009v-1.412H43.71V5.213c.304-1.92 2.02-3.695 4.12-3.695a5.157 5.157 0 012.142.383V.406a3.885 3.885 0 00-1.818-.405 5.278 5.278 0 00-4.444 2.524zM21.045 10.707V4.77c0-2.685-1.717-4.768-4.3-4.768-2.583 0-3.819 1.635-4.404 2.943A4.21 4.21 0 008.263.001C5.974.001 4.768 1.336 4.12 2.55V.407H0V1.82h2.466v10.3H4.12V5.233C4.284 3.88 5.428 1.52 7.96 1.52c1.838 0 2.982 1.03 2.982 3.734v6.867h1.655V5.17c.222-1.308 1.308-3.652 3.819-3.652 1.857 0 2.97 1.03 2.97 3.734v6.867h3.534v-1.413h-1.874zM36.774 6.263C36.774 2.81 34.51 0 30.614 0c-3.898 0-6.243 2.848-6.243 6.281 0 3.516 2.263 6.243 6.465 6.243 2.616 0 4.483-1.272 5.232-2.263l-1.09-.981c-1.01 1.092-2.403 1.74-4.25 1.74-2.616 0-4.385-1.74-4.578-4.222H36.75a5.19 5.19 0 00.023-.536zm-10.604-.87c.326-2.289 2.04-3.898 4.443-3.898a4.293 4.293 0 014.428 3.898H26.17z" fill="currentColor" />
</svg>