<svg xmlns:xlink="http://www.w3.org/1999/xlink" width="24" height="24" xmlns="http://www.w3.org/2000/svg" viewBox="0 0 600 600" fill="none"><path d="M563.1 265.2c-43.5 0-85.2-17.3-116-48.1-30.8-30.8-48.1-72.5-48.1-116h-28.5c0 23.3-5 46-14.4 66.9-20.8-23.9-43.1-44-65.8-59C246 79.7 205 73.1 175 90.4c-16 9.3-27.7 24.7-34.6 45.1-21.4 1.4-39.2 8.7-52.2 21.7-24.5 24.5-28.7 65.8-11.9 116.2 16.2 48.6 50.3 100.7 96 146.4s97.7 79.8 146.4 96c17.9 6.4 36.8 9.8 55.8 10.2 25.4 0 45.7-7.4 60.3-22l.9-.9-.2-.2c19.5-20.6 28.7-54.1 26.1-97-1.3-21.1-5.3-43.5-11.9-66.5 30.5-29.1 71-45.5 113.3-45.6v-28.6zM182.1 103c25-14.4 60.6-8 100.1 18.1 23.1 15.3 45.8 36.1 66.8 61.1-7 12.3-15.6 23.7-25.7 34-38.5-33-79.8-57.7-119-70.7-15.7-5.4-32-8.7-48.6-9.8 5.8-14.9 14.7-26 26.4-32.7zm.5 306.5c-44.1-44.1-77-94.1-92.6-140.7-15-44.9-12-80.9 8.4-101.3 9.5-9.5 22.4-15.2 38-17.1-3.2 16.2-4.2 32.7-3 49.1 3.1 51.2 22.6 110.3 54.9 166.3 31 53.7 70.3 98.5 111.2 127-39.4-17.7-80.2-46.6-116.9-83.3zm230.3 92.9c-25 14.4-60.6 8-100.1-18.1-40.9-27.1-80.8-71.8-112-125.8-31.2-54.1-50-110.9-53-159.9-1.3-16.4-.1-32.9 3.5-49 16.5.7 32.8 3.8 48.4 9.3 37.1 12.3 76.3 35.7 112.9 66.9-29.6 25.2-67.2 39.3-106.4 39.3v28.6c43.5.1 85.2 17.4 116 48.2 30.8 30.8 48.1 72.5 48.2 116H399c.1-39 14-76.6 39.1-106.1 4.9 19 8 37.4 9 54.9 3.1 47.3-9.2 81.3-34.2 95.7z" fill="currentColor"></path></svg>