<svg xmlns:xlink="http://www.w3.org/1999/xlink" width="24" height="24" viewBox="0 0 36 36" fill="none" xmlns="http://www.w3.org/2000/svg"><path d="M26.498 7.22c-.008.004-.06.016-.125.027-.569.099-.97.31-1.417.75a2.649 2.649 0 00-.716 1.455c-.026.23-.023.674.011.852.016.072.03.148.034.17a.37.37 0 00.027.076c.015.02.053.129.09.239.088.269.383.704.641.943a2.74 2.74 0 001.41.686c.295.045.893.015.995-.05a.838.838 0 01.137-.034c.166-.03.58-.238.81-.412.197-.148.497-.432.497-.474a.29.29 0 01.072-.098c.17-.19.39-.709.454-1.084.034-.208.03-.826-.011-.966-.012-.041-.034-.136-.053-.208-.08-.315-.33-.758-.606-1.065-.303-.34-.894-.67-1.387-.772-.246-.05-.826-.076-.863-.034zM15.812 9.759c-.003.003-.212.015-.462.03a9.59 9.59 0 00-.55.038 4.463 4.463 0 01-.245.038 9.768 9.768 0 00-2.254.61c-.591.238-1.56.765-1.894 1.03l-.322.242a9.862 9.862 0 00-2.428 2.709c-.205.348-.621 1.159-.621 1.208 0 .015-.023.08-.053.144-.061.14-.216.557-.228.614a.244.244 0 01-.03.075.904.904 0 00-.05.17 1.003 1.003 0 01-.048.171.273.273 0 00-.03.114c-.005.041-.054.261-.103.492-.16.686-.193 1.046-.193 2.008 0 .773.041 1.223.17 1.894.091.458.288 1.155.349 1.227.026.03.038.06.03.068-.03.034.22.64.477 1.148a9.168 9.168 0 001.792 2.462c.428.428.652.625.962.852.087.061.163.122.174.133.027.038.576.402.735.492l.27.152c.196.11.526.28.552.284.012 0 .095.038.19.083.572.277 1.708.625 2.325.709.084.011.194.03.247.041.485.099 2.159.103 2.67.004.042-.007.17-.026.284-.041.114-.016.235-.035.265-.042l.322-.076c.614-.14.951-.246 1.591-.511.065-.027.122-.05.133-.053.08-.023.614-.296.909-.466a9.675 9.675 0 002.886-2.527c.216-.276.523-.735.523-.776 0-.02.015-.038.034-.046.072-.026.678-1.254.818-1.659a.614.614 0 01.03-.076c.05-.136.217-.67.228-.738a.269.269 0 01.034-.114c.034-.057.182-.81.243-1.223.034-.25.064-.86.064-1.277 0-1.159-.19-2.19-.621-3.39-.118-.315-.618-1.364-.675-1.402a.248.248 0 01-.053-.087c-.022-.06-.413-.663-.507-.784-.447-.564-.621-.765-.977-1.117a10.402 10.402 0 00-.584-.55 5.453 5.453 0 01-.284-.238.532.532 0 00-.144-.102c-.011 0-.05-.023-.08-.053-.06-.065-.72-.497-.973-.64-.284-.163-1.106-.557-1.159-.557a.711.711 0 01-.14-.053 7.82 7.82 0 00-.67-.235l-.341-.091a8.266 8.266 0 00-.36-.091c-.811-.152-.841-.155-1.364-.193-.3-.027-.849-.046-.864-.034z" fill="currentColor"></path></svg>