<svg fill="none" xmlns="http://www.w3.org/2000/svg" viewBox="100.27 100.27 2016.73 367.54" width="100" height="24">
    <path d="M1980.84 402.236L1905.21 228.514H1955.85L2007.5 353.104L2067.2 228.514H2117L1999.28 467.801H1948.64L1980.84 402.236ZM1796.69 366.268C1801.16 365.25 1805.47 363.643 1809.51 361.488C1813.42 359.407 1817.06 356.844 1820.33 353.859C1823.6 350.866 1826.42 347.422 1828.71 343.63C1831.12 339.647 1832.98 335.361 1834.25 330.886C1835.62 326.003 1836.3 320.951 1836.26 315.878C1836.31 310.75 1835.63 305.641 1834.25 300.703C1832.98 296.228 1831.12 291.942 1828.71 287.959C1826.41 284.152 1823.59 280.681 1820.33 277.646C1817.1 274.635 1813.46 272.094 1809.51 270.1C1805.44 268.05 1801.13 266.502 1796.69 265.489C1792.01 264.417 1787.23 263.883 1782.43 263.896C1777.66 263.88 1772.91 264.414 1768.26 265.489C1763.87 266.502 1759.62 268.051 1755.6 270.1C1751.68 272.121 1748.04 274.659 1744.79 277.646C1741.49 280.664 1738.64 284.137 1736.32 287.959C1733.92 291.933 1732.09 296.223 1730.87 300.703C1729.54 305.651 1728.9 310.756 1728.94 315.878C1728.9 320.945 1729.55 325.994 1730.87 330.886C1732.09 335.366 1733.92 339.655 1736.32 343.63C1738.62 347.437 1741.48 350.883 1744.79 353.859C1748.08 356.82 1751.71 359.381 1755.6 361.488C1759.59 363.642 1763.85 365.249 1768.26 366.268C1772.91 367.345 1777.66 367.879 1782.43 367.861C1787.23 367.876 1792.01 367.341 1796.69 366.268ZM1745.63 405.171C1737.86 403.195 1730.39 400.207 1723.41 396.283C1709.8 388.633 1698.58 377.376 1690.96 363.753C1687.04 356.709 1684.05 349.184 1682.07 341.367C1677.94 324.57 1677.94 307.02 1682.07 290.223C1684.04 282.43 1687.03 274.931 1690.96 267.921C1698.61 254.346 1709.83 243.124 1723.41 235.474C1730.39 231.551 1737.86 228.563 1745.63 226.586C1753.93 224.481 1762.46 223.438 1771.03 223.484C1775.65 223.474 1780.27 223.754 1784.86 224.323C1789.09 224.845 1793.26 225.686 1797.36 226.838C1801.15 227.915 1804.88 229.231 1808.51 230.778C1811.91 232.224 1815.19 233.934 1818.32 235.893C1821.26 237.737 1824.01 239.871 1826.53 242.265C1828.89 244.502 1831.08 246.912 1833.07 249.475V228.514H1881.2V403.242H1833.07V382.282C1830 386.142 1826.48 389.631 1822.59 392.678C1818.3 396.051 1813.59 398.868 1808.59 401.062C1803.03 403.505 1797.21 405.306 1791.24 406.428C1784.57 407.689 1777.81 408.307 1771.03 408.273C1762.46 408.319 1753.93 407.276 1745.63 405.171ZM1570.91 272.783C1577.8 272.91 1584.68 272.12 1591.37 270.436C1596.58 269.119 1601.44 266.688 1605.62 263.309C1609.39 260.162 1612.28 256.088 1614.01 251.487C1615.88 246.274 1616.79 240.762 1616.69 235.222C1616.8 229.709 1615.89 224.223 1614.01 219.04C1612.28 214.489 1609.39 210.47 1605.62 207.386C1601.42 204.057 1596.56 201.657 1591.37 200.343C1584.68 198.661 1577.8 197.871 1570.91 197.996H1523.62V272.783L1570.91 272.783ZM1473.82 156.745H1575.61C1591.59 156.745 1605.45 158.701 1617.19 162.614C1628.93 166.527 1638.6 171.949 1646.2 178.88C1653.76 185.752 1659.59 194.312 1663.22 203.865C1667.03 213.935 1668.93 224.624 1668.84 235.389C1668.96 246.13 1667.05 256.796 1663.22 266.83C1659.53 276.303 1653.71 284.797 1646.2 291.648C1638.6 298.636 1628.93 304.086 1617.19 307.997C1605.45 311.913 1591.59 313.869 1575.61 313.866H1523.62V403.242H1473.82V156.745ZM1259.97 228.514H1307.76V249.475C1310.7 245.407 1314.2 241.767 1318.15 238.659C1322.33 235.381 1326.89 232.622 1331.73 230.443C1337.07 228.056 1342.67 226.311 1348.42 225.245C1354.8 224.044 1361.29 223.454 1367.79 223.484C1377.9 223.339 1387.96 225.044 1397.47 228.514C1405.93 231.634 1413.61 236.587 1419.94 243.019C1426.3 249.685 1431.11 257.672 1434.02 266.411C1437.39 276.46 1439.03 287.005 1438.89 297.601V403.242H1391.1V310.009C1391.21 303.194 1390.25 296.403 1388.24 289.887C1386.59 284.508 1383.82 279.537 1380.11 275.299C1376.55 271.361 1372.09 268.341 1367.12 266.495C1361.47 264.454 1355.51 263.46 1349.51 263.561C1343.48 263.465 1337.49 264.459 1331.82 266.495C1326.81 268.325 1322.32 271.347 1318.74 275.299C1315.04 279.537 1312.26 284.508 1310.61 289.887C1308.6 296.403 1307.64 303.194 1307.76 310.009V403.242H1259.97V228.514ZM1142.36 365.765C1146.93 364.662 1151.34 363.03 1155.53 360.901C1159.51 358.867 1163.15 356.237 1166.34 353.104C1169.5 350.012 1172.24 346.516 1174.48 342.708C1176.76 338.785 1178.46 334.547 1179.51 330.131C1180.65 325.353 1181.21 320.455 1181.18 315.543C1181.21 310.658 1180.65 305.787 1179.51 301.038C1177.39 292.284 1172.83 284.315 1166.34 278.065C1163.11 274.959 1159.47 272.307 1155.53 270.184C1151.38 267.958 1146.95 266.294 1142.36 265.237C1137.39 264.094 1132.29 263.532 1127.19 263.56C1122.14 263.537 1117.1 264.1 1112.18 265.237C1107.62 266.284 1103.22 267.949 1099.1 270.184C1095.19 272.322 1091.58 274.973 1088.37 278.065C1085.21 281.11 1082.52 284.615 1080.4 288.461C1078.24 292.413 1076.55 296.606 1075.37 300.954C1074.11 305.712 1073.49 310.619 1073.53 315.543C1073.5 320.466 1074.12 325.371 1075.37 330.132C1076.52 334.517 1078.21 338.741 1080.4 342.708C1082.55 346.537 1085.23 350.038 1088.37 353.104C1091.54 356.224 1095.16 358.852 1099.1 360.902C1103.25 363.04 1107.64 364.672 1112.18 365.765C1117.09 366.958 1122.13 367.549 1127.19 367.526C1132.3 367.556 1137.4 366.964 1142.36 365.765ZM1099.02 405.087C1090.39 403.08 1082.04 400.069 1074.12 396.115C1066.67 392.401 1059.75 387.691 1053.57 382.114C1047.58 376.695 1042.39 370.457 1038.15 363.585C1033.85 356.589 1030.54 349.026 1028.34 341.115C1023.75 324.375 1023.75 306.711 1028.34 289.971C1030.53 282.083 1033.84 274.546 1038.15 267.585C1042.42 260.735 1047.61 254.501 1053.57 249.056C1059.74 243.435 1066.65 238.695 1074.12 234.971C1082.04 231.019 1090.39 228.008 1099.02 226C1117.67 221.751 1137.04 221.751 1155.69 226C1164.27 227.99 1172.57 231.002 1180.43 234.971C1187.86 238.75 1194.77 243.485 1200.97 249.056C1207.02 254.481 1212.3 260.716 1216.65 267.585C1221.01 274.532 1224.34 282.072 1226.54 289.971C1231.13 306.711 1231.13 324.375 1226.54 341.115C1224.33 349.038 1221 356.604 1216.65 363.585C1212.33 370.476 1207.05 376.715 1200.97 382.114C1194.75 387.64 1187.85 392.346 1180.43 396.115C1172.6 400.077 1164.32 403.089 1155.78 405.087C1137.1 409.335 1117.7 409.335 1099.02 405.087ZM912.532 365.765C917.094 364.662 921.512 363.03 925.695 360.901C929.676 358.867 933.323 356.237 936.511 353.104C939.668 350.012 942.403 346.516 944.644 342.708C946.93 338.786 948.625 334.548 949.674 330.131C950.815 325.353 951.378 320.455 951.351 315.543C951.381 310.658 950.818 305.787 949.674 301.038C947.56 292.284 942.994 284.315 936.511 278.065C933.28 274.959 929.642 272.307 925.695 270.184C921.547 267.958 917.12 266.294 912.532 265.237C907.555 264.094 902.463 263.532 897.357 263.56C892.306 263.538 887.27 264.1 882.349 265.237C877.785 266.284 873.384 267.949 869.269 270.184C865.358 272.323 861.749 274.973 858.537 278.065C855.375 281.11 852.689 284.615 850.572 288.461C848.411 292.414 846.723 296.607 845.542 300.954C844.275 305.712 843.655 310.619 843.697 315.543C843.669 320.465 844.289 325.37 845.542 330.131C846.691 334.516 848.381 338.74 850.572 342.708C852.716 346.537 855.398 350.038 858.537 353.104C861.707 356.223 865.324 358.851 869.269 360.901C873.419 363.039 877.81 364.672 882.349 365.765C887.262 366.958 892.301 367.549 897.357 367.525C902.468 367.555 907.564 366.964 912.532 365.765ZM869.185 405.087C860.563 403.08 852.205 400.07 844.284 396.116C836.834 392.402 829.924 387.691 823.743 382.115C817.754 376.695 812.56 370.457 808.316 363.586C804.014 356.59 800.712 349.027 798.506 341.116C793.923 324.376 793.923 306.712 798.506 289.972C800.703 282.084 804.005 274.547 808.316 267.586C812.591 260.736 817.781 254.502 823.743 249.057C829.907 243.436 836.82 238.696 844.284 234.972C852.206 231.02 860.563 228.009 869.185 226C887.839 221.752 907.209 221.752 925.863 226C934.437 227.991 942.741 231.002 950.597 234.972C958.029 238.75 964.935 243.486 971.138 249.057C977.193 254.482 982.469 260.717 986.817 267.586C991.176 274.532 994.509 282.072 996.71 289.972C1001.29 306.712 1001.29 324.376 996.71 341.116C994.499 349.039 991.168 356.605 986.817 363.586C982.5 370.477 977.22 376.717 971.138 382.115C964.918 387.642 958.015 392.348 950.597 396.116C942.767 400.078 934.492 403.089 925.947 405.087C907.265 409.335 887.868 409.335 869.185 405.087ZM491.992 156.745H542.298L628.32 288.21L714.678 156.745H764.984V403.242H715.181V234.216L643.747 343.211H613.229L541.795 234.216V403.242H491.992V156.745Z" fill="currentColor"></path><path d="M377.135 200.877C387.085 200.877 396.811 197.927 405.083 192.399C413.356 186.871 419.804 179.015 423.611 169.823C427.419 160.63 428.415 150.516 426.474 140.757C424.533 130.999 419.742 122.035 412.706 115C405.671 107.965 396.708 103.174 386.949 101.232C377.191 99.2914 367.076 100.288 357.884 104.095C348.692 107.903 340.835 114.35 335.308 122.623C329.78 130.896 326.829 140.622 326.829 150.571C326.829 157.178 328.13 163.72 330.658 169.823C333.186 175.927 336.891 181.472 341.563 186.144C346.234 190.815 351.78 194.521 357.883 197.049C363.987 199.577 370.529 200.877 377.135 200.877ZM222.886 427.44C198.634 427.441 174.926 420.249 154.762 406.775C134.597 393.302 118.88 374.151 109.6 351.745C100.319 329.339 97.8905 304.684 102.622 280.899C107.353 257.113 119.032 235.264 136.18 218.115C153.329 200.966 175.178 189.288 198.964 184.557C222.75 179.825 247.405 182.254 269.81 191.535C292.216 200.816 311.367 216.532 324.84 236.697C338.314 256.862 345.505 280.569 345.505 304.821C345.506 320.924 342.334 336.869 336.172 351.746C330.01 366.623 320.978 380.141 309.592 391.527C298.205 402.914 284.688 411.946 269.811 418.108C254.934 424.27 238.988 427.441 222.886 427.44Z" fill="#7715F5" />
</svg>