<svg width="128" height="128" viewBox="0 0 128 128" fill="none" xmlns="http://www.w3.org/2000/svg">
<circle cx="64" cy="64" r="64" fill="#FFC914"/>
<path d="M49.7246 80.5508V75.1016H33.3623V80.5508H49.7246ZM27.8984 86V80.5508H22.4492V75.1016H27.8984V69.6377H49.7246V64.1885H27.8984V58.7393H55.1738V64.1885H60.623V86H27.8984ZM96.0723 80.5508V64.1885H90.6084V69.6377H85.1592V75.1016H79.71V80.5508H96.0723ZM85.1592 64.1885V58.7393H90.6084V53.2754H96.0723V47.8262H79.71V64.1885H85.1592ZM74.2461 86V80.5508H68.7969V47.8262H74.2461V42.377H101.521V47.8262H106.971V80.5508H101.521V86H74.2461Z" fill="black"/>
</svg>
