<svg width="16" height="16" viewBox="0 0 16 16" fill="none" xmlns="http://www.w3.org/2000/svg">
<path fill-rule="evenodd" clip-rule="evenodd" d="M5.0003 3C5.5523 3 6.0003 3.448 6.0003 4C6.0003 4.552 5.5523 5 5.0003 5C4.4483 5 4.0003 4.552 4.0003 4C4.0003 3.448 4.4483 3 5.0003 3ZM11.0023 5.998C11.5543 5.998 12.0023 6.446 12.0023 6.998C12.0023 7.55 11.5543 7.998 11.0023 7.998C10.4503 7.998 10.0023 7.55 10.0023 6.998C10.0023 6.446 10.4503 5.998 11.0023 5.998ZM15.9603 13.719C15.4993 12.138 14.6883 10.156 12.8303 9.359C13.5383 8.81 14.0023 7.961 14.0023 6.998C14.0023 5.344 12.6563 3.998 11.0023 3.998C9.3533 3.998 8.0123 5.336 8.0043 6.983C7.6813 6.721 7.3063 6.494 6.8753 6.323C7.5563 5.772 8.0003 4.941 8.0003 4C8.0003 2.346 6.6543 1 5.0003 1C3.3463 1 2.0003 2.346 2.0003 4C2.0003 4.971 2.4713 5.827 3.1883 6.376C1.3283 7.185 0.510297 9.145 0.0422966 10.71C-0.115703 11.239 0.185297 11.796 0.714297 11.954C0.810297 11.982 0.905297 11.996 1.0003 11.996C1.4313 11.996 1.8283 11.716 1.9583 11.282C2.6553 8.948 3.5663 7.996 5.1013 7.996C6.3963 7.996 7.2213 8.659 7.8713 10.235C6.8963 11.2 6.3763 12.566 6.0403 13.719C5.8863 14.249 6.1893 14.805 6.7203 14.959C7.2503 15.114 7.8063 14.81 7.9603 14.279C8.8013 11.396 9.9183 10.999 11.0003 10.999C12.0823 10.999 13.1993 11.396 14.0403 14.279C14.1673 14.716 14.5663 14.999 15.0003 14.999C15.0923 14.999 15.1873 14.986 15.2803 14.959C15.8113 14.805 16.1143 14.249 15.9603 13.719Z" />
</svg>
