<svg width="16" height="16" viewBox="0 0 16 16" fill="none" xmlns="http://www.w3.org/2000/svg">
<path fill-rule="evenodd" clip-rule="evenodd" d="M7.8421 2C8.27812 2 8.63158 2.35346 8.63158 2.78947L8.63158 13.2105C8.63158 13.6465 8.27812 14 7.8421 14C7.40609 14 7.05263 13.6465 7.05263 13.2105V2.78947C7.05263 2.35346 7.40609 2 7.8421 2Z" fill="currentColor"/>
<path fill-rule="evenodd" clip-rule="evenodd" d="M14 7.8421C14 8.27812 13.6465 8.63158 13.2105 8.63158L2.78947 8.63158C2.35346 8.63158 2 8.27812 2 7.8421C2 7.40609 2.35346 7.05263 2.78947 7.05263L13.2105 7.05263C13.6465 7.05263 14 7.40609 14 7.8421Z" fill="currentColor"/>
<path fill-rule="evenodd" clip-rule="evenodd" d="M7.84859 2C8.40287 2 8.8522 2.44933 8.8522 3.0036V6.84499L12.9964 6.84499C13.5507 6.84499 14 7.29432 14 7.84859C14 8.40287 13.5507 8.8522 12.9964 8.8522H8.8522V12.9964C8.8522 13.5507 8.40287 14 7.84859 14C7.29432 14 6.84499 13.5507 6.84499 12.9964V8.8522H3.0036C2.44933 8.8522 2 8.40287 2 7.84859C2 7.29432 2.44933 6.84499 3.0036 6.84499L6.84499 6.84499V3.0036C6.84499 2.44933 7.29432 2 7.84859 2ZM7.09156 7.09156L3.0036 7.09156C2.58551 7.09156 2.24658 7.4305 2.24658 7.84859C2.24658 8.26669 2.58551 8.60562 3.0036 8.60562H7.09156V12.9964C7.09156 13.4145 7.4305 13.7534 7.84859 13.7534C8.26669 13.7534 8.60562 13.4145 8.60562 12.9964V8.60562L12.9964 8.60562C13.4145 8.60562 13.7534 8.26669 13.7534 7.84859C13.7534 7.4305 13.4145 7.09156 12.9964 7.09156L8.60562 7.09156L8.60562 3.0036C8.60562 2.58551 8.26669 2.24658 7.84859 2.24658C7.4305 2.24658 7.09156 2.58551 7.09156 3.0036V7.09156Z" fill="currentColor"/>
</svg>
