<svg width="162" height="80" viewBox="0 0 162 80" fill="none" xmlns="http://www.w3.org/2000/svg">
<path fill-rule="evenodd" clip-rule="evenodd" d="M3.80275 31.8171L2.7605 31.625L2.76072 31.6239C3.13159 29.6107 3.65838 27.6521 4.32808 25.7611L5.32717 26.1149C4.67595 27.9537 4.16367 29.8583 3.80297 31.8159L3.80275 31.8171ZM6.83498 22.4786L5.87869 22.0217C6.75588 20.186 7.77442 18.4288 8.91869 16.767L9.79095 17.3688C8.67811 18.985 7.68807 20.6932 6.83498 22.4786ZM12.1905 14.246L11.3851 13.5575C12.7014 12.0178 14.1372 10.582 15.6769 9.26569L16.365 10.0714C14.8673 11.3519 13.4709 12.7482 12.1905 14.246ZM19.4874 7.67208L18.8864 6.79928C20.5482 5.65501 22.3054 4.63648 24.1411 3.7593L24.5974 4.7159C22.812 5.56899 21.1037 6.55925 19.4874 7.67208ZM28.2343 3.20777L27.8805 2.20868C29.7715 1.53898 31.7301 1.01221 33.7433 0.641331L33.7445 0.641112L33.9365 1.68336L33.9353 1.68358C31.9777 2.04428 30.0731 2.55656 28.2343 3.20777ZM37.8395 1.17399L37.7574 0.117521L37.7586 0.117432C38.7605 0.0396283 39.773 0 40.7949 0C41.8151 0 42.8262 0.0395053 43.8265 0.11707L43.8312 0.117432L43.7491 1.1739L43.7446 1.17355C42.7713 1.09806 41.7876 1.0596 40.7949 1.0596C39.8007 1.0596 38.8154 1.09817 37.8407 1.1739L37.8395 1.17399ZM47.6415 1.68119L47.8331 0.638872L47.8453 0.641113C49.8505 1.01045 51.8015 1.53444 53.6855 2.20027L53.7093 2.20869L53.3554 3.20777L53.3323 3.19959C51.5003 2.55213 49.6031 2.04257 47.6533 1.68336L47.6415 1.68119ZM56.9628 4.70177L57.4189 3.74509L57.4493 3.75962C59.2715 4.63033 61.0149 5.63948 62.6658 6.77346L62.7033 6.79929L62.1023 7.67209L62.0658 7.64695C60.4601 6.54412 58.7646 5.5627 56.9924 4.71591L56.9628 4.70177ZM65.1856 10.038L65.873 9.23167L65.9133 9.26603C67.4369 10.5686 68.858 11.9874 70.163 13.5088L70.2044 13.5571L69.3989 14.2457L69.3587 14.1987C68.0893 12.7187 66.7068 11.3385 65.2247 10.0715L65.1856 10.038ZM71.7592 17.3113L72.6308 16.7087L72.6711 16.7671C73.8001 18.4066 74.8058 20.1375 75.675 21.9464L75.7108 22.021L74.7545 22.478L74.7197 22.4054C73.8744 20.6461 72.8963 18.9626 71.7983 17.368L71.7592 17.3113ZM78.5667 31.625L77.5244 31.817L77.5242 31.8158C77.1635 29.8582 76.6512 27.9536 76 26.1148L76.9991 25.761C77.6688 27.652 78.1956 29.6106 78.5664 31.6238L78.5667 31.625Z" fill="#636669"/>
<g clip-path="url(#clip0_1413_55656)">
<path fill-rule="evenodd" clip-rule="evenodd" d="M40.7947 7.41724C58.3507 7.41724 72.5828 21.6493 72.5828 39.2053C72.5828 56.7613 58.3507 70.9934 40.7947 70.9934C23.2394 70.9934 9.00659 56.7613 9.00659 39.2053C9.00659 21.6493 23.2394 7.41724 40.7947 7.41724Z" fill="#121312"/>
<g clip-path="url(#clip1_1413_55656)">
<path d="M41.0001 24.3334C39.0014 24.3254 37.0225 24.7298 35.1872 25.5213C33.3518 26.3128 31.6995 27.4744 30.3334 28.9334V26.3334C30.3356 26.1401 30.2957 25.9487 30.2166 25.7723C30.1374 25.596 30.0209 25.439 29.8751 25.3121C29.7292 25.1853 29.5575 25.0917 29.3719 25.0378C29.1863 24.9839 28.9912 24.971 28.8001 25C28.4766 25.0627 28.1857 25.2375 27.9784 25.4936C27.7711 25.7496 27.6607 26.0706 27.6667 26.4V32.3334C27.6667 32.687 27.8072 33.0261 28.0573 33.2762C28.3073 33.5262 28.6464 33.6667 29.0001 33.6667H35.0001C35.1933 33.6689 35.3848 33.629 35.5611 33.5499C35.7375 33.4707 35.8945 33.3542 36.0213 33.2084C36.1481 33.0625 36.2417 32.8908 36.2956 32.7052C36.3495 32.5196 36.3624 32.3245 36.3334 32.1334C36.2707 31.8099 36.0959 31.519 35.8399 31.3117C35.5838 31.1044 35.2628 30.994 34.9334 31H32.0667C33.6197 29.2705 35.6416 28.0293 37.8867 27.4272C40.1318 26.825 42.5034 26.8879 44.7134 27.6081C46.9235 28.3283 48.8768 29.6748 50.336 31.4841C51.7952 33.2934 52.6976 35.4876 52.9334 37.8C52.9666 38.1301 53.1216 38.4359 53.3681 38.6578C53.6146 38.8797 53.935 39.0017 54.2667 39C54.4536 39.001 54.6387 38.9626 54.8098 38.8874C54.9809 38.8122 55.1343 38.7019 55.26 38.5636C55.3857 38.4253 55.481 38.2621 55.5396 38.0846C55.5981 37.9072 55.6188 37.7193 55.6001 37.5334C55.2364 33.9145 53.541 30.5599 50.8431 28.1206C48.1452 25.6814 44.6372 24.3317 41.0001 24.3334Z" fill="#12FF80"/>
<path d="M53.0002 44.3334H47.0002C46.807 44.3312 46.6155 44.371 46.4392 44.4502C46.2629 44.5293 46.1058 44.6458 45.979 44.7917C45.8522 44.9375 45.7586 45.1092 45.7047 45.2948C45.6508 45.4805 45.6379 45.6756 45.6669 45.8667C45.7296 46.1901 45.9044 46.4811 46.1604 46.6884C46.4165 46.8957 46.7375 47.006 47.0669 47H49.9336C48.3806 48.7295 46.3587 49.9707 44.1136 50.5729C41.8686 51.175 39.4969 51.1122 37.2869 50.392C35.0769 49.6718 33.1236 48.3252 31.6643 46.5159C30.2051 44.7066 29.3027 42.5124 29.0669 40.2C29.0337 39.87 28.8788 39.5642 28.6322 39.3423C28.3857 39.1204 28.0653 38.9984 27.7336 39C27.5467 38.9991 27.3617 39.0374 27.1905 39.1126C27.0194 39.1878 26.866 39.2981 26.7403 39.4364C26.6146 39.5747 26.5193 39.7379 26.4607 39.9154C26.4022 40.0929 26.3815 40.2807 26.4002 40.4667C26.6803 43.2659 27.7594 45.9256 29.5091 48.1285C31.2587 50.3315 33.605 51.9848 36.2682 52.8912C38.9314 53.7977 41.7991 53.9191 44.5294 53.241C47.2597 52.5629 49.7373 51.1138 51.6669 49.0667V51.6667C51.6647 51.86 51.7046 52.0514 51.7837 52.2277C51.8629 52.4041 51.9794 52.5611 52.1252 52.6879C52.2711 52.8148 52.4428 52.9084 52.6284 52.9622C52.814 53.0161 53.0091 53.029 53.2002 53C53.5237 52.9373 53.8147 52.7626 54.0219 52.5065C54.2292 52.2504 54.3396 51.9294 54.3336 51.6V45.6667C54.3336 45.3131 54.1931 44.9739 53.9431 44.7239C53.693 44.4738 53.3539 44.3334 53.0002 44.3334Z" fill="#12FF80"/>
<path fill-rule="evenodd" clip-rule="evenodd" d="M46.1714 37.814H41.9742V33.6169C41.9742 33.0204 41.4907 32.5364 40.8937 32.5364C40.2973 32.5364 39.8132 33.0204 39.8132 33.6169V37.814H35.6171C35.0201 37.814 34.5366 38.2981 34.5366 38.8945C34.5366 39.491 35.0201 39.975 35.6171 39.975H39.8132V44.1717C39.8132 44.7681 40.2973 45.2522 40.8937 45.2522C41.4907 45.2522 41.9742 44.7681 41.9742 44.1717V39.975H46.1714C46.7678 39.975 47.2519 39.491 47.2519 38.8945C47.2519 38.2981 46.7678 37.814 46.1714 37.814Z" fill="#12FF80"/>
</g>
</g>
<g clip-path="url(#clip2_1413_55656)">
<path fill-rule="evenodd" clip-rule="evenodd" d="M118.146 7.41724C135.702 7.41724 149.934 21.6493 149.934 39.2053C149.934 56.7613 135.702 70.9934 118.146 70.9934C100.59 70.9934 86.3574 56.7613 86.3574 39.2053C86.3574 21.6493 100.59 7.41724 118.146 7.41724Z" fill="#12FF80"/>
<g clip-path="url(#clip3_1413_55656)">
<path fill-rule="evenodd" clip-rule="evenodd" d="M134.783 49.8822C134.783 50.4616 134.311 50.9331 133.731 50.9331H102.03C101.45 50.9331 100.977 50.4616 100.977 49.8822V26.7931C100.977 26.2142 101.45 25.7422 102.03 25.7422H133.731C134.311 25.7422 134.783 26.2142 134.783 26.7931V49.8822ZM128.118 54.255H131.927V52.8344H128.118V54.255ZM103.836 54.258H107.645V52.8345H103.836V54.258ZM133.731 23.8411H102.03C100.4 23.8411 99.0725 25.1657 99.0725 26.7931V49.8823C99.0725 51.4764 100.347 52.7768 101.931 52.8291V55.2084C101.931 55.7336 102.358 56.1589 102.884 56.1589H108.597C109.124 56.1589 109.55 55.7336 109.55 55.2084V52.8343H126.213V55.2055C126.213 55.7307 126.64 56.1561 127.165 56.1561H132.879C133.405 56.1561 133.832 55.7307 133.832 55.2055V52.8291C135.416 52.7754 136.688 51.4764 136.688 49.8823V26.7931C136.688 25.1657 135.362 23.8411 133.731 23.8411Z" fill="#121312"/>
<path fill-rule="evenodd" clip-rule="evenodd" d="M122.882 30.4941C127.082 30.4941 130.5 33.9058 130.5 38.0988C130.5 42.2923 127.082 45.7034 122.882 45.7034C118.681 45.7034 115.263 42.2923 115.263 38.0988C115.263 33.9058 118.681 30.4941 122.882 30.4941ZM123.736 32.4589C123.735 32.9092 123.385 33.282 122.938 33.3182L122.867 33.321C122.412 33.321 122.038 32.9709 122.002 32.5256L121.999 32.4633C121.069 32.6079 120.212 32.9774 119.487 33.5142L119.471 33.4997C119.728 33.7264 119.825 34.0815 119.723 34.4038L119.699 34.4723C119.569 34.7891 119.264 34.9967 118.94 35.007L118.87 35.0061C118.663 35.0098 118.463 34.9382 118.306 34.8068L118.254 34.7581C117.733 35.4746 117.375 36.3162 117.235 37.2283L117.227 37.2281C117.682 37.2281 118.056 37.5782 118.092 38.0235L118.095 38.0946C118.095 38.5492 117.744 38.922 117.298 38.9582L117.233 38.961C117.375 39.8865 117.739 40.7396 118.271 41.4634C118.596 41.1831 119.07 41.1826 119.393 41.4499L119.452 41.5032C119.755 41.8039 119.791 42.2761 119.537 42.6301L119.492 42.6876C120.217 43.223 121.074 43.5913 122.004 43.7351L122.005 43.7605C121.978 43.459 122.111 43.1674 122.351 42.9889L122.414 42.9466C122.693 42.7744 123.046 42.7744 123.326 42.9466C123.584 43.1056 123.738 43.3863 123.739 43.6689L123.736 43.7389C124.67 43.5986 125.531 43.2318 126.26 42.6964L126.249 42.6854C125.936 42.3588 125.929 41.8513 126.221 41.5172L126.276 41.4601C126.603 41.1477 127.111 41.1411 127.443 41.4295L127.487 41.472C128.02 40.7487 128.387 39.8958 128.529 38.97L128.547 38.9709C128.068 38.9709 127.679 38.5829 127.679 38.1044C127.679 37.6498 128.03 37.2769 128.476 37.2408L128.531 37.2383C128.389 36.3068 128.021 35.4485 127.484 34.7216L127.478 34.7273C127.336 34.866 127.151 34.9518 126.957 34.972L126.874 34.9766C126.64 34.9815 126.415 34.8901 126.253 34.7257C126.09 34.564 125.999 34.3443 125.999 34.1151C125.999 33.9114 126.071 33.7152 126.201 33.5608L126.258 33.4997C125.529 32.9652 124.669 32.599 123.736 32.4589Z" fill="#121312"/>
<path fill-rule="evenodd" clip-rule="evenodd" d="M122.882 36.673C122.095 36.673 121.454 37.3127 121.454 38.0988C121.454 38.885 122.095 39.5247 122.882 39.5247C123.67 39.5247 124.311 38.885 124.311 38.0988C124.311 37.3127 123.67 36.673 122.882 36.673ZM122.882 41.4258C121.045 41.4258 119.549 39.9329 119.549 38.0988C119.549 36.2646 121.045 34.7717 122.882 34.7717C124.72 34.7717 126.215 36.2646 126.215 38.0988C126.215 39.9329 124.72 41.4258 122.882 41.4258Z" fill="#121312"/>
<path fill-rule="evenodd" clip-rule="evenodd" d="M104.83 47.0868C104.195 47.0868 103.679 46.66 103.679 46.1341V30.4148C103.679 29.8889 104.195 29.4622 104.83 29.4622C105.466 29.4622 105.982 29.8889 105.982 30.4148V46.1341C105.982 46.66 105.466 47.0868 104.83 47.0868Z" fill="#121312"/>
<path fill-rule="evenodd" clip-rule="evenodd" d="M108.669 47.0868C108.033 47.0868 107.517 46.66 107.517 46.1341V30.4148C107.517 29.8889 108.033 29.4622 108.669 29.4622C109.304 29.4622 109.82 29.8889 109.82 30.4148V46.1341C109.82 46.66 109.304 47.0868 108.669 47.0868Z" fill="#121312"/>
</g>
</g>
<path fill-rule="evenodd" clip-rule="evenodd" d="M161.274 52.9137L156.505 45.2813C156.212 44.8129 155.595 44.6705 155.127 44.9631L147.495 49.7324C147.026 50.0251 146.884 50.642 147.177 51.1104C147.469 51.5787 148.086 51.7212 148.554 51.4285L154.088 47.9707C153.331 50.9065 152.224 53.7016 150.814 56.3088H150.703C149.17 59.2077 147.261 61.8776 145.041 64.2535C138.28 71.361 128.73 75.7914 118.146 75.7914C104.678 75.7914 92.886 68.6186 86.3809 57.885C84.4063 54.5582 82.9406 50.8941 82.0908 47L79.9999 47C80.6506 50.1566 81.6838 53.1735 83.0491 56H82.9993C83.7504 57.5208 84.5972 58.9858 85.532 60.3872C92.4793 70.9936 104.471 77.9999 118.1 77.9999C128.689 77.9999 138.29 73.7705 145.304 66.9093C150.467 61.9415 154.271 55.5708 156.102 48.4104L159.578 53.9735C159.871 54.4419 160.488 54.5843 160.956 54.2917C161.425 53.999 161.567 53.382 161.274 52.9137Z" fill="#636669"/>
<defs>
<clipPath id="clip0_1413_55656">
<rect width="63.5762" height="63.5762" fill="white" transform="translate(9.00659 7.41724)"/>
</clipPath>
<clipPath id="clip1_1413_55656">
<rect width="32" height="32" fill="white" transform="translate(25 23)"/>
</clipPath>
<clipPath id="clip2_1413_55656">
<rect width="63.5762" height="63.5762" fill="white" transform="translate(86.3574 7.41724)"/>
</clipPath>
<clipPath id="clip3_1413_55656">
<rect width="37.6159" height="32.3179" fill="white" transform="translate(99.073 23.8411)"/>
</clipPath>
</defs>
</svg>
