<svg id="Logo" xmlns="http://www.w3.org/2000/svg" width="90" height="24" viewBox="0 0 209.711 48.865">
  <path d="M37.839,28.755l-9.252,9.286a2.022,2.022,0,0,0,0,2.851l7.07,7.08a3.134,3.134,0,0,0,4.38,0l21.67-21.388a3.037,3.037,0,0,0,0-4.323L40.039.892a3.134,3.134,0,0,0-4.38,0l-7.07,7.08a2.022,2.022,0,0,0,0,2.851l9.252,9.286A6.073,6.073,0,0,1,37.839,28.755Z" transform="translate(14.757 0)" fill="#0a6e5c"/>
  <path d="M24.773,28.755l9.252,9.286a2.022,2.022,0,0,1,0,2.851l-7.07,7.08a3.134,3.134,0,0,1-4.38,0L.9,26.584a3.037,3.037,0,0,1,0-4.323L22.574.892a3.134,3.134,0,0,1,4.38,0l7.07,7.08a2.022,2.022,0,0,1,0,2.851L24.773,20.11A6.073,6.073,0,0,0,24.773,28.755Z" transform="translate(0 0)" fill="#21bf73"/>
  <path d="M18.065,21.983a2.5,2.5,0,0,1,0-3.534l9.718-9.718a2.5,2.5,0,0,1,3.534,0l9.718,9.718a2.5,2.5,0,0,1,0,3.534L31.316,31.7a2.5,2.5,0,0,1-3.534,0Z" transform="translate(9.135 4.216)" fill="#21bf73"/>
  <path d="M86.486,35.93H79.581l-3.808-9.963a2.879,2.879,0,0,0-1.423-1.639,5.211,5.211,0,0,0-2.344-.463H67.779V35.93H61.333V6H74.6q5.189,0,7.868,2.27a8.067,8.067,0,0,1,2.678,6.516,8.367,8.367,0,0,1-1.59,5.129,8.459,8.459,0,0,1-4.478,3.069,5.206,5.206,0,0,1,3.809,3.657ZM73.638,18.863a7.163,7.163,0,0,0,4.1-.925,3.479,3.479,0,0,0,1.3-2.985,3.364,3.364,0,0,0-1.3-2.943,6.917,6.917,0,0,0-4.1-.967H67.695v7.819Z" transform="translate(32.324 3.162)" fill="currentColor"/>
  <path d="M102.085,11.832V33.145H95.849V29.992a6.69,6.69,0,0,1-2.72,2.564,8.408,8.408,0,0,1-3.976.925,8.989,8.989,0,0,1-4.9-1.345A9.253,9.253,0,0,1,80.95,28.31a13.626,13.626,0,0,1-1.172-5.8,13.912,13.912,0,0,1,1.172-5.843A9.339,9.339,0,0,1,84.3,12.715a8.524,8.524,0,0,1,4.855-1.429,8.112,8.112,0,0,1,3.976.967,6.979,6.979,0,0,1,2.72,2.606V11.832ZM90.995,28.647a4.308,4.308,0,0,0,3.6-1.6,7.353,7.353,0,0,0,1.256-4.624A7.353,7.353,0,0,0,94.594,17.8a4.263,4.263,0,0,0-3.6-1.639,4.335,4.335,0,0,0-3.641,1.681,7.473,7.473,0,0,0-1.3,4.666,7.276,7.276,0,0,0,1.256,4.582A4.528,4.528,0,0,0,90.995,28.647Z" transform="translate(42.045 5.948)" fill="currentColor"/>
  <path d="M123.79,11.286a6.457,6.457,0,0,1,5.4,2.228q1.8,2.186,1.8,6.726V33.145h-6.319v-12.7a5.516,5.516,0,0,0-.712-3.195,2.667,2.667,0,0,0-2.344-1.009,3.546,3.546,0,0,0-2.972,1.345,6.033,6.033,0,0,0-1.046,3.783v11.77h-6.32v-12.7a5.382,5.382,0,0,0-.753-3.195,2.618,2.618,0,0,0-2.3-1.009,3.665,3.665,0,0,0-3.014,1.345,6.042,6.042,0,0,0-1.046,3.783v11.77H97.842V17.927a49.759,49.759,0,0,0-.335-6.1h5.942l.377,3.195a6.743,6.743,0,0,1,2.678-2.774,8.2,8.2,0,0,1,4.018-.967q4.73,0,6.278,3.951a7.662,7.662,0,0,1,2.888-2.859A8.031,8.031,0,0,1,123.79,11.286Z" transform="translate(51.389 5.948)" fill="currentColor"/>
  <path d="M135.787,11.286a8.527,8.527,0,0,1,4.856,1.429,9.078,9.078,0,0,1,3.306,3.951,13.5,13.5,0,0,1,1.212,5.843,13.617,13.617,0,0,1-1.171,5.8,8.866,8.866,0,0,1-3.306,3.825,8.991,8.991,0,0,1-4.9,1.345,8.4,8.4,0,0,1-3.975-.925,6.408,6.408,0,0,1-2.678-2.564V42.917h-6.32V17.927a49.828,49.828,0,0,0-.334-6.1h5.943l.418,3.531a6.433,6.433,0,0,1,2.678-2.985A8.346,8.346,0,0,1,135.787,11.286Zm-1.8,17.361a4.357,4.357,0,0,0,3.6-1.555,7.277,7.277,0,0,0,1.255-4.582,7.467,7.467,0,0,0-1.3-4.666,4.176,4.176,0,0,0-3.556-1.681,4.382,4.382,0,0,0-3.642,1.639,7.354,7.354,0,0,0-1.255,4.624,7.354,7.354,0,0,0,1.255,4.624A4.43,4.43,0,0,0,133.988,28.647Z" transform="translate(64.549 5.948)" fill="currentColor"/>
</svg>
