<svg width="41" height="40" viewBox="0 0 41 40" fill="none" xmlns="http://www.w3.org/2000/svg">
<g clip-path="url(#clip0_1495_2339)">
<circle cx="20.3334" cy="20" r="20" fill="#DF2A4F"/>
<path d="M25.1741 14.9377C27.0353 14.9377 28.0714 14.1216 28.0714 12.7798V11.1476C28.0714 9.80578 27.0353 9 25.1741 9C23.313 9 22.2768 9.80578 22.2768 11.1476V12.7798C22.2773 12.8803 22.2841 12.9807 22.2969 13.0804L15.2447 17.7742C14.5832 17.2293 13.7434 16.9644 12.8973 17.0337C11.0345 17.0337 10 17.8395 10 19.1813V20.8135C10 22.1554 11.0345 22.9714 12.8973 22.9714C13.335 23.0115 13.7761 22.9582 14.1928 22.8151C14.6094 22.672 14.9927 22.4421 15.3185 22.1398L22.312 26.7786C22.2855 26.9208 22.2721 27.0653 22.2717 27.2099V28.8421C22.2717 30.1839 23.3063 31 25.1691 31C27.0319 31 28.0664 30.1839 28.0664 28.8421V27.2099C28.0664 25.8681 27.0302 25.0623 25.1691 25.0623C24.3108 24.9896 23.4591 25.2661 22.7982 25.8321L15.7662 21.164C15.7843 21.0464 15.7938 20.9275 15.7947 20.8084V19.1762C15.7948 19.0169 15.7791 18.858 15.7477 18.702L22.7127 14.0632C23.0409 14.3809 23.4318 14.6227 23.8591 14.7721C24.2863 14.9214 24.74 14.975 25.1893 14.9291L25.1741 14.9377Z" fill="white"/>
</g>
<defs>
<clipPath id="clip0_1495_2339">
<rect width="40" height="40" fill="white" transform="translate(0.333374)"/>
</clipPath>
</defs>
</svg>
