<svg width="80" height="80" viewBox="0 0 80 80" fill="none" xmlns="http://www.w3.org/2000/svg">
<g clip-path="url(#clip0_1002_19576)">
<path fill-rule="evenodd" clip-rule="evenodd" d="M40 0C62.0913 0 80 17.9087 80 40C80 62.0913 62.0913 80 40 80C17.9096 80 0 62.0913 0 40C0 17.9087 17.9096 0 40 0Z" class="illustration-background-warning-fill" fill="#FFF1EE"/>
<g clip-path="url(#clip1_1002_19576)">
<path d="M40 21.6666C37.5016 21.6567 35.028 22.1622 32.7338 23.1516C30.4397 24.1409 28.3742 25.5929 26.6666 27.4166V24.1666C26.6694 23.9251 26.6195 23.6858 26.5206 23.4653C26.4217 23.2449 26.276 23.0486 26.0937 22.8901C25.9114 22.7316 25.6968 22.6146 25.4648 22.5472C25.2327 22.4798 24.9888 22.4637 24.75 22.5C24.3457 22.5784 23.982 22.7968 23.7228 23.1169C23.4637 23.437 23.3258 23.8382 23.3333 24.25V31.6666C23.3333 32.1087 23.5089 32.5326 23.8215 32.8452C24.134 33.1577 24.5579 33.3333 25 33.3333H32.5C32.7416 33.3361 32.9809 33.2862 33.2013 33.1873C33.4217 33.0884 33.618 32.9427 33.7765 32.7604C33.9351 32.5781 34.0521 32.3635 34.1194 32.1314C34.1868 31.8994 34.2029 31.6555 34.1666 31.4166C34.0883 31.0123 33.8698 30.6486 33.5497 30.3895C33.2296 30.1304 32.8284 29.9925 32.4166 30H28.8333C30.7746 27.8381 33.3019 26.2866 36.1082 25.5339C38.9146 24.7812 41.8791 24.8598 44.6417 25.76C47.4042 26.6603 49.8458 28.3435 51.6699 30.6051C53.4939 32.8667 54.6218 35.6094 54.9166 38.5C54.9581 38.9125 55.1518 39.2948 55.46 39.5722C55.7682 39.8495 56.1687 40.0021 56.5833 40C56.8169 40.0012 57.0482 39.9532 57.2621 39.8592C57.476 39.7652 57.6677 39.6273 57.8249 39.4545C57.982 39.2816 58.1011 39.0776 58.1743 38.8557C58.2476 38.6339 58.2733 38.3991 58.25 38.1666C57.7953 33.6431 55.6761 29.4498 52.3037 26.4007C48.9313 23.3517 44.5463 21.6645 40 21.6666Z" fill="#FF8061"/>
<path d="M55.0001 46.6667H47.5001C47.2585 46.664 47.0192 46.7138 46.7987 46.8127C46.5783 46.9116 46.382 47.0573 46.2235 47.2396C46.065 47.4219 45.948 47.6365 45.8806 47.8686C45.8132 48.1006 45.7971 48.3445 45.8334 48.5834C45.9118 48.9877 46.1302 49.3514 46.4503 49.6105C46.7704 49.8696 47.1716 50.0075 47.5834 50H51.1667C49.2255 52.1619 46.6981 53.7134 43.8918 54.4661C41.0854 55.2188 38.1209 55.1402 35.3584 54.24C32.5958 53.3397 30.1542 51.6565 28.3302 49.3949C26.5061 47.1333 25.3782 44.3906 25.0834 41.5C25.0419 41.0875 24.8482 40.7052 24.54 40.4278C24.2318 40.1505 23.8313 39.9979 23.4167 40C23.1831 39.9988 22.9518 40.0468 22.7379 40.1408C22.524 40.2348 22.3323 40.3727 22.1751 40.5455C22.018 40.7184 21.8989 40.9224 21.8257 41.1443C21.7525 41.3661 21.7267 41.6009 21.7501 41.8334C22.1001 45.3324 23.4491 48.657 25.6361 51.4107C27.8232 54.1644 30.7561 56.2309 34.085 57.364C37.414 58.4971 40.9986 58.6489 44.4115 57.8012C47.8243 56.9536 50.9214 55.1423 53.3334 52.5834V55.8334C53.3307 56.0749 53.3805 56.3142 53.4794 56.5347C53.5783 56.7551 53.724 56.9514 53.9063 57.1099C54.0886 57.2684 54.3032 57.3854 54.5353 57.4528C54.7673 57.5202 55.0112 57.5363 55.2501 57.5C55.6544 57.4216 56.0181 57.2032 56.2772 56.8831C56.5363 56.563 56.6742 56.1618 56.6667 55.75V48.3334C56.6667 47.8913 56.4911 47.4674 56.1786 47.1548C55.866 46.8423 55.4421 46.6667 55.0001 46.6667Z" fill="#FF8061"/>
<path fill-rule="evenodd" clip-rule="evenodd" d="M46.6404 38.6411H41.3589V33.3596C41.3589 32.6091 40.7505 32 39.9993 32C39.2488 32 38.6397 32.6091 38.6397 33.3596V38.6411H33.3596C32.6084 38.6411 32 39.2502 32 40.0007C32 40.7512 32.6084 41.3603 33.3596 41.3603H38.6397V46.6411C38.6397 47.3916 39.2488 48.0007 39.9993 48.0007C40.7505 48.0007 41.3589 47.3916 41.3589 46.6411V41.3603H46.6404C47.3909 41.3603 48 40.7512 48 40.0007C48 39.2502 47.3909 38.6411 46.6404 38.6411Z" fill="#FF8061"/>
</g>
</g>
<defs>
<clipPath id="clip0_1002_19576">
<rect width="80" height="80" fill="white"/>
</clipPath>
<clipPath id="clip1_1002_19576">
<rect width="40" height="40" fill="white" transform="translate(20 20)"/>
</clipPath>
</defs>
</svg>
