<svg width="40" height="40" viewBox="0 0 40 40" fill="none" xmlns="http://www.w3.org/2000/svg">
<g clip-path="url(#clip0_1458_20096)">
<circle cx="20" cy="20" r="20" fill="#B0FFC9"/>
<g clip-path="url(#clip1_1458_20096)">
<path d="M20.3334 9.50009C18.8344 9.49413 17.3502 9.79744 15.9737 10.3911C14.5973 10.9847 13.358 11.8558 12.3334 12.9501V11.0001C12.3351 10.8551 12.3052 10.7116 12.2458 10.5793C12.1865 10.447 12.0991 10.3293 11.9897 10.2342C11.8803 10.139 11.7515 10.0688 11.6123 10.0284C11.4731 9.988 11.3267 9.97833 11.1834 10.0001C10.9408 10.0471 10.7226 10.1782 10.5671 10.3702C10.4117 10.5623 10.3289 10.803 10.3334 11.0501V15.5001C10.3334 15.7653 10.4388 16.0197 10.6263 16.2072C10.8139 16.3947 11.0682 16.5001 11.3334 16.5001H15.8334C15.9784 16.5017 16.122 16.4718 16.2542 16.4125C16.3865 16.3531 16.5042 16.2657 16.5994 16.1563C16.6945 16.0469 16.7647 15.9182 16.8051 15.779C16.8455 15.6397 16.8552 15.4934 16.8334 15.3501C16.7864 15.1075 16.6553 14.8893 16.4633 14.7338C16.2712 14.5783 16.0305 14.4956 15.7834 14.5001H13.6334C14.7982 13.203 16.3146 12.2721 17.9984 11.8204C19.6822 11.3688 21.4609 11.416 23.1184 11.9561C24.776 12.4963 26.2409 13.5062 27.3354 14.8632C28.4298 16.2201 29.1066 17.8658 29.2834 19.6001C29.3083 19.8476 29.4245 20.077 29.6094 20.2434C29.7944 20.4098 30.0347 20.5013 30.2834 20.5001C30.4236 20.5008 30.5624 20.472 30.6907 20.4156C30.819 20.3592 30.9341 20.2765 31.0284 20.1728C31.1227 20.069 31.1941 19.9467 31.238 19.8135C31.282 19.6804 31.2974 19.5396 31.2834 19.4001C31.0106 16.6859 29.7391 14.17 27.7157 12.3405C25.6922 10.5111 23.0613 9.49881 20.3334 9.50009Z" fill="#121312"/>
<path d="M29.3351 24.5H24.8351C24.6902 24.4984 24.5466 24.5283 24.4144 24.5876C24.2821 24.647 24.1643 24.7344 24.0692 24.8438C23.9741 24.9532 23.9039 25.0819 23.8635 25.2211C23.8231 25.3604 23.8134 25.5067 23.8351 25.65C23.8822 25.8926 24.0132 26.1108 24.2053 26.2663C24.3973 26.4218 24.6381 26.5045 24.8851 26.5H27.0351C25.8704 27.7971 24.354 28.728 22.6702 29.1797C20.9864 29.6313 19.2077 29.5841 17.5501 29.044C15.8926 28.5038 14.4276 27.4939 13.3332 26.1369C12.2388 24.78 11.562 23.1343 11.3851 21.4C11.3603 21.1525 11.244 20.9231 11.0591 20.7567C10.8742 20.5903 10.6339 20.4988 10.3851 20.5C10.245 20.4993 10.1062 20.5281 9.97787 20.5845C9.84953 20.6409 9.73448 20.7236 9.64019 20.8273C9.54589 20.9311 9.47446 21.0534 9.43052 21.1866C9.38658 21.3197 9.37112 21.4605 9.38514 21.6C9.59516 23.6995 10.4045 25.6942 11.7168 27.3464C13.029 28.9986 14.7887 30.2386 16.7861 30.9184C18.7835 31.5983 20.9343 31.6893 22.982 31.1807C25.0297 30.6722 26.8879 29.5854 28.3351 28.05V30C28.3335 30.145 28.3634 30.2885 28.4227 30.4208C28.4821 30.5531 28.5695 30.6708 28.6789 30.7659C28.7883 30.8611 28.917 30.9313 29.0563 30.9717C29.1955 31.0121 29.3418 31.0218 29.4851 31C29.7277 30.953 29.9459 30.8219 30.1014 30.6299C30.2569 30.4378 30.3397 30.1971 30.3351 29.95V25.5C30.3351 25.2348 30.2298 24.9804 30.0422 24.7929C29.8547 24.6054 29.6004 24.5 29.3351 24.5Z" fill="#121312"/>
<path fill-rule="evenodd" clip-rule="evenodd" d="M24.3206 19.6846H21.1517V16.5157C21.1517 16.0654 20.7867 15.7 20.336 15.7C19.8857 15.7 19.5202 16.0654 19.5202 16.5157V19.6846H16.3521C15.9014 19.6846 15.5364 20.0501 15.5364 20.5004C15.5364 20.9507 15.9014 21.3161 16.3521 21.3161H19.5202V24.4846C19.5202 24.9349 19.8857 25.3004 20.336 25.3004C20.7867 25.3004 21.1517 24.9349 21.1517 24.4846V21.3161H24.3206C24.7709 21.3161 25.1364 20.9507 25.1364 20.5004C25.1364 20.0501 24.7709 19.6846 24.3206 19.6846Z" fill="#121312"/>
</g>
</g>
<defs>
<clipPath id="clip0_1458_20096">
<rect width="40" height="40" fill="white"/>
</clipPath>
<clipPath id="clip1_1458_20096">
<rect width="24" height="24" fill="white" transform="translate(8.33325 8.5)"/>
</clipPath>
</defs>
</svg>
