<svg width="100" height="80" viewBox="0 0 100 80" fill="none" xmlns="http://www.w3.org/2000/svg">
<path fill-rule="evenodd" clip-rule="evenodd" d="M51.3073 0C73.3986 0 91.3073 17.9087 91.3073 40C91.3073 62.0922 73.3986 80.0009 51.3073 80.0009C29.216 80.0009 11.3073 62.0922 11.3073 40C11.3073 17.9087 29.216 0 51.3073 0Z" class="illustration-background-fill" fill="#EEEFF0"/>
<path fill-rule="evenodd" clip-rule="evenodd" d="M95.9711 59.1649C95.9711 60.1252 95.1895 60.9067 94.2292 60.9067H41.7775C40.8179 60.9067 40.0356 60.1252 40.0356 59.1649V20.8932C40.0356 19.9336 40.8179 19.1513 41.7775 19.1513H94.2292C95.1895 19.1513 95.9711 19.9336 95.9711 20.8932V59.1649ZM84.9416 66.4129H91.2442V64.0581H84.9416V66.4129ZM44.7657 66.4176H51.0683V64.0581H44.7657V66.4176ZM94.2292 16H41.7774C39.0799 16 36.8843 18.1957 36.8843 20.8932V59.1649C36.8843 61.8072 38.9925 63.9627 41.6144 64.0494V67.9932C41.6144 68.8638 42.3203 69.5689 43.19 69.5689H52.6439C53.5144 69.5689 54.2195 68.8638 54.2195 67.9932V64.058H81.7902V67.9885C81.7902 68.859 82.4961 69.5641 83.3659 69.5641H92.8197C93.6895 69.5641 94.3954 68.859 94.3954 67.9885V64.0494C97.0165 63.9603 99.1223 61.8072 99.1223 59.1649V20.8932C99.1223 18.1957 96.9274 16 94.2292 16Z" class="illustration-light-fill" fill="#A1A3A7"/>
<path fill-rule="evenodd" clip-rule="evenodd" d="M76.2785 27.0273C83.2287 27.0273 88.8837 32.6823 88.8837 39.6325C88.8837 46.5835 83.2287 52.2377 76.2785 52.2377C69.3283 52.2377 63.6733 46.5835 63.6733 39.6325C63.6733 32.6823 69.3283 27.0273 76.2785 27.0273ZM77.6909 30.2837C77.6904 31.0301 77.1101 31.6481 76.3719 31.7081L76.2541 31.7128C75.5006 31.7128 74.8825 31.1325 74.8226 30.3943L74.8182 30.2911C73.2788 30.5308 71.8611 31.1433 70.6607 32.033L70.6353 32.009C71.0607 32.3847 71.2205 32.9733 71.0524 33.5075L71.0114 33.6211C70.7961 34.1462 70.2926 34.4904 69.7559 34.5074L69.6405 34.506C69.298 34.512 68.9666 34.3934 68.7075 34.1756L68.6203 34.0949C67.7592 35.2825 67.1672 36.6774 66.9347 38.1893L66.9217 38.189C67.6753 38.189 68.2933 38.7693 68.3533 39.5074L68.358 39.6252C68.358 40.3788 67.7777 40.9968 67.0395 41.0567L66.9325 41.0614C67.166 42.5955 67.7695 44.0096 68.6489 45.2094C69.1862 44.7446 69.9712 44.7439 70.5057 45.1869L70.6029 45.2752C71.1042 45.7737 71.1643 46.5564 70.744 47.1432L70.6694 47.2384C71.8698 48.1259 73.2868 48.7364 74.8253 48.9747L74.8275 49.0168C74.7832 48.5171 75.0028 48.0338 75.4006 47.7378L75.5037 47.6679C75.9662 47.3824 76.5502 47.3824 77.0127 47.6679C77.4396 47.9314 77.6954 48.3965 77.6957 48.865L77.6909 48.981C79.2367 48.7485 80.6611 48.1405 81.868 47.253L81.8491 47.2348C81.3311 46.6934 81.3203 45.8523 81.8036 45.2985L81.894 45.2039C82.4353 44.6859 83.2765 44.6751 83.8251 45.1531L83.898 45.2236C84.7801 44.0247 85.3863 42.6108 85.6225 41.0764L85.6517 41.0778C84.8584 41.0778 84.2154 40.4347 84.2154 39.6415C84.2154 38.8879 84.7957 38.2699 85.5339 38.21L85.6251 38.2059C85.3905 36.6618 84.781 35.2393 83.8926 34.0343L83.8829 34.0437C83.6475 34.2737 83.3421 34.4159 83.0213 34.4494L82.8831 34.4571C82.4967 34.4652 82.124 34.3137 81.8558 34.0411C81.5866 33.7731 81.4353 33.4089 81.4353 33.029C81.4353 32.6914 81.5548 32.3661 81.77 32.1102L81.864 32.009C80.658 31.123 79.235 30.516 77.6909 30.2837Z" class="illustration-main-fill" fill="#121312"/>
<path fill-rule="evenodd" clip-rule="evenodd" d="M76.2786 37.2695C74.9756 37.2695 73.9152 38.3299 73.9152 39.6329C73.9152 40.936 74.9756 41.9964 76.2786 41.9964C77.5817 41.9964 78.6421 40.936 78.6421 39.6329C78.6421 38.3299 77.5817 37.2695 76.2786 37.2695ZM76.2786 45.1477C73.2384 45.1477 70.7639 42.6731 70.7639 39.6329C70.7639 36.5927 73.2384 34.1182 76.2786 34.1182C79.3188 34.1182 81.7934 36.5927 81.7934 39.6329C81.7934 42.6731 79.3188 45.1477 76.2786 45.1477Z" class="illustration-main-fill" fill="#121312"/>
<path fill-rule="evenodd" clip-rule="evenodd" d="M46.5001 55C45.6721 55 45.0001 54.2735 45.0001 53.3784V26.6216C45.0001 25.7265 45.6721 25 46.5001 25C47.3281 25 48.0001 25.7265 48.0001 26.6216V53.3784C48.0001 54.2735 47.3281 55 46.5001 55Z" class="illustration-light-fill"  fill="#A1A3A7"/>
<path fill-rule="evenodd" clip-rule="evenodd" d="M52.5001 55C51.6721 55 51.0001 54.2735 51.0001 53.3784V26.6216C51.0001 25.7265 51.6721 25 52.5001 25C53.3281 25 54.0001 25.7265 54.0001 26.6216V53.3784C54.0001 54.2735 53.3281 55 52.5001 55Z" class="illustration-light-fill" fill="#A1A3A7"/>
<path d="M16 6.33312C14.0013 6.32518 12.0224 6.72959 10.1871 7.52108C8.35177 8.31256 6.69943 9.47411 5.33334 10.9331V8.33312C5.33553 8.13985 5.29567 7.94841 5.21653 7.77207C5.13739 7.59574 5.02085 7.43871 4.875 7.31188C4.72915 7.18505 4.55746 7.09145 4.37184 7.03756C4.18622 6.98367 3.99111 6.97078 3.80001 6.99979C3.47657 7.06249 3.1856 7.23725 2.9783 7.49333C2.771 7.7494 2.66066 8.07038 2.66668 8.39979V14.3331C2.66668 14.6867 2.80715 15.0259 3.0572 15.2759C3.30725 15.526 3.64639 15.6665 4.00001 15.6665H10C10.1933 15.6686 10.3847 15.6288 10.5611 15.5496C10.7374 15.4705 10.8944 15.354 11.0212 15.2081C11.1481 15.0623 11.2417 14.8906 11.2956 14.705C11.3495 14.5193 11.3623 14.3242 11.3333 14.1331C11.2706 13.8097 11.0959 13.5187 10.8398 13.3114C10.5837 13.1041 10.2628 12.9938 9.93334 12.9998H7.06668C8.61968 11.2703 10.6415 10.0291 12.8866 9.42693C15.1317 8.82478 17.5033 8.88763 19.7134 9.60783C21.9234 10.328 23.8767 11.6746 25.3359 13.4839C26.7952 15.2932 27.6975 17.4874 27.9333 19.7998C27.9665 20.1298 28.1215 20.4356 28.368 20.6575C28.6146 20.8794 28.935 21.0015 29.2667 20.9998C29.4536 21.0007 29.6386 20.9624 29.8097 20.8872C29.9808 20.812 30.1342 20.7017 30.2599 20.5634C30.3857 20.4251 30.4809 20.2619 30.5395 20.0844C30.5981 19.9069 30.6187 19.7191 30.6 19.5331C30.2363 15.9143 28.5409 12.5596 25.843 10.1204C23.1451 7.68119 19.6371 6.33142 16 6.33312Z" class="illustration-main-fill" fill="black"/>
<path d="M28 26.3334H22C21.8067 26.3312 21.6153 26.371 21.4389 26.4502C21.2626 26.5293 21.1056 26.6458 20.9788 26.7917C20.8519 26.9375 20.7583 27.1092 20.7044 27.2948C20.6505 27.4805 20.6377 27.6756 20.6667 27.8667C20.7294 28.1901 20.9041 28.4811 21.1602 28.6884C21.4163 28.8957 21.7372 29.006 22.0667 29H24.9333C23.3803 30.7295 21.3585 31.9707 19.1134 32.5729C16.8683 33.175 14.4967 33.1122 12.2866 32.392C10.0766 31.6718 8.12331 30.3252 6.66408 28.5159C5.20485 26.7066 4.30249 24.5124 4.06666 22.2C4.0335 21.87 3.87851 21.5642 3.63196 21.3423C3.38542 21.1204 3.06502 20.9984 2.73333 21C2.54643 20.9991 2.36141 21.0374 2.1903 21.1126C2.01918 21.1878 1.86578 21.2981 1.74006 21.4364C1.61433 21.5747 1.51909 21.7379 1.4605 21.9154C1.40192 22.0929 1.3813 22.2807 1.4 22.4667C1.68002 25.2659 2.7592 27.9256 4.50885 30.1285C6.2585 32.3315 8.6048 33.9848 11.268 34.8912C13.9312 35.7977 16.7989 35.9191 19.5291 35.241C22.2594 34.5629 24.7371 33.1138 26.6667 31.0667V33.6667C26.6645 33.86 26.7043 34.0514 26.7835 34.2277C26.8626 34.4041 26.9791 34.5611 27.125 34.6879C27.2709 34.8148 27.4425 34.9084 27.6282 34.9622C27.8138 35.0161 28.0089 35.029 28.2 35C28.5234 34.9373 28.8144 34.7626 29.0217 34.5065C29.229 34.2504 29.3393 33.9294 29.3333 33.6V27.6667C29.3333 27.3131 29.1929 26.9739 28.9428 26.7239C28.6928 26.4738 28.3536 26.3334 28 26.3334Z" class="illustration-main-fill" fill="black"/>
<path fill-rule="evenodd" clip-rule="evenodd" d="M21.3123 19.9134H17.0872V15.6883C17.0872 15.0879 16.6004 14.6006 15.9995 14.6006C15.3991 14.6006 14.9118 15.0879 14.9118 15.6883V19.9134H10.6877C10.0868 19.9134 9.60004 20.4007 9.60004 21.0011C9.60004 21.6015 10.0868 22.0888 10.6877 22.0888H14.9118V26.3134C14.9118 26.9138 15.3991 27.4011 15.9995 27.4011C16.6004 27.4011 17.0872 26.9138 17.0872 26.3134V22.0888H21.3123C21.9127 22.0888 22.4 21.6015 22.4 21.0011C22.4 20.4007 21.9127 19.9134 21.3123 19.9134Z" class="illustration-main-fill" fill="#121312"/>
</svg>
