<svg width="40" height="45" viewBox="0 0 40 45" fill="none" xmlns="http://www.w3.org/2000/svg">
<path d="M20.2519 3.02611C9.7926 3.02611 1.28296 11.5357 1.28296 21.9951C1.28296 32.4544 9.7926 40.9641 20.2519 40.9641C30.7111 40.9641 39.2208 32.4544 39.2208 21.9951C39.2208 11.5357 30.7111 3.02611 20.2519 3.02611ZM20.1098 32.7428C14.1632 32.7428 9.34579 27.9254 9.34579 21.9788C9.34579 16.0322 14.1632 11.2149 20.1098 11.2149C26.0562 11.2149 30.8736 16.0322 30.8736 21.9788C30.8736 27.9254 26.0562 32.7428 20.1098 32.7428Z" fill="#B0FFC9"/>
<path d="M34.2083 8.73306L36.6738 9.5495C38.9322 10.2969 40.1589 12.734 39.4115 14.9924L38.5991 17.4458" />
<path d="M33.993 8.58274C34.0579 8.48932 34.1798 8.44464 34.2935 8.48526L36.7591 9.3017C37.9167 9.68351 38.8591 10.4959 39.4074 11.5885C39.9558 12.6812 40.0452 13.9201 39.6633 15.0777L38.851 17.5311C38.8063 17.6692 38.656 17.7463 38.5179 17.6976C38.3798 17.6529 38.3026 17.5026 38.3514 17.3645L39.1637 14.9112C39.5049 13.8876 39.4237 12.7909 38.9363 11.8241C38.4529 10.8574 37.6202 10.1425 36.5926 9.80131L34.127 8.98487C33.9889 8.94019 33.9117 8.7899 33.9605 8.65179C33.9686 8.62742 33.9808 8.60305 33.993 8.58274Z" class="illustration-text-primary-fill"/>
<path d="M5.52733 35.3343C5.4989 35.3343 5.47453 35.3262 5.4461 35.3181L3.00897 34.4326C0.640891 33.5715 -0.585798 30.9434 0.275321 28.5713L1.15675 26.1463C1.20549 26.0082 1.35578 25.9392 1.49388 25.9879C1.63199 26.0367 1.70104 26.191 1.6523 26.3251L0.770871 28.75C0.00723716 30.8459 1.09176 33.1693 3.18769 33.933L5.62482 34.8185C5.76292 34.8672 5.83197 35.0215 5.78323 35.1556C5.74261 35.2653 5.637 35.3343 5.52327 35.3302L5.52733 35.3343Z" class="illustration-text-primary-fill"/>
<path d="M33.9848 36.0695C33.867 36.0695 33.7614 35.9883 33.7289 35.8705C33.6924 35.7283 33.7777 35.5861 33.9198 35.5496L36.4219 34.9119C38.5829 34.3635 39.8949 32.1579 39.3465 29.997L38.7047 27.4827C38.6682 27.3405 38.7535 27.1984 38.8956 27.1618C39.0378 27.1253 39.18 27.2106 39.2165 27.3527L39.8583 29.867C40.4798 32.3082 38.9972 34.8022 36.556 35.4237L34.0539 36.0614C34.0336 36.0654 34.0092 36.0695 33.9889 36.0695H33.9848Z" class="illustration-text-primary-fill"/>
<path d="M1.58344 17.5798C1.46971 17.5798 1.3641 17.5067 1.33161 17.393L0.580158 14.9071C0.226775 13.7373 0.352693 12.5025 0.92948 11.4261C1.50627 10.3497 2.46893 9.56166 3.63875 9.20827L6.11244 8.46089C6.2546 8.4162 6.40083 8.49744 6.44145 8.63555C6.48207 8.77365 6.40489 8.92394 6.26679 8.96456L3.79311 9.71194C2.75733 10.0247 1.90839 10.7193 1.3966 11.6738C0.884799 12.6243 0.775128 13.721 1.08789 14.7527L1.83934 17.2386C1.87996 17.3767 1.80278 17.527 1.66468 17.5676C1.64031 17.5757 1.61188 17.5798 1.5875 17.5798H1.58344Z" class="illustration-text-primary-fill"/>
<path d="M15.4344 3.62726C15.3653 3.62726 15.3004 3.60289 15.2475 3.55008C15.146 3.44854 15.146 3.27794 15.2475 3.17639L17.0835 1.34042C17.9487 0.47524 19.0941 0 20.3168 0C21.5394 0 22.6849 0.47524 23.55 1.34042L25.3778 3.16827C25.4793 3.26981 25.4793 3.44041 25.3778 3.54196C25.2762 3.64351 25.1057 3.64351 25.0042 3.54196L23.1763 1.71411C22.4127 0.95048 21.3972 0.528044 20.3168 0.528044C19.2363 0.528044 18.2208 0.95048 17.4572 1.71411L15.6212 3.55008C15.5684 3.60289 15.5034 3.62726 15.4344 3.62726Z" class="illustration-text-primary-fill"/>
<path d="M20.3043 44.2461C19.0816 44.2461 17.9362 43.7708 17.071 42.9057L15.2432 41.0778C15.1416 40.9763 15.1416 40.8057 15.2432 40.7041C15.3447 40.6026 15.5153 40.6026 15.6168 40.7041L17.4447 42.532C18.2083 43.2956 19.2238 43.718 20.3043 43.718C21.3847 43.718 22.4002 43.2956 23.1638 42.532L24.9998 40.696C25.1013 40.5944 25.2721 40.5944 25.3737 40.696C25.4752 40.7975 25.4752 40.9681 25.3737 41.0697L23.5375 42.9057C22.6723 43.7708 21.5269 44.2461 20.3043 44.2461Z" class="illustration-text-primary-fill"/>
<path d="M20.2516 33.2059C14.0695 33.2059 9.04492 28.1773 9.04492 21.9992C9.04492 15.821 14.0735 10.7924 20.2516 10.7924C26.4298 10.7924 31.4625 15.821 31.4625 21.9992C31.4625 28.1773 26.4339 33.2059 20.2516 33.2059ZM20.2516 11.3164C14.3619 11.3164 9.57297 16.1094 9.57297 21.9951C9.57297 27.8808 14.3619 32.6738 20.2516 32.6738C26.1415 32.6738 30.9304 27.8808 30.9304 21.9951C30.9304 16.1094 26.1374 11.3164 20.2516 11.3164Z" fill="#121312"/>
<path d="M24.6387 12.0191C24.5899 12.0191 24.5412 12.0069 24.4965 11.9744C24.3747 11.8932 24.3422 11.7307 24.4193 11.6089L28.8548 4.8052C28.936 4.68335 29.0985 4.64679 29.2203 4.72803C29.3422 4.80926 29.3747 4.97174 29.2975 5.0936L24.8621 11.8972C24.8134 11.9744 24.7281 12.015 24.6387 12.015V12.0191Z" fill="black"/>
<path d="M27.823 14.0947C27.7743 14.0947 27.7255 14.0825 27.6809 14.05C27.559 13.9688 27.5265 13.8063 27.6037 13.6844L32.0392 6.88078C32.1205 6.75892 32.283 6.72237 32.4048 6.8036C32.5267 6.88484 32.5592 7.04732 32.482 7.16917L28.0464 13.9728C27.9977 14.05 27.9124 14.0906 27.823 14.0906V14.0947Z" fill="black"/>
<path d="M8.22072 37.1987C8.17198 37.1987 8.12324 37.1865 8.07856 37.154C7.9567 37.0728 7.9242 36.9103 8.00138 36.7885L12.437 29.9848C12.5182 29.8629 12.6807 29.8264 12.8025 29.9076C12.9244 29.9889 12.9569 30.1513 12.8797 30.2732L8.44412 37.0768C8.39538 37.154 8.31008 37.1946 8.22072 37.1946V37.1987Z" fill="black"/>
<path d="M11.405 39.2743C11.3563 39.2743 11.3076 39.2621 11.2629 39.2296C11.141 39.1484 11.1085 38.9859 11.1857 38.8641L15.6213 32.0604C15.7025 31.9386 15.865 31.902 15.9869 31.9832C16.1087 32.0645 16.1412 32.227 16.064 32.3488L11.6285 39.1525C11.5797 39.2296 11.4944 39.2703 11.405 39.2703V39.2743Z" fill="black"/>
<path d="M39.4561 20.2891H31.3324C31.1862 20.2891 31.0684 20.1713 31.0684 20.0251C31.0684 19.8788 31.1862 19.761 31.3324 19.761H39.4561C39.6024 19.761 39.7202 19.8788 39.7202 20.0251C39.7202 20.1713 39.6024 20.2891 39.4561 20.2891Z" fill="black"/>
<path d="M39.4561 24.091H31.3324C31.1862 24.091 31.0684 23.9732 31.0684 23.827C31.0684 23.6808 31.1862 23.563 31.3324 23.563H39.4561C39.6024 23.563 39.7202 23.6808 39.7202 23.827C39.7202 23.9732 39.6024 24.091 39.4561 24.091Z" fill="black"/>
<path d="M9.39853 20.2891H1.27477C1.12854 20.2891 1.01074 20.1713 1.01074 20.0251C1.01074 19.8788 1.12854 19.761 1.27477 19.761H9.39853C9.54475 19.761 9.66255 19.8788 9.66255 20.0251C9.66255 20.1713 9.54475 20.2891 9.39853 20.2891Z" fill="black"/>
<path d="M9.39853 24.091H1.27477C1.12854 24.091 1.01074 23.9732 1.01074 23.827C1.01074 23.6808 1.12854 23.563 1.27477 23.563H9.39853C9.54475 23.563 9.66255 23.6808 9.66255 23.827C9.66255 23.9732 9.54475 24.091 9.39853 24.091Z" fill="black"/>
<path d="M31.2269 38.007C31.1335 38.007 31.0441 37.9583 30.9954 37.8689L27.0838 30.7484C27.0147 30.6225 27.0594 30.46 27.1894 30.391C27.3194 30.3219 27.4778 30.3666 27.5469 30.4966L31.4584 37.6171C31.5275 37.743 31.4828 37.9055 31.3528 37.9745C31.3122 37.9948 31.2675 38.007 31.2269 38.007Z" fill="black"/>
<path d="M27.8961 39.8349C27.8026 39.8349 27.7133 39.7861 27.6645 39.6967L23.753 32.5763C23.6839 32.4504 23.7286 32.2879 23.8586 32.2188C23.9886 32.1498 24.147 32.1945 24.216 32.3244L28.1276 39.4449C28.1966 39.5708 28.152 39.7333 28.022 39.8024C27.9814 39.8227 27.9367 39.8349 27.8961 39.8349Z" fill="black"/>
<path d="M16.7501 11.6657C16.6567 11.6657 16.5673 11.617 16.5186 11.5276L12.607 4.40714C12.5379 4.28123 12.5826 4.11875 12.7126 4.0497C12.8426 3.98065 13.001 4.02533 13.07 4.15531L16.9816 11.2758C17.0507 11.4017 17.006 11.5642 16.876 11.6332C16.8354 11.6535 16.7907 11.6657 16.7501 11.6657Z" fill="black"/>
<path d="M13.4198 13.4936C13.3264 13.4936 13.237 13.4448 13.1883 13.3555L9.27667 6.23499C9.20762 6.10908 9.2523 5.9466 9.38228 5.87755C9.51226 5.8085 9.67067 5.85318 9.73973 5.98316L13.6513 13.1036C13.7204 13.2296 13.6757 13.392 13.5457 13.4611C13.5051 13.4814 13.4604 13.4936 13.4198 13.4936Z" fill="black"/>
<path d="M20.2514 41.4962C9.49962 41.4962 0.754395 32.7509 0.754395 21.9992C0.754395 11.2474 9.49962 2.50212 20.2514 2.50212C31.0034 2.50212 39.7486 11.2474 39.7486 21.9992C39.7486 32.7509 30.9993 41.4962 20.2514 41.4962ZM20.2514 3.0261C9.79208 3.0261 1.28244 11.5358 1.28244 21.9951C1.28244 32.4544 9.79208 40.9641 20.2514 40.9641C30.7109 40.9641 39.2206 32.4544 39.2206 21.9951C39.2206 11.5358 30.7109 3.0261 20.2514 3.0261Z" fill="#121312"/>
</svg>
