<svg width="130" height="130" viewBox="0 0 130 130" fill="none" xmlns="http://www.w3.org/2000/svg">
<path d="M79.2592 98.3365C100.929 98.3365 118.495 80.7701 118.495 59.1008C118.495 37.4316 100.929 19.8652 79.2592 19.8652C57.5899 19.8652 40.0236 37.4316 40.0236 59.1008C40.0236 80.7701 57.5899 98.3365 79.2592 98.3365Z" class="illustration-secondary-light-fill"/>
<path d="M71.7679 113.026C51.6829 113.026 35.5385 96.5571 33.0766 74.9121C32.9304 76.4152 32.8491 77.9427 32.8491 79.4865C32.8491 103.065 50.3829 119.437 71.8816 119.437C93.3806 119.437 109.566 103.285 110.695 79.4865C110.768 77.9427 110.614 76.4152 110.467 74.9121C108.387 96.3377 91.8612 113.026 71.776 113.026H71.7679Z" class="illustration-text-primary-fill"/>
<path d="M99.2956 48.6602L104.227 50.2933C108.745 51.7883 111.199 56.6633 109.704 61.1808L108.079 66.0883" class="illustration-background-paper-fill"/>
<path d="M98.865 48.3599C98.995 48.173 99.2388 48.0836 99.4663 48.1649L104.398 49.798C106.714 50.5617 108.599 52.1867 109.696 54.3724C110.793 56.558 110.971 59.0361 110.208 61.3517L108.583 66.2592C108.493 66.5355 108.193 66.6899 107.916 66.5924C107.64 66.503 107.486 66.2024 107.583 65.9261L109.208 61.0186C109.891 58.9711 109.728 56.7774 108.753 54.8436C107.786 52.9099 106.121 51.4799 104.065 50.7974L99.1331 49.1642C98.8569 49.0749 98.7025 48.7742 98.8 48.498C98.8163 48.4492 98.8406 48.4005 98.865 48.3599Z" class="illustration-text-primary-fill"/>
<path d="M71.3784 37.2451C50.4566 37.2451 33.4347 54.267 33.4347 75.1889C33.4347 96.1107 50.4566 113.133 71.3784 113.133C92.3 113.133 109.322 96.1107 109.322 75.1889C109.322 54.267 92.3 37.2451 71.3784 37.2451ZM71.0941 96.6876C59.1991 96.6876 49.5628 87.0514 49.5628 75.1564C49.5628 63.2614 59.1991 53.6251 71.0941 53.6251C82.9887 53.6251 92.625 63.2614 92.625 75.1564C92.625 87.0514 82.9887 96.6876 71.0941 96.6876Z" class="illustration-background-paper-fill"/>
<path d="M41.9494 101.343L37.0744 99.5722C32.6057 97.9472 30.2982 92.9991 31.9232 88.5303L33.6863 83.6797" class="illustration-background-paper-fill"/>
<path d="M41.925 101.871C41.8681 101.871 41.8194 101.855 41.7625 101.839L36.8875 100.068C32.1506 98.3451 29.6969 93.0882 31.4194 88.3432L33.1825 83.4926C33.28 83.2163 33.5806 83.0782 33.8569 83.1757C34.1331 83.2732 34.2713 83.582 34.1738 83.8501L32.4106 88.7007C30.8831 92.8932 33.0525 97.5407 37.245 99.0682L42.12 100.839C42.3963 100.937 42.5344 101.246 42.4369 101.514C42.3556 101.733 42.1444 101.871 41.9169 101.863L41.925 101.871Z" class="illustration-text-primary-fill"/>
<path d="M108.802 86.0352L110.077 91.0645C111.247 95.6795 108.461 100.368 103.854 101.538L98.8488 102.813" class="illustration-background-paper-fill"/>
<path d="M98.8487 103.342C98.6131 103.342 98.4019 103.179 98.3369 102.944C98.2637 102.659 98.4344 102.375 98.7187 102.302L103.724 101.026C108.046 99.9294 110.671 95.5175 109.574 91.195L108.29 86.1656C108.217 85.8813 108.387 85.5969 108.672 85.5238C108.956 85.4506 109.241 85.6213 109.314 85.9056L110.597 90.935C111.841 95.8181 108.875 100.807 103.992 102.05L98.9869 103.326C98.9462 103.334 98.8975 103.342 98.8569 103.342H98.8487Z" class="illustration-text-primary-fill"/>
<path d="M34.0359 65.8289L32.5328 60.8564C31.1596 56.2982 33.7353 51.4882 38.2934 50.1151L43.2415 48.6201" class="illustration-background-paper-fill"/>
<path d="M34.0358 66.357C33.8083 66.357 33.597 66.2108 33.532 65.9833L32.0289 61.0108C31.322 58.6708 31.5739 56.2008 32.7277 54.0477C33.8814 51.8945 35.807 50.3183 38.147 49.6114L43.0952 48.1164C43.3795 48.027 43.672 48.1895 43.7533 48.4658C43.8345 48.742 43.6802 49.0427 43.4039 49.1239L38.4558 50.6189C36.3839 51.2445 34.6858 52.6339 33.662 54.5433C32.6383 56.4445 32.4189 58.6383 33.0445 60.702L34.5477 65.6745C34.6289 65.9508 34.4745 66.2514 34.1983 66.3327C34.1495 66.3489 34.0927 66.357 34.0439 66.357H34.0358Z" class="illustration-text-primary-fill"/>
<path d="M61.7421 37.9189L65.4146 34.2464C68.7783 30.8827 74.2383 30.8827 77.6021 34.2464L81.2582 37.9027" class="illustration-background-paper-fill"/>
<path d="M61.7421 38.447C61.604 38.447 61.474 38.3983 61.3683 38.2927C61.1652 38.0895 61.1652 37.7483 61.3683 37.5452L65.0409 33.8727C66.7715 32.142 69.0627 31.1914 71.5084 31.1914C73.954 31.1914 76.2452 32.142 77.9758 33.8727L81.6319 37.5289C81.835 37.732 81.835 38.0733 81.6319 38.2764C81.4287 38.4795 81.0877 38.4795 80.8846 38.2764L77.2284 34.6202C75.7009 33.0927 73.6696 32.2477 71.5084 32.2477C69.3471 32.2477 67.3158 33.0927 65.7883 34.6202L62.1159 38.2927C62.0102 38.3983 61.8802 38.447 61.7421 38.447Z" class="illustration-text-primary-fill"/>
<path d="M81.25 112.979L77.5779 116.651C74.2141 120.015 68.7541 120.015 65.3904 116.651L61.7341 112.995" class="illustration-background-paper-fill"/>
<path d="M71.4834 119.698C69.0377 119.698 66.7465 118.747 65.0159 117.017L61.3596 113.36C61.1565 113.157 61.1565 112.816 61.3596 112.613C61.5627 112.41 61.904 112.41 62.1071 112.613L65.7634 116.269C67.2909 117.797 69.3221 118.642 71.4834 118.642C73.6446 118.642 75.6759 117.797 77.2034 116.269L80.8759 112.597C81.079 112.394 81.4206 112.394 81.6238 112.597C81.8269 112.8 81.8269 113.141 81.6238 113.344L77.9509 117.017C76.2202 118.747 73.929 119.698 71.4834 119.698Z" class="illustration-text-primary-fill"/>
<path d="M71.3779 97.614C59.0117 97.614 48.9611 87.5553 48.9611 75.1972C48.9611 62.839 59.0198 52.7803 71.3779 52.7803C83.7362 52.7803 93.8031 62.839 93.8031 75.1972C93.8031 87.5553 83.7443 97.614 71.3779 97.614ZM71.3779 53.8284C59.5967 53.8284 50.0173 63.4159 50.0173 75.189C50.0173 86.9622 59.5967 96.5497 71.3779 96.5497C83.1593 96.5497 92.7387 86.9622 92.7387 75.189C92.7387 63.4159 83.1512 53.8284 71.3779 53.8284Z" class="illustration-text-primary-fill"/>
<path d="M80.1534 55.2338C80.0559 55.2338 79.9584 55.2094 79.8691 55.1444C79.6253 54.9819 79.5603 54.6569 79.7147 54.4132L88.5869 40.8038C88.7494 40.5601 89.0744 40.4869 89.3181 40.6494C89.5619 40.8119 89.6269 41.1369 89.4725 41.3807L80.6003 54.9901C80.5028 55.1444 80.3322 55.2257 80.1534 55.2257V55.2338Z" class="illustration-text-primary-fill"/>
<path d="M86.5231 59.3852C86.4256 59.3852 86.3281 59.3608 86.2388 59.2958C85.995 59.1333 85.93 58.8083 86.0844 58.5645L94.9569 44.9552C95.1194 44.7114 95.4444 44.6383 95.6881 44.8008C95.9319 44.9633 95.9969 45.2883 95.8425 45.532L86.97 59.1414C86.8725 59.2958 86.7019 59.377 86.5231 59.377V59.3852Z" class="illustration-text-primary-fill"/>
<path d="M47.3122 105.601C47.2147 105.601 47.1173 105.577 47.0279 105.512C46.7841 105.349 46.7191 105.024 46.8735 104.78L55.746 91.171C55.9085 90.9272 56.2335 90.8541 56.4772 91.0166C56.721 91.1791 56.786 91.5041 56.6316 91.7479L47.7591 105.357C47.6616 105.512 47.491 105.593 47.3122 105.593V105.601Z" class="illustration-text-primary-fill"/>
<path d="M53.6821 109.752C53.5846 109.752 53.4871 109.728 53.3977 109.663C53.154 109.5 53.089 109.175 53.2434 108.932L62.1159 95.3224C62.2784 95.0786 62.6034 95.0055 62.8471 95.168C63.0909 95.3305 63.1559 95.6555 63.0015 95.8992L54.129 109.509C54.0315 109.663 53.8609 109.744 53.6821 109.744V109.752Z" class="illustration-text-primary-fill"/>
<path d="M109.793 71.776H93.5431C93.2506 71.776 93.015 71.5404 93.015 71.2479C93.015 70.9554 93.2506 70.7197 93.5431 70.7197H109.793C110.086 70.7197 110.321 70.9554 110.321 71.2479C110.321 71.5404 110.086 71.776 109.793 71.776Z" class="illustration-text-primary-fill"/>
<path d="M109.793 79.3814H93.5431C93.2506 79.3814 93.015 79.1458 93.015 78.8533C93.015 78.5608 93.2506 78.3252 93.5431 78.3252H109.793C110.086 78.3252 110.321 78.5608 110.321 78.8533C110.321 79.1458 110.086 79.3814 109.793 79.3814Z" class="illustration-text-primary-fill"/>
<path d="M49.6685 71.776H33.4185C33.126 71.776 32.8904 71.5404 32.8904 71.2479C32.8904 70.9554 33.126 70.7197 33.4185 70.7197H49.6685C49.961 70.7197 50.1966 70.9554 50.1966 71.2479C50.1966 71.5404 49.961 71.776 49.6685 71.776Z" class="illustration-text-primary-fill"/>
<path d="M49.6685 79.3814H33.4185C33.126 79.3814 32.8904 79.1458 32.8904 78.8533C32.8904 78.5608 33.126 78.3252 33.4185 78.3252H49.6685C49.961 78.3252 50.1966 78.5608 50.1966 78.8533C50.1966 79.1458 49.961 79.3814 49.6685 79.3814Z" class="illustration-text-primary-fill"/>
<path d="M93.3319 107.218C93.145 107.218 92.9663 107.12 92.8688 106.942L85.0444 92.6985C84.9063 92.4467 84.9956 92.1217 85.2556 91.9835C85.5156 91.8454 85.8325 91.9348 85.9706 92.1948L93.795 106.438C93.9331 106.69 93.8438 107.015 93.5838 107.153C93.5025 107.194 93.4131 107.218 93.3319 107.218Z" class="illustration-text-primary-fill"/>
<path d="M86.6694 110.874C86.4825 110.874 86.3038 110.777 86.2063 110.598L78.382 96.3548C78.2438 96.1029 78.3332 95.7779 78.5932 95.6398C78.8532 95.5017 79.1701 95.591 79.3082 95.851L87.1325 110.094C87.2706 110.346 87.1813 110.671 86.9213 110.809C86.84 110.85 86.7506 110.874 86.6694 110.874Z" class="illustration-text-primary-fill"/>
<path d="M64.3741 54.5265C64.1872 54.5265 64.0085 54.429 63.911 54.2502L56.0866 40.0071C55.9485 39.7553 56.0379 39.4302 56.2979 39.2921C56.5579 39.154 56.8747 39.2434 57.0129 39.5034L64.8372 53.7465C64.9754 53.9984 64.886 54.3234 64.626 54.4615C64.5447 54.5021 64.4554 54.5265 64.3741 54.5265Z" class="illustration-text-primary-fill"/>
<path d="M57.7123 58.1828C57.5254 58.1828 57.3466 58.0852 57.2491 57.9065L49.4248 43.6634C49.2866 43.4115 49.376 43.0865 49.636 42.9484C49.896 42.8102 50.2129 42.8996 50.351 43.1596L58.1754 57.4028C58.3135 57.6546 58.2241 57.9796 57.9641 58.1177C57.8829 58.1584 57.7935 58.1828 57.7123 58.1828Z" class="illustration-text-primary-fill"/>
<path d="M71.3778 114.197C49.8709 114.197 32.3778 96.7041 32.3778 75.1973C32.3778 53.6905 49.8709 36.1973 71.3778 36.1973C92.885 36.1973 110.378 53.6905 110.378 75.1973C110.378 96.7041 92.8769 114.197 71.3778 114.197ZM71.3778 37.2454C50.4559 37.2454 33.4341 54.2673 33.4341 75.1892C33.4341 96.111 50.4559 113.133 71.3778 113.133C92.3 113.133 109.322 96.111 109.322 75.1892C109.322 54.2673 92.3 37.2454 71.3778 37.2454Z" class="illustration-text-primary-fill"/>
<path d="M34.4662 59.7509C47.8923 59.7509 58.7762 48.8669 58.7762 35.4408C58.7762 22.0148 47.8923 11.1309 34.4662 11.1309C21.0402 11.1309 10.1562 22.0148 10.1562 35.4408C10.1562 48.8669 21.0402 59.7509 34.4662 59.7509Z" class="illustration-background-paper-fill"/>
<path d="M34.4659 60.2795C33.6453 60.2795 32.8166 60.2388 32.0041 60.1576C31.7116 60.1251 31.5003 59.8732 31.5328 59.5807C31.5572 59.2882 31.8172 59.077 32.1097 59.1095C33.4259 59.2395 34.7747 59.2557 36.0828 59.1745C36.3753 59.1663 36.6272 59.3776 36.6434 59.6701C36.6597 59.9626 36.4403 60.2145 36.1478 60.2307C35.5953 60.2713 35.0266 60.2876 34.4659 60.2876V60.2795ZM39.3247 59.792C39.0809 59.792 38.8616 59.6213 38.8047 59.3695C38.7478 59.0851 38.9347 58.8088 39.2191 58.7438C40.5109 58.4838 41.7947 58.1101 43.0297 57.6307C43.2978 57.5251 43.6066 57.6632 43.7122 57.9313C43.8178 58.1995 43.6797 58.5082 43.4116 58.6138C42.1278 59.1095 40.7872 59.4995 39.4303 59.7757C39.3978 59.7757 39.3572 59.7838 39.3247 59.7838V59.792ZM28.8516 59.6295C28.8516 59.6295 28.7703 59.6295 28.7297 59.6132C27.3809 59.2963 26.0566 58.8576 24.7891 58.3213C24.5209 58.2076 24.3991 57.8988 24.5128 57.6307C24.6266 57.3626 24.9353 57.2407 25.2034 57.3545C26.4222 57.8663 27.6897 58.2888 28.9734 58.5895C29.2578 58.6545 29.4366 58.9388 29.3634 59.2232C29.3066 59.467 29.0872 59.6295 28.8516 59.6295ZM46.1659 57.2895C45.9791 57.2895 45.8003 57.192 45.7028 57.0132C45.5647 56.7613 45.6541 56.4363 45.9141 56.2982C47.0678 55.6645 48.1809 54.9251 49.2209 54.1045C49.4484 53.9257 49.7816 53.9582 49.9603 54.1938C50.1391 54.4213 50.0984 54.7545 49.8709 54.9332C48.7903 55.7945 47.6284 56.5582 46.4178 57.2245C46.3366 57.2651 46.2472 57.2895 46.1659 57.2895ZM22.0997 56.9076C22.0103 56.9076 21.9128 56.8832 21.8316 56.8345C20.6453 56.1276 19.5078 55.3232 18.4516 54.4295C18.2322 54.2426 18.1997 53.9095 18.3866 53.682C18.5734 53.4626 18.9066 53.4301 19.1341 53.617C20.1416 54.4701 21.2303 55.242 22.3678 55.9163C22.6197 56.0626 22.7009 56.3876 22.5547 56.6395C22.4572 56.8101 22.2784 56.8995 22.0997 56.8995V56.9076ZM51.9509 52.8695C51.8209 52.8695 51.6828 52.8207 51.5853 52.7232C51.3741 52.5201 51.3741 52.187 51.5691 51.9757C52.4872 51.0251 53.3322 49.9932 54.0797 48.9045C54.2422 48.6607 54.5753 48.6038 54.8109 48.7663C55.0547 48.9288 55.1116 49.262 54.9491 49.4976C54.1691 50.6351 53.2834 51.7157 52.3247 52.707C52.2191 52.8126 52.0809 52.8695 51.9428 52.8695H51.9509ZM16.4528 52.3007C16.3066 52.3007 16.1684 52.2438 16.0628 52.1301C15.1366 51.1063 14.2834 50.0013 13.5441 48.8395C13.3897 48.5957 13.4547 48.2707 13.7066 48.1082C13.9503 47.9538 14.2834 48.027 14.4378 48.2707C15.1528 49.3838 15.9653 50.4401 16.8509 51.4232C17.0459 51.6426 17.0297 51.9757 16.8184 52.1707C16.7209 52.2601 16.5909 52.3088 16.4609 52.3088L16.4528 52.3007ZM56.1759 46.9382C56.0947 46.9382 56.0134 46.922 55.9403 46.8813C55.6803 46.7513 55.5747 46.4345 55.7047 46.1745C56.3059 44.9963 56.8016 43.7532 57.1916 42.4938C57.2809 42.2176 57.5734 42.0632 57.8497 42.1445C58.1259 42.2338 58.2884 42.5263 58.1991 42.8026C57.7928 44.1188 57.2647 45.4107 56.6472 46.6457C56.5578 46.8326 56.3709 46.9382 56.1759 46.9382ZM12.4228 46.2395C12.2278 46.2395 12.0328 46.1257 11.9434 45.9307C11.3584 44.6795 10.8791 43.3713 10.5134 42.0388C10.4403 41.7545 10.6028 41.4701 10.8791 41.3888C11.1634 41.3076 11.4478 41.4782 11.5291 41.7545C11.8784 43.0301 12.3416 44.2813 12.9022 45.4757C13.0241 45.7438 12.9103 46.0526 12.6503 46.1745C12.5772 46.207 12.5041 46.2232 12.4309 46.2232L12.4228 46.2395ZM58.4509 40.0157C58.4509 40.0157 58.3941 40.0157 58.3616 40.0157C58.0772 39.967 57.8822 39.6988 57.9309 39.4063C58.1503 38.1145 58.2559 36.782 58.2559 35.4495C58.2559 35.157 58.4916 34.9213 58.7841 34.9213C59.0766 34.9213 59.3122 35.157 59.3122 35.4495C59.3122 36.8388 59.1984 38.2282 58.9709 39.577C58.9303 39.837 58.7028 40.0157 58.4509 40.0157ZM10.3753 39.252C10.1153 39.252 9.88781 39.057 9.85531 38.797C9.70906 37.692 9.62781 36.5707 9.62781 35.4495C9.62781 35.1813 9.62781 34.9213 9.64406 34.6613C9.65218 34.3688 9.92031 34.1576 10.1884 34.1495C10.4809 34.1576 10.7084 34.4013 10.7003 34.6938C10.7003 34.9457 10.6922 35.1976 10.6922 35.4495C10.6922 36.522 10.7653 37.6026 10.9034 38.6588C10.9441 38.9513 10.7409 39.2113 10.4484 39.252C10.4241 39.252 10.3997 39.252 10.3753 39.252ZM58.6541 33.4588C58.3859 33.4588 58.1584 33.2557 58.1259 32.9876C57.9878 31.6713 57.7441 30.3551 57.3947 29.0876C57.3216 28.8032 57.4841 28.5188 57.7603 28.4376C58.0447 28.3563 58.3291 28.527 58.4103 28.8032C58.7759 30.1276 59.0359 31.5007 59.1741 32.8738C59.2066 33.1663 58.9953 33.4263 58.7028 33.4507C58.6866 33.4507 58.6703 33.4507 58.6459 33.4507L58.6541 33.4588ZM10.4809 31.9638C10.4809 31.9638 10.4241 31.9638 10.3916 31.9638C10.1072 31.9151 9.91218 31.647 9.95281 31.3545C10.1803 29.9895 10.5216 28.6407 10.9684 27.3326C11.0659 27.0563 11.3666 26.9101 11.6428 27.0076C11.9191 27.1051 12.0653 27.4057 11.9678 27.682C11.5372 28.9332 11.2122 30.2251 10.9928 31.5251C10.9522 31.7851 10.7247 31.9638 10.4728 31.9638H10.4809ZM56.8259 26.4063C56.6228 26.4063 56.4278 26.2845 56.3384 26.0895C55.8184 24.8788 55.1928 23.7007 54.4778 22.5876C54.3234 22.3438 54.3884 22.0188 54.6403 21.8563C54.8841 21.702 55.2091 21.767 55.3716 22.0107C56.1191 23.1726 56.7772 24.4076 57.3134 25.667C57.4272 25.9351 57.3053 26.2438 57.0372 26.3576C56.9722 26.3901 56.8991 26.3982 56.8259 26.3982V26.4063ZM12.7397 25.0413C12.6584 25.0413 12.5772 25.0251 12.5041 24.9845C12.2441 24.8545 12.1384 24.5376 12.2684 24.2776C12.8941 23.0426 13.6172 21.8563 14.4378 20.7432C14.6084 20.5076 14.9416 20.4588 15.1772 20.6295C15.4128 20.8001 15.4616 21.1332 15.2909 21.3688C14.5109 22.4332 13.8122 23.5707 13.2109 24.7488C13.1216 24.9357 12.9347 25.0413 12.7397 25.0413ZM52.9909 20.2232C52.8447 20.2232 52.6903 20.1582 52.5847 20.0363C51.7316 19.0288 50.7809 18.0863 49.7734 17.2332C49.5541 17.0463 49.5216 16.7132 49.7084 16.4857C49.8953 16.2582 50.2284 16.2338 50.4559 16.4207C51.5122 17.3063 52.5034 18.2895 53.3972 19.3457C53.5841 19.5651 53.5597 19.8982 53.3403 20.0932C53.2428 20.1745 53.1209 20.2151 52.9991 20.2151L52.9909 20.2232ZM16.9566 19.102C16.8266 19.102 16.6884 19.0532 16.5909 18.9557C16.3797 18.7526 16.3716 18.4195 16.5747 18.2082C17.5334 17.217 18.5816 16.2907 19.6866 15.4701C19.9222 15.2995 20.2472 15.3482 20.4259 15.5838C20.5966 15.8195 20.5478 16.1526 20.3122 16.3232C19.2478 17.1113 18.2484 17.9888 17.3303 18.9395C17.2247 19.0451 17.0866 19.102 16.9484 19.102H16.9566ZM47.4903 15.4376C47.3928 15.4376 47.2953 15.4132 47.2059 15.3563C46.0847 14.6413 44.9066 14.0238 43.6878 13.512C43.4197 13.3982 43.2897 13.0895 43.4034 12.8213C43.5172 12.5532 43.8259 12.4313 44.0941 12.537C45.3616 13.0732 46.5966 13.7232 47.7666 14.4626C48.0103 14.617 48.0834 14.942 47.9291 15.1938C47.8316 15.3482 47.6609 15.4376 47.4822 15.4376H47.4903ZM22.7334 14.6657C22.5466 14.6657 22.3678 14.5682 22.2703 14.3895C22.1322 14.1376 22.2216 13.8126 22.4734 13.6745C23.6841 13.0082 24.9516 12.4395 26.2597 11.9845C26.5359 11.887 26.8366 12.0332 26.9341 12.3095C27.0316 12.5857 26.8853 12.8863 26.6091 12.9838C25.3659 13.4226 24.1472 13.967 22.9853 14.6007C22.9041 14.6495 22.8147 14.6657 22.7334 14.6657ZM40.8278 12.4963C40.7791 12.4963 40.7384 12.4963 40.6897 12.4801C39.4141 12.1388 38.0978 11.8951 36.7816 11.7651C36.4891 11.7407 36.2778 11.4807 36.3103 11.1882C36.3347 10.8957 36.6028 10.6845 36.8872 10.717C38.2603 10.847 39.6334 11.0988 40.9659 11.4563C41.2503 11.5295 41.4128 11.822 41.3397 12.1063C41.2747 12.342 41.0634 12.4963 40.8278 12.4963ZM29.5666 12.147C29.3228 12.147 29.1034 11.9763 29.0466 11.7245C28.9897 11.4401 29.1766 11.1557 29.4609 11.0988C30.8097 10.8226 32.1909 10.6601 33.5722 10.6113H33.5884C33.8728 10.6113 34.1084 10.8388 34.1166 11.1232C34.1247 11.4157 33.8972 11.6595 33.6047 11.6676C32.2803 11.7163 30.9559 11.8707 29.6641 12.1388C29.6316 12.1388 29.5909 12.147 29.5584 12.147H29.5666Z" class="illustration-text-primary-fill"/>
<path d="M22.9207 34.1901C22.6932 34.1901 22.5144 34.0114 22.5144 33.7839C22.5144 28.072 27.625 23.4326 33.9138 23.4326C39.8694 23.4326 44.7444 27.487 45.2644 32.8657C45.2888 33.0851 45.1263 33.2882 44.8988 33.3126C44.7038 33.337 44.4763 33.1745 44.4519 32.947C43.9807 28.072 39.3494 24.2451 33.9057 24.2451C28.0719 24.2451 23.3188 28.527 23.3188 33.7839C23.3188 34.0114 23.14 34.1901 22.9125 34.1901H22.9207Z" class="illustration-text-primary-fill"/>
<path d="M41.0471 30.8022L41.5427 30.1604L44.7115 32.606L46.9215 29.2666L47.5959 29.7135L44.9065 33.7841L41.0471 30.8022Z" class="illustration-text-primary-fill"/>
<path d="M33.9785 47.7829C28.0229 47.7829 23.1479 43.7285 22.6279 38.3498C22.6035 38.1304 22.766 37.9273 22.9935 37.9029C23.1967 37.8866 23.416 38.041 23.4404 38.2685C23.9117 43.1435 28.5429 46.9704 33.9867 46.9704C39.8204 46.9704 44.5735 42.6885 44.5735 37.4316C44.5735 37.2041 44.7523 37.0254 44.9798 37.0254C45.2073 37.0254 45.386 37.2041 45.386 37.4316C45.386 43.1435 40.2754 47.7829 33.9867 47.7829H33.9785Z" class="illustration-text-primary-fill"/>
<path d="M26.8448 40.4135L26.3492 41.0554L23.1804 38.6098L20.9704 41.9491L20.2879 41.5023L22.9854 37.4316L26.8448 40.4135Z" class="illustration-text-primary-fill"/>
</svg>
