<svg width="24" height="25" viewBox="0 0 24 25" fill="none" xmlns="http://www.w3.org/2000/svg">
<path d="M14.8084 19.445C14.9871 19.445 15.1332 19.5899 15.1332 19.7669L15.1349 19.7653V21.1765C15.1349 21.3536 14.9887 21.4984 14.81 21.5H7.91073C7.72396 21.5 7.56479 21.4211 7.43161 21.2892L6.57082 20.3967C6.43765 20.2648 6.32883 19.7772 6.3272 19.5921L7.95133 17.9829L7.91236 18.4699C7.91236 19.0765 8.28428 19.445 8.92256 19.445H14.8084Z" fill="url(#paint0_linear_1180_32793)"/>
<path d="M18.9049 9.55199L17.8988 8.5552C17.772 8.42952 17.5663 8.42952 17.4395 8.5552L7.55949 18.3444C7.43264 18.4701 7.43264 18.6739 7.55949 18.7996L8.56552 19.7964C8.69237 19.922 8.89804 19.922 9.02489 19.7964L18.9049 10.0071C19.0317 9.88146 19.0317 9.67768 18.9049 9.55199Z" fill="url(#paint1_linear_1180_32793)"/>
<path d="M9.19143 5.55496C9.01278 5.55496 8.86661 5.41013 8.86661 5.23312L8.86498 5.23473L8.86498 3.82345C8.86498 3.64644 9.01116 3.50161 9.18981 3.5L16.0891 3.5C16.2759 3.5 16.4351 3.57885 16.5682 3.71081L17.429 4.60329C17.5622 4.73525 17.671 5.22284 17.6726 5.4079L16.0485 7.01711L16.0875 6.53014C16.0875 5.92347 15.7156 5.55496 15.0773 5.55496L9.19143 5.55496Z" fill="url(#paint2_linear_1180_32793)"/>
<path d="M5.09514 15.448L6.10117 16.4448C6.22802 16.5705 6.43369 16.5705 6.56054 16.4448L16.4405 6.65558C16.5674 6.5299 16.5674 6.32612 16.4405 6.20043L15.4345 5.20364C15.3076 5.07796 15.102 5.07796 14.9751 5.20364L5.09514 14.9929C4.96829 15.1185 4.96829 15.3223 5.09514 15.448Z" fill="url(#paint3_linear_1180_32793)"/>
<defs>
<linearGradient id="paint0_linear_1180_32793" x1="17.9397" y1="1.97124" x2="10.1125" y2="0.700959" gradientUnits="userSpaceOnUse">
<stop stop-color="#5CDFF9"/>
<stop offset="1" stop-color="#00F57B"/>
</linearGradient>
<linearGradient id="paint1_linear_1180_32793" x1="17.9397" y1="1.97124" x2="10.1125" y2="0.700959" gradientUnits="userSpaceOnUse">
<stop stop-color="#5CDFF9"/>
<stop offset="1" stop-color="#00F57B"/>
</linearGradient>
<linearGradient id="paint2_linear_1180_32793" x1="17.9397" y1="1.97124" x2="10.1125" y2="0.700959" gradientUnits="userSpaceOnUse">
<stop stop-color="#5CDFF9"/>
<stop offset="1" stop-color="#00F57B"/>
</linearGradient>
<linearGradient id="paint3_linear_1180_32793" x1="17.9397" y1="1.97124" x2="10.1125" y2="0.700959" gradientUnits="userSpaceOnUse">
<stop stop-color="#5CDFF9"/>
<stop offset="1" stop-color="#00F57B"/>
</linearGradient>
</defs>
</svg>
