<svg width="20" height="20" viewBox="0 0 20 20" fill="none" xmlns="http://www.w3.org/2000/svg">
<path fill-rule="evenodd" clip-rule="evenodd" d="M18.617 1.19813C18.2506 0.922101 17.6369 0.833984 16.7867 0.833984C14.7936 0.833984 12.6918 1.34942 11.3871 2.41412L11.1858 2.58944L10.7689 3.00404C8.03684 2.4919 5.48658 2.93123 3.22941 3.97606C2.26661 4.42173 1.56884 4.87339 1.17444 5.19216C0.751002 5.53441 0.717456 6.16813 1.1024 6.55317L4.15965 9.61198L3.5014 10.271L3.41096 10.3695C2.53436 11.4132 3.44195 13.2312 5.10648 14.8957L5.26806 15.0545C6.94192 16.6696 8.73702 17.4941 9.73064 16.5024L10.3902 15.8407L13.4492 18.9003L13.5353 18.9764C13.9233 19.2786 14.4925 19.2215 14.8103 18.8283C15.1291 18.4338 15.5807 17.7359 16.0264 16.773C17.0413 14.5801 17.4849 12.1107 17.04 9.46706L16.9976 9.2334L17.4117 8.81931L17.5557 8.65215C19.1079 6.73994 19.6275 2.46124 18.793 1.37262C18.7425 1.30676 18.6833 1.24806 18.617 1.19813ZM11.6864 14.5446L15.3586 10.8729C15.4718 12.7092 15.0883 14.4349 14.3626 16.0029L14.2282 16.2831C14.1376 16.4654 14.0451 16.6388 13.9482 16.8065L11.6864 14.5446ZM16.7867 2.66732C15.1971 2.66732 13.499 3.08195 12.5981 3.79052L12.4555 3.91131L4.92819 11.4367L4.95121 11.5215L4.99816 11.6563L5.02913 11.7317L5.0851 11.854C5.33611 12.3721 5.80613 13.0027 6.40284 13.5994C6.99983 14.1964 7.63027 14.6666 8.14817 14.9177C8.23307 14.9589 8.3115 14.9924 8.3817 15.0184L8.48063 15.0518L8.56553 15.074L16.0784 7.56131C16.6709 6.91382 17.0832 5.76493 17.2543 4.42929C17.3132 3.96982 17.339 3.51471 17.3332 3.11922L17.3259 2.88952L17.3114 2.68803L17.1024 2.67421L16.9495 2.66907L16.7867 2.66732ZM3.45279 5.91137C3.62603 5.81915 3.8084 5.72827 3.99954 5.63979C5.56751 4.91399 7.29336 4.5305 9.12996 4.64388L5.45673 8.3149L3.19478 6.05312L3.45279 5.91137Z" fill="#FF8061"/>
</svg>
