<svg width="402" height="402" viewBox="0 0 402 402" fill="none" xmlns="http://www.w3.org/2000/svg">
<path d="M402 201C402 312.009 312.009 402 201 402C89.9908 402 0 312.009 0 201C0 89.9908 89.9908 0 201 0C312.009 0 402 89.9908 402 201Z" fill="url(#paint0_linear_1137_893)"/>
<path d="M322.751 199.479H292.947C284.046 199.479 276.834 206.693 276.834 215.596V258.864C276.834 267.767 269.621 274.982 260.72 274.982H142.151C133.25 274.982 126.037 282.196 126.037 291.099V320.909C126.037 329.813 133.25 337.027 142.151 337.027H267.583C276.484 337.027 283.594 329.813 283.594 320.909V296.992C283.594 288.089 290.807 281.774 299.708 281.774H322.745C331.646 281.774 338.859 274.559 338.859 265.656V215.409C338.859 206.506 331.646 199.479 322.745 199.479H322.751Z" fill="#121312"/>
<path d="M126.031 140.256C126.031 131.353 133.244 124.139 142.145 124.139H260.641C269.543 124.139 276.755 116.925 276.755 108.021V78.2111C276.755 69.3078 269.543 62.0935 260.641 62.0935H135.276C126.375 62.0935 119.162 69.3078 119.162 78.2111V101.181C119.162 110.084 111.95 117.299 103.048 117.299H80.1139C71.2127 117.299 64 124.513 64 133.416V183.717C64 192.62 71.2428 199.473 80.1441 199.473H109.948C118.849 199.473 126.061 192.258 126.061 183.355L126.031 140.262V140.256Z" fill="#121312"/>
<path d="M187.406 168.142H216.033C225.363 168.142 232.931 175.719 232.931 185.044V213.678C232.931 223.01 225.357 230.58 216.033 230.58H187.406C178.076 230.58 170.508 223.004 170.508 213.678V185.044C170.508 175.713 178.082 168.142 187.406 168.142V168.142Z" fill="#121312"/>
<defs>
<linearGradient id="paint0_linear_1137_893" x1="337.5" y1="44.5" x2="74" y2="359" gradientUnits="userSpaceOnUse">
<stop stop-color="#56E0F0"/>
<stop offset="1" stop-color="#11FF80"/>
</linearGradient>
</defs>
</svg>
