<svg width="24" height="24" viewBox="0 0 24 24" fill="none" xmlns="http://www.w3.org/2000/svg">
<g clip-path="url(#clip0_3000_3341)">
<path fill-rule="evenodd" clip-rule="evenodd" d="M14.4525 13.0157L15.2232 12.6279C15.7105 12.3827 16.2446 12.1754 16.7996 12C16.2446 11.8246 15.7105 11.6173 15.2232 11.3721L14.4525 10.9843L14.7232 10.1651C14.8944 9.64697 15.1255 9.12258 15.394 8.60604C14.8774 8.87447 14.353 9.10563 13.8349 9.27682L13.0157 9.54747L12.6279 8.77681C12.3826 8.28948 12.1754 7.75536 12 7.20044C11.8246 7.75536 11.6173 8.28948 11.3721 8.77681L10.9843 9.54747L10.1651 9.27682C9.64697 9.10563 9.12259 8.87447 8.60604 8.60605C8.87447 9.12259 9.10563 9.64698 9.27682 10.1651L9.54747 10.9843L8.77681 11.3721C8.28948 11.6173 7.75536 11.8246 7.20043 12C7.75536 12.1754 8.28948 12.3827 8.77681 12.6279L9.54747 13.0157L9.27682 13.8349C9.10563 14.353 8.87447 14.8774 8.60604 15.394C9.12259 15.1255 9.64697 14.8944 10.1651 14.7232L10.9843 14.4525L11.3721 15.2232C11.6173 15.7105 11.8246 16.2446 12 16.7996C12.1754 16.2446 12.3826 15.7105 12.6279 15.2232L13.0157 14.4525L13.8349 14.7232C14.353 14.8944 14.8774 15.1255 15.394 15.394C15.1255 14.8774 14.8944 14.353 14.7232 13.8349L14.4525 13.0157ZM17.2174 16.4971C18.6778 18.6769 20.4851 20.4851 20.4851 20.4851C20.4851 20.4851 18.6769 18.6778 16.4971 17.2174C15.5363 16.5736 14.5033 15.9972 13.5212 15.6727C13.0562 16.5966 12.7334 17.7346 12.5093 18.8692C12.0007 21.4433 12 24 12 24C12 24 11.9993 21.4433 11.4907 18.8692C11.2666 17.7346 10.9437 16.5966 10.4788 15.6727C9.49672 15.9972 8.46371 16.5736 7.50287 17.2173C5.32314 18.6778 3.51485 20.4851 3.51485 20.4851C3.51485 20.4851 5.32218 18.6769 6.78265 16.4971C7.42644 15.5363 8.00283 14.5033 8.3273 13.5212C7.40342 13.0562 6.26544 12.7334 5.13084 12.5093C2.55674 12.0007 0 12 0 12C0 12 2.55674 11.9993 5.13084 11.4907C6.26544 11.2666 7.40342 10.9438 8.3273 10.4788C8.00283 9.49672 7.42644 8.46372 6.78266 7.50288C5.32218 5.32315 3.51485 3.51485 3.51485 3.51485C3.51485 3.51485 5.32314 5.32218 7.50288 6.78266C8.46371 7.42644 9.49672 8.00283 10.4788 8.3273C10.9437 7.40342 11.2666 6.26545 11.4907 5.13085C11.9993 2.55675 12 0 12 0C12 0 12.0007 2.55675 12.5093 5.13085C12.7334 6.26545 13.0562 7.40342 13.5212 8.3273C14.5033 8.00282 15.5363 7.42643 16.4971 6.78264C18.6769 5.32217 20.4851 3.51485 20.4851 3.51485C20.4851 3.51485 18.6778 5.32314 17.2174 7.50287C16.5736 8.46371 15.9972 9.49672 15.6727 10.4788C16.5966 10.9438 17.7346 11.2666 18.8692 11.4907C21.4433 11.9993 24 12 24 12C24 12 21.4433 12.0007 18.8692 12.5093C17.7346 12.7334 16.5966 13.0562 15.6727 13.5212C15.9972 14.5033 16.5736 15.5363 17.2174 16.4971Z" fill="currentColor"/>
</g>
<defs>
<clipPath id="clip0_3000_3341">
<rect width="24" height="24" fill="white"/>
</clipPath>
</defs>
</svg>
