<svg width="175" height="32" viewBox="0 0 175 32" fill="none" xmlns="http://www.w3.org/2000/svg">
<path d="M75.2743 4.81719V27.1828C75.2743 27.7183 75.7184 28.1526 76.2659 28.1526H77.793C78.5745 28.1526 79.2091 28.7722 79.2091 29.5376V31.0302C79.2091 31.5657 79.6532 32 80.2007 32H83.1776C83.7251 32 84.1692 31.5657 84.1692 31.0302V28.9511C84.1692 28.4156 83.7251 27.9812 83.1776 27.9812H80.7993C80.0178 27.9812 79.3832 27.3617 79.3832 26.5962V5.40271C79.3832 4.63834 80.0167 4.0177 80.7993 4.0177H83.1765C83.724 4.0177 84.1681 3.58335 84.1681 3.04787V0.969826C84.1681 0.434346 83.724 0 83.1765 0H80.1996C79.6521 0 79.208 0.434346 79.208 0.969826V2.46236C79.208 3.22672 78.5745 3.84737 77.7919 3.84737H76.2648C75.7173 3.84737 75.2732 4.28171 75.2732 4.81719H75.2743Z" fill="white"/>
<path d="M11.0977 14.0247C12.6844 14.3135 14.0277 14.6728 15.1279 15.1038L15.129 15.1059C16.228 15.5369 17.1177 16.201 17.7982 17.0972C18.4775 17.9934 18.8183 19.1709 18.8183 20.6317C18.8183 22.0038 18.4271 23.2369 17.6448 24.332C16.8624 25.4271 15.7798 26.2848 14.397 26.904C13.0142 27.5232 11.4495 27.8333 9.70394 27.8333C7.82255 27.8333 6.15593 27.4954 4.70517 26.8205C3.25441 26.1457 2.11484 25.2164 1.28756 24.0325C0.536974 22.9588 0.107443 21.7525 0.0011566 20.4135C-0.0163753 20.1911 0.167709 20.0029 0.396719 20.0061L4.15511 20.0617C4.35015 20.0638 4.51013 20.2071 4.53643 20.3954C4.68983 21.484 5.19935 22.3749 6.06608 23.07C7.01828 23.8336 8.26523 24.2154 9.80694 24.2154C11.0988 24.2154 12.1529 23.9384 12.9692 23.3855C13.7856 22.8326 14.1932 22.0701 14.1932 21.0958C14.1932 20.4103 13.9664 19.8681 13.5127 19.4692C13.0591 19.0714 12.4422 18.7613 11.6598 18.5399C10.8775 18.3185 9.69298 18.064 8.10635 17.7763L7.93651 17.7432C6.43973 17.4769 5.15881 17.1175 4.09375 16.6641C3.02759 16.2106 2.16634 15.5412 1.5089 14.6557C0.851451 13.7702 0.522729 12.5981 0.522729 11.1372C0.522729 9.81006 0.890898 8.61443 1.62833 7.55247C2.36467 6.48945 3.39686 5.66064 4.7227 5.06282C6.04855 4.46501 7.53985 4.16663 9.19442 4.16663C10.9399 4.16663 12.4981 4.47677 13.8699 5.09598C15.2407 5.71518 16.3178 6.58356 17.1002 7.70113C17.8026 8.7064 18.2178 9.82182 18.3439 11.0495C18.3669 11.2741 18.1828 11.4677 17.9516 11.4655L14.1888 11.4377C13.9981 11.4367 13.8393 11.3009 13.8064 11.118C13.6387 10.2004 13.184 9.44324 12.4411 8.8465C11.6127 8.18237 10.5312 7.85085 9.19333 7.85085C7.96938 7.85085 6.98322 8.10538 6.23482 8.61443C5.48643 9.12348 5.11279 9.8646 5.11279 10.8378C5.11279 11.5019 5.33413 12.0217 5.77571 12.3981C6.21729 12.7745 6.82324 13.074 7.59464 13.2943C8.36495 13.5157 9.52205 13.7595 11.0638 14.0247H11.0977Z" fill="white"/>
<path fill-rule="evenodd" clip-rule="evenodd" d="M37.3529 24.064H37.9333L37.9355 24.0651C38.1477 24.0651 38.3209 24.234 38.3209 24.4434V27.2478C38.3209 27.4561 38.1488 27.6261 37.9355 27.6261H34.9568C33.9206 27.6261 33.0826 26.8015 33.0826 25.7856V25.2266C33.0826 24.7611 32.4567 24.6007 32.2185 25.0024C31.7291 25.7144 31.1931 26.2978 30.5511 26.7526C29.8364 27.2595 29.1218 27.6155 28.2426 27.7536C27.4024 27.8865 26.5427 27.8397 25.7046 27.7122C24.6078 27.5454 23.5435 27.1649 22.6524 26.505C21.4646 25.6262 20.8712 24.4168 20.8712 22.877C20.8712 21.097 21.5209 19.723 22.8202 18.7549C24.1195 17.7878 26.0241 17.3043 28.5328 17.3043H31.6262C31.8385 17.3043 32.0117 17.1353 32.0117 16.926V16.4138C32.0117 14.7762 30.7189 13.6763 28.902 13.6763C27.9384 13.6763 27.2064 13.8793 26.5903 14.2863C26.0587 14.638 25.7144 15.0907 25.5585 15.6465C25.513 15.8081 25.3592 15.9186 25.1882 15.9186H21.7732C21.5317 15.9186 21.353 15.7039 21.3931 15.4712C21.6541 13.9707 22.4174 12.79 23.6831 11.9282C25.0712 10.9824 26.8394 10.5 29.1023 10.5C31.4996 10.5 33.0295 11.0324 34.3288 12.0759C35.6281 13.1195 36.2778 14.6423 36.2778 16.6433V22.9429C36.2778 23.3393 36.373 23.6251 36.5636 23.8005C36.7531 23.9769 37.0173 24.064 37.3529 24.064ZM31.4887 22.7941C31.8352 22.1894 32.0095 21.4806 32.0095 20.6666V20.5837C32.0095 20.3755 31.8374 20.2054 31.6241 20.2054H28.4635C27.41 20.2054 26.599 20.4095 26.0273 20.8154C25.4567 21.2224 25.1708 21.7994 25.1708 22.5465C25.1708 23.2064 25.4285 23.7335 25.9439 24.1299C26.4582 24.5252 27.1415 24.7229 27.9936 24.7229C29.4596 24.7229 30.7611 24.0619 31.4887 22.7941Z" fill="white"/>
<path d="M50.2549 4.49997H45.8353C43.5032 4.49997 41.6117 6.38585 41.6117 8.71338V10.5638C41.6117 10.7755 41.4393 10.9463 41.2282 10.9463H38.7044C38.4922 10.9463 38.3209 11.1183 38.3209 11.3289V14.198C38.3209 14.4097 38.4933 14.5806 38.7044 14.5806H41.2282C41.4404 14.5806 41.6117 14.7525 41.6117 14.9631V27.4508C41.6117 27.6624 41.784 27.8333 41.9952 27.8333H45.4399C45.6521 27.8333 45.8234 27.6614 45.8234 27.4508V14.9631C45.8234 14.7514 45.9958 14.5806 46.2069 14.5806H50.2204C50.4326 14.5806 50.6039 14.4086 50.6039 14.198V11.3289C50.6039 11.1172 50.4315 10.9463 50.2204 10.9463H46.2069C45.9947 10.9463 45.8234 10.7744 45.8234 10.5638V8.90035C45.8234 8.47697 46.167 8.13418 46.5914 8.13418H50.2549C50.4671 8.13418 50.6384 7.96225 50.6384 7.75163V4.88252C50.6384 4.67082 50.466 4.49997 50.2549 4.49997Z" fill="white"/>
<path fill-rule="evenodd" clip-rule="evenodd" d="M64.5297 11.4994C65.8426 12.1597 66.8786 13.106 67.6368 14.3373H67.6346C68.3927 15.5696 68.7724 16.9997 68.7724 18.6276C68.7724 18.8477 68.7669 19.0901 68.756 19.3538C68.7505 19.4994 68.7384 19.6419 68.722 19.7812C68.7002 19.9715 68.5317 20.1129 68.3348 20.1129H56.2141C55.9821 20.1129 55.7994 20.3086 55.8257 20.5319C55.8388 20.6403 55.8552 20.7488 55.8727 20.8562C55.9241 21.1634 55.9985 21.4675 56.1014 21.7621C56.1976 22.0364 56.318 22.3022 56.4657 22.5542C56.8398 23.1932 57.3486 23.6876 57.994 24.0396C58.6395 24.3915 59.3922 24.567 60.2521 24.567C61.2936 24.567 62.1645 24.3352 62.8668 23.8737C63.4937 23.4601 63.9313 22.8987 64.1786 22.1874C64.2322 22.0332 64.3799 21.9269 64.5483 21.9269H68.0634C68.3151 21.9269 68.5 22.1555 68.4431 22.3936C68.2243 23.3123 67.814 24.1576 67.2134 24.9295C66.5121 25.8322 65.5888 26.5414 64.4466 27.0582C63.3033 27.5749 62.0069 27.8333 60.5584 27.8333C58.6789 27.8333 57.0433 27.4824 55.6517 26.7775C54.259 26.0736 53.1902 25.0667 52.4429 23.7578C51.6968 22.45 51.3227 20.9806 51.3227 19.2209C51.3227 17.4612 51.6848 15.9269 52.409 14.618C53.1333 13.3091 54.1518 12.2979 55.4646 11.5824C56.7775 10.8668 58.2621 10.5 59.9808 10.5C61.6995 10.5 63.2169 10.8391 64.5297 11.4994ZM56.4044 17.2411H63.9948V17.2421C64.2442 17.2421 64.4313 17.0167 64.3755 16.7796C64.1654 15.878 63.7289 15.1634 63.0692 14.635C62.3001 14.0194 61.3264 13.711 60.1493 13.711C59.425 13.711 58.7577 13.8535 58.1461 14.1395C57.5356 14.4255 57.0378 14.8381 56.6528 15.3772C56.3541 15.795 56.144 16.2629 56.0226 16.7807C55.9679 17.0167 56.155 17.2411 56.4044 17.2411Z" fill="white"/>
<path d="M175.435 4.81687V27.181L175.436 27.1831C175.436 27.7186 174.992 28.1529 174.444 28.1529H172.917C172.135 28.1529 171.501 28.7735 171.501 29.5378V31.0302C171.501 31.5657 171.057 32 170.51 32H167.533C166.985 32 166.541 31.5657 166.541 31.0302V28.9513C166.541 28.4158 166.985 27.9815 167.533 27.9815H169.91C170.692 27.9815 171.326 27.3609 171.326 26.5966V5.40341C171.326 4.63804 170.691 4.0185 169.91 4.0185H167.532C166.984 4.0185 166.54 3.58418 166.54 3.04873V0.969761C166.54 0.434317 166.984 0 167.532 0H170.508C171.056 0 171.5 0.434317 171.5 0.969761V2.46219C171.5 3.22757 172.135 3.84711 172.916 3.84711H174.443C174.991 3.84711 175.435 4.28143 175.435 4.81687Z" fill="white"/>
<path d="M125.924 20.1432H129.884C130.074 22.9628 131.689 24.3567 134.446 24.3567C137.17 24.3567 138.754 23.1529 138.754 21.5055C138.754 20.365 138.216 19.478 136.6 18.8444L132.45 17.2603C129.504 16.1515 128.205 14.0606 128.205 11.7479C128.205 8.13636 131.151 5 136.727 5C140.94 5 143.601 7.31267 144.203 11.0826L143.981 12.3815H140.18C139.99 10.0055 138.881 8.57989 136.378 8.57989C133.875 8.57989 132.355 9.84711 132.355 11.3361C132.355 12.5399 133.02 13.2686 134.477 13.8388L138.596 15.3912C141.859 16.6584 142.936 18.8444 142.936 21.1253C142.936 25.1488 139.8 28 134.097 28C129.345 28 126.177 25.4022 125.67 21.4421L125.924 20.1432Z" fill="white"/>
<path fill-rule="evenodd" clip-rule="evenodd" d="M106.072 13.3953C106.864 8.76997 103.854 5.57025 98.7851 5.57025H90.865L87 27.4298H91.0234L92.354 19.9848H96.7893C102.017 19.9848 105.311 17.6088 106.072 13.3953ZM97.1694 16.2782H92.9876L94.2548 9.27686H98.2149C100.908 9.27686 102.365 10.7025 101.985 12.9201C101.605 15.011 99.8939 16.2782 97.1694 16.2782Z" fill="white"/>
<path fill-rule="evenodd" clip-rule="evenodd" d="M120.052 5.57025H114.286L103.831 26.0992L103.61 27.4298H107.601L109.946 22.646H118.911L119.64 27.4298H123.378L123.6 26.0992L120.052 5.57025ZM111.688 19.0344L114.793 12.6667C115.458 11.2727 116.028 10.0689 116.472 8.57989H117.042C117.074 10.0372 117.169 11.1777 117.359 12.635L118.341 19.0344H111.688Z" fill="white"/>
<path d="M149.406 20.1432H145.445L145.192 21.4421C145.699 25.4022 148.867 28 153.619 28C159.321 28 162.458 25.1488 162.458 21.1253C162.458 18.8444 161.381 16.6584 158.118 15.3912L153.999 13.8388C152.542 13.2686 151.877 12.5399 151.877 11.3361C151.877 9.84711 153.397 8.57989 155.9 8.57989C158.403 8.57989 159.512 10.0055 159.702 12.3815H163.503L163.725 11.0826C163.123 7.31267 160.462 5 156.248 5C150.673 5 147.726 8.13636 147.726 11.7479C147.726 14.0606 149.025 16.1515 151.972 17.2603L156.122 18.8444C157.737 19.478 158.276 20.365 158.276 21.5055C158.276 23.1529 156.692 24.3567 153.967 24.3567C151.211 24.3567 149.596 22.9628 149.406 20.1432Z" fill="white"/>
</svg>

