<svg width="119" height="21" viewBox="0 0 119 21" fill="none" xmlns="http://www.w3.org/2000/svg">
<path d="M9.43115 9.91188C8.75741 9.62905 7.93469 9.39323 6.963 9.20374H6.9422C5.99802 9.02969 5.28939 8.86968 4.81763 8.7244C4.34521 8.57983 3.97412 8.38332 3.70368 8.13628C3.43324 7.88924 3.29769 7.54815 3.29769 7.11232C3.29769 6.47367 3.52652 5.98731 3.98485 5.65324C4.44318 5.31918 5.04714 5.15214 5.79671 5.15214C6.61607 5.15214 7.2784 5.36971 7.78572 5.80554C8.24069 6.19715 8.51918 6.69404 8.62185 7.2962C8.64199 7.41621 8.73929 7.50534 8.85605 7.50604L11.1605 7.52429C11.3021 7.52569 11.4148 7.39867 11.4007 7.25128C11.3235 6.4456 11.0692 5.7136 10.639 5.05389C10.1599 4.32049 9.50027 3.75061 8.66077 3.34426C7.82061 2.9379 6.86637 2.73438 5.79738 2.73438C4.78408 2.73438 3.87077 2.93018 3.05879 3.3225C2.24682 3.71482 1.61468 4.25873 1.16373 4.95634C0.71211 5.65324 0.486635 6.43788 0.486635 7.30883C0.486635 8.26752 0.687952 9.03671 1.09059 9.61782C1.49322 10.1989 2.02067 10.6383 2.67361 10.9358C3.32588 11.2334 4.11034 11.4692 5.027 11.644L5.13102 11.6657C6.10271 11.8545 6.82812 12.0215 7.30725 12.1668C7.78639 12.3121 8.16419 12.5156 8.44201 12.7767C8.71983 13.0385 8.85874 13.3943 8.85874 13.8442C8.85874 14.4835 8.6091 14.9839 8.10917 15.3468C7.60923 15.7096 6.96367 15.8914 6.1725 15.8914C5.22832 15.8914 4.46466 15.6408 3.88151 15.1397C3.3507 14.6835 3.03866 14.0989 2.94472 13.3845C2.92861 13.261 2.83064 13.1669 2.71119 13.1655L0.409464 13.129C0.269213 13.1269 0.156475 13.2504 0.167212 13.3964C0.232305 14.2751 0.495359 15.0667 0.955033 15.7714C1.46168 16.5483 2.15958 17.1582 3.04806 17.601C3.93654 18.0439 4.95721 18.2656 6.10942 18.2656C7.17841 18.2656 8.13668 18.0621 8.98355 17.6557C9.83043 17.2494 10.4934 16.6865 10.9726 15.9679C11.4517 15.2492 11.6913 14.44 11.6913 13.5396C11.6913 12.5809 11.4826 11.8082 11.0665 11.2201C10.6498 10.6319 10.1049 10.1961 9.43182 9.91328L9.43115 9.91188Z" fill="#12FF80"/>
<path d="M23.3977 15.792H23.0423C22.8367 15.792 22.6749 15.7349 22.5589 15.6191C22.4422 15.504 22.3838 15.3164 22.3838 15.0563V10.9222C22.3838 9.60903 21.986 8.60968 21.1902 7.92485C20.3945 7.24002 19.4575 6.89063 17.9894 6.89063C16.6035 6.89063 15.5207 7.20724 14.6706 7.82791C13.8954 8.39349 13.4279 9.16828 13.2681 10.153C13.2436 10.3057 13.353 10.4466 13.5009 10.4466H15.5923C15.6971 10.4466 15.7912 10.3741 15.8191 10.2681C15.9146 9.90333 16.1255 9.60624 16.451 9.37541C16.8283 9.10831 17.2766 8.97511 17.8668 8.97511C18.9795 8.97511 19.7712 9.6969 19.7712 10.7716V11.1077C19.7712 11.2451 19.6651 11.356 19.5351 11.356H17.6406C16.1042 11.356 14.9378 11.6733 14.1421 12.3079C13.3464 12.9432 12.9485 13.8449 12.9485 15.0131C12.9485 16.0236 13.3119 16.8172 14.0393 17.3939C14.5851 17.827 15.2369 18.0767 15.9086 18.1862C16.4219 18.2698 16.9484 18.3005 17.4629 18.2134C18.0014 18.1227 18.439 17.8891 18.8767 17.5564C19.2699 17.2579 19.5981 16.8751 19.8979 16.4078C20.0437 16.1442 20.427 16.2495 20.427 16.555V16.9218C20.427 17.5885 20.9403 18.1297 21.5748 18.1297H23.399C23.5297 18.1297 23.6351 18.0181 23.6351 17.8814V16.041C23.6351 15.9036 23.529 15.7927 23.399 15.7927L23.3977 15.792ZM19.7699 13.5625C19.7699 14.0967 19.6631 14.5619 19.4509 14.9587C19.0053 15.7906 18.2083 16.2244 17.3104 16.2244C16.7886 16.2244 16.3701 16.0947 16.0552 15.8353C15.7395 15.5752 15.5817 15.2292 15.5817 14.7962C15.5817 14.3059 15.7568 13.9272 16.1062 13.6601C16.4563 13.3937 16.953 13.2598 17.5982 13.2598H19.5338C19.6644 13.2598 19.7699 13.3714 19.7699 13.5081V13.5625Z" fill="#12FF80"/>
<path d="M30.9444 2.95313H28.2371C26.8088 2.95313 25.6504 4.19074 25.6504 5.71818V6.93252C25.6504 7.07144 25.5449 7.18356 25.4156 7.18356H23.87C23.74 7.18356 23.6351 7.29639 23.6351 7.43461V9.31747C23.6351 9.45639 23.7407 9.56852 23.87 9.56852H25.4156C25.5456 9.56852 25.6504 9.68135 25.6504 9.81956V18.0146C25.6504 18.1535 25.756 18.2656 25.8853 18.2656H27.995C28.1249 18.2656 28.2298 18.1528 28.2298 18.0146V9.81956C28.2298 9.68064 28.3354 9.56852 28.4647 9.56852H30.9226C31.0526 9.56852 31.1575 9.45569 31.1575 9.31747V7.43461C31.1575 7.29569 31.0519 7.18356 30.9226 7.18356H28.4647C28.3347 7.18356 28.2298 7.07073 28.2298 6.93252V5.84088C28.2298 5.56304 28.4402 5.33808 28.7002 5.33808H30.9437C31.0737 5.33808 31.1786 5.22525 31.1786 5.08703V3.20417C31.1786 3.06525 31.0737 2.95313 30.9444 2.95313Z" fill="#12FF80"/>
<path d="M41.5888 9.40887C41.1245 8.60086 40.49 7.97984 39.686 7.54653C38.882 7.11322 37.9527 6.89063 36.9001 6.89063C35.8475 6.89063 34.9383 7.13136 34.1343 7.60095C33.3303 8.07055 32.7065 8.73413 32.263 9.59308C31.8194 10.452 31.5977 11.4589 31.5977 12.6137C31.5977 13.7685 31.8268 14.7328 32.2838 15.5911C32.7414 16.45 33.396 17.1108 34.2489 17.5727C35.1011 18.0354 36.1028 18.2656 37.2539 18.2656C38.141 18.2656 38.9349 18.0961 39.6351 17.757C40.3346 17.4178 40.9 16.9524 41.3295 16.36C41.6973 15.8534 41.9486 15.2987 42.0826 14.6959C42.1174 14.5396 42.0042 14.3895 41.8501 14.3895H39.6974C39.5942 14.3895 39.5037 14.4593 39.4709 14.5605C39.3195 15.0273 39.0515 15.3957 38.6676 15.6671C38.2374 15.97 37.7041 16.1221 37.0663 16.1221C36.5396 16.1221 36.0787 16.007 35.6834 15.776C35.2881 15.545 34.9765 15.2206 34.7474 14.8012C34.6569 14.6358 34.5832 14.4614 34.5243 14.2814C34.4613 14.0881 34.4157 13.8885 34.3842 13.6869C34.3735 13.6164 34.3635 13.5452 34.3554 13.4741C34.3393 13.3275 34.4512 13.1991 34.5933 13.1991H42.0163C42.1369 13.1991 42.24 13.1063 42.2534 12.9814C42.2635 12.89 42.2709 12.7965 42.2742 12.7009C42.2809 12.5279 42.2843 12.3688 42.2843 12.2244C42.2843 11.1561 42.0518 10.2176 41.5875 9.40887H41.5888ZM39.3584 11.3145H34.7099C34.5571 11.3145 34.4425 11.1672 34.476 11.0123C34.5504 10.6725 34.679 10.3655 34.8619 10.0913C35.0978 9.73752 35.4026 9.46678 35.7765 9.27909C36.151 9.09139 36.5597 8.99788 37.0033 8.99788C37.7242 8.99788 38.3205 9.20024 38.7915 9.60425C39.1955 9.95104 39.4629 10.4199 39.5915 11.0116C39.6257 11.1672 39.5111 11.3145 39.3584 11.3145Z" fill="#12FF80"/>
<path d="M46.2663 3.16128V17.8387C46.2663 18.1901 46.5382 18.4752 46.8735 18.4752H47.8088C48.2874 18.4752 48.676 18.8818 48.676 19.3841V20.3636C48.676 20.715 48.948 21 49.2833 21H51.1064C51.4417 21 51.7137 20.715 51.7137 20.3636V18.9991C51.7137 18.6477 51.4417 18.3627 51.1064 18.3627H49.6499C49.1713 18.3627 48.7826 17.9561 48.7826 17.4538V3.54553C48.7826 3.04391 49.1706 2.63661 49.6499 2.63661H51.1057C51.441 2.63661 51.713 2.35158 51.713 2.00017V0.636448C51.713 0.285039 51.441 0 51.1057 0H49.2826C48.9473 0 48.6753 0.285039 48.6753 0.636448V1.61592C48.6753 2.11754 48.2874 2.52483 47.8081 2.52483H46.8729C46.5376 2.52483 46.2663 2.80987 46.2663 3.16128Z" fill="#12FF80"/>
<path d="M55.9079 3.31035H60.937L61.6612 9.79953C61.7417 10.5556 61.7819 11.3256 61.7819 12.1096C61.7819 12.5296 61.7752 12.8516 61.7618 13.0756H62.144C62.4257 12.0816 62.828 10.9896 63.351 9.79953L66.288 3.31035H71.4982L69.044 17.8008H65.9863L67.7565 7.30046H67.3944L63.2706 16.4777H59.6898L58.6438 7.30046H58.2817L56.5114 17.8008H53.4537L55.9079 3.31035Z" fill="#12FF80"/>
<path d="M71.645 17.8008L74.0992 3.31035H77.2776L74.8234 17.8008H71.645Z" fill="#12FF80"/>
<path d="M77.4403 17.8008L79.8945 3.31035H83.0729L81.1417 14.7137H86.9956L86.4726 17.8008H77.4403Z" fill="#12FF80"/>
<path d="M88.0486 17.8008L90.5028 3.31035H100.199L99.6961 6.33443H93.1783L92.7358 8.93851H98.3885L97.8856 11.8996H92.2328L91.7501 14.7137H98.4086L97.8856 17.8008H88.0486Z" fill="#12FF80"/>
<path d="M103.332 12.8236C103.385 13.6356 103.62 14.2447 104.036 14.6507C104.465 15.0427 105.055 15.2387 105.806 15.2387C106.503 15.2387 107.053 15.0987 107.456 14.8187C107.871 14.5387 108.079 14.1817 108.079 13.7476C108.079 13.4256 107.992 13.1526 107.818 12.9286C107.657 12.6906 107.368 12.4946 106.953 12.3406L104.297 11.2906C103.399 10.9406 102.721 10.4295 102.265 9.75753C101.823 9.08551 101.602 8.35049 101.602 7.55247C101.602 6.71244 101.816 5.94242 102.245 5.2424C102.675 4.54238 103.312 3.98237 104.156 3.56236C105.001 3.14234 106.021 2.93234 107.214 2.93234C108.595 2.93234 109.709 3.30335 110.553 4.04537C111.412 4.77339 111.948 5.76042 112.163 7.00645L112.002 7.95148H108.944C108.917 7.26546 108.736 6.74044 108.401 6.37643C108.066 5.99842 107.57 5.80942 106.912 5.80942C106.295 5.80942 105.799 5.94942 105.424 6.22943C105.048 6.50944 104.861 6.84545 104.861 7.23746C104.861 7.54547 104.948 7.80447 105.122 8.01448C105.296 8.22449 105.565 8.40649 105.927 8.5605L108.522 9.56852C109.554 9.98854 110.285 10.5346 110.714 11.2066C111.157 11.8646 111.378 12.6276 111.378 13.4956C111.378 14.4337 111.15 15.2527 110.694 15.9527C110.238 16.6527 109.568 17.1987 108.683 17.5907C107.798 17.9828 106.745 18.1788 105.524 18.1788C104.519 18.1788 103.613 17.9968 102.809 17.6328C102.004 17.2687 101.354 16.7577 100.857 16.0997C100.375 15.4277 100.086 14.6577 99.9923 13.7896L100.153 12.8236H103.332Z" fill="#12FF80"/>
<path d="M118.166 17.8375V3.16107C118.166 2.80969 117.894 2.52467 117.559 2.52467H116.623C116.145 2.52467 115.756 2.11809 115.756 1.61581V0.636406C115.756 0.28502 115.484 0 115.149 0H113.326C112.99 0 112.718 0.28502 112.718 0.636406V2.00073C112.718 2.35212 112.99 2.63714 113.326 2.63714H114.782C115.261 2.63714 115.649 3.04371 115.649 3.54599V17.454C115.649 17.9556 115.261 18.3629 114.782 18.3629H113.326C112.991 18.3629 112.719 18.6479 112.719 18.9993V20.3636C112.719 20.715 112.991 21 113.326 21H115.149C115.485 21 115.757 20.715 115.757 20.3636V19.3842C115.757 18.8826 116.145 18.4753 116.624 18.4753H117.559C117.895 18.4753 118.167 18.1903 118.167 17.8389L118.166 17.8375Z" fill="#12FF80"/>
</svg>
