<svg width="16" height="16" viewBox="0 0 16 16" fill="none" xmlns="http://www.w3.org/2000/svg">
<path fill-rule="evenodd" clip-rule="evenodd" d="M2.66683 6.66659C2.66683 4.46059 4.46083 2.66659 6.66683 2.66659C8.87216 2.66659 10.6668 4.46059 10.6668 6.66659C10.6668 8.87259 8.87216 10.6666 6.66683 10.6666C4.46083 10.6666 2.66683 8.87259 2.66683 6.66659ZM14.4702 13.5286L10.8755 9.93392C11.5775 9.03125 12.0002 7.89925 12.0002 6.66659C12.0002 3.72125 9.61216 1.33325 6.66683 1.33325C3.72083 1.33325 1.3335 3.72125 1.3335 6.66659C1.3335 9.61192 3.72083 11.9999 6.66683 11.9999C7.89883 11.9999 9.03016 11.5779 9.93216 10.8766L13.5275 14.4713C13.7868 14.7306 14.2108 14.7306 14.4702 14.4713C14.7295 14.2119 14.7295 13.7879 14.4702 13.5286Z" />
</svg>
