<svg width="16" height="16" viewBox="0 0 16 16" fill="none" xmlns="http://www.w3.org/2000/svg">
<path fill-rule="evenodd" clip-rule="evenodd" d="M6.66642 8.00234C6.66642 7.75457 6.62782 7.51583 6.55631 7.29181L9.94627 5.23804C10.373 5.70604 10.9876 5.99967 11.671 5.99967C12.9599 5.99967 14.0044 4.9552 14.0044 3.66634C14.0044 2.37796 12.9597 1.33301 11.671 1.33301C10.3824 1.33301 9.33769 2.37796 9.33769 3.66634C9.33769 3.79028 9.34735 3.91197 9.36595 4.03068L5.80248 6.18957C5.40136 5.86405 4.89004 5.66901 4.33309 5.66901C3.04423 5.66901 1.99976 6.71348 1.99976 8.00234C1.99976 9.29072 3.04442 10.3357 4.33309 10.3357C4.89014 10.3357 5.4016 10.1404 5.8028 9.81464L9.36613 11.9734C9.34741 12.0925 9.33769 12.2146 9.33769 12.3389C9.33769 13.6277 10.3822 14.6722 11.671 14.6722C12.9599 14.6722 14.0044 13.6277 14.0044 12.3389C14.0044 11.05 12.9599 10.0055 11.671 10.0055C10.988 10.0055 10.3737 10.2989 9.94698 10.7664L6.55642 8.71228C6.62786 8.48841 6.66642 8.24987 6.66642 8.00234ZM11.671 2.66634C12.2232 2.66634 12.671 3.11426 12.671 3.66634C12.671 4.21882 12.2235 4.66634 11.671 4.66634C11.1185 4.66634 10.671 4.21882 10.671 3.66634C10.671 3.11426 11.1188 2.66634 11.671 2.66634ZM5.33309 8.00234C5.33309 7.44986 4.88557 7.00234 4.33309 7.00234C3.78061 7.00234 3.33309 7.44986 3.33309 8.00234C3.33309 8.55442 3.78088 9.00234 4.33309 9.00234C4.88529 9.00234 5.33309 8.55442 5.33309 8.00234ZM11.671 11.3389C12.2235 11.3389 12.671 11.7864 12.671 12.3389C12.671 12.8914 12.2235 13.3389 11.671 13.3389C11.1185 13.3389 10.671 12.8914 10.671 12.3389C10.671 11.7864 11.1185 11.3389 11.671 11.3389Z" />
</svg>
