<svg width="24" height="24" viewBox="0 0 24 24" fill="none" xmlns="http://www.w3.org/2000/svg">
<path fill-rule="evenodd" clip-rule="evenodd" d="M9.99976 12.0035C9.99976 11.6319 9.94186 11.2737 9.83458 10.9377L14.9195 7.85706C15.5596 8.55906 16.4816 8.99951 17.5067 8.99951C19.4399 8.99951 21.0067 7.4328 21.0067 5.49951C21.0067 3.56694 19.4397 1.99951 17.5067 1.99951C15.5737 1.99951 14.0067 3.56694 14.0067 5.49951C14.0067 5.68543 14.0211 5.86795 14.0491 6.04602L8.70384 9.28435C8.10216 8.79607 7.33518 8.50351 6.49976 8.50351C4.56647 8.50351 2.99976 10.0702 2.99976 12.0035C2.99976 13.9361 4.56675 15.5035 6.49976 15.5035C7.33534 15.5035 8.10253 15.2106 8.70432 14.722L14.0493 17.9602C14.0212 18.1388 14.0067 18.3218 14.0067 18.5083C14.0067 20.4416 15.5734 22.0083 17.5067 22.0083C19.4399 22.0083 21.0067 20.4416 21.0067 18.5083C21.0067 16.575 19.4399 15.0083 17.5067 15.0083C16.4822 15.0083 15.5606 15.4483 14.9206 16.1496L9.83476 13.0684C9.94192 12.7326 9.99976 12.3748 9.99976 12.0035ZM17.5067 3.99951C18.335 3.99951 19.0067 4.67139 19.0067 5.49951C19.0067 6.32823 18.3354 6.99951 17.5067 6.99951C16.6779 6.99951 16.0067 6.32823 16.0067 5.49951C16.0067 4.67139 16.6783 3.99951 17.5067 3.99951ZM7.99976 12.0035C7.99976 11.1748 7.32847 10.5035 6.49976 10.5035C5.67104 10.5035 4.99976 11.1748 4.99976 12.0035C4.99976 12.8316 5.67145 13.5035 6.49976 13.5035C7.32806 13.5035 7.99976 12.8316 7.99976 12.0035ZM17.5067 17.0083C18.3354 17.0083 19.0067 17.6796 19.0067 18.5083C19.0067 19.337 18.3354 20.0083 17.5067 20.0083C16.6779 20.0083 16.0067 19.337 16.0067 18.5083C16.0067 17.6796 16.6779 17.0083 17.5067 17.0083Z" fill="#B2B5B2" class="illustration-light-fill"/>
</svg>
