<svg width="24" height="24" viewBox="0 0 24 24" fill="none" xmlns="http://www.w3.org/2000/svg">
<path fill-rule="evenodd" clip-rule="evenodd" d="M9.9998 12.0035C9.9998 11.6319 9.9419 11.2737 9.83463 10.9377L14.9196 7.85706C15.5596 8.55906 16.4816 8.99951 17.5067 8.99951C19.44 8.99951 21.0067 7.4328 21.0067 5.49951C21.0067 3.56694 19.4397 1.99951 17.5067 1.99951C15.5737 1.99951 14.0067 3.56694 14.0067 5.49951C14.0067 5.68543 14.0212 5.86795 14.0491 6.04602L8.70389 9.28435C8.1022 8.79607 7.33523 8.50351 6.4998 8.50351C4.56651 8.50351 2.9998 10.0702 2.9998 12.0035C2.9998 13.9361 4.5668 15.5035 6.4998 15.5035C7.33538 15.5035 8.10257 15.2106 8.70436 14.722L14.0494 17.9602C14.0213 18.1388 14.0067 18.3218 14.0067 18.5083C14.0067 20.4416 15.5734 22.0083 17.5067 22.0083C19.44 22.0083 21.0067 20.4416 21.0067 18.5083C21.0067 16.575 19.44 15.0083 17.5067 15.0083C16.4822 15.0083 15.5607 15.4483 14.9206 16.1496L9.8348 13.0684C9.94196 12.7326 9.9998 12.3748 9.9998 12.0035ZM17.5067 3.99951C18.335 3.99951 19.0067 4.67139 19.0067 5.49951C19.0067 6.32823 18.3354 6.99951 17.5067 6.99951C16.678 6.99951 16.0067 6.32823 16.0067 5.49951C16.0067 4.67139 16.6784 3.99951 17.5067 3.99951ZM7.9998 12.0035C7.9998 11.1748 7.32852 10.5035 6.4998 10.5035C5.67108 10.5035 4.9998 11.1748 4.9998 12.0035C4.9998 12.8316 5.67149 13.5035 6.4998 13.5035C7.32811 13.5035 7.9998 12.8316 7.9998 12.0035ZM17.5067 17.0083C18.3354 17.0083 19.0067 17.6796 19.0067 18.5083C19.0067 19.337 18.3354 20.0083 17.5067 20.0083C16.678 20.0083 16.0067 19.337 16.0067 18.5083C16.0067 17.6796 16.678 17.0083 17.5067 17.0083Z"/>
</svg>
