<svg width="16" height="16" viewBox="0 0 16 16" fill="none" xmlns="http://www.w3.org/2000/svg">
<path fill-rule="evenodd" clip-rule="evenodd" d="M7.64068 14.9283C7.88008 15.0242 8.14729 15.0239 8.38649 14.9275C10.9317 13.9013 12.5636 12.4754 13.3881 10.841C13.547 10.5368 13.67 10.203 13.7634 9.84403C13.9493 9.12905 14.001 8.43373 13.9886 7.8064L13.9886 7.80579C13.9879 7.77281 13.9876 7.762 13.9876 7.76248V3.52C13.9876 2.94016 13.496 2.48187 12.9176 2.52246C12.5989 2.54482 12.4624 2.552 12.3036 2.552C10.7786 2.552 9.50952 1.96595 8.63889 1.2344C8.24399 0.902583 7.66151 0.925554 7.29397 1.28744L7.26815 1.30933C7.25527 1.3197 7.23587 1.33488 7.18595 1.37391L7.16362 1.39137C6.91062 1.56971 6.78242 1.65592 6.56856 1.77834C6.52367 1.80404 6.47879 1.82882 6.43386 1.85265C5.60226 2.28858 4.70112 2.552 3.68758 2.552C3.52938 2.552 3.39081 2.54472 3.07358 2.52246C2.49515 2.48187 2.00358 2.94016 2.00358 3.52V7.738C1.9447 8.53383 2.14425 9.98475 2.69665 10.9926C2.80489 11.2032 2.94397 11.4224 3.11221 11.6501C4.07443 13.0105 5.60511 14.1127 7.64068 14.9283ZM11.6134 9.91878L11.6051 9.9349C11.0449 11.0494 9.90136 12.0876 8.01151 12.9158C6.50396 12.2582 5.41 11.4354 4.73292 10.4784C4.61291 10.3156 4.53035 10.1855 4.46238 10.0537C4.11452 9.41836 3.96438 8.32672 4.00108 7.80866L4.00298 4.54572C5.24462 4.49606 6.35025 4.15461 7.36687 3.62169C7.43542 3.58533 7.49901 3.55023 7.56216 3.51407C7.7266 3.41994 7.8517 3.34288 7.99293 3.24846C9.055 3.96436 10.4037 4.48436 11.9876 4.54589V7.77C11.988 7.79632 11.9881 7.80714 11.9883 7.81796C11.9885 7.82552 11.9887 7.83307 11.989 7.84591C11.9981 8.30603 11.9586 8.83765 11.8277 9.34066C11.7699 9.56302 11.6978 9.75809 11.6134 9.91878Z" fill="#00B460"/>
</svg>
