<svg width="17" height="16" viewBox="0 0 17 16" fill="none" xmlns="http://www.w3.org/2000/svg">
<g clip-path="url(#clip0_5536_13138)">
<path fill-rule="evenodd" clip-rule="evenodd" d="M11.5379 1.16453C11.3066 0.940272 10.9373 0.94598 10.7131 1.17728C10.4888 1.40857 10.4945 1.77787 10.7258 2.00213L12.099 3.33356H5.11489C4.32764 3.33356 3.56914 3.6366 3.00714 4.1815C2.44453 4.72698 2.125 5.47073 2.125 6.25019V7.41685C2.125 7.73901 2.38616 8.00018 2.70833 8.00018C3.03049 8.00018 3.29165 7.73901 3.29165 7.41685V6.25019C3.29165 5.79199 3.47922 5.34877 3.81925 5.01909C4.15988 4.68883 4.62562 4.50021 5.11489 4.50021H12.0985L10.7258 5.83115C10.4945 6.0554 10.4888 6.4247 10.7131 6.656C10.9373 6.88729 11.3066 6.893 11.5379 6.66875L13.9445 4.33544C14.0578 4.22557 14.1218 4.07447 14.1218 3.91664C14.1218 3.7588 14.0578 3.60771 13.9445 3.49784L11.5379 1.16453ZM5.53369 9.34396C5.75795 9.57526 5.75224 9.94456 5.52094 10.1688L4.14813 11.4998H11.1313C11.6206 11.4998 12.0863 11.3112 12.427 10.981C12.767 10.6513 12.9545 10.2081 12.9545 9.74986V8.58321C12.9545 8.26104 13.2157 7.99988 13.5379 7.99988C13.86 7.99988 14.1212 8.26104 14.1212 8.58321V9.74986C14.1212 10.5293 13.8017 11.2731 13.2391 11.8186C12.6771 12.3635 11.9186 12.6665 11.1313 12.6665H4.14781L5.52094 13.9978C5.75224 14.2221 5.75795 14.5914 5.53369 14.8227C5.30944 15.054 4.94014 15.0597 4.70884 14.8354L2.30228 12.5021C2.26679 12.4677 2.23614 12.4293 2.21078 12.3878C2.15912 12.3036 2.12823 12.2053 2.12524 12.1C2.12508 12.0944 2.125 12.0888 2.125 12.0832C2.125 11.9147 2.19641 11.7629 2.31061 11.6564L4.70884 9.33122C4.94014 9.10696 5.30944 9.11267 5.53369 9.34396Z" fill="currentColor"/>
</g>
<defs>
<clipPath id="clip0_5536_13138">
<rect width="16" height="16" fill="white" transform="translate(0.125)"/>
</clipPath>
</defs>
</svg>
