<svg width="42" height="42" viewBox="0 0 42 42" fill="none" xmlns="http://www.w3.org/2000/svg">
<path d="M29.1358 38.2715C34.1733 38.2715 38.2716 34.1731 38.2716 29.1357C38.2716 24.0983 34.1733 19.9999 29.1358 19.9999C24.0983 19.9999 20 24.0982 20 29.1357C19.9999 34.1731 24.0982 38.2715 29.1358 38.2715ZM29.1358 21.3136C33.4489 21.3136 36.9578 24.8226 36.9578 29.1357C36.9578 33.4488 33.4488 36.9577 29.1358 36.9577C24.8228 36.9577 21.3138 33.4487 21.3138 29.1357C21.3138 24.8226 24.8227 21.3136 29.1358 21.3136Z" fill="currentColor"/>
<path d="M13.1358 22.272C18.1733 22.272 22.2716 18.1736 22.2716 13.1362C22.2716 8.09874 18.1733 4.00036 13.1358 4.00036C8.09831 4.00036 4 8.09868 4 13.1362C3.99993 18.1736 8.09825 22.272 13.1358 22.272ZM13.1358 5.31413C17.4489 5.31413 20.9578 8.82306 20.9578 13.1362C20.9578 17.4493 17.4488 20.9582 13.1358 20.9582C8.82275 20.9582 5.31376 17.4492 5.31376 13.1362C5.31376 8.82312 8.82269 5.31413 13.1358 5.31413Z" fill="currentColor"/>
<path d="M29.1358 34.8062C32.2625 34.8062 34.806 32.2627 34.806 29.136C34.806 26.0093 32.2625 23.4657 29.1358 23.4657C26.009 23.4657 23.4655 26.0093 23.4655 29.136C23.4655 32.2627 26.009 34.8062 29.1358 34.8062ZM29.1358 24.5596C31.6591 24.5596 33.7122 26.6127 33.7122 29.136C33.7122 31.6593 31.659 33.7124 29.1358 33.7124C26.6125 33.7124 24.5593 31.6593 24.5593 29.136C24.5593 26.6127 26.6124 24.5596 29.1358 24.5596Z" fill="currentColor" stroke="currentColor" stroke-width="0.3"/>
<path d="M13.1358 18.8062C16.2625 18.8062 18.806 16.2627 18.806 13.136C18.806 10.0093 16.2625 7.46575 13.1358 7.46575C10.009 7.46575 7.4655 10.0093 7.4655 13.136C7.46546 16.2627 10.009 18.8062 13.1358 18.8062ZM13.1358 8.55958C15.6591 8.55958 17.7122 10.6127 17.7122 13.136C17.7122 15.6593 15.659 17.7124 13.1358 17.7124C10.6125 17.7124 8.55933 15.6593 8.55933 13.136C8.55933 10.6127 10.6124 8.55958 13.1358 8.55958Z" fill="currentColor" stroke="currentColor" stroke-width="0.3"/>
<path d="M14.9706 34.2056L6.94116 26.1762M6.94116 26.1762L10.647 26.1762M6.94116 26.1762L6.94116 29.8821" stroke="currentColor" stroke-width="1.3" stroke-linecap="round"/>
<path d="M27.1765 6.94092L35.2059 14.9703M35.2059 14.9703L31.5 14.9703M35.2059 14.9703L35.2059 11.2644" stroke="currentColor" stroke-width="1.3" stroke-linecap="round"/>
</svg>
