<svg width="16" height="16" viewBox="0 0 16 16" fill="none" xmlns="http://www.w3.org/2000/svg">
<path fill-rule="evenodd" clip-rule="evenodd" d="M9.9987 3.33301C7.42203 3.33301 5.33203 5.42301 5.33203 7.99967C5.33203 10.577 7.42203 12.6663 9.9987 12.6663C12.576 12.6663 14.6654 10.577 14.6654 7.99967C14.6654 5.42301 12.576 3.33301 9.9987 3.33301ZM9.99871 4.6665C11.8374 4.6665 13.332 6.16184 13.332 7.99984C13.332 9.8385 11.8374 11.3332 9.99871 11.3332C8.16071 11.3332 6.66537 9.8385 6.66537 7.99984C6.66537 6.16184 8.16071 4.6665 9.99871 4.6665Z" fill="#162D45"/>
<path d="M4.53615 3.57218C2.63938 4.1965 1.33325 5.97027 1.33325 7.99742C1.33325 10.0246 2.63938 11.7983 4.53615 12.4227C4.88588 12.5378 5.26272 12.3476 5.37783 11.9979C5.49295 11.6481 5.30275 11.2713 4.95302 11.1562C3.59895 10.7105 2.66659 9.44429 2.66659 7.99742C2.66659 6.55055 3.59895 5.28436 4.95302 4.83867C5.30275 4.72355 5.49295 4.34672 5.37783 3.99699C5.26272 3.64726 4.88588 3.45706 4.53615 3.57218Z" fill="#162D45"/>
</svg>
