<svg xmlns="http://www.w3.org/2000/svg" width="24" height="24" viewBox="0 0 24 24" fill="none">
<g>
<rect width="24" height="24" rx="12" fill="#2D384B"/>
<path d="M12.0488 14.6106L14.5267 18.4996L16.8157 17.1731L13.5615 12.0439L12.0488 14.6106Z" fill="#28A0F0"/>
<path d="M18.9001 15.6128L18.8985 14.55L15.3427 9.01172L14.0234 11.2502L17.4561 16.8018L18.6972 16.0826C18.819 15.9838 18.8926 15.8387 18.9004 15.6821L18.9001 15.6128Z" fill="#28A0F0"/>
<path d="M4.00006 16.615L5.75273 17.6249L11.5852 8.27135L10.5953 8.24521C9.75188 8.23328 8.84338 8.45253 8.42634 9.13325L5.11426 14.2668L4 15.9788V16.615H4.00006Z" fill="white"/>
<path d="M14.9506 8.2717L12.3418 8.28117L6.43945 18.0211L8.50247 19.209L9.0635 18.2574L14.9506 8.2717Z" fill="white"/>
<path d="M19.9999 8.25794C19.9782 7.71235 19.6827 7.21286 19.22 6.92208L12.7343 3.19236C12.2766 2.96185 11.7047 2.96157 11.2463 3.19219C11.1921 3.21951 4.93905 6.84605 4.93905 6.84605C4.85253 6.88752 4.76919 6.93697 4.69076 6.99305C4.27767 7.28912 4.02587 7.74914 4 8.2546V15.9789L5.11426 14.2669L5.10451 8.30683C5.10584 8.28503 5.10858 8.26363 5.11242 8.24244C5.13757 8.10218 5.21589 7.97709 5.33379 7.89258C5.36323 7.8715 11.723 4.19022 11.7433 4.18008C11.8928 4.10499 12.0827 4.1042 12.2324 4.17779L18.6342 7.86019C18.7856 7.95663 18.8806 8.12019 18.889 8.29897V15.682C18.8812 15.8386 18.8193 15.9836 18.6976 16.0825L17.4565 16.8017L16.8161 17.1728L14.5271 18.4993L12.2058 19.8446C12.0808 19.8897 11.9346 19.8872 11.8107 19.8368L9.06425 18.2572L8.50321 19.2086L10.9713 20.6297C11.0529 20.6761 11.1257 20.7172 11.1853 20.7508C11.2778 20.8026 11.3407 20.8372 11.363 20.848C11.5384 20.9332 11.7908 20.9828 12.0182 20.9828C12.2268 20.9828 12.4301 20.9445 12.6225 20.8691L19.3648 16.9644C19.7518 16.6646 19.9794 16.2125 19.9999 15.7226V8.25794Z" fill="#96BEDC"/>
</g>
</svg>