<svg xmlns="http://www.w3.org/2000/svg" width="24" height="24" viewBox="0 0 24 24" fill="none">
<g>
<rect width="24" height="24" rx="12" fill="#E84142"/>
<path d="M16.233 12.3118C16.6487 11.5937 17.3196 11.5937 17.7353 12.3118L20.3243 16.8567C20.7401 17.5748 20.3999 18.1606 19.5684 18.1606H14.3527C13.5306 18.1606 13.1904 17.5748 13.5967 16.8567L16.233 12.3118ZM11.2251 3.5622C11.6408 2.84409 12.3023 2.84409 12.718 3.5622L13.2944 4.60157L14.655 6.99212C14.9857 7.67244 14.9857 8.47559 14.655 9.1559L10.0912 17.0646C9.67549 17.7071 8.98572 18.1134 8.22037 18.1606H4.43139C3.59989 18.1606 3.25974 17.5842 3.67549 16.8567L11.2251 3.5622Z" fill="white"/>
</g>
</svg>