<svg width="24" height="24" viewBox="0 0 24 24" fill="none" xmlns="http://www.w3.org/2000/svg">
<rect width="24" height="24" rx="12" fill="#0B0E11"/>
<path d="M6.59558 12L6.60424 15.1731L9.30039 16.7596V18.6173L5.02635 16.1106V11.0721L6.59558 12ZM6.59558 8.82693V10.676L5.02539 9.74712V7.89808L6.59558 6.96924L8.17347 7.89808L6.59558 8.82693ZM10.4264 7.89808L11.9965 6.96924L13.5744 7.89808L11.9965 8.82693L10.4264 7.89808Z" fill="#F8D12F"/>
<path d="M7.73047 14.5154V12.6577L9.30066 13.5865V15.4356L7.73047 14.5154ZM10.4266 17.425L11.9968 18.3539L13.5747 17.425V19.274L11.9968 20.2029L10.4266 19.274V17.425ZM15.8266 7.89808L17.3968 6.96924L18.9747 7.89808V9.74712L17.3968 10.676V8.82693L15.8266 7.89808ZM17.3968 15.1731L17.4055 12L18.9757 11.0712V16.1096L14.7016 18.6164V16.7587L17.3968 15.1731Z" fill="#F8D12F"/>
<path d="M16.2714 14.5154L14.7012 15.4356V13.5865L16.2714 12.6577V14.5154Z" fill="#F8D12F"/>
<path d="M16.2709 9.48462L16.2795 11.3423L13.5757 12.9288V16.1096L12.0055 17.0298L10.4353 16.1096V12.9288L7.73143 11.3423V9.48462L9.30835 8.55577L11.9959 10.15L14.6997 8.55577L16.2776 9.48462H16.2709ZM7.73047 6.3125L11.9968 3.79712L16.2709 6.3125L14.7007 7.24135L11.9968 5.64712L9.30066 7.24135L7.73047 6.3125Z" fill="#F8D12F"/>
</svg>
