<svg width="24" height="24" viewBox="0 0 24 24" fill="none" xmlns="http://www.w3.org/2000/svg">
<g>
<rect width="24" height="24" rx="12" fill="#8247E5"/>
<path d="M15.928 9.38649C15.6399 9.22123 15.2716 9.22123 14.9457 9.38649L12.6505 10.7463L11.0921 11.6104L8.83945 12.9655C8.55137 13.1307 8.18301 13.1307 7.85716 12.9655L6.09564 11.8937C5.80757 11.7284 5.6045 11.3979 5.6045 11.0296V8.97099C5.6045 8.64047 5.76979 8.31468 6.09564 8.10693L7.85716 7.07762C8.14523 6.91236 8.51359 6.91236 8.83945 7.07762L10.601 8.14943C10.889 8.31468 11.0921 8.6452 11.0921 9.01348V10.3733L12.6505 9.46676V8.06916C12.6505 7.73864 12.4853 7.41285 12.1594 7.2051L8.88195 5.26924C8.59387 5.10398 8.22552 5.10398 7.89966 5.26924L4.54193 7.2476C4.21607 7.41285 4.05078 7.74337 4.05078 8.06916V11.9362C4.05078 12.2667 4.21607 12.5925 4.54193 12.8002L7.86188 14.7361C8.14995 14.9013 8.51831 14.9013 8.84417 14.7361L11.0968 13.4188L12.6553 12.5122L14.9079 11.1949C15.196 11.0296 15.5644 11.0296 15.8902 11.1949L17.6517 12.2242C17.9398 12.3894 18.1429 12.72 18.1429 13.0882V15.1469C18.1429 15.4774 17.9776 15.8032 17.6517 16.0109L15.9327 17.0402C15.6446 17.2055 15.2763 17.2055 14.9504 17.0402L13.1842 16.0109C12.8961 15.8457 12.693 15.5152 12.693 15.1469V13.8295L11.1346 14.7361V16.0959C11.1346 16.4264 11.2999 16.7522 11.6258 16.96L14.9457 18.8958C15.2338 19.0611 15.6021 19.0611 15.928 18.8958L19.2479 16.96C19.536 16.7947 19.7391 16.4642 19.7391 16.0959V12.1864C19.7391 11.8559 19.5738 11.5301 19.2479 11.3224L15.928 9.38649Z" fill="white"/>
</g>
</svg>
