<svg width="24" height="24" viewBox="0 0 24 24" fill="none" xmlns="http://www.w3.org/2000/svg">
<path fill-rule="evenodd" clip-rule="evenodd" d="M16.3615 16.7891L13.0765 15.4921C12.5635 15.2881 11.9805 15.5411 11.7795 16.0551C11.5765 16.5681 11.8285 17.1491 12.3415 17.3511L13.5075 17.8121C12.8325 18.0471 12.1215 18.1821 11.3975 18.1821H11.3825C9.1135 18.1771 6.9925 16.9541 5.8455 14.9911C5.5685 14.5151 4.9555 14.3531 4.4785 14.6321C4.0015 14.9101 3.8405 15.5221 4.1195 15.9991C5.6215 18.5721 8.4025 20.1751 11.3795 20.1821H11.3975C12.3535 20.1821 13.2945 20.0031 14.1875 19.6891L13.8275 20.6501C13.6335 21.1671 13.8955 21.7431 14.4135 21.9371C14.5285 21.9801 14.6465 22.0011 14.7635 22.0011C15.1685 22.0011 15.5495 21.7541 15.7005 21.3511L16.9305 18.0691C17.1225 17.5591 16.8695 16.9891 16.3615 16.7891Z"/>
<path fill-rule="evenodd" clip-rule="evenodd" d="M15.7932 5.6817C16.4722 5.6817 17.0232 6.2337 17.0232 6.9117C17.0232 7.5897 16.4722 8.1417 15.7932 8.1417C15.1152 8.1417 14.5642 7.5897 14.5642 6.9117C14.5642 6.2337 15.1152 5.6817 15.7932 5.6817ZM8.2052 3.9997C8.8832 3.9997 9.4352 4.5517 9.4352 5.2297C9.4352 5.9087 8.8832 6.4597 8.2052 6.4597C7.5262 6.4597 6.9752 5.9087 6.9752 5.2297C6.9752 4.5517 7.5262 3.9997 8.2052 3.9997ZM20.9352 13.0067C20.3092 11.3387 19.1242 10.1007 17.7072 9.4987C18.5012 8.9107 19.0232 7.9737 19.0232 6.9117C19.0232 5.1307 17.5742 3.6817 15.7932 3.6817C14.0132 3.6817 12.5642 5.1307 12.5642 6.9117C12.5642 7.9737 13.0862 8.9107 13.8802 9.4987C13.4832 9.6667 13.1022 9.8727 12.7502 10.1377C12.0892 9.0677 11.1722 8.2637 10.1182 7.8177C10.9122 7.2287 11.4352 6.2917 11.4352 5.2297C11.4352 3.4497 9.9852 1.9997 8.2052 1.9997C6.4242 1.9997 4.9752 3.4497 4.9752 5.2297C4.9752 6.2917 5.4972 7.2287 6.2912 7.8177C4.8742 8.4177 3.6892 9.6577 3.0642 11.3257C2.8702 11.8427 3.1322 12.4187 3.6482 12.6137C4.1652 12.8037 4.7422 12.5457 4.9372 12.0287C5.5332 10.4377 6.8162 9.4097 8.2052 9.4097C9.4932 9.4097 10.6842 10.3007 11.3262 11.6987C11.0642 12.1007 10.8312 12.5327 10.6522 13.0077C10.4592 13.5247 10.7212 14.1007 11.2382 14.2947C11.3542 14.3377 11.4722 14.3587 11.5892 14.3587C11.9932 14.3587 12.3752 14.1117 12.5252 13.7087C13.1222 12.1187 14.4042 11.0907 15.7932 11.0907C17.1822 11.0907 18.4652 12.1187 19.0622 13.7097C19.2562 14.2277 19.8322 14.4867 20.3502 14.2947C20.8662 14.1007 21.1282 13.5247 20.9352 13.0067Z"/>
</svg>
