<?xml version="1.0" standalone="no"?>
<!DOCTYPE svg PUBLIC "-//W3C//DTD SVG 20010904//EN"
 "http://www.w3.org/TR/2001/REC-SVG-20010904/DTD/svg10.dtd">
<svg version="1.0" xmlns="http://www.w3.org/2000/svg"
 width="1100.000000pt" height="1100.000000pt" viewBox="0 0 1100.000000 1100.000000"
 preserveAspectRatio="xMidYMid meet">
<metadata>
Created by potrace 1.14, written by Peter Selinger 2001-2017
</metadata>
<g transform="translate(0.000000,1100.000000) scale(0.100000,-0.100000)"
fill="#000000" stroke="none">
<path d="M3495 7620 c-130 -8 -228 -29 -317 -68 l-58 -25 0 -429 0 -428 39 20
c85 43 219 68 454 85 l87 7 0 -421 c0 -330 -3 -421 -12 -421 -7 0 -67 -5 -133
-10 -156 -14 -262 -35 -357 -72 l-78 -31 0 -428 0 -428 60 25 c101 41 200 63
360 82 l155 18 3 421 2 420 38 7 c61 10 340 5 437 -7 l90 -12 3 -419 c2 -396
1 -418 -15 -411 -26 11 -408 19 -487 11 l-66 -8 0 -422 0 -423 53 9 c67 12
362 15 450 4 l67 -8 0 411 c0 232 4 412 9 415 17 11 298 -50 484 -105 l67 -20
0 -412 0 -412 63 -18 c34 -10 161 -49 282 -87 167 -52 524 -140 570 -140 3 0
5 -92 5 -205 0 -131 4 -205 10 -205 8 0 131 -20 348 -56 l32 -5 0 201 0 202
38 -6 c36 -6 149 -19 265 -31 l57 -6 0 -198 0 -198 148 -6 c81 -3 166 -3 190
0 l42 6 0 192 0 192 89 12 c445 57 766 341 883 779 28 109 36 337 14 451 -44
233 -176 372 -425 447 -8 3 7 25 44 62 135 135 225 315 261 524 20 114 14 314
-11 398 -82 269 -317 414 -762 471 l-93 12 0 196 0 197 -167 17 c-93 10 -178
20 -190 23 l-23 6 0 -200 0 -200 -38 5 c-20 3 -100 17 -177 32 l-140 26 -3
201 -2 201 -188 46 c-104 26 -191 47 -195 47 -4 0 -7 -88 -7 -195 0 -179 -1
-195 -17 -195 -10 0 -90 20 -178 45 -88 25 -163 45 -167 45 -5 0 -8 -180 -8
-400 0 -313 -3 -400 -12 -400 -7 0 -125 41 -263 90 -137 50 -256 93 -262 95
-10 3 -13 100 -15 417 l-3 413 -115 38 c-105 35 -407 117 -430 117 -6 0 -10
-153 -10 -415 0 -228 -1 -415 -2 -415 -2 0 -55 7 -118 15 -69 10 -181 15 -280
14 l-165 -1 -3 421 -2 421 -43 -2 c-23 0 -96 -4 -162 -8z m945 -900 c69 -17
185 -49 258 -72 l132 -41 0 -409 c0 -224 -2 -408 -5 -408 -3 0 -61 16 -128 36
-67 20 -189 50 -272 68 l-150 33 -3 411 -2 412 23 0 c12 0 79 -14 147 -30z
m1865 -379 c66 -11 195 -30 286 -41 189 -23 276 -46 335 -89 122 -90 141 -317
36 -433 -75 -83 -170 -107 -362 -89 -134 12 -435 56 -451 66 -5 4 -9 133 -9
312 l0 305 23 -5 c12 -3 76 -15 142 -26z m-1206 -650 c144 -49 265 -92 271
-96 15 -9 14 -805 -2 -805 -6 0 -130 39 -275 87 l-263 87 0 408 c0 224 2 408
4 408 3 0 122 -40 265 -89z m1206 -591 c72 -11 198 -24 280 -30 341 -24 405
-37 480 -94 42 -33 83 -115 91 -186 7 -63 -9 -157 -37 -211 -30 -61 -103 -117
-182 -141 -64 -19 -85 -20 -256 -15 -156 5 -485 37 -528 52 -10 3 -13 77 -13
325 0 298 1 320 18 320 9 0 76 -9 147 -20z"/>
</g>
</svg>
