<?xml version="1.0" standalone="no"?>
<!DOCTYPE svg PUBLIC "-//W3C//DTD SVG 20010904//EN"
 "http://www.w3.org/TR/2001/REC-SVG-20010904/DTD/svg10.dtd">
<svg version="1.0" xmlns="http://www.w3.org/2000/svg"
 width="700.000000pt" height="700.000000pt" viewBox="0 0 700.000000 700.000000"
 preserveAspectRatio="xMidYMid meet">
<metadata>
Created by potrace 1.14, written by Peter Selinger 2001-2017
</metadata>
<g transform="translate(0.000000,700.000000) scale(0.100000,-0.100000)"
fill="#000000" stroke="none">
<path d="M1704 6703 c-71 -13 -138 -48 -195 -100 -38 -35 -91 -125 -104 -178
-4 -16 -9 -181 -10 -365 -2 -297 -4 -340 -20 -380 -49 -120 -121 -189 -249
-237 -34 -13 -99 -17 -373 -18 -368 -3 -403 -6 -477 -41 -99 -46 -165 -119
-202 -219 -16 -46 -18 -99 -19 -690 -2 -662 0 -698 39 -774 26 -50 106 -126
163 -154 88 -45 138 -49 588 -45 l420 3 67 32 c113 53 180 129 218 248 10 31
13 164 12 585 -1 598 1 621 58 710 55 85 124 136 225 166 55 16 171 17 1565
18 1430 2 1507 3 1555 20 110 40 196 122 237 226 22 54 22 66 23 475 0 416 0
421 -23 481 -42 111 -144 202 -262 235 -64 17 -3141 20 -3236 2z"/>
<path d="M3067 4234 c-1 -1 -30 -4 -64 -7 -122 -9 -258 -100 -314 -208 -42
-83 -46 -123 -45 -539 l2 -395 33 -72 c56 -120 153 -198 283 -227 89 -20 808
-20 888 0 153 39 267 152 301 301 15 65 14 771 0 836 -33 144 -170 275 -316
303 -29 5 -762 13 -768 8z"/>
<path d="M5515 3486 c-123 -41 -195 -101 -246 -203 l-34 -68 -5 -595 -5 -595
-27 -58 c-52 -111 -131 -179 -253 -218 -32 -11 -347 -14 -1540 -15 -825 -1
-1515 -4 -1534 -8 -142 -28 -270 -153 -300 -294 -5 -23 -8 -226 -7 -450 l1
-407 33 -67 c48 -98 127 -168 230 -206 43 -15 175 -17 1634 -17 1346 -1 1595
1 1644 13 68 17 147 65 194 118 35 40 78 124 87 171 3 16 6 179 7 363 1 306 3
340 21 389 23 63 89 141 150 176 92 55 121 58 505 60 383 3 389 3 486 60 60
35 129 117 156 183 22 57 22 58 24 702 2 708 1 711 -58 803 -38 60 -97 108
-174 144 l-59 28 -445 2 c-350 2 -454 -1 -485 -11z"/>
</g>
</svg>
