<svg width="24" height="24" viewBox="0 0 24 24" fill="none" xmlns="http://www.w3.org/2000/svg">
<g clip-path="url(#clip0_734_31408)">
<path fill-rule="evenodd" clip-rule="evenodd" d="M11.6751 21.9362C11.9024 22.0215 12.153 22.0213 12.3801 21.9355C16.3256 20.4449 18.8302 18.3949 20.0893 16.0572C20.3258 15.6341 20.5108 15.1643 20.652 14.6561C20.8152 14.069 20.9145 13.4521 20.9643 12.8264C20.9978 12.4042 21.0051 12.0411 20.9984 11.717C20.9968 11.647 20.9968 11.647 20.9967 11.654V5.279C20.9967 4.69989 20.5063 4.24186 19.9285 4.28133C19.4286 4.31547 19.1775 4.328 18.8997 4.328C16.2814 4.328 14.1188 3.39264 12.6185 2.21372C12.2325 1.91033 11.6832 1.93214 11.3224 2.2652C11.3009 2.28505 11.275 2.30621 11.2361 2.33553C11.206 2.35816 11.1692 2.38486 11.0717 2.45561C10.6547 2.73402 10.4125 2.88668 10.0487 3.08197C9.96809 3.12523 9.88733 3.16697 9.80633 3.20715C8.38453 3.90539 6.84304 4.328 5.10368 4.328C4.82433 4.328 4.57508 4.31557 4.07383 4.28133C3.49606 4.24186 3.00568 4.69989 3.00568 5.279V11.606C2.92156 12.7826 3.22577 14.8548 4.05825 16.2732C4.2172 16.5679 4.42462 16.8738 4.68449 17.2033C6.16077 19.1604 8.51831 20.7508 11.6751 21.9362ZM18.3406 15.0866L18.3318 15.1027C17.349 16.9318 15.3338 18.6175 12.0257 19.9282C9.38073 18.8858 7.45371 17.5534 6.26797 15.9817C6.06117 15.7192 5.91635 15.5056 5.79997 15.2907C5.45183 14.6964 5.22452 13.9393 5.10008 13.0916C5.01446 12.5084 4.98694 11.9106 5.00328 11.6753L5.00529 6.32759C5.03774 6.32787 5.07044 6.328 5.10368 6.328C7.17953 6.328 9.01103 5.82588 10.6915 5.0006C10.7956 4.94898 10.8954 4.8974 10.9946 4.84414C11.3643 4.6457 11.6253 4.48652 12.0003 4.23889C13.7671 5.4456 16.1092 6.328 18.8997 6.328C18.9324 6.328 18.9647 6.32787 18.9967 6.32759V11.654C18.9971 11.682 18.9974 11.6955 18.9976 11.709C18.9979 11.7216 18.9982 11.7343 18.9988 11.7587C19.0043 12.0208 18.9983 12.3192 18.9705 12.6679C18.9303 13.1745 18.8508 13.6681 18.725 14.1207C18.6235 14.4861 18.4952 14.8112 18.3406 15.0866Z" />
</g>
<defs>
<clipPath id="clip0_734_31408">
<rect width="24" height="24" fill="white"/>
</clipPath>
</defs>
</svg>
