<svg width="16" height="16" viewBox="0 0 16 16" fill="none" xmlns="http://www.w3.org/2000/svg">
<path d="M8 15C11.866 15 15 11.866 15 8C15 4.13401 11.866 1 8 1C4.13401 1 1 4.13401 1 8C1 11.866 4.13401 15 8 15Z" fill="currentColor"/>
<path class="illustration-background-fill" fill-rule="evenodd" clip-rule="evenodd" d="M9 7H11C11.5523 7 12 7.44772 12 8C12 8.55228 11.5523 9 11 9H9V11C9 11.5523 8.55228 12 8 12C7.44772 12 7 11.5523 7 11V9H5C4.44772 9 4 8.55228 4 8C4 7.44772 4.44772 7 5 7H7V5C7 4.44772 7.44772 4 8 4C8.55228 4 9 4.44772 9 5V7Z" />
</svg>
