<svg width="136" height="141" viewBox="0 0 136 141" fill="none" xmlns="http://www.w3.org/2000/svg">class="illustration
<path d="M123.728 16.7071L120.661 13.6416L104.852 29.4506L102.05 26.6474L98.9846 29.713L104.852 35.5817L123.728 16.7071Z" class="illustration-main-fill"/>
<path d="M5.13578 34.6848H26.8135L26.8126 13.008H90.1174C88.4496 16.2612 87.5084 19.9464 87.5084 23.8464C87.5084 34.7412 94.8528 43.9519 104.85 46.7899V60.6977H109.186V47.5915C109.901 47.6562 110.623 47.6909 111.354 47.6909C124.502 47.6909 135.199 36.9941 135.199 23.8457C135.199 10.6983 124.502 0.0012207 111.354 0.0012207C103.965 0.0012207 97.3501 3.37898 92.973 8.67218H23.745L0.797852 31.6193V125.731H61.4939V121.395H5.13225L5.13578 34.6848ZM111.355 4.33681C122.113 4.33681 130.864 13.0884 130.864 23.8462C130.864 34.6039 122.113 43.3555 111.355 43.3555C100.597 43.3555 91.8456 34.6039 91.8456 23.8462C91.8456 13.0884 100.597 4.33681 111.355 4.33681ZM8.20058 30.3504L22.4777 16.0733V30.3504H8.20058Z" class="illustration-light-fill"/>
<path d="M130.863 130.063H113.521V134.399H135.199V112.721H130.863V130.063Z" class="illustration-light-fill"/>
<path d="M113.523 69.3671H130.865V86.709H135.201V65.0322H113.523V69.3671Z" class="illustration-light-fill"/>
<path d="M70.1672 112.723H65.8323V134.401H87.5091V130.065H70.1672V112.723Z" class="illustration-light-fill"/>
<path d="M65.8328 86.7095H70.1676V69.3676H87.5096V65.0327H65.8328V86.7095Z" class="illustration-light-fill"/>
<path d="M126.529 101.885V97.549C126.529 93.9632 123.611 91.0455 120.025 91.0455C116.439 91.0455 113.522 93.9629 113.522 97.549V104.779C113.522 105.573 112.876 106.22 112.081 106.22C111.4 106.22 110.822 105.756 110.674 105.091L107.721 91.8012C107.056 88.805 104.445 86.7105 101.374 86.7105C99.4395 86.7105 97.6206 87.5618 96.3813 89.0468C95.1428 90.5309 94.63 92.4733 94.976 94.3765L97.8982 110.448C97.901 110.464 97.9057 110.49 97.8785 110.523C97.8513 110.556 97.8241 110.556 97.8082 110.556C97.7688 110.556 97.7341 110.531 97.721 110.493L88.5458 82.9675C87.5643 80.021 84.8165 78.04 81.7097 78.04C77.7355 78.04 74.5032 81.2736 74.5032 85.2475V85.8944C74.5032 86.6697 74.6279 87.4365 74.8735 88.1734L83.2425 113.28C83.5379 114.166 83.3944 115.109 82.8479 115.866C82.3013 116.624 81.4529 117.059 80.5182 117.059H74.5033V121.395H80.5182C82.8629 121.395 84.9937 120.304 86.3643 118.402C87.7359 116.5 88.0959 114.134 87.3543 111.909L78.9853 86.8025C78.8878 86.509 78.8381 86.2034 78.8381 85.894V85.2472C78.8381 83.6637 80.1262 82.3756 81.7097 82.3756C82.9472 82.3756 84.0422 83.165 84.4342 84.3387L93.6094 111.864C94.2131 113.675 95.9006 114.891 97.8094 114.891C99.1256 114.891 100.365 114.311 101.208 113.301C102.052 112.291 102.4 110.968 102.165 109.673L99.2418 93.6008C99.0833 92.7327 99.4677 92.1158 99.7096 91.8242C99.9524 91.5336 100.491 91.0461 101.374 91.0461C102.397 91.0461 103.266 91.7436 103.489 92.743L106.442 106.033C107.033 108.696 109.352 110.556 112.081 110.556C115.266 110.556 117.857 107.965 117.857 104.781L117.858 97.5497C117.858 96.3544 118.83 95.3822 120.025 95.3822C121.22 95.3822 122.193 96.3544 122.193 97.5497V101.886C122.193 105.471 125.11 108.389 128.696 108.389H135.2V104.053H128.696C127.501 104.052 126.529 103.08 126.529 101.885Z" class="illustration-main-fill"/>
<path d="M83.1752 17.342H31.1504V34.684H83.1752V17.342ZM78.8394 30.3488H35.4857V21.6779H78.8394V30.3488Z" fill="#636669"/>
<path d="M13.8079 39.0193C11.4173 39.0193 9.47205 40.9646 9.47205 43.3551V47.691C9.47205 50.0816 11.4174 52.0268 13.8079 52.0268H18.1437C20.5343 52.0268 22.4796 50.0815 22.4796 47.691V43.3551C22.4796 40.9645 20.5342 39.0193 18.1437 39.0193H13.8079ZM18.1428 47.6902H13.8079V43.3544H18.1437L18.1465 47.6902H18.1428H18.1428Z" fill="#636669"/>
<path d="M31.148 39.0193C28.7574 39.0193 26.8121 40.9646 26.8121 43.3551V47.691C26.8121 50.0816 28.7575 52.0268 31.148 52.0268H35.4838C37.8744 52.0268 39.8197 50.0815 39.8197 47.691V43.3551C39.8197 40.9645 37.8743 39.0193 35.4838 39.0193H31.148ZM35.4829 47.6902H31.147V43.3544H35.4829L35.4857 47.6902H35.4829Z" fill="#636669"/>
<path d="M48.4904 39.0193C46.0998 39.0193 44.1545 40.9646 44.1545 43.3551V47.691C44.1545 50.0816 46.0999 52.0268 48.4904 52.0268H52.8262C55.2168 52.0268 57.1621 50.0815 57.1621 47.691V43.3551C57.1621 40.9645 55.2167 39.0193 52.8262 39.0193H48.4904ZM52.8253 47.6902H48.4894V43.3544H52.8253L52.8281 47.6902H52.8253Z" fill="#636669"/>
<path d="M70.1672 52.0249C72.5578 52.0249 74.503 50.0795 74.503 47.689V43.3532C74.503 40.9626 72.5577 39.0173 70.1672 39.0173H65.8313C63.4407 39.0173 61.4955 40.9627 61.4955 43.3532V47.689C61.4955 50.0796 63.4408 52.0249 65.8313 52.0249H70.1672ZM65.8323 43.3539H70.1681L70.1709 47.6897H70.1681H65.8323V43.3539Z" fill="#636669"/>
<path d="M91.8464 47.6905V43.3546C91.8464 40.964 89.9011 39.0188 87.5106 39.0188H83.1747C80.7841 39.0188 78.8389 40.9641 78.8389 43.3546V47.6905C78.8389 50.0811 80.7842 52.0263 83.1747 52.0263H87.5106C89.9012 52.0254 91.8464 50.081 91.8464 47.6905ZM83.1754 43.3546H87.5113L87.5141 47.6905H87.5113H83.1754V43.3546Z" fill="#636669"/>
<path d="M9.47119 56.3616H61.496V60.6974H9.47119V56.3616Z" fill="#636669"/>
<path d="M57.1615 65.0327H61.4973V69.3686H57.1615V65.0327Z" fill="#636669"/>
<path d="M9.47119 65.0327H52.8248V69.3686H9.47119V65.0327Z" fill="#636669"/>
<path d="M9.47119 73.7041H61.496V78.0399H9.47119V73.7041Z" fill="#636669"/>
<path d="M35.4848 86.7097H9.47119V108.387H35.4848V86.7097ZM31.1499 104.052H13.808V91.0448H31.1499V104.052Z" fill="#636669"/>
<path d="M9.47119 112.723H13.807V117.059H9.47119V112.723Z" fill="#636669"/>
<path d="M18.1423 112.723H61.4959V117.059H18.1423V112.723Z" fill="#636669"/>
<path d="M39.8191 104.052H61.4969V108.388H39.8191V104.052Z" fill="#636669"/>
<path d="M39.8191 95.3809H61.4969V99.7167H39.8191V95.3809Z" fill="#636669"/>
<path d="M39.8191 86.7097H61.4969V91.0456H39.8191V86.7097Z" fill="#636669"/>
</svg>
