<svg width="22" height="22" viewBox="0 0 22 22" fill="none" xmlns="http://www.w3.org/2000/svg">
<rect x="10.083" y="5.5" width="1.83333" height="7.33333" rx="0.916667" fill="currentColor"/>
<path d="M11.0003 14.4375C11.6332 14.4375 12.1462 14.9505 12.1462 15.5833C12.1462 16.2162 11.6332 16.7292 11.0003 16.7292C10.3675 16.7292 9.85449 16.2162 9.85449 15.5833C9.85449 14.9505 10.3675 14.4375 11.0003 14.4375Z" fill="currentColor"/>
<path fill-rule="evenodd" clip-rule="evenodd" d="M20.1663 11.0002C20.1663 16.0628 16.0623 20.1668 10.9997 20.1668C5.93706 20.1668 1.83301 16.0628 1.83301 11.0002C1.83301 5.93755 5.93706 1.8335 10.9997 1.8335C16.0623 1.8335 20.1663 5.93755 20.1663 11.0002ZM3.66634 11.0002C3.66634 15.0503 6.94959 18.3335 10.9997 18.3335C15.0498 18.3335 18.333 15.0503 18.333 11.0002C18.333 6.95007 15.0498 3.66683 10.9997 3.66683C6.94959 3.66683 3.66634 6.95007 3.66634 11.0002Z" fill="currentColor"/>
</svg>
