<svg width="52" height="49" viewBox="0 0 52 49" fill="none" xmlns="http://www.w3.org/2000/svg">
<circle cx="24.51" cy="31.846" r="17" fill="#BEBEBE" fill-opacity="0.1"/>
<path fill-rule="evenodd" clip-rule="evenodd" d="M27.4289 14.0938C29.5721 12.0143 32.479 10.846 35.51 10.846C38.541 10.846 41.4479 12.0143 43.5911 14.0938C45.7344 16.1733 46.9385 18.9938 46.9385 21.9347C46.9385 26.7826 48.006 29.7366 48.9451 31.4069C49.4177 32.2477 49.8705 32.7862 50.1692 33.0921C50.3191 33.2457 50.4318 33.3423 50.491 33.3901C50.5116 33.4068 50.5258 33.4175 50.5327 33.4228C51.3421 33.9709 51.6989 34.9637 51.4118 35.8837C51.1199 36.8191 50.2314 37.4588 49.2241 37.4588H21.7959C20.7886 37.4588 19.9001 36.8191 19.6083 35.8837C19.3212 34.9637 19.6779 33.9709 20.4873 33.4228C20.4943 33.4175 20.5084 33.4068 20.529 33.3901C20.5882 33.3423 20.7009 33.2457 20.8509 33.0921C21.1495 32.7862 21.6023 32.2477 22.075 31.4069C23.014 29.7366 24.0816 26.7826 24.0816 21.9347C24.0816 18.9938 25.2856 16.1733 27.4289 14.0938ZM44.659 33.0233C43.425 30.6234 42.3671 27.0616 42.3671 21.9347C42.3671 20.1701 41.6446 18.4779 40.3587 17.2302C39.0727 15.9824 37.3286 15.2815 35.51 15.2815C33.6914 15.2815 31.9473 15.9824 30.6613 17.2302C29.3754 18.4779 28.6529 20.1701 28.6529 21.9347C28.6529 27.0616 27.595 30.6234 26.3611 33.0233H44.659ZM31.727 39.2367C32.8189 38.6221 34.2176 38.9828 34.851 40.0422C34.9179 40.1543 35.0141 40.2472 35.1297 40.3119C35.2454 40.3765 35.3765 40.4105 35.51 40.4105C35.6435 40.4105 35.7746 40.3765 35.8903 40.3119C36.0059 40.2472 36.1021 40.1543 36.169 40.0422C36.8025 38.9828 38.2011 38.6221 39.2931 39.2367C40.385 39.8513 40.7567 41.2084 40.1233 42.2678C39.6545 43.052 38.9816 43.7029 38.1719 44.1554C37.3623 44.6078 36.4443 44.846 35.51 44.846C34.5757 44.846 33.6577 44.6078 32.8481 44.1554C32.0385 43.7029 31.3656 43.052 30.8967 42.2678C30.2633 41.2084 30.635 39.8513 31.727 39.2367Z" fill="#DBDBDB"/>
<path d="M0 17.846H5.684V16.334H2.45L2.436 16.306L5.768 12.246V11H0.252V12.512H3.276L3.29 12.554L0 16.586V17.846Z" fill="#DBDBDB"/>
<path d="M10 13.846H15.684V12.334H12.45L12.436 12.306L15.768 8.246V7H10.252V8.512H13.276L13.29 8.554L10 12.586V13.846Z" fill="#DBDBDB"/>
<path d="M2 6.846H7.684V5.334H4.45L4.436 5.306L7.768 1.246V0H2.252V1.512H5.276L5.29 1.554L2 5.586V6.846Z" fill="#DBDBDB"/>
</svg>
