<svg width="24" height="24" viewBox="0 0 24 24" fill="none" xmlns="http://www.w3.org/2000/svg">
<path fill-rule="evenodd" clip-rule="evenodd" d="M12 10C12.552 10 13 10.3725 13 10.8333V14.1667C13 14.6267 12.552 15 12 15C11.447 15 11 14.6267 11 14.1667V10.8333C11 10.3725 11.447 10 12 10Z"/>
<path fill-rule="evenodd" clip-rule="evenodd" d="M12 16C12.552 16 13 16.448 13 17C13 17.552 12.552 18 12 18C11.448 18 11 17.552 11 17C11 16.448 11.448 16 12 16Z"/>
<path fill-rule="evenodd" clip-rule="evenodd" d="M11.9998 3.00056C11.5481 3.00056 11.0963 3.22556 10.8452 3.67734L2.26845 19.0462C1.77977 19.9236 2.41695 21 3.42402 21H20.5766C21.5836 21 22.2199 19.9236 21.7312 19.0462L13.1554 3.67734C12.9034 3.22556 12.4516 3.00056 11.9998 3.00056ZM11.9999 5.29909L19.7612 19.2073H4.2394L11.9999 5.29909Z"/>
</svg>
