<svg width="102" height="92" viewBox="0 0 102 92" fill="none" xmlns="http://www.w3.org/2000/svg">
<mask id="mask0_2_423" style="mask-type:alpha" maskUnits="userSpaceOnUse" x="6" y="0" width="93" height="92">
<path d="M6.03296 0H98.033V92H6.03296V0Z" fill="white"/>
</mask>
<g mask="url(#mask0_2_423)">
<path fill-rule="evenodd" clip-rule="evenodd" d="M52.033 0C77.437 0 98.033 20.595 98.033 46C98.033 71.404 77.437 92 52.033 92C26.628 92 6.03296 71.404 6.03296 46C6.03296 20.595 26.628 0 52.033 0Z" fill="#F7F5F5"/>
</g>
<path fill-rule="evenodd" clip-rule="evenodd" d="M14.613 32.9741H7.02301C3.15601 32.9741 0.0230117 36.1081 0.0230117 39.9741V47.5651C0.0230117 51.4301 3.15601 54.5651 7.02301 54.5651H14.613C18.479 54.5651 21.613 51.4301 21.613 47.5651V39.9751C21.613 36.1081 18.479 32.9751 14.613 32.9751V32.9741ZM14.613 36.9751C16.267 36.9751 17.613 38.3201 17.613 39.9751V47.5651C17.613 49.2181 16.267 50.5651 14.613 50.5651H7.02301C5.36801 50.5651 4.02301 49.2181 4.02301 47.5651V39.9751C4.02301 38.3201 5.36801 36.9751 7.02301 36.9751H14.613ZM37.201 32.9741H37.161C31.211 32.9741 26.386 37.7981 26.386 43.7481V43.7891C26.386 49.7411 31.21 54.5651 37.16 54.5651H37.201C43.152 54.5651 47.976 49.7411 47.976 43.7891V43.7491C47.976 37.7991 43.152 32.9741 37.201 32.9741ZM37.201 36.9741C40.936 36.9741 43.976 40.0141 43.976 43.7891C43.976 47.5251 40.936 50.5651 37.16 50.5651C33.425 50.5651 30.386 47.5251 30.386 43.7481C30.386 40.0131 33.426 36.9741 37.16 36.9741H37.201ZM41.002 59.3631H33.41C29.544 59.3631 26.41 62.4971 26.41 66.3631V73.9531C26.41 77.8201 29.544 80.9531 33.41 80.9531H41C44.867 80.9531 48 77.8201 48 73.9531V66.3631C48 62.4971 44.867 59.3631 41 59.3631H41.002ZM41 63.3631C42.655 63.3631 44 64.7091 44 66.3631V73.9531C44 75.6071 42.655 76.9531 41 76.9531H33.41C31.756 76.9531 30.41 75.6071 30.41 73.9531V66.3631C30.41 64.7091 31.756 63.3631 33.41 63.3631H41ZM20.924 80.2731L20.918 80.2791C20.024 81.1731 18.561 81.1731 17.666 80.2791L0.670012 63.2841C-0.223988 62.3891 -0.223988 60.9261 0.670012 60.0321L0.676012 60.0261C1.57001 59.1311 3.03301 59.1311 3.92801 60.0261L20.924 77.0201C21.819 77.9151 21.819 79.3771 20.924 80.2721" fill="#B2B5B2"/>
<mask id="mask1_2_423" style="mask-type:alpha" maskUnits="userSpaceOnUse" x="0" y="59" width="22" height="22">
<path d="M0 59.355H21.594V80.949H0V59.355Z" fill="white"/>
</mask>
<g mask="url(#mask1_2_423)">
<path fill-rule="evenodd" clip-rule="evenodd" d="M0.670029 80.2727L0.677029 80.2787C1.57103 81.1727 3.03403 81.1727 3.92903 80.2787L20.924 63.2837C21.818 62.3887 21.818 60.9257 20.924 60.0317L20.918 60.0257C20.024 59.1307 18.561 59.1307 17.666 60.0257L0.670029 77.0197C-0.224971 77.9147 -0.224971 79.3767 0.670029 80.2717" fill="#B2B5B2"/>
</g>
<path d="M24.031 27.9839V3.98389M12.031 15.9839H36.031H12.031Z" stroke="#008C73" stroke-width="4" stroke-linecap="round" stroke-linejoin="round"/>
<path fill-rule="evenodd" clip-rule="evenodd" d="M48.719 67.9942C45.583 67.9942 43.032 65.4422 43.032 62.3072V25.6802C43.032 22.5452 45.582 19.9932 48.719 19.9932H93.344C96.48 19.9932 99.032 22.5452 99.032 25.6802V62.3062C99.032 65.4412 96.48 67.9932 93.344 67.9932H48.719V67.9942Z" fill="#F7F5F5"/>
<path fill-rule="evenodd" clip-rule="evenodd" d="M93.344 17.9942H48.719C44.473 17.9942 41.031 21.4342 41.031 25.6812V62.3072C41.031 66.5532 44.473 69.9942 48.719 69.9942H93.344C97.589 69.9942 101.031 66.5532 101.031 62.3072V25.6802C101.031 21.4342 97.589 17.9932 93.344 17.9932V17.9942ZM93.344 21.9932C95.377 21.9932 97.032 23.6472 97.032 25.6802V62.3062C97.032 64.3392 95.377 65.9932 93.344 65.9932H48.719C46.685 65.9932 45.031 64.3392 45.031 62.3062V25.6802C45.031 23.6472 46.685 21.9932 48.719 21.9932H93.344Z" fill="#B2B5B2"/>
<path d="M44.5659 33.978H97.5659" stroke="#B2B5B2" stroke-width="4" stroke-linecap="round" stroke-linejoin="round"/>
<path fill-rule="evenodd" clip-rule="evenodd" d="M52.032 26.9771C52.032 28.0811 51.136 28.9771 50.032 28.9771C48.928 28.9771 48.032 28.0811 48.032 26.9771C48.032 25.8731 48.928 24.9771 50.032 24.9771C51.136 24.9771 52.032 25.8731 52.032 26.9771ZM59.007 26.9771C59.007 28.0811 58.111 28.9771 57.007 28.9771C55.903 28.9771 55.007 28.0811 55.007 26.9771C55.007 25.8731 55.903 24.9771 57.007 24.9771C58.111 24.9771 59.007 25.8731 59.007 26.9771ZM66.024 26.9771C66.024 28.0811 65.128 28.9771 64.024 28.9771C62.92 28.9771 62.024 28.0811 62.024 26.9771C62.024 25.8731 62.92 24.9771 64.024 24.9771C65.128 24.9771 66.024 25.8731 66.024 26.9771Z" fill="#B2B5B2"/>
<path d="M76.016 59.9771L85.016 50.9771L76.016 41.9771M66.033 59.9771L57.033 50.9771L66.033 41.9771V59.9771Z" stroke="#B2B5B2" stroke-width="4" stroke-linecap="round" stroke-linejoin="round"/>
</svg>
