<svg xmlns="http://www.w3.org/2000/svg" width="16" height="16" viewBox="0 0 16 16">
    <g fill="none" fill-rule="evenodd">
        <g>
            <g>
                <path d="M0 0H16V16H0z" transform="translate(-273 -201) translate(273 201)"/>
                <path fill="#F02525" fill-rule="nonzero" d="M8 15c3.866 0 7-3.134 7-7s-3.134-7-7-7-7 3.134-7 7 3.134 7 7 7zm0-2c-2.761 0-5-2.239-5-5s2.239-5 5-5 5 2.239 5 5-2.239 5-5 5z" transform="translate(-273 -201) translate(273 201)"/>
                <path fill="#F02525" d="M9.414 8l1.414 1.414c.391.39.391 1.024 0 1.414-.39.391-1.023.391-1.414 0L8 9.414l-1.414 1.414c-.39.391-1.024.391-1.414 0-.391-.39-.391-1.023 0-1.414L6.586 8 5.172 6.586c-.391-.39-.391-1.024 0-1.414.39-.391 1.023-.391 1.414 0L8 6.586l1.414-1.414c.39-.391 1.024-.391 1.414 0 .391.39.391 1.023 0 1.414L9.414 8z" transform="translate(-273 -201) translate(273 201)"/>
            </g>
        </g>
    </g>
</svg>
