<svg
        xmlns="http://www.w3.org/2000/svg"
        width="16"
        height="16"
        viewBox="0 0 16 16">
    <g fill="none" fill-rule="evenodd">
        <path d="M0 0H16V16H0z"/>
        <path
                fill="#b2b5b2"
                d="M11.15 12.9c-.003.05-.044.078-.123.1H4.98c-.078-.013-.098-.05-.1-.12L4.415 6H11.6l-.449 6.9zM6.002 3.615c0-.334.282-.616.617-.616h2.768c.335 0 .617.282.617.616V4H6.002v-.384zM14 4h-1.996v-.384C12.004 2.173 10.831 1 9.387 1H6.62C5.175 1 4.002 2.173 4.002 3.616V4H2c-.553 0-1 .447-1 1 0 .552.447 1 1 1h.41l.471 6.995c.054 1.116.99 2.006 2.074 2.006h6.048c1.101.011 2.09-.873 2.144-1.989L13.604 6H14c.552 0 1-.448 1-1 0-.553-.448-1-1-1z"
        />
    </g>
</svg>