<?xml version="1.0" encoding="utf-8"?>
<!DOCTYPE svg PUBLIC "-//W3C//DTD SVG 20010904//EN" "http://www.w3.org/TR/2001/REC-SVG-20010904/DTD/svg10.dtd">
<svg version="1.0" xmlns="http://www.w3.org/2000/svg" width="602pt" height="602pt" viewBox="0 0 602 602" style="" preserveAspectRatio="xMidYMid meet">
<g fill="#FFFFFFFF" stroke="#FFFFFFFF">
<path d="M 1.000 301.000 L 1.000 601.000 301.000 601.000 L 601.000 601.000 601.000 301.000 L 601.000 1.000 301.000 1.000 L 1.000 1.000 1.000 301.000 M 203.000 207.356 L 203.000 229.713 215.750 230.337 C 222.763 230.680 229.738 231.247 231.250 231.597 L 234.000 232.233 234.000 209.617 C 234.000 188.330 234.108 187.000 235.838 187.000 C 237.336 187.000 245.885 189.401 263.250 194.699 C 264.849 195.187 265.001 197.184 265.006 217.867 L 265.012 240.500 279.256 245.555 L 293.500 250.610 293.769 228.805 C 293.917 216.812 294.376 207.000 294.789 207.000 C 295.447 207.000 307.400 210.156 312.250 211.610 C 313.843 212.088 314.000 211.141 314.000 201.067 C 314.000 194.980 314.113 190.027 314.250 190.059 C 314.388 190.092 319.225 191.330 325.000 192.809 L 335.500 195.500 336.000 206.424 L 336.500 217.348 342.000 218.554 C 345.025 219.218 349.188 220.060 351.250 220.426 L 355.000 221.091 355.000 210.033 L 355.000 198.976 358.750 199.561 C 360.813 199.883 365.650 200.451 369.500 200.823 L 376.500 201.500 376.783 212.165 L 377.066 222.830 384.283 224.030 C 412.887 228.783 424.161 239.349 424.263 261.500 C 424.331 276.499 419.314 290.219 410.460 299.241 C 407.192 302.572 406.993 303.054 408.645 303.639 C 418.254 307.040 424.669 312.533 428.070 320.273 C 429.777 324.156 430.477 327.967 430.794 335.096 C 432.128 365.117 412.830 390.099 384.944 394.452 C 376.472 395.775 377.000 394.970 377.000 406.567 L 377.000 417.000 366.000 417.000 L 355.000 417.000 355.000 406.072 L 355.000 395.144 349.250 394.521 C 346.088 394.178 341.813 393.656 339.750 393.361 L 336.000 392.824 336.000 403.912 C 336.000 410.010 335.825 415.000 335.610 415.000 C 335.048 415.000 318.918 412.051 316.250 411.460 C 314.085 410.981 314.000 410.552 314.000 400.052 L 314.000 389.142 308.250 388.011 C 299.751 386.339 289.997 383.740 276.250 379.483 L 264.000 375.691 264.000 353.321 L 264.000 330.950 261.250 329.901 C 258.307 328.778 244.930 325.594 238.750 324.545 L 235.000 323.909 235.000 346.205 L 235.000 368.500 218.982 368.500 L 202.964 368.500 203.232 345.500 L 203.500 322.500 218.750 322.500 L 234.001 322.500 234.000 300.386 L 234.000 278.272 229.360 277.636 C 226.809 277.286 219.842 277.000 213.879 277.000 L 203.037 277.000 202.768 300.208 L 202.500 323.416 192.628 324.656 C 183.929 325.748 179.042 326.940 172.732 329.508 C 171.065 330.186 170.979 328.849 171.232 306.364 L 171.500 282.500 178.500 280.226 C 182.350 278.975 189.438 277.670 194.250 277.326 L 203.000 276.701 203.000 254.053 L 203.000 231.405 196.250 231.767 C 190.198 232.091 177.352 234.688 172.750 236.518 C 171.113 237.169 171.000 235.695 171.000 213.759 L 171.000 190.304 174.750 188.653 C 180.459 186.140 185.691 185.211 194.750 185.100 L 203.000 185.000 203.000 207.356 "/></g>
<g fill="#E36E1BFF" stroke="#E36E1BFF">
<path d="M 182.500 186.102 C 180.300 186.597 176.813 187.745 174.750 188.653 L 171.000 190.304 171.000 213.759 C 171.000 235.695 171.113 237.169 172.750 236.518 C 177.352 234.688 190.198 232.091 196.250 231.767 L 203.000 231.405 203.000 254.053 L 203.000 276.701 194.250 277.326 C 189.438 277.670 182.350 278.975 178.500 280.226 L 171.500 282.500 171.232 306.364 C 170.979 328.849 171.065 330.186 172.732 329.508 C 179.042 326.940 183.929 325.748 192.628 324.656 L 202.500 323.416 202.768 300.208 L 203.037 277.000 213.879 277.000 C 219.842 277.000 226.809 277.286 229.360 277.636 L 234.000 278.272 234.000 300.386 L 234.001 322.500 218.750 322.500 L 203.500 322.500 203.232 345.500 L 202.964 368.500 218.982 368.500 L 235.000 368.500 235.000 346.205 L 235.000 323.909 238.750 324.545 C 244.930 325.594 258.307 328.778 261.250 329.901 L 264.000 330.950 264.000 353.321 L 264.000 375.691 276.250 379.483 C 289.997 383.740 299.751 386.339 308.250 388.011 L 314.000 389.142 314.000 400.052 C 314.000 410.552 314.085 410.981 316.250 411.460 C 318.918 412.051 335.048 415.000 335.610 415.000 C 335.825 415.000 336.000 410.010 336.000 403.912 L 336.000 392.824 339.750 393.361 C 341.813 393.656 346.088 394.178 349.250 394.521 L 355.000 395.144 355.000 406.072 L 355.000 417.000 366.000 417.000 L 377.000 417.000 377.000 406.567 C 377.000 394.970 376.472 395.775 384.944 394.452 C 412.830 390.099 432.128 365.117 430.794 335.096 C 430.032 317.948 423.711 308.971 408.645 303.639 C 406.993 303.054 407.192 302.572 410.460 299.241 C 412.479 297.183 415.661 292.785 417.531 289.466 C 426.593 273.381 426.636 249.047 417.620 238.859 C 411.192 231.594 400.092 226.657 384.283 224.030 L 377.066 222.830 376.783 212.165 L 376.500 201.500 369.500 200.823 C 365.650 200.451 360.813 199.883 358.750 199.561 L 355.000 198.976 355.000 210.033 L 355.000 221.091 351.250 220.426 C 349.188 220.060 345.025 219.218 342.000 218.554 L 336.500 217.348 336.000 206.424 L 335.500 195.500 325.000 192.809 C 319.225 191.330 314.388 190.092 314.250 190.059 C 314.113 190.027 314.000 194.980 314.000 201.067 C 314.000 211.141 313.843 212.088 312.250 211.610 C 307.400 210.156 295.447 207.000 294.789 207.000 C 294.376 207.000 293.917 216.812 293.769 228.805 L 293.500 250.610 279.256 245.555 L 265.012 240.500 265.006 217.867 C 265.001 197.184 264.849 195.187 263.250 194.699 C 245.885 189.401 237.336 187.000 235.838 187.000 C 234.108 187.000 234.000 188.330 234.000 209.617 L 234.000 232.233 231.250 231.597 C 229.738 231.247 222.763 230.680 215.750 230.337 L 203.000 229.713 203.000 207.356 L 203.000 185.000 194.750 185.100 C 190.213 185.156 184.700 185.606 182.500 186.102 M 347.574 323.423 C 353.033 324.206 362.329 325.149 368.231 325.518 C 384.896 326.561 390.994 330.903 390.998 341.730 C 391.002 351.184 386.226 357.115 377.019 359.089 C 372.043 360.156 348.710 358.927 340.000 357.138 L 336.500 356.420 336.226 339.210 C 336.076 329.744 336.334 322.000 336.800 322.000 C 337.266 322.000 342.114 322.640 347.574 323.423 M 351.500 256.421 C 357.000 257.222 363.750 258.168 366.500 258.522 C 378.206 260.029 383.989 265.238 383.996 274.282 C 384.003 283.508 379.572 289.052 371.038 290.494 C 367.480 291.095 356.161 290.059 342.750 287.904 L 336.000 286.819 336.000 270.330 L 336.000 253.841 338.750 254.402 C 340.263 254.711 346.000 255.619 351.500 256.421 M 249.500 236.512 C 254.450 237.792 259.738 239.314 261.250 239.895 L 264.000 240.950 264.000 262.750 L 264.000 284.549 249.518 281.024 L 235.036 277.500 235.018 255.231 L 235.000 232.962 237.750 233.574 C 239.263 233.911 244.550 235.233 249.500 236.512 M 279.500 291.021 C 285.550 293.129 291.288 295.159 292.250 295.533 C 293.842 296.153 294.000 298.174 294.000 317.930 L 294.000 339.646 279.750 334.918 L 265.500 330.189 265.231 307.980 C 264.977 287.076 265.065 285.813 266.731 286.480 C 267.704 286.871 273.450 288.914 279.500 291.021 "/></g>
<g fill="#FFFFFFFF" stroke="#FFFFFFFF">
<path d="M 336.226 339.210 L 336.500 356.420 340.000 357.138 C 348.710 358.927 372.043 360.156 377.019 359.089 C 386.226 357.115 391.002 351.184 390.998 341.730 C 390.994 330.903 384.896 326.561 368.231 325.518 C 362.329 325.149 353.033 324.206 347.574 323.423 C 342.114 322.640 337.266 322.000 336.800 322.000 C 336.334 322.000 336.076 329.744 336.226 339.210 "/></g>
<g fill="#FFFFFFFF" stroke="#FFFFFFFF">
<path d="M 336.000 270.330 L 336.000 286.819 342.750 287.904 C 356.161 290.059 367.480 291.095 371.038 290.494 C 379.572 289.052 384.003 283.508 383.996 274.282 C 383.989 265.238 378.206 260.029 366.500 258.522 C 358.230 257.457 341.687 255.001 338.750 254.402 L 336.000 253.841 336.000 270.330 "/></g>
<g fill="#FFFFFFFF" stroke="#FFFFFFFF">
<path d="M 235.018 255.231 L 235.036 277.500 249.518 281.024 L 264.000 284.549 264.000 262.750 L 264.000 240.950 261.250 239.895 C 258.700 238.916 244.070 234.981 237.750 233.574 L 235.000 232.962 235.018 255.231 "/></g>
<g fill="#FFFFFFFF" stroke="#FFFFFFFF">
<path d="M 265.231 307.980 L 265.500 330.189 279.750 334.918 L 294.000 339.646 294.000 317.930 C 294.000 298.174 293.842 296.153 292.250 295.533 C 291.288 295.159 285.550 293.129 279.500 291.021 C 273.450 288.914 267.704 286.871 266.731 286.480 C 265.065 285.813 264.977 287.076 265.231 307.980 "/></g>
</svg>
