<svg width="90" height="32" xmlns="http://www.w3.org/2000/svg" xmlns:xlink="http://www.w3.org/1999/xlink" viewBox="0 0 206.64 51.92"><defs><linearGradient id="linear-gradient" x1="204.17" y1="-1.72" x2="174.88" y2="46.45" gradientUnits="userSpaceOnUse"><stop offset="0" stop-color="#ef5525"/><stop offset="1" stop-color="#ef9d25"/></linearGradient></defs><g id="Layer_2" data-name="Layer 2"><g id="Logo"><path d="M24.84,0h6.28a1,1,0,0,1,.94,1.18L23.49,38.06a1,1,0,0,1-.94.74H9.79a1,1,0,0,1-.94-.74L0,1.18A1,1,0,0,1,1,0H7.25a1,1,0,0,1,.94.76L14.6,31.19a1,1,0,0,0,.94.76h1a1,1,0,0,0,.94-.76L23.9.76A1,1,0,0,1,24.84,0Z" style="fill:#fff"/><path d="M36.67,13.5q3-3.91,10.1-3.91t10.1,3.91q3,3.9,3,11,0,15-13.12,15t-13.12-15Q33.65,17.4,36.67,13.5Zm5.91,17.43q1.16,2.05,4.19,2t4.19-2q1.17-2.05,1.17-6.45T51,18.09q-1.17-2-4.19-2t-4.19,2q-1.17,2-1.17,6.39T42.58,30.93Z" style="fill:#fff"/><path d="M63.58,10.27h5.53a1,1,0,0,1,.94.75l5,21.28h1.31L81.4,11a1,1,0,0,1,.94-.75h5.52a1,1,0,0,1,1,1.21l-9,38.57a1,1,0,0,1-.94.73H73.4a1,1,0,0,1-.94-1.21l2-9.55a1,1,0,0,0-.94-1.22H70.13a1,1,0,0,1-.95-.74L62.64,11.48A1,1,0,0,1,63.58,10.27Z" style="fill:#fff"/><path d="M114.9,19.17V31a4.6,4.6,0,0,0,.45,1.91,1.63,1.63,0,0,0,.81.6.92.92,0,0,1,.59.91l-.16,4.09a1,1,0,0,1-1,.92,18.93,18.93,0,0,1-3.71-.38,10.45,10.45,0,0,1-3.08-1.32.91.91,0,0,0-.89-.06A18.94,18.94,0,0,1,100,39.49q-8.85,0-8.85-9.36,0-4.56,2.45-6.48t7.54-2.25l6.1-.46V19.17a3,3,0,0,0-.8-2.42,4,4,0,0,0-2.56-.66l-9.78.42a1,1,0,0,1-1-.92L93,12a1,1,0,0,1,.73-1,43.7,43.7,0,0,1,10.84-1.45c3.67,0,6.32.76,7.93,2.28S114.9,15.82,114.9,19.17ZM102.06,26.7a3.11,3.11,0,0,0-3.2,3.43c0,2.09.94,3.14,2.8,3.14a18.4,18.4,0,0,0,4.74-.69l.85-.23V27.29a1,1,0,0,0-1-.95Z" style="fill:#fff"/><path d="M148.05,42.37a7.92,7.92,0,0,1-3.77,7.22q-3.76,2.32-10.18,2.33t-9.87-1.71c-2.3-1.14-3.46-3.21-3.46-6.22q0-3.19,3.24-6.07a.92.92,0,0,0,.1-1.35,5.11,5.11,0,0,1-1.34-3.7c0-.76.57-2,1.71-3.77l.52-.8q-3.89-2.79-3.88-8.24c0-3.64,1.09-6.27,3.28-7.91a14.2,14.2,0,0,1,8.7-2.45,20.94,20.94,0,0,1,4.85.57l.91.17,8.2-.25a1,1,0,0,1,1,1v4.09a1,1,0,0,1-1,.95l-1.53-.12a1,1,0,0,0-.94,1.35A6.32,6.32,0,0,1,145,19.8c0,3.81-1,6.43-2.9,7.88s-5,2.16-9.13,2.16a10.31,10.31,0,0,1-2.34-.23,7.26,7.26,0,0,0-.58,2.43,1.28,1.28,0,0,0,1,1.28,18.26,18.26,0,0,0,4.56.4q7.19.06,9.81,1.91C147.17,36.87,148.05,39.11,148.05,42.37Zm-19.74.82c0,1.64,2,2.46,6,2.46s6-.95,6-2.86a1.89,1.89,0,0,0-1-2,14.28,14.28,0,0,0-4.34-.49L130.32,40a1,1,0,0,0-.8.32A4.32,4.32,0,0,0,128.31,43.19Zm.45-23.36c0,2.8,1.46,4.19,4.37,4.19s4.36-1.39,4.36-4.19-1.45-4.2-4.36-4.2S128.76,17,128.76,19.83Z" style="fill:#fff"/><path d="M160.34,31.58a5.7,5.7,0,0,0,3.85,1.17c3.54,0,8.14-.26,8.8-.27s1.59-.29,1.62.94l.07,3.76a1,1,0,0,1-.75,1,44,44,0,0,1-10.42,1.35q-6.45,0-9.36-3.43t-2.91-11.12q0-15.36,12.61-15.35c8.27,0,11.83,6.81,12.15,12.57a14.31,14.31,0,0,1-.19,4.77,1,1,0,0,1-.95.86H160a1,1,0,0,0-1,1.13A4.24,4.24,0,0,0,160.34,31.58ZM167.77,22a1,1,0,0,0,1-1,6.66,6.66,0,0,0-1-3.78c-.73-.89-2-1.34-3.8-1.34a4.63,4.63,0,0,0-3.82,1.4,6.83,6.83,0,0,0-1.13,3.7,1,1,0,0,0,1,1Z" style="fill:#fff"/><path d="M185.8,0h19.93a.9.9,0,0,1,.91.9V11.43a.9.9,0,0,1-.91.9h-4a.9.9,0,0,0-.9.91v4.61c0,15.07-1.91,20.67-8.25,27.32-5.35,5.61-19.08,6.65-32.7,6.75a.92.92,0,0,1-.92-.91V47a.89.89,0,0,1,.84-.9c3-.16,14,.62,19.67-5,6.65-6.66,5.45-16.75,5.45-26.1V.9A.9.9,0,0,1,185.8,0Z" style="fill:url(#linear-gradient)"/></g></g></svg>