<?xml version="1.0" encoding="UTF-8"?>
<svg id="Layer_2" data-name="Layer 2" xmlns="http://www.w3.org/2000/svg" viewBox="0 0 1665.87 909.83">
  <defs>
    <style>
      .cls-1 {
        fill: currentColor;
      }

      .cls-2 {
        fill: #ff0051;
      }
    </style>
  </defs>
  <g id="Layer_1-2" data-name="Layer 1">
    <g>
      <g>
        <path class="cls-1" d="M676.95,372.51c38.26,0,67.88,15.43,91.33,43.81,4.32,5.55,3.08,12.96-3.09,17.28l-28.39,27.15c-5.55,4.94-11.11,1.85-15.43-1.85-9.87-11.11-25.3-19.75-42.58-19.75-33.32,0-60.48,28.39-60.48,62.94s26.53,62.94,59.86,62.94c26.54,0,38.26-12.96,49.37-23.45,4.32-4.32,10.49-5.55,15.43-1.85l26.54,22.83c6.17,4.94,8.64,11.11,4.32,17.28-20.98,32.71-53.69,51.84-97.5,51.84-69.73,0-130.83-55.54-130.83-129.59s62.33-129.59,131.44-129.59Z"/>
        <path class="cls-1" d="M806.88,211.13c0-6.17,5.55-11.72,11.72-11.72h52.46c6.17,0,11.72,5.55,11.72,11.72v181.74c12.34-9.26,36.41-20.36,65.41-20.36,78.37,0,110.46,60.48,110.46,122.8v118.48c0,6.17-5.55,11.72-11.72,11.72h-49.99c-6.79,0-11.73-5.55-11.73-11.72v-119.1c0-33.94-19.13-55.54-48.75-55.54s-47.52,18.51-53.69,43.81v130.83c0,6.79-3.7,11.72-12.96,11.72h-51.22c-6.17,0-11.72-5.55-11.72-11.72V211.13Z"/>
        <path class="cls-1" d="M1358.88,241.15c0-23.45,18.51-42.58,41.96-42.58s43.2,19.13,43.2,42.58-19.13,42.58-43.2,42.58-41.96-19.13-41.96-42.58Zm5.55,149.25c0-6.79,5.55-11.72,11.72-11.72h51.22c6.17,0,11.73,4.94,11.73,11.72v223.39c0,6.17-5.55,11.72-11.73,11.72h-51.22c-6.17,0-11.72-5.55-11.72-11.72v-223.39Z"/>
        <path class="cls-1" d="M1235.19,211.13c0-6.17,5.55-11.72,11.72-11.72h51.84c6.17,0,11.72,5.55,11.72,11.72v402.67c0,6.17-5.55,11.72-11.72,11.72h-51.84c-6.17,0-11.72-5.55-11.72-11.72V211.13Z"/>
        <path class="cls-1" d="M1102.02,307.01c0-23.45,18.51-42.58,41.96-42.58s43.2,19.13,43.2,42.58-19.13,42.58-43.2,42.58-41.96-19.13-41.96-42.58Zm5.55,83.39c0-6.79,5.55-11.72,11.72-11.72h51.22c6.17,0,11.73,4.94,11.73,11.72v223.39c0,6.17-5.55,11.72-11.73,11.72h-51.22c-6.17,0-11.72-5.55-11.72-11.72v-223.39Z"/>
        <path class="cls-1" d="M1473.44,607.62l87.63-161.68v-1.23h-70.35c-6.17,0-11.11-5.55-11.11-11.72v-42.58c0-6.79,4.94-11.72,11.11-11.72h162.92c9.26,0,15.43,8.64,10.49,16.66l-89.48,162.91v1.85h66.65c6.79,0,11.73,4.94,11.73,11.72v41.96c0,6.17-4.94,11.72-11.73,11.72h-156.13c-6.17,0-11.73-5.55-11.73-11.72v-6.17Z"/>
      </g>
      <g>
        <path class="cls-2" d="M20.24,214.73l129.97-80.19c11.44-6.48,11.43-19.84,3.2-28.02L44.85,1.59c-2.13-2.12-5.58-2.11-7.7,.02l-10.25,10.31c-13.12,13.2-13.06,34.53,.13,47.66l42.37,39.11c7.2,7.16,5.83,19.17-2.8,24.52l-50.65,31.01C.13,164.02-4.74,184.8,5.06,200.61l7.66,12.35c1.59,2.56,4.96,3.35,7.52,1.76Z"/>
        <path class="cls-2" d="M145.65,645c10.67-46.17-1.98-94.63-33.86-129.69L29.74,422.26C-15.94,370.47-4.65,290.13,53.54,252.93l134.26-85.83c8.67-5.54,19.98-4.53,27.54,2.45,49.12,45.31,220.01,208.56,212.43,377.15,0,0,.2,261.81-257.63,359.79-37.88,14.4-76.24-20.23-66.32-59.53,35.62-141.13,41.83-201.97,41.83-201.97Zm33.6-403.14c-20.53,13.01-60.31,38.21-94.26,59.73-22.72,14.4-27.3,45.61-9.71,65.96l85.79,99.2c49.16,54.07,68.67,128.81,52.21,200l-14.38,63.09c-6.25,27.4,26.09,46.56,47.36,28.2,90.39-78.03,217.13-265.6-47.19-514.33-5.39-5.07-13.56-5.81-19.81-1.85Z"/>
      </g>
    </g>
  </g>
</svg>
