<?xml version="1.0" encoding="utf-8"?>
<!DOCTYPE svg PUBLIC "-//W3C//DTD SVG 20010904//EN" "http://www.w3.org/TR/2001/REC-SVG-20010904/DTD/svg10.dtd">
<svg version="1.0" xmlns="http://www.w3.org/2000/svg" width="602pt" height="602pt" viewBox="0 0 602 602" style="" preserveAspectRatio="xMidYMid meet">
<g fill="#FFFFFFFF" stroke="#FFFFFFFF">
<path d="M 1.000 301.000 L 1.000 601.000 301.000 601.000 L 601.000 601.000 601.000 301.000 L 601.000 1.000 301.000 1.000 L 1.000 1.000 1.000 301.000 M 252.232 189.725 L 263.964 193.323 264.232 216.273 L 264.500 239.223 271.000 241.669 C 274.575 243.014 281.213 245.410 285.750 246.994 L 294.000 249.873 294.000 227.330 C 294.000 207.203 294.169 204.851 295.579 205.392 C 297.390 206.087 312.537 210.000 313.417 210.000 C 313.737 210.000 314.000 205.275 314.000 199.500 C 314.000 187.268 312.853 187.987 327.000 191.348 L 336.500 193.604 336.783 204.791 C 337.051 215.423 337.175 216.002 339.283 216.463 C 343.370 217.355 353.353 219.000 354.684 219.000 C 355.689 219.000 356.000 216.498 356.000 208.396 L 356.000 197.792 364.250 198.448 C 368.788 198.809 373.738 199.342 375.250 199.632 L 378.000 200.159 378.000 210.964 L 378.000 221.770 386.005 222.940 C 412.979 226.884 425.130 237.266 426.621 257.640 C 427.683 272.170 422.571 287.700 413.348 297.958 C 408.865 302.944 408.847 302.992 411.164 303.897 C 412.449 304.399 414.625 305.259 416.000 305.809 C 417.375 306.358 420.430 308.477 422.790 310.516 C 442.421 327.485 434.414 370.255 408.370 387.543 C 401.734 391.947 391.849 395.558 383.750 396.536 L 378.000 397.230 378.000 408.149 L 378.000 419.068 367.250 418.784 L 356.500 418.500 356.212 408.012 C 356.054 402.244 355.604 397.236 355.212 396.884 C 354.821 396.532 350.563 395.940 345.750 395.570 L 337.000 394.896 337.000 405.960 L 337.000 417.024 332.750 416.394 C 330.413 416.048 325.433 415.143 321.685 414.382 C 317.936 413.622 314.688 413.000 314.467 413.000 C 314.246 413.000 313.938 407.956 313.783 401.790 L 313.500 390.581 302.000 387.965 C 295.675 386.526 285.100 383.658 278.500 381.592 C 271.900 379.526 265.938 377.662 265.250 377.449 C 264.297 377.155 264.000 371.584 264.000 354.031 C 264.000 341.364 263.888 330.997 263.750 330.993 C 263.613 330.990 257.271 329.415 249.659 327.493 C 242.046 325.572 235.184 324.000 234.409 324.000 C 233.238 324.000 233.000 327.854 233.000 346.786 L 233.000 369.571 217.000 369.571 L 201.000 369.571 201.000 346.657 L 201.000 323.742 192.789 324.458 C 188.273 324.852 180.840 326.430 176.271 327.966 L 167.965 330.757 168.232 306.628 L 168.500 282.500 175.330 280.218 C 179.383 278.864 185.983 277.685 191.562 277.318 L 200.965 276.701 201.232 253.100 L 201.500 229.500 212.000 229.500 C 217.775 229.500 224.863 229.816 227.750 230.203 L 233.000 230.906 233.000 207.842 L 233.000 184.777 236.750 185.452 C 238.813 185.823 245.779 187.746 252.232 189.725 M 201.000 206.439 L 201.000 229.877 196.750 230.397 C 194.413 230.683 189.683 231.184 186.240 231.510 C 180.583 232.044 174.507 233.510 169.750 235.487 C 168.112 236.168 168.000 234.682 168.000 212.216 L 168.000 188.217 172.250 186.515 C 178.360 184.068 183.382 183.234 192.750 183.110 L 201.000 183.000 201.000 206.439 "/></g>
<g fill="#211F20FF" stroke="#211F20FF">
<path d="M 233.000 207.816 L 233.000 230.855 227.250 230.178 C 224.088 229.805 217.000 229.500 211.500 229.500 L 201.500 229.500 201.232 253.100 L 200.965 276.701 191.562 277.318 C 185.983 277.685 179.383 278.864 175.330 280.218 L 168.500 282.500 168.232 306.628 L 167.965 330.757 176.271 327.966 C 180.840 326.430 188.273 324.852 192.789 324.458 L 201.000 323.742 201.000 346.657 L 201.000 369.571 217.000 369.571 L 233.000 369.571 233.000 346.371 L 233.000 323.171 225.350 322.454 C 221.142 322.059 213.942 321.971 209.350 322.258 L 201.000 322.779 201.000 299.996 C 201.000 280.144 201.203 277.136 202.582 276.607 C 204.618 275.826 221.007 275.977 227.500 276.838 L 232.500 277.500 233.000 300.500 L 233.500 323.500 241.000 325.292 C 245.125 326.277 251.979 328.012 256.232 329.147 L 263.964 331.209 264.232 354.201 L 264.500 377.192 275.250 380.447 C 281.163 382.238 286.000 383.489 286.000 383.229 C 286.000 382.968 286.563 383.220 287.250 383.788 C 288.548 384.861 297.912 387.448 304.000 388.416 C 305.925 388.723 308.850 389.348 310.500 389.807 L 313.500 390.640 313.783 401.820 C 313.938 407.969 314.246 413.000 314.467 413.000 C 314.688 413.000 317.936 413.622 321.685 414.382 C 325.433 415.143 330.413 416.048 332.750 416.394 L 337.000 417.024 337.000 405.922 L 337.000 394.820 345.750 395.519 C 350.563 395.904 354.821 396.512 355.212 396.872 C 355.604 397.231 356.054 402.244 356.212 408.012 L 356.500 418.500 367.250 418.784 L 378.000 419.068 378.000 408.166 L 378.000 397.263 382.250 396.609 C 384.588 396.249 387.954 395.737 389.731 395.470 C 394.718 394.722 402.735 391.283 408.662 387.349 C 434.416 370.254 442.300 327.380 422.790 310.516 C 420.430 308.477 417.375 306.358 416.000 305.809 C 414.625 305.259 412.449 304.399 411.164 303.897 C 408.847 302.992 408.865 302.944 413.348 297.958 C 428.413 281.202 431.345 252.027 419.406 237.668 C 413.336 230.368 401.740 225.241 386.136 222.960 L 378.000 221.770 378.000 210.964 L 378.000 200.159 375.250 199.632 C 373.738 199.342 368.788 198.809 364.250 198.448 L 356.000 197.792 356.000 208.396 C 356.000 216.498 355.689 219.000 354.684 219.000 C 353.353 219.000 343.370 217.355 339.283 216.463 C 337.175 216.002 337.051 215.423 336.783 204.791 L 336.500 193.604 327.000 191.348 C 312.853 187.987 314.000 187.268 314.000 199.500 C 314.000 205.275 313.737 210.000 313.417 210.000 C 312.537 210.000 297.390 206.087 295.579 205.392 C 294.169 204.851 294.000 207.203 294.000 227.330 L 294.000 249.873 285.750 246.994 C 281.213 245.410 274.575 243.014 271.000 241.669 L 264.500 239.223 264.232 216.292 L 263.964 193.360 252.232 189.754 C 245.779 187.771 238.813 185.840 236.750 185.463 L 233.000 184.777 233.000 207.816 M 350.500 323.939 C 356.000 324.511 365.126 325.403 370.781 325.921 C 387.783 327.481 392.500 331.190 392.500 343.000 C 392.500 348.387 392.053 350.457 390.408 352.677 C 387.278 356.901 382.413 359.815 377.177 360.602 C 372.848 361.252 349.393 359.812 340.750 358.366 L 337.000 357.738 337.000 339.802 C 337.000 323.189 337.129 321.903 338.750 322.382 C 339.713 322.666 345.000 323.367 350.500 323.939 M 354.000 255.621 C 371.728 258.122 375.300 258.896 378.721 260.977 C 383.724 264.019 385.500 267.561 385.500 274.500 C 385.500 283.639 381.577 288.414 372.709 290.069 C 368.966 290.767 350.153 289.207 340.250 287.378 L 337.000 286.777 337.000 269.772 L 337.000 252.767 339.750 253.383 C 341.263 253.722 347.675 254.729 354.000 255.621 M 247.500 234.920 C 253.550 236.519 259.738 238.305 261.250 238.889 L 264.000 239.950 264.000 262.582 C 264.000 280.267 263.727 285.113 262.750 284.753 C 257.012 282.635 250.109 280.729 242.500 279.160 L 233.500 277.305 233.231 254.653 C 232.981 233.550 233.084 232.000 234.731 232.006 C 235.704 232.010 241.450 233.321 247.500 234.920 M 279.522 290.795 L 293.500 295.590 293.768 318.081 L 294.036 340.572 279.018 335.617 L 264.000 330.662 264.000 308.331 C 264.000 296.049 264.347 286.000 264.772 286.000 C 265.197 286.000 271.834 288.158 279.522 290.795 "/></g>
<g fill="#FFFFFFFF" stroke="#FFFFFFFF">
<path d="M 337.000 339.802 L 337.000 357.738 340.750 358.366 C 349.393 359.812 372.848 361.252 377.177 360.602 C 382.413 359.815 387.278 356.901 390.408 352.677 C 392.053 350.457 392.500 348.387 392.500 343.000 C 392.500 331.190 387.783 327.481 370.781 325.921 C 352.948 324.286 340.561 322.917 338.750 322.382 C 337.129 321.903 337.000 323.189 337.000 339.802 "/></g>
<g fill="#211F20FF" stroke="#211F20FF">
<path d="M 180.500 184.016 C 178.300 184.454 174.588 185.579 172.250 186.515 L 168.000 188.217 168.000 212.216 C 168.000 234.682 168.112 236.168 169.750 235.487 C 174.507 233.510 180.583 232.044 186.240 231.510 C 189.683 231.184 194.413 230.683 196.750 230.397 L 201.000 229.877 201.000 206.439 L 201.000 183.000 192.750 183.110 C 188.213 183.170 182.700 183.578 180.500 184.016 "/></g>
<g fill="#FFFFFFFF" stroke="#FFFFFFFF">
<path d="M 337.000 269.772 L 337.000 286.777 340.250 287.378 C 350.153 289.207 368.966 290.767 372.709 290.069 C 381.577 288.414 385.500 283.639 385.500 274.500 C 385.500 267.561 383.724 264.019 378.721 260.977 C 375.300 258.896 371.728 258.122 354.000 255.621 C 347.675 254.729 341.263 253.722 339.750 253.383 L 337.000 252.767 337.000 269.772 "/></g>
<g fill="#FFFFFFFF" stroke="#FFFFFFFF">
<path d="M 202.250 276.590 C 201.304 277.026 201.000 282.673 201.001 299.833 L 201.003 322.500 217.001 322.514 L 233.000 322.527 233.000 300.323 C 233.000 285.750 232.635 277.893 231.939 277.462 C 230.568 276.615 203.894 275.831 202.250 276.590 "/></g>
<g fill="#FFFFFFFF" stroke="#FFFFFFFF">
<path d="M 233.231 254.653 L 233.500 277.305 242.500 279.160 C 250.109 280.729 257.012 282.635 262.750 284.753 C 263.727 285.113 264.000 280.267 264.000 262.582 L 264.000 239.950 261.250 238.889 C 257.135 237.301 236.764 232.014 234.731 232.006 C 233.084 232.000 232.981 233.550 233.231 254.653 "/></g>
<g fill="#FFFFFFFF" stroke="#FFFFFFFF">
<path d="M 264.000 308.331 L 264.000 330.662 279.018 335.617 L 294.036 340.572 293.768 318.081 L 293.500 295.590 279.522 290.795 C 271.834 288.158 265.197 286.000 264.772 286.000 C 264.347 286.000 264.000 296.049 264.000 308.331 "/></g>
</svg>
