
<?xml version="1.0" encoding="utf-8"?>
<!-- Generator: Adobe Illustrator 27.0.0, SVG Export Plug-In . SVG Version: 6.00 Build 0)  -->
<svg height="3rem" version="1.1" id="Layer_1" xmlns="http://www.w3.org/2000/svg" xmlns:xlink="http://www.w3.org/1999/xlink" x="0px" y="0px"
	 viewBox="0 0 2146 602" style="enable-background:new 0 0 250 250;" xml:space="preserve">
<style type="text/css">
	.st0{fill:#FCFF52;}
    .st1{transform:translateY(150px) scale(1.5);}
</style>
<circle class="st0 st1" cx="125" cy="125" r="125"/>
<path class="st1" d="M188.9,60.7H60.7v128.2h128.2v-44.8h-21.3c-7.3,16.3-23.8,27.7-42.7,27.7c-26,0-47.1-21.3-47.1-47.1c0-25.9,21.1-47,47.1-47
	c19.3,0,35.8,11.7,43.1,28.4h20.9V60.7z"/>
<path d="M473.78 433.2H517.6V422H473.78V433.2ZM473.78 472.4H516.2V461.2H473.78V472.4ZM467.2 422V520H479.1V422H467.2ZM526.662 487.8C526.662 494.24 528.108 500.027 531.002 505.16C533.988 510.2 538.002 514.167 543.042 517.06C548.082 519.953 553.728 521.4 559.982 521.4C566.328 521.4 571.975 519.953 576.922 517.06C581.962 514.167 585.928 510.2 588.822 505.16C591.808 500.027 593.302 494.24 593.302 487.8C593.302 481.267 591.808 475.48 588.822 470.44C585.928 465.4 581.962 461.433 576.922 458.54C571.975 455.647 566.328 454.2 559.982 454.2C553.728 454.2 548.082 455.647 543.042 458.54C538.002 461.433 533.988 465.4 531.002 470.44C528.108 475.48 526.662 481.267 526.662 487.8ZM538.002 487.8C538.002 483.32 538.935 479.353 540.802 475.9C542.762 472.353 545.375 469.6 548.642 467.64C552.002 465.68 555.782 464.7 559.982 464.7C564.182 464.7 567.915 465.68 571.182 467.64C574.542 469.6 577.155 472.353 579.022 475.9C580.982 479.353 581.962 483.32 581.962 487.8C581.962 492.28 580.982 496.247 579.022 499.7C577.155 503.153 574.542 505.907 571.182 507.96C567.915 509.92 564.182 510.9 559.982 510.9C555.782 510.9 552.002 509.92 548.642 507.96C545.375 505.907 542.762 503.153 540.802 499.7C538.935 496.247 538.002 492.28 538.002 487.8ZM619.888 455.6H608.688V520H619.888V455.6ZM639.347 467.92L645.508 458.68C643.828 456.907 641.961 455.74 639.908 455.18C637.948 454.527 635.801 454.2 633.468 454.2C630.481 454.2 627.541 455.367 624.648 457.7C621.754 460.033 619.374 463.207 617.508 467.22C615.734 471.14 614.848 475.667 614.848 480.8H619.888C619.888 477.72 620.168 474.967 620.728 472.54C621.381 470.113 622.501 468.2 624.088 466.8C625.674 465.4 627.868 464.7 630.668 464.7C632.534 464.7 634.074 464.98 635.288 465.54C636.501 466.007 637.854 466.8 639.347 467.92ZM655.976 410.8V520H667.176V410.8H655.976ZM690.976 455.6L662.976 482.2L693.776 520H707.776L676.976 482.2L704.976 455.6H690.976ZM741.205 521.4C748.112 521.4 754.085 520.047 759.125 517.34C764.258 514.54 768.505 510.433 771.865 505.02L762.765 499.28C760.432 503.2 757.585 506.14 754.225 508.1C750.865 509.967 746.992 510.9 742.605 510.9C738.218 510.9 734.485 509.967 731.405 508.1C728.325 506.233 725.992 503.527 724.405 499.98C722.818 496.433 722.025 492.14 722.025 487.1C722.118 482.153 722.958 478 724.545 474.64C726.225 471.187 728.558 468.573 731.545 466.8C734.625 464.933 738.312 464 742.605 464C746.245 464 749.418 464.793 752.125 466.38C754.832 467.967 756.932 470.16 758.425 472.96C760.012 475.76 760.805 479.073 760.805 482.9C760.805 483.553 760.665 484.393 760.385 485.42C760.105 486.353 759.825 487.053 759.545 487.52L764.025 481.08H717.825V490.6H772.845C772.845 490.413 772.845 489.993 772.845 489.34C772.938 488.593 772.985 487.893 772.985 487.24C772.985 480.427 771.772 474.547 769.345 469.6C766.918 464.653 763.418 460.873 758.845 458.26C754.365 455.553 748.952 454.2 742.605 454.2C736.258 454.2 730.658 455.6 725.805 458.4C721.045 461.2 717.312 465.12 714.605 470.16C711.992 475.2 710.685 481.08 710.685 487.8C710.685 494.427 711.945 500.26 714.465 505.3C717.078 510.34 720.672 514.307 725.245 517.2C729.912 520 735.232 521.4 741.205 521.4ZM836.636 410.8V520H847.836V410.8H836.636ZM782.736 487.8C782.736 494.707 784.183 500.68 787.076 505.72C789.969 510.76 793.843 514.633 798.696 517.34C803.549 520.047 808.869 521.4 814.656 521.4C820.069 521.4 824.783 520.047 828.796 517.34C832.809 514.633 835.936 510.76 838.176 505.72C840.509 500.68 841.676 494.707 841.676 487.8C841.676 480.8 840.509 474.827 838.176 469.88C835.936 464.84 832.809 460.967 828.796 458.26C824.783 455.553 820.069 454.2 814.656 454.2C808.869 454.2 803.549 455.553 798.696 458.26C793.843 460.967 789.969 464.84 787.076 469.88C784.183 474.827 782.736 480.8 782.736 487.8ZM794.076 487.8C794.076 482.853 795.056 478.653 797.016 475.2C799.069 471.747 801.776 469.133 805.136 467.36C808.496 465.587 812.136 464.7 816.056 464.7C819.323 464.7 822.543 465.587 825.716 467.36C828.889 469.133 831.503 471.747 833.556 475.2C835.609 478.653 836.636 482.853 836.636 487.8C836.636 492.747 835.609 496.947 833.556 500.4C831.503 503.853 828.889 506.467 825.716 508.24C822.543 510.013 819.323 510.9 816.056 510.9C812.136 510.9 808.496 510.013 805.136 508.24C801.776 506.467 799.069 503.853 797.016 500.4C795.056 496.947 794.076 492.747 794.076 487.8ZM905.252 455.6V466.1H937.452V455.6H905.252ZM936.332 424.24L942.492 415C941.839 414.067 940.906 413.18 939.692 412.34C938.572 411.5 937.219 410.8 935.632 410.24C934.046 409.68 932.226 409.4 930.172 409.4C926.252 409.4 922.892 410.24 920.092 411.92C917.386 413.507 915.286 415.933 913.792 419.2C912.299 422.467 911.552 426.667 911.552 431.8V520H922.752V433.2C922.752 430.12 923.032 427.647 923.592 425.78C924.152 423.913 924.899 422.607 925.832 421.86C926.859 421.02 928.072 420.6 929.472 420.6C930.592 420.6 931.759 420.833 932.972 421.3C934.279 421.673 935.399 422.653 936.332 424.24ZM961.411 455.6H950.211V520H961.411V455.6ZM980.871 467.92L987.031 458.68C985.351 456.907 983.484 455.74 981.431 455.18C979.471 454.527 977.324 454.2 974.991 454.2C972.004 454.2 969.064 455.367 966.171 457.7C963.278 460.033 960.898 463.207 959.031 467.22C957.258 471.14 956.371 475.667 956.371 480.8H961.411C961.411 477.72 961.691 474.967 962.251 472.54C962.904 470.113 964.024 468.2 965.611 466.8C967.198 465.4 969.391 464.7 972.191 464.7C974.058 464.7 975.598 464.98 976.811 465.54C978.024 466.007 979.378 466.8 980.871 467.92ZM990.548 487.8C990.548 494.24 991.995 500.027 994.888 505.16C997.875 510.2 1001.89 514.167 1006.93 517.06C1011.97 519.953 1017.62 521.4 1023.87 521.4C1030.22 521.4 1035.86 519.953 1040.81 517.06C1045.85 514.167 1049.82 510.2 1052.71 505.16C1055.7 500.027 1057.19 494.24 1057.19 487.8C1057.19 481.267 1055.7 475.48 1052.71 470.44C1049.82 465.4 1045.85 461.433 1040.81 458.54C1035.86 455.647 1030.22 454.2 1023.87 454.2C1017.62 454.2 1011.97 455.647 1006.93 458.54C1001.89 461.433 997.875 465.4 994.888 470.44C991.995 475.48 990.548 481.267 990.548 487.8ZM1001.89 487.8C1001.89 483.32 1002.82 479.353 1004.69 475.9C1006.65 472.353 1009.26 469.6 1012.53 467.64C1015.89 465.68 1019.67 464.7 1023.87 464.7C1028.07 464.7 1031.8 465.68 1035.07 467.64C1038.43 469.6 1041.04 472.353 1042.91 475.9C1044.87 479.353 1045.85 483.32 1045.85 487.8C1045.85 492.28 1044.87 496.247 1042.91 499.7C1041.04 503.153 1038.43 505.907 1035.07 507.96C1031.8 509.92 1028.07 510.9 1023.87 510.9C1019.67 510.9 1015.89 509.92 1012.53 507.96C1009.26 505.907 1006.65 503.153 1004.69 499.7C1002.82 496.247 1001.89 492.28 1001.89 487.8ZM1160.77 479.4C1160.77 474.08 1159.93 469.553 1158.25 465.82C1156.67 461.993 1154.33 459.1 1151.25 457.14C1148.17 455.18 1144.44 454.2 1140.05 454.2C1135.76 454.2 1131.93 455.227 1128.57 457.28C1125.21 459.24 1122.41 462.227 1120.17 466.24C1118.68 462.413 1116.3 459.473 1113.03 457.42C1109.86 455.273 1106.03 454.2 1101.55 454.2C1097.54 454.2 1094.04 455.087 1091.05 456.86C1088.16 458.633 1085.73 461.34 1083.77 464.98V455.6H1072.57V520H1083.77V480.8C1083.77 477.44 1084.38 474.547 1085.59 472.12C1086.81 469.693 1088.53 467.873 1090.77 466.66C1093.01 465.353 1095.67 464.7 1098.75 464.7C1102.95 464.7 1106.03 466.007 1107.99 468.62C1110.05 471.233 1111.07 475.293 1111.07 480.8V520H1122.27V480.8C1122.27 477.44 1122.88 474.547 1124.09 472.12C1125.31 469.693 1127.03 467.873 1129.27 466.66C1131.51 465.353 1134.17 464.7 1137.25 464.7C1141.45 464.7 1144.53 466.007 1146.49 468.62C1148.55 471.233 1149.57 475.293 1149.57 480.8V520H1160.77V479.4ZM1269.99 481.5H1302.61C1301.77 485.327 1300.41 488.92 1298.55 492.28C1296.77 495.64 1294.49 498.627 1291.69 501.24C1288.89 503.853 1285.53 505.907 1281.61 507.4C1277.78 508.8 1273.44 509.5 1268.59 509.5C1261.68 509.5 1255.43 507.867 1249.83 504.6C1244.23 501.333 1239.75 496.807 1236.39 491.02C1233.12 485.233 1231.49 478.56 1231.49 471C1231.49 463.347 1233.12 456.673 1236.39 450.98C1239.75 445.193 1244.23 440.667 1249.83 437.4C1255.43 434.133 1261.68 432.5 1268.59 432.5C1276.05 432.5 1282.54 433.993 1288.05 436.98C1293.55 439.873 1297.85 443.933 1300.93 449.16L1309.33 441.46C1306.53 436.887 1303.07 433.06 1298.97 429.98C1294.95 426.9 1290.38 424.567 1285.25 422.98C1280.21 421.393 1274.65 420.6 1268.59 420.6C1261.49 420.6 1254.91 421.86 1248.85 424.38C1242.78 426.807 1237.51 430.307 1233.03 434.88C1228.55 439.36 1225.05 444.68 1222.53 450.84C1220.1 457 1218.89 463.72 1218.89 471C1218.89 478.28 1220.1 485 1222.53 491.16C1225.05 497.32 1228.55 502.687 1233.03 507.26C1237.51 511.74 1242.78 515.24 1248.85 517.76C1254.91 520.187 1261.49 521.4 1268.59 521.4C1276.05 521.4 1282.68 520.047 1288.47 517.34C1294.35 514.54 1299.29 510.76 1303.31 506C1307.32 501.24 1310.35 495.827 1312.41 489.76C1314.46 483.6 1315.49 477.113 1315.49 470.3H1269.99V481.5ZM1373.64 480.8V520H1384.84V479.4C1384.84 471.653 1382.83 465.54 1378.82 461.06C1374.9 456.487 1369.53 454.2 1362.72 454.2C1358.52 454.2 1354.79 455.133 1351.52 457C1348.35 458.867 1345.69 461.76 1343.54 465.68V455.6H1332.34V520H1343.54V480.8C1343.54 477.627 1344.19 474.827 1345.5 472.4C1346.9 469.973 1348.81 468.107 1351.24 466.8C1353.76 465.4 1356.65 464.7 1359.92 464.7C1364.4 464.7 1367.81 466.053 1370.14 468.76C1372.47 471.467 1373.64 475.48 1373.64 480.8ZM1400.29 487.8C1400.29 494.24 1401.74 500.027 1404.63 505.16C1407.62 510.2 1411.63 514.167 1416.67 517.06C1421.71 519.953 1427.36 521.4 1433.61 521.4C1439.96 521.4 1445.61 519.953 1450.55 517.06C1455.59 514.167 1459.56 510.2 1462.45 505.16C1465.44 500.027 1466.93 494.24 1466.93 487.8C1466.93 481.267 1465.44 475.48 1462.45 470.44C1459.56 465.4 1455.59 461.433 1450.55 458.54C1445.61 455.647 1439.96 454.2 1433.61 454.2C1427.36 454.2 1421.71 455.647 1416.67 458.54C1411.63 461.433 1407.62 465.4 1404.63 470.44C1401.74 475.48 1400.29 481.267 1400.29 487.8ZM1411.63 487.8C1411.63 483.32 1412.57 479.353 1414.43 475.9C1416.39 472.353 1419.01 469.6 1422.27 467.64C1425.63 465.68 1429.41 464.7 1433.61 464.7C1437.81 464.7 1441.55 465.68 1444.81 467.64C1448.17 469.6 1450.79 472.353 1452.65 475.9C1454.61 479.353 1455.59 483.32 1455.59 487.8C1455.59 492.28 1454.61 496.247 1452.65 499.7C1450.79 503.153 1448.17 505.907 1444.81 507.96C1441.55 509.92 1437.81 510.9 1433.61 510.9C1429.41 510.9 1425.63 509.92 1422.27 507.96C1419.01 505.907 1416.39 503.153 1414.43 499.7C1412.57 496.247 1411.63 492.28 1411.63 487.8ZM1484.98 500.26L1476.16 505.72C1477.37 508.24 1479.15 510.713 1481.48 513.14C1483.91 515.567 1486.85 517.573 1490.3 519.16C1493.75 520.653 1497.63 521.4 1501.92 521.4C1508.55 521.4 1513.87 519.533 1517.88 515.8C1521.99 512.067 1524.04 507.4 1524.04 501.8C1524.04 497.973 1523.11 494.847 1521.24 492.42C1519.47 489.993 1517.04 487.94 1513.96 486.26C1510.88 484.487 1507.47 482.853 1503.74 481.36C1501.5 480.427 1499.35 479.447 1497.3 478.42C1495.25 477.393 1493.57 476.227 1492.26 474.92C1490.95 473.613 1490.3 472.12 1490.3 470.44C1490.3 468.293 1491.14 466.707 1492.82 465.68C1494.5 464.653 1496.51 464.14 1498.84 464.14C1502.2 464.14 1505.19 464.933 1507.8 466.52C1510.51 468.107 1512.75 470.113 1514.52 472.54L1523.48 466.8C1522.17 464.373 1520.35 462.227 1518.02 460.36C1515.69 458.493 1512.98 457 1509.9 455.88C1506.91 454.76 1503.69 454.2 1500.24 454.2C1496.79 454.2 1493.43 454.807 1490.16 456.02C1486.99 457.233 1484.37 459.1 1482.32 461.62C1480.36 464.14 1479.38 467.313 1479.38 471.14C1479.38 474.873 1480.31 478 1482.18 480.52C1484.14 482.947 1486.52 484.953 1489.32 486.54C1492.21 488.033 1495.06 489.34 1497.86 490.46C1500.38 491.393 1502.76 492.42 1505 493.54C1507.24 494.567 1509.06 495.873 1510.46 497.46C1511.95 498.953 1512.7 500.82 1512.7 503.06C1512.7 505.58 1511.77 507.587 1509.9 509.08C1508.13 510.48 1505.65 511.18 1502.48 511.18C1499.87 511.18 1497.44 510.713 1495.2 509.78C1493.05 508.753 1491.14 507.4 1489.46 505.72C1487.78 504.04 1486.29 502.22 1484.98 500.26ZM1538.79 429C1538.79 431.053 1539.53 432.873 1541.03 434.46C1542.61 435.953 1544.43 436.7 1546.49 436.7C1548.63 436.7 1550.45 435.953 1551.95 434.46C1553.44 432.873 1554.19 431.053 1554.19 429C1554.19 426.853 1553.44 425.033 1551.95 423.54C1550.45 422.047 1548.63 421.3 1546.49 421.3C1544.43 421.3 1542.61 422.047 1541.03 423.54C1539.53 425.033 1538.79 426.853 1538.79 429ZM1540.89 455.6V520H1552.09V455.6H1540.89ZM1577.81 500.26L1568.99 505.72C1570.21 508.24 1571.98 510.713 1574.31 513.14C1576.74 515.567 1579.68 517.573 1583.13 519.16C1586.59 520.653 1590.46 521.4 1594.75 521.4C1601.38 521.4 1606.7 519.533 1610.71 515.8C1614.82 512.067 1616.87 507.4 1616.87 501.8C1616.87 497.973 1615.94 494.847 1614.07 492.42C1612.3 489.993 1609.87 487.94 1606.79 486.26C1603.71 484.487 1600.31 482.853 1596.57 481.36C1594.33 480.427 1592.19 479.447 1590.13 478.42C1588.08 477.393 1586.4 476.227 1585.09 474.92C1583.79 473.613 1583.13 472.12 1583.13 470.44C1583.13 468.293 1583.97 466.707 1585.65 465.68C1587.33 464.653 1589.34 464.14 1591.67 464.14C1595.03 464.14 1598.02 464.933 1600.63 466.52C1603.34 468.107 1605.58 470.113 1607.35 472.54L1616.31 466.8C1615.01 464.373 1613.19 462.227 1610.85 460.36C1608.52 458.493 1605.81 457 1602.73 455.88C1599.75 454.76 1596.53 454.2 1593.07 454.2C1589.62 454.2 1586.26 454.807 1582.99 456.02C1579.82 457.233 1577.21 459.1 1575.15 461.62C1573.19 464.14 1572.21 467.313 1572.21 471.14C1572.21 474.873 1573.15 478 1575.01 480.52C1576.97 482.947 1579.35 484.953 1582.15 486.54C1585.05 488.033 1587.89 489.34 1590.69 490.46C1593.21 491.393 1595.59 492.42 1597.83 493.54C1600.07 494.567 1601.89 495.873 1603.29 497.46C1604.79 498.953 1605.53 500.82 1605.53 503.06C1605.53 505.58 1604.6 507.587 1602.73 509.08C1600.96 510.48 1598.49 511.18 1595.31 511.18C1592.7 511.18 1590.27 510.713 1588.03 509.78C1585.89 508.753 1583.97 507.4 1582.29 505.72C1580.61 504.04 1579.12 502.22 1577.81 500.26ZM1677.93 490.32L1668.41 496.76C1670.56 501.053 1673.31 505.113 1676.67 508.94C1680.12 512.673 1684.09 515.707 1688.57 518.04C1693.14 520.28 1698.09 521.4 1703.41 521.4C1707.33 521.4 1711.06 520.747 1714.61 519.44C1718.25 518.133 1721.47 516.267 1724.27 513.84C1727.16 511.413 1729.4 508.473 1730.99 505.02C1732.67 501.567 1733.51 497.693 1733.51 493.4C1733.51 488.92 1732.72 485.093 1731.13 481.92C1729.54 478.653 1727.49 475.9 1724.97 473.66C1722.54 471.327 1719.88 469.413 1716.99 467.92C1714.1 466.427 1711.34 465.213 1708.73 464.28C1703.04 462.32 1698.51 460.36 1695.15 458.4C1691.88 456.347 1689.55 454.2 1688.15 451.96C1686.75 449.627 1686.05 447.107 1686.05 444.4C1686.05 441.227 1687.26 438.38 1689.69 435.86C1692.12 433.247 1695.99 431.94 1701.31 431.94C1705.14 431.94 1708.36 432.687 1710.97 434.18C1713.68 435.673 1715.96 437.587 1717.83 439.92C1719.7 442.253 1721.24 444.633 1722.45 447.06L1732.67 441.18C1731.08 437.727 1728.89 434.46 1726.09 431.38C1723.29 428.207 1719.88 425.64 1715.87 423.68C1711.95 421.627 1707.33 420.6 1702.01 420.6C1696.5 420.6 1691.6 421.72 1687.31 423.96C1683.02 426.107 1679.66 429.093 1677.23 432.92C1674.8 436.747 1673.59 441.087 1673.59 445.94C1673.59 450.42 1674.43 454.2 1676.11 457.28C1677.88 460.36 1680.12 462.973 1682.83 465.12C1685.54 467.173 1688.38 468.9 1691.37 470.3C1694.36 471.607 1697.06 472.68 1699.49 473.52C1703.22 474.827 1706.72 476.32 1709.99 478C1713.35 479.587 1716.06 481.687 1718.11 484.3C1720.16 486.913 1721.19 490.413 1721.19 494.8C1721.19 499.28 1719.6 502.967 1716.43 505.86C1713.26 508.753 1709.06 510.2 1703.83 510.2C1699.91 510.2 1696.41 509.36 1693.33 507.68C1690.25 506 1687.45 503.667 1684.93 500.68C1682.5 497.693 1680.17 494.24 1677.93 490.32ZM1755.33 500.12C1755.33 497.787 1755.89 495.78 1757.01 494.1C1758.13 492.42 1759.81 491.113 1762.05 490.18C1764.38 489.247 1767.37 488.78 1771.01 488.78C1774.93 488.78 1778.62 489.293 1782.07 490.32C1785.52 491.253 1788.88 492.84 1792.15 495.08V488.5C1791.5 487.66 1790.24 486.587 1788.37 485.28C1786.5 483.88 1783.98 482.667 1780.81 481.64C1777.73 480.52 1773.86 479.96 1769.19 479.96C1761.26 479.96 1755.05 481.873 1750.57 485.7C1746.18 489.433 1743.99 494.427 1743.99 500.68C1743.99 505.067 1745.02 508.8 1747.07 511.88C1749.12 514.96 1751.83 517.34 1755.19 519.02C1758.64 520.607 1762.33 521.4 1766.25 521.4C1769.8 521.4 1773.34 520.747 1776.89 519.44C1780.53 518.133 1783.56 516.127 1785.99 513.42C1788.51 510.713 1789.77 507.307 1789.77 503.2L1787.53 494.8C1787.53 498.16 1786.69 501.147 1785.01 503.76C1783.42 506.28 1781.23 508.24 1778.43 509.64C1775.72 511.04 1772.64 511.74 1769.19 511.74C1766.48 511.74 1764.06 511.32 1761.91 510.48C1759.86 509.547 1758.22 508.193 1757.01 506.42C1755.89 504.647 1755.33 502.547 1755.33 500.12ZM1753.65 470.44C1754.68 469.693 1756.08 468.807 1757.85 467.78C1759.62 466.753 1761.77 465.867 1764.29 465.12C1766.9 464.373 1769.8 464 1772.97 464C1774.93 464 1776.8 464.187 1778.57 464.56C1780.34 464.933 1781.88 465.54 1783.19 466.38C1784.59 467.22 1785.66 468.387 1786.41 469.88C1787.16 471.28 1787.53 473.1 1787.53 475.34V520H1798.73V473.8C1798.73 469.6 1797.66 466.053 1795.51 463.16C1793.46 460.267 1790.52 458.073 1786.69 456.58C1782.96 454.993 1778.57 454.2 1773.53 454.2C1767.56 454.2 1762.42 455.087 1758.13 456.86C1753.93 458.633 1750.62 460.407 1748.19 462.18L1753.65 470.44ZM1812.79 455.6V466.1H1844.99V455.6H1812.79ZM1843.87 424.24L1850.03 415C1849.38 414.067 1848.44 413.18 1847.23 412.34C1846.11 411.5 1844.76 410.8 1843.17 410.24C1841.58 409.68 1839.76 409.4 1837.71 409.4C1833.79 409.4 1830.43 410.24 1827.63 411.92C1824.92 413.507 1822.82 415.933 1821.33 419.2C1819.84 422.467 1819.09 426.667 1819.09 431.8V520H1830.29V433.2C1830.29 430.12 1830.57 427.647 1831.13 425.78C1831.69 423.913 1832.44 422.607 1833.37 421.86C1834.4 421.02 1835.61 420.6 1837.01 420.6C1838.13 420.6 1839.3 420.833 1840.51 421.3C1841.82 421.673 1842.94 422.653 1843.87 424.24ZM1882.67 521.4C1889.58 521.4 1895.55 520.047 1900.59 517.34C1905.72 514.54 1909.97 510.433 1913.33 505.02L1904.23 499.28C1901.9 503.2 1899.05 506.14 1895.69 508.1C1892.33 509.967 1888.46 510.9 1884.07 510.9C1879.68 510.9 1875.95 509.967 1872.87 508.1C1869.79 506.233 1867.46 503.527 1865.87 499.98C1864.28 496.433 1863.49 492.14 1863.49 487.1C1863.58 482.153 1864.42 478 1866.01 474.64C1867.69 471.187 1870.02 468.573 1873.01 466.8C1876.09 464.933 1879.78 464 1884.07 464C1887.71 464 1890.88 464.793 1893.59 466.38C1896.3 467.967 1898.4 470.16 1899.89 472.96C1901.48 475.76 1902.27 479.073 1902.27 482.9C1902.27 483.553 1902.13 484.393 1901.85 485.42C1901.57 486.353 1901.29 487.053 1901.01 487.52L1905.49 481.08H1859.29V490.6H1914.31C1914.31 490.413 1914.31 489.993 1914.31 489.34C1914.4 488.593 1914.45 487.893 1914.45 487.24C1914.45 480.427 1913.24 474.547 1910.81 469.6C1908.38 464.653 1904.88 460.873 1900.31 458.26C1895.83 455.553 1890.42 454.2 1884.07 454.2C1877.72 454.2 1872.12 455.6 1867.27 458.4C1862.51 461.2 1858.78 465.12 1856.07 470.16C1853.46 475.2 1852.15 481.08 1852.15 487.8C1852.15 494.427 1853.41 500.26 1855.93 505.3C1858.54 510.34 1862.14 514.307 1866.71 517.2C1871.38 520 1876.7 521.4 1882.67 521.4Z" fill="currentColor"/>
<path d="M573.636 319.22C557.396 319.22 541.736 316.436 526.656 310.868C511.576 305.3 498.12 297.412 486.288 287.204C474.456 276.764 465.06 264.352 458.1 249.968C451.372 235.352 448.008 219.228 448.008 201.596C448.008 184.66 451.604 169 458.796 154.616C465.988 140.232 475.848 127.704 488.376 117.032C500.904 106.36 515.172 98.124 531.18 92.324C547.42 86.292 564.472 83.276 582.336 83.276C591.384 83.276 599.04 83.624 605.304 84.32C611.568 85.016 617.6 86.06 623.4 87.452C629.432 88.612 636.392 90.236 644.28 92.324C647.76 93.252 650.196 94.644 651.588 96.5C653.212 98.356 654.14 100.908 654.372 104.156C654.836 109.492 655.416 115.292 656.112 121.556C656.808 127.588 657.272 135.128 657.504 144.176C657.736 145.8 656.924 147.192 655.068 148.352C653.444 149.28 651.588 149.512 649.5 149.048C647.644 148.584 646.368 147.076 645.672 144.524C643.352 135.708 640.684 128.168 637.668 121.904C634.652 115.408 630.128 110.072 624.096 105.896C618.296 101.952 611.22 99.052 602.868 97.196C594.748 95.108 585.932 94.064 576.42 94.064C562.964 94.064 550.436 96.848 538.836 102.416C527.468 107.752 517.608 115.176 509.256 124.688C501.136 133.968 494.756 144.524 490.116 156.356C485.476 168.188 483.156 180.484 483.156 193.244C483.156 207.396 485.36 221.316 489.768 235.004C494.408 248.692 500.904 261.104 509.256 272.24C517.84 283.144 527.932 291.96 539.532 298.688C551.364 305.184 564.472 308.432 578.856 308.432C595.56 308.432 609.364 304.604 620.268 296.948C631.172 289.292 640.452 278.62 648.108 264.932C649.732 261.916 652.052 260.408 655.068 260.408C658.316 260.408 659.94 262.264 659.94 265.976C659.94 267.832 659.476 270.848 658.548 275.024C657.62 278.968 656.344 283.26 654.72 287.9C653.328 292.308 651.936 296.252 650.544 299.732C648.92 302.98 647.528 305.068 646.368 305.996C645.44 306.924 643.12 307.968 639.408 309.128C630.824 312.608 620.5 315.16 608.436 316.784C596.604 318.408 585.004 319.22 573.636 319.22ZM753.19 319.22C740.43 319.22 729.294 316.088 719.782 309.824C710.27 303.56 702.846 294.744 697.51 283.376C692.174 271.776 689.506 258.436 689.506 243.356C689.506 229.9 692.522 217.72 698.554 206.816C704.818 195.68 713.054 186.748 723.262 180.02C733.47 173.292 744.606 169.928 756.67 169.928C765.95 169.928 774.186 171.784 781.378 175.496C788.57 179.208 794.138 184.428 798.082 191.156C802.258 197.652 804.346 205.192 804.346 213.776C804.346 220.968 800.866 224.564 793.906 224.564H720.478C717.23 224.564 714.91 225.492 713.518 227.348C712.358 228.972 711.778 232.336 711.778 237.44C711.778 248.576 714.214 258.784 719.086 268.064C723.958 277.112 730.454 284.42 738.574 289.988C746.694 295.324 755.626 297.992 765.37 297.992C772.33 297.992 778.594 296.716 784.162 294.164C789.962 291.38 795.066 287.436 799.474 282.332C800.402 281.172 801.098 280.476 801.562 280.244C802.026 279.78 802.606 279.548 803.302 279.548C805.158 279.548 806.086 280.708 806.086 283.028C806.086 287.436 803.998 292.308 799.822 297.644C796.342 302.052 792.166 305.88 787.294 309.128C782.422 312.376 777.086 314.812 771.286 316.436C765.486 318.292 759.454 319.22 753.19 319.22ZM721.174 213.776H752.842C758.41 213.776 763.166 213.66 767.11 213.428C771.054 213.196 774.882 212.732 778.594 212.036C779.754 211.804 780.45 211.108 780.682 209.948C781.146 208.556 781.378 206.7 781.378 204.38C781.378 197.652 778.362 191.968 772.33 187.328C766.53 182.456 759.57 180.02 751.45 180.02C746.114 180.02 740.778 181.644 735.442 184.892C730.106 187.908 725.698 191.736 722.218 196.376C718.738 201.016 716.998 205.656 716.998 210.296C716.998 212.616 718.39 213.776 721.174 213.776ZM828.236 315.044C827.076 315.044 825.568 314.812 823.712 314.348C822.088 314.116 821.276 313.304 821.276 311.912C821.276 310.056 822.088 308.78 823.712 308.084C825.568 307.156 827.424 306.344 829.28 305.648C832.76 304.488 836.124 303.212 839.372 301.82C842.62 300.196 844.244 297.064 844.244 292.424V117.032C844.244 110.304 842.968 104.736 840.416 100.328C838.096 95.688 834.036 92.788 828.236 91.628C826.38 91.164 825.452 89.656 825.452 87.104C825.452 84.784 826.264 83.392 827.888 82.928C833.92 81.536 839.14 80.144 843.548 78.752C847.956 77.128 852.016 75.504 855.728 73.88C859.672 72.256 863.5 70.748 867.212 69.356C868.14 68.892 868.836 68.66 869.3 68.66C869.764 68.66 870.112 69.008 870.344 69.704C870.808 70.168 871.04 70.632 871.04 71.096C871.04 73.184 870.576 77.708 869.648 84.668C868.952 91.396 868.604 102.648 868.604 118.424V292.424C868.604 297.064 870.228 300.196 873.476 301.82C876.724 303.212 880.088 304.488 883.568 305.648C885.424 306.344 887.164 307.156 888.788 308.084C890.644 308.78 891.572 310.056 891.572 311.912C891.572 313.304 890.644 314.116 888.788 314.348C887.164 314.812 885.772 315.044 884.612 315.044C880.204 315.044 876.608 314.812 873.824 314.348C871.272 314.116 868.72 313.884 866.168 313.652C863.848 313.42 860.6 313.304 856.424 313.304C852.48 313.304 849.232 313.42 846.68 313.652C844.128 313.884 841.576 314.116 839.024 314.348C836.472 314.812 832.876 315.044 828.236 315.044ZM979.698 318.872C966.706 318.872 954.99 315.856 944.55 309.824C934.11 303.792 925.758 295.556 919.494 285.116C913.462 274.444 910.446 262.38 910.446 248.924C910.446 239.18 912.302 229.668 916.014 220.388C919.958 211.108 925.41 202.64 932.37 194.984C939.33 187.328 947.45 181.296 956.73 176.888C966.01 172.248 975.986 169.928 986.658 169.928C1000.11 169.928 1012.18 173.176 1022.85 179.672C1033.75 186.168 1042.34 194.752 1048.6 205.424C1055.1 215.864 1058.35 227.348 1058.35 239.876C1058.35 253.332 1055.33 266.092 1049.3 278.156C1043.5 290.22 1034.8 300.08 1023.2 307.736C1011.6 315.16 997.098 318.872 979.698 318.872ZM987.006 308.432C994.894 308.432 1001.97 306.924 1008.23 303.908C1014.5 300.892 1019.37 296.02 1022.85 289.292C1025.63 283.956 1027.49 277.46 1028.42 269.804C1029.35 262.148 1029.81 254.956 1029.81 248.228C1029.81 237.092 1027.72 226.42 1023.55 216.212C1019.6 205.772 1013.92 197.304 1006.49 190.808C999.302 184.08 990.718 180.716 980.742 180.716C974.478 180.716 968.794 181.76 963.69 183.848C958.818 185.704 954.294 189.3 950.118 194.636C945.478 200.436 942.462 207.512 941.07 215.864C939.678 224.216 938.982 232.568 938.982 240.92C938.982 252.288 941.07 263.192 945.246 273.632C949.422 283.84 955.106 292.192 962.298 298.688C969.49 305.184 977.726 308.432 987.006 308.432ZM1211.23 319.568C1201.48 319.568 1192.43 318.06 1184.08 315.044C1175.96 312.26 1168.65 308.2 1162.16 302.864C1161.23 301.936 1160.3 300.892 1159.37 299.732C1158.68 298.572 1158.1 297.296 1157.63 295.904C1156.47 291.264 1155.66 285.232 1155.2 277.808C1154.97 270.384 1154.62 264.236 1154.15 259.364C1154.15 257.74 1154.85 256.58 1156.24 255.884C1157.63 254.956 1159.26 254.492 1161.11 254.492C1162.27 254.492 1163.43 254.84 1164.59 255.536C1165.75 256 1166.45 256.928 1166.68 258.32C1171.32 276.184 1178.17 288.944 1187.21 296.6C1196.49 304.256 1206.12 308.084 1216.1 308.084C1224.22 308.084 1231.41 306.344 1237.67 302.864C1243.94 299.384 1248.81 294.512 1252.29 288.248C1256 281.752 1257.86 274.212 1257.86 265.628C1257.86 256.116 1256.23 248.46 1252.99 242.66C1249.97 236.628 1245.56 231.408 1239.76 227C1233.96 222.592 1226.89 217.836 1218.53 212.732C1209.49 206.932 1200.55 201.132 1191.74 195.332C1182.92 189.3 1175.61 182.456 1169.81 174.8C1164.01 166.912 1161.11 157.4 1161.11 146.264C1161.11 134.432 1163.78 123.76 1169.12 114.248C1174.45 104.736 1182.46 97.196 1193.13 91.628C1204.03 85.828 1217.61 82.928 1233.85 82.928C1242.2 82.928 1249.39 83.856 1255.42 85.712C1261.69 87.336 1266.67 88.96 1270.39 90.584C1272.24 91.28 1273.75 92.44 1274.91 94.064C1276.3 95.688 1277.23 97.428 1277.69 99.284C1279.09 104.156 1280.59 109.724 1282.22 115.988C1283.84 122.252 1284.65 128.168 1284.65 133.736C1284.65 136.288 1282.91 137.564 1279.43 137.564C1277.35 137.564 1275.26 137.1 1273.17 136.172C1271.31 135.244 1270.15 134.084 1269.69 132.692C1264.82 120.396 1259.13 111 1252.64 104.504C1246.14 98.008 1237.91 94.76 1227.93 94.76C1220.97 94.76 1214.47 96.036 1208.44 98.588C1202.41 101.14 1197.42 105.316 1193.48 111.116C1189.77 116.916 1187.91 124.688 1187.91 134.432C1187.91 141.392 1190.11 147.772 1194.52 153.572C1199.16 159.14 1205.19 164.476 1212.62 169.58C1220.04 174.684 1228.05 179.904 1236.63 185.24C1244.75 190.112 1252.64 195.448 1260.29 201.248C1268.18 207.048 1274.56 214.008 1279.43 222.128C1284.54 230.016 1287.09 239.76 1287.09 251.36C1287.09 265.048 1283.96 277.112 1277.69 287.552C1271.43 297.76 1262.61 305.648 1251.25 311.216C1239.88 316.784 1226.54 319.568 1211.23 319.568ZM1342.72 318.872C1338.54 318.872 1334.25 317.248 1329.84 314C1325.66 310.752 1322.07 306.808 1319.05 302.168C1316.27 297.528 1314.88 293.12 1314.88 288.944C1314.88 281.52 1316.85 275.72 1320.79 271.544C1324.74 267.368 1331 263.54 1339.58 260.06L1375.08 245.444C1379.72 243.588 1382.39 241.964 1383.08 240.572C1384.01 239.18 1384.59 236.164 1384.82 231.524L1385.52 209.252C1385.75 203.22 1384.01 198 1380.3 193.592C1376.82 189.184 1371.72 186.98 1364.99 186.98C1361.51 186.98 1358.03 187.56 1354.55 188.72C1351.07 189.88 1348.17 191.388 1345.85 193.244C1344.46 194.172 1343.53 195.564 1343.06 197.42C1342.6 199.276 1342.37 201.248 1342.37 203.336C1342.37 204.264 1342.37 205.308 1342.37 206.468C1342.6 207.628 1342.72 208.672 1342.72 209.6C1342.72 210.76 1341.21 212.384 1338.19 214.472C1335.41 216.328 1332.16 218.068 1328.45 219.692C1324.97 221.084 1322.07 221.78 1319.75 221.78C1318.59 221.78 1317.66 221.548 1316.96 221.084C1316.27 220.388 1315.92 219.576 1315.92 218.648C1315.92 214.936 1317.08 210.992 1319.4 206.816C1321.95 202.408 1325.43 198.348 1329.84 194.636C1335.18 189.764 1340.98 185.472 1347.24 181.76C1353.5 178.048 1359.65 175.148 1365.68 173.06C1371.72 170.972 1377.05 169.928 1381.69 169.928C1390.04 169.928 1396.89 172.944 1402.22 178.976C1407.79 184.776 1410.46 192.084 1410.23 200.9L1408.49 284.42C1408.26 289.292 1409.3 293.236 1411.62 296.252C1414.17 299.268 1417.3 300.776 1421.02 300.776C1426.82 300.776 1431.11 299.5 1433.89 296.948C1435.05 295.788 1435.98 295.208 1436.68 295.208C1437.84 295.208 1438.76 295.556 1439.46 296.252C1440.16 296.948 1440.5 297.876 1440.5 299.036C1440.5 301.588 1439.23 304.14 1436.68 306.692C1432.96 310.404 1428.9 313.304 1424.5 315.392C1420.32 317.712 1416.38 318.872 1412.66 318.872C1401.99 318.872 1393.52 312.84 1387.26 300.776H1386.22C1378.56 307.04 1371.25 311.564 1364.29 314.348C1357.33 317.364 1350.14 318.872 1342.72 318.872ZM1359.07 302.168C1363.71 302.168 1367.66 301.472 1370.9 300.08C1374.15 298.456 1377.05 296.368 1379.6 293.816C1380.76 292.656 1381.69 291.148 1382.39 289.292C1383.32 287.204 1383.9 283.956 1384.13 279.548L1384.82 262.496C1385.06 259.944 1384.94 258.088 1384.48 256.928C1384.01 255.768 1383.08 255.188 1381.69 255.188C1381.23 255.188 1380.42 255.304 1379.26 255.536C1378.1 255.768 1376.59 256.232 1374.73 256.928C1362.44 261.336 1353.85 265.976 1348.98 270.848C1344.34 275.488 1342.02 279.78 1342.02 283.724C1342.02 289.756 1343.76 294.396 1347.24 297.644C1350.95 300.66 1354.9 302.168 1359.07 302.168ZM1456.31 315.044C1453.99 315.044 1452.25 314.696 1451.09 314C1449.93 313.536 1449.35 312.608 1449.35 311.216C1449.35 309.36 1450.04 308.084 1451.44 307.388C1453.06 306.692 1455.03 306.112 1457.35 305.648C1462.69 304.488 1466.52 302.864 1468.84 300.776C1471.16 298.456 1472.32 294.976 1472.32 290.336V192.2C1470 192.2 1467.33 192.2 1464.31 192.2C1461.3 191.968 1457.93 191.736 1454.22 191.504C1453.52 191.272 1452.48 190.46 1451.09 189.068C1449.93 187.676 1449.35 186.4 1449.35 185.24C1449.35 184.776 1449.7 184.428 1450.39 184.196C1451.09 183.732 1451.55 183.384 1451.78 183.152C1455.96 181.064 1459.56 179.208 1462.57 177.584C1465.59 175.96 1468.84 174.336 1472.32 172.712C1472.32 152.528 1474.75 135.708 1479.62 122.252C1484.73 108.796 1491.22 98.124 1499.11 90.236C1507 82.348 1515.35 76.78 1524.17 73.532C1532.98 70.052 1541.22 68.312 1548.88 68.312C1561.87 68.312 1571.5 70.284 1577.76 74.228C1584.02 78.172 1587.16 83.16 1587.16 89.192C1587.16 93.832 1586 97.312 1583.68 99.632C1581.36 101.952 1578.57 103.112 1575.32 103.112C1573.24 103.112 1571.26 102.3 1569.41 100.676C1567.78 99.052 1565.81 97.196 1563.49 95.108C1560.48 92.092 1556.76 89.308 1552.36 86.756C1547.95 83.972 1541.92 82.58 1534.26 82.58C1523.36 82.58 1514.31 87.336 1507.12 96.848C1500.16 106.36 1496.68 120.976 1496.68 140.696V171.32C1496.68 172.712 1497.02 173.64 1497.72 174.104C1498.65 174.568 1499.58 174.8 1500.5 174.8H1544C1545.16 174.8 1546.21 175.148 1547.14 175.844C1548.06 176.54 1548.53 177.468 1548.53 178.628C1548.53 180.252 1548.3 181.992 1547.83 183.848C1547.6 185.704 1547.14 187.328 1546.44 188.72C1545.74 190.576 1544.7 191.504 1543.31 191.504H1503.29C1500.5 191.504 1498.65 191.968 1497.72 192.896C1497.02 193.592 1496.68 194.636 1496.68 196.028V290.336C1496.68 294.976 1498.18 298.456 1501.2 300.776C1504.22 302.864 1510.36 304.488 1519.64 305.648C1524.98 306.344 1527.65 308.2 1527.65 311.216C1527.65 312.608 1527.07 313.536 1525.91 314C1524.75 314.696 1523.01 315.044 1520.69 315.044C1513.73 315.044 1507.58 314.696 1502.24 314C1496.91 313.536 1491.22 313.304 1485.19 313.304C1481.25 313.304 1478 313.42 1475.45 313.652C1472.9 313.884 1470.23 314.116 1467.44 314.348C1464.66 314.812 1460.95 315.044 1456.31 315.044ZM1617.07 319.22C1604.31 319.22 1593.18 316.088 1583.67 309.824C1574.15 303.56 1566.73 294.744 1561.39 283.376C1556.06 271.776 1553.39 258.436 1553.39 243.356C1553.39 229.9 1556.41 217.72 1562.44 206.816C1568.7 195.68 1576.94 186.748 1587.15 180.02C1597.35 173.292 1608.49 169.928 1620.55 169.928C1629.83 169.928 1638.07 171.784 1645.26 175.496C1652.45 179.208 1658.02 184.428 1661.97 191.156C1666.14 197.652 1668.23 205.192 1668.23 213.776C1668.23 220.968 1664.75 224.564 1657.79 224.564H1584.36C1581.11 224.564 1578.79 225.492 1577.4 227.348C1576.24 228.972 1575.66 232.336 1575.66 237.44C1575.66 248.576 1578.1 258.784 1582.97 268.064C1587.84 277.112 1594.34 284.42 1602.46 289.988C1610.58 295.324 1619.51 297.992 1629.25 297.992C1636.21 297.992 1642.48 296.716 1648.05 294.164C1653.85 291.38 1658.95 287.436 1663.36 282.332C1664.29 281.172 1664.98 280.476 1665.45 280.244C1665.91 279.78 1666.49 279.548 1667.19 279.548C1669.04 279.548 1669.97 280.708 1669.97 283.028C1669.97 287.436 1667.88 292.308 1663.71 297.644C1660.23 302.052 1656.05 305.88 1651.18 309.128C1646.31 312.376 1640.97 314.812 1635.17 316.436C1629.37 318.292 1623.34 319.22 1617.07 319.22ZM1585.06 213.776H1616.73C1622.29 213.776 1627.05 213.66 1630.99 213.428C1634.94 213.196 1638.77 212.732 1642.48 212.036C1643.64 211.804 1644.33 211.108 1644.57 209.948C1645.03 208.556 1645.26 206.7 1645.26 204.38C1645.26 197.652 1642.25 191.968 1636.21 187.328C1630.41 182.456 1623.45 180.02 1615.33 180.02C1610 180.02 1604.66 181.644 1599.33 184.892C1593.99 187.908 1589.58 191.736 1586.1 196.376C1582.62 201.016 1580.88 205.656 1580.88 210.296C1580.88 212.616 1582.27 213.776 1585.06 213.776Z" fill="currentColor"/> -->
</svg>