<?xml version="1.0" encoding="utf-8"?>
<!DOCTYPE svg PUBLIC "-//W3C//DTD SVG 20010904//EN" "http://www.w3.org/TR/2001/REC-SVG-20010904/DTD/svg10.dtd">
<svg version="1.0" xmlns="http://www.w3.org/2000/svg" width="602pt" height="326pt" viewBox="0 0 602 326" style="" preserveAspectRatio="xMidYMid meet">
<g fill="#E36E1BFF" stroke="#E36E1BFF">
<path d="M 146.000 104.726 C 146.000 107.994 145.751 110.915 145.447 111.220 C 145.143 111.524 142.822 111.149 140.288 110.386 C 137.755 109.624 135.304 109.000 134.841 109.000 C 134.378 109.000 134.000 114.625 134.000 121.500 C 134.000 128.600 133.595 134.000 133.064 134.000 C 132.549 134.000 128.621 132.650 124.337 131.000 C 120.052 129.350 116.423 128.000 116.273 128.000 C 116.123 128.000 116.000 133.759 116.000 140.797 L 116.000 153.594 124.750 156.581 L 133.500 159.568 133.779 172.784 C 133.932 180.053 133.834 186.000 133.560 186.000 C 133.286 186.000 129.615 184.875 125.403 183.500 C 121.191 182.125 117.339 181.000 116.842 181.000 C 116.339 181.000 116.064 186.581 116.220 193.628 L 116.500 206.255 127.500 209.538 C 133.550 211.343 140.188 213.106 142.250 213.455 L 146.000 214.091 146.000 220.526 C 146.000 227.572 145.474 227.034 153.703 228.400 L 156.906 228.931 157.203 222.716 L 157.500 216.500 163.000 216.854 C 166.025 217.049 168.838 217.413 169.250 217.663 C 169.663 217.913 170.000 220.735 170.000 223.934 C 170.000 229.648 170.055 229.761 173.125 230.375 C 180.701 231.890 181.000 231.670 181.000 224.571 L 181.000 218.142 186.750 216.955 C 194.767 215.301 199.001 212.905 204.274 207.040 C 216.656 193.269 215.583 170.318 202.353 165.951 C 198.357 164.633 198.246 164.057 201.419 161.076 C 204.784 157.915 208.131 149.656 208.724 143.053 C 210.017 128.645 202.980 121.282 185.250 118.493 L 181.000 117.824 181.000 111.412 L 181.000 105.000 177.750 104.986 C 175.963 104.979 173.488 104.701 172.250 104.370 C 170.098 103.793 170.000 104.030 170.000 109.824 C 170.000 113.156 169.663 116.065 169.250 116.288 C 168.838 116.511 166.025 116.200 163.000 115.597 L 157.500 114.500 157.207 107.871 L 156.914 101.242 153.044 100.623 C 150.916 100.283 148.461 99.730 147.587 99.395 C 146.247 98.881 146.000 99.712 146.000 104.726 M 176.846 176.942 C 187.091 177.919 190.273 180.273 190.273 186.877 C 190.273 195.724 184.856 198.567 170.211 197.409 C 156.444 196.320 157.000 196.847 157.000 184.887 L 157.000 174.725 162.750 175.436 C 165.913 175.827 172.256 176.504 176.846 176.942 M 168.381 136.520 C 180.673 138.365 184.560 140.136 186.018 144.555 C 187.241 148.260 185.676 153.367 182.513 155.990 C 180.400 157.743 170.899 157.744 162.458 155.991 L 157.000 154.858 157.000 144.929 C 157.000 139.468 157.284 135.000 157.631 135.000 C 157.978 135.000 162.815 135.684 168.381 136.520 "/></g>
<g fill="#E36E1BFF" stroke="#E36E1BFF">
<path d="M 249.000 169.500 L 249.000 198.000 264.050 198.000 C 280.330 198.000 282.282 197.522 287.186 192.339 C 294.094 185.038 293.465 173.935 285.777 167.466 C 283.223 165.317 282.983 164.726 284.111 163.367 C 284.836 162.493 285.429 159.410 285.429 156.515 C 285.429 152.270 284.878 150.528 282.582 147.519 C 278.399 142.034 274.980 141.000 261.032 141.000 L 249.000 141.000 249.000 169.500 M 280.545 174.455 C 284.231 178.140 284.174 183.140 280.403 187.000 C 278.112 189.345 277.324 189.500 267.730 189.500 L 257.500 189.500 257.211 180.750 L 256.922 172.000 267.507 172.000 C 277.411 172.000 278.249 172.158 280.545 174.455 M 275.171 151.655 C 277.584 153.839 277.499 158.501 275.000 161.000 C 273.333 162.667 271.667 163.000 265.000 163.000 L 257.000 163.000 257.000 156.500 L 257.000 150.000 265.171 150.000 C 271.371 150.000 273.784 150.399 275.171 151.655 "/></g>
<g fill="#E36E1BFF" stroke="#E36E1BFF">
<path d="M 379.044 153.577 C 372.909 156.239 368.835 160.119 366.252 165.761 C 361.308 176.560 364.721 188.347 374.852 195.461 C 378.816 198.244 379.866 198.500 387.340 198.500 C 393.503 198.500 396.105 198.072 397.973 196.750 C 401.005 194.604 403.000 194.504 403.000 196.500 C 403.000 197.583 404.111 198.000 407.000 198.000 L 411.000 198.000 411.000 176.500 L 411.000 155.000 407.083 155.000 C 404.929 155.000 403.017 155.446 402.833 155.992 C 402.650 156.537 400.286 155.862 397.581 154.492 C 391.871 151.600 384.447 151.234 379.044 153.577 M 395.294 162.669 C 398.538 164.327 401.737 169.141 402.589 173.648 C 403.408 177.978 400.111 185.072 395.876 188.092 C 385.627 195.402 370.564 186.063 372.438 173.563 C 374.027 162.967 385.334 157.578 395.294 162.669 "/></g>
<g fill="#E36E1BFF" stroke="#E36E1BFF">
<path d="M 72.500 95.710 C 70.850 95.936 67.813 96.561 65.750 97.099 L 62.000 98.077 62.000 111.514 L 62.000 124.950 64.299 124.076 C 65.564 123.596 69.614 122.879 73.299 122.485 L 80.000 121.767 80.000 135.270 L 80.000 148.773 75.250 149.461 C 72.638 149.839 68.588 150.618 66.250 151.193 L 62.000 152.237 62.000 165.686 L 62.000 179.135 64.250 178.390 C 65.488 177.980 69.425 177.153 73.000 176.552 L 79.500 175.459 80.000 161.979 L 80.500 148.500 89.250 148.591 L 98.000 148.683 98.000 135.841 C 98.000 121.031 97.442 121.627 108.161 124.987 C 111.647 126.080 114.851 126.980 115.280 126.987 C 115.709 126.994 115.934 121.280 115.780 114.289 L 115.500 101.578 108.500 99.340 C 97.261 95.745 98.000 94.986 98.000 110.125 L 98.000 123.250 94.875 122.625 C 93.156 122.281 89.106 122.000 85.875 122.000 L 80.000 122.000 80.000 108.500 C 80.000 93.394 80.700 94.588 72.500 95.710 "/></g>
<g fill="#E36E1BFF" stroke="#E36E1BFF">
<path d="M 474.488 153.290 C 465.823 157.435 460.411 166.887 461.207 176.487 C 462.185 188.274 472.545 198.000 484.123 198.000 C 491.624 198.000 497.738 195.293 502.317 189.943 L 505.976 185.669 501.911 183.849 L 497.846 182.029 495.350 184.996 C 491.977 189.005 486.234 190.686 481.135 189.159 C 476.027 187.628 472.439 184.698 471.152 181.006 L 470.104 178.000 489.172 178.000 L 508.240 178.000 507.806 171.995 C 507.286 164.812 503.765 159.098 497.098 154.620 C 490.907 150.462 481.550 149.912 474.488 153.290 M 490.364 160.379 C 493.492 161.686 498.000 166.265 498.000 168.135 C 498.000 168.611 491.925 169.000 484.500 169.000 C 477.075 169.000 471.000 168.650 471.000 168.223 C 471.000 166.225 474.655 162.606 478.383 160.914 C 483.329 158.668 485.985 158.549 490.364 160.379 "/></g>
<g fill="#E36E1BFF" stroke="#E36E1BFF">
<path d="M 98.000 163.000 L 98.000 176.000 89.000 176.000 L 80.000 176.000 80.000 189.000 L 80.000 202.000 89.000 202.000 L 98.000 202.000 98.000 189.000 C 98.000 179.248 98.312 176.009 99.250 176.035 C 101.116 176.088 112.238 178.645 114.250 179.484 C 115.864 180.157 116.000 179.209 116.000 167.267 L 116.000 154.320 112.250 153.181 C 106.603 151.465 100.653 150.012 99.250 150.006 C 98.314 150.001 98.000 153.264 98.000 163.000 "/></g>
<g fill="#E36E1BFF" stroke="#E36E1BFF">
<path d="M 416.000 151.346 C 416.000 151.537 416.648 152.999 417.439 154.596 C 420.893 161.566 434.000 192.428 434.000 193.591 C 434.000 194.296 432.689 198.276 431.087 202.436 L 428.175 210.000 432.888 210.000 L 437.601 210.000 439.745 204.250 C 440.924 201.088 445.897 187.925 450.798 175.000 L 459.707 151.500 455.144 151.500 L 450.581 151.500 445.040 166.240 C 441.993 174.347 439.272 180.984 438.994 180.990 C 438.716 180.995 437.868 179.538 437.109 177.750 C 436.350 175.963 434.527 171.800 433.056 168.500 C 431.586 165.200 429.284 159.920 427.941 156.767 L 425.500 151.034 420.750 151.017 C 418.138 151.008 416.000 151.156 416.000 151.346 "/></g>
<g fill="#E36E1BFF" stroke="#E36E1BFF">
<path d="M 321.000 144.500 L 321.000 150.000 317.500 150.000 C 314.019 150.000 314.000 150.024 314.000 154.500 C 314.000 158.958 314.032 159.000 317.426 159.000 L 320.852 159.000 321.176 173.328 C 321.477 186.634 321.675 187.911 323.962 191.243 C 327.000 195.672 331.676 198.000 337.534 198.000 L 342.000 198.000 342.000 194.000 C 342.000 190.203 341.844 190.000 338.934 190.000 C 335.712 190.000 332.005 188.457 330.765 186.600 C 330.361 185.995 330.024 179.538 330.015 172.250 L 330.000 159.000 334.500 159.000 L 339.000 159.000 339.000 154.500 L 339.000 150.000 334.500 150.000 L 330.000 150.000 330.000 144.500 L 330.000 139.000 325.500 139.000 L 321.000 139.000 321.000 144.500 "/></g>
<g fill="#E36E1BFF" stroke="#E36E1BFF">
<path d="M 349.000 168.500 L 349.000 198.000 353.500 198.000 L 358.000 198.000 358.000 168.500 L 358.000 139.000 353.500 139.000 L 349.000 139.000 349.000 168.500 "/></g>
<g fill="#E36E1BFF" stroke="#E36E1BFF">
<path d="M 515.000 174.500 L 515.000 198.000 519.000 198.000 L 523.000 198.000 523.000 182.535 L 523.000 167.070 526.108 163.529 C 528.297 161.037 530.366 159.805 533.098 159.368 C 536.098 158.889 537.319 158.068 538.474 155.752 C 539.295 154.105 539.724 152.362 539.425 151.879 C 538.563 150.483 531.275 150.858 527.346 152.500 C 525.371 153.325 523.586 154.000 523.378 154.000 C 523.170 154.000 523.000 153.325 523.000 152.500 C 523.000 151.417 521.889 151.000 519.000 151.000 L 515.000 151.000 515.000 174.500 "/></g>
<g fill="#E36E1BFF" stroke="#E36E1BFF">
<path d="M 298.000 175.500 L 298.000 198.000 302.500 198.000 L 307.000 198.000 307.000 175.500 L 307.000 153.000 302.500 153.000 L 298.000 153.000 298.000 175.500 "/></g>
<g fill="#E26E1B95" stroke="#E26E1B95">
<path d="M 248.452 141.263 C 248.186 141.958 248.087 155.121 248.234 170.513 L 248.500 198.500 262.250 198.483 L 276.000 198.467 262.500 198.233 L 249.000 198.000 249.000 169.534 L 249.000 141.068 259.750 140.746 L 270.500 140.425 259.719 140.212 C 251.794 140.056 248.809 140.335 248.452 141.263 "/></g>
<g fill="#E36E1BFF" stroke="#E36E1BFF">
<path d="M 298.448 141.440 C 296.877 143.836 296.877 144.164 298.448 146.560 C 301.795 151.669 309.398 147.452 306.689 141.991 C 304.912 138.409 300.622 138.122 298.448 141.440 "/></g>
<g fill="#E26E1A6B" stroke="#E26E1A6B">
<path d="M 348.453 139.262 C 348.187 139.956 348.095 153.569 348.250 169.512 L 348.532 198.500 348.766 168.805 L 349.000 139.110 353.750 138.735 L 358.500 138.360 353.719 138.180 C 350.648 138.065 348.764 138.452 348.453 139.262 "/></g>
<g fill="#E26E1BC0" stroke="#E26E1BC0">
<path d="M 257.434 180.500 L 257.500 189.500 266.750 189.476 L 276.000 189.452 267.039 189.226 L 258.078 189.000 257.723 180.250 L 257.369 171.500 257.434 180.500 "/></g>
<g fill="#E76D2415" stroke="#E76D2415">
<path d="M 79.500 121.577 C 78.884 121.835 78.619 126.861 78.809 134.652 C 79.044 144.264 78.804 147.508 77.809 148.139 C 76.826 148.763 76.935 148.973 78.250 148.985 C 79.831 148.999 80.000 147.700 80.000 135.570 C 80.000 122.437 80.050 122.129 82.250 121.706 C 84.134 121.343 84.175 121.263 82.500 121.215 C 81.400 121.184 80.050 121.346 79.500 121.577 "/></g>
<g fill="#E76D2415" stroke="#E76D2415">
<path d="M 98.025 189.375 L 98.551 203.500 99.025 189.759 C 99.325 181.077 99.132 175.877 98.500 175.634 C 97.847 175.383 97.682 180.156 98.025 189.375 "/></g>
<g fill="#E26E1B95" stroke="#E26E1B95">
<path d="M 61.194 166.250 C 61.088 173.813 61.338 180.001 61.750 180.002 C 62.163 180.003 62.250 173.816 61.944 166.252 L 61.389 152.500 61.194 166.250 "/></g>
<g fill="#E26E1B95" stroke="#E26E1B95">
<path d="M 133.216 121.250 L 133.432 134.500 133.749 122.039 C 133.962 113.643 134.462 109.325 135.282 108.804 C 136.124 108.269 135.960 108.026 134.750 108.015 C 133.160 108.001 133.020 109.210 133.216 121.250 "/></g>
<g fill="#E76D2415" stroke="#E76D2415">
<path d="M 115.056 193.843 L 115.611 207.500 115.806 194.309 C 115.912 187.054 115.663 180.908 115.250 180.652 C 114.838 180.395 114.750 186.331 115.056 193.843 "/></g>
<g fill="#E76D2415" stroke="#E76D2415">
<path d="M 115.435 128.308 C 115.159 129.028 115.076 134.990 115.252 141.558 L 115.570 153.500 115.785 140.833 C 115.938 131.804 116.359 128.022 117.250 127.662 C 118.229 127.267 118.222 127.141 117.219 127.079 C 116.514 127.036 115.711 127.589 115.435 128.308 "/></g>
<g fill="#E26E1B95" stroke="#E26E1B95">
<path d="M 133.056 172.843 L 133.611 186.500 133.806 173.309 C 133.912 166.054 133.663 159.908 133.250 159.652 C 132.838 159.395 132.750 165.331 133.056 172.843 "/></g>
<g fill="#E26E1A6B" stroke="#E26E1A6B">
<path d="M 320.409 139.377 C 320.118 140.134 320.051 142.947 320.260 145.627 L 320.640 150.500 320.820 144.805 L 321.000 139.110 325.750 138.735 L 330.500 138.360 325.719 138.180 C 322.449 138.057 320.770 138.435 320.409 139.377 "/></g>
<g fill="#E76D2415" stroke="#E76D2415">
<path d="M 339.185 154.195 L 339.000 158.890 334.250 159.265 L 329.500 159.640 334.802 159.820 L 340.105 160.000 339.737 154.750 L 339.370 149.500 339.185 154.195 "/></g>
<g fill="#E76D2415" stroke="#E76D2415">
<path d="M 313.180 154.750 L 313.000 160.000 316.750 159.840 C 320.367 159.686 320.386 159.666 317.302 159.281 C 314.282 158.903 314.084 158.621 313.733 154.191 L 313.360 149.500 313.180 154.750 "/></g>
<g fill="#E26E1BC0" stroke="#E26E1BC0">
<path d="M 169.093 223.844 L 169.685 230.500 169.843 224.309 C 169.929 220.904 169.663 217.909 169.250 217.653 C 168.838 217.397 168.767 220.183 169.093 223.844 "/></g>
<g fill="#E26E1BC0" stroke="#E26E1BC0">
<path d="M 169.100 110.500 C 168.909 114.350 169.058 116.771 169.433 115.881 C 169.807 114.990 169.964 111.840 169.781 108.881 C 169.459 103.670 169.437 103.721 169.100 110.500 "/></g>
<g fill="#E26E1BC0" stroke="#E26E1BC0">
<path d="M 145.100 105.500 C 144.909 109.350 145.058 111.771 145.433 110.881 C 145.807 109.990 145.964 106.840 145.781 103.881 C 145.459 98.670 145.437 98.721 145.100 105.500 "/></g>
<g fill="#E26E1A6B" stroke="#E26E1A6B">
<path d="M 518.250 150.703 C 520.863 150.926 523.068 151.535 523.150 152.055 C 523.233 152.575 523.345 152.438 523.400 151.750 C 523.467 150.916 521.838 150.466 518.500 150.398 L 513.500 150.296 518.250 150.703 "/></g>
<g fill="#E26E1B95" stroke="#E26E1B95">
<path d="M 402.321 196.500 C 402.492 198.161 403.245 198.492 406.764 198.455 C 410.900 198.410 410.907 198.404 407.073 198.205 C 404.313 198.061 402.993 197.480 402.631 196.250 C 402.230 194.890 402.161 194.946 402.321 196.500 "/></g>
<g fill="#E76D2415" stroke="#E76D2415">
<path d="M 204.000 125.000 L 206.500 127.500 204.000 125.000 L 201.500 122.500 204.000 125.000 "/></g>
<g fill="#E26E1B95" stroke="#E26E1B95">
<path d="M 200.589 162.040 C 199.539 163.125 198.872 164.205 199.107 164.441 C 199.343 164.676 200.203 163.788 201.018 162.468 C 202.485 160.091 202.481 160.087 200.589 162.040 "/></g>
</svg>
