<svg version="1.2" xmlns="http://www.w3.org/2000/svg" viewBox="0 0 656 83" width="656" height="83">
	<title>logo</title>
	<path id="Layer" fill="currentColor" d="m375 18.5v44c0 1.1 0.8 2 1.9 2h3c1.5 0 2.7 1.2 2.7 2.7v2.9c0 1.1 0.9 1.9 1.9 1.9h5.8c1.1 0 1.9-0.8 1.9-1.9v-4.1c0-1-0.8-1.9-1.9-1.9h-4.6c-1.5 0-2.8-1.2-2.8-2.7v-41.8c0-1.5 1.3-2.7 2.8-2.7h4.6c1.1 0 1.9-0.8 1.9-1.9v-4.1c0-1-0.8-1.9-1.9-1.9h-5.8c-1 0-1.9 0.9-1.9 1.9v3c0 1.5-1.2 2.7-2.7 2.7h-3c-1.1 0-1.9 0.8-1.9 1.9z"/>
	<path id="Layer" fill="currentColor" d="m652.3 62.5v-44c0-1.1-0.8-1.9-1.9-1.9h-3c-1.5 0-2.7-1.2-2.7-2.7v-3c0-1-0.9-1.9-1.9-1.9h-5.8c-1.1 0-1.9 0.9-1.9 1.9v4.1c0 1.1 0.8 1.9 1.9 1.9h4.6c1.5 0 2.8 1.2 2.8 2.7v41.8c0 1.5-1.3 2.7-2.8 2.7h-4.6c-1.1 0-1.9 0.9-1.9 1.9v4.1c0 1.1 0.8 1.9 1.9 1.9h5.8c1 0 1.9-0.8 1.9-1.9v-2.9c0-1.5 1.2-2.7 2.7-2.7h3c1.1 0 1.9-0.9 1.9-2z"/>
	<path id="Layer" fill="currentColor" d="m255.8 39.1q-3.1-1.3-7.7-2.1-4.4-0.8-6.6-1.5-2.2-0.6-3.5-1.7-1.3-1.1-1.3-3.1 0-2.8 2.2-4.3 2.1-1.5 5.6-1.5 3.8 0 6.2 1.9 2.1 1.8 2.6 4.5c0.1 0.3 0.4 0.6 0.7 0.6l7.2 0.1c0.4 0 0.8-0.4 0.7-0.9q-0.3-3.6-2.3-6.5-2.3-3.3-6.2-5.2-3.9-1.8-8.9-1.8-4.7 0-8.5 1.8-3.8 1.7-5.9 4.9-2.1 3.1-2.1 7 0 4.3 1.9 6.9 1.9 2.6 4.9 4 3 1.3 7.3 2.1h0.3q4.6 0.9 6.8 1.5 2.2 0.7 3.5 1.9 1.3 1.1 1.3 3.2 0 2.8-2.3 4.4-2.3 1.7-6 1.7-4.4 0-7.1-2.3-2.5-2-3-5.2c0-0.4-0.3-0.7-0.7-0.7l-7.1-0.1c-0.5 0-0.8 0.4-0.8 0.8q0.3 4 2.5 7.1 2.3 3.5 6.5 5.5 4.1 2 9.5 2 5 0 8.9-1.9 4-1.8 6.2-5 2.2-3.2 2.2-7.3 0-4.3-1.9-6.9-2-2.6-5.1-3.9z"/>
	<path id="Layer" fill-rule="evenodd" fill="currentColor" d="m300.6 56.6c0.4 0 0.7 0.3 0.7 0.7v5.6c0 0.4-0.3 0.8-0.7 0.8h-5.8c-2 0-3.6-1.7-3.6-3.7v-1.1c0-0.9-1.3-1.3-1.7-0.5-1 1.5-2 2.6-3.3 3.5-1.3 1-2.7 1.7-4.4 2-1.7 0.3-3.3 0.2-5-0.1-2.1-0.3-4.1-1.1-5.9-2.4q-3.4-2.6-3.4-7.2 0-5.3 3.8-8.2 3.7-2.9 11-2.9h6c0.4 0 0.8-0.3 0.8-0.7v-1.1c0-3.2-2.5-5.4-6.1-5.4-1.8 0-3.2 0.4-4.4 1.2q-1.6 1.1-2 2.7c-0.1 0.3-0.4 0.6-0.8 0.6h-6.6c-0.4 0-0.8-0.5-0.7-0.9q0.7-4.5 4.4-7.1c2.7-1.9 6.1-2.8 10.5-2.8 4.7 0 7.7 1 10.2 3.1q3.8 3.1 3.8 9.1v12.5q0 1.2 0.5 1.7 0.6 0.6 1.5 0.6h1.2zm-11.5-7c0-0.4-0.4-0.7-0.8-0.7h-6.1q-3.1 0-4.7 1.2-1.7 1.2-1.7 3.4 0 2 1.5 3.2 1.5 1.2 4 1.2c2.8 0 5.4-1.3 6.8-3.9q1-1.8 1-4.2z"/>
	<path id="Layer" fill="currentColor" d="m324.5 18.3h-8.6c-4.5 0-8.2 3.7-8.2 8.3v3.6c0 0.4-0.3 0.7-0.7 0.7h-4.9c-0.5 0-0.8 0.4-0.8 0.8v5.6c0 0.4 0.4 0.8 0.8 0.8h4.9c0.4 0 0.7 0.3 0.7 0.7v24.5c0 0.4 0.3 0.8 0.7 0.8h6.7c0.4 0 0.8-0.4 0.8-0.8v-24.5c0-0.4 0.3-0.7 0.7-0.7h7.8c0.4 0 0.7-0.4 0.7-0.8v-5.6c0-0.4-0.3-0.8-0.7-0.8h-7.8c-0.4 0-0.7-0.3-0.7-0.7v-3.3c0-0.8 0.6-1.5 1.5-1.5h7.1c0.4 0 0.7-0.3 0.7-0.7v-5.7c0-0.4-0.3-0.7-0.7-0.7z"/>
	<path id="Layer" fill-rule="evenodd" fill="currentColor" d="m357.5 37.2q2.2 3.7 2.2 8.5 0 0.7 0 1.5 0 0.4-0.1 0.8c0 0.4-0.4 0.7-0.7 0.7h-23.5c-0.5 0-0.9 0.4-0.8 0.8q0 0.4 0.1 0.7 0.1 0.9 0.4 1.8 0.3 0.8 0.7 1.6 1.1 1.9 3 2.9 1.9 1.1 4.4 1.1 3 0 5.1-1.4 1.8-1.2 2.5-3.4c0.1-0.3 0.4-0.5 0.7-0.5h6.8c0.5 0 0.9 0.5 0.8 0.9q-0.7 2.8-2.4 5.1-2.1 2.7-5.4 4.2-3.3 1.6-7.5 1.6-5.5 0-9.5-2.1-4.1-2.1-6.3-6c-1.4-2.6-2.1-5.6-2.1-9.1q0-5.2 2.1-9.1 2.1-3.9 5.9-6.1c2.5-1.4 5.4-2.1 8.8-2.1q5 0 8.8 2 3.8 1.9 6 5.6zm-7.1 5.8c0.5 0 0.9-0.5 0.8-0.9q-0.6-2.7-2.5-4.3-2.3-1.8-5.7-1.8-2.1 0-3.9 0.8-1.8 0.9-2.9 2.5-0.9 1.2-1.2 2.8c-0.1 0.4 0.2 0.9 0.7 0.9h14.7z"/>
	<path id="Layer" fill="currentColor" d="m396.9 18.3h7.9l5.9 28.7c0.5 2.8 1 5.5 1.2 8.7h1.2c0.3-3.1 0.8-5.9 1.5-8.7l6.2-26.6h10.8l6.1 26.6c0.6 2.7 1.1 5.6 1.4 8.7h1.2c0.3-3.2 0.8-5.9 1.3-8.8l5.8-28.6h7.9v2.7l-9 41.1h-12.5l-5.6-24.7c-0.6-2.9-1.1-5.5-1.4-8.8h-1.3c-0.3 3.3-0.8 5.9-1.4 8.7l-5.8 24.8h-12.4l-9-41.1v-2.7z"/>
	<path id="Layer" fill-rule="evenodd" fill="currentColor" d="m480.6 18.3l14.5 41.1v2.7h-7.9l-3.1-9.6h-18.6l-3.1 9.6h-7.8v-2.7l14.4-41.1zm-12.7 27h13.7l-4.2-12.9c-0.9-2.9-1.6-5.2-2.1-8h-1.1c-0.5 2.8-1.1 5.1-2.1 8l-4.2 12.9z"/>
	<path id="Layer" fill="currentColor" d="m499 18.3h8.1v36.4h19.8v7.4h-27.9z"/>
	<path id="Layer" fill="currentColor" d="m530.9 18.3h8.1v36.4h19.8v7.4h-27.9z"/>
	<path id="Layer" fill="currentColor" d="m563.4 18.3h30.1v7.4h-22v10.3h19.2v7.3h-19.2v11.4h22.4v7.4h-30.5z"/>
	<path id="Layer" fill="currentColor" d="m631.1 18.3v7.4h-13.2v36.4h-8.2v-36.4h-13.1v-7.4z"/>
	<g id="Background">
		<path id="Path 0" fill="currentColor" d="m197.4 25.4c-0.4 0.1-1 0.2-1.4 0.3-0.4 0.1-1 0.3-1.4 0.5-0.4 0.1-1 0.4-1.3 0.5-0.3 0.2-0.9 0.5-1.3 0.8-0.4 0.2-1 0.8-1.5 1.2-0.4 0.4-1 1.1-1.2 1.4-0.3 0.4-0.6 0.6-0.6 0.6 0 0 0-1.1 0-2.3v-2.3h-8.8v37.7h8.8c0-15.4 0-20.4 0.1-21 0-0.7 0.1-1.6 0.2-2.1 0.1-0.4 0.3-1.2 0.4-1.6 0.2-0.4 0.4-1 0.6-1.4 0.2-0.3 0.5-0.9 0.7-1.2 0.3-0.3 0.8-0.9 1.1-1.3 0.4-0.3 0.9-0.7 1.2-0.9 0.2-0.1 0.7-0.4 1.1-0.5 0.4-0.2 1.1-0.4 1.5-0.5 0.7-0.1 1.2-0.2 2.2-0.2 0.7 0 1.6 0.1 2.1 0.2 0.4 0 1 0.2 1.3 0.3 0.4 0.1 0.9 0.3 1.3 0.4 0.4 0.2 0.9 0.5 1.1 0.6 0.2 0.2 0.7 0.6 1 0.9 0.4 0.3 0.9 0.9 1.1 1.3 0.3 0.4 0.6 1.1 0.8 1.5 0.2 0.4 0.4 1 0.5 1.5 0.2 0.4 0.3 1.1 0.4 1.6 0.1 0.7 0.1 1.9 0.2 11.5v10.8h9.1c0-16.3-0.1-20.9-0.1-21.5-0.1-0.5-0.2-1.4-0.2-1.9-0.1-0.6-0.3-1.6-0.5-2.3-0.2-0.6-0.4-1.6-0.6-2.1-0.2-0.4-0.5-1.2-0.8-1.8-0.3-0.6-0.7-1.3-0.9-1.7-0.3-0.4-0.7-0.9-0.9-1.2-0.2-0.2-0.7-0.8-1-1.2-0.4-0.4-1-0.9-1.3-1.2-0.3-0.2-0.9-0.6-1.3-0.9-0.4-0.3-1.1-0.7-1.6-0.9-0.5-0.2-1.3-0.6-1.8-0.8-0.6-0.1-1.4-0.4-1.8-0.5-0.4 0-1.2-0.2-1.7-0.3-0.6 0-1.6-0.1-2.5-0.1-0.9 0-1.9 0.1-2.3 0.1z"/>
		<path id="Path 19" fill-rule="evenodd" fill="currentColor" d="m4.5 12h8.9v41l18.7-27h10l-0.2 0.2c0 0.1-3 4.4-6.5 9.4-3.5 5.1-6.3 9.2-6.3 9.3 0 0 2.8 4.1 6.2 9 3.5 5 6.4 9.2 6.8 9.8h-9.9l-4-5.8c-2.2-3.2-4.1-5.9-4.1-5.9 0 0-1.9 2.7-8.2 11.7h-11.4zm42.5 0h8.8v51.7h-8.8zm110.8 5.1h8.9v8.9h8.9v8.4h-8.9v29.3h-8.9v-29.3h-4.5c-2.4 0-4.4-0.1-4.4-0.1 0 0 0.7-1.9 3.1-8.3h5.8zm-77.1 8.1c1.3 0 2.3 0 2.9 0.1 0.4 0.1 1.2 0.3 1.7 0.4 0.6 0.1 1.3 0.3 1.8 0.5 0.5 0.2 1.2 0.5 1.6 0.6 0.4 0.2 1.1 0.6 1.6 0.9 0.4 0.3 1.1 0.7 1.4 1 0.4 0.3 1 0.8 1.4 1.2 0.3 0.3 0.7 0.6 0.7 0.5 0.1 0 0.1-1 0.1-4.5h8.8v37.7h-8.8v-2.2c0-1.3 0-2.3-0.1-2.3 0 0-0.4 0.3-0.9 0.7-0.4 0.5-1.2 1-1.6 1.3-0.4 0.3-1 0.7-1.3 0.9-0.4 0.2-1 0.5-1.5 0.8-0.6 0.2-1.4 0.5-2 0.7-0.5 0.2-1.5 0.4-2.1 0.5-0.6 0.1-1.6 0.2-2.3 0.3-0.8 0.1-1.8 0.1-2.6 0.1-0.6-0.1-1.6-0.2-2.1-0.2-0.5-0.1-1.4-0.3-2-0.4-0.5-0.1-1.4-0.4-1.8-0.6-0.5-0.1-1.2-0.4-1.6-0.6-0.4-0.2-1-0.5-1.4-0.8-0.4-0.2-1.1-0.7-1.5-1-0.5-0.3-1.2-1-1.7-1.4-0.5-0.5-1.2-1.2-1.5-1.7-0.4-0.4-1-1.2-1.3-1.6-0.3-0.5-0.9-1.5-1.2-2.2-0.3-0.7-0.8-1.7-0.9-2.3-0.2-0.5-0.5-1.4-0.6-1.9-0.1-0.6-0.3-1.5-0.4-2-0.1-0.8-0.1-1.7-0.1-3 0-1.3 0-2.2 0.1-2.9 0.1-0.6 0.3-1.5 0.4-2 0.1-0.4 0.3-1.2 0.5-1.7 0.1-0.4 0.4-1.2 0.6-1.7 0.2-0.5 0.6-1.2 0.8-1.6 0.2-0.5 0.6-1.1 0.9-1.5 0.3-0.4 0.8-1.1 1.1-1.5 0.4-0.4 1.1-1.1 1.6-1.6 0.5-0.5 1.2-1.1 1.6-1.4 0.3-0.3 0.8-0.6 1-0.8 0.2-0.1 0.7-0.4 1.1-0.6 0.4-0.3 1.1-0.6 1.6-0.8 0.5-0.2 1.3-0.5 1.8-0.7 0.5-0.1 1.2-0.3 1.6-0.4 0.4-0.1 1.2-0.2 1.6-0.2 0.6-0.1 1.6-0.2 3-0.1zm-2.3 8.6c-0.5 0.2-1.2 0.5-1.7 0.8-0.4 0.2-1.1 0.6-1.4 0.9-0.4 0.2-1 0.7-1.3 1.1-0.4 0.3-0.9 0.9-1.1 1.2-0.3 0.3-0.6 0.9-0.8 1.2-0.2 0.3-0.5 1-0.7 1.4-0.2 0.4-0.4 1.1-0.5 1.5-0.1 0.4-0.3 1.2-0.3 1.6-0.1 0.6-0.1 1.3-0.1 1.8 0.1 0.6 0.1 1.3 0.2 1.6 0.1 0.4 0.2 1 0.4 1.4 0.1 0.4 0.3 1 0.5 1.4 0.2 0.4 0.6 1.1 0.9 1.5 0.3 0.5 0.9 1.2 1.4 1.7 0.5 0.5 1.2 1.1 1.7 1.4 0.4 0.3 1.1 0.7 1.5 0.9 0.4 0.2 1.1 0.4 1.4 0.6 0.4 0.1 1 0.2 1.4 0.3 0.5 0.1 1.2 0.2 2.2 0.2 1 0 1.6-0.1 2.1-0.2 0.4-0.1 1.1-0.2 1.5-0.4 0.5-0.1 1.2-0.4 1.6-0.7 0.5-0.2 1.1-0.6 1.5-0.9 0.4-0.2 1-0.8 1.4-1.2 0.4-0.4 1-1.1 1.3-1.5 0.3-0.4 0.7-1.1 0.9-1.5 0.1-0.3 0.4-0.9 0.5-1.2 0.1-0.3 0.3-0.8 0.4-1.3 0.1-0.4 0.2-1.1 0.2-1.7 0.1-0.7 0.1-1.2 0-2 0-0.5-0.1-1.3-0.3-1.7-0.1-0.4-0.3-1.1-0.4-1.5-0.2-0.4-0.5-1.1-0.7-1.4-0.2-0.3-0.6-0.9-0.9-1.3-0.3-0.4-0.8-1-1.2-1.4-0.5-0.4-1.1-0.9-1.6-1.2-0.4-0.3-1.1-0.7-1.4-0.9-0.4-0.1-1-0.4-1.4-0.5-0.4-0.1-1.1-0.3-1.6-0.4q-0.8-0.1-2.1-0.1c-0.7 0-1.6 0.1-1.9 0.1-0.4 0.1-1.1 0.3-1.6 0.4zm37.5-7.9l5.5 14.7c3 8.1 5.4 14.7 5.5 14.8 0 0 1.9-5 5.4-14.2 2.9-7.8 5.4-14.5 5.7-15.3h4.9c2.7 0 4.8 0 4.8 0 0 0.1-4.3 11.7-19.3 51.7h-4.9c-4.6 0-4.8 0-4.8-0.2 0-0.1 1.2-3.1 2.6-6.8 1.4-3.7 2.5-6.7 2.5-6.8 0.1-0.2 0-0.2-3.5-0.2l-7-18.8c-3.8-10.3-7-18.8-7-18.8 0-0.1 1.9-0.1 9.6-0.1z"/>
	</g>
</svg>