<svg width="641" height="95" viewBox="0 0 641 95" fill="none" xmlns="http://www.w3.org/2000/svg">
<path d="M223.003 14.301V80.699C223.003 82.2887 224.301 83.5781 225.901 83.5781H230.364C232.649 83.5781 234.503 85.4175 234.503 87.6899V92.1208C234.503 93.7105 235.801 95 237.401 95H246.102C247.702 95 249 93.7105 249 92.1208V85.9485C249 84.3588 247.702 83.0693 246.102 83.0693H239.151C236.867 83.0693 235.012 81.2299 235.012 78.9575V16.0393C235.012 13.7701 236.864 11.9275 239.151 11.9275H246.099C247.699 11.9275 248.997 10.6381 248.997 9.04837V2.87917C248.997 1.28946 247.699 0 246.099 0H237.398C235.798 0 234.5 1.28946 234.5 2.87917V7.31012C234.5 9.57933 232.649 11.4219 230.361 11.4219H225.898C224.298 11.4219 223 12.7113 223 14.301H223.003Z" fill="currentColor"/>
<path d="M640.997 80.6936V14.3001C640.997 12.7105 639.699 11.4211 638.099 11.4211H633.635C631.351 11.4211 629.497 9.58185 629.497 7.30964V2.87898C629.497 1.28938 628.199 0 626.599 0H617.898C616.298 0 615 1.28938 615 2.87898V9.05093C615 10.6405 616.298 11.9299 617.898 11.9299H624.849C627.133 11.9299 628.988 13.7692 628.988 16.0414V78.9586C628.988 81.2277 627.136 83.0701 624.849 83.0701H617.901C616.301 83.0701 615.003 84.3595 615.003 85.9491V92.121C615.003 93.7106 616.301 95 617.901 95H626.602C628.202 95 629.5 93.7106 629.5 92.121V87.6904C629.5 85.4213 631.351 83.5789 633.639 83.5789H638.102C639.702 83.5789 641 82.2895 641 80.6999L640.997 80.6936Z" fill="currentColor"/>
<path d="M43.4101 45.3493C40.2532 44.0746 36.3983 43.0117 31.8454 42.1577H31.7479C27.3239 41.3732 24.0036 40.6521 21.7932 39.9973C19.5796 39.3457 17.8408 38.46 16.5737 37.3466C15.3065 36.2332 14.6714 34.6959 14.6714 32.7316C14.6714 29.8531 15.7436 27.6611 17.8911 26.1554C20.0387 24.6498 22.8685 23.897 26.3807 23.897C30.2198 23.897 33.3232 24.8775 35.7003 26.8418C37.8321 28.6069 39.137 30.8464 39.6181 33.5603C39.7124 34.1012 40.1683 34.5029 40.7154 34.5061L51.5129 34.5883C52.1763 34.5947 52.7046 34.0221 52.6385 33.3579C52.2769 29.7266 51.0853 26.4275 49.0698 23.4541C46.8248 20.1487 43.7339 17.5802 39.8004 15.7488C35.8638 13.9173 31.3926 13 26.3838 13C21.6359 13 17.3566 13.8825 13.552 15.6507C9.74744 17.4189 6.78553 19.8703 4.67257 23.0145C2.55647 26.1554 1.5 29.6918 1.5 33.6173C1.5 37.9381 2.44328 41.4049 4.32984 44.024C6.21641 46.643 8.68781 48.6231 11.7472 49.9643C14.8034 51.3055 18.4791 52.3683 22.7742 53.1559L23.2615 53.254C27.8145 54.1048 31.2134 54.8577 33.4584 55.5124C35.7034 56.1672 37.4737 57.0845 38.7754 58.2612C40.0771 59.441 40.728 61.0447 40.728 63.0723C40.728 65.9539 39.5583 68.2092 37.2158 69.8446C34.8734 71.4799 31.8486 72.2991 28.1415 72.2991C23.7175 72.2991 20.1393 71.1699 17.4069 68.9114C14.9198 66.8554 13.4577 64.2205 13.0175 61.0005C12.942 60.4437 12.483 60.0199 11.9233 60.0136L1.1384 59.8491C0.481249 59.8396 -0.0469895 60.3963 0.00331891 61.0542C0.308314 65.0145 1.54087 68.5825 3.6947 71.7582C6.06863 75.2598 9.33868 78.0086 13.5017 80.0045C17.6647 82.0005 22.4472 83 27.8459 83C32.8547 83 37.3448 82.0827 41.3128 80.2512C45.2809 78.4198 48.3875 75.883 50.6325 72.6439C52.8775 69.4049 54 65.7578 54 61.6995C54 57.3787 53.0221 53.8961 51.0727 51.2454C49.1201 48.5947 46.5669 46.6304 43.4132 45.3556L43.4101 45.3493Z" fill="currentColor"/>
<path d="M110.867 71.6922H109.171C108.19 71.6922 107.418 71.4307 106.864 70.9015C106.307 70.3755 106.028 69.5179 106.028 68.3288V49.4301C106.028 43.427 104.13 38.8585 100.332 35.7279C96.5348 32.5972 92.0633 31 85.057 31C78.443 31 73.2753 32.4474 69.2184 35.2847C65.519 37.8702 63.288 41.4121 62.5253 45.9137C62.4082 46.6118 62.9304 47.2558 63.6361 47.2558H73.6171C74.1171 47.2558 74.5665 46.9243 74.6994 46.4397C75.1551 44.7723 76.1614 43.4142 77.7152 42.359C79.5158 41.138 81.6551 40.5291 84.4715 40.5291C89.7816 40.5291 93.5601 43.8287 93.5601 48.7414V50.2781C93.5601 50.9061 93.0538 51.413 92.4335 51.413H83.3924C76.0601 51.413 70.4937 52.8636 66.6962 55.7647C62.8987 58.669 61 62.7911 61 68.1311C61 72.7506 62.7342 76.3786 66.2057 79.0151C68.8101 80.9949 71.9209 82.1362 75.1266 82.6367C77.576 83.0193 80.0886 83.1595 82.5443 82.761C85.1139 82.3466 87.2025 81.2786 89.2911 79.7579C91.1677 78.3934 92.7342 76.6432 94.1646 74.5072C94.8608 73.3021 96.6899 73.7835 96.6899 75.1799V76.8568C96.6899 79.9045 99.1392 82.3785 102.168 82.3785H110.873C111.497 82.3785 112 81.8684 112 81.2435V72.8303C112 72.2022 111.494 71.6953 110.873 71.6953L110.867 71.6922ZM93.5538 61.5C93.5538 63.942 93.0443 66.0684 92.0317 67.8824C89.9051 71.6858 86.1013 73.6687 81.8165 73.6687C79.326 73.6687 77.3291 73.0758 75.826 71.8898C74.3196 70.7007 73.5665 69.1194 73.5665 67.1396C73.5665 64.8984 74.4019 63.1673 76.0696 61.9463C77.7405 60.7285 80.1108 60.1164 83.1899 60.1164H92.4272C93.0506 60.1164 93.5538 60.6265 93.5538 61.2513V61.5Z" fill="currentColor"/>
<path d="M146.882 14H133.962C127.146 14 121.618 19.5768 121.618 26.4597V31.9316C121.618 32.5576 121.114 33.0629 120.497 33.0629H113.121C112.501 33.0629 112 33.5713 112 34.1941V42.6785C112 43.3045 112.504 43.8098 113.121 43.8098H120.497C121.117 43.8098 121.618 44.3182 121.618 44.941V81.8688C121.618 82.4948 122.122 83 122.739 83H132.807C133.427 83 133.927 82.4916 133.927 81.8688V44.941C133.927 44.315 134.431 43.8098 135.048 43.8098H146.778C147.399 43.8098 147.899 43.3013 147.899 42.6785V34.1941C147.899 33.5681 147.396 33.0629 146.778 33.0629H135.048C134.428 33.0629 133.927 32.5544 133.927 31.9316V27.0126C133.927 25.7606 134.932 24.7469 136.172 24.7469H146.879C147.499 24.7469 148 24.2385 148 23.6156V15.1313C148 14.5052 147.496 14 146.879 14H146.882Z" fill="currentColor"/>
<path d="M196.681 42.512C194.465 38.8182 191.437 35.9793 187.6 33.9984C183.763 32.0175 179.328 31 174.305 31C169.282 31 164.943 32.1005 161.106 34.2472C157.269 36.3939 154.292 39.4274 152.175 43.3541C150.058 47.2807 149 51.8836 149 57.1627C149 62.4418 150.094 66.8501 152.274 70.7735C154.458 74.7002 157.582 77.7209 161.652 79.8325C165.72 81.9474 170.5 83 175.993 83C180.227 83 184.016 82.2249 187.357 80.6746C190.695 79.1244 193.394 76.9968 195.444 74.2887C197.199 71.9729 198.398 69.437 199.038 66.681C199.204 65.9665 198.663 65.2807 197.928 65.2807H187.654C187.162 65.2807 186.73 65.5997 186.574 66.0622C185.851 68.1962 184.572 69.8804 182.74 71.1212C180.687 72.5056 178.142 73.201 175.098 73.201C172.585 73.201 170.385 72.6746 168.498 71.6188C166.612 70.563 165.125 69.0797 164.031 67.1627C163.6 66.4067 163.248 65.6093 162.967 64.7863C162.666 63.9027 162.449 62.9904 162.298 62.0686C162.247 61.7464 162.199 61.4211 162.161 61.0957C162.084 60.4258 162.618 59.8389 163.296 59.8389H198.721C199.297 59.8389 199.789 59.4147 199.853 58.8437C199.901 58.4258 199.936 57.9984 199.952 57.5614C199.984 56.7703 200 56.0431 200 55.3828C200 50.4992 198.89 46.2089 196.675 42.512H196.681ZM186.037 51.2233H163.852C163.123 51.2233 162.577 50.5502 162.736 49.8421C163.091 48.2887 163.705 46.8852 164.578 45.6316C165.704 44.0144 167.159 42.7767 168.943 41.9187C170.73 41.0606 172.681 40.6332 174.797 40.6332C178.238 40.6332 181.084 41.5582 183.331 43.4051C185.26 44.9904 186.535 47.134 187.149 49.8389C187.312 50.5502 186.766 51.2265 186.037 51.2265V51.2233Z" fill="currentColor"/>
<path d="M256 14H267.993L276.792 57.2332C277.663 61.4426 278.339 65.5542 278.725 70.4326H280.467C280.952 65.6489 281.724 61.4426 282.691 57.2332L292.07 17.2533H308.415L317.504 57.2332C318.375 61.3448 319.147 65.6489 319.632 70.4326H321.47C321.856 65.5542 322.631 61.5373 323.403 57.1386L332.202 14H344V18.0169L330.46 79.9968H311.701L303.288 42.7906C302.321 38.4865 301.546 34.5643 301.064 29.4966H299.226C298.741 34.5674 297.969 38.3919 297.003 42.6013L288.299 80H269.636L256 18.0201V14.0032V14Z" fill="currentColor"/>
<path d="M382.256 14L404 75.9829V80H392.166L387.453 65.5567H359.452L354.738 80H343V75.9829L364.744 14H382.256ZM363.109 54.654H383.796L377.444 35.3321C376 30.9331 375.038 27.4872 374.27 23.1829H372.537C371.864 27.4872 370.902 30.93 369.458 35.2342L363.106 54.6508L363.109 54.654Z" fill="currentColor"/>
<path d="M410 14H422.152V68.8075H452V80H410V14Z" fill="currentColor"/>
<path d="M458 14H470.151V68.8075H500V80H458V14Z" fill="currentColor"/>
<path d="M507 14H552.328V25.0947H519.195V40.6859H548.197V51.6859H519.195V68.8075H553V80H507V14Z" fill="currentColor"/>
<path d="M609 14V25.1899H589.186V80H576.814V25.1899H557V14H609Z" fill="currentColor"/>
</svg>
