<svg xmlns="http://www.w3.org/2000/svg" width="345" height="250" viewBox="0 0 144 104">
    <g fill="none" fill-rule="evenodd">
        <g>
            <g>
                <path d="M0 104V0h144v104H0z" transform="translate(-664 -200) translate(664 200)"/>
                <path fill="#F0EFEE" d="M72 10c25.405 0 46 20.595 46 46 0 25.404-20.595 46-46 46-25.404 0-46-20.596-46-46 0-25.405 20.596-46 46-46" transform="translate(-664 -200) translate(664 200)"/>
                <path fill="#B2B5B2" fill-rule="nonzero" d="M51.407 85C46.212 85 42 89.21 42 94.406c0 5.194 4.212 9.406 9.407 9.406s9.406-4.211 9.406-9.406c0-5.196-4.21-9.406-9.406-9.406zm0 4c2.986 0 5.406 2.42 5.406 5.406 0 2.986-2.42 5.406-5.406 5.406-2.986 0-5.407-2.42-5.407-5.406C46 91.42 48.42 89 51.407 89z" transform="translate(-664 -200) translate(664 200)"/>
                <path fill="#B2B5B2" d="M79.204 0c1.013 0 1.906.67 2.187 1.648l.08.273.229.762.186.574.037.108.149.413.075.195.076.187.154.353c.674 1.453 1.51 2.158 3.189 2.8l.258.095.428.148.462.15.498.151.535.157c.986.276 1.66 1.175 1.66 2.19 0 .96-.6 1.807-1.487 2.134l-.16.053-.536.157-.5.152-.573.187-.522.186c-1.702.64-2.551 1.338-3.23 2.775l-.1.221-.152.367-.15.398-.074.21-.149.446-.15.481-.233.791c-.281.976-1.174 1.646-2.187 1.646-1.011 0-1.896-.666-2.187-1.647l-.08-.273-.23-.763-.148-.463-.149-.43c-.712-1.978-1.462-2.856-3.205-3.59l-.233-.094-.397-.15-.43-.149-.463-.15-.5-.151-.537-.157C69.672 12.11 69 11.22 69 10.205c0-1.016.674-1.915 1.646-2.187l.274-.08.518-.154.48-.15.553-.187.104-.037.398-.15c1.705-.673 2.513-1.437 3.197-3.067l.093-.228.15-.399.149-.43.074-.229.151-.482.235-.794c.286-.964 1.17-1.63 2.182-1.63z" transform="translate(-664 -200) translate(664 200)"/>
                <path fill="#B2B5B2" fill-rule="nonzero" d="M48.183 26.401c1.054 0 1.918.816 1.994 1.851l.006.15v18.885c0 .642-.308 1.242-.822 1.616l-.132.089-12.15 7.457c-.942.578-2.173.283-2.75-.658-.55-.895-.311-2.051.521-2.66l.137-.091 11.195-6.872V28.401c0-1.054.817-1.918 1.851-1.994l.15-.006z" transform="translate(-664 -200) translate(664 200)"/>
                <path fill="#B2B5B2" fill-rule="nonzero" d="M48.183 17.232C31.513 17.232 18 30.746 18 47.415c0 16.67 13.513 30.183 30.182 30.183 16.669 0 30.183-13.514 30.183-30.183 0-16.67-13.514-30.183-30.183-30.183zm0 4c14.46 0 26.183 11.723 26.183 26.183 0 14.46-11.723 26.183-26.183 26.183C33.723 73.598 22 61.875 22 47.415c0-14.46 11.721-26.183 26.182-26.183z" transform="translate(-664 -200) translate(664 200)"/>
                <path fill="#008C73" fill-rule="nonzero" d="M89.916 23.673l.127.117 18.885 18.885c.78.78.78 2.047 0 2.828-.74.74-1.916.78-2.701.117l-.128-.117-15.471-15.472v62.114c0 1.104-.895 2-2 2-1.054 0-1.918-.816-1.994-1.85l-.006-.15V30.03l-15.47 15.472c-.74.74-1.916.78-2.701.117l-.128-.117c-.74-.74-.778-1.915-.116-2.7l.116-.128L87.214 23.79c.74-.74 1.916-.779 2.702-.117zM123.078 23.204c1.054 0 1.918.816 1.994 1.851l.006.15-.001 62.11 15.472-15.47c.74-.74 1.915-.778 2.7-.116l.128.117c.74.74.779 1.915.117 2.701l-.117.127-18.886 18.884c-.74.74-1.915.78-2.701.117l-.127-.117-18.884-18.884c-.781-.78-.781-2.047 0-2.828.74-.74 1.915-.78 2.7-.117l.128.117 15.47 15.468v-62.11c0-1.104.896-2 2-2z" transform="translate(-664 -200) translate(664 200)"/>
            </g>
        </g>
    </g>
</svg>
