<svg width="12" height="12" viewBox="0 0 12 12" fill="none" xmlns="http://www.w3.org/2000/svg">
  <g id="Group 1000003040">
    <g id="Group 1000003041">
      <path
        id="Line 31 (Stroke)"
        fill-rule="evenodd"
        clip-rule="evenodd"
        d="M6 12C5.58579 12 5.25 11.6642 5.25 11.25L5.25 0.75C5.25 0.335786 5.58579 -5.08894e-08 6 -3.27835e-08C6.41421 -1.46777e-08 6.75 0.335786 6.75 0.75L6.75 11.25C6.75 11.6642 6.41421 12 6 12Z"
        fill="#ffd200"
      />
      <path
        id="Line 32 (Stroke)"
        fill-rule="evenodd"
        clip-rule="evenodd"
        d="M1.89105 9.94853C1.55631 9.61379 1.55631 9.07108 1.89105 8.73634L9.16415 1.46324C9.49888 1.12851 10.0416 1.12851 10.3763 1.46324C10.7111 1.79798 10.7111 2.34069 10.3763 2.67543L3.10323 9.94853C2.7685 10.2833 2.22578 10.2833 1.89105 9.94853Z"
        fill="#ffd200"
      />
      <path
        id="Line 33 (Stroke)"
        fill-rule="evenodd"
        clip-rule="evenodd"
        d="M1.96554 1.89203C2.30027 1.55729 2.84298 1.55729 3.17772 1.89203L10.4508 9.16512C10.7856 9.49986 10.7856 10.0426 10.4508 10.3773C10.1161 10.712 9.57337 10.712 9.23863 10.3773L1.96554 3.10421C1.6308 2.76947 1.6308 2.22676 1.96554 1.89203Z"
        fill="#ffd200"
      />
      <path
        id="Line 34 (Stroke)"
        fill-rule="evenodd"
        clip-rule="evenodd"
        d="M12 6C12 6.41421 11.6642 6.75 11.25 6.75L0.75 6.75C0.335786 6.75 0 6.41421 0 6C0 5.58579 0.335786 5.25 0.75 5.25L11.25 5.25C11.6642 5.25 12 5.58579 12 6Z"
        fill="#ffd200"
      />
    </g>
  </g>
</svg>