<svg width="79" height="79" viewBox="0 0 79 79" fill="none" xmlns="http://www.w3.org/2000/svg">
  <path d="M16.5 59.094v12.24l4.924-2.955 15.477-9.285h15.35c3.584 0 6.5-2.916 6.5-6.5v-26c0-3.585-2.916-6.5-6.5-6.5h-39a6.507 6.507 0 0 0-6.5 6.5v26c0 3.584 2.915 6.5 6.5 6.5h3.25Zm-3.25-32.5h39v26H35.1L23 59.854v-7.26h-9.75v-26Z" fill="#12FF80"/>
  <path d="M65.25 7.094h-39a6.507 6.507 0 0 0-6.5 6.5h39c3.585 0 6.5 2.915 6.5 6.5v26c3.585 0 6.5-2.916 6.5-6.5v-26c0-3.585-2.915-6.5-6.5-6.5Z" fill="#12FF80"/>
</svg>