<svg width="16" height="17" viewBox="0 0 16 17" fill="none" xmlns="http://www.w3.org/2000/svg">
<g clip-path="url(#clip0_114_1212)">
<path d="M12 5.83337C12 4.77251 11.5786 3.75509 10.8284 3.00495C10.0783 2.2548 9.06087 1.83337 8 1.83337C6.93913 1.83337 5.92172 2.2548 5.17157 3.00495C4.42143 3.75509 4 4.77251 4 5.83337C4 10.5 2 11.8334 2 11.8334H14C14 11.8334 12 10.5 12 5.83337Z" stroke="#121312" stroke-width="2" stroke-linecap="round" stroke-linejoin="round" fill="transparent"/>
<path d="M9.15335 14.5C9.03614 14.7021 8.86791 14.8698 8.6655 14.9864C8.46309 15.1029 8.2336 15.1643 8.00001 15.1643C7.76643 15.1643 7.53694 15.1029 7.33453 14.9864C7.13212 14.8698 6.96389 14.7021 6.84668 14.5" stroke="#121312" stroke-width="2" stroke-linecap="round" stroke-linejoin="round"/>
</g>
<defs>
<clipPath id="clip0_114_1212">
<rect width="16" height="16" fill="white" transform="translate(0 0.5)"/>
</clipPath>
</defs>
</svg>
