<svg width="24" height="24" viewBox="0 0 24 24" fill="none" xmlns="http://www.w3.org/2000/svg">
<path fill-rule="evenodd" clip-rule="evenodd" d="M22 12C22 17.5228 17.5228 22 12 22C6.47715 22 2 17.5228 2 12C2 6.47715 6.47715 2 12 2C17.5228 2 22 6.47715 22 12ZM4 12C4 16.4183 7.58172 20 12 20C16.4183 20 20 16.4183 20 12C20 7.58172 16.4183 4 12 4C7.58172 4 4 7.58172 4 12Z" />
<path fill-rule="evenodd" clip-rule="evenodd" d="M13.414 12L15.5353 14.1213C15.9259 14.5118 15.9259 15.145 15.5353 15.5355C15.1448 15.9261 14.5117 15.9261 14.1211 15.5355L11.9998 13.4142L9.87849 15.5355C9.48797 15.9261 8.8548 15.9261 8.46428 15.5355C8.07376 15.145 8.07376 14.5118 8.46428 14.1213L10.5856 12L8.46428 9.87868C8.07376 9.48815 8.07376 8.85499 8.46428 8.46446C8.8548 8.07394 9.48797 8.07394 9.87849 8.46446L11.9998 10.5858L14.1211 8.46446C14.5117 8.07394 15.1448 8.07394 15.5353 8.46446C15.9259 8.85499 15.9259 9.48815 15.5353 9.87868L13.414 12Z"/>
</svg>
