<svg width="24" height="24" viewBox="0 0 24 24" fill="currentColor" xmlns="http://www.w3.org/2000/svg">
<rect x="11" y="10" width="2" height="8" rx="1"/>
<path d="M12 5.75C12.6904 5.75 13.25 6.30964 13.25 7C13.25 7.69036 12.6904 8.25 12 8.25C11.3096 8.25 10.75 7.69036 10.75 7C10.75 6.30964 11.3096 5.75 12 5.75Z"/>
<path fill-rule="evenodd" clip-rule="evenodd" d="M22 12C22 17.5228 17.5228 22 12 22C6.47715 22 2 17.5228 2 12C2 6.47715 6.47715 2 12 2C17.5228 2 22 6.47715 22 12ZM4 12C4 16.4183 7.58172 20 12 20C16.4183 20 20 16.4183 20 12C20 7.58172 16.4183 4 12 4C7.58172 4 4 7.58172 4 12Z"/>
</svg>
