<svg width="64" height="65" viewBox="0 0 64 65" fill="none" xmlns="http://www.w3.org/2000/svg">
<g clip-path="url(#clip0_58_4158)">
<circle cx="32" cy="32.5" r="32" fill="#F4F4F4"/>
<path fill-rule="evenodd" clip-rule="evenodd" d="M29.0526 16.5H34.9474C35.3543 16.5 35.6842 16.8674 35.6842 17.3205V18.9615C35.6842 19.4147 36.0141 19.7821 36.4211 19.7821H40.1053C40.5122 19.7821 40.8421 20.1494 40.8421 20.6026V22.2436C40.8421 22.6967 41.172 23.0641 41.5789 23.0641H42.2316C42.6385 23.0641 42.9684 23.4315 42.9684 23.8846V32.0897C42.9684 32.5429 43.2983 32.9103 43.7053 32.9103H45.2632C45.6701 32.9103 46 33.2776 46 33.7308V39.4744C46 39.9275 45.6701 40.2949 45.2632 40.2949H43.7895C43.3825 40.2949 43.0526 40.6622 43.0526 41.1154C43.0526 41.5685 42.7227 41.9359 42.3158 41.9359H37.8947C37.4878 41.9359 37.1579 42.3033 37.1579 42.7564V45.2179C37.1579 45.6711 36.828 46.0385 36.4211 46.0385H36.3788C35.9718 46.0385 35.6419 46.4058 35.6419 46.859V47.6795C35.6419 48.1326 35.312 48.5 34.9051 48.5H29.0949C28.688 48.5 28.3581 48.1326 28.3581 47.6795V46.859C28.3581 46.4058 28.0282 46.0385 27.6212 46.0385H27.5789C27.172 46.0385 26.8421 45.6711 26.8421 45.2179V42.7564C26.8421 42.3033 26.5122 41.9359 26.1053 41.9359H21.6842C21.2773 41.9359 20.9474 41.5685 20.9474 41.1154C20.9474 40.6622 20.6175 40.2949 20.2105 40.2949H18.7368C18.3299 40.2949 18 39.9275 18 39.4744V33.7308C18 33.2776 18.3299 32.9103 18.7368 32.9103H20.2947C20.7017 32.9103 21.0316 32.5429 21.0316 32.0897V23.8846C21.0316 23.4315 21.3615 23.0641 21.7684 23.0641H22.4211C22.828 23.0641 23.1579 22.6967 23.1579 22.2436V20.6026C23.1579 20.1494 23.4878 19.7821 23.8947 19.7821H27.5789C27.9859 19.7821 28.3158 19.4147 28.3158 18.9615V17.3205C28.3158 16.8674 28.6457 16.5 29.0526 16.5ZM33.3895 45.2179C33.7964 45.2179 34.1263 44.8506 34.1263 44.3974V42.7564C34.1263 42.3033 33.7964 41.9359 33.3895 41.9359H30.6105C30.2036 41.9359 29.8737 42.3033 29.8737 42.7564V44.3974C29.8737 44.8506 30.2036 45.2179 30.6105 45.2179H33.3895ZM42.2316 38.6538C42.6385 38.6538 42.9684 38.2865 42.9684 37.8333V34.5513C42.9684 34.0981 42.6385 33.7308 42.2316 33.7308H40.6737C40.2668 33.7308 39.9369 33.3634 39.9369 32.9103V23.8846C39.9369 23.4315 39.607 23.0641 39.2 23.0641H24.8C24.393 23.0641 24.0631 23.4315 24.0631 23.8846V32.9103C24.0631 33.3634 23.7332 33.7308 23.3263 33.7308H21.7684C21.3615 33.7308 21.0316 34.0981 21.0316 34.5513V37.8333C21.0316 38.2865 21.3615 38.6538 21.7684 38.6538H42.2316Z" fill="#121312"/>
</g>
<defs>
<clipPath id="clip0_58_4158">
<rect width="64" height="64" fill="white" transform="translate(0 0.5)"/>
</clipPath>
</defs>
</svg>
