<svg width="24" height="24" viewBox="0 0 24 24" fill="none" xmlns="http://www.w3.org/2000/svg">
<path fill-rule="evenodd" clip-rule="evenodd" d="M22 12C22 17.5228 17.5228 22 12 22C6.47715 22 2 17.5228 2 12C2 6.47715 6.47715 2 12 2C17.5228 2 22 6.47715 22 12ZM4 12C4 16.4183 7.58172 20 12 20C16.4183 20 20 16.4183 20 12C20 7.58172 16.4183 4 12 4C7.58172 4 4 7.58172 4 12Z"/>
<path d="M7.68147 10.2758C7.27826 9.8984 6.64544 9.91932 6.26803 10.3225C5.89062 10.7257 5.91154 11.3586 6.31475 11.736L10.4558 15.612C10.8532 15.9839 11.4751 15.9697 11.8551 15.58L17.2021 10.096C17.5877 9.70056 17.5797 9.06745 17.1842 8.6819C16.7888 8.29634 16.1557 8.30435 15.7701 8.69978L11.1071 13.4822L7.68147 10.2758Z"/>
</svg>
