<svg width="160" height="160" viewBox="0 0 160 160" fill="none" xmlns="http://www.w3.org/2000/svg">
<path d="M94.5498 111.029C121.22 111.029 142.84 89.409 142.84 62.7392C142.84 36.0693 121.22 14.4492 94.5498 14.4492C67.8799 14.4492 46.2598 36.0693 46.2598 62.7392C46.2598 89.409 67.8799 111.029 94.5498 111.029Z" fill="#AAFFC3"/>
<path d="M111.5 81.5H54C45.1634 81.5 38 88.6634 38 97.5V131.5C38 140.337 45.1634 147.5 54 147.5H111.5C120.337 147.5 127.5 140.337 127.5 131.5V97.5C127.5 88.6634 120.337 81.5 111.5 81.5Z" fill="white"/>
<path d="M111.5 148.15H53.9996C44.8196 148.15 37.3496 140.68 37.3496 131.5V97.4996C37.3496 88.3196 44.8196 80.8496 53.9996 80.8496H111.5C120.68 80.8496 128.15 88.3196 128.15 97.4996V131.5C128.15 140.68 120.68 148.15 111.5 148.15ZM53.9996 82.1496C45.5396 82.1496 38.6496 89.0396 38.6496 97.4996V131.5C38.6496 139.96 45.5396 146.85 53.9996 146.85H111.5C119.96 146.85 126.85 139.96 126.85 131.5V97.4996C126.85 89.0396 119.96 82.1496 111.5 82.1496H53.9996Z" fill="#121312"/>
<path d="M106.5 98.6406H58.5195C54.1013 98.6406 50.5195 102.223 50.5195 106.641V122.641C50.5195 127.059 54.1013 130.641 58.5195 130.641H106.5C110.918 130.641 114.5 127.059 114.5 122.641V106.641C114.5 102.223 110.918 98.6406 106.5 98.6406Z" fill="white"/>
<path d="M106.559 131.29H100.559C100.199 131.29 99.9091 131 99.9091 130.64C99.9091 130.28 100.199 129.99 100.559 129.99H106.499C106.859 129.99 107.179 130.28 107.179 130.64C107.179 131 106.919 131.29 106.559 131.29ZM94.6191 131.29H88.6791C88.3191 131.29 88.0291 131 88.0291 130.64C88.0291 130.28 88.3191 129.99 88.6791 129.99H94.6191C94.9791 129.99 95.2691 130.28 95.2691 130.64C95.2691 131 94.9791 131.29 94.6191 131.29ZM82.7391 131.29H76.7991C76.4391 131.29 76.1491 131 76.1491 130.64C76.1491 130.28 76.4391 129.99 76.7991 129.99H82.7391C83.0991 129.99 83.3891 130.28 83.3891 130.64C83.3891 131 83.0991 131.29 82.7391 131.29ZM70.8591 131.29H64.9191C64.5591 131.29 64.2691 131 64.2691 130.64C64.2691 130.28 64.5591 129.99 64.9191 129.99H70.8591C71.2191 129.99 71.5091 130.28 71.5091 130.64C71.5091 131 71.2191 131.29 70.8591 131.29ZM58.9791 131.29H58.5191C56.5291 131.29 54.5891 130.6 53.0491 129.34C52.7691 129.11 52.7291 128.7 52.9591 128.43C53.1891 128.15 53.5991 128.11 53.8791 128.34C55.1891 129.41 56.8391 129.99 58.5191 129.99H58.9791C59.3391 129.99 59.6291 130.28 59.6291 130.64C59.6291 131 59.3391 131.29 58.9791 131.29ZM111.949 129.14C111.779 129.14 111.599 129.07 111.469 128.93C111.229 128.67 111.239 128.26 111.499 128.01C112.849 126.75 113.669 125.04 113.819 123.21C113.849 122.85 114.159 122.58 114.519 122.61C114.879 122.64 115.139 122.95 115.119 123.31C114.949 125.47 113.979 127.48 112.389 128.96C112.269 129.08 112.109 129.13 111.949 129.13V129.14ZM50.5991 124.44C50.2791 124.44 49.9991 124.21 49.9591 123.88C49.8991 123.47 49.8691 123.05 49.8691 122.63V117.85C49.8691 117.49 50.1591 117.2 50.5191 117.2C50.8791 117.2 51.1691 117.49 51.1691 117.85V122.63C51.1691 122.98 51.1991 123.34 51.2491 123.69C51.2991 124.04 51.0491 124.38 50.6991 124.43C50.6691 124.43 50.6391 124.43 50.6091 124.43L50.5991 124.44ZM114.499 117.98C114.139 117.98 113.849 117.69 113.849 117.33V111.39C113.849 111.03 114.139 110.74 114.499 110.74C114.859 110.74 115.149 111.03 115.149 111.39V117.33C115.149 117.69 114.859 117.98 114.499 117.98ZM50.5191 112.57C50.1591 112.57 49.8691 112.28 49.8691 111.92V106.64C49.8691 106.4 49.8691 106.16 49.8991 105.93C49.9291 105.57 50.2291 105.3 50.5991 105.34C50.9591 105.37 51.2191 105.69 51.1891 106.04C51.1691 106.24 51.1691 106.44 51.1691 106.64V111.92C51.1691 112.28 50.8791 112.57 50.5191 112.57ZM114.409 106.11C114.089 106.11 113.819 105.88 113.769 105.56C113.499 103.74 112.559 102.1 111.119 100.93C110.839 100.7 110.799 100.29 111.019 100.02C111.249 99.7402 111.659 99.7002 111.929 99.9202C113.619 101.29 114.729 103.22 115.049 105.37C115.099 105.72 114.859 106.06 114.499 106.11C114.469 106.11 114.439 106.11 114.399 106.11H114.409ZM53.0891 101.42C52.9191 101.42 52.7391 101.35 52.6091 101.21C52.3691 100.95 52.3791 100.54 52.6491 100.29C54.2391 98.8202 56.3191 98.0002 58.4891 97.9902C58.8491 97.9902 59.1391 98.2802 59.1391 98.6402C59.1391 99.0002 58.8491 99.2902 58.4891 99.2902C56.6391 99.2902 54.8791 99.9902 53.5291 101.24C53.4091 101.36 53.2491 101.41 53.0891 101.41V101.42ZM106.009 99.3002H100.069C99.7091 99.3002 99.4191 99.0102 99.4191 98.6502C99.4191 98.2902 99.7091 98.0002 100.069 98.0002H106.009C106.369 98.0002 106.659 98.2902 106.659 98.6502C106.659 99.0102 106.369 99.3002 106.009 99.3002ZM94.1291 99.3002H88.1891C87.8291 99.3002 87.5391 99.0102 87.5391 98.6502C87.5391 98.2902 87.8291 98.0002 88.1891 98.0002H94.1291C94.4891 98.0002 94.7791 98.2902 94.7791 98.6502C94.7791 99.0102 94.4891 99.3002 94.1291 99.3002ZM82.2491 99.3002H76.3091C75.9491 99.3002 75.6591 99.0102 75.6591 98.6502C75.6591 98.2902 75.9491 98.0002 76.3091 98.0002H82.2491C82.6091 98.0002 82.8991 98.2902 82.8991 98.6502C82.8991 99.0102 82.6091 99.3002 82.2491 99.3002ZM70.3691 99.3002H64.4291C64.0691 99.3002 63.7791 99.0102 63.7791 98.6502C63.7791 98.2902 64.0691 98.0002 64.4291 98.0002H70.3691C70.7291 98.0002 71.0191 98.2902 71.0191 98.6502C71.0191 99.0102 70.7291 99.3002 70.3691 99.3002Z" fill="#121312"/>
<path d="M68.06 120.501C70.9926 120.501 73.37 118.124 73.37 115.191C73.37 112.258 70.9926 109.881 68.06 109.881C65.1274 109.881 62.75 112.258 62.75 115.191C62.75 118.124 65.1274 120.501 68.06 120.501Z" fill="black"/>
<path d="M82.56 120.501C85.4926 120.501 87.87 118.124 87.87 115.191C87.87 112.258 85.4926 109.881 82.56 109.881C79.6274 109.881 77.25 112.258 77.25 115.191C77.25 118.124 79.6274 120.501 82.56 120.501Z" fill="black"/>
<path d="M97.06 120.501C99.9926 120.501 102.37 118.124 102.37 115.191C102.37 112.258 99.9926 109.881 97.06 109.881C94.1274 109.881 91.75 112.258 91.75 115.191C91.75 118.124 94.1274 120.501 97.06 120.501Z" fill="black"/>
<path d="M108.48 65C108.01 49.17 96.57 36.5 82.5 36.5C68.43 36.5 56.99 49.17 56.52 65H56.5V81.5H108.5V65H108.48ZM98.96 81H65.25V64.28V65.28C65.5 52.5 72.99 45 82.11 45C91.23 45 99.51 54.5 98.95 65.28V64.28C98.96 68.2 98.96 77.07 98.96 81Z" fill="white"/>
<path d="M108.5 82.1496H56.4996C56.1396 82.1496 55.8496 81.8596 55.8496 81.4996V64.9996C55.8496 64.9296 55.8496 64.8696 55.8796 64.8096C56.4396 48.5596 68.0996 35.8496 82.4996 35.8496C96.8996 35.8496 108.57 48.5596 109.12 64.8096C109.14 64.8696 109.15 64.9296 109.15 64.9996V81.4996C109.15 81.8596 108.86 82.1496 108.5 82.1496ZM99.6096 80.8496H107.85V65.1596C107.85 65.1596 107.83 65.0596 107.83 65.0096C107.37 49.3796 96.2396 37.1396 82.4996 37.1396C68.7596 37.1396 57.6296 49.3796 57.1696 65.0096C57.1696 65.0596 57.1696 65.1096 57.1496 65.1596V80.8396H64.5996V64.2696C64.5996 64.1696 64.6196 64.0696 64.6596 63.9896C65.3396 52.3496 72.3796 44.3396 82.0996 44.3396C86.3496 44.3396 90.5196 46.2696 93.8496 49.7796C97.7096 53.8496 99.7996 59.3496 99.6096 64.9496V80.8396V80.8496ZM65.8996 80.3496H98.3096V65.4196C98.3096 65.4196 98.2996 65.3196 98.2996 65.2696V64.2696C98.2996 64.2696 98.3196 64.1896 98.3296 64.1596C98.3096 59.1796 96.3696 54.3196 92.9196 50.6796C89.8396 47.4296 85.9996 45.6496 82.1096 45.6496C72.6496 45.6496 66.1396 53.5496 65.9196 65.2996C65.9196 65.3396 65.9196 65.3796 65.9096 65.4296V80.3596L65.8996 80.3496Z" fill="#121312"/>
</svg>
