<svg width="160" height="160" viewBox="0 0 160 160" fill="none" xmlns="http://www.w3.org/2000/svg">
<path d="M94.5498 111.029C121.22 111.029 142.84 89.409 142.84 62.7392C142.84 36.0694 121.22 14.4492 94.5498 14.4492C67.8799 14.4492 46.2598 36.0694 46.2598 62.7392C46.2598 89.409 67.8799 111.029 94.5498 111.029Z" fill="#3C3C3C"/>
<path d="M111.5 81.5H54C45.1634 81.5 38 88.6634 38 97.5V131.5C38 140.337 45.1634 147.5 54 147.5H111.5C120.337 147.5 127.5 140.337 127.5 131.5V97.5C127.5 88.6634 120.337 81.5 111.5 81.5Z" fill="#1C1C1C"/>
<path d="M111.5 148.15H53.9996C44.8196 148.15 37.3496 140.68 37.3496 131.5V97.4996C37.3496 88.3196 44.8196 80.8496 53.9996 80.8496H111.5C120.68 80.8496 128.15 88.3196 128.15 97.4996V131.5C128.15 140.68 120.68 148.15 111.5 148.15ZM53.9996 82.1496C45.5396 82.1496 38.6496 89.0396 38.6496 97.4996V131.5C38.6496 139.96 45.5396 146.85 53.9996 146.85H111.5C119.96 146.85 126.85 139.96 126.85 131.5V97.4996C126.85 89.0396 119.96 82.1496 111.5 82.1496H53.9996Z" fill="#A1A3A7"/>
<path d="M106.5 98.6406H58.5195C54.1013 98.6406 50.5195 102.222 50.5195 106.641V122.641C50.5195 127.059 54.1013 130.641 58.5195 130.641H106.5C110.918 130.641 114.5 127.059 114.5 122.641V106.641C114.5 102.222 110.918 98.6406 106.5 98.6406Z" fill="#1C1C1C"/>
<path d="M106.56 131.29H100.56C100.2 131.29 99.9101 131 99.9101 130.64C99.9101 130.28 100.2 129.99 100.56 129.99H106.5C106.86 129.99 107.18 130.28 107.18 130.64C107.18 131 106.92 131.29 106.56 131.29ZM94.6201 131.29H88.6801C88.3201 131.29 88.0301 131 88.0301 130.64C88.0301 130.28 88.3201 129.99 88.6801 129.99H94.6201C94.9801 129.99 95.2701 130.28 95.2701 130.64C95.2701 131 94.9801 131.29 94.6201 131.29ZM82.7401 131.29H76.8001C76.4401 131.29 76.1501 131 76.1501 130.64C76.1501 130.28 76.4401 129.99 76.8001 129.99H82.7401C83.1001 129.99 83.3901 130.28 83.3901 130.64C83.3901 131 83.1001 131.29 82.7401 131.29ZM70.8601 131.29H64.9201C64.5601 131.29 64.2701 131 64.2701 130.64C64.2701 130.28 64.5601 129.99 64.9201 129.99H70.8601C71.2201 129.99 71.5101 130.28 71.5101 130.64C71.5101 131 71.2201 131.29 70.8601 131.29ZM58.9801 131.29H58.5201C56.5301 131.29 54.5901 130.6 53.0501 129.34C52.7701 129.11 52.7301 128.7 52.9601 128.43C53.1901 128.15 53.6001 128.11 53.8801 128.34C55.1901 129.41 56.8401 129.99 58.5201 129.99H58.9801C59.3401 129.99 59.6301 130.28 59.6301 130.64C59.6301 131 59.3401 131.29 58.9801 131.29ZM111.95 129.14C111.78 129.14 111.6 129.07 111.47 128.93C111.23 128.67 111.24 128.26 111.5 128.01C112.85 126.75 113.67 125.04 113.82 123.21C113.85 122.85 114.16 122.58 114.52 122.61C114.88 122.64 115.14 122.95 115.12 123.31C114.95 125.47 113.98 127.48 112.39 128.96C112.27 129.08 112.11 129.13 111.95 129.13V129.14ZM50.6001 124.44C50.2801 124.44 50.0001 124.21 49.9601 123.88C49.9001 123.47 49.8701 123.05 49.8701 122.63V117.85C49.8701 117.49 50.1601 117.2 50.5201 117.2C50.8801 117.2 51.1701 117.49 51.1701 117.85V122.63C51.1701 122.98 51.2001 123.34 51.2501 123.69C51.3001 124.04 51.0501 124.38 50.7001 124.43C50.6701 124.43 50.6401 124.43 50.6101 124.43L50.6001 124.44ZM114.5 117.98C114.14 117.98 113.85 117.69 113.85 117.33V111.39C113.85 111.03 114.14 110.74 114.5 110.74C114.86 110.74 115.15 111.03 115.15 111.39V117.33C115.15 117.69 114.86 117.98 114.5 117.98ZM50.5201 112.57C50.1601 112.57 49.8701 112.28 49.8701 111.92V106.64C49.8701 106.4 49.8701 106.16 49.9001 105.93C49.9301 105.57 50.2301 105.3 50.6001 105.34C50.9601 105.37 51.2201 105.69 51.1901 106.04C51.1701 106.24 51.1701 106.44 51.1701 106.64V111.92C51.1701 112.28 50.8801 112.57 50.5201 112.57ZM114.41 106.11C114.09 106.11 113.82 105.88 113.77 105.56C113.5 103.74 112.56 102.1 111.12 100.93C110.84 100.7 110.8 100.29 111.02 100.02C111.25 99.7402 111.66 99.7002 111.93 99.9202C113.62 101.29 114.73 103.22 115.05 105.37C115.1 105.72 114.86 106.06 114.5 106.11C114.47 106.11 114.44 106.11 114.4 106.11H114.41ZM53.0901 101.42C52.9201 101.42 52.7401 101.35 52.6101 101.21C52.3701 100.95 52.3801 100.54 52.6501 100.29C54.2401 98.8202 56.3201 98.0002 58.4901 97.9902C58.8501 97.9902 59.1401 98.2802 59.1401 98.6402C59.1401 99.0002 58.8501 99.2902 58.4901 99.2902C56.6401 99.2902 54.8801 99.9902 53.5301 101.24C53.4101 101.36 53.2501 101.41 53.0901 101.41V101.42ZM106.01 99.3002H100.07C99.7101 99.3002 99.4201 99.0102 99.4201 98.6502C99.4201 98.2902 99.7101 98.0002 100.07 98.0002H106.01C106.37 98.0002 106.66 98.2902 106.66 98.6502C106.66 99.0102 106.37 99.3002 106.01 99.3002ZM94.1301 99.3002H88.1901C87.8301 99.3002 87.5401 99.0102 87.5401 98.6502C87.5401 98.2902 87.8301 98.0002 88.1901 98.0002H94.1301C94.4901 98.0002 94.7801 98.2902 94.7801 98.6502C94.7801 99.0102 94.4901 99.3002 94.1301 99.3002ZM82.2501 99.3002H76.3101C75.9501 99.3002 75.6601 99.0102 75.6601 98.6502C75.6601 98.2902 75.9501 98.0002 76.3101 98.0002H82.2501C82.6101 98.0002 82.9001 98.2902 82.9001 98.6502C82.9001 99.0102 82.6101 99.3002 82.2501 99.3002ZM70.3701 99.3002H64.4301C64.0701 99.3002 63.7801 99.0102 63.7801 98.6502C63.7801 98.2902 64.0701 98.0002 64.4301 98.0002H70.3701C70.7301 98.0002 71.0201 98.2902 71.0201 98.6502C71.0201 99.0102 70.7301 99.3002 70.3701 99.3002Z" fill="#12FF80"/>
<path d="M68.06 120.501C70.9926 120.501 73.37 118.123 73.37 115.191C73.37 112.258 70.9926 109.881 68.06 109.881C65.1274 109.881 62.75 112.258 62.75 115.191C62.75 118.123 65.1274 120.501 68.06 120.501Z" fill="#12FF80"/>
<path d="M82.56 120.501C85.4926 120.501 87.87 118.123 87.87 115.191C87.87 112.258 85.4926 109.881 82.56 109.881C79.6274 109.881 77.25 112.258 77.25 115.191C77.25 118.123 79.6274 120.501 82.56 120.501Z" fill="#12FF80"/>
<path d="M97.06 120.501C99.9926 120.501 102.37 118.123 102.37 115.191C102.37 112.258 99.9926 109.881 97.06 109.881C94.1274 109.881 91.75 112.258 91.75 115.191C91.75 118.123 94.1274 120.501 97.06 120.501Z" fill="#12FF80"/>
<path d="M108.48 65C108.01 49.17 96.57 36.5 82.5 36.5C68.43 36.5 56.99 49.17 56.52 65H56.5V81.5H108.5V65H108.48ZM98.96 81H65.25V64.28V65.28C65.5 52.5 72.99 45 82.11 45C91.23 45 99.51 54.5 98.95 65.28V64.28C98.96 68.2 98.96 77.07 98.96 81Z" fill="#1C1C1C"/>
<path d="M108.5 82.1496H56.4996C56.1396 82.1496 55.8496 81.8596 55.8496 81.4996V64.9996C55.8496 64.9296 55.8496 64.8696 55.8796 64.8096C56.4396 48.5596 68.0996 35.8496 82.4996 35.8496C96.8996 35.8496 108.57 48.5596 109.12 64.8096C109.14 64.8696 109.15 64.9296 109.15 64.9996V81.4996C109.15 81.8596 108.86 82.1496 108.5 82.1496ZM99.6096 80.8496H107.85V65.1596C107.85 65.1596 107.83 65.0596 107.83 65.0096C107.37 49.3796 96.2396 37.1396 82.4996 37.1396C68.7596 37.1396 57.6296 49.3796 57.1696 65.0096C57.1696 65.0596 57.1696 65.1096 57.1496 65.1596V80.8396H64.5996V64.2696C64.5996 64.1696 64.6196 64.0696 64.6596 63.9896C65.3396 52.3496 72.3796 44.3396 82.0996 44.3396C86.3496 44.3396 90.5196 46.2696 93.8496 49.7796C97.7096 53.8496 99.7996 59.3496 99.6096 64.9496V80.8396V80.8496ZM65.8996 80.3496H98.3096V65.4196C98.3096 65.4196 98.2996 65.3196 98.2996 65.2696V64.2696C98.2996 64.2696 98.3196 64.1896 98.3296 64.1596C98.3096 59.1796 96.3696 54.3196 92.9196 50.6796C89.8396 47.4296 85.9996 45.6496 82.1096 45.6496C72.6496 45.6496 66.1396 53.5496 65.9196 65.2996C65.9196 65.3396 65.9196 65.3796 65.9096 65.4296V80.3596L65.8996 80.3496Z" fill="#A1A3A7"/>
</svg>
