<svg width="160" height="160" viewBox="0 0 160 160" fill="none" xmlns="http://www.w3.org/2000/svg">
<path d="M94.5498 111.029C121.22 111.029 142.84 89.409 142.84 62.7392C142.84 36.0694 121.22 14.4492 94.5498 14.4492C67.8799 14.4492 46.2598 36.0694 46.2598 62.7392C46.2598 89.409 67.8799 111.029 94.5498 111.029Z" fill="#3C3C3C"/>
<path d="M106.5 33.5H55.5C46.6634 33.5 39.5 40.6634 39.5 49.5V131C39.5 139.837 46.6634 147 55.5 147H106.5C115.337 147 122.5 139.837 122.5 131V49.5C122.5 40.6634 115.337 33.5 106.5 33.5Z" fill="#1C1C1C"/>
<path d="M106.5 147.65H55.4996C46.3196 147.65 38.8496 140.18 38.8496 131V49.4996C38.8496 40.3196 46.3196 32.8496 55.4996 32.8496H106.5C115.68 32.8496 123.15 40.3196 123.15 49.4996V131C123.15 140.18 115.68 147.65 106.5 147.65ZM55.4996 34.1496C47.0396 34.1496 40.1496 41.0396 40.1496 49.4996V131C40.1496 139.46 47.0396 146.35 55.4996 146.35H106.5C114.96 146.35 121.85 139.46 121.85 131V49.4996C121.85 41.0396 114.96 34.1496 106.5 34.1496H55.4996Z" fill="#A1A3A7"/>
<path d="M104.99 88H57.0098C52.5915 88 49.0098 91.5817 49.0098 96V112C49.0098 116.418 52.5915 120 57.0098 120H104.99C109.408 120 112.99 116.418 112.99 112V96C112.99 91.5817 109.408 88 104.99 88Z" fill="#1C1C1C"/>
<path d="M105.05 120.65H99.0504C98.6903 120.65 98.4003 120.36 98.4003 120C98.4003 119.64 98.6903 119.35 99.0504 119.35H104.99C105.35 119.35 105.67 119.64 105.67 120C105.67 120.36 105.41 120.65 105.05 120.65ZM93.1103 120.65H87.1703C86.8103 120.65 86.5203 120.36 86.5203 120C86.5203 119.64 86.8103 119.35 87.1703 119.35H93.1103C93.4703 119.35 93.7603 119.64 93.7603 120C93.7603 120.36 93.4703 120.65 93.1103 120.65ZM81.2304 120.65H75.2903C74.9303 120.65 74.6404 120.36 74.6404 120C74.6404 119.64 74.9303 119.35 75.2903 119.35H81.2304C81.5904 119.35 81.8803 119.64 81.8803 120C81.8803 120.36 81.5904 120.65 81.2304 120.65ZM69.3503 120.65H63.4104C63.0504 120.65 62.7603 120.36 62.7603 120C62.7603 119.64 63.0504 119.35 63.4104 119.35H69.3503C69.7103 119.35 70.0003 119.64 70.0003 120C70.0003 120.36 69.7103 120.65 69.3503 120.65ZM57.4704 120.65H57.0103C55.0203 120.65 53.0804 119.96 51.5404 118.7C51.2604 118.47 51.2204 118.06 51.4504 117.79C51.6804 117.51 52.0903 117.47 52.3703 117.7C53.6803 118.77 55.3303 119.35 57.0103 119.35H57.4704C57.8304 119.35 58.1203 119.64 58.1203 120C58.1203 120.36 57.8304 120.65 57.4704 120.65ZM110.44 118.51C110.27 118.51 110.09 118.44 109.96 118.3C109.71 118.04 109.73 117.63 109.99 117.38C111.34 116.12 112.17 114.42 112.31 112.58C112.34 112.22 112.64 111.95 113.01 111.98C113.37 112.01 113.63 112.32 113.61 112.68C113.44 114.84 112.47 116.85 110.88 118.33C110.76 118.45 110.6 118.5 110.44 118.5V118.51ZM49.0904 113.81C48.7704 113.81 48.4904 113.58 48.4504 113.25C48.3904 112.84 48.3604 112.42 48.3604 112V107.22C48.3604 106.86 48.6503 106.57 49.0103 106.57C49.3703 106.57 49.6604 106.86 49.6604 107.22V112C49.6604 112.35 49.6803 112.71 49.7403 113.06C49.7903 113.41 49.5403 113.75 49.1903 113.8C49.1603 113.8 49.1303 113.8 49.1003 113.8L49.0904 113.81ZM112.99 107.35C112.63 107.35 112.34 107.06 112.34 106.7V100.76C112.34 100.4 112.63 100.11 112.99 100.11C113.35 100.11 113.64 100.4 113.64 100.76V106.7C113.64 107.06 113.35 107.35 112.99 107.35ZM49.0103 101.93C48.6503 101.93 48.3604 101.64 48.3604 101.28V95.9996C48.3604 95.7596 48.3604 95.5196 48.3904 95.2796C48.4204 94.9196 48.7204 94.6496 49.0904 94.6896C49.4504 94.7196 49.7104 95.0296 49.6804 95.3896C49.6604 95.5896 49.6604 95.7896 49.6604 95.9996V101.28C49.6604 101.64 49.3703 101.93 49.0103 101.93ZM112.9 95.4696C112.58 95.4696 112.31 95.2396 112.26 94.9196C111.99 93.0996 111.05 91.4596 109.61 90.2896C109.33 90.0596 109.29 89.6496 109.51 89.3796C109.74 89.0996 110.15 89.0596 110.42 89.2796C112.11 90.6496 113.22 92.5796 113.53 94.7296C113.58 95.0796 113.34 95.4196 112.98 95.4696C112.95 95.4696 112.92 95.4696 112.88 95.4696H112.9ZM51.5803 90.7796C51.4103 90.7796 51.2303 90.7096 51.1003 90.5696C50.8603 90.3096 50.8704 89.8996 51.1404 89.6496C52.7304 88.1796 54.8104 87.3596 56.9804 87.3496C57.3404 87.3496 57.6304 87.6396 57.6304 87.9996C57.6304 88.3596 57.3404 88.6496 56.9804 88.6496C55.1404 88.6496 53.3704 89.3496 52.0204 90.5996C51.9004 90.7196 51.7403 90.7696 51.5803 90.7696V90.7796ZM104.5 88.6596H98.5603C98.2003 88.6596 97.9104 88.3696 97.9104 88.0096C97.9104 87.6496 98.2003 87.3596 98.5603 87.3596H104.5C104.86 87.3596 105.15 87.6496 105.15 88.0096C105.15 88.3696 104.86 88.6596 104.5 88.6596ZM92.6203 88.6596H86.6803C86.3203 88.6596 86.0302 88.3696 86.0302 88.0096C86.0302 87.6496 86.3203 87.3596 86.6803 87.3596H92.6203C92.9804 87.3596 93.2703 87.6496 93.2703 88.0096C93.2703 88.3696 92.9804 88.6596 92.6203 88.6596ZM80.7403 88.6596H74.8004C74.4403 88.6596 74.1503 88.3696 74.1503 88.0096C74.1503 87.6496 74.4403 87.3596 74.8004 87.3596H80.7403C81.1003 87.3596 81.3904 87.6496 81.3904 88.0096C81.3904 88.3696 81.1003 88.6596 80.7403 88.6596ZM68.8603 88.6596H62.9202C62.5603 88.6596 62.2704 88.3696 62.2704 88.0096C62.2704 87.6496 62.5603 87.3596 62.9202 87.3596H68.8603C69.2203 87.3596 69.5103 87.6496 69.5103 88.0096C69.5103 88.3696 69.2203 88.6596 68.8603 88.6596Z" fill="#A1A3A7"/>
<path d="M66.5004 109.309C69.4331 109.309 71.8104 106.932 71.8104 103.999C71.8104 101.067 69.4331 98.6895 66.5004 98.6895C63.5678 98.6895 61.1904 101.067 61.1904 103.999C61.1904 106.932 63.5678 109.309 66.5004 109.309Z" fill="#12FF80"/>
<path d="M81.0004 109.309C83.9331 109.309 86.3104 106.932 86.3104 103.999C86.3104 101.067 83.9331 98.6895 81.0004 98.6895C78.0678 98.6895 75.6904 101.067 75.6904 103.999C75.6904 106.932 78.0678 109.309 81.0004 109.309Z" fill="#12FF80"/>
<path d="M95.5004 109.309C98.4331 109.309 100.81 106.932 100.81 103.999C100.81 101.067 98.4331 98.6895 95.5004 98.6895C92.5678 98.6895 90.1904 101.067 90.1904 103.999C90.1904 106.932 92.5678 109.309 95.5004 109.309Z" fill="#12FF80"/>
<path d="M82.06 139.501C84.9926 139.501 87.37 137.123 87.37 134.191C87.37 131.258 84.9926 128.881 82.06 128.881C79.1274 128.881 76.75 131.258 76.75 134.191C76.75 137.123 79.1274 139.501 82.06 139.501Z" fill="#12FF80"/>
<path d="M93.7 79.6505C93.34 79.6505 93.05 79.3605 93.05 79.0005C93.05 70.6505 87.55 63.8605 80.78 63.8605C74.01 63.8605 68.51 70.6505 68.51 79.0005C68.51 79.3605 68.22 79.6505 67.86 79.6505C67.5 79.6505 67.21 79.3605 67.21 79.0005C67.21 69.9405 73.3 62.5605 80.78 62.5605C88.26 62.5605 94.35 69.9305 94.35 79.0005C94.35 79.3605 94.06 79.6505 93.7 79.6505Z" fill="#A1A3A7"/>
<path d="M80.7802 63.4998C76.4602 63.4998 72.9502 59.9898 72.9502 55.6698C72.9502 51.3498 76.4602 47.8398 80.7802 47.8398C85.1002 47.8398 88.6102 51.3498 88.6102 55.6698C88.6102 59.9898 85.1002 63.4998 80.7802 63.4998ZM80.7802 49.1498C77.1802 49.1498 74.2502 52.0798 74.2502 55.6798C74.2502 59.2798 77.1802 62.2098 80.7802 62.2098C84.3802 62.2098 87.3102 59.2798 87.3102 55.6798C87.3102 52.0798 84.3802 49.1498 80.7802 49.1498Z" fill="#A1A3A7"/>
</svg>
