<svg width="160" height="160" viewBox="0 0 160 160" fill="none" xmlns="http://www.w3.org/2000/svg">
<path d="M94.5498 111.029C121.22 111.029 142.84 89.409 142.84 62.7392C142.84 36.0693 121.22 14.4492 94.5498 14.4492C67.8799 14.4492 46.2598 36.0693 46.2598 62.7392C46.2598 89.409 67.8799 111.029 94.5498 111.029Z" fill="#AAFFC3"/>
<path d="M92 132.24V68.4902C92 59.6536 84.8366 52.4902 76 52.4902H49.5C40.6634 52.4902 33.5 59.6536 33.5 68.4902V132.24C33.5 141.077 40.6634 148.24 49.5 148.24H76C84.8366 148.24 92 141.077 92 132.24Z" fill="white"/>
<path d="M75.9996 148.9H49.4996C40.3196 148.9 32.8496 141.43 32.8496 132.25V68.4996C32.8496 59.3196 40.3196 51.8496 49.4996 51.8496H75.9996C85.1796 51.8496 92.6496 59.3196 92.6496 68.4996V132.25C92.6496 141.43 85.1796 148.9 75.9996 148.9ZM49.4996 53.1496C41.0396 53.1496 34.1496 60.0396 34.1496 68.4996V132.25C34.1496 140.71 41.0396 147.6 49.4996 147.6H75.9996C84.4596 147.6 91.3496 140.71 91.3496 132.25V68.4996C91.3496 60.0396 84.4596 53.1496 75.9996 53.1496H49.4996Z" fill="#121312"/>
<path d="M86.5004 119.5V69.5C86.5004 63.9772 82.0232 59.5 76.5004 59.5H49.6904C44.1675 59.5 39.6904 63.9772 39.6904 69.5V119.5C39.6904 125.023 44.1675 129.5 49.6904 129.5H76.5004C82.0232 129.5 86.5004 125.023 86.5004 119.5Z" fill="white"/>
<path d="M76.4991 130.15H49.6891C43.8191 130.15 39.0391 125.37 39.0391 119.5V69.4996C39.0391 63.6296 43.8191 58.8496 49.6891 58.8496H76.4991C82.3691 58.8496 87.1491 63.6296 87.1491 69.4996V119.5C87.1491 125.37 82.3691 130.15 76.4991 130.15ZM49.6891 60.1496C44.5291 60.1496 40.3391 64.3396 40.3391 69.4996V119.5C40.3391 124.66 44.5291 128.85 49.6891 128.85H76.4991C81.6591 128.85 85.8491 124.66 85.8491 119.5V69.4996C85.8491 64.3396 81.6591 60.1496 76.4991 60.1496H49.6891Z" fill="#121312"/>
<path d="M120.5 73.6409C110.23 73.6409 101.46 73.6909 89.9295 73.6409C85.6995 73.6209 78.4995 87.5009 78.4995 87.5009C76.7595 87.5209 76.5295 73.6609 73.5795 73.6709C71.0395 73.6809 72.8895 73.6709 72.5195 73.6309C71.1195 73.4509 68.7395 73.1709 66.8595 71.2909C65.4095 69.8409 64.5195 67.8409 64.5195 65.6309V49.6309C64.5195 45.2109 68.0995 41.6309 72.5195 41.6309H120.5C124.92 41.6309 128.5 45.2109 128.5 49.6309V65.6309C128.5 70.0509 124.92 73.6309 120.5 73.6309V73.6409Z" fill="white"/>
<path d="M78.5007 88.1494C77.5507 88.1494 77.1107 86.9994 76.6707 85.0094C76.5907 84.6594 76.8107 84.3094 77.1707 84.2394C77.5107 84.1594 77.8707 84.3794 77.9407 84.7294C78.1107 85.5194 78.2607 86.0294 78.3807 86.3494C78.6307 85.8894 78.9707 85.2794 79.3907 84.5494C79.5707 84.2394 79.9707 84.1294 80.2807 84.3094C80.5907 84.4894 80.7007 84.8894 80.5207 85.1994C79.6407 86.7194 79.0907 87.7894 79.0807 87.7994C78.9707 88.0094 78.7507 88.1494 78.5107 88.1494H78.5007Z" fill="#121312"/>
<path d="M83.2596 80.2902C83.1296 80.2902 82.9996 80.2502 82.8896 80.1702C82.5996 79.9602 82.5196 79.5602 82.7296 79.2602C84.2296 77.1202 85.5996 75.5202 86.8096 74.4802C87.0796 74.2502 87.4896 74.2802 87.7296 74.5502C87.9596 74.8202 87.9296 75.2302 87.6596 75.4702C86.5396 76.4402 85.2396 77.9702 83.7996 80.0102C83.6696 80.1902 83.4696 80.2902 83.2696 80.2902H83.2596ZM76.1496 79.5002C75.8496 79.5002 75.5796 79.2902 75.5196 78.9802C74.6296 74.7802 73.8696 74.3202 73.5796 74.3202C73.2196 74.3202 72.9096 74.0302 72.8996 73.6802C72.8896 73.3302 73.1496 73.0302 73.4996 73.0202C75.3396 73.0202 76.1596 75.7502 76.7896 78.7102C76.8596 79.0602 76.6396 79.4102 76.2896 79.4802C76.2396 79.4802 76.1996 79.4902 76.1496 79.4902V79.5002ZM99.1196 74.3102C97.1396 74.3102 95.1096 74.3102 92.9896 74.3002C92.6296 74.3002 92.3396 74.0102 92.3396 73.6502C92.3396 73.2902 92.6296 73.0002 92.9896 73.0002C95.1096 73.0002 97.1496 73.0002 99.1196 73.0102C99.4796 73.0102 99.7696 73.3002 99.7696 73.6602C99.7696 74.0202 99.4796 74.3102 99.1196 74.3102ZM105.25 74.3102C104.89 74.3102 104.6 74.0202 104.6 73.6602C104.6 73.3002 104.89 73.0102 105.25 73.0102H111.29L111.38 73.6502L111.29 74.3002H105.25V74.3102ZM117.51 74.2902C117.15 74.2902 116.86 74.0002 116.86 73.6402C116.86 73.2802 117.15 72.9902 117.51 72.9902H120.49C121.47 72.9902 122.42 72.8002 123.31 72.4302C123.64 72.2902 124.02 72.4502 124.16 72.7802C124.3 73.1102 124.14 73.4902 123.81 73.6302C122.76 74.0702 121.64 74.2902 120.49 74.2902H117.51ZM68.2996 73.0602C68.1896 73.0602 68.0796 73.0302 67.9696 72.9702C67.3896 72.6302 66.8496 72.2202 66.3796 71.7502C65.2796 70.6502 64.4896 69.2702 64.1096 67.7702C64.0196 67.4202 64.2296 67.0702 64.5796 66.9802C64.9296 66.8902 65.2796 67.1002 65.3696 67.4502C65.6896 68.7302 66.3596 69.9002 67.2996 70.8302C67.6896 71.2202 68.1396 71.5702 68.6196 71.8502C68.9296 72.0302 69.0396 72.4302 68.8496 72.7402C68.7296 72.9502 68.5096 73.0602 68.2896 73.0602H68.2996ZM127.82 69.4702C127.73 69.4702 127.65 69.4502 127.56 69.4202C127.23 69.2802 127.08 68.8902 127.22 68.5602C127.62 67.6302 127.83 66.6502 127.83 65.6302V62.7802C127.83 62.4202 128.12 62.1302 128.48 62.1302C128.84 62.1302 129.13 62.4202 129.13 62.7802V65.6302C129.13 66.8302 128.89 67.9902 128.41 69.0802C128.3 69.3202 128.07 69.4702 127.81 69.4702H127.82ZM64.4996 62.1402C64.1396 62.1402 63.8496 61.8502 63.8496 61.4902V55.3602C63.8496 55.0002 64.1396 54.7102 64.4996 54.7102C64.8596 54.7102 65.1496 55.0002 65.1496 55.3602V61.4902C65.1496 61.8502 64.8596 62.1402 64.4996 62.1402ZM128.48 57.3002C128.12 57.3002 127.83 57.0102 127.83 56.6502V50.5202C127.83 50.1602 128.12 49.8702 128.48 49.8702C128.84 49.8702 129.13 50.1602 129.13 50.5202V56.6502C129.13 57.0102 128.84 57.3002 128.48 57.3002ZM64.5096 49.8802C64.5096 49.8802 64.4896 49.8802 64.4796 49.8802C64.1196 49.8602 63.8496 49.5602 63.8596 49.2002C63.9696 46.9602 64.9396 44.8702 66.5796 43.3302C66.8396 43.0802 67.2496 43.1002 67.4996 43.3602C67.7496 43.6202 67.7296 44.0302 67.4696 44.2802C66.0696 45.5902 65.2496 47.3602 65.1596 49.2702C65.1396 49.6202 64.8596 49.8902 64.5096 49.8902V49.8802ZM126.82 45.4102C126.63 45.4102 126.43 45.3202 126.31 45.1602C125.14 43.6402 123.46 42.6502 121.57 42.3702C121.22 42.3202 120.97 41.9902 121.02 41.6302C121.07 41.2702 121.4 41.0302 121.76 41.0802C123.98 41.4102 125.96 42.5702 127.34 44.3602C127.56 44.6402 127.51 45.0502 127.22 45.2702C127.1 45.3602 126.96 45.4102 126.82 45.4102ZM115.53 42.2902H109.4C109.04 42.2902 108.75 42.0002 108.75 41.6402C108.75 41.2802 109.04 40.9902 109.4 40.9902H115.53C115.89 40.9902 116.18 41.2802 116.18 41.6402C116.18 42.0002 115.89 42.2902 115.53 42.2902ZM103.26 42.2902H97.1296C96.7696 42.2902 96.4796 42.0002 96.4796 41.6402C96.4796 41.2802 96.7696 40.9902 97.1296 40.9902H103.26C103.62 40.9902 103.91 41.2802 103.91 41.6402C103.91 42.0002 103.62 42.2902 103.26 42.2902ZM90.9896 42.2902H84.8596C84.4996 42.2902 84.2096 42.0002 84.2096 41.6402C84.2096 41.2802 84.4996 40.9902 84.8596 40.9902H90.9896C91.3496 40.9902 91.6396 41.2802 91.6396 41.6402C91.6396 42.0002 91.3496 42.2902 90.9896 42.2902ZM78.7196 42.2902H72.5896C72.2296 42.2902 71.9396 42.0002 71.9396 41.6402C71.9396 41.2802 72.2296 40.9902 72.5896 40.9902H78.7196C79.0796 40.9902 79.3696 41.2802 79.3696 41.6402C79.3696 42.0002 79.0796 42.2902 78.7196 42.2902Z" fill="#121312"/>
<path d="M82.06 63.5009C84.9926 63.5009 87.37 61.1235 87.37 58.1909C87.37 55.2582 84.9926 52.8809 82.06 52.8809C79.1274 52.8809 76.75 55.2582 76.75 58.1909C76.75 61.1235 79.1274 63.5009 82.06 63.5009Z" fill="black"/>
<path d="M96.56 63.5009C99.4926 63.5009 101.87 61.1235 101.87 58.1909C101.87 55.2582 99.4926 52.8809 96.56 52.8809C93.6274 52.8809 91.25 55.2582 91.25 58.1909C91.25 61.1235 93.6274 63.5009 96.56 63.5009Z" fill="black"/>
<path d="M111.06 63.5009C113.993 63.5009 116.37 61.1235 116.37 58.1909C116.37 55.2582 113.993 52.8809 111.06 52.8809C108.127 52.8809 105.75 55.2582 105.75 58.1909C105.75 61.1235 108.127 63.5009 111.06 63.5009Z" fill="black"/>
<path d="M63.06 145.501C65.9926 145.501 68.37 143.124 68.37 140.191C68.37 137.258 65.9926 134.881 63.06 134.881C60.1274 134.881 57.75 137.258 57.75 140.191C57.75 143.124 60.1274 145.501 63.06 145.501Z" fill="black"/>
</svg>
