<svg width="17" height="16" viewBox="0 0 17 16" fill="none" xmlns="http://www.w3.org/2000/svg">
    <path fill-rule="evenodd" clip-rule="evenodd" d="M13.6819 10.4036C13.0879 10.4043 12.603 9.91941 12.6038 9.32544L12.6038 5.83327L5.29387 13.1432C4.87451 13.5625 4.18827 13.5625 3.76891 13.1432C3.34878 12.723 3.34955 12.0376 3.76891 11.6182L11.0788 4.30831L7.58589 4.30755C6.99268 4.30755 6.50774 3.82261 6.50774 3.2294C6.50774 2.63619 6.99268 2.15126 7.58589 2.15126L13.6819 2.15202C13.7719 2.15049 13.8527 2.18252 13.9358 2.2031C13.9869 2.21607 14.0403 2.21454 14.0906 2.23437C14.1356 2.2519 14.1707 2.28698 14.2111 2.31214C14.4162 2.43032 14.5862 2.60188 14.6777 2.82148C14.6968 2.86951 14.6953 2.92136 14.7075 2.97168C14.7296 3.05632 14.7601 3.13714 14.7601 3.23017L14.7601 9.32544C14.7601 9.91865 14.2751 10.4036 13.6819 10.4036Z" fill="currentColor"/>
</svg>
