<svg xmlns="http://www.w3.org/2000/svg" width="159" height="197" viewBox="0 0 159 197" fill="none">
    <path d="M169.519 54.3173L167.812 56.0245H170.226H224.024C234.505 56.0245 243 64.5192 243 75C243 85.4807 234.505 93.9755 224.024 93.9755H170.226H167.812L169.519 95.6826L207.56 133.724C214.97 141.134 214.97 153.15 207.56 160.56C200.15 167.97 188.134 167.97 180.724 160.56L142.683 122.519L140.976 120.812V123.226V177.024C140.976 187.505 132.481 196 122 196C111.519 196 103.024 187.505 103.024 177.024V123.226V120.812L101.317 122.519L63.2758 160.56C55.8658 167.97 43.8497 167.97 36.4397 160.56C29.0297 153.15 29.0297 141.134 36.4397 133.724L74.4812 95.6826L76.1883 93.9755H73.7741H19.9755C9.49479 93.9755 1 85.4807 1 75C1 64.5192 9.49479 56.0245 19.9755 56.0245H73.7741H76.1883L74.4812 54.3173L36.4397 16.2758C29.0297 8.86582 29.0297 -3.15033 36.4397 -10.5603C43.8497 -17.9703 55.8658 -17.9703 63.2758 -10.5603L101.317 27.4812L103.024 29.1883V26.7741V-27.0245C103.024 -37.5052 111.519 -46 122 -46C132.481 -46 140.976 -37.5052 140.976 -27.0245V26.7741V29.1883L142.683 27.4812L180.724 -10.5603C188.134 -17.9703 200.15 -17.9703 207.56 -10.5603C214.97 -3.15033 214.97 8.86582 207.56 16.2758L169.519 54.3173Z" stroke="url(#paint0_linear_870_4193)" stroke-width="2"/>
    <defs>
        <linearGradient id="paint0_linear_870_4193" x1="206.568" y1="-23.4318" x2="22.1818" y2="160.955" gradientUnits="userSpaceOnUse">
            <stop stop-color="#5FDDFF"/>
            <stop offset="1" stop-color="#12FF80"/>
        </linearGradient>
    </defs>
</svg>