<svg width="24" height="24" viewBox="0 0 24 24" fill="none" xmlns="http://www.w3.org/2000/svg">
<path fill-rule="evenodd" clip-rule="evenodd" d="M22 12C22 17.5228 17.5228 22 12 22C6.47715 22 2 17.5228 2 12C2 6.47715 6.47715 2 12 2C17.5228 2 22 6.47715 22 12ZM9.27482 10.6992L11.5334 12.8123L14.8096 9.45275C15.388 8.85965 16.3377 8.84772 16.9308 9.4261C17.5239 10.0045 17.5358 10.9541 16.9574 11.5472L12.6554 15.9587C12.0855 16.5432 11.1528 16.5646 10.5567 16.0068L7.22519 12.8898C6.62026 12.3238 6.58868 11.3746 7.15467 10.7697C7.72066 10.1648 8.66988 10.1332 9.27482 10.6992Z" fill="currentColor"/>
</svg>
