<svg width="15" height="15" viewBox="0 0 15 15" fill="none" xmlns="http://www.w3.org/2000/svg">
  <path fill-rule="evenodd" clip-rule="evenodd"
    d="M8.47717 7.69172L13.7585 12.832C14.1467 13.2098 14.1467 13.8275 13.7585 14.2052C13.3694 14.583 12.7358 14.583 12.3476 14.2052L7.06626 9.06494L1.7849 14.2052C1.39575 14.583 0.76214 14.583 0.373991 14.2052C-0.0151556 13.8275 -0.0151556 13.2098 0.373991 12.832L5.65536 7.69172L0.373891 2.55133C-0.0152554 2.17354 -0.0152554 1.55589 0.373891 1.17811C0.76204 0.799355 1.39565 0.799355 1.7848 1.17811L7.06626 6.3185L12.3477 1.17811C12.7359 0.799355 13.3695 0.799355 13.7586 1.17811C14.1468 1.55589 14.1468 2.17354 13.7586 2.55133L8.47717 7.69172Z"
    fill="currentColor" />
</svg>