<svg width="16" height="16" viewBox="0 0 16 16" fill="none" xmlns="http://www.w3.org/2000/svg">
<path fill-rule="evenodd" clip-rule="evenodd" d="M9 13.6479L9.00672 14.7714C9.00672 14.8979 9.10996 15 9.23672 15H10.3557C10.4169 15 10.4757 14.9757 10.5193 14.9322L13.9005 11.5598C14.0332 11.4275 14.0332 11.2123 13.9005 11.08L12.9083 10.0904C12.7875 9.96986 12.591 9.96986 12.4702 10.0904L9.06799 13.4838C9.02434 13.5273 9 13.5867 9 13.6479Z" fill="currentColor"/>
<path fill-rule="evenodd" clip-rule="evenodd" d="M8.92858 5.46039V3.59907L10.7679 5.46039H8.92858ZM13.1561 5.67982C13.1561 5.54342 13.1036 5.4121 13.0062 5.31552L9.11411 1.3777C9.01668 1.27772 8.88198 1.22266 8.74303 1.22266H4.263C3.56151 1.22266 2.99219 1.75386 2.99219 2.40875V13.5919C2.99219 14.2468 3.56151 14.778 4.263 14.778H7.22145V14.7754C7.2223 14.7754 7.22314 14.7754 7.22399 14.7754C7.69165 14.7754 8.0712 14.3959 8.0712 13.9282C8.0712 13.4606 7.69165 13.081 7.22399 13.081C7.21975 13.081 7.21637 13.0836 7.21298 13.0836H4.6866V2.91707H7.23416V5.73234C7.23416 6.51686 7.87295 7.1548 8.65747 7.1548H11.4617V7.99439V7.99778C11.4617 8.46544 11.8413 8.84498 12.3089 8.84498C12.7757 8.84498 13.1544 8.46628 13.1553 7.99947H13.1561V5.67982Z" fill="currentColor"/>
</svg>
