<svg width="142" height="111" viewBox="0 0 142 111" fill="none" xmlns="http://www.w3.org/2000/svg">
<path fill-rule="evenodd" clip-rule="evenodd" d="M74 6C101.614 6 124 28.3859 124 56C124 83.613 101.614 106 74 106C46.387 106 24 83.613 24 56C24 28.3859 46.387 6 74 6Z" class="illustration-background-fill" />
<path d="M50.0011 84C48.9622 84 48.0509 84.6835 47.7586 85.6774L47.5861 86.2682C46.083 91.3267 45.0585 92.2123 39.6914 93.7551C38.6934 94.0392 38 94.9553 38 96C38 97.0414 38.6896 97.9524 39.6833 98.2426L40.2734 98.4148C45.3263 99.9159 46.2122 100.941 47.7551 106.31C48.0491 107.317 48.9639 107.999 50.0011 107.999C51.04 107.999 51.9598 107.311 52.2463 106.305L52.5026 105.435C53.9575 100.639 55.0434 99.7575 60.3093 98.245C61.3141 97.9537 62 97.0392 62 96C62 94.9575 61.3103 94.0379 60.3011 93.7527L59.4318 93.4965C54.6401 92.0429 53.7587 90.9566 52.2449 85.6893C51.958 84.6889 51.0416 84 50.0011 84Z" />
<path fill-rule="evenodd" clip-rule="evenodd" d="M107 12C107 6.47715 102.523 2 97 2C91.4772 2 87 6.47715 87 12C87 17.5228 91.4772 22 97 22C102.523 22 107 17.5228 107 12ZM91 12C91 8.68629 93.6863 6 97 6C100.314 6 103 8.68629 103 12C103 15.3137 100.314 18 97 18C93.6863 18 91 15.3137 91 12Z" />
<path d="M89.8847 105.939C88.8304 105.939 87.9666 105.124 87.8902 104.089L87.8847 103.939L87.8855 41.8295L72.4137 57.298C71.6737 58.0379 70.4982 58.0768 69.7124 57.4147L69.5852 57.2979C68.8453 56.5579 68.8065 55.3824 69.4685 54.5967L69.5854 54.4695L88.4714 35.5855C89.2113 34.8456 90.3868 34.8067 91.1725 35.4687L91.2997 35.5855L110.184 54.4695C110.965 55.2506 110.965 56.5169 110.184 57.298C109.444 58.0379 108.268 58.0769 107.483 57.4148L107.355 57.298L91.8855 41.8295L91.8847 103.939C91.8847 105.044 90.9893 105.939 89.8847 105.939Z" class="illustration-light-fill" />
<path fill-rule="evenodd" clip-rule="evenodd" d="M29.7397 5.29752C30.5331 4.90083 31.4669 4.90083 32.2603 5.29752L60.4416 19.3884C61.3963 19.8658 61.9994 20.8416 61.9994 21.9091C61.9994 22.9765 61.3963 23.9524 60.4416 24.4298L32.2603 38.5207C31.4669 38.9174 30.5331 38.9174 29.7397 38.5207L1.55844 24.4298C0.603703 23.9524 0.000617308 22.9765 0.000617308 21.9091C0.000617308 20.8416 0.603703 19.8658 1.55844 19.3884L29.7397 5.29752ZM9.12026 21.9091L31 32.8492L52.8797 21.9091L31 10.969L9.12026 21.9091ZM0.298135 34.7397C0.994182 33.3476 2.68695 32.7833 4.07905 33.4793L31 46.9401L57.921 33.4793C59.313 32.7833 61.0058 33.3476 61.7019 34.7397C62.3979 36.1318 61.8337 37.8246 60.4416 38.5207L32.2603 52.6116C31.4669 53.0083 30.5331 53.0083 29.7397 52.6116L1.55844 38.5207C0.166345 37.8246 -0.397912 36.1318 0.298135 34.7397ZM0.298135 48.8306C0.994182 47.4385 2.68695 46.8742 4.07905 47.5703L31 61.031L57.921 47.5703C59.313 46.8742 61.0058 47.4385 61.7019 48.8306C62.3979 50.2227 61.8337 51.9155 60.4416 52.6116L32.2603 66.7025C31.4669 67.0992 30.5331 67.0992 29.7397 66.7025L1.55844 52.6116C0.166345 51.9155 -0.397912 50.2227 0.298135 48.8306Z" />
<path d="M120.885 40C121.939 40 122.803 40.8159 122.879 41.8507L122.885 42L122.884 104.11L138.356 88.6414C139.096 87.9015 140.271 87.8626 141.057 88.5247L141.184 88.6416C141.924 89.3815 141.963 90.557 141.301 91.3428L141.184 91.47L122.298 110.354C121.558 111.094 120.383 111.133 119.597 110.471L119.47 110.354L100.586 91.4699C99.8047 90.6889 99.8047 89.4225 100.586 88.6415C101.326 87.9015 102.501 87.8626 103.287 88.5247L103.414 88.6415L118.884 104.11L118.885 42C118.885 40.8954 119.78 40 120.885 40Z" class="illustration-light-fill" />
</svg>
