<svg width="25" height="26" viewBox="0 0 25 26" fill="none" xmlns="http://www.w3.org/2000/svg">
<path fill-rule="evenodd" clip-rule="evenodd" d="M7.25146 6.06582C6.91994 6.06582 6.602 6.20475 6.36758 6.45205C6.13316 6.69935 6.00146 7.03476 6.00146 7.3845V10.8131H12.5015V7.3845C12.5015 7.03476 12.3698 6.69935 12.1353 6.45205C11.9009 6.20475 11.583 6.06582 11.2515 6.06582H7.25146ZM12.5015 12.3955H6.00146V19.2529H12.5015V12.3955ZM14.0015 19.2529H14.2495C14.6637 19.2529 14.9995 19.6071 14.9995 20.0441C14.9995 20.4811 14.6637 20.8353 14.2495 20.8353H4.24951C3.8353 20.8353 3.49951 20.4811 3.49951 20.0441C3.49951 19.6071 3.8353 19.2529 4.24951 19.2529H4.50146V7.3845C4.50146 6.61508 4.7912 5.87717 5.30692 5.33311C5.82265 4.78905 6.52212 4.4834 7.25146 4.4834H11.2515C11.9808 4.4834 12.6803 4.78905 13.196 5.33311C13.7117 5.87717 14.0015 6.61508 14.0015 7.3845V10.8132H14.2495C14.9789 10.8132 15.6783 11.1188 16.1941 11.6629C16.7098 12.207 16.9995 12.9449 16.9995 13.7143V16.8791C16.9995 17.089 17.0785 17.2902 17.2192 17.4386C17.3598 17.587 17.5506 17.6703 17.7495 17.6703C17.9484 17.6703 18.1392 17.587 18.2798 17.4386C18.4205 17.2902 18.4995 17.089 18.4995 16.8791V10.2859H18.2515C17.7873 10.2859 17.3422 10.0913 17.014 9.74513C16.6858 9.39891 16.5015 8.92933 16.5015 8.4397V7.71442L15.7192 6.88915C15.4263 6.58016 15.4263 6.0792 15.7192 5.77021C16.0121 5.46123 16.4869 5.46123 16.7798 5.77021L17.7496 6.79329C17.7717 6.81396 17.7925 6.83597 17.8121 6.85921L19.7496 8.90318C19.9041 9.04811 20.0015 9.25938 20.0015 9.49464C20.0015 9.514 20.0008 9.53318 19.9995 9.55219V16.8791C19.9995 17.5087 19.7625 18.1124 19.3405 18.5575C18.9185 19.0027 18.3463 19.2528 17.7495 19.2528C17.1528 19.2528 16.5805 19.0027 16.1585 18.5575C15.7366 18.1124 15.4995 17.5087 15.4995 16.8791V13.7143C15.4995 13.3646 15.3678 13.0291 15.1334 12.7818C14.899 12.5345 14.581 12.3956 14.2495 12.3956H14.0015V19.2529Z" fill="currentColor"/>
</svg>
