<svg width="89" height="92" viewBox="0 0 89 92" fill="none" xmlns="http://www.w3.org/2000/svg">
    <path d="M61.1664 7.889L54.5 11L40 23H24L5.5 42L20 44L14 51L17.5 55.5L14.1334 63.6761C6.68541 56.9937 2 47.294 2 36.5C2 16.3416 18.3416 0 38.5 0C47.0646 0 54.9403 2.94986 61.1664 7.889Z"
          fill="#B0FFC9"  class="illustration-secondary-light-fill"/>
    <path d="M57.5102 19.694C57.7446 19.4597 57.7447 19.0798 57.5104 18.8455C57.2762 18.6111 56.8963 18.611 56.6619 18.8453L57.5102 19.694ZM53.273 27.0246C53.273 27.356 53.5417 27.6246 53.873 27.6246C54.2044 27.6246 54.473 27.356 54.473 27.0246H53.273ZM54.473 27.0246C54.473 26.6932 54.2044 26.4246 53.873 26.4246C53.5417 26.4246 53.273 26.6932 53.273 27.0246H54.473ZM56.6619 35.205C56.8963 35.4392 57.2762 35.4391 57.5104 35.2048C57.7447 34.9704 57.7446 34.5905 57.5102 34.3563L56.6619 35.205ZM57.5104 34.3565C57.2762 34.1221 56.8963 34.122 56.6619 34.3563C56.4275 34.5905 56.4274 34.9704 56.6617 35.2048L57.5104 34.3565ZM64.84 38.5876C65.1714 38.5876 65.44 38.319 65.44 37.9876C65.44 37.6562 65.1714 37.3876 64.84 37.3876V38.5876ZM64.84 37.3876C64.5087 37.3876 64.24 37.6562 64.24 37.9876C64.24 38.319 64.5087 38.5876 64.84 38.5876V37.3876ZM73.0203 35.2049C73.2546 34.9706 73.2546 34.5907 73.0203 34.3564C72.786 34.122 72.4061 34.122 72.1718 34.3564L73.0203 35.2049ZM72.1718 34.3564C71.9375 34.5907 71.9375 34.9706 72.1718 35.2049C72.4061 35.4392 72.786 35.4392 73.0203 35.2049L72.1718 34.3564ZM76.409 27.0246C76.409 26.6932 76.1404 26.4246 75.809 26.4246C75.4777 26.4246 75.209 26.6932 75.209 27.0246H76.409ZM75.209 27.0246C75.209 27.356 75.4777 27.6246 75.809 27.6246C76.1404 27.6246 76.409 27.356 76.409 27.0246H75.209ZM73.0203 18.8454C72.786 18.611 72.4061 18.611 72.1718 18.8454C71.9375 19.0797 71.9375 19.4596 72.1718 19.6939L73.0203 18.8454ZM72.1718 19.6939C72.4061 19.9282 72.786 19.9282 73.0203 19.6939C73.2546 19.4596 73.2546 19.0797 73.0203 18.8454L72.1718 19.6939ZM64.84 15.4576C64.5087 15.4576 64.24 15.7262 64.24 16.0576C64.24 16.389 64.5087 16.6576 64.84 16.6576V15.4576ZM64.84 16.6576C65.1714 16.6576 65.44 16.389 65.44 16.0576C65.44 15.7262 65.1714 15.4576 64.84 15.4576V16.6576ZM56.6618 18.8454C56.4275 19.0797 56.4275 19.4596 56.6618 19.6939C56.8961 19.9282 57.276 19.9282 57.5103 19.6939L56.6618 18.8454ZM59.1356 32.7307C59.3698 32.9651 59.7497 32.9653 59.9841 32.7311C60.2185 32.4969 60.2187 32.117 59.9845 31.8826L59.1356 32.7307ZM59.9845 22.1687C60.2187 21.9343 60.2186 21.5544 59.9842 21.3202C59.7498 21.086 59.3699 21.0861 59.1356 21.3205L59.9845 22.1687ZM59.1358 21.3204C58.9015 21.5547 58.9015 21.9346 59.1358 22.1689C59.3701 22.4032 59.75 22.4032 59.9843 22.1689L59.1358 21.3204ZM64.84 20.1606C65.1714 20.1606 65.44 19.892 65.44 19.5606C65.44 19.2292 65.1714 18.9606 64.84 18.9606V20.1606ZM64.84 18.9606C64.5087 18.9606 64.24 19.2292 64.24 19.5606C64.24 19.892 64.5087 20.1606 64.84 20.1606V18.9606ZM69.6968 22.1689C69.9311 22.4032 70.311 22.4032 70.5453 22.1689C70.7796 21.9346 70.7796 21.5547 70.5453 21.3204L69.6968 22.1689ZM70.5454 21.3204C70.3111 21.0861 69.9312 21.086 69.6969 21.3203C69.4625 21.5546 69.4624 21.9345 69.6967 22.1688L70.5454 21.3204ZM69.6966 31.8825C69.4624 32.1169 69.4625 32.4968 69.6969 32.731C69.9313 32.9653 70.3112 32.9651 70.5455 32.7307L69.6966 31.8825ZM70.5453 32.7309C70.7796 32.4966 70.7796 32.1167 70.5453 31.8824C70.311 31.648 69.9311 31.648 69.6968 31.8824L70.5453 32.7309ZM64.841 33.8906C64.5097 33.8906 64.241 34.1592 64.241 34.4906C64.241 34.822 64.5097 35.0906 64.841 35.0906V33.8906ZM64.841 35.0906C65.1724 35.0906 65.441 34.822 65.441 34.4906C65.441 34.1592 65.1724 33.8906 64.841 33.8906V35.0906ZM59.9843 31.8824C59.75 31.648 59.3701 31.648 59.1358 31.8824C58.9015 32.1167 58.9015 32.4966 59.1358 32.7309L59.9843 31.8824ZM55.2206 20.5954C55.0359 20.8705 55.1092 21.2433 55.3843 21.428C55.6594 21.6127 56.0322 21.5394 56.2169 21.2643L55.2206 20.5954ZM54.6693 24.9997C54.7333 24.6746 54.5216 24.3592 54.1964 24.2952C53.8713 24.2312 53.5559 24.4429 53.4919 24.768L54.6693 24.9997ZM53.4918 29.2814C53.5558 29.6066 53.8712 29.8183 54.1963 29.7543C54.5215 29.6904 54.7332 29.3749 54.6692 29.0498L53.4918 29.2814ZM56.2168 32.7858C56.0321 32.5107 55.6593 32.4374 55.3842 32.622C55.1091 32.8067 55.0357 33.1795 55.2204 33.4546L56.2168 32.7858ZM58.4132 36.6442C58.6887 36.8284 59.0613 36.7545 59.2455 36.479C59.4297 36.2036 59.3558 35.8309 59.0803 35.6467L58.4132 36.6442ZM62.8169 37.19C62.4918 37.1258 62.1762 37.3374 62.112 37.6624C62.0479 37.9875 62.2594 38.3031 62.5845 38.3673L62.8169 37.19ZM67.096 38.3673C67.4211 38.3032 67.6327 37.9876 67.5685 37.6625C67.5043 37.3374 67.1888 37.1259 66.8637 37.19L67.096 38.3673ZM70.6013 35.6467C70.3258 35.8309 70.2518 36.2035 70.436 36.479C70.6201 36.7544 70.9928 36.8284 71.2682 36.6443L70.6013 35.6467ZM74.4614 33.4544C74.6461 33.1793 74.5727 32.8065 74.2976 32.6218C74.0224 32.4372 73.6497 32.5105 73.465 32.7856L74.4614 33.4544ZM75.0128 29.0497C74.9488 29.3748 75.1604 29.6903 75.4856 29.7543C75.8107 29.8183 76.1262 29.6066 76.1902 29.2814L75.0128 29.0497ZM76.1901 24.768C76.1261 24.4429 75.8106 24.2312 75.4855 24.2952C75.1603 24.3593 74.9487 24.6747 75.0127 24.9999L76.1901 24.768ZM73.4649 21.2644C73.6496 21.5395 74.0223 21.6129 74.2975 21.4282C74.5726 21.2435 74.6459 20.8707 74.4612 20.5956L73.4649 21.2644ZM71.2698 17.4044C70.9946 17.2198 70.6219 17.2931 70.4372 17.5683C70.2526 17.8434 70.326 18.2162 70.6011 18.4008L71.2698 17.4044ZM66.8651 16.8538C67.1903 16.9177 67.5057 16.706 67.5696 16.3808C67.6336 16.0557 67.4218 15.7403 67.0967 15.6763L66.8651 16.8538ZM62.5838 15.6765C62.2587 15.7405 62.047 16.0559 62.111 16.381C62.175 16.7062 62.4904 16.9179 62.8156 16.8539L62.5838 15.6765ZM59.0806 18.4011C59.3557 18.2164 59.4291 17.8437 59.2444 17.5685C59.0598 17.2934 58.687 17.22 58.4119 17.4047L59.0806 18.4011ZM58.497 29.655C58.3706 29.3486 58.0199 29.2027 57.7135 29.3291C57.4072 29.4554 57.2613 29.8062 57.3876 30.1125L58.497 29.655ZM57.3875 23.9386C57.2611 24.2449 57.407 24.5957 57.7134 24.722C58.0197 24.8484 58.3705 24.7025 58.4968 24.3961L57.3875 23.9386ZM61.0245 21.3141C61.3 21.1299 61.374 20.7573 61.1898 20.4819C61.0056 20.2064 60.6329 20.1324 60.3575 20.3166L61.0245 21.3141ZM63.267 19.1144C62.9419 19.1786 62.7305 19.4942 62.7947 19.8193C62.8589 20.1444 63.1745 20.3559 63.4996 20.2917L63.267 19.1144ZM66.1809 20.2915C66.506 20.3557 66.8216 20.1442 66.8857 19.8191C66.9499 19.494 66.7384 19.1784 66.4133 19.1142L66.1809 20.2915ZM69.3234 20.3164C69.048 20.1322 68.6754 20.2062 68.4912 20.4816C68.3069 20.7571 68.3809 21.1297 68.6564 21.3139L69.3234 20.3164ZM71.1848 24.3961C71.3112 24.7024 71.662 24.8483 71.9683 24.7219C72.2746 24.5955 72.4205 24.2447 72.2941 23.9384L71.1848 24.3961ZM72.2939 30.1127C72.4203 29.8064 72.2745 29.4556 71.9681 29.3292C71.6618 29.2028 71.311 29.3487 71.1847 29.655L72.2939 30.1127ZM68.6565 32.7372C68.3811 32.9214 68.3072 33.294 68.4914 33.5695C68.6756 33.8449 69.0482 33.9189 69.3237 33.7347L68.6565 32.7372ZM66.4141 34.9369C66.7392 34.8727 66.9507 34.5571 66.8865 34.232C66.8223 33.9069 66.5067 33.6954 66.1816 33.7596L66.4141 34.9369ZM63.5003 33.7596C63.1752 33.6954 62.8596 33.9069 62.7954 34.232C62.7312 34.5571 62.9427 34.8727 63.2678 34.9369L63.5003 33.7596ZM60.3577 33.7348C60.6332 33.9189 61.0058 33.845 61.19 33.5695C61.3742 33.294 61.3002 32.9214 61.0247 32.7372L60.3577 33.7348ZM56.6619 18.8453C56.1203 19.3866 55.6387 19.9726 55.2206 20.5954L56.2169 21.2643C56.5914 20.7064 57.0234 20.1805 57.5102 19.694L56.6619 18.8453ZM53.4919 24.768C53.347 25.5039 53.273 26.2589 53.273 27.0246H54.473C54.473 26.3363 54.5395 25.659 54.6693 24.9997L53.4919 24.768ZM53.273 27.0246C53.273 27.7904 53.347 28.5455 53.4918 29.2814L54.6692 29.0498C54.5395 28.3905 54.473 27.7131 54.473 27.0246H53.273ZM55.2204 33.4546C55.6386 34.0775 56.1203 34.6636 56.6619 35.205L57.5102 34.3563C57.0234 33.8696 56.5913 33.3437 56.2168 32.7858L55.2204 33.4546ZM56.6617 35.2048C57.207 35.7503 57.7942 36.2302 58.4132 36.6442L59.0803 35.6467C58.5261 35.2761 57.9998 34.8461 57.5104 34.3565L56.6617 35.2048ZM62.5845 38.3673C63.3286 38.5142 64.0844 38.5876 64.84 38.5876V37.3876C64.1621 37.3876 63.4842 37.3217 62.8169 37.19L62.5845 38.3673ZM64.84 38.5876C65.5959 38.5876 66.3518 38.5142 67.096 38.3673L66.8637 37.19C66.1963 37.3217 65.5182 37.3876 64.84 37.3876V38.5876ZM71.2682 36.6443C71.8874 36.2303 72.4748 35.7504 73.0203 35.2049L72.1718 34.3564C71.6821 34.846 71.1556 35.2761 70.6013 35.6467L71.2682 36.6443ZM73.0203 35.2049C73.5617 34.6635 74.0433 34.0773 74.4614 33.4544L73.465 32.7856C73.0905 33.3436 72.6585 33.8697 72.1718 34.3564L73.0203 35.2049ZM76.1902 29.2814C76.335 28.5455 76.409 27.7905 76.409 27.0246H75.209C75.209 27.713 75.1425 28.3904 75.0128 29.0497L76.1902 29.2814ZM76.409 27.0246C76.409 26.2589 76.335 25.5039 76.1901 24.768L75.0127 24.9999C75.1425 25.6591 75.209 26.3364 75.209 27.0246H76.409ZM74.4612 20.5956C74.0432 19.9728 73.5616 19.3867 73.0203 18.8454L72.1718 19.6939C72.6584 20.1805 73.0904 20.7065 73.4649 21.2644L74.4612 20.5956ZM73.0203 18.8454C72.4789 18.3039 71.8927 17.8224 71.2698 17.4044L70.6011 18.4008C71.1591 18.7753 71.6851 19.2072 72.1718 19.6939L73.0203 18.8454ZM67.0967 15.6763C66.3608 15.5316 65.6058 15.4576 64.84 15.4576V16.6576C65.5284 16.6576 66.2059 16.7241 66.8651 16.8538L67.0967 15.6763ZM64.84 15.4576C64.0745 15.4576 63.3197 15.5316 62.5838 15.6765L62.8156 16.8539C63.4747 16.7241 64.152 16.6576 64.84 16.6576V15.4576ZM58.4119 17.4047C57.7892 17.8226 57.2031 18.3041 56.6618 18.8454L57.5103 19.6939C57.9969 19.2073 58.5228 18.7755 59.0806 18.4011L58.4119 17.4047ZM59.9845 31.8826C59.3266 31.224 58.8311 30.465 58.497 29.655L57.3876 30.1125C57.7808 31.0657 58.3638 31.9581 59.1356 32.7307L59.9845 31.8826ZM58.4968 24.3961C58.8309 23.5861 59.3264 22.8272 59.9845 22.1687L59.1356 21.3205C58.3637 22.0929 57.7806 22.9853 57.3875 23.9386L58.4968 24.3961ZM59.9843 22.1689C60.3088 21.8444 60.6575 21.5596 61.0245 21.3141L60.3575 20.3166C59.9257 20.6054 59.5161 20.94 59.1358 21.3204L59.9843 22.1689ZM63.4996 20.2917C63.9417 20.2043 64.3909 20.1606 64.84 20.1606V18.9606C64.3132 18.9606 63.7861 19.0119 63.267 19.1144L63.4996 20.2917ZM64.84 20.1606C65.2895 20.1606 65.7388 20.2043 66.1809 20.2915L66.4133 19.1142C65.8942 19.0118 65.3671 18.9606 64.84 18.9606V20.1606ZM68.6564 21.3139C69.0234 21.5594 69.3722 21.8443 69.6968 22.1689L70.5453 21.3204C70.1649 20.94 69.7553 20.6053 69.3234 20.3164L68.6564 21.3139ZM69.6967 22.1688C70.3549 22.8272 70.8506 23.5861 71.1848 24.3961L72.2941 23.9384C71.9008 22.9851 71.3175 22.0928 70.5454 21.3204L69.6967 22.1688ZM71.1847 29.655C70.8504 30.465 70.3548 31.2239 69.6966 31.8825L70.5455 32.7307C71.3174 31.9582 71.9006 31.0659 72.2939 30.1127L71.1847 29.655ZM69.6968 31.8824C69.3723 32.2069 69.0235 32.4917 68.6565 32.7372L69.3237 33.7347C69.7554 33.4459 70.165 33.1112 70.5453 32.7309L69.6968 31.8824ZM66.1816 33.7596C65.7395 33.8469 65.2903 33.8906 64.841 33.8906V35.0906C65.368 35.0906 65.8951 35.0394 66.4141 34.9369L66.1816 33.7596ZM64.841 33.8906C64.3918 33.8906 63.9425 33.8469 63.5003 33.7596L63.2678 34.9369C63.7869 35.0394 64.314 35.0906 64.841 35.0906V33.8906ZM61.0247 32.7372C60.6576 32.4917 60.3088 32.2069 59.9843 31.8824L59.1358 32.7309C59.5162 33.1113 59.9258 33.446 60.3577 33.7348L61.0247 32.7372Z"
          fill="#121312" class="illustration-text-primary-fill"/>
    <path fill-rule="evenodd" clip-rule="evenodd"
          d="M69.5433 69.2478L52.4283 86.3618C51.9198 86.8689 51.378 87.091 50.7114 87.091C50.406 87.091 50.1792 87.0122 50.0286 86.9518L49.9429 86.9175L49.8525 86.8994L49.8463 86.8979C49.8388 86.896 49.8235 86.8917 49.7946 86.8823C48.9686 86.6073 48.2664 85.6408 48.2664 84.647V84.6343L47.97 72.9451L42.8373 78.0779C42.2897 78.6254 41.567 78.925 40.7924 78.925C40.0186 78.925 39.295 78.6253 38.7475 78.0779L36.4086 75.7389L27.8658 79.541L27.8643 79.5417C27.7633 79.586 27.6583 79.607 27.5574 79.607C27.3635 79.607 27.1714 79.5307 27.0275 79.3868L12.4785 64.8388L12.4771 64.8375C12.2594 64.6206 12.1971 64.2883 12.3241 64.0034L16.1263 55.4567L13.7885 53.1189C12.662 51.9923 12.6624 50.1559 13.7881 49.0294C14.4513 48.3651 15.1381 47.6781 15.8434 46.9727L15.8447 46.9714L15.8592 46.9569C16.323 46.4931 16.7947 46.0213 17.2728 45.5428L18.9192 43.8951L7.18801 43.599H7.17265C6.23493 43.5997 5.26216 42.905 4.98385 42.0721L4.9816 42.0653L4.97925 42.0586C4.97524 42.0472 4.96877 42.0256 4.95905 41.9833L4.94203 41.9091L4.91399 41.8384C4.84813 41.6723 4.77539 41.4497 4.77539 41.156C4.77539 40.4844 4.99859 39.9432 5.50348 39.4391L22.6199 22.3237C23.2525 21.6903 23.8331 21.595 24.1664 21.595C24.2046 21.595 24.2457 21.5983 24.2865 21.6049L24.349 21.6151L32.7682 21.9113C33.1831 21.9259 33.5065 22.2738 33.492 22.6871C33.4779 23.0917 33.1447 23.411 32.7434 23.411L32.7308 23.411L32.7258 23.4109L32.7243 23.4109L32.7155 23.4106L23.97 23.1033L5.03519 42.0259L20.3816 42.433L20.6856 42.129C27.3111 35.502 34.6997 28.1126 40.456 22.3582C43.3342 19.481 45.8041 17.0126 47.5665 15.2528C48.4477 14.3728 49.1518 13.6702 49.6414 13.1822C49.8863 12.9381 50.0772 12.7482 50.2097 12.6167C50.2791 12.5478 50.3268 12.5007 50.3568 12.471C50.3905 12.4377 50.4023 12.4261 50.3969 12.431L50.4005 12.4277C55.1348 8.09485 63.2249 5.49965 70.7239 4.48722C74.4518 3.98393 77.9708 3.88072 80.7694 4.13066C82.1697 4.25572 83.3654 4.46711 84.3061 4.74926C85.2685 5.03792 85.8663 5.37222 86.1715 5.67726C86.4793 5.98496 86.8154 6.58521 87.1057 7.54876C87.3896 8.4909 87.6025 9.68788 87.7288 11.0893C87.9813 13.8901 87.8798 17.4108 87.3775 21.1401C86.3671 28.6403 83.7716 36.7308 79.4373 41.469C79.4403 41.4656 79.3834 41.5235 79.2346 41.6732C79.0955 41.8131 78.8947 42.0146 78.6374 42.2726C78.123 42.7885 77.3838 43.5288 76.4634 44.4503C74.6226 46.293 72.0573 48.8595 69.1157 51.8018C63.2325 57.6864 55.8443 65.0738 49.7363 71.1808L49.4328 71.4842L49.8217 86.8424L68.7651 67.9046L68.4568 59.1508L68.4567 59.1498C68.4418 58.7377 68.7645 58.3894 69.1806 58.3743L69.1893 58.374C69.5806 58.3564 69.9412 58.6786 69.956 59.098L70.2522 67.5373L70.2621 67.5988C70.2678 67.634 70.2704 67.6679 70.2704 67.701C70.2704 68.0342 70.1745 68.6167 69.5433 69.2478ZM41.7717 77.0218L41.7754 77.0182C54.1903 64.6073 77.8217 40.979 78.3351 40.4514L78.3458 40.4404L78.3561 40.4291C82.861 35.5066 85.0413 27.7613 85.8963 21.086C86.3267 17.7255 86.4286 14.5795 86.3054 12.1088C86.2439 10.8749 86.1254 9.79146 85.9576 8.92465C85.8004 8.11275 85.5714 7.32361 85.1898 6.82626L85.1089 6.72089L85.0034 6.64026C84.6745 6.38903 84.2405 6.22005 83.8141 6.09571C83.3659 5.96502 82.8306 5.85724 82.232 5.77084C81.033 5.59782 79.5114 5.50096 77.7854 5.50096C73.9799 5.50096 69.0883 5.9711 64.3136 7.19779C59.5525 8.42097 54.8156 10.4198 51.4081 13.5394L51.3974 13.5492L51.3869 13.5594C50.8697 14.0614 27.2504 37.6837 14.8482 50.0889L14.846 50.0912C14.3065 50.6342 14.3065 51.5128 14.846 52.0557L37.0849 74.2937C37.0928 74.3022 37.1009 74.3107 37.1093 74.3191L39.8073 77.0171L39.8129 77.0226C40.002 77.2088 40.3317 77.4515 40.7925 77.4515C41.2542 77.4515 41.5835 77.208 41.7717 77.0218ZM13.9033 64.1432L27.7232 77.9619L35.2726 74.603L17.2635 56.5939L13.9033 64.1432Z"
          fill="#121312" class="illustration-text-primary-fill"/>
    <path fill-rule="evenodd" clip-rule="evenodd"
          d="M1.22087 90.4979L1.21932 90.4964C0.926532 90.204 0.927076 89.7294 1.21986 89.4371L14.4359 76.2201C14.7296 75.9263 15.204 75.9271 15.4961 76.2196L15.4971 76.2206C15.7896 76.5127 15.7904 76.9871 15.4966 77.2809L2.27965 90.4969L2.27859 90.4979C2.1331 90.6438 1.9434 90.717 1.74973 90.717C1.55606 90.717 1.36635 90.6438 1.22087 90.4979Z"
          fill="#121312" class="illustration-text-primary-fill"/>
    <path d="M2.07633 78.2857L2.07477 78.2841C1.78199 77.9918 1.78256 77.5171 2.07534 77.2248L8.68309 70.616C8.97657 70.3233 9.45068 70.3233 9.7442 70.616C10.0366 70.9095 10.0362 71.3837 9.74356 71.6771L3.13513 78.2846L3.13404 78.2857C2.98856 78.4316 2.79885 78.5047 2.60518 78.5047C2.41151 78.5047 2.22181 78.4316 2.07633 78.2857Z"
          fill="#121312" class="illustration-text-primary-fill"/>
    <path d="M13.5819 89.7935L13.5803 89.7919C13.2876 89.4996 13.2881 89.025 13.5809 88.7326L20.1887 82.1239C20.4821 81.8311 20.9563 81.8311 21.2498 82.1238C21.5422 82.4173 21.5417 82.8915 21.2491 83.185L14.6407 89.7924L14.6396 89.7935C14.4941 89.9394 14.3044 90.0125 14.1108 90.0125C13.9171 90.0125 13.7274 89.9394 13.5819 89.7935Z"
          fill="#121312" class="illustration-text-primary-fill"/>
</svg>
