<svg xmlns="http://www.w3.org/2000/svg" xmlns:xlink="http://www.w3.org/1999/xlink" width="474" height="234" fill="none" xmlns:v="https://vecta.io/nano"><style><![CDATA[.B{fill:#fff}.C{fill:#2f2e30}.D{color-interpolation-filters:sRGB}.E{flood-opacity:0}.F{stroke:#fff}.G{fill:#3f3f3f}.H{stroke-width:.253}]]></style><g clip-path="url(#W)"><mask id="A" maskUnits="userSpaceOnUse" x="279" y="111" width="117" height="100"><path d="M359.578 113.493l34.287 33.514c2.621 2.564 2.361 6.377-.613 8.495l-75.301 53.647c-3.262 2.326-7.688 1.658-9.844-1.461l-28.078-40.61c-1.758-2.54-.76-6.186 2.199-8.168l68.54-45.92c2.723-1.827 6.656-1.612 8.809.493l.001.01z" class="B F H"/></mask><g mask="url(#A)"><g filter="url(#E)" class="G"><path d="M396.898 149.974l-39.806-38.919c-.774-.756-2.191-.828-3.168-.174l-75.116 50.321c-1.073.721-1.434 2.038-.807 2.941l32.594 47.157c.79 1.143 2.388 1.387 3.575.543l82.522-58.794c1.077-.765 1.162-2.148.206-3.085v.01z"/></g><path d="M370.046 168.107c-6 4.109-13.659 6.874-21.785 8.608-11.404 2.434-22.691 2.839-33.65.569-5.072-1.048-9.794-2.689-13.793-5.505-2.106-1.487-3.931-3.207-5.001-5.459-2.103-4.44-1.003-8.671 2.37-12.699 2.875-3.428 6.564-5.919 10.608-7.96 10.33-5.215 21.361-7.468 32.945-7.948 8.043-.331 15.996.413 23.71 2.938 3.538 1.163 6.818 2.755 9.561 5.126 5.21 4.515 6.024 10.164 2.128 15.69-1.688 2.394-3.922 4.366-7.093 6.621v.019z" fill="url(#J)"/><path d="M317.17 139.883l2.27-1.525 30.691-20.674c2.626-1.79 6.336-1.685 8.511.499l28.742 28.6c2.607 2.587 2.387 5.696-.6 7.878l-4.42 3.142.358-2.321c.481-4.145-1.302-7.597-4.535-10.496-4.457-3.989-10.072-6.095-16.024-7.441-10.999-2.482-21.958-2.254-32.898-.445-3.93.648-7.773 1.602-11.561 2.793-.146.045-.287.075-.433.11l-.106-.125.005.005z" fill="url(#K)"/><path d="M354.681 177.432l-1.062.75-34.588 24.531c-3.431 2.434-7.068 1.944-9.339-1.271l-23.932-33.964c-1.67-2.377-1.234-5.249 1.081-7.102 1.007-.805 2.13-1.485 3.202-2.215l3.17-2.133-.865 2.063c-1.673 4.612-.62 8.583 2.445 12.011 3.919 4.377 9.372 6.806 15.453 8.367 14.168 3.64 28.84 2.9 43.682-1.008.218-.058.42-.219.748-.034l.005.005z" fill="url(#L)"/><path d="M317 199.681l-.493-.684c-.148-.205-.443-.243-.664-.092l-1.057.745c-.216.156-.511.109-.659-.096l-1.944-2.707c-.148-.205-.437-.237-.654-.091l-.725.514c-.217.156-.278.438-.13.643l2.047 2.877a.47.47 0 0 0 .653.091l.587-.415a.45.45 0 0 1 .639.105l.382.534c.147.205.447.248.664.092l1.23-.868c.216-.156.272-.443.124-.648zm-1.814-5.495c.216-.156.511-.109.654.091l1.958 2.683c.147.205.442.242.663.091l.726-.514c.216-.156.272-.443.12-.643l-2.085-2.828c-.142-.2-.437-.237-.654-.092l-.552.392a.47.47 0 0 1-.654-.091l-.376-.51c-.143-.2-.438-.237-.649-.086l-1.216.854c-.216.155-.262.433-.115.628l.488.67c.143.199.437.237.654.091l1.048-.736h-.01zm.331 1.865l.468.649c.157.215.097.517-.134.677l-.696.496c-.231.16-.541.117-.689-.097l-.473-.655c-.152-.21-.092-.512.134-.677l.692-.49c.23-.161.535-.113.688.097h.01zm39.732-71.495l-.504-.503c-.146-.156-.421-.173-.608-.046l-.924.622c-.192.132-.462.11-.613-.041l-1.949-2.007c-.146-.146-.416-.168-.604-.041l-.63.429c-.187.127-.225.356-.079.502l2.055 2.122c.151.151.416.168.608.036l.51-.348a.46.46 0 0 1 .589.055l.388.387c.141.161.416.178.608.046l1.073-.73c.192-.132.22-.351.074-.507l.006.024zm-1.997-4.163c.187-.127.462-.11.603.041l1.959 1.988c.151.151.426.168.613.041l.63-.429c.188-.127.221-.352.07-.503l-2.089-2.088c-.136-.156-.411-.173-.599-.046l-.485.325c-.188.127-.463.11-.604-.041l-.377-.378c-.146-.146-.416-.168-.604-.04l-1.063.72c-.187.127-.216.347-.07.493l.494.493c.141.151.411.173.598.046l.909-.617.015-.005zm.42 1.422l.478.478c.151.161.113.4-.084.537l-.611.409c-.197.137-.486.114-.642-.042l-.478-.478c-.147-.165-.114-.4.088-.531l.611-.41c.197-.136.487-.114.638.037z" class="C"/><path d="M325.151 152.26a.73.73 0 0 1-.001-.916l2.539-3.365 2.123-2.807a1.51 1.51 0 0 1 1.865-.405l.745.402a.51.51 0 0 0 .624-.14l.505-.677c.199-.269.507-.456.858-.535a1.44 1.44 0 0 1 1.007.13l13.422 7.176-.702-2.791c-.105-.429.206-.862.708-.97l1.685-.366c.345-.074.715.029.928.27.085.085.137.194.17.313l1.442 5.544c.077.295.007.607-.191.896l-1.382 1.936c-.198.278-.459.438-.819.516l-6.013 1.282c-.526.114-1.084-.053-1.403-.429-.121-.141-.209-.305-.248-.477l-.166-.7c-.155-.661.332-1.328 1.082-1.484l2.804-.6-13.28-7.196a.52.52 0 0 0-.628.135l-4.557 6.077c-.289.379-.853.501-1.256.269l-1.641-.916a.8.8 0 0 1-.221-.182l.001.01z" class="B"/><path d="M351.095 147.525a.4.4 0 0 1 .088.155l1.433 5.543c.054.207-.004.406-.131.584l-1.383 1.936c-.132.183-.281.282-.52.329l-6.008 1.287c-.371.078-.731-.044-.939-.29-.081-.09-.137-.194-.165-.318l-.166-.699c-.105-.439.221-.886.722-.995l3.906-.834-14.225-7.692a1.01 1.01 0 0 0-1.251.275l-4.557 6.076c-.141.193-.424.253-.628.135l-1.636-.911c-.044-.025-.079-.051-.11-.091-.106-.125-.111-.311-.003-.46l2.544-3.379 2.118-2.803a1.01 1.01 0 0 1 1.247-.27l.745.402a1.01 1.01 0 0 0 1.246-.27l.506-.677a1.01 1.01 0 0 1 1.247-.27l14.366 7.691-.944-3.738c-.054-.217.101-.433.355-.485l1.684-.366a.5.5 0 0 1 .469.136m.736-.505c-.328-.356-.876-.513-1.397-.405l-1.685.366c-.36.079-.663.271-.867.545a1.07 1.07 0 0 0-.19.906l.461 1.844-12.483-6.665c-.397-.217-.874-.274-1.341-.169s-.877.353-1.147.714l-.505.676-.746-.402c-.81-.438-1.925-.199-2.483.54l-2.113 2.798-.01.01-2.534 3.359c-.326.428-.326.981-.002 1.372.091.11.201.201.331.273l1.636.921c.611.345 1.459.162 1.889-.409l4.556-6.087 12.342 6.696-1.705.365c-.998.213-1.645 1.101-1.44 1.974l.166.7a1.5 1.5 0 0 0 .331.645c.43.497 1.17.722 1.872.575l6.018-1.287c.482-.1.848-.334 1.107-.705l1.383-1.936c.273-.384.36-.803.256-1.203l-1.448-5.548c-.043-.168-.131-.332-.257-.468l.005.005z" class="C"/><path d="M319.731 167.344a.74.74 0 0 1-.146-.327l-1.056-5.72c-.052-.3.027-.611.245-.899l1.446-1.92c.204-.274.464-.433.81-.507l6.315-1.362c.345-.074.701.034.903.284a.73.73 0 0 1 .156.318l.305 1.487c.045.217-.008.431-.15.623a.99.99 0 0 1-.592.371l-3.224.686 13.333 7.668c.218.123.511.062.652-.139l4.631-6.423c.283-.394.867-.515 1.305-.278l1.745.973c.089.051.169.112.24.192.243.281.258.668.036.971l-2.557 3.584-2.175 3.051a1.54 1.54 0 0 1-1.977.417l-.797-.462c-.109-.062-.232-.08-.358-.054s-.233.092-.304.192l-.524.736c-.434.605-1.325.791-1.972.411l-13.494-7.867.558 2.904c.086.448-.25.904-.751 1.013l-1.7.361c-.355.073-.711-.044-.909-.299l.006.015z" class="B"/><path d="M346.279 162.64c.116.136.131.332.018.486l-2.567 3.593-2.171 3.037c-.288.408-.882.529-1.32.273l-.796-.463c-.433-.251-1.022-.125-1.315.278l-.528.73c-.293.404-.882.53-1.315.278l-14.395-8.377.742 3.879c.045.227-.125.457-.378.509l-1.7.361c-.18.039-.358-.025-.454-.15a.42.42 0 0 1-.078-.163l-1.061-5.715c-.035-.206.029-.401.166-.588l1.446-1.92a.83.83 0 0 1 .52-.328l6.32-1.358c.181-.039.354.02.455.14.04.04.061.1.073.159l.304 1.487c.045.217-.12.442-.368.499l-4.305.922 14.239 8.202c.432.251 1.022.125 1.31-.274l4.63-6.432c.141-.202.434-.262.652-.139l1.746.973c.044.026.084.056.115.096m.745-.523c-.096-.116-.217-.217-.356-.289l-1.745-.973c-.318-.175-.687-.229-1.057-.151s-.683.28-.886.564l-4.63 6.422-12.432-7.138 2.138-.457c.36-.078.678-.275.886-.554a1.15 1.15 0 0 0 .219-.934l-.304-1.487c-.035-.178-.117-.337-.229-.477-.308-.366-.837-.532-1.358-.423l-6.31 1.357a1.77 1.77 0 0 0-1.103.69l-1.447 1.92c-.288.379-.4.792-.325 1.201l1.051 5.714a1.11 1.11 0 0 0 .224.491c.299.385.838.561 1.364.448l1.699-.36c.365-.074.683-.281.896-.564s.296-.628.229-.954l-.376-1.929 12.589 7.353c.418.246.925.324 1.422.22a2.01 2.01 0 0 0 1.208-.766l.524-.735.801.458c.423.241.929.319 1.431.219s.93-.376 1.203-.77l2.171-3.046.009-.01 2.553-3.589c.321-.452.295-1.04-.064-1.456l.005.005z" class="C"/></g></g><g clip-path="url(#X)"><mask id="B" maskUnits="userSpaceOnUse" x="259" y="78" width="119" height="117"><path d="M329.224 79.493l45.229 25.431c3.458 1.946 4.255 6.004 1.74 9.052l-63.69 77.171c-2.759 3.346-7.572 3.887-10.7 1.23l-40.726-34.587c-2.55-2.163-2.527-6.254.01-9.154l58.787-67.201c2.334-2.672 6.506-3.55 9.347-1.952l.003.01z" class="B F H"/></mask><g mask="url(#B)"><g filter="url(#F)" class="G"><path d="M378.455 107.175l-52.512-29.534c-1.022-.573-2.524-.252-3.361.706l-64.428 73.644c-.92 1.053-.928 2.531-.02 3.3l47.281 40.166c1.146.974 2.885.781 3.89-.434l69.796-84.576c.911-1.1.612-2.57-.649-3.282l.003.01z"/></g><path d="M355.465 133.653c-5.122 5.975-12.353 11.011-20.362 15.1-11.24 5.739-22.925 9.324-35.016 10.02-5.597.325-10.992-.068-15.961-1.892-2.619-.964-5.008-2.25-6.757-4.305-3.442-4.052-3.478-8.783-1.08-13.938 2.046-4.39 5.204-8.027 8.86-11.293 9.337-8.345 20.238-13.79 32.213-17.537 8.314-2.599 16.837-4.049 25.607-3.57 4.025.226 7.9.971 11.431 2.681 6.711 3.26 9.145 8.937 6.62 15.806-1.095 2.975-2.877 5.662-5.561 8.907l.006.021z" fill="url(#M)"/><path d="M292.285 118.959l1.946-2.23 26.292-30.208c2.243-2.607 6.151-3.536 9.036-1.862l38.057 21.846c3.45 1.975 4.091 5.286 1.58 8.403l-3.741 4.523-.276-2.527c-.659-4.467-3.489-7.576-7.68-9.701-5.777-2.922-12.237-3.551-18.836-3.291-12.192.487-23.585 3.794-34.515 8.751-3.926 1.778-7.676 3.851-11.302 6.157-.14.088-.279.159-.422.237l-.146-.101.007.003z" fill="url(#N)"/><path d="M342.015 147.704l-.9 1.082-29.286 35.331c-2.904 3.506-6.844 4.012-10.119 1.287l-34.53-28.801c-2.412-2.016-2.761-5.141-.859-7.726.827-1.124 1.81-2.149 2.726-3.213l2.717-3.117c-.131.936-.262 1.669-.327 2.399-.456 5.29 1.756 9.146 5.921 11.87 5.322 3.478 11.703 4.49 18.496 4.418 15.831-.164 30.962-5.046 45.381-13.289.213-.121.378-.346.773-.244l.007.003z" fill="url(#O)"/><path d="M308.856 181.516l-.708-.577c-.212-.173-.53-.129-.719.091l-.897 1.075c-.182.223-.504.256-.716.084l-2.79-2.286c-.212-.172-.524-.125-.709.088l-.614.741c-.183.223-.167.536.044.708l2.945 2.434c.212.173.531.129.709-.088l.497-.598c.182-.224.486-.242.698-.069l.549.452c.211.172.537.133.719-.091l1.043-1.251c.182-.224.16-.54-.051-.713zm-3.435-5.236c.182-.223.504-.257.709-.088l2.798 2.256c.212.173.531.13.72-.09l.614-.741c.183-.223.16-.539-.055-.706l-2.971-2.372c-.205-.169-.524-.126-.709.088l-.468.564c-.179.217-.497.26-.709.087l-.536-.427c-.205-.169-.524-.125-.702.092l-1.032 1.233c-.183.223-.153.526.055.689l.698.563c.205.169.524.125.709-.088l.889-1.062-.01.002zm.867 1.858l.671.547c.225.181.246.514.05.746l-.59.713c-.196.232-.531.274-.746.091l-.678-.551c-.218-.177-.24-.51-.05-.746l.586-.706c.196-.232.528-.268.746-.092l.011-.002zm21.51-85.867l-.667-.385c-.197-.122-.489-.063-.649.123l-.791.908c-.165.192-.453.244-.653.129l-2.6-1.552c-.194-.112-.482-.059-.642.126l-.539.624c-.16.185-.136.436.058.547l2.743 1.643c.2.115.482.059.646-.133l.435-.507a.5.5 0 0 1 .631-.107l.514.297c.193.128.485.069.649-.123l.917-1.064c.164-.192.132-.429-.065-.551l.013.024zm-3.256-3.792c.161-.186.453-.244.643-.126l2.604 1.529c.2.116.492.057.653-.129l.538-.624c.161-.186.132-.429-.068-.545l-2.769-1.598c-.186-.124-.478-.065-.638.12l-.417.476c-.161.186-.453.244-.642.126l-.501-.289c-.193-.112-.482-.059-.642.126l-.909 1.051c-.161.185-.129.423.065.535l.653.377c.19.118.479.065.639-.12l.777-.9.014-.009zm.839 1.368l.634.366c.203.126.23.386.063.584l-.524.599c-.168.198-.477.256-.684.136l-.634-.366c-.199-.132-.23-.386-.056-.58l.524-.599c.168-.198.477-.256.677-.14z" class="C"/><path d="M304.093 129.662a.79.79 0 0 1-.256-.957l1.711-4.229 1.433-3.529c.286-.695 1.103-1.125 1.836-.946l.892.212a.55.55 0 0 0 .612-.321l.339-.849c.132-.337.402-.619.746-.8s.732-.235 1.09-.146l16.04 3.741-1.516-2.72c-.229-.419-.025-.959.469-1.213l1.659-.854c.34-.174.756-.17 1.045.022.114.066.199.165.266.28l3.061 5.391c.163.288.177.633.051.99l-.903 2.411c-.129.347-.356.587-.711.77l-5.927 3.024c-.518.266-1.148.247-1.586-.056a1.2 1.2 0 0 1-.393-.429l-.37-.685c-.347-.647-.025-1.482.715-1.855l2.764-1.412-15.899-3.803a.56.56 0 0 0-.618.317l-3.062 7.629c-.195.477-.751.762-1.237.633l-1.972-.498c-.102-.024-.192-.068-.282-.128l.003.01z" class="B"/><path d="M329.89 117.445a.45.45 0 0 1 .134.137l3.051 5.393c.115.202.11.426.027.648l-.903 2.411a.83.83 0 0 1-.452.489l-5.92 3.029c-.365.185-.777.158-1.063-.04a.76.76 0 0 1-.261-.286l-.37-.686c-.232-.429-.017-.987.477-1.241l3.848-1.967-17.024-4.056c-.493-.116-1.039.167-1.231.638l-3.061 7.629c-.094.24-.372.383-.619.317l-1.965-.495a.37.37 0 0 1-.141-.064c-.146-.101-.203-.295-.131-.481l1.712-4.244 1.429-3.523c.188-.465.734-.748 1.227-.632l.892.212c.494.116 1.04-.167 1.228-.631l.339-.85c.188-.464.734-.747 1.227-.631l17.172 4.015-2.033-3.643c-.118-.211-.016-.481.234-.606l1.659-.854a.54.54 0 0 1 .528.01m.628-.733c-.443-.281-1.06-.292-1.574-.032l-1.659.854c-.354.183-.617.469-.753.812s-.112.702.054 1l.999 1.799-14.916-3.471a2.08 2.08 0 0 0-1.449.199c-.46.241-.818.615-.999 1.067l-.339.849-.892-.211c-.969-.231-2.068.331-2.444 1.26l-1.426 3.517-.007.013-1.708 4.221c-.222.538-.066 1.117.382 1.434a1.26 1.26 0 0 0 .422.194l1.968.504c.736.189 1.571-.24 1.86-.957l3.059-7.639 14.776 3.542-1.679.86c-.984.502-1.411 1.612-.953 2.466l.37.686a1.64 1.64 0 0 0 .526.582c.589.398 1.426.427 2.118.076l5.931-3.031c.476-.239.792-.587.96-1.046l.903-2.412c.178-.478.151-.94-.069-1.329l-3.068-5.395c-.092-.163-.23-.31-.4-.416l.007.004z" class="C"/><path d="M302.651 146.948a.81.81 0 0 1-.244-.301l-2.706-5.683c-.138-.299-.142-.647.004-1.009l.975-2.412c.136-.343.363-.583.704-.757l6.22-3.192c.34-.174.742-.162 1.024.043.106.078.195.172.252.289l.735 1.469c.107.214.112.453.018.693a1.07 1.07 0 0 1-.516.554l-3.177 1.62 16.085 4.281a.55.55 0 0 0 .643-.328l3.041-8.011c.186-.491.763-.781 1.287-.656l2.097.528a1.02 1.02 0 0 1 .305.134c.332.226.457.626.309 1.005l-1.669 4.463-1.419 3.798c-.285.755-1.157 1.203-1.95.99l-.962-.26c-.132-.034-.265-.019-.39.044s-.218.161-.263.286l-.342.915a1.66 1.66 0 0 1-1.946.983l-16.311-4.444 1.398 2.879c.215.445-.008 1.016-.502 1.27l-1.675.853c-.351.176-.756.153-1.035-.058l.01.014z" class="B"/><path d="M329.087 134.595a.42.42 0 0 1 .155.503l-1.677 4.475-1.419 3.783a1.1 1.1 0 0 1-1.303.654l-.962-.26a1.11 1.11 0 0 0-1.296.659l-.348.911a1.11 1.11 0 0 1-1.297.659l-17.394-4.725 1.862 3.847c.111.225-.003.513-.253.638l-1.675.853c-.178.092-.382.075-.517-.029-.05-.037-.092-.087-.128-.149l-2.709-5.677c-.094-.206-.083-.427.008-.661l.975-2.412c.093-.224.222-.369.451-.489l6.227-3.189c.177-.091.374-.079.514.019.053.03.092.087.12.145l.736 1.47c.107.213-.002.496-.246.625l-4.241 2.169 17.181 4.585c.523.142 1.104-.155 1.293-.652l3.039-8.021c.091-.251.379-.396.643-.328l2.097.528c.054.014.104.035.147.068m.632-.756c-.133-.093-.287-.166-.452-.202l-2.097-.528a1.65 1.65 0 0 0-1.148.138c-.365.185-.635.484-.768.837l-3.041 8.011-14.996-3.98 2.107-1.076c.355-.183.632-.478.771-.827s.13-.718-.032-1.039l-.735-1.469a1.18 1.18 0 0 0-.372-.434c-.425-.296-1.024-.321-1.539-.062l-6.216 3.186c-.466.237-.775.572-.959 1.03l-.975 2.413c-.195.477-.196.94-.003 1.346l2.699 5.679c.085.176.209.331.371.45.421.319 1.033.353 1.551.087l1.676-.853a1.61 1.61 0 0 0 .778-.84c.143-.355.134-.74-.027-1.061l-.933-1.912 15.22 4.161c.506.14 1.057.079 1.547-.169s.86-.658 1.049-1.139l.341-.915.966.254a2.24 2.24 0 0 0 1.557-.171c.497-.244.867-.654 1.042-1.142l1.416-3.793.007-.012 1.663-4.467c.209-.562.017-1.17-.475-1.505l.007.004z" class="C"/></g></g><g filter="url(#G)"><ellipse cx="275.5" cy="240.866" rx="167.5" ry="101.5" fill="url(#P)"/></g><g clip-path="url(#Y)"><mask id="C" maskUnits="userSpaceOnUse" x="220" y="49" width="131" height="147"><path d="M281.884 49.384l62.674 16.031c4.792 1.227 7.062 5.858 5.016 10.34L297.777 189.24c-2.243 4.919-7.865 7.123-12.488 4.933l-60.206-28.509c-3.768-1.782-5.061-6.716-2.941-11.028l49.11-99.896c1.949-3.971 6.689-6.374 10.626-5.367l.006.011z" class="B F H"/></mask><g mask="url(#C)"><g filter="url(#H)" class="G"><path d="M350.105 66.835l-72.768-18.622c-1.415-.36-3.12.511-3.82 1.934l-53.824 109.475c-.768 1.566-.301 3.349 1.041 3.981l69.899 33.114c1.695.802 3.727.009 4.544-1.778l56.762-124.372c.742-1.619-.092-3.293-1.841-3.743l.007.011z"/></g><path d="M330.962 106.139c-4.24 8.848-11.323 17.246-19.649 24.755-11.683 10.538-24.599 18.625-38.935 23.366-6.634 2.197-13.258 3.465-19.831 2.872-3.465-.317-6.757-1.095-9.526-3.005-5.454-3.769-7.023-9.455-5.798-16.437 1.046-5.946 3.676-11.345 7.025-16.458 8.551-13.062 19.922-23.137 33.133-31.513 9.175-5.812 18.971-10.309 29.687-12.562 4.919-1.027 9.826-1.38 14.63-.46 9.134 1.76 13.896 7.812 13.073 16.898-.359 3.936-1.638 7.746-3.823 12.521l.014.023z" fill="url(#Q)"/><path d="M250.137 108.831l1.623-3.314 21.915-44.862c1.86-3.863 6.267-6.243 10.281-5.158l52.88 14.028c4.792 1.265 6.632 5.046 4.614 9.61l-3.046 6.654c-.432-1.133-.761-2.059-1.147-2.954-2.235-5.167-6.647-7.998-12.38-9.204-7.899-1.655-15.881-.328-23.745 2.115-14.525 4.52-27.177 12.179-38.74 21.675-4.155 3.409-8.002 7.116-11.625 11.062-.14.151-.284.282-.431.422l-.209-.075.01.002z" fill="url(#R)"/><path d="M319.3 127.401l-.735 1.593-23.867 51.998c-2.366 5.159-6.947 7.04-11.77 4.815l-50.877-23.542c-3.555-1.65-4.983-5.301-3.528-9.027.633-1.621 1.487-3.172 2.247-4.749l2.265-4.63c.144 1.169.224 2.094.381 2.994 1.157 6.517 5.066 10.447 10.961 12.384 7.531 2.471 15.542 1.631 23.7-.648 19.011-5.305 35.657-16.067 50.362-30.646.216-.215.343-.539.851-.544l.01.002z" fill="url(#S)"/><path d="M290.279 178.818l-1.038-.466c-.311-.14-.681.015-.838.341l-.732 1.584c-.148.327-.524.471-.835.332l-4.098-1.852c-.31-.14-.671.018-.825.335l-.501 1.09c-.148.328-.028.699.282.839l4.332 1.98c.311.14.68-.016.826-.335l.404-.88c.148-.328.508-.448.819-.308l.806.366c.311.14.69-.013.838-.341l.852-1.844c.147-.327.019-.701-.292-.841zm-5.826-5.197c.147-.328.524-.472.825-.334l4.098 1.814c.311.139.681-.016.837-.341l.501-1.091c.148-.327.019-.701-.294-.832l-4.343-1.899c-.302-.137-.671.018-.826.335l-.381.83c-.145.319-.515.475-.826.335l-.783-.342c-.302-.137-.671.018-.816.337l-.845 1.818c-.148.328-.015.684.289.812l1.022.453c.301.137.671-.018.826-.335l.728-1.566-.012.006zm1.642 1.957l.985.443c.329.145.462.538.301.881l-.48 1.049c-.162.343-.552.502-.87.351l-.994-.445c-.32-.143-.453-.536-.301-.882l.478-1.04c.161-.343.549-.493.869-.351l.012-.006zM284.29 65.232l-.927-.249c-.276-.083-.609.082-.742.357l-.66 1.349a.67.67 0 0 1-.745.366l-3.631-1.03c-.27-.072-.6.084-.733.36l-.447.926c-.133.275-.023.568.246.641l3.834 1.093c.278.075.599-.084.735-.368l.36-.751c.136-.284.459-.414.726-.333l.714.191c.274.092.606-.073.742-.357l.76-1.576c.136-.284.021-.56-.255-.643l.023.025zm-5.142-3.516c.133-.275.466-.44.732-.359l3.63 1.001c.278.075.611-.091.744-.366l.447-.926c.134-.275.021-.56-.257-.634l-3.85-1.032c-.265-.09-.597.075-.731.351l-.348.707c-.134.275-.466.44-.733.359l-.696-.186c-.269-.072-.599.084-.733.359l-.755 1.559c-.134.275-.019.551.25.623l.909.244c.267.081.597-.076.731-.351l.646-1.334.014-.015zm1.449 1.378l.882.236c.285.086.402.39.264.683l-.437.891a.71.71 0 0 1-.78.385l-.881-.236c-.283-.095-.402-.39-.255-.681l.438-.891c.138-.293.491-.462.769-.387z" class="C"/><path d="M267.809 117.909c-.424-.161-.678-.587-.618-1.07l.697-5.644.587-4.713c.119-.928.965-1.71 1.905-1.731l1.143-.033a.68.68 0 0 0 .633-.584l.135-1.132c.05-.448.284-.875.64-1.203s.806-.519 1.265-.528l20.524-.67-2.703-2.788c-.412-.43-.339-1.146.173-1.611l1.722-1.564c.354-.32.856-.449 1.266-.311.158.042.292.135.41.251l5.426 5.505c.289.294.418.705.381 1.176l-.309 3.195c-.044.459-.24.821-.608 1.156l-6.162 5.555c-.538.487-1.303.668-1.929.444-.236-.082-.449-.215-.611-.39l-.666-.706c-.627-.667-.509-1.775.262-2.464l2.873-2.593-20.373.551a.7.7 0 0 0-.643.581l-1.225 10.175c-.081.638-.659 1.161-1.286 1.163l-2.535.036c-.13.003-.253-.02-.381-.064l.007.011z" class="B"/><path d="M294.932 94.874c.075.02.142.066.207.121l5.414 5.511c.203.205.27.477.241.771l-.31 3.195a1.04 1.04 0 0 1-.385.735l-6.153 5.557c-.38.341-.884.442-1.292.295a.95.95 0 0 1-.408-.26l-.666-.706c-.418-.442-.339-1.184.174-1.649l4-3.61-21.81.608a1.37 1.37 0 0 0-1.277 1.165l-1.225 10.175a.67.67 0 0 1-.643.582l-2.526.039c-.07 0-.128-.006-.19-.033-.209-.074-.34-.289-.314-.536l.692-5.664.585-4.704a1.36 1.36 0 0 1 1.274-1.156l1.142-.033c.632-.019 1.198-.537 1.275-1.157l.134-1.132c.077-.62.643-1.137 1.274-1.156l21.976-.705-3.624-3.731c-.211-.217-.175-.574.086-.806l1.722-1.564c.184-.167.437-.222.639-.158m.52-1.085c-.624-.195-1.37-.009-1.906.469l-1.722 1.564c-.368.335-.592.764-.645 1.221s.092.882.388 1.187l1.783 1.843-19.082.633c-.611.015-1.206.27-1.682.708s-.786 1.005-.858 1.607l-.134 1.132-1.142.033a2.72 2.72 0 0 0-2.537 2.306l-.582 4.696-.005.017-.695 5.636c-.093.719.281 1.365.923 1.603a1.56 1.56 0 0 0 .571.097l2.533-.028a2.04 2.04 0 0 0 1.931-1.753l1.218-10.186 18.938-.502-1.745 1.577c-1.023.922-1.179 2.396-.352 3.278l.666.706c.225.239.496.415.823.531.837.29 1.854.054 2.574-.591l6.165-5.564c.496-.442.765-.963.818-1.571l.309-3.195c.061-.634-.121-1.181-.511-1.578l-5.436-5.507a1.48 1.48 0 0 0-.616-.372l.01.002z" class="C"/><path d="M271.652 139.191c-.153-.059-.285-.161-.391-.283l-5.092-5.971c-.263-.316-.38-.733-.32-1.216l.395-3.22c.053-.456.249-.818.603-1.138l6.46-5.852c.354-.319.842-.433 1.248-.278.153.06.29.144.396.267l1.359 1.532c.199.223.282.509.246.829-.034.311-.193.607-.442.833l-3.304 2.976 20.752-.034c.339-.004.639-.272.668-.603l1.078-10.629c.066-.651.667-1.187 1.338-1.205l2.695-.041c.14 0 .274.017.411.063a1.03 1.03 0 0 1 .697 1.11l-.57 5.913-.484 5.033c-.099 1-1.005 1.822-2.029 1.821l-1.242-.003c-.169.001-.325.063-.456.179s-.21.264-.224.429l-.116 1.213a2.07 2.07 0 0 1-2.027 1.812l-21.076-.09 2.612 3.017c.402.466.318 1.225-.194 1.691l-1.743 1.567c-.366.326-.86.429-1.264.265l.016.013z" class="B"/><path d="M299.502 115.785a.52.52 0 0 1 .348.555l-.575 5.931-.488 5.012c-.06.672-.673 1.214-1.358 1.21l-1.242-.003c-.676-.002-1.279.542-1.349 1.211l-.125 1.21c-.07.669-.673 1.214-1.349 1.212l-22.471-.078 3.483 4.033c.206.234.163.618-.098.85l-1.743 1.567c-.184.168-.435.213-.632.132a.58.58 0 0 1-.201-.138l-5.095-5.962c-.18-.218-.237-.488-.203-.799l.395-3.219c.04-.3.148-.516.386-.735l6.469-5.85c.184-.167.426-.215.625-.143.074.02.139.075.192.136l1.36 1.533c.199.222.158.598-.094.832l-4.408 3.981 22.17-.023a1.38 1.38 0 0 0 1.347-1.202l1.071-10.64c.029-.332.33-.6.668-.603l2.696-.041c.07 0 .137.009.2.035m.517-1.114a1.58 1.58 0 0 0-.61-.098l-2.696.041a2.05 2.05 0 0 0-1.337.536c-.38.341-.609.789-.655 1.257l-1.078 10.628-19.342.046 2.19-1.976c.368-.334.607-.779.662-1.245s-.076-.906-.374-1.24l-1.359-1.532c-.16-.184-.364-.314-.589-.403-.607-.219-1.337-.056-1.873.422l-6.457 5.843c-.485.435-.749.939-.823 1.55l-.396 3.219c-.081.638.068 1.196.431 1.623l5.082 5.968c.16.184.359.332.593.423.61.248 1.358.09 1.896-.397l1.743-1.567c.377-.333.609-.789.666-1.263s-.077-.935-.376-1.269l-1.74-2.002 19.671.1c.655.006 1.299-.246 1.809-.702s.824-1.07.896-1.71l.116-1.213 1.244-.005c.657-.003 1.301-.254 1.821-.709s.833-1.067.886-1.712l.481-5.024.005-.017.561-5.916c.07-.744-.357-1.415-1.057-1.659l.009.003z" class="C"/></g></g><mask id="D" maskUnits="userSpaceOnUse" x="178" y="33" width="126" height="171"><path d="M215.641 34.065l78.887-.899c6.033-.067 10.167 4.671 9.172 10.597l-25.195 150.03c-1.089 6.502-7.016 10.874-13.154 9.753l-79.918-14.58c-5.001-.91-8.082-6.314-6.945-12.061L204.807 43.73c1.042-5.293 5.868-9.62 10.823-9.676l.011.011z" stroke-width=".3" class="B F"/></mask><g mask="url(#D)"><g filter="url(#I)" class="G"><path d="M301.509 33.089l-91.596 1.032c-1.781.022-3.514 1.587-3.889 3.484l-28.849 145.946c-.41 2.086.703 4.039 2.483 4.361l92.791 16.943c2.249.411 4.392-1.165 4.79-3.528l27.608-164.421c.363-2.142-1.148-3.85-3.35-3.828l.012.011z"/></g><path d="M291.366 85.428c-2.202 11.762-7.894 23.89-15.332 35.364-10.437 16.1-23.098 29.704-38.489 39.812-7.122 4.683-14.524 8.267-22.454 9.643-4.182.721-8.305.843-12.17-.533-7.613-2.718-11.256-8.921-12.018-17.532-.644-7.334.75-14.524 3.081-21.604 5.95-18.086 16.164-33.543 29.083-47.58 8.973-9.742 19.093-18.131 31.005-24.167 5.47-2.763 11.139-4.727 17.089-5.16 11.315-.81 18.835 4.816 20.732 15.779.82 4.749.516 9.642-.55 15.956l.023.022z" fill="url(#T)"/><path d="M197.006 114.112l.867-4.417 11.654-59.763c.972-5.137 5.412-9.332 10.483-9.321l66.718-.167c6.044-.022 9.405 3.85 8.468 9.864l-1.487 8.799c-.867-1.198-1.546-2.186-2.284-3.118-4.264-5.382-10.355-7.323-17.488-6.935-9.827.544-18.811 4.627-27.303 9.986-15.684 9.909-28.17 22.924-38.794 37.76-3.818 5.326-7.18 10.907-10.202 16.699-.117.222-.246.422-.374.633l-.27-.022h.012z" fill="url(#U)"/><path d="M284.337 114.156l-.363 2.109-11.701 68.784c-1.16 6.824-5.962 10.486-12.346 9.387l-67.361-11.673c-4.709-.821-7.543-4.671-7.005-9.52.235-2.108.75-4.206 1.148-6.303l1.207-6.169c.539 1.331.925 2.397 1.394 3.406 3.42 7.313 9.265 10.708 16.82 11.13 9.651.532 18.822-2.985 27.713-8.245 20.72-12.25 36.931-30.181 49.651-51.996.187-.322.234-.743.832-.91h.011z" fill="url(#V)"/><path d="M266.382 183.884l-1.371-.222c-.41-.066-.796.233-.878.666l-.363 2.097c-.071.433-.469.721-.879.655l-5.411-.888c-.41-.067-.785.233-.867.655l-.246 1.442c-.07.433.187.832.597.899l5.728.965c.41.067.797-.233.867-.654l.199-1.165a.74.74 0 0 1 .867-.622l1.066.178c.41.066.808-.233.878-.666l.422-2.441c.07-.433-.199-.832-.609-.899zm-8.505-4.283c.07-.433.468-.721.867-.655l5.399.844c.41.066.797-.233.879-.666l.246-1.443c.07-.432-.199-.832-.609-.887l-5.716-.866c-.399-.066-.785.233-.867.655l-.187 1.098c-.071.422-.457.722-.867.655l-1.031-.155c-.398-.067-.785.233-.855.654l-.422 2.408c-.07.433.199.81.598.866l1.347.211c.398.066.784-.233.866-.655l.364-2.075-.012.011zm2.553 1.786l1.3.211c.434.067.715.488.633.943l-.234 1.387c-.082.455-.492.766-.914.688l-1.312-.211c-.422-.066-.703-.488-.632-.943l.234-1.376c.082-.455.492-.754.913-.688l.012-.011zM223.476 51.974h-1.172c-.351-.011-.691.288-.761.655l-.351 1.798c-.071.377-.41.666-.762.666l-4.603-.066c-.34 0-.679.288-.75.655l-.234 1.232c-.07.366.152.677.492.677l4.861.078c.351 0 .679-.288.75-.666l.187-.999a.76.76 0 0 1 .75-.621h.901c.352.022.692-.277.762-.655l.398-2.097c.07-.377-.152-.666-.504-.677l.036.022zm-7.167-2.519c.07-.366.409-.666.749-.655l4.592.033c.351 0 .691-.3.761-.666l.234-1.232c.071-.366-.152-.666-.503-.666h-4.861c-.34-.022-.68.277-.75.644l-.187.943c-.071.366-.41.666-.75.655h-.878c-.34 0-.68.289-.75.655l-.398 2.075c-.071.366.152.655.492.655h1.147c.34.011.68-.277.75-.644l.34-1.775.012-.022zm2.142 1.165h1.113c.363.011.598.333.527.721l-.234 1.187c-.07.388-.433.699-.796.699h-1.113c-.363-.022-.598-.333-.516-.721l.235-1.187c.07-.388.433-.699.784-.699z" class="C"/><path d="M220.688 119.227c-.55-.055-.984-.477-1.066-1.065l-.96-6.868-.797-5.737c-.152-1.132.598-2.319 1.699-2.641l1.335-.399c.363-.111.621-.511.562-.888l-.199-1.376c-.082-.544.059-1.121.375-1.62s.785-.865 1.323-1.021l23.965-7.268-4.064-2.43c-.621-.377-.761-1.243-.305-1.953l1.535-2.386c.316-.488.867-.799 1.394-.766.199 0 .386.066.562.166l8.129 4.771c.433.255.714.699.82 1.265l.644 3.862c.094.555-.024 1.043-.352 1.553l-5.505 8.488c-.48.744-1.323 1.198-2.131 1.132-.305-.022-.598-.111-.844-.266l-1.007-.622c-.949-.588-1.16-1.93-.469-2.985l2.566-3.961-23.825 7.079c-.363.111-.621.511-.574.888l1.769 12.372c.105.777-.41 1.576-1.148 1.776l-2.975.843c-.152.044-.305.055-.469.044l.012.011z" class="B"/><path d="M245.367 83.531c.094 0 .188.033.282.078l8.117 4.782c.304.178.468.477.527.832l.644 3.861c.059.366 0 .655-.223.987l-5.493 8.489c-.34.521-.902.799-1.429.754-.199-.011-.387-.066-.562-.177l-1.008-.622c-.632-.388-.773-1.287-.316-1.997l3.573-5.515-25.5 7.601c-.738.222-1.241 1.01-1.136 1.775l1.769 12.373c.058.388-.199.787-.574.887l-2.963.844a.57.57 0 0 1-.235.022c-.269-.022-.492-.233-.538-.533l-.973-6.891-.796-5.725a1.66 1.66 0 0 1 1.136-1.764l1.335-.4a1.66 1.66 0 0 0 1.136-1.764l-.199-1.376c-.105-.754.399-1.542 1.137-1.764l25.663-7.767-5.447-3.251c-.316-.189-.386-.621-.152-.976l1.534-2.386c.164-.255.445-.399.703-.388m.27-1.443c-.797-.033-1.617.422-2.097 1.154l-1.535 2.386a2.39 2.39 0 0 0-.374 1.642 1.76 1.76 0 0 0 .831 1.276l2.683 1.609-22.279 6.769c-.714.211-1.335.699-1.757 1.365s-.609 1.431-.503 2.163l.199 1.376-1.335.4c-1.453.432-2.472 2.008-2.261 3.517l.796 5.715v.022c.036.188.176 1.243.961 6.857.117.877.761 1.52 1.593 1.598.234.022.468 0 .703-.067l2.975-.832c1.113-.31 1.886-1.509 1.722-2.674l-1.781-12.383 22.15-6.569-1.558 2.408c-.914 1.409-.633 3.196.621 3.972l1.007.622c.34.21.714.333 1.136.366 1.078.078 2.202-.522 2.846-1.509l5.505-8.5c.446-.677.598-1.376.469-2.108l-.644-3.861c-.129-.766-.516-1.354-1.101-1.698l-8.141-4.771a1.81 1.81 0 0 0-.843-.244h.012z" class="C"/><path d="M231.933 143.084c-.199-.023-.387-.1-.551-.211l-7.883-5.426c-.41-.289-.679-.744-.761-1.332l-.551-3.917c-.082-.554.036-1.043.352-1.531l5.763-8.932c.316-.488.855-.777 1.382-.721.199.022.386.077.55.188l2.085 1.376a1.26 1.26 0 0 1 .551.899 1.62 1.62 0 0 1-.258 1.121l-2.952 4.549 24.434-6.591c.398-.111.667-.522.597-.921l-2.085-12.86c-.129-.788.41-1.609 1.195-1.842l3.162-.899a1.54 1.54 0 0 1 .504-.056c.609.045 1.078.478 1.171 1.088l1.195 7.146 1.019 6.08a2.53 2.53 0 0 1-1.815 2.785l-1.465.389c-.199.055-.363.177-.48.355s-.164.377-.129.577l.246 1.465c.2 1.209-.62 2.463-1.815 2.774l-24.855 6.546 4.029 2.73c.621.422.761 1.342.305 2.053l-1.558 2.396c-.328.5-.879.777-1.406.711l.024.011z" class="B"/><path d="M257.351 106.722c.292.022.538.233.585.544l1.195 7.168 1.007 6.058c.141.81-.41 1.642-1.218 1.853l-1.464.388a1.69 1.69 0 0 0-1.206 1.854l.234 1.464c.129.81-.41 1.642-1.207 1.853l-26.495 7.002 5.377 3.65c.316.211.386.677.152 1.032l-1.558 2.397c-.164.255-.445.388-.703.355a.71.71 0 0 1-.281-.1l-7.883-5.415c-.281-.199-.433-.499-.492-.876l-.55-3.917c-.047-.366.012-.655.223-.988l5.774-8.932c.164-.255.433-.388.691-.366.094 0 .188.044.27.1l2.084 1.376c.305.199.375.654.153 1.009l-3.936 6.081 26.108-7.024c.797-.211 1.336-1.043 1.207-1.842l-2.097-12.871c-.07-.4.199-.81.598-.921l3.162-.899c.082-.022.164-.033.246-.022m.258-1.476c-.246-.022-.504 0-.75.078l-3.162.899a2.5 2.5 0 0 0-1.406 1.054 2.38 2.38 0 0 0-.375 1.686l2.085 12.861-22.77 6.158 1.956-3.018c.328-.511.469-1.11.387-1.676s-.375-1.043-.832-1.342l-2.085-1.376c-.246-.167-.527-.255-.82-.289-.785-.066-1.593.355-2.073 1.088l-5.763 8.921c-.433.666-.585 1.343-.48 2.086l.55 3.917c.106.777.457 1.387 1.02 1.775l7.871 5.426c.246.167.527.278.831.311.797.1 1.628-.322 2.109-1.065l1.557-2.397a2.45 2.45 0 0 0 .387-1.698c-.082-.577-.387-1.076-.843-1.376l-2.683-1.808 23.204-6.092c.773-.2 1.452-.699 1.909-1.398s.633-1.52.516-2.297l-.246-1.465 1.464-.399c.773-.211 1.452-.71 1.921-1.409s.644-1.52.503-2.297l-1.019-6.07v-.022l-1.206-7.146a1.92 1.92 0 0 0-1.769-1.62h.012z" class="C"/></g><defs><filter id="E" x="277.693" y="110.436" width="119.867" height="106.12" filterUnits="userSpaceOnUse" class="D"><feFlood result="A" class="E"/><feColorMatrix in="SourceAlpha" values="0 0 0 0 0 0 0 0 0 0 0 0 0 0 0 0 0 0 127 0" result="B"/><feOffset dy="4.20955"/><feComposite in2="B" operator="out"/><feColorMatrix values="0 0 0 0 0.745098 0 0 0 0 0.745098 0 0 0 0 0.74902 0 0 0 1 0"/><feBlend in2="A"/><feBlend in="SourceGraphic"/></filter><filter id="F" x="257.459" y="77.357" width="122.17" height="122.93" filterUnits="userSpaceOnUse" class="D"><feFlood result="A" class="E"/><feColorMatrix in="SourceAlpha" values="0 0 0 0 0 0 0 0 0 0 0 0 0 0 0 0 0 0 127 0" result="B"/><feOffset dy="4.20955"/><feComposite in2="B" operator="out"/><feColorMatrix values="0 0 0 0 0.745098 0 0 0 0 0.745098 0 0 0 0 0.74902 0 0 0 1 0"/><feBlend in2="A"/><feBlend in="SourceGraphic"/></filter><filter id="G" x=".387" y="31.753" width="550.226" height="418.226" filterUnits="userSpaceOnUse" class="D"><feFlood class="E"/><feBlend in="SourceGraphic"/><feGaussianBlur stdDeviation="53.807"/></filter><filter id="H" x="219.322" y="48.131" width="132.889" height="153.108" filterUnits="userSpaceOnUse" class="D"><feFlood result="A" class="E"/><feColorMatrix in="SourceAlpha" values="0 0 0 0 0 0 0 0 0 0 0 0 0 0 0 0 0 0 127 0" result="B"/><feOffset dy="4.20955"/><feComposite in2="B" operator="out"/><feColorMatrix values="0 0 0 0 0.745098 0 0 0 0 0.745098 0 0 0 0 0.74902 0 0 0 1 0"/><feBlend in2="A"/><feBlend in="SourceGraphic"/></filter><filter id="I" x="177.09" y="33.077" width="127.811" height="176.843" filterUnits="userSpaceOnUse" class="D"><feFlood result="A" class="E"/><feColorMatrix in="SourceAlpha" values="0 0 0 0 0 0 0 0 0 0 0 0 0 0 0 0 0 0 127 0" result="B"/><feOffset dy="5"/><feComposite in2="B" operator="out"/><feColorMatrix values="0 0 0 0 0.745098 0 0 0 0 0.745098 0 0 0 0 0.74902 0 0 0 1 0"/><feBlend in2="A"/><feBlend in="SourceGraphic"/></filter><linearGradient id="J" x1="385.334" y1="144.019" x2="289.802" y2="165.578" xlink:href="#Z"><stop stop-color="#d8d8d8"/><stop offset="1" stop-color="#c7c2c6"/></linearGradient><linearGradient id="K" x1="369.956" y1="129.355" x2="338.289" y2="161.022" xlink:href="#Z"><stop stop-color="#12ff80"/><stop offset="1" stop-color="#4bbd6f"/></linearGradient><linearGradient id="L" x1="333.443" y1="156.194" x2="298.861" y2="190.777" xlink:href="#Z"><stop stop-color="#12ff80"/><stop offset="1" stop-color="#4bbd6f"/></linearGradient><linearGradient id="M" x1="364.699" y1="104.19" x2="270.873" y2="153.485" xlink:href="#Z"><stop stop-color="#d8d8d8"/><stop offset="1" stop-color="#c7c2c6"/></linearGradient><linearGradient id="N" x1="344.516" y1="93.168" x2="320.283" y2="135.141" xlink:href="#Z"><stop stop-color="#12ff80"/><stop offset="1" stop-color="#4bbd6f"/></linearGradient><linearGradient id="O" x1="313.865" y1="131.452" x2="287.401" y2="177.289" xlink:href="#Z"><stop stop-color="#12ff80"/><stop offset="1" stop-color="#4bbd6f"/></linearGradient><linearGradient id="P" x1="270" y1="139.366" x2="271" y2="328.866" xlink:href="#Z"><stop offset=".01" stop-color="#fff"/><stop offset=".351" stop-color="#b0ffc9"/><stop offset=".699" stop-color="#5fddff"/></linearGradient><linearGradient id="Q" x1="332.575" y1="67.679" x2="235.491" y2="157.318" xlink:href="#Z"><stop stop-color="#d8d8d8"/><stop offset="1" stop-color="#c7c2c6"/></linearGradient><linearGradient id="R" x1="304.714" y1="60.918" x2="289.075" y2="119.284" xlink:href="#Z"><stop stop-color="#12ff80"/><stop offset="1" stop-color="#4bbd6f"/></linearGradient><linearGradient id="S" x1="280.156" y1="116.912" x2="263.077" y2="180.651" xlink:href="#Z"><stop stop-color="#12ff80"/><stop offset="1" stop-color="#4bbd6f"/></linearGradient><linearGradient id="T" x1="281.127" y1="39.615" x2="195.059" y2="175.85" xlink:href="#Z"><stop stop-color="#d8d8d8"/><stop offset="1" stop-color="#c7c2c6"/></linearGradient><linearGradient id="U" x1="246.173" y1="40.445" x2="246.173" y2="114.134" xlink:href="#Z"><stop stop-color="#12ff80"/><stop offset="1" stop-color="#4bbd6f"/></linearGradient><linearGradient id="V" x1="234.917" y1="114.156" x2="234.917" y2="194.629" xlink:href="#Z"><stop stop-color="#12ff80"/><stop offset="1" stop-color="#4bbd6f"/></linearGradient><clipPath id="W"><path transform="matrix(.707107 .707107 -.707107 .707107 343.43 96.4292)" d="M0 0h77.791v104.532H0z" class="B"/></clipPath><clipPath id="X"><path transform="matrix(.866025 .5 -.5 .866025 307.564 66.1787)" d="M0 0h84.188v113.127H0z" class="B"/></clipPath><clipPath id="Y"><path transform="matrix(.965926 .258819 -.258819 .965926 251.504 40.3398)" d="M0 0h104.96v141.04H0z" class="B"/></clipPath><linearGradient id="Z" gradientUnits="userSpaceOnUse"/></defs></svg>