<svg width="60" height="60" viewBox="0 0 60 60" fill="none" xmlns="http://www.w3.org/2000/svg">
<path fill-rule="evenodd" clip-rule="evenodd" d="M60 30C60 46.5686 46.5686 60 30 60C13.4317 60 0 46.5686 0 30C0 13.4317 13.4317 0 30 0C46.5686 0 60 13.4317 60 30Z" fill="#FFF1EE"/>
<path d="M32.4589 29.3916H27.5406C27.2718 29.3916 27.0518 29.6116 27.0518 29.8805V34.0654C27.0518 34.3343 27.2718 34.5543 27.5406 34.5543H27.8755C28.1444 34.5543 28.3644 34.7743 28.3644 35.0432V39.3625C28.3644 39.6314 28.5844 39.8514 28.8533 39.8514H31.1462C31.4151 39.8514 31.6351 39.6314 31.6351 39.3625V35.0432C31.6351 34.7743 31.8551 34.5543 32.124 34.5543H32.4589C32.7278 34.5543 32.9478 34.3343 32.9478 34.0654V29.8805C32.9478 29.6116 32.7278 29.3916 32.4589 29.3916Z" fill="#FF8061"/>
<path d="M37.9174 16.5752L34.9767 13.6345C34.61 13.2678 34.1163 13.0625 33.598 13.0625H26.4016C25.8834 13.0625 25.3896 13.2678 25.0229 13.6345L22.0823 16.5752C21.7156 16.9418 21.5103 17.4356 21.5103 17.9538V22.5958H24.6831V18.9658C24.6831 18.6432 24.8103 18.3352 25.04 18.1054L26.5507 16.5947C26.778 16.3674 27.0885 16.2378 27.4111 16.2378H32.586C32.9087 16.2378 33.2167 16.3649 33.4465 16.5947L34.9571 18.1054C35.1845 18.3327 35.314 18.6432 35.314 18.9658V22.5958H38.4869V17.9538C38.4869 17.4356 38.2816 16.9418 37.9149 16.5752H37.9174Z" fill="#FF8061"/>
<path d="M44.9429 42.9021V26.4021C44.9429 25.8618 44.5029 25.4243 43.9627 25.4243H42.87C42.3298 25.4267 41.8922 24.9916 41.8898 24.4514V23.283C41.8849 22.7452 41.4474 22.3076 40.9096 22.3076H19.0929C18.5527 22.3076 18.1151 22.7452 18.1151 23.2854V24.3805C18.1151 24.9183 17.68 25.3558 17.1422 25.3583L16.03 25.3632C15.4922 25.3632 15.0571 25.8032 15.0571 26.341V42.9192C15.0571 43.4594 15.4947 43.897 16.0349 43.897H17.1374C17.6776 43.897 18.1151 44.3345 18.1151 44.8747V45.9552C18.1151 46.4954 18.5527 46.933 19.0929 46.933H40.9047C41.4449 46.933 41.8825 46.4954 41.8825 45.9552V44.8601C41.8825 44.3223 42.3176 43.8847 42.8554 43.8823L43.9651 43.8774C44.5029 43.8774 44.938 43.4374 44.938 42.8996L44.9429 42.9021ZM40.6969 43.6598H19.3105C18.7702 43.6598 18.3327 43.2223 18.3327 42.6821L18.3278 26.561C18.3278 26.0207 18.7654 25.5832 19.3056 25.5832H40.692C41.2322 25.5832 41.6698 26.0207 41.6698 26.561L41.6747 42.6821C41.6747 43.2223 41.2371 43.6598 40.6969 43.6598Z" fill="#FF8061"/>
</svg>
