<svg width="16" height="16" viewBox="0 0 16 16" fill="none" xmlns="http://www.w3.org/2000/svg">
<path fill-rule="evenodd" clip-rule="evenodd" d="M12 14V13H12.001L12 14ZM11.999 13H4V8H12L11.999 13ZM8.001 3C9.655 3 11.001 4.329 11.001 5.964V6H5.001V5.964C5.001 4.329 6.347 3 8.001 3ZM13.001 6.279V5.964C13.001 3.227 10.758 1 8.001 1C5.244 1 3.001 3.227 3.001 5.964V6.277C2.406 6.625 2 7.263 2 8V13C2 14.103 2.897 15 4 15H12C13.103 15 14 14.103 14 13V8C14 7.264 13.596 6.626 13.001 6.279Z" fill="#FF8061"/>
<path fill-rule="evenodd" clip-rule="evenodd" d="M9.00205 9.80962C9.00205 9.25562 8.55305 8.80762 8.00005 8.80762C7.44605 8.80762 6.99805 9.25562 6.99805 9.80962C6.99805 10.1046 7.13005 10.3636 7.33305 10.5456V11.4766C7.33305 11.8476 7.63305 12.1476 8.00305 12.1476C8.37305 12.1476 8.67405 11.8476 8.67405 11.4766V10.5416C8.87205 10.3586 9.00205 10.1016 9.00205 9.80962Z" fill="#FF8061"/>
</svg>
