<svg width="191" height="191" viewBox="0 0 191 191" fill="none" xmlns="http://www.w3.org/2000/svg">
<g clip-path="url(#clip0_1704_1424)">
<path d="M95.5 191C42.7583 191 0 148.242 0 95.5C0 42.7584 42.7583 0 95.5 0C148.242 0 191 42.7584 191 95.5C191 148.242 148.252 191 95.5 191Z" fill="#2461ED"/>
<path fill-rule="evenodd" clip-rule="evenodd" d="M108.208 93.3685C90.9052 84.0186 69.8528 71.8938 54.0081 62.011C49.3332 58.6431 51.6958 51.4949 57.356 51.4949H135.755C140.128 51.4949 143.054 56.3709 140.862 60.0606C135.594 69.1592 127.903 80.7109 121.478 89.8698C118.03 94.7861 112.41 95.6306 108.208 93.3685ZM82.9729 96.4049C99.7023 105.323 123.148 118.885 139.806 129.14C144.954 132.317 142.903 139.937 136.891 139.937C127.053 139.937 111.066 139.94 95.1631 139.942C79.4239 139.945 63.7659 139.947 54.2295 139.947C49.4238 139.947 46.9606 134.961 49.0015 131.482C55.8984 119.73 63.6498 107.866 70.0942 99.0088C72.9595 95.0577 78.7906 94.173 82.9729 96.4049Z" fill="white"/>
</g>
<defs>
<clipPath id="clip0_1704_1424">
<rect width="191" height="191" fill="white"/>
</clipPath>
</defs>
</svg>
