<svg width="16" height="16" viewBox="0 0 16 16" fill="none" xmlns="http://www.w3.org/2000/svg">
<path fill-rule="evenodd" clip-rule="evenodd" d="M14.6667 8C14.6667 11.6819 11.6819 14.6667 8.00004 14.6667C4.31814 14.6667 1.33337 11.6819 1.33337 8C1.33337 4.3181 4.31814 1.33334 8.00004 1.33334C11.6819 1.33334 14.6667 4.3181 14.6667 8ZM2.66671 8C2.66671 10.9455 5.05452 13.3333 8.00004 13.3333C10.9456 13.3333 13.3334 10.9455 13.3334 8C13.3334 5.05448 10.9456 2.66667 8.00004 2.66667C5.05452 2.66667 2.66671 5.05448 2.66671 8Z" />
<path d="M6.96139 6.08947C6.96139 5.57606 7.39595 5.1528 7.94139 5.1528C8.48561 5.1528 8.92005 5.57618 8.92005 6.08947C8.92581 6.46417 8.83055 6.59424 8.36991 6.93046L8.33843 6.95343C7.55727 7.52345 7.22948 7.97805 7.27558 8.88209L7.27472 9.01347C7.27472 9.38166 7.5732 9.68013 7.94139 9.68013C8.30958 9.68013 8.60805 9.38166 8.60805 9.01347V8.84813C8.58981 8.47344 8.67025 8.36187 9.12437 8.0305L9.15598 8.00743C9.93162 7.4413 10.2674 6.98283 10.2533 6.07908C10.2534 4.83199 9.2144 3.81947 7.94139 3.81947C6.66733 3.81947 5.62805 4.8317 5.62805 6.08947C5.62805 6.45766 5.92653 6.75613 6.29472 6.75613C6.66291 6.75613 6.96139 6.45766 6.96139 6.08947Z" />
<path d="M7.99996 10.5C8.4602 10.5 8.83329 10.8731 8.83329 11.3333C8.83329 11.7936 8.4602 12.1667 7.99996 12.1667C7.53972 12.1667 7.16663 11.7936 7.16663 11.3333C7.16663 10.8731 7.53972 10.5 7.99996 10.5Z" />
</svg>
