<svg xmlns:xlink="http://www.w3.org/1999/xlink" width="24" height="24" viewBox="0 0 36 36" fill="none" xmlns="http://www.w3.org/2000/svg"><path d="M23.332 19.09l-3.247 3.26a.71.71 0 000 1l2.482 2.484a1.1 1.1 0 001.537 0l7.604-7.505c.423-.418.423-1.1 0-1.517l-7.604-7.499a1.1 1.1 0 00-1.537 0l-2.481 2.485a.71.71 0 00-.001 1l3.247 3.259c.845.834.845 2.199 0 3.034z" fill="#0A6E5C"></path><path d="M13.568 19.09l3.247 3.26a.71.71 0 010 1l-2.482 2.484a1.1 1.1 0 01-1.537 0L5.192 18.33a1.066 1.066 0 010-1.517l7.604-7.499a1.1 1.1 0 011.537 0l2.481 2.485a.71.71 0 010 1l-3.246 3.259a2.131 2.131 0 000 3.034z" fill="#21BF73"></path><path d="M14.42 18.194a.877.877 0 010-1.24l3.41-3.41a.877.877 0 011.24 0l3.41 3.41a.877.877 0 010 1.24l-3.41 3.41a.877.877 0 01-1.24 0l-3.41-3.41z" fill="#21BF73"></path></svg>