<svg width="45" height="45" viewBox="0 0 188 188" xmlns="http://www.w3.org/2000/svg" xmlns:xlink="http://www.w3.org/1999/xlink" xml:space="preserve" overflow="hidden"><g transform="translate(-546 -266)"><path d="M283.205 211.997C299.052 211.997 307.787 205.192 307.787 194.119L307.787 180.609C307.787 169.435 298.95 162.833 283.205 162.833 267.359 162.833 258.623 169.537 258.623 180.609L258.623 194.018C258.623 194.83 258.724 195.745 258.826 196.557L198.894 235.462C194.729 231.501 188.025 229.368 178.984 229.368 163.137 229.368 154.402 236.072 154.402 247.144L154.402 260.654C154.402 271.828 163.239 278.532 178.984 278.532 188.532 278.532 195.542 276.094 199.605 271.625L259.029 310.124C258.826 311.241 258.724 312.46 258.724 313.679L258.724 327.189C258.724 338.363 267.562 345.067 283.307 345.067 299.153 345.067 307.889 338.261 307.889 327.189L307.889 313.679C307.889 302.505 299.052 295.903 283.307 295.903 274.063 295.903 267.257 298.137 263.194 302.302L203.465 263.6C203.566 262.686 203.668 261.67 203.668 260.654L203.668 247.144C203.668 245.722 203.566 244.401 203.262 243.183L262.483 204.684C266.343 209.356 273.453 211.997 283.205 211.997Z" fill="#E94362" transform="matrix(1 0 0 1.00003 408.721 105.864)"/></g></svg>
