<svg width="11" height="16" viewBox="0 0 11 16" fill="none" xmlns="http://www.w3.org/2000/svg">
<path fill-rule="evenodd" clip-rule="evenodd" d="M3.16099 0.990293C3.16099 0.443369 3.60436 0 4.15129 0H9.6503C10.0446 0 10.4 0.241278 10.5509 0.611326C10.7018 0.981374 10.6184 1.40732 10.3396 1.69054L2.07876 10.0824C1.69387 10.4734 1.06334 10.4734 0.678449 10.0824C0.302037 9.69999 0.302039 9.08633 0.678455 8.70394L7.29685 1.98059H4.15129C3.60436 1.98059 3.16099 1.53722 3.16099 0.990293Z" fill="#12FF80"/>
<path fill-rule="evenodd" clip-rule="evenodd" d="M10.3376 5.92591C10.7064 6.30499 10.7064 6.90872 10.3376 7.28779L3.78904 14.0194H6.88592C7.43285 14.0194 7.87622 14.4628 7.87622 15.0097C7.87622 15.5566 7.43285 16 6.88592 16H1.46327C1.07362 16 0.722346 15.7587 0.573237 15.3887C0.424127 15.0186 0.50655 14.5927 0.78207 14.3095L8.93765 5.92591C9.32108 5.53176 9.95418 5.53177 10.3376 5.92591Z" fill="#12FF80"/>
</svg>
