<svg width="32" height="32" viewBox="0 0 32 32" fill="none" xmlns="http://www.w3.org/2000/svg">
<g clip-path="url(#clip0_5256_18580)">
<rect x="0.5" y="0.5" width="31" height="31" rx="5.5" stroke="#DCDEE0"/>
<g clip-path="url(#clip1_5256_18580)">
<path fill-rule="evenodd" clip-rule="evenodd" d="M19.4721 8.19526C19.2117 7.93491 18.7896 7.93491 18.5292 8.19526C18.2689 8.45561 18.2689 8.87772 18.5292 9.13807L20.0582 10.667H12.3333C11.4493 10.667 10.6014 11.0182 9.97631 11.6433C9.35119 12.2684 9 13.1163 9 14.0003V15.3337C9 15.7018 9.29848 16.0003 9.66667 16.0003C10.0349 16.0003 10.3333 15.7018 10.3333 15.3337V14.0003C10.3333 13.4699 10.544 12.9612 10.9191 12.5861C11.2942 12.211 11.8029 12.0003 12.3333 12.0003H20.0575L18.5292 13.5286C18.2689 13.7889 18.2689 14.2111 18.5292 14.4714C18.7896 14.7318 19.2117 14.7318 19.4721 14.4714L22.1387 11.8047C22.3991 11.5444 22.3991 11.1223 22.1387 10.8619L19.4721 8.19526ZM12.8047 17.5288C13.0651 17.7891 13.0651 18.2112 12.8047 18.4716L11.2763 20H19C19.5304 20 20.0391 19.7893 20.4142 19.4142C20.7893 19.0391 21 18.5304 21 18V16.6667C21 16.2985 21.2985 16 21.6667 16C22.0349 16 22.3333 16.2985 22.3333 16.6667V18C22.3333 18.8841 21.9821 19.7319 21.357 20.357C20.7319 20.9821 19.8841 21.3333 19 21.3333H11.276L12.8047 22.8621C13.0651 23.1224 13.0651 23.5446 12.8047 23.8049C12.5444 24.0653 12.1223 24.0653 11.8619 23.8049L9.19526 21.1382C9.11431 21.0573 9.05853 20.9607 9.02792 20.8582C9.00976 20.7975 9 20.7332 9 20.6667C9 20.4781 9.07829 20.3078 9.20413 20.1866L11.8619 17.5288C12.1223 17.2684 12.5444 17.2684 12.8047 17.5288Z" fill="#121312"/>
</g>
</g>
<defs>
<clipPath id="clip0_5256_18580">
<rect width="32" height="32" fill="white"/>
</clipPath>
<clipPath id="clip1_5256_18580">
<rect width="16" height="16" fill="white" transform="translate(8 8)"/>
</clipPath>
</defs>
</svg>
