<svg width="24" height="24" viewBox="0 0 24 24" fill="none" xmlns="http://www.w3.org/2000/svg">
<path fill-rule="evenodd" clip-rule="evenodd" d="M4.0004 9.9999C4.0004 6.6909 6.6914 3.9999 10.0004 3.9999C13.3084 3.9999 16.0004 6.6909 16.0004 9.9999C16.0004 13.3089 13.3084 15.9999 10.0004 15.9999C6.6914 15.9999 4.0004 13.3089 4.0004 9.9999M21.7054 20.2929L16.3134 14.9009C17.3664 13.5469 18.0004 11.8489 18.0004 9.9999C18.0004 5.5819 14.4184 1.9999 10.0004 1.9999C5.5814 1.9999 2.0004 5.5819 2.0004 9.9999C2.0004 14.4179 5.5814 17.9999 10.0004 17.9999C11.8484 17.9999 13.5454 17.3669 14.8984 16.3149L20.2914 21.7069C20.6804 22.0959 21.3164 22.0959 21.7054 21.7069C22.0944 21.3179 22.0944 20.6819 21.7054 20.2929"/>
</svg>
