<svg width="16" height="16" viewBox="0 0 16 16" fill="none" xmlns="http://www.w3.org/2000/svg">
<path d="M15.3165 2.41478C15.3744 2.08835 15.3743 2.08834 15.3742 2.08832L15.6311 2.12657L15.6728 2.36196C15.6728 2.36184 15.6728 2.36173 15.3165 2.41478Z" fill="#121312"/>
<path fill-rule="evenodd" clip-rule="evenodd" d="M1.09638 2.3622L1.45267 2.41502C1.0967 2.36202 1.0964 2.36208 1.09638 2.3622L1.13813 2.12681L1.39505 2.08856C1.39492 2.08858 1.39482 2.08887 1.45267 2.41502L1.39505 2.08856L1.39631 2.08837L1.3992 2.08795L1.40906 2.08655L1.44465 2.08174C1.47526 2.07774 1.51942 2.07225 1.57576 2.06599C1.6884 2.05349 1.84997 2.03791 2.04938 2.02506C2.44756 1.99939 3.00004 1.98436 3.6172 2.0274C4.83698 2.11246 6.37906 2.4291 7.44866 3.40909C7.85842 3.78452 8.16125 4.22302 8.38423 4.68218C8.60723 4.22299 8.91009 3.78445 9.31988 3.409C10.3896 2.4289 11.9318 2.11223 13.1518 2.02716C13.769 1.98411 14.3215 1.99914 14.7198 2.02481C14.9192 2.03767 15.0808 2.05325 15.1934 2.06575C15.2498 2.07201 15.294 2.0775 15.3246 2.0815L15.3602 2.08631L15.37 2.08771L15.3729 2.08813L15.3742 2.08832L15.3165 2.41478L15.6728 2.36196L15.673 2.36312L15.6735 2.36577L15.675 2.3748L15.6803 2.40741C15.6846 2.43546 15.6906 2.47593 15.6975 2.52755C15.7111 2.63077 15.7281 2.77882 15.7422 2.96154C15.7702 3.3264 15.7866 3.83266 15.7396 4.39817C15.6467 5.51589 15.3011 6.92893 14.2314 7.90902C13.4157 8.65635 12.3268 9.01629 11.3246 9.18328C10.5184 9.31762 9.74554 9.3309 9.16986 9.31017V13.2494C9.16986 13.6639 8.80306 14 8.35058 14C7.89811 14 7.53131 13.6639 7.53131 13.2494V9.31187C6.94958 9.32958 6.182 9.31107 5.38555 9.1728C4.40028 9.00173 3.33759 8.64154 2.53767 7.90864C1.46807 6.92865 1.12247 5.51577 1.02963 4.39818C0.982662 3.83273 0.99906 3.32653 1.02707 2.96172C1.04111 2.77901 1.05811 2.63098 1.07176 2.52777C1.07858 2.47615 1.08457 2.43569 1.08894 2.40765L1.09419 2.37504L1.09572 2.36601L1.09618 2.36336L1.09638 2.3622ZM13.2761 3.52409C13.5829 3.5027 13.8727 3.49834 14.1289 3.5029C14.1339 3.73763 14.1291 4.0032 14.1058 4.28424C14.023 5.28119 13.7252 6.24968 13.0728 6.84746C12.4203 7.44525 11.3633 7.71804 10.2752 7.79392C9.96842 7.81532 9.67856 7.81968 9.42237 7.81512C9.41739 7.58039 9.42216 7.31482 9.4455 7.03378C9.52832 6.03682 9.82606 5.06834 10.4785 4.47055C11.131 3.87277 12.188 3.59997 13.2761 3.52409ZM2.66345 4.28425C2.64012 4.0033 2.63535 3.73781 2.64032 3.50315C2.89644 3.49859 3.18621 3.50295 3.49285 3.52434C4.58082 3.60021 5.6377 3.87297 6.29003 4.47064C6.94236 5.06832 7.24006 6.03665 7.32287 7.03348C7.34621 7.31443 7.35097 7.57992 7.346 7.81458C7.08988 7.81914 6.80011 7.81477 6.49347 7.79339C5.4055 7.71752 4.34862 7.44476 3.69629 6.84708C3.04396 6.2494 2.74626 5.28107 2.66345 4.28425Z" fill="currentColor"/>
</svg>
