<svg width="400" height="243" viewBox="0 0 400 243" fill="none" xmlns="http://www.w3.org/2000/svg">
<path d="M232.639 193.773H222.82C216.281 193.773 189.55 188.909 189.55 171.963V107.074H264.8L265.343 171.963C265.886 193.773 222.808 193.773 232.628 193.773H232.639Z" fill="black"/>
<path d="M227.446 146.6C206.258 146.6 189.018 137.539 189.018 126.407H190.104C190.104 136.758 207.208 145.503 227.446 145.503C247.684 145.503 264.789 136.758 264.789 126.407H265.875C265.875 137.539 248.635 146.6 227.446 146.6Z" class="line" fill="white"/>
<path d="M227.446 170.458C206.258 170.458 189.018 161.397 189.018 150.266H190.104C190.104 160.616 207.208 169.361 227.446 169.361C247.684 169.361 264.789 160.616 264.789 150.266H265.875C265.875 161.397 248.635 170.458 227.446 170.458Z" class="line" fill="white"/>
<path d="M227.446 194.316C206.258 194.316 189.018 185.255 189.018 174.124H190.104C190.104 184.474 207.208 193.219 227.446 193.219C247.684 193.219 264.789 184.474 264.789 174.124H265.875C265.875 185.255 248.635 194.316 227.446 194.316Z" class="line" fill="white"/>
<path d="M265.332 103.262C265.332 108.488 261.305 113.398 254.404 117.029C247.537 120.649 238.012 122.912 227.446 122.912C216.881 122.912 207.356 120.649 200.489 117.029C193.588 113.398 189.561 108.488 189.561 103.262C189.561 98.0356 193.588 93.126 200.489 89.4946C207.356 85.8746 216.881 83.6121 227.446 83.6121C238.012 83.6121 247.537 85.8746 254.404 89.4946C261.305 93.126 265.332 98.0356 265.332 103.262Z" fill="black"/>
<path d="M227.446 123.455C217.163 123.455 207.503 121.339 200.229 117.516C192.989 113.703 189.007 108.635 189.007 103.262C189.007 97.8885 192.989 92.8318 200.229 89.0082C207.491 85.1733 217.163 83.0691 227.446 83.0691C237.729 83.0691 247.39 85.1846 254.664 89.0082C261.904 92.8205 265.886 97.8885 265.886 103.262C265.886 108.635 261.904 113.692 254.664 117.516C247.402 121.351 237.729 123.455 227.446 123.455ZM227.446 84.1664C217.333 84.1664 207.853 86.2366 200.738 89.9811C193.882 93.6011 190.104 98.3184 190.104 103.262C190.104 108.206 193.882 112.934 200.738 116.543C207.853 120.299 217.333 122.357 227.446 122.357C237.56 122.357 247.04 120.287 254.155 116.543C261.011 112.923 264.789 108.206 264.789 103.262C264.789 98.3184 261.011 93.5898 254.155 89.9811C247.04 86.2253 237.56 84.1664 227.446 84.1664Z" fill="white"/>
<path d="M265.332 103.115C265.332 108.387 261.271 113.319 254.325 116.984C247.413 120.627 237.809 122.9 227.175 122.9C216.541 122.9 206.937 120.627 200.025 116.984C193.079 113.319 189.018 108.387 189.018 103.115C189.018 97.8433 193.079 92.911 200.025 89.2458C206.937 85.6031 216.541 83.3293 227.175 83.3293C237.809 83.3293 247.413 85.6031 254.325 89.2458C261.271 92.911 265.332 97.8433 265.332 103.115Z" fill="white"/>
<path d="M227.175 123.455C216.824 123.455 207.084 121.328 199.765 117.47C192.48 113.624 188.464 108.534 188.464 103.126C188.464 97.7188 192.48 92.6169 199.765 88.782C207.084 84.9244 216.813 82.7976 227.175 82.7976C237.537 82.7976 247.266 84.9244 254.585 88.782C261.87 92.6282 265.886 97.7188 265.886 103.126C265.886 108.534 261.87 113.636 254.585 117.47C247.266 121.328 237.537 123.455 227.175 123.455ZM227.175 83.8836C216.994 83.8836 207.435 85.9651 200.274 89.7435C193.362 93.3861 189.561 98.1374 189.561 103.126C189.561 108.115 193.362 112.866 200.274 116.509C207.435 120.287 216.994 122.369 227.175 122.369C237.356 122.369 246.915 120.287 254.076 116.509C260.988 112.866 264.789 108.115 264.789 103.126C264.789 98.1374 260.988 93.3861 254.076 89.7435C246.915 85.9651 237.356 83.8836 227.175 83.8836Z" fill="white"/>
<path d="M265.875 103.251H264.789V175.538H265.875V103.251Z" fill="white"/>
<path d="M189.527 102.153H188.441V175.526H189.527V102.153Z" fill="white"/>
<path d="M126.562 98.7823C126.392 98.7823 126.222 98.7144 126.098 98.59C125.838 98.3298 125.838 97.9226 126.098 97.6624L129.955 93.8048C130.216 93.5446 130.623 93.5446 130.883 93.8048C131.143 94.065 131.143 94.4722 130.883 94.7324L127.025 98.59C126.901 98.7144 126.731 98.7823 126.562 98.7823ZM133.508 91.8364C133.338 91.8364 133.168 91.7686 133.044 91.6441C132.784 91.3839 132.784 90.9767 133.044 90.7165L136.901 86.8589C137.161 86.5987 137.569 86.5987 137.829 86.8589C138.089 87.1191 138.089 87.5264 137.829 87.7866L133.971 91.6441C133.847 91.7686 133.677 91.8364 133.508 91.8364ZM140.453 84.8906C140.284 84.8906 140.114 84.8227 139.99 84.6982C139.729 84.4381 139.729 84.0308 139.99 83.7706L143.847 79.9131C144.107 79.6529 144.515 79.6529 144.775 79.9131C145.035 80.1732 145.035 80.5805 144.775 80.8407L140.917 84.6982C140.793 84.8227 140.623 84.8906 140.453 84.8906ZM171.212 81.7344L167.75 78.2727C167.49 78.0126 167.49 77.6053 167.75 77.3451C168.011 77.0849 168.418 77.0849 168.678 77.3451L171.212 79.8791L171.608 79.4832C171.868 79.223 172.275 79.223 172.536 79.4832C172.796 79.7434 172.796 80.1506 172.536 80.4108L171.212 81.7344ZM147.399 77.956C147.23 77.956 147.06 77.8881 146.935 77.7637C146.675 77.5035 146.675 77.0962 146.935 76.8361L150.793 72.9785C151.053 72.7183 151.46 72.7183 151.721 72.9785C151.981 73.2387 151.981 73.6459 151.721 73.9061L147.863 77.7637C147.739 77.8881 147.569 77.956 147.399 77.956ZM175.16 77.5148C174.99 77.5148 174.821 77.4469 174.696 77.3225C174.436 77.0623 174.436 76.6551 174.696 76.3949L178.554 72.5373C178.814 72.2771 179.221 72.2771 179.482 72.5373C179.742 72.7975 179.742 73.2047 179.482 73.4649L175.624 77.3225C175.5 77.4469 175.33 77.5148 175.16 77.5148ZM165.137 75.3881C164.968 75.3881 164.798 75.3202 164.673 75.1957L160.816 71.3382C160.556 71.078 160.556 70.6707 160.816 70.4106C161.076 70.1504 161.483 70.1504 161.744 70.4106L165.601 74.2681C165.861 74.5283 165.861 74.9356 165.601 75.1957C165.477 75.3202 165.307 75.3881 165.137 75.3881ZM154.345 71.0214C154.175 71.0214 154.006 70.9536 153.881 70.8291C153.621 70.5689 153.621 70.1617 153.881 69.9015L157.558 66.2249L158.667 67.3336C158.927 67.5937 158.927 68.001 158.667 68.2612C158.406 68.5214 157.999 68.5214 157.739 68.2612L157.558 68.0802L154.809 70.8291C154.685 70.9536 154.515 71.0214 154.345 71.0214ZM182.106 70.5802C181.936 70.5802 181.767 70.5124 181.642 70.3879C181.382 70.1277 181.382 69.7205 181.642 69.4603L185.5 65.6027C185.76 65.3426 186.167 65.3426 186.427 65.6027C186.688 65.8629 186.688 66.2702 186.427 66.5304L182.57 70.3879C182.445 70.5124 182.276 70.5802 182.106 70.5802ZM189.052 63.6344C188.882 63.6344 188.713 63.5665 188.588 63.4421C188.328 63.1819 188.328 62.7746 188.588 62.5144L192.446 58.6569C192.706 58.3967 193.113 58.3967 193.373 58.6569C193.633 58.9171 193.633 59.3243 193.373 59.5845L189.516 63.4421C189.391 63.5665 189.222 63.6344 189.052 63.6344ZM195.998 56.6885C195.828 56.6885 195.658 56.6206 195.534 56.4962C195.274 56.236 195.274 55.8287 195.534 55.5686L199.392 51.711C199.652 51.4508 200.059 51.4508 200.319 51.711C200.579 51.9712 200.579 52.3784 200.319 52.6386L196.462 56.4962C196.337 56.6206 196.167 56.6885 195.998 56.6885ZM202.944 49.7426C202.774 49.7426 202.604 49.6747 202.48 49.5503C202.22 49.2901 202.22 48.8829 202.48 48.6227L206.337 44.7651C206.598 44.5049 207.005 44.5049 207.265 44.7651C207.525 45.0253 207.525 45.4326 207.265 45.6927L203.407 49.5503C203.283 49.6747 203.113 49.7426 202.944 49.7426ZM209.89 42.7968C209.72 42.7968 209.55 42.7289 209.426 42.6044C209.166 42.3443 209.166 41.937 209.426 41.6768L213.283 37.8193C213.543 37.5591 213.951 37.5591 214.211 37.8193C214.471 38.0794 214.471 38.4867 214.211 38.7469L210.353 42.6044C210.229 42.7289 210.059 42.7968 209.89 42.7968ZM216.835 35.8509C216.666 35.8509 216.496 35.783 216.372 35.6586C216.111 35.3984 216.111 34.9911 216.372 34.7309L220.229 30.8734C220.489 30.6132 220.897 30.6132 221.157 30.8734C221.417 31.1336 221.417 31.5408 221.157 31.801L217.299 35.6586C217.175 35.783 217.005 35.8509 216.835 35.8509Z" fill="white"/>
<path d="M162.026 187.416C182.481 187.416 199.063 170.834 199.063 150.379C199.063 129.923 182.481 113.341 162.026 113.341C141.571 113.341 124.989 129.923 124.989 150.379C124.989 170.834 141.571 187.416 162.026 187.416Z" fill="black"/>
<path d="M162.026 111.973C140.815 111.973 123.62 129.168 123.62 150.379C123.62 171.59 140.815 188.785 162.026 188.785C183.237 188.785 200.432 171.59 200.432 150.379C200.432 129.168 183.237 111.973 162.026 111.973ZM162.026 187.416C141.607 187.416 124.989 170.798 124.989 150.379C124.989 129.96 141.607 113.341 162.026 113.341C182.445 113.341 199.063 129.96 199.063 150.379C199.063 170.798 182.445 187.416 162.026 187.416Z" fill="white"/>
<path d="M162.026 187.993C142.207 187.993 126.267 171.737 123.835 150.379C123.688 151.861 123.609 153.365 123.609 154.892C123.609 178.162 140.917 194.316 162.128 194.316C183.339 194.316 199.324 178.377 200.432 154.892C200.5 153.365 200.353 151.861 200.206 150.379C198.147 171.522 181.846 187.993 162.015 187.993H162.026Z" fill="white"/>
<path d="M162.026 174.531C148.711 174.531 137.885 163.693 137.885 150.39C137.885 137.087 148.723 126.238 162.026 126.238C175.33 126.238 186.178 137.075 186.178 150.39C186.178 163.705 175.341 174.531 162.026 174.531Z" fill="black"/>
<path d="M162.026 126.781C175.035 126.781 185.624 137.369 185.624 150.379C185.624 163.388 175.035 173.976 162.026 173.976C149.017 173.976 138.428 163.388 138.428 150.379C138.428 137.369 149.017 126.781 162.026 126.781ZM162.026 125.695C148.394 125.695 137.331 136.747 137.331 150.39C137.331 164.033 148.383 175.085 162.026 175.085C175.669 175.085 186.721 164.033 186.721 150.39C186.721 136.747 175.669 125.695 162.026 125.695Z" fill="white"/>
<path d="M162.026 133.919C174.255 133.919 184.38 142.822 186.348 154.496C186.574 153.15 186.721 151.781 186.721 150.379C186.721 136.747 175.669 125.684 162.026 125.684C148.383 125.684 137.331 136.736 137.331 150.379C137.331 151.781 137.478 153.15 137.704 154.496C139.673 142.822 149.797 133.919 162.026 133.919Z" fill="white"/>
<path opacity="0.600006" d="M161.632 149.85L154.286 153.19L161.632 157.532L168.979 153.19L161.632 149.85Z" fill="#edeeed"/>
<path opacity="0.449997" d="M154.286 153.19L161.632 157.532V149.85V141L154.286 153.19Z" fill="#edeeed"/>
<path opacity="0.800003" d="M161.632 141V149.85V157.532L168.979 153.19L161.632 141Z" fill="#edeeed"/>
<path opacity="0.449997" d="M154.286 154.583L161.632 164.935V158.923L154.286 154.583Z" fill="#edeeed"/>
<path opacity="0.800003" d="M161.632 158.923V164.935L168.983 154.583L161.632 158.923Z" fill="#edeeed"/>
</svg>
