<svg width="100" height="100" viewBox="0 0 100 100" fill="none" xmlns="http://www.w3.org/2000/svg">
    <g clip-path="url(#clip0_6119_18499)">
        <rect width="100" height="100" rx="50" fill="#F4F4F4"/>
        <path d="M16.4741 45.2274L15.8897 45.2114C15.8632 45.0202 15.8366 44.813 15.8154 44.5952L15.7782 44.2605C15.7622 44.0958 15.8791 43.9524 16.0438 43.9365C16.0757 43.9365 16.0969 43.9365 16.1235 43.9365C16.1394 43.8621 16.1554 43.7824 16.1713 43.708C16.2032 43.5486 16.3625 43.4424 16.5219 43.4796C16.6813 43.5114 16.7875 43.6708 16.7504 43.8302C16.6547 44.2871 16.5644 44.7493 16.4794 45.2221L16.4741 45.2274ZM15.98 42.7464C15.98 42.7464 15.9694 42.7464 15.9588 42.7464C15.7941 42.7518 15.656 42.6243 15.6507 42.4649C15.6135 41.668 15.6029 40.8605 15.6241 40.0689C15.6241 39.9043 15.7622 39.7715 15.9269 39.7768C16.0916 39.7768 16.2191 39.9149 16.2191 40.0796C16.2032 40.8605 16.2138 41.6574 16.2457 42.4383C16.251 42.5977 16.1341 42.7305 15.98 42.7464ZM16.8832 42.3321C16.8513 42.3321 16.8141 42.3321 16.7822 42.3268C16.6229 42.2896 16.5272 42.1249 16.5644 41.9655C16.7557 41.1793 16.9682 40.4036 17.1913 39.6599C17.2391 39.5005 17.4038 39.4155 17.5632 39.4633C17.7225 39.5111 17.8075 39.6758 17.7597 39.8352C17.5366 40.5683 17.3294 41.3333 17.1382 42.1089C17.1063 42.2311 17 42.3214 16.8832 42.3321ZM16.0332 38.5868C16.0332 38.5868 15.996 38.5868 15.98 38.5868C15.8154 38.5761 15.6932 38.4327 15.7038 38.268C15.7622 37.4605 15.8472 36.6583 15.9641 35.8827C15.9854 35.718 16.1394 35.6064 16.2988 35.633C16.4635 35.6543 16.575 35.8083 16.5485 35.9677C16.4369 36.7274 16.3519 37.5136 16.2935 38.3105C16.2829 38.4539 16.1713 38.5708 16.0279 38.5868H16.0332ZM18.0572 38.3477C18.0147 38.3477 17.9722 38.3477 17.9244 38.3318C17.7704 38.2786 17.6907 38.1086 17.7438 37.9546C18.0094 37.1896 18.3016 36.4405 18.6044 35.7233C18.6682 35.5693 18.8435 35.5002 18.9922 35.5639C19.141 35.6277 19.2154 35.803 19.1516 35.9518C18.8541 36.6583 18.5672 37.3968 18.3016 38.1458C18.2644 38.2574 18.1635 38.3318 18.0519 38.3424L18.0572 38.3477ZM19.6563 34.5174C19.6032 34.5227 19.5447 34.5174 19.4916 34.4908C19.3429 34.4164 19.2844 34.2411 19.3588 34.0924C19.72 33.3646 20.1025 32.6527 20.5063 31.9886C20.5913 31.8505 20.7719 31.8027 20.9154 31.8877C21.0588 31.9727 21.1013 32.1533 21.0163 32.2968C20.6232 32.9502 20.246 33.6461 19.89 34.358C19.8422 34.4536 19.7519 34.5121 19.6563 34.5227V34.5174ZM16.6016 34.4643C16.5697 34.4643 16.5432 34.4643 16.5113 34.4643C16.3519 34.4324 16.2457 34.273 16.2829 34.1136C16.4475 33.3168 16.6441 32.5358 16.8672 31.7868C16.915 31.6274 17.0797 31.5424 17.2391 31.5849C17.3985 31.6327 17.4835 31.7974 17.441 31.9568C17.2232 32.6899 17.0266 33.4602 16.8672 34.2358C16.8407 34.3633 16.7344 34.4589 16.6069 34.4696L16.6016 34.4643ZM21.7654 30.9421C21.6963 30.9474 21.6219 30.9314 21.5635 30.8889C21.4307 30.7933 21.3988 30.6074 21.4891 30.4746C21.9566 29.8105 22.4507 29.173 22.966 28.578C23.0722 28.4558 23.2582 28.4399 23.3857 28.5461C23.5079 28.6524 23.5238 28.8436 23.4175 28.9658C22.9182 29.5449 22.4294 30.1665 21.9779 30.8093C21.9247 30.8836 21.8504 30.9261 21.7654 30.9314V30.9421ZM17.7544 30.4746C17.7066 30.4746 17.6641 30.4746 17.6163 30.4586C17.4622 30.4002 17.3879 30.2302 17.4463 30.0761C17.7385 29.3164 18.0625 28.5727 18.4185 27.8768C18.4929 27.7333 18.6735 27.6696 18.8169 27.7439C18.9657 27.8183 19.0188 27.999 18.9497 28.1424C18.6044 28.8224 18.2857 29.5449 18.0041 30.2833C17.9616 30.3896 17.866 30.4586 17.7597 30.4746H17.7544ZM24.4482 27.7811C24.3579 27.7918 24.2675 27.7599 24.2038 27.6908C24.0869 27.574 24.0922 27.3827 24.2091 27.2711C24.7882 26.708 25.4044 26.1821 26.0366 25.6986C26.1694 25.5977 26.3554 25.6243 26.451 25.7571C26.5519 25.8899 26.5254 26.0758 26.3925 26.1715C25.7816 26.6336 25.1866 27.1489 24.6235 27.6961C24.5757 27.7439 24.5119 27.7705 24.4482 27.7758V27.7811ZM19.5872 26.7558C19.5235 26.7611 19.4544 26.7505 19.396 26.7133C19.2579 26.6283 19.2154 26.4424 19.3004 26.3043C19.7307 25.6189 20.1982 24.9549 20.6975 24.3439C20.7985 24.2164 20.9897 24.1952 21.1172 24.3014C21.2447 24.4024 21.2607 24.5936 21.1597 24.7211C20.6763 25.3161 20.2194 25.9536 19.805 26.623C19.7572 26.7027 19.6722 26.7505 19.5872 26.7611V26.7558ZM36.1835 24.3227C36.0188 24.3386 35.8754 24.2218 35.8541 24.0624L35.6788 22.4793C35.6204 22.4846 35.5619 22.4952 35.4982 22.5005C35.3335 22.5377 35.1847 22.4049 35.1635 22.2455C35.1422 22.0808 35.2591 21.9321 35.4185 21.9108C35.5779 21.8896 35.7425 21.8683 35.9019 21.8524L36.1994 21.8205L36.4385 23.9986C36.4544 24.1633 36.3375 24.3068 36.1782 24.328L36.1835 24.3227ZM27.7154 25.2311C27.6038 25.2418 27.4922 25.1939 27.4285 25.093C27.3435 24.9549 27.386 24.7689 27.5241 24.6839C28.2041 24.2643 28.9213 23.8818 29.6491 23.5471C29.7979 23.478 29.9732 23.5471 30.0422 23.6958C30.1113 23.8446 30.0422 24.0199 29.8935 24.0889C29.1869 24.413 28.491 24.7849 27.8322 25.1886C27.795 25.2152 27.7525 25.2258 27.71 25.2311H27.7154ZM37.4851 23.8446C37.3735 23.8552 37.2619 23.8074 37.1982 23.7065C37.1132 23.5683 37.1557 23.3824 37.2938 23.2974L39.3179 22.0543C39.456 21.9693 39.6419 22.0118 39.7269 22.1499C39.8119 22.288 39.7694 22.4739 39.6313 22.5589L37.6072 23.8021C37.57 23.8233 37.5275 23.8393 37.4851 23.8446ZM31.4607 23.4514C31.3279 23.4674 31.195 23.3877 31.1472 23.2549C31.0941 23.1008 31.1738 22.9308 31.3279 22.8777C32.0769 22.6174 32.8579 22.3996 33.6494 22.2243C33.8088 22.1924 33.9682 22.288 34.0054 22.4527C34.0425 22.6121 33.9363 22.7714 33.7769 22.8086C33.0119 22.9786 32.2522 23.1911 31.5244 23.4408C31.5032 23.4461 31.4819 23.4514 31.4607 23.4568V23.4514ZM41.0285 21.6718C40.9169 21.6824 40.8054 21.6346 40.7416 21.5336C40.6566 21.3955 40.6991 21.2096 40.8372 21.1246L42.8613 19.8814C42.9994 19.7964 43.1854 19.8389 43.2704 19.9771C43.3554 20.1152 43.3129 20.3011 43.1747 20.3861L41.1507 21.6293C41.1135 21.6505 41.071 21.6664 41.0285 21.6718ZM22.1638 23.5046C22.0788 23.5152 21.9885 23.4833 21.9194 23.4196C21.8025 23.3027 21.8025 23.1168 21.9194 22.9999C22.4825 22.4314 23.0882 21.8949 23.7257 21.4061C23.8532 21.3052 24.0391 21.3318 24.14 21.4593C24.241 21.5868 24.2144 21.778 24.0869 21.8736C23.4707 22.3464 22.8863 22.8671 22.3391 23.4143C22.2913 23.4621 22.2275 23.4939 22.1585 23.4993L22.1638 23.5046ZM44.5719 19.4989C44.4604 19.5096 44.3488 19.4618 44.285 19.3608C44.2 19.2227 44.2425 19.0368 44.3807 18.9518L44.8269 18.6755L44.2691 18.4843C44.115 18.4311 44.0301 18.2611 44.0832 18.1071C44.1363 17.953 44.3063 17.868 44.4604 17.9211L46.2082 18.5214L44.6888 19.4564C44.6516 19.4777 44.6091 19.4936 44.5666 19.4989H44.5719ZM25.3991 20.9227C25.2875 20.9333 25.176 20.8855 25.1122 20.7846C25.0272 20.6464 25.0697 20.4605 25.2079 20.3755C25.8772 19.9558 26.5891 19.568 27.3222 19.228C27.471 19.1589 27.6463 19.2227 27.7154 19.3714C27.7844 19.5202 27.7207 19.6955 27.5719 19.7646C26.86 20.0993 26.1694 20.4711 25.5213 20.8802C25.4841 20.9068 25.4416 20.9174 25.3938 20.9227H25.3991ZM42.7179 17.9211C42.6754 17.9211 42.6329 17.9211 42.5904 17.9052L40.3432 17.1349C40.1891 17.0818 40.1041 16.9118 40.1572 16.7577C40.2104 16.6036 40.3804 16.5186 40.5344 16.5718L42.7816 17.3421C42.9357 17.3952 43.0207 17.5652 42.9676 17.7193C42.9304 17.8308 42.8294 17.9052 42.7179 17.9158V17.9211ZM29.1179 19.1058C28.985 19.1218 28.8575 19.0421 28.8097 18.9146C28.7513 18.7605 28.831 18.5905 28.985 18.5321C29.7129 18.2611 30.4832 18.0221 31.2747 17.8149C31.4341 17.7724 31.5935 17.868 31.636 18.0274C31.6785 18.1868 31.5829 18.3461 31.4235 18.3886C30.6532 18.5905 29.9041 18.8243 29.1922 19.0899C29.171 19.1005 29.1444 19.1058 29.1232 19.1058H29.1179ZM33.1129 18.0061C32.9588 18.0221 32.8207 17.9211 32.7888 17.7671C32.7569 17.6077 32.8632 17.4483 33.0225 17.4218C33.6919 17.2943 34.3879 17.188 35.0944 17.103L34.9085 15.3977C34.8925 15.233 35.0094 15.0896 35.1688 15.0683C35.3282 15.0471 35.4769 15.1693 35.4982 15.3286L35.7479 17.6236L35.4504 17.6555C34.6588 17.7405 33.8779 17.8574 33.1288 18.0008C33.1182 18.0008 33.1129 18.0008 33.1075 18.0008L33.1129 18.0061ZM38.7866 16.5718C38.7441 16.5718 38.7016 16.5718 38.6591 16.5558L36.4119 15.7855C36.2579 15.7324 36.1729 15.5624 36.226 15.4083C36.2791 15.2543 36.4491 15.1693 36.6032 15.2224L38.8504 15.9927C39.0044 16.0458 39.0894 16.2158 39.0363 16.3699C38.9991 16.4814 38.8982 16.5558 38.7866 16.5664V16.5718Z" fill="#A1A3A7"/>
        <path d="M63.5108 84.1679L52.5352 80.4704L62.767 74.1061L63.038 76.4489C70.1302 75.5245 79.0711 70.7645 82.0939 53.5732L82.6783 53.5839C83.0873 56.5376 83.9798 66.7589 78.2158 74.2123C74.9273 78.4676 70.0292 81.0282 63.6595 81.8251L63.8986 83.8704L63.9145 84.3592L63.5108 84.1679ZM53.9164 80.3111L63.2558 83.4561L63.0061 81.3045L63.3036 81.2726C69.652 80.5342 74.513 78.0373 77.7536 73.8511C82.4498 67.7789 82.6145 59.7889 82.3011 55.6345C78.848 71.827 69.8752 76.2576 62.8148 77.0811L62.5173 77.1129L62.2836 75.1101L53.9164 80.3164V80.3111Z" fill="#A1A3A7"/>
        <path d="M42.7066 80.46C52.2656 80.46 60.0147 72.7107 60.0147 63.1519C60.0147 53.5929 52.2656 45.8438 42.7066 45.8438C33.1475 45.8438 25.3984 53.5929 25.3984 63.1519C25.3984 72.7107 33.1475 80.46 42.7066 80.46Z" fill="#DDDEE0"/>
        <path fill-rule="evenodd" clip-rule="evenodd" d="M83.5205 29.8105C83.5205 38.9558 76.1069 46.3696 66.9614 46.3696C57.816 46.3696 50.4023 38.9558 50.4023 29.8105C50.4023 20.6652 57.816 13.2515 66.9614 13.2515C76.1069 13.2515 83.5205 20.6652 83.5205 29.8105ZM78 29.5C78 35.299 73.0752 40 67 40C60.9248 40 56 35.299 56 29.5C56 23.701 60.9248 19 67 19C73.0752 19 78 23.701 78 29.5Z" fill="white"/>
        <path d="M66.963 12.6406C57.4802 12.6406 49.793 20.3278 49.793 29.8106C49.793 39.2934 57.4802 46.9806 66.963 46.9806C76.4458 46.9806 84.133 39.2934 84.133 29.8106C84.133 20.3278 76.4458 12.6406 66.963 12.6406ZM66.963 46.3697C57.8308 46.3697 50.4039 38.9428 50.4039 29.8106C50.4039 20.6784 57.8308 13.2516 66.963 13.2516C76.0952 13.2516 83.522 20.6784 83.522 29.8106C83.522 38.9428 76.0952 46.3697 66.963 46.3697Z" fill="#A1A3A7"/>
        <path d="M66.9605 46.6249C58.0992 46.6249 50.9752 39.3574 49.8861 29.8108C49.8223 30.4749 49.7852 31.1442 49.7852 31.8295C49.7852 42.2314 57.5202 49.4564 67.003 49.4564C76.4858 49.4564 83.6311 42.3324 84.1252 31.8295C84.157 31.1495 84.088 30.4749 84.0242 29.8108C83.1052 39.2617 75.8164 46.6249 66.9498 46.6249H66.9605Z" fill="#A1A3A7"/>
        <path d="M66.9612 19.3025C72.7571 19.3025 77.4693 24.0147 77.4693 29.8106C77.4693 35.6066 72.7571 40.3187 66.9612 40.3187C61.1653 40.3187 56.4531 35.6066 56.4531 29.8106C56.4531 24.0147 61.1653 19.3025 66.9612 19.3025ZM66.9612 18.7712C60.8624 18.7712 55.9219 23.7119 55.9219 29.8106C55.9219 35.9094 60.8624 40.85 66.9612 40.85C73.0599 40.85 78.0006 35.9094 78.0006 29.8106C78.0006 23.7119 73.0599 18.7712 66.9612 18.7712Z" fill="#A1A3A7"/>
        <path d="M66.9612 22.4526C72.4278 22.4526 76.9593 26.4317 77.8359 31.6539C77.9368 31.0536 78.0006 30.4427 78.0006 29.8158C78.0006 23.717 73.0599 18.7764 66.9612 18.7764C60.8624 18.7764 55.9219 23.717 55.9219 29.8158C55.9219 30.4427 55.9856 31.0536 56.0866 31.6539C56.9631 26.437 61.4893 22.4526 66.9612 22.4526Z" fill="#A1A3A7"/>
        <path d="M33.1138 80.7467C42.2591 80.7467 49.6728 73.3331 49.6728 64.1877C49.6728 55.0424 42.2591 47.6287 33.1138 47.6287C23.9684 47.6287 16.5547 55.0424 16.5547 64.1877C16.5547 73.3331 23.9684 80.7467 33.1138 80.7467Z" fill="white"/>
        <path d="M33 75C39.0751 75 44 70.2991 44 64.5C44 58.701 39.0751 54 33 54C26.9249 54 22 58.701 22 64.5C22 70.2991 26.9249 75 33 75Z" fill="#F4F4F4"/>
        <path d="M33.1153 47.0178C23.6325 47.0178 15.9453 54.705 15.9453 64.1878C15.9453 73.6706 23.6325 81.3578 33.1153 81.3578C42.5981 81.3578 50.2853 73.6706 50.2853 64.1878C50.2853 54.705 42.5981 47.0178 33.1153 47.0178ZM33.1153 80.7469C23.9831 80.7469 16.5563 73.32 16.5563 64.1878C16.5563 55.0556 23.9831 47.6288 33.1153 47.6288C42.2475 47.6288 49.6744 55.0556 49.6744 64.1878C49.6744 73.32 42.2475 80.7469 33.1153 80.7469Z" fill="#A1A3A7"/>
        <path d="M33.1167 81.0072C24.2555 81.0072 17.1314 73.7397 16.0423 64.1931C15.9786 64.8572 15.9414 65.5266 15.9414 66.2119C15.9414 76.6137 23.6764 83.8387 33.1592 83.8387C42.642 83.8387 49.7873 76.7147 50.2814 66.2119C50.3133 65.5319 50.2442 64.8572 50.1805 64.1931C49.2614 73.6441 41.9727 81.0072 33.1061 81.0072H33.1167Z" fill="#A1A3A7"/>
        <path d="M33.1175 53.6797C38.9134 53.6797 43.6256 58.3919 43.6256 64.1878C43.6256 69.9837 38.9134 74.6959 33.1175 74.6959C27.3216 74.6959 22.6094 69.9837 22.6094 64.1878C22.6094 58.3919 27.3216 53.6797 33.1175 53.6797ZM33.1175 53.1484C27.0188 53.1484 22.0781 58.0891 22.0781 64.1878C22.0781 70.2866 27.0188 75.2272 33.1175 75.2272C39.2162 75.2272 44.1569 70.2866 44.1569 64.1878C44.1569 58.0891 39.2162 53.1484 33.1175 53.1484Z" fill="#A1A3A7"/>
        <path d="M33.1175 56.8298C38.5841 56.8298 43.1156 60.8089 43.9922 66.0311C44.0931 65.4308 44.1569 64.8198 44.1569 64.1929C44.1569 58.0942 39.2162 53.1536 33.1175 53.1536C27.0188 53.1536 22.0781 58.0942 22.0781 64.1929C22.0781 64.8198 22.1419 65.4308 22.2428 66.0311C23.1194 60.8142 27.6456 56.8298 33.1175 56.8298Z" fill="#A1A3A7"/>
    </g>
    <defs>
        <clipPath id="clip0_6119_18499">
            <rect width="100" height="100" fill="white"/>
        </clipPath>
    </defs>
</svg>
