<svg width="160" height="160" viewBox="0 0 160 160" fill="none" xmlns="http://www.w3.org/2000/svg">
<path d="M67.5 123C90.9726 123 110 103.972 110 80.5C110 57.028 90.9726 38 67.5 38C44.0279 38 25 57.028 25 80.5C25 103.972 44.0279 123 67.5 123Z" fill="#FFF4F6"/>
<path d="M55 90C71.5686 90 85 76.5686 85 60C85 43.4314 71.5686 30 55 30C38.4314 30 25 43.4314 25 60C25 76.5686 38.4314 90 55 90Z" fill="#FFB4BD"/>
<path d="M52.1882 86C51.8577 86 51.5916 85.7335 51.5916 85.4026C51.5916 85.0717 51.8577 84.8052 52.1882 84.796C53.6934 84.7868 55.1987 84.6581 56.6765 84.4191C56.9977 84.364 57.3098 84.5846 57.3648 84.9155C57.4199 85.2371 57.1996 85.5496 56.8692 85.6048C55.3364 85.8529 53.7669 85.9908 52.1973 86H52.1882ZM48.5168 85.7978C48.5168 85.7978 48.4709 85.7978 48.4433 85.7978C46.8922 85.614 45.341 85.3107 43.8449 84.8879C43.5236 84.796 43.3401 84.4651 43.4318 84.1526C43.5236 83.8309 43.8541 83.6471 44.1661 83.739C45.6072 84.1434 47.0941 84.4375 48.581 84.6122C48.9114 84.6489 49.1409 84.9522 49.1042 85.2739C49.0675 85.5772 48.8105 85.807 48.5076 85.807L48.5168 85.7978ZM60.3479 84.796C60.0909 84.796 59.8522 84.6305 59.7788 84.364C59.687 84.0423 59.8614 83.7114 60.1826 83.6195C61.6145 83.1967 63.028 82.6453 64.3864 82.0019C64.6801 81.8549 65.0381 81.9835 65.1849 82.2868C65.3318 82.5809 65.2033 82.9394 64.9004 83.0864C63.4961 83.7574 62.0184 84.3272 60.5223 84.7684C60.4672 84.7868 60.4121 84.796 60.3479 84.796ZM40.5406 83.6839C40.4672 83.6839 40.3846 83.6655 40.3111 83.6379C38.8793 83.0313 37.475 82.3052 36.1533 81.478C35.8687 81.3034 35.7861 80.9357 35.9605 80.6508C36.1349 80.3659 36.5021 80.2832 36.7866 80.4578C38.0624 81.2574 39.4025 81.956 40.7793 82.535C41.0821 82.6637 41.229 83.0129 41.1005 83.3162C40.9995 83.546 40.7793 83.6839 40.5498 83.6839H40.5406ZM67.8467 81.3585C67.654 81.3585 67.4612 81.2574 67.3419 81.0828C67.1675 80.8071 67.2409 80.4302 67.5255 80.2556C68.7829 79.4468 69.9945 78.5277 71.1143 77.5351C71.3621 77.3145 71.7384 77.3329 71.9587 77.581C72.179 77.8292 72.1514 78.206 71.9128 78.4266C70.7471 79.4652 69.4897 80.4211 68.1771 81.2574C68.0762 81.3218 67.966 81.3493 67.8559 81.3493L67.8467 81.3585ZM33.464 79.4284C33.3355 79.4284 33.1978 79.3825 33.0877 79.2905C31.8761 78.3071 30.738 77.2134 29.6916 76.0553C29.4713 75.8071 29.4897 75.4303 29.7375 75.2097C29.9853 74.9891 30.3616 75.0075 30.5819 75.2557C31.5824 76.3678 32.6838 77.4156 33.8403 78.3623C34.0973 78.5737 34.134 78.9505 33.9229 79.2078C33.8036 79.3549 33.6292 79.4284 33.4548 79.4284H33.464ZM74.0973 75.9726C73.9596 75.9726 73.8128 75.9266 73.7026 75.8255C73.4548 75.6049 73.4273 75.2281 73.6475 74.98C74.6388 73.8495 75.5475 72.6362 76.346 71.3679C76.5204 71.0921 76.8967 71.0094 77.1721 71.1841C77.4474 71.3587 77.5301 71.7355 77.3557 72.0112C76.5204 73.3256 75.575 74.5939 74.547 75.7704C74.4277 75.9082 74.2625 75.9726 74.0973 75.9726ZM27.8559 73.3807C27.6631 73.3807 27.4796 73.2888 27.3694 73.1234C26.4791 71.8366 25.6806 70.4763 25.0014 69.0793C24.8545 68.7852 24.983 68.4267 25.2767 68.2797C25.5704 68.1326 25.9284 68.2613 26.0753 68.5554C26.7269 69.9065 27.4979 71.2116 28.3515 72.4432C28.5443 72.719 28.4709 73.0866 28.2047 73.2796C28.1037 73.3531 27.9844 73.3899 27.8651 73.3899L27.8559 73.3807ZM78.6223 69.0609C78.5397 69.0609 78.4479 69.0425 78.3653 69.0058C78.0624 68.8679 77.9339 68.5095 78.0808 68.2062C78.7141 66.8459 79.2464 65.4305 79.6687 63.9875C79.7604 63.6658 80.1 63.4912 80.4121 63.5739C80.7334 63.6658 80.9169 63.9967 80.8251 64.3184C80.3938 65.8165 79.8339 67.2962 79.173 68.7117C79.072 68.9323 78.8518 69.0609 78.6315 69.0609H78.6223ZM24.1386 66.0095C23.8908 66.0095 23.6521 65.8533 23.5695 65.6051C23.0739 64.1253 22.6884 62.5996 22.4222 61.0555C22.3671 60.7338 22.5874 60.4214 22.9087 60.3662C23.2299 60.3111 23.542 60.5316 23.5971 60.8533C23.8449 62.3331 24.2212 63.8037 24.6985 65.2191C24.8086 65.5316 24.6342 65.8716 24.3222 65.9819C24.2579 66.0003 24.1937 66.0095 24.1294 66.0095H24.1386ZM81.0363 61.1658C81.0363 61.1658 80.972 61.1658 80.9445 61.1658C80.614 61.1107 80.3938 60.8074 80.4488 60.4857C80.6783 59.0059 80.7976 57.4986 80.7976 55.9913C80.7976 55.1365 80.7609 54.2726 80.6875 53.427C80.6599 53.0961 80.8986 52.8112 81.229 52.7744C81.5594 52.7468 81.844 52.9858 81.8807 53.3167C81.9541 54.199 82 55.0997 82 55.9913C82 57.5537 81.8807 59.1346 81.642 60.6695C81.5961 60.9636 81.3391 61.175 81.0546 61.175L81.0363 61.1658ZM22.6241 57.8938C22.3029 57.8938 22.0367 57.6457 22.0275 57.324C22.0092 56.8828 22 56.4324 22 55.9913C22 54.87 22.0643 53.7487 22.1836 52.6365C22.2203 52.3057 22.514 52.0667 22.8444 52.1035C23.1749 52.1402 23.4135 52.4343 23.3768 52.7652C23.2575 53.8314 23.2024 54.9067 23.2024 55.9821C23.2024 56.4141 23.2116 56.8368 23.2299 57.2688C23.2483 57.5997 22.9913 57.8754 22.6609 57.8938C22.6609 57.8938 22.6425 57.8938 22.6333 57.8938H22.6241ZM80.7242 50.3204C80.4488 50.3204 80.201 50.1274 80.1368 49.8517C79.8155 48.3903 79.3841 46.9381 78.8426 45.5319C78.7233 45.2194 78.8793 44.8793 79.1822 44.7598C79.4851 44.6403 79.8339 44.7966 79.9532 45.0999C80.5223 46.5521 80.972 48.0686 81.3024 49.5943C81.3759 49.916 81.1647 50.2377 80.8435 50.302C80.7976 50.3112 80.7609 50.3112 80.715 50.3112L80.7242 50.3204ZM23.4135 49.6678C23.3676 49.6678 23.3217 49.6678 23.2758 49.6495C22.9546 49.5759 22.7526 49.2451 22.8352 48.9234C23.2024 47.3977 23.6888 45.8995 24.2855 44.4565C24.414 44.1532 24.7627 44.0062 25.0656 44.1348C25.3685 44.2635 25.5154 44.6128 25.3869 44.9161C24.8086 46.3039 24.3405 47.7469 23.9917 49.1991C23.9275 49.4748 23.6797 49.6587 23.4135 49.6587V49.6678ZM77.8605 42.5816C77.6494 42.5816 77.4383 42.4713 77.3373 42.2691C76.6214 40.9547 75.8045 39.6772 74.8958 38.4915C74.6939 38.225 74.749 37.8574 75.006 37.6552C75.2721 37.453 75.6393 37.5081 75.8412 37.7655C76.7866 39.0062 77.6494 40.3298 78.3928 41.7084C78.5489 42.0025 78.4387 42.361 78.1542 42.5172C78.0624 42.5632 77.9614 42.5907 77.8697 42.5907L77.8605 42.5816ZM26.4608 41.9933C26.3598 41.9933 26.2588 41.9658 26.167 41.9106C25.8825 41.7452 25.7816 41.3775 25.9468 41.0926C26.7178 39.7415 27.6081 38.4364 28.581 37.214C28.7921 36.9566 29.1684 36.9107 29.4254 37.1221C29.6824 37.3335 29.7283 37.7103 29.5172 37.9677C28.581 39.1441 27.7274 40.3941 26.9839 41.69C26.8738 41.883 26.6719 41.9933 26.4608 41.9933ZM72.95 35.9456C72.7939 35.9456 72.6379 35.8813 72.5278 35.771C71.4722 34.7048 70.3341 33.703 69.1317 32.8115C68.8655 32.6185 68.8105 32.2416 69.0032 31.9751C69.196 31.7086 69.5723 31.6534 69.8385 31.8464C71.0867 32.7747 72.2799 33.8133 73.3722 34.9254C73.6017 35.1644 73.6017 35.5412 73.3722 35.771C73.2529 35.8813 73.106 35.9456 72.95 35.9456ZM31.5181 35.4677C31.3621 35.4677 31.2061 35.4034 31.0867 35.2839C30.8573 35.0449 30.8665 34.6681 31.0959 34.4383C32.2157 33.3538 33.4273 32.3427 34.7031 31.442C34.9693 31.249 35.3456 31.3133 35.5383 31.5891C35.7311 31.8556 35.6668 32.2324 35.3915 32.4255C34.1707 33.2894 33.005 34.2637 31.9312 35.3023C31.8118 35.4125 31.665 35.4677 31.5181 35.4677ZM66.3965 30.9273C66.2955 30.9273 66.1946 30.8997 66.1028 30.8538C64.7994 30.1185 63.4227 29.4751 62.0184 28.9604C61.7063 28.841 61.5503 28.5009 61.6696 28.1884C61.7797 27.8759 62.1285 27.7197 62.4406 27.8391C63.8999 28.3814 65.3318 29.0524 66.6902 29.8152C66.9748 29.9806 67.0757 30.3391 66.9197 30.6332C66.8095 30.8262 66.6076 30.9365 66.3965 30.9365V30.9273ZM38.1817 30.6056C37.9706 30.6056 37.7595 30.4953 37.6494 30.284C37.4933 29.9898 37.6035 29.6314 37.8972 29.4751C39.274 28.7399 40.7242 28.1057 42.1927 27.6002C42.5048 27.4899 42.8444 27.6553 42.9546 27.9678C43.0647 28.2803 42.8995 28.6204 42.5874 28.7307C41.1739 29.2178 39.788 29.8244 38.4663 30.5321C38.3745 30.5781 38.2827 30.6056 38.1817 30.6056ZM58.7049 27.931C58.7049 27.931 58.6131 27.931 58.5672 27.9127C57.1078 27.5726 55.6117 27.3428 54.1156 27.2325C53.7852 27.205 53.5374 26.92 53.5649 26.5892C53.5925 26.2583 53.8678 26.0101 54.2074 26.0377C55.7678 26.148 57.3281 26.387 58.8426 26.7454C59.1638 26.8189 59.3658 27.1406 59.2923 27.4623C59.2281 27.738 58.9803 27.9219 58.7141 27.9219L58.7049 27.931ZM45.9284 27.784C45.6531 27.784 45.4052 27.591 45.341 27.3061C45.2767 26.9844 45.4787 26.6627 45.7999 26.5983C47.3235 26.2767 48.8839 26.0745 50.4442 26.0009C50.7838 25.9825 51.0592 26.2399 51.0684 26.5708C51.0867 26.9016 50.8297 27.1866 50.4993 27.1958C49.0032 27.2693 47.4979 27.4623 46.0385 27.7748C45.9927 27.7748 45.9559 27.784 45.9192 27.784H45.9284Z" fill="#121312"/>
<path d="M56.0085 55.5757L55.5842 56L56.0085 56.4243L62.6577 63.0734C63.6474 64.0632 63.6474 65.6679 62.6577 66.6577C61.6679 67.6474 60.0632 67.6474 59.0734 66.6577L52.4243 60.0085L52 59.5842L51.5757 60.0085L44.9266 66.6577C43.9368 67.6474 42.3321 67.6474 41.3423 66.6577C40.3526 65.6679 40.3526 64.0632 41.3423 63.0734L47.9915 56.4243L48.4158 56L47.9915 55.5757L41.3423 48.9266C40.3526 47.9368 40.3526 46.3321 41.3423 45.3423C42.3321 44.3526 43.9368 44.3526 44.9266 45.3423L51.5757 51.9915L52 52.4158L52.4243 51.9915L59.0734 45.3423C60.0632 44.3526 61.6679 44.3526 62.6577 45.3423C63.6474 46.3321 63.6474 47.9368 62.6577 48.9266L56.0085 55.5757Z" stroke="#121312" stroke-width="1.2"/>
<path d="M144.472 102.172L144.356 102.299L125.471 121.184C124.69 121.965 123.423 121.965 122.642 121.184C121.902 120.444 121.863 119.269 122.525 118.483L122.642 118.356L138.114 102.884L76.0007 102.885C74.8961 102.885 74.0007 101.989 74.0007 100.885C74.0007 99.8304 74.8166 98.9666 75.8514 98.8903L76.0007 98.8848L138.114 98.884L122.642 83.4142C121.902 82.6743 121.863 81.4988 122.525 80.713L122.642 80.5858C123.382 79.8458 124.558 79.8069 125.343 80.469L125.471 80.5858L144.356 99.4708C145.096 100.211 145.135 101.386 144.472 102.172Z" stroke="#121312" stroke-linecap="round" stroke-linejoin="round" stroke-dasharray="3 3"/>
<path fill-rule="evenodd" clip-rule="evenodd" d="M94.9407 113.885C94.9407 114.407 94.5408 114.836 94.0316 114.881L93.9224 114.885L29.4126 114.886L46.5922 132.063C46.9575 132.428 46.9811 133.007 46.6626 133.399L46.5795 133.489C46.2136 133.843 45.6435 133.863 45.256 133.548L45.1629 133.462L26.2929 114.592C25.9276 114.227 25.9039 113.648 26.2224 113.256L26.3079 113.163L45.1779 94.2929C45.5684 93.9024 46.2016 93.9024 46.5921 94.2929C46.9575 94.6582 46.9812 95.237 46.6626 95.629L46.5771 95.7222L29.4127 112.886L93.9407 112.885C94.493 112.885 94.9407 113.333 94.9407 113.885Z" fill="#121312"/>
</svg>
