<svg width="320" height="320" viewBox="0 0 320 320" fill="none" xmlns="http://www.w3.org/2000/svg">
    <circle cx="160" cy="160" r="160" fill="black" />

    <path fill-rule="evenodd" clip-rule="evenodd" fill="white" transform="translate(-44.68594, -43.68594) scale(17, 17)"
        d="M4.89087 9.9569C3.76033 11.0875 3.76033 12.9205 4.89088 14.0511L9.99561 19.156C11.1261 20.2865 12.9591 20.2865 14.0897 19.156L19.1951 14.0504C20.3256 12.9198 20.3256 11.0868 19.1951 9.95624L14.0903 4.85135C12.9598 3.72077 11.1268 3.72077 9.99627 4.85135L4.89087 9.9569ZM8.05263 10.4862C7.85046 11.0216 7.74937 11.5945 7.74937 12.2048H8.53561C8.53561 11.7031 8.61611 11.2332 8.7771 10.7951C8.93809 10.3571 9.16648 9.97141 9.46226 9.63818C9.75804 9.30496 10.11 9.04474 10.5181 8.85753C10.9299 8.67032 11.3867 8.57672 11.8884 8.57672C12.3901 8.57672 12.86 8.67032 13.298 8.85753C13.7361 9.04848 14.1198 9.31057 14.4493 9.6438C14.7825 9.97703 15.0427 10.3627 15.2299 10.8007C15.4171 11.2388 15.5107 11.7068 15.5107 12.2048C15.5107 12.7028 15.4171 13.1689 15.2299 13.6032C15.0427 14.0413 14.7825 14.4269 14.4493 14.7602C14.1198 15.0934 13.7361 15.3536 13.298 15.5408C12.86 15.7318 12.3901 15.8272 11.8884 15.8272C11.6188 15.8272 11.3436 15.7935 11.0628 15.7261C10.7858 15.6588 10.5518 15.5539 10.3608 15.4116C10.1736 15.2694 10.08 15.0859 10.08 14.8613C10.08 14.6853 10.1399 14.5262 10.2597 14.3839C10.3795 14.2416 10.5293 14.1705 10.709 14.1705H13.9102L14.0056 13.5358H13.3654C13.5938 13.3861 13.7754 13.1783 13.9102 12.9124C14.0487 12.6466 14.118 12.3527 14.118 12.0307C14.118 11.6226 14.0169 11.2482 13.8147 10.9074C13.6163 10.5705 13.3486 10.3009 13.0116 10.0987C12.6746 9.90027 12.3002 9.80105 11.8884 9.80105C11.4765 9.80105 11.1003 9.90027 10.7596 10.0987C10.4226 10.3009 10.153 10.5705 9.95085 10.9074C9.75242 11.2482 9.6532 11.6226 9.6532 12.0307C9.6532 12.3602 9.72247 12.6503 9.861 12.9012C10.0033 13.1521 10.1923 13.3542 10.4282 13.5077C10.2148 13.5265 10.022 13.6051 9.84976 13.7436C9.67754 13.8822 9.54088 14.0544 9.43979 14.2603C9.34245 14.47 9.29378 14.6834 9.29378 14.9006C9.29378 15.1739 9.36866 15.4154 9.51842 15.6251C9.67192 15.8385 9.8741 16.0182 10.1249 16.1642C10.3795 16.3102 10.6603 16.4207 10.9674 16.4956C11.2744 16.5742 11.5814 16.6135 11.8884 16.6135C12.4949 16.6135 13.064 16.4993 13.5957 16.2709C14.1273 16.0463 14.5953 15.7318 14.9997 15.3274C15.404 14.9268 15.7204 14.4588 15.9488 13.9233C16.1809 13.3917 16.297 12.8188 16.297 12.2048C16.297 11.5945 16.1828 11.0216 15.9544 10.4862C15.726 9.95456 15.4096 9.48655 15.0053 9.08218C14.6009 8.67781 14.1311 8.36143 13.5957 8.13304C13.064 7.90465 12.4949 7.79045 11.8884 7.79045C11.2819 7.79045 10.7259 7.90465 10.2204 8.13304C9.71498 8.36143 9.27693 8.67781 8.90627 9.08218C8.53936 9.48655 8.25481 9.95456 8.05263 10.4862ZM10.5293 12.845C10.3683 12.6316 10.2878 12.377 10.2878 12.0812C10.2878 11.7929 10.359 11.5271 10.5012 11.2837C10.6435 11.0404 10.8344 10.8457 11.0741 10.6996C11.3174 10.5536 11.5889 10.4806 11.8884 10.4806C12.1842 10.4806 12.4519 10.5518 12.6915 10.694C12.9348 10.8401 13.1277 11.0329 13.2699 11.2725C13.4122 11.5159 13.4833 11.7854 13.4833 12.0812C13.4833 12.3957 13.4103 12.6597 13.2643 12.8731C13.122 13.0865 12.9348 13.2457 12.7027 13.3505C12.4706 13.4591 12.2216 13.5134 11.9558 13.5134C11.6787 13.5134 11.411 13.4553 11.1527 13.3393C10.8981 13.2232 10.6903 13.0585 10.5293 12.845Z"
    />
</svg>