<svg width="24" height="24" viewBox="0 0 24 24" fill="none" xmlns="http://www.w3.org/2000/svg">
<path fill-rule="evenodd" clip-rule="evenodd" d="M11.1824 12.5518C11.0544 12.6688 10.9404 12.7988 10.8404 12.9388C9.7944 14.4168 11.9264 16.1568 13.1654 14.8368C13.2834 14.7118 13.3874 14.5728 13.4764 14.4248L15.7214 10.1458C16.0274 9.63281 15.3684 9.09481 14.9264 9.49681L11.1824 12.5518" fill="#B2B5B2"/>
<path fill-rule="evenodd" clip-rule="evenodd" d="M1.9995 14.0001C1.9995 8.47715 6.47688 4.00011 11.9995 4.00011C17.5228 4.00011 21.9995 8.47682 21.9995 14.0001C21.9995 15.5569 21.6354 17.0667 20.9485 18.4451C20.7794 18.7846 20.4327 18.9991 20.0535 18.9991H3.9465C3.56701 18.9991 3.22022 18.7843 3.05118 18.4445C2.36429 17.0639 1.9995 15.5545 1.9995 14.0001ZM19.9995 14.0001C19.9995 9.58139 16.4182 6.00011 11.9995 6.00011C7.58142 6.00011 3.9995 9.58175 3.9995 14.0001C3.9995 15.0153 4.19447 16.0067 4.56719 16.9402L4.592 16.999H19.407L19.4328 16.941C19.7636 16.1126 19.9541 15.2371 19.9923 14.3382L19.9995 14.0001Z"/>
</svg>
