<?xml version="1.0" encoding="utf-8"?>
<svg xmlns="http://www.w3.org/2000/svg" width="114" height="92" viewBox="0 0 114 92">
    <g fill="none" fill-rule="evenodd">
        <g>
            <g>
                <g>
                    <path class="illustration-background-fill" fill="#F6F7F8" d="M59.004 0c25.405 0 46 20.595 46 46 0 25.406-20.595 46-46 46s-46-20.594-46-46c0-25.405 20.595-46 46-46" transform="translate(-796 -178) translate(796 178)"/>
                    <path class="illustration-main-fill" fill="#008C73" d="M26 30.002H16v-10c0-1.105-.896-2-2-2s-2 .895-2 2v10H2c-1.104 0-2 .896-2 2s.896 2 2 2h10v10c0 1.104.896 2 2 2s2-.896 2-2v-10h10c1.104 0 2-.896 2-2s-.896-2-2-2" transform="translate(-796 -178) translate(796 178)"/>
                    <path class="illustration-light-fill" fill="#B2B5B2" d="M109.991 66.798c0 1.22-.992 2.211-2.211 2.211H41.202c-1.218 0-2.211-.992-2.211-2.21v-48.58c0-1.218.993-2.21 2.211-2.21h66.578c1.219 0 2.211.992 2.211 2.21V66.8zm-14 9.2h8V73.01h-8V76zm-50.996.006h8V73.01h-8v2.995zm62.785-63.996H41.202c-3.424 0-6.211 2.787-6.211 6.211V66.8c0 3.353 2.676 6.09 6.004 6.2v5.005c0 1.105.896 2 2 2h12c1.105 0 2-.895 2-2V73.01h34.996V78c0 1.104.896 2 2 2h12c1.104 0 2-.896 2-2v-5c3.327-.114 6-2.847 6-6.2v-48.58c0-3.424-2.786-6.21-6.211-6.21z" transform="translate(-796 -178) translate(796 178)"/>
                    <path class="illustration-main-fill" fill="#008C73" d="M84.995 26.006c8.822 0 16 7.178 16 16 0 8.823-7.178 16-16 16s-16-7.177-16-16c0-8.822 7.178-16 16-16zm1.793 4.133c-.001.948-.738 1.732-1.675 1.808l-.15.006c-.956 0-1.74-.736-1.816-1.673l-.006-.131c-1.954.304-3.753 1.081-5.277 2.21l-.032-.03c.54.477.743 1.224.53 1.902l-.053.144c-.273.667-.912 1.104-1.594 1.125l-.146-.001c-.435.007-.855-.143-1.184-.42l-.111-.102c-1.093 1.507-1.844 3.278-2.14 5.197h-.016c.957 0 1.741.736 1.817 1.673l.006.15c0 .956-.737 1.74-1.673 1.817l-.136.006c.296 1.947 1.062 3.742 2.178 5.265.682-.59 1.679-.591 2.357-.029l.124.112c.636.633.712 1.627.179 2.371l-.095.121c1.524 1.127 3.322 1.902 5.275 2.204l.003.054c-.056-.635.223-1.248.727-1.624l.131-.089c.587-.362 1.329-.362 1.916 0 .542.335.866.925.867 1.52l-.006.147c1.962-.295 3.77-1.067 5.302-2.193l-.024-.023c-.658-.688-.672-1.755-.058-2.458l.115-.12c.687-.658 1.754-.671 2.45-.065l.093.09c1.12-1.522 1.89-3.317 2.19-5.264l.036.001c-1.007 0-1.823-.816-1.823-1.823 0-.956.737-1.74 1.674-1.817l.116-.005c-.298-1.96-1.072-3.766-2.2-5.295l-.012.012c-.299.292-.686.472-1.093.515l-.176.01c-.49.01-.963-.182-1.304-.528-.342-.34-.534-.803-.534-1.285 0-.429.152-.841.425-1.166l.12-.129c-1.531-1.124-3.338-1.895-5.297-2.19z" transform="translate(-796 -178) translate(796 178)"/>
                    <path class="illustration-main-fill" fill="#008C73" d="M84.995 39.006c-1.654 0-3 1.346-3 3s1.346 3 3 3 3-1.346 3-3-1.346-3-3-3m0 10c-3.86 0-7-3.141-7-7 0-3.86 3.14-7 7-7 3.859 0 7 3.14 7 7 0 3.859-3.141 7-7 7" transform="translate(-796 -178) translate(796 178)"/>
                    <path  class="illustration-light-fill" fill="#B2B5B2" d="M46.996 61.002c-1.104 0-2-.896-2-2v-33c0-1.105.896-2 2-2s2 .895 2 2v33c0 1.104-.896 2-2 2M55 61.002c-1.104 0-2-.896-2-2v-33c0-1.105.896-2 2-2s2 .895 2 2v33c0 1.104-.896 2-2 2" transform="translate(-796 -178) translate(796 178)"/>
                </g>
            </g>
        </g>
    </g>
</svg>
