<svg width="16" height="16" viewBox="0 0 16 16" fill="none" xmlns="http://www.w3.org/2000/svg">
<path fill-rule="evenodd" clip-rule="evenodd" d="M3.25934 8C3.58662 8 3.85193 8.22386 3.85193 8.5V13H12.1482V8.5C12.1482 8.22386 12.4135 8 12.7408 8C13.0681 8 13.3334 8.22386 13.3334 8.5V13.5C13.3334 13.7761 13.0681 14 12.7408 14H3.25934C2.93206 14 2.66675 13.7761 2.66675 13.5V8.5C2.66675 8.22386 2.93206 8 3.25934 8Z" fill="#162D45"/>
<path fill-rule="evenodd" clip-rule="evenodd" d="M2 5.80969C2 5.54669 2.24421 5.3335 2.54545 5.3335H13.4545C13.7558 5.3335 14 5.54669 14 5.80969V8.19064C14 8.45363 13.7558 8.66683 13.4545 8.66683H2.54545C2.24421 8.66683 2 8.45363 2 8.19064V5.80969ZM3.09091 6.28588V7.71445H12.9091V6.28588H3.09091Z" fill="#162D45"/>
<path fill-rule="evenodd" clip-rule="evenodd" d="M7.99992 5.3335C8.36811 5.3335 8.66659 5.56174 8.66659 5.8433V13.4904C8.66659 13.7719 8.36811 14.0002 7.99992 14.0002C7.63173 14.0002 7.33325 13.7719 7.33325 13.4904V5.8433C7.33325 5.56174 7.63173 5.3335 7.99992 5.3335Z" fill="#162D45"/>
<path fill-rule="evenodd" clip-rule="evenodd" d="M5.40732 3.14286C5.17158 3.14286 4.94548 3.23316 4.77879 3.39391C4.61209 3.55465 4.51844 3.77267 4.51844 4C4.51844 4.22733 4.61209 4.44535 4.77879 4.60609C4.94548 4.76684 5.17158 4.85714 5.40732 4.85714H7.27637C7.20403 4.67464 7.11245 4.47395 6.9992 4.27538C6.62647 3.62191 6.11482 3.14286 5.40732 3.14286ZM8.07399 5.42857C8.65507 5.31651 8.65503 5.31631 8.65499 5.3161L8.65489 5.31564L8.65465 5.3145L8.65401 5.31145L8.65202 5.30225C8.65038 5.29476 8.64811 5.2846 8.64517 5.27193C8.63931 5.24661 8.63079 5.21123 8.61937 5.16721C8.59658 5.0793 8.56208 4.95624 8.51393 4.80963C8.41831 4.51847 8.26558 4.1242 8.03767 3.72462C7.59558 2.94952 6.7739 2 5.40732 2C4.85725 2 4.3297 2.21071 3.94073 2.58579C3.55177 2.96086 3.33325 3.46957 3.33325 4C3.33325 4.53043 3.55177 5.03914 3.94073 5.41421C4.3297 5.78929 4.85725 6 5.40732 6H8.07399C8.25153 6 8.41971 5.92324 8.53227 5.79085C8.64482 5.65846 8.68989 5.48438 8.65507 5.31651L8.07399 5.42857Z" fill="#162D45"/>
<path fill-rule="evenodd" clip-rule="evenodd" d="M7.96217 3.72462C8.40426 2.94952 9.22594 2 10.5925 2C11.1426 2 11.6701 2.21071 12.0591 2.58579C12.4481 2.96086 12.6666 3.46957 12.6666 4C12.6666 4.53043 12.4481 5.03914 12.0591 5.41421C11.6701 5.78929 11.1426 6 10.5925 6H7.92585C7.74831 6 7.58013 5.92324 7.46757 5.79085C7.35502 5.65846 7.30995 5.48438 7.34476 5.31651L7.92585 5.42857C7.34476 5.31651 7.34481 5.31631 7.34485 5.3161L7.34495 5.31564L7.34518 5.3145L7.34583 5.31145L7.34782 5.30225C7.34946 5.29476 7.35173 5.2846 7.35467 5.27193C7.36053 5.24661 7.36905 5.21123 7.38046 5.16721C7.40326 5.0793 7.43776 4.95624 7.48591 4.80963C7.58152 4.51847 7.73426 4.1242 7.96217 3.72462ZM8.72347 4.85714H10.5925C10.8283 4.85714 11.0544 4.76684 11.2211 4.60609C11.3878 4.44535 11.4814 4.22733 11.4814 4C11.4814 3.77267 11.3878 3.55465 11.2211 3.39391C11.0544 3.23316 10.8283 3.14286 10.5925 3.14286C9.88502 3.14286 9.37336 3.62191 9.00064 4.27538C8.88738 4.47395 8.79581 4.67464 8.72347 4.85714ZM8.50673 5.5416C8.5067 5.54175 8.5067 5.54174 8.50674 5.54156L8.50673 5.5416Z" fill="#162D45"/>
</svg>
