<svg viewBox="0 0 1360 280" xmlns="http://www.w3.org/2000/svg"><path d="M137 9.84a128.75 128.75 0 1 0 128.7 128.75A128.76 128.76 0 0 0 137 9.84Zm94.23 135.78h-59.79a36.38 36.38 0 1 1 .28-12.66h59.46a6.33 6.33 0 0 1 0 12.66ZM1302.59 139.464c9.68 0 16.27 6.18 18.33 16.06h-37.71c2.06-10.09 9.48-16.06 19.38-16.06m49.64 25.54c0-29.87-20.8-51.1-49.24-51.1-30.48 0-51.91 21.64-51.91 52.13 0 31.32 22.24 52.33 52.74 52.33 22.87 0 36.87-7.62 45.32-18.13l-18.54-19a31.75 31.75 0 0 1-23.49 10.92c-12.36 0-22-6-24.1-17.5h68.6c.21-2.07.62-6.81.62-9.69m-155.13 51.55h32.35v-74.78h19.16v-26h-19.16v-14.59c0-8 3.7-10.92 9.47-10.92 2.89 0 8.25 1.44 12.57 3.71l6-23.29c-3.5-2.47-13.8-7.82-27.19-7.82-20.19 0-33.17 12.15-33.17 37.08v15.86h-9.68v26h9.68Zm-73.1-26.58c-12.77 0-21.63-9.47-21.63-23.69 0-14.42 9.27-23.9 21.63-23.9 12 0 21.22 10.09 21.22 23.9 0 14.42-9.68 23.69-21.22 23.69m-6.79 28.43c12.15 0 21.21-4.12 27.81-12.56l.41.2v10.51h30.7v-100.75h-32.35v10.51l-.41.21a36.005 36.005 0 0 0-27.82-12.58c-26 0-45.94 21.43-45.94 52.34 0 31.11 20 52.12 47.6 52.12m-109 0c24.32 0 53.77-12.36 53.77-46.77 0-28.22-19.77-34.82-45.53-44.7-15.86-6.18-21.21-9.89-21-16.9 0-7 5.15-11.32 13.6-11.32 8.24 0 17.3 3.91 29.87 13.79l19.37-25.13c-14-12-31.52-19.37-50.68-19-27.2.41-48 18.74-48 43.05 0 28.85 22.26 39.36 44.5 47 16.49 5.56 21.63 9.06 21.63 17.1 0 6.59-4.94 12.36-16.48 12.36-10.09 0-23.48-5.15-34.6-17.31l-20.2 24.52c15.66 16.07 35 23.28 53.77 23.28m-143.59 0c27.61 0 41-13.6 41-32.35 0-19.77-12.15-25.54-34.41-33.16-10.09-3.5-13.8-5.77-13.8-8.87 0-3.91 4.32-5.55 8-5.55 6.8 0 15.45 3.5 22.46 10.5l15.25-22.45c-11.75-8.65-22.87-12.58-38.12-12.58-21 0-37.7 11.75-37.7 32.15 0 19.36 14.83 27.6 31.73 32.75 12.57 3.92 15.66 6 15.66 9.28 0 3.7-3.3 6-9.69 6-9.27 0-17.92-3.71-26.37-11.33l-15.05 20.86c11.12 9.89 25.13 14.83 41 14.83m-84.46-1.85h32.14v-100.8h-32.15Zm16.06-113.31c11.13 0 19.37-8 19.37-18.55 0-10.09-8.24-18.13-19.37-18.13s-19.2 8.2-19.2 18.08c0 10.51 8 18.55 19.16 18.55m-70.42 115.16c27.61 0 41-13.6 41-32.35 0-19.77-12.16-25.54-34.4-33.16-10.1-3.5-13.81-5.77-13.81-8.87 0-3.91 4.33-5.55 8-5.55 6.79 0 15.45 3.5 22.45 10.5l15.24-22.45c-11.74-8.65-22.86-12.58-38.11-12.58-21 0-37.7 11.75-37.7 32.15 0 19.36 14.83 27.6 31.72 32.75 12.58 3.92 15.66 6 15.66 9.28 0 3.7-3.29 6-9.68 6-9.27 0-17.92-3.71-26.37-11.33l-15 20.81c11.12 9.89 25.14 14.83 41 14.83M625 189.934c-12.78 0-22-10.3-22-23.69 0-13.81 9.07-23.7 22-23.7 12.56 0 21.84 9.69 21.84 23.7 0 13.8-9.68 23.69-21.84 23.69m0 28.43c31.73 0 54.39-21.22 54.39-52.12 0-31.11-22.66-52.34-54.39-52.34-32.55 0-54.6 21.64-54.6 52.34 0 30.49 22.05 52.12 54.6 52.12m-165.43-1.85h32.13v-50.68c0-15.66 7.42-23.29 18.55-23.29 10.5 0 16.07 4.74 16.07 21.43v52.54h32.14v-60.37c0-31.93-15.25-42.24-36.06-42.24a39.053 39.053 0 0 0-30.28 13.61h-.42v-11.75h-32.13Zm-75.41 1.64c22.67 0 44.91-7.62 58.3-17.92v-65.72h-61.39v28.43h28.43v17.31a50.897 50.897 0 0 1-25.34 6.39c-24.93 0-39.55-19.37-39.55-43.07 0-27.19 17.31-43.06 38.11-43.06a49.284 49.284 0 0 1 35 14.43l24.3-20.6c-15-17.31-38.11-26.17-59.33-26.17-46.76 0-74.17 33-74.17 75.4 0 47.6 33.38 74.58 75.61 74.58"/></svg>