<svg width="46" height="10" viewBox="0 0 46 10" fill="none" xmlns="http://www.w3.org/2000/svg">
  <g clip-path="url(#clip0_726_47644)">
    <path d="M8.86914 9.34756V0.460938H10.5625V9.34756H8.86914Z" fill="black"/>
    <path d="M14.455 9.53526C12.4753 9.53526 11.1182 8.06869 11.1182 6.16707C11.1182 4.26543 12.4753 2.79883 14.455 2.79883C16.4347 2.79883 17.7919 4.26543 17.7919 6.16707C17.7919 8.06869 16.4347 9.53526 14.455 9.53526ZM14.455 8.24269C15.4885 8.24269 16.0737 7.40992 16.0737 6.16707C16.0737 4.92416 15.4885 4.079 14.455 4.079C13.4092 4.079 12.8364 4.92416 12.8364 6.16707C12.8364 7.40992 13.4092 8.24269 14.455 8.24269Z" fill="black"/>
    <path d="M21.2932 9.53526C19.2761 9.53526 18.0186 8.06869 18.0186 6.16707C18.0186 4.26543 19.2637 2.79883 21.206 2.79883C22.862 2.79883 23.883 3.75585 24.1071 5.13545H22.4511C22.3391 4.57616 21.9033 4.15358 21.2807 4.15358C20.2597 4.15358 19.7368 4.93659 19.7368 6.16707C19.7368 7.37264 20.2224 8.18054 21.2558 8.18054C21.9407 8.18054 22.4262 7.82007 22.5383 7.09921H24.1694C24.0573 8.45397 22.999 9.53526 21.2932 9.53526Z" fill="black"/>
    <path d="M28.8677 9.34756L27.0747 6.43923L26.3401 7.19737V9.34756H24.6592V0.460938H26.3401V5.38275L28.6062 2.97157H30.6357L28.2824 5.39518L30.922 9.34756H28.8677Z" fill="black"/>
    <path d="M35.0468 9.35007C34.9472 9.22579 34.885 8.9275 34.8476 8.64164H34.8227C34.499 9.12636 34.0383 9.49921 32.9426 9.49921C31.6352 9.49921 30.7139 8.81564 30.7139 7.54788C30.7139 6.14345 31.8593 5.69598 33.2788 5.49712C34.3371 5.34798 34.8227 5.26098 34.8227 4.77626C34.8227 4.31639 34.4616 4.0181 33.7519 4.0181C32.955 4.0181 32.5691 4.30396 32.5193 4.91298H31.0127C31.0625 3.79438 31.8967 2.8125 33.7643 2.8125C35.6818 2.8125 36.4538 3.67009 36.4538 5.16155V8.4055C36.4538 8.89021 36.5285 9.17607 36.6779 9.28793V9.35007H35.0468ZM33.3535 8.3185C34.3246 8.3185 34.8601 7.72188 34.8601 7.10045V6.14345C34.5612 6.31745 34.1005 6.41688 33.6772 6.51631C32.7932 6.71517 32.3574 6.91402 32.3574 7.51059C32.3574 8.10721 32.7558 8.3185 33.3535 8.3185Z" fill="black"/>
    <path d="M37.2803 9.34756V2.97157H38.9736V9.34756H37.2803ZM37.2803 1.97726V0.460938H38.9736V1.97726H37.2803Z" fill="black"/>
    <path d="M42.2058 9.53399C40.5996 9.53399 39.5039 8.22899 39.5039 6.1658C39.5039 4.17717 40.637 2.79756 42.2307 2.79756C43.1271 2.79756 43.6874 3.20771 44.036 3.74216H44.0734V0.460938H45.7668V9.34756H44.1357V8.51485H44.1108C43.7372 9.12385 43.1022 9.53399 42.2058 9.53399ZM42.5793 8.11713C43.5879 8.11713 44.1108 7.37137 44.1108 6.20309C44.1108 4.98504 43.7123 4.16474 42.6291 4.16474C41.6953 4.16474 41.2221 4.98504 41.2221 6.1658C41.2221 7.39623 41.7077 8.11713 42.5793 8.11713Z" fill="black"/>
    <path fill-rule="evenodd" clip-rule="evenodd" d="M6.22285 1.9113H0.137496V0.462891H6.22285C7.362 0.462891 8.28547 1.38501 8.28547 2.52252C8.28547 3.66002 7.362 4.58214 6.22285 4.58214H1.80974C1.64101 4.58214 1.50423 4.71873 1.50423 4.88719C1.50423 5.05571 1.64101 5.19229 1.80974 5.19229H6.22304C7.36209 5.19229 8.28547 6.11433 8.28547 7.25171C8.28547 8.38914 7.36209 9.31119 6.22304 9.31119H0.137496V7.86276H6.22304C6.561 7.86276 6.835 7.58919 6.835 7.25171C6.835 6.91424 6.561 6.64067 6.22304 6.64067H1.80974C0.839911 6.64067 0.0537109 5.85562 0.0537109 4.88719C0.0537109 3.91879 0.839911 3.13374 1.80974 3.13374H6.22285C6.5609 3.13374 6.835 2.86009 6.835 2.52252C6.835 2.18495 6.5609 1.9113 6.22285 1.9113Z" fill="black"/>
  </g>
  <defs>
    <clipPath id="clip0_726_47644">
      <rect width="45.7143" height="10" fill="white" transform="translate(0.0537109)"/>
    </clipPath>
  </defs>
</svg>