<svg width="16" height="16" viewBox="0 0 16 16" fill="none" xmlns="http://www.w3.org/2000/svg">
<path d="M3.41282 7.99368L6.7062 4.70826C7.09703 4.31837 7.09806 3.6852 6.7085 3.29404C6.31893 2.90289 5.6863 2.90186 5.29546 3.29174L1.2938 7.28374C0.902723 7.67388 0.901972 8.30752 1.29212 8.69858L5.29379 12.7096C5.68369 13.1004 6.31633 13.1009 6.70682 12.7106C7.09731 12.3204 7.09779 11.6872 6.70788 11.2964L3.41282 7.99368Z" fill="#A1A3A7"/>
<path d="M12.585 7.99453L9.29254 11.2922C8.90221 11.6832 8.90253 12.3167 9.29325 12.7073C9.68397 13.0978 10.3171 13.0975 10.7075 12.7066L14.7065 8.70117C15.0967 8.31029 15.0965 7.67688 14.7059 7.28629L10.7129 3.29289C10.3223 2.90223 9.68914 2.90239 9.29872 3.29325C8.90829 3.6841 8.90845 4.31765 9.29907 4.70831L12.585 7.99453Z" fill="#A1A3A7"/>
</svg>
