<svg width="10" height="10" viewBox="0 0 10 10" fill="none" xmlns="http://www.w3.org/2000/svg">
<path fill-rule="evenodd" clip-rule="evenodd" d="M3.43146 7.9899L6.0303 7.9899C6.58538 7.9899 7.03535 8.43988 7.03535 8.99495C7.03535 9.55002 6.58538 10 6.0303 10L1.00505 10C0.727513 10 0.476251 9.88751 0.294373 9.70563C0.112494 9.52375 0 9.27249 0 8.99495V3.9697C0 3.41462 0.449977 2.96465 1.00505 2.96465C1.56012 2.96465 2.0101 3.41462 2.0101 3.9697L2.0101 6.56854L8.28427 0.294373C8.67677 -0.0981245 9.31313 -0.0981245 9.70563 0.294373C10.0981 0.68687 10.0981 1.32323 9.70563 1.71573L3.43146 7.9899Z" fill="#00B460"/>
</svg>
