<svg width="136" height="140" viewBox="0 0 136 140" fill="none" xmlns="http://www.w3.org/2000/svg">
<path class="illustration-background-fill" fill-rule="evenodd" clip-rule="evenodd" d="M68 21C95.6141 21 118 43.3859 118 71C118 98.613 95.6141 121 68 121C40.387 121 18 98.613 18 71C18 43.3859 40.387 21 68 21Z" fill="#F4F4F4"/>
<path class="illustration-light-fill" fill-rule="evenodd" clip-rule="evenodd" d="M101.877 3C102.481 3 103.049 3.27239 103.427 3.73575L103.525 3.8668L118.012 24.9348C118.276 25.3187 118.384 25.7427 118.366 26.1515L118.347 26.3488L118.343 26.3719C118.324 26.4926 118.294 26.6112 118.254 26.7262L118.175 26.9175L85.9805 95.5397L85.9173 95.6588C85.578 96.2557 85.0015 96.586 84.3997 96.6496C84.3165 96.6585 84.2322 96.6623 84.1472 96.6607L83.9786 96.6506L83.8494 96.6329C83.2934 96.5418 82.7717 96.2196 82.4542 95.6669L82.3728 95.5105L50.1822 26.8946C49.93 26.341 49.9239 25.6734 50.2634 25.0811L50.3555 24.9347L64.8435 3.86674C65.1855 3.36937 65.7319 3.05554 66.3278 3.00669L66.4914 3H101.877ZM71.194 28.067L84.183 85.582L97.172 28.067H71.194ZM55.1503 28.0671L67.094 28.067L78.181 77.158L55.1503 28.0671ZM113.216 28.0671L101.273 28.067L90.187 77.153L113.216 28.0671ZM67.5433 6.9991L74.685 6.999L67.374 24.067L55.8063 24.0671L67.5433 6.9991ZM89.331 6.999H79.037L71.725 24.067H96.641L89.331 6.999ZM93.682 6.999L100.824 6.9991L112.561 24.0671L100.992 24.067L93.682 6.999Z" fill="#A1A3A7"/>
<path class="illustration-main-fill" d="M116.001 14C114.962 14 114.051 14.6835 113.759 15.6774L113.586 16.2682C112.083 21.3267 111.058 22.2123 105.691 23.7551C104.693 24.0392 104 24.9553 104 26C104 27.0414 104.69 27.9524 105.683 28.2426L106.273 28.4148C111.326 29.9159 112.212 30.9411 113.755 36.3096C114.049 37.3166 114.964 37.9989 116.001 37.9989C117.04 37.9989 117.96 37.3112 118.246 36.3048L118.503 35.4347C119.957 30.6389 121.043 29.7575 126.309 28.245C127.314 27.9537 128 27.0392 128 26C128 24.9575 127.31 24.0379 126.301 23.7527L125.432 23.4965C120.64 22.0429 119.759 20.9566 118.245 15.6893C117.958 14.6889 117.042 14 116.001 14Z" fill="#121312"/>
<path class="illustration-light-fill" fill-rule="evenodd" clip-rule="evenodd" d="M50 55C50 49.4772 45.5228 45 40 45C34.4772 45 30 49.4772 30 55C30 60.5228 34.4772 65 40 65C45.5228 65 50 60.5228 50 55ZM34 55C34 51.6863 36.6863 49 40 49C43.3137 49 46 51.6863 46 55C46 58.3137 43.3137 61 40 61C36.6863 61 34 58.3137 34 55Z" fill="#A1A3A7"/>
<path class="illustration-main-fill" fill-rule="evenodd" clip-rule="evenodd" d="M60.2448 88.3352C60.2369 88.6598 60.1482 88.9892 59.965 89.2955L59.8709 89.4396L37.2112 119.163C36.4442 120.17 34.9609 120.211 34.1342 119.289L34.0302 119.163L11.4421 89.5337C11.4053 89.4876 11.3706 89.44 11.3381 89.391C11.0806 89.0089 10.9774 88.5858 11.0001 88.1776C11.0136 87.8789 11.0966 87.5774 11.259 87.294C11.3099 87.2054 11.3662 87.1208 11.4286 87.0408L20.6601 74.568C21.003 74.1047 21.5271 73.8142 22.0959 73.7652L22.2677 73.7578H49.8887C50.5015 73.7578 51.0772 74.0385 51.4546 74.5136L51.5525 74.6479L59.9588 87.253C60.1444 87.5617 60.2347 87.8914 60.2443 88.2155L60.2448 88.3352ZM54.2001 90.2788H17.0401L35.621 114.652L54.2001 90.2788ZM23.276 77.7572H48.818L54.502 86.2782H16.969L23.276 77.7572Z" fill="#121312"/>
<path class="illustration-main-fill" d="M60 111.889C60 110.834 60.8159 109.97 61.8507 109.894L62 109.889L124.11 109.889L108.641 94.4176C107.902 93.6776 107.863 92.5021 108.525 91.7164L108.642 91.5891C109.382 90.8492 110.557 90.8104 111.343 91.4725L111.47 91.5893L130.354 110.475C131.094 111.215 131.133 112.391 130.471 113.176L130.354 113.304L111.47 132.188C110.689 132.969 109.423 132.969 108.641 132.188C107.902 131.448 107.863 130.272 108.525 129.486L108.641 129.359L124.11 113.889L62 113.889C60.8954 113.889 60 112.993 60 111.889Z" fill="#121312"/>
</svg>
