<svg width="10" height="10" viewBox="0 0 10 10" fill="none" xmlns="http://www.w3.org/2000/svg">
<path fill-rule="evenodd" clip-rule="evenodd" d="M6.56854 2.0101H3.9697C3.41462 2.0101 2.96465 1.56012 2.96465 1.00505C2.96465 0.449977 3.41462 0 3.9697 0H8.99495C9.27249 0 9.52375 0.112494 9.70563 0.294373C9.88751 0.476251 10 0.727514 10 1.00505V6.0303C10 6.58538 9.55002 7.03535 8.99495 7.03535C8.43988 7.03535 7.9899 6.58538 7.9899 6.0303V3.43146L1.71573 9.70563C1.32323 10.0981 0.686869 10.0981 0.294373 9.70563C-0.0981241 9.31313 -0.0981241 8.67677 0.294373 8.28427L6.56854 2.0101Z" fill="#FF5F72"/>
</svg>
