<svg width="73" height="66" viewBox="0 0 73 66" fill="none" xmlns="http://www.w3.org/2000/svg">
<path fill-rule="evenodd" clip-rule="evenodd" d="M36.5001 3.2085C53.672 3.2085 67.5927 17.153 67.5927 34.3543C67.5927 51.5556 53.672 65.5002 36.5001 65.5002C19.3288 65.5002 5.40747 51.5556 5.40747 34.3543C5.40747 17.153 19.3288 3.2085 36.5001 3.2085Z" class="illustration-background-fill" fill="#EEEFF0"/>
<path fill-rule="evenodd" clip-rule="evenodd" d="M44.5607 15.3105C43.2337 16.6369 42.5029 18.4007 42.5029 20.2772C42.5029 22.1544 43.2337 23.9182 44.5607 25.2446C45.9293 26.6138 47.7284 27.2985 49.5267 27.2985C51.3258 27.2985 53.1248 26.6138 54.4941 25.2446C55.8204 23.9182 56.5518 22.1544 56.5518 20.2772C56.5518 18.4007 55.8204 16.6369 54.4941 15.3105C53.1677 13.9842 51.4039 13.2534 49.5267 13.2534C47.6509 13.2534 45.8871 13.9842 44.5607 15.3105ZM46.1452 23.6601C44.2815 21.7945 44.2815 18.7606 46.1452 16.8957C47.0777 15.9632 48.3028 15.4969 49.5267 15.4969C50.7519 15.4969 51.9765 15.9632 52.909 16.8957C54.7733 18.7606 54.7733 21.7945 52.909 23.6601C51.9765 24.5926 50.7519 25.0588 49.5274 25.0588C48.3028 25.0588 47.0777 24.5926 46.1452 23.6601Z" class="illustration-main-fill" fill="#121312"/>
<path fill-rule="evenodd" clip-rule="evenodd" d="M34.3022 51.8426C34.1812 51.9624 34.0704 51.963 33.9474 51.8419L32.2195 50.114C32.2182 50.1127 32.2182 50.1115 32.2169 50.1108L19.6936 37.5881L17.9625 35.857C17.8651 35.759 17.8651 35.5995 17.9625 35.5015C25.9098 27.5523 41.0302 12.43 41.3568 12.1129C45.5031 8.31701 53.036 7.13281 57.8176 7.13281C59.9862 7.13281 61.588 7.37683 62.0516 7.73099C63.2083 9.23861 63.2096 22.421 57.7107 28.4297C57.386 28.7634 42.2573 43.8901 34.3022 51.8426ZM25.897 52.1359L17.6685 43.9081L19.2626 40.3267L29.4784 50.5425L25.897 52.1359ZM59.3464 29.9623C65.1629 23.6065 66.0961 8.60585 63.6412 6.15229C61.1979 3.70961 46.198 4.64339 39.8466 10.4561C39.7237 10.5675 29.2818 21.0094 20.7952 29.4979L12.7319 29.284L23.6074 18.4156L28.9302 18.6026C28.9442 18.6033 28.9571 18.6033 28.9705 18.6033C29.5712 18.6033 30.0689 18.1268 30.09 17.5215C30.1118 16.9029 29.6276 16.3841 29.0089 16.3623L23.6573 16.174C23.5984 16.1644 23.5376 16.1593 23.4774 16.1593C23.1168 16.1593 22.5743 16.2727 22.0338 16.8138L11.0719 27.7751C10.6319 28.2145 10.418 28.7224 10.418 29.3276C10.418 29.628 10.4942 29.8553 10.5518 30.0007C10.5608 30.0398 10.571 30.0788 10.5845 30.1173C10.8541 30.9242 11.7309 31.5333 12.5942 31.5327H12.5955L18.6093 31.6844C17.8344 32.46 17.0844 33.2094 16.3774 33.9177C15.4064 34.8893 15.4064 36.4705 16.378 37.4421L17.5641 38.6282L15.3078 43.6999C15.1189 44.1239 15.2105 44.6209 15.539 44.9482L24.8569 54.2654C25.0715 54.48 25.3584 54.594 25.6491 54.594C25.8028 54.594 25.9585 54.5619 26.1051 54.4972L31.1762 52.2403L32.363 53.4271C32.8337 53.8978 33.4601 54.1572 34.1255 54.1572C34.7915 54.1572 35.4173 53.8978 35.888 53.4271C36.5547 52.7604 37.3066 52.0085 38.12 51.1951L38.2718 57.1814C38.2718 58.0754 38.8815 58.9529 39.6903 59.2212C39.7275 59.2334 39.764 59.2443 39.8024 59.2519C39.935 59.3051 40.1668 59.3871 40.4781 59.3871C41.0808 59.3871 41.5886 59.1732 42.0299 58.7332L52.9918 47.7719C53.5317 47.232 53.6451 46.6883 53.6451 46.3283C53.6451 46.2726 53.6406 46.2169 53.6317 46.1612L53.4434 40.7961C53.4216 40.1774 52.8958 39.6875 52.2835 39.715C51.6648 39.7375 51.1807 40.2562 51.2031 40.8749L51.3907 46.2028L40.5108 57.0795L40.3065 49.0099C48.1302 41.1874 59.2337 30.0846 59.3464 29.9623Z" class="illustration-light-fill" fill="#A1A3A7"/>
<path fill-rule="evenodd" clip-rule="evenodd" d="M9.12079 61.805C8.83387 61.805 8.54694 61.6955 8.32855 61.4765C7.89048 61.039 7.89048 60.3294 8.32855 59.892L16.7927 51.4272C17.2308 50.9891 17.9404 50.9891 18.3778 51.4272C18.8159 51.8646 18.8159 52.5742 18.3778 53.0123L9.91302 61.4765C9.69463 61.6955 9.40771 61.805 9.12079 61.805Z" class="illustration-light-fill" fill="#A1A3A7"/>
<path fill-rule="evenodd" clip-rule="evenodd" d="M9.66815 53.8879C9.38123 53.8879 9.09431 53.7784 8.87591 53.5593C8.43785 53.1219 8.43785 52.4123 8.87591 51.9749L13.108 47.7421C13.5461 47.3047 14.255 47.3047 14.6931 47.7421C15.1305 48.1802 15.1305 48.8892 14.6931 49.3272L10.4604 53.5593C10.242 53.7784 9.95507 53.8879 9.66815 53.8879Z" class="illustration-light-fill" fill="#A1A3A7"/>
<path fill-rule="evenodd" clip-rule="evenodd" d="M17.0383 61.258C16.7513 61.258 16.4644 61.1485 16.246 60.9295C15.808 60.492 15.808 59.7824 16.246 59.345L20.4781 55.1122C20.9162 54.6748 21.6252 54.6748 22.0632 55.1122C22.5007 55.5503 22.5007 56.2593 22.0632 56.6974L17.8305 60.9295C17.6121 61.1485 17.3252 61.258 17.0383 61.258Z" class="illustration-light-fill" fill="#A1A3A7"/>
</svg>
