<svg width="120" height="111" viewBox="0 0 120 111" fill="none" xmlns="http://www.w3.org/2000/svg">
<path class="illustration-background-fill" fill-rule="evenodd" clip-rule="evenodd" d="M98 65C98 90.405 77.405 111 52 111C26.596 111 6 90.405 6 65C6 39.596 26.596 19 52 19C77.405 19 98 39.596 98 65Z" />
<path class="illustration-light-fill" fill-rule="evenodd" clip-rule="evenodd" d="M38.9538 65.261L25.7678 43.332L37.9458 50.44C38.2578 50.621 38.6048 50.712 38.9538 50.712C39.3028 50.712 39.6498 50.621 39.9618 50.44L52.1388 43.332L38.9538 65.261ZM38.9538 6.259L55.2448 36.888L38.9538 46.397L22.6618 36.888L38.9538 6.259ZM59.8938 37.887C59.9048 37.805 59.9048 37.723 59.9048 37.641C59.9058 37.579 59.9088 37.519 59.9048 37.458C59.9028 37.443 59.8988 37.428 59.8968 37.413C59.8638 37.073 59.7468 36.743 59.5488 36.46L40.7198 1.061C40.3728 0.408 39.6928 0 38.9538 0C38.2148 0 37.5348 0.408 37.1878 1.061L18.3578 36.46C18.1588 36.743 18.0428 37.073 18.0088 37.413C18.0068 37.428 18.0038 37.443 18.0028 37.458C17.9978 37.519 18.0008 37.579 18.0018 37.641C18.0008 37.723 18.0028 37.805 18.0128 37.887C18.0128 37.891 18.0138 37.894 18.0148 37.897C18.0598 38.257 18.2008 38.601 18.4308 38.889L37.2398 70.172C37.6008 70.774 38.2518 71.142 38.9538 71.142C39.6558 71.142 40.3068 70.774 40.6678 70.172L59.4768 38.889C59.7058 38.601 59.8468 38.257 59.8918 37.897C59.8928 37.894 59.8928 37.891 59.8938 37.887Z"/>
<path class="illustration-light-fill" fill-rule="evenodd" clip-rule="evenodd" d="M71.4055 45C76.6007 45 80.8115 49.212 80.8115 54.407C80.8115 59.6026 76.6011 63.813 71.4055 63.813C66.2106 63.813 61.9995 59.6023 61.9995 54.407C61.9995 49.2123 66.2111 45 71.4055 45ZM71.4055 59.813C74.392 59.813 76.8115 57.3934 76.8115 54.407C76.8115 51.4209 74.3913 49 71.4055 49C68.4204 49 65.9995 51.4213 65.9995 54.407C65.9995 57.393 68.4197 59.813 71.4055 59.813Z"/>
<path class="illustration-main-fill" d="M119.471 74.172L119.355 74.2992L100.47 93.1842C99.6886 93.9653 98.4223 93.9653 97.6412 93.1842C96.9013 92.4443 96.8623 91.2688 97.5244 90.483L97.6412 90.3558L113.113 74.884L50.9997 74.8848C49.8952 74.8848 48.9997 73.9894 48.9997 72.8848C48.9997 71.8304 49.8156 70.9666 50.8505 70.8903L50.9997 70.8848L113.113 70.884L97.6412 55.4142C96.9013 54.6743 96.8623 53.4988 97.5244 52.713L97.6412 52.5858C98.3812 51.8458 99.5566 51.8069 100.342 52.469L100.47 52.5858L119.355 71.4708C120.095 72.2107 120.134 73.3862 119.471 74.172Z" />
<path class="illustration-main-fill" d="M0.468954 84.6014L0.585787 84.4742L19.4708 65.5892C20.2518 64.8082 21.5182 64.8082 22.2992 65.5892C23.0392 66.3292 23.0781 67.5047 22.416 68.2904L22.2992 68.4177L6.827 83.8894L68.9407 83.8886C70.0453 83.8886 70.9407 84.7841 70.9407 85.8886C70.9407 86.943 70.1248 87.8068 69.09 87.8832L68.9407 87.8886L6.827 87.8894L22.2992 103.359C23.0392 104.099 23.0781 105.275 22.416 106.06L22.2992 106.188C21.5593 106.928 20.3838 106.967 19.598 106.304L19.4708 106.188L0.585787 87.3027C-0.154154 86.5627 -0.193098 85.3872 0.468954 84.6014Z" />
<path class="illustration-light-fill" fill-rule="evenodd" clip-rule="evenodd" d="M72.204 14C73.2174 14 74.1098 14.6699 74.3913 15.647L74.4704 15.9201L74.7 16.6825L74.8863 17.256L74.9234 17.3643L75.072 17.7772L75.147 17.972L75.2227 18.1592L75.3773 18.5121C76.0512 19.9651 76.8869 20.6706 78.5658 21.3116L78.8241 21.4073L79.2521 21.5555L79.714 21.7046L80.2115 21.8564L80.7467 22.0129C81.7333 22.2888 82.407 23.1887 82.407 24.204C82.407 25.1629 81.8078 26.01 80.9203 26.3377L80.7607 26.3901L80.2238 26.5471L79.7247 26.6994L79.1509 26.886L78.6294 27.072C76.9265 27.7131 76.078 28.41 75.3998 29.8471L75.2993 30.0683L75.1468 30.4357L74.9973 30.8331L74.9231 31.0437L74.7745 31.4898L74.6241 31.9707L74.3908 32.7617C74.1098 33.7371 73.2174 34.407 72.204 34.407C71.1925 34.407 70.3075 33.7409 70.0168 32.7603L69.9376 32.4871L69.7078 31.7245L69.5585 31.2613L69.4101 30.8321C68.6977 28.8532 67.9482 27.9752 66.2052 27.2418L65.9721 27.1468L65.5746 26.9972L65.1451 26.8486L64.6816 26.6991L64.1823 26.5468L63.6453 26.3898C62.6717 26.1093 62 25.2193 62 24.204C62 23.1887 62.6737 22.2888 63.6464 22.0169L63.9197 21.9377L64.4375 21.7833L64.9185 21.6327L65.471 21.4467L65.5752 21.4096L65.9727 21.2599C67.6784 20.5863 68.4863 19.8223 69.1703 18.1919L69.2629 17.9641L69.4129 17.5654L69.5617 17.1346L69.6364 16.9066L69.7874 16.424L70.0216 15.6303C70.3075 14.6661 71.1925 14 72.204 14Z" />
</svg>
