<svg width="15" height="16" viewBox="0 0 15 16" fill="none" xmlns="http://www.w3.org/2000/svg">
<path fill-rule="evenodd" clip-rule="evenodd" d="M13.5001 1.28327C13.1429 1.02109 12.6734 0.975449 11.9812 1.00747L11.6941 1.0263C10.2552 1.1447 8.77383 1.62729 7.84776 2.48291L7.78537 2.54454L7.72261 2.52835C5.62379 2.11276 3.66551 2.442 1.93707 3.24163C1.2095 3.57824 0.679068 3.92136 0.372021 4.16938C-0.0901094 4.54265 -0.126846 5.23413 0.293132 5.65427L2.48237 7.84454L2.23807 8.0905L2.14166 8.19559C1.3618 9.12525 2.01794 10.5368 3.24088 11.7611L3.38283 11.8996C4.61972 13.0767 6.01968 13.6548 6.91148 12.7655L7.15637 12.5195L9.34653 14.7096L9.44049 14.7926C9.86381 15.1224 10.485 15.0602 10.8317 14.631C11.0798 14.3238 11.423 13.7932 11.7598 13.0654C12.5593 11.3371 12.8888 9.37914 12.4738 7.28061L12.4592 7.21736L12.4966 7.17943L12.6307 7.02458C13.8574 5.51954 14.378 2.38611 13.7096 1.49109C13.6505 1.41183 13.5799 1.3418 13.5001 1.28327ZM8.57037 11.1045L10.6524 9.02539C10.663 10.1647 10.4009 11.2393 9.9446 12.2256L9.86198 12.3952L8.57037 11.1045ZM11.989 3.0112L11.8395 3.02135C10.8891 3.10428 9.90552 3.40472 9.35248 3.82648L9.22346 3.9344L3.87698 9.2792L3.89029 9.31186C3.98568 9.52523 4.1526 9.77925 4.37048 10.0374L4.50716 10.1925L4.65509 10.3469C4.962 10.6535 5.28377 10.8982 5.55773 11.046L5.69044 11.1117L5.72198 11.1252L11.0541 5.79465C11.4452 5.37032 11.7497 4.60899 11.9039 3.72883C11.9295 3.58253 11.9501 3.43735 11.9655 3.29755L11.9847 3.0924L11.989 3.0112ZM2.77683 5.05679L3.05306 4.9351C3.96336 4.55403 4.94463 4.33918 5.97923 4.3493L3.89737 6.43054L2.60498 5.1392L2.77683 5.05679Z" />
</svg>
