<svg width="16" height="17" viewBox="0 0 16 17" fill="none" xmlns="http://www.w3.org/2000/svg">
  <path d="M3.85378 11.9828C3.46711 12.4528 3.09378 12.9162 2.70711 13.3728C2.55378 13.5562 2.37711 13.7195 2.20711 13.8895C2.00711 14.0895 1.79378 14.1062 1.63044 13.9428C1.47044 13.7828 1.49044 13.5595 1.68711 13.3662C2.31378 12.7562 2.86044 12.0862 3.33711 11.3528C3.40378 11.2495 3.40044 11.1762 3.34378 11.0728C2.72711 9.92618 2.11711 8.77951 1.64044 7.56618C1.34044 6.79951 1.07044 6.01951 1.01711 5.18951C0.997109 4.85284 1.01044 4.49618 1.08711 4.16951C1.23378 3.53618 1.62711 3.09618 2.28378 2.97618C2.97378 2.84951 3.56044 3.07951 3.96711 3.65618C4.62378 4.59284 5.01378 5.63951 5.15378 6.77618C5.34711 8.31951 5.06044 9.76951 4.32378 11.1362C4.29711 11.1862 4.30711 11.2728 4.33044 11.3295C4.38711 11.4528 4.46044 11.5662 4.53044 11.6828C4.76044 12.0662 5.18378 12.1262 5.50378 11.8062C5.88378 11.4228 6.27044 11.0395 6.62378 10.6295C7.32044 9.81951 8.43044 10.0495 8.89378 10.8962C9.10044 11.2728 9.50044 11.3428 9.82711 11.0628C10.0138 10.9028 10.1938 10.7395 10.3804 10.5795C11.1271 9.93284 12.1904 10.2028 12.5371 11.1262C12.6571 11.4428 12.8304 11.5662 13.1771 11.5662C13.6504 11.5662 14.1238 11.5662 14.6004 11.5662C14.9004 11.5662 15.0804 11.8362 14.9638 12.0895C14.9004 12.2228 14.7871 12.3028 14.6438 12.3028C14.0904 12.3062 13.5371 12.3262 12.9871 12.2895C12.4171 12.2528 12.0438 11.9195 11.8504 11.3828C11.7371 11.0728 11.5071 10.9162 11.2038 10.9695C11.0938 10.9895 10.9771 11.0495 10.8871 11.1228C10.6971 11.2695 10.5204 11.4328 10.3438 11.5962C9.61044 12.2695 8.63378 11.9662 8.22044 11.2295C8.12044 11.0528 7.99378 10.9162 7.78711 10.8795C7.55711 10.8395 7.37044 10.9162 7.21378 11.0862C6.84044 11.4862 6.45378 11.8728 6.08378 12.2762C5.40378 13.0162 4.31378 12.8362 3.88044 12.0295C3.87044 12.0128 3.85711 11.9962 3.85044 11.9862L3.85378 11.9828ZM3.81711 10.4295C3.84044 10.4095 3.85044 10.4028 3.85378 10.3962C3.86378 10.3795 3.87378 10.3595 3.88044 10.3395C4.81044 8.17284 4.64711 6.09284 3.38378 4.10618C3.16711 3.76618 2.83044 3.63284 2.43711 3.69951C2.04378 3.76284 1.86378 4.05618 1.78044 4.40951C1.66711 4.88951 1.74378 5.36284 1.86044 5.82951C2.26711 7.46284 3.05044 8.93951 3.81711 10.4328V10.4295Z" fill="currentColor"/>
</svg>