<svg xmlns="http://www.w3.org/2000/svg" width="156" height="36" viewBox="0 0 156 36" fill="none">
    <path d="M26.44 10.5264L36.2192 5.0791L36.2272 15.6628L28.6515 19.8822C23.4842 22.7607 20.5065 26.5363 19.303 29.8889C18.0999 33.2405 18.2769 35.1624 18.2383 36.0001C18.2383 30.6644 18.2557 29.0686 18.2557 24.576C18.2557 23.469 18.383 22.2511 18.5324 21.6682C18.5324 21.6682 19.8185 14.2149 26.44 10.5264Z" fill="#9573F5"/>
    <path d="M18.2339 24.806L18.2389 35.9998L8.9869 30.8604L8.98287 22.1889C8.98018 16.2743 7.12904 11.8363 4.78465 9.15446C2.44093 6.47362 0.67608 5.66338 -0.0371094 5.22217C4.5805 7.7002 5.80206 8.36875 9.73972 10.4841C10.7151 11.0079 11.985 12.0052 12.4216 12.4192C12.4216 12.4192 18.2305 17.2265 18.2339 24.806Z" fill="#6837F1"/>
    <path d="M26.4244 10.5263C30.3718 8.35749 33.2391 6.73166 36.2188 5.07896C35.4679 5.45806 33.8662 6.56109 30.3327 7.16213C26.7975 7.76349 21.8283 7.63389 16.7078 4.53837L9.2008 0L-0.0371094 5.22368L10.0631 10.6448C12.5787 12.1548 18.8594 14.6825 26.4244 10.5263Z" fill="#D2C3FB"/>
    <path d="M57.79 13.9142H54.3985V19.3746C54.3985 20.1547 54.5485 20.7148 54.8486 21.0547C55.1688 21.3747 55.7192 21.5348 56.4994 21.5348C56.8797 21.5348 57.3097 21.5048 57.79 21.4447V24.8351C56.8095 25.055 55.9592 25.165 55.2388 25.165C53.6781 25.165 52.4676 24.705 51.6072 23.7849C50.7669 22.8449 50.3466 21.4447 50.3466 19.5846V13.9142H48.0957V10.7939H50.3466V7.22363H54.3985V10.7939H57.79V13.9142Z" fill="#191919"/>
    <path d="M66.5679 10.314C67.8285 10.314 68.9891 10.574 70.0496 11.094C71.13 11.6141 72.0004 12.4541 72.6607 13.6142C73.321 14.7743 73.6512 16.2444 73.6512 18.0246C73.6512 18.4446 73.6412 18.7646 73.6211 18.9846H63.4765C63.6366 19.8847 63.9767 20.6049 64.497 21.1449C65.0171 21.6849 65.7276 21.955 66.628 21.955C67.9685 21.955 68.869 21.3748 69.3292 20.2148H73.4111C73.0308 21.8748 72.2205 23.135 70.98 23.995C69.7594 24.855 68.2987 25.2851 66.598 25.2851C65.2974 25.2851 64.0969 25.0251 62.9964 24.505C61.8959 23.965 61.0054 23.135 60.325 22.0148C59.6448 20.8748 59.3047 19.4547 59.3047 17.7545C59.3047 16.0744 59.6448 14.6843 60.325 13.5842C61.0054 12.4641 61.8959 11.6441 62.9964 11.124C64.0969 10.584 65.2874 10.314 66.5679 10.314ZM66.5379 13.6442C65.6576 13.6442 64.9672 13.9142 64.467 14.4543C63.9668 14.9743 63.6366 15.6844 63.4765 16.5844H69.5693C69.2492 14.6243 68.2386 13.6442 66.5379 13.6442Z" fill="#191919"/>
    <path d="M84.1642 10.374C85.6849 10.374 86.8455 10.8541 87.6458 11.8141C88.4462 12.7742 88.8463 14.0943 88.8463 15.7745V24.8052H84.7945V16.7645C84.7945 15.8645 84.5844 15.1744 84.1642 14.6944C83.764 14.2143 83.1637 13.9743 82.3634 13.9743C81.563 13.9743 80.9427 14.2243 80.5025 14.7244C80.0824 15.2244 79.8722 15.9045 79.8722 16.7645V24.8052H75.8203V10.7941H79.8722V12.7142C80.2324 12.1142 80.7726 11.5741 81.493 11.0941C82.2333 10.6141 83.1237 10.374 84.1642 10.374Z" fill="#191919"/>
    <path d="M101.149 6.59375H105.23V24.8052H101.178V23.2751C100.698 23.8951 100.088 24.3752 99.3476 24.7151C98.6274 25.0552 97.827 25.2253 96.9465 25.2253C95.7859 25.2253 94.7555 24.9452 93.8551 24.3851C92.9547 23.8052 92.2544 22.9551 91.7541 21.8349C91.2539 20.7149 91.0039 19.3748 91.0039 17.8147C91.0039 15.4545 91.5441 13.6243 92.6245 12.3242C93.725 11.0241 95.1658 10.374 96.9465 10.374C97.827 10.374 98.6274 10.5441 99.3476 10.8841C100.068 11.2241 100.668 11.7042 101.149 12.3242V6.59375ZM98.2371 21.8049C99.2976 21.8049 100.088 21.4349 100.608 20.6948C101.149 19.9548 101.419 18.9947 101.419 17.8147C101.419 16.6345 101.149 15.6745 100.608 14.9344C100.088 14.1744 99.2976 13.7943 98.2371 13.7943C97.1766 13.7943 96.3964 14.1544 95.8961 14.8744C95.3959 15.5945 95.1457 16.5745 95.1457 17.8147C95.1457 19.0547 95.3959 20.0349 95.8961 20.7549C96.3964 21.455 97.1766 21.8049 98.2371 21.8049Z" fill="#191919"/>
    <path d="M114.631 10.314C115.891 10.314 117.052 10.574 118.112 11.094C119.193 11.6141 120.063 12.4541 120.723 13.6142C121.384 14.7743 121.714 16.2444 121.714 18.0246C121.714 18.4446 121.704 18.7646 121.684 18.9846H111.539C111.699 19.8847 112.039 20.6049 112.56 21.1449C113.08 21.6849 113.79 21.955 114.691 21.955C116.031 21.955 116.932 21.3748 117.392 20.2148H121.474C121.094 21.8748 120.283 23.135 119.043 23.995C117.822 24.855 116.361 25.2851 114.66 25.2851C113.36 25.2851 112.159 25.0251 111.059 24.505C109.958 23.965 109.068 23.135 108.388 22.0148C107.707 20.8748 107.367 19.4547 107.367 17.7545C107.367 16.0744 107.707 14.6843 108.388 13.5842C109.068 12.4641 109.958 11.6441 111.059 11.124C112.159 10.584 113.35 10.314 114.631 10.314ZM114.601 13.6442C113.72 13.6442 113.03 13.9142 112.53 14.4543C112.029 14.9743 111.699 15.6844 111.539 16.5844H117.632C117.312 14.6243 116.301 13.6442 114.601 13.6442Z" fill="#191919"/>
    <path d="M127.901 13.2242C128.361 12.2442 128.911 11.5241 129.551 11.0641C130.192 10.604 130.942 10.374 131.802 10.374C132.163 10.374 132.613 10.424 133.153 10.524V14.7544H133.033C132.453 14.5144 131.882 14.3943 131.322 14.3943C130.342 14.3943 129.532 14.7444 128.891 15.4444C128.251 16.1245 127.931 17.0746 127.931 18.2947V24.8052H123.879V10.7941H127.901V13.2242Z" fill="#191919"/>
    <path d="M139.048 24.8049H134.996V6.56348H139.048V24.8049Z" fill="#191919"/>
    <path d="M148.056 20.4248L151.117 10.7939H155.499L148.416 29.6354H143.974L146.015 25.0151L140.672 10.7939H145.054L148.056 20.4248Z" fill="#191919"/>
</svg>
