<svg width="16" height="16" viewBox="0 0 16 16" fill="none" xmlns="http://www.w3.org/2000/svg">
<path fill-rule="evenodd" clip-rule="evenodd" d="M14.4672 8.86459C14.2078 8.60459 13.7838 8.60459 13.5245 8.86459L11.9978 10.3913V3.99992C11.9978 3.63325 11.6978 3.33325 11.3312 3.33325C10.9638 3.33325 10.6645 3.63325 10.6645 3.99992V10.3913L9.13717 8.86459C8.87783 8.60525 8.45383 8.60525 8.1945 8.86459C7.93517 9.12392 7.93517 9.54792 8.1945 9.80725L10.8598 12.4719C10.8985 12.5119 10.9478 12.5333 10.9932 12.5606C11.0212 12.5773 11.0438 12.6013 11.0745 12.6146C11.1018 12.6266 11.1325 12.6266 11.1612 12.6333C11.3025 12.6713 11.4518 12.6706 11.5878 12.6146C11.6172 12.6019 11.6392 12.5786 11.6665 12.5619C11.7132 12.5346 11.7618 12.5126 11.8025 12.4719L14.4672 9.80725C14.7265 9.54792 14.7265 9.12392 14.4672 8.86459Z" fill="#A1A3A7"/>
<path fill-rule="evenodd" clip-rule="evenodd" d="M7.80042 7.12833C7.54109 7.38833 7.11709 7.38833 6.85775 7.12833L5.33109 5.60167V11.993C5.33109 12.3597 5.03109 12.6597 4.66442 12.6597C4.29709 12.6597 3.99775 12.3597 3.99775 11.993V5.60167L2.47042 7.12833C2.21109 7.38767 1.78709 7.38767 1.52775 7.12833C1.26842 6.869 1.26842 6.445 1.52775 6.18567L4.19309 3.521C4.23175 3.481 4.28109 3.45967 4.32642 3.43233C4.35442 3.41567 4.37709 3.39167 4.40775 3.37833C4.43509 3.36633 4.46575 3.36633 4.49442 3.35967C4.63575 3.32167 4.78509 3.32233 4.92109 3.37833C4.95042 3.391 4.97242 3.41433 4.99975 3.431C5.04642 3.45833 5.09509 3.48033 5.13575 3.521L7.80042 6.18567C8.05975 6.445 8.05975 6.869 7.80042 7.12833Z" fill="#A1A3A7"/>
</svg>
