<svg width="16" height="16" viewBox="0 0 16 16" fill="none" xmlns="http://www.w3.org/2000/svg">
<path fill-rule="evenodd" clip-rule="evenodd" d="M8.00016 3.3335C4.9695 3.3335 2.3815 5.26816 1.3335 8.00016C2.3815 10.7322 4.9695 12.6668 8.00016 12.6668C11.0302 12.6668 13.6182 10.7322 14.6668 8.00016C13.6182 5.26816 11.0302 3.3335 8.00016 3.3335M8.00016 4.66683C10.2355 4.66683 12.2315 5.95883 13.2155 8.00016C12.2315 10.0415 10.2355 11.3335 8.00016 11.3335C5.76416 11.3335 3.76816 10.0415 2.78483 8.00016C3.76816 5.95883 5.76416 4.66683 8.00016 4.66683" fill="#B2BBC0"/>
<path fill-rule="evenodd" clip-rule="evenodd" d="M8.0009 5.32324C6.52756 5.32324 5.33423 6.51724 5.33423 7.98991C5.33423 9.46324 6.52756 10.6566 8.0009 10.6566C9.47356 10.6566 10.6676 9.46324 10.6676 7.98991C10.6676 6.51724 9.47356 5.32324 8.0009 5.32324M8.0009 6.65658C8.73623 6.65658 9.33423 7.25458 9.33423 7.98991C9.33423 8.72591 8.73623 9.32324 8.0009 9.32324C7.26556 9.32324 6.66756 8.72591 6.66756 7.98991C6.66756 7.25458 7.26556 6.65658 8.0009 6.65658" fill="#B2BBC0"/>
</svg>
