<svg width="14" height="14" viewBox="0 0 14 14" fill="none" xmlns="http://www.w3.org/2000/svg">
<path fill-rule="evenodd" clip-rule="evenodd" d="M10.7286 5.02816L9.00792 3.29283L10.6539 1.6795L12.3186 3.35883C12.3226 3.36283 12.3153 3.42683 12.3199 3.43083L10.7286 5.02816ZM3.39325 12.3335H1.66659V10.5862L8.05659 4.2275L9.78658 5.97216L3.39325 12.3335ZM13.6666 3.3715C13.6619 3.00083 13.5146 2.65816 13.2653 2.42016L11.6126 0.753496C11.3666 0.490829 11.0159 0.338163 10.6493 0.333496H10.6313C10.2639 0.333496 9.90792 0.481496 9.65259 0.738163L0.529919 9.83616C0.404585 9.96083 0.333252 10.1315 0.333252 10.3088V13.0002C0.333252 13.3688 0.631252 13.6668 0.999919 13.6668H3.66859C3.84525 13.6668 4.01392 13.5975 4.13859 13.4728L13.2653 4.3715C13.5253 4.10883 13.6719 3.74416 13.6666 3.3715Z" fill="#008C73"/>
</svg>
