<svg width="12" height="14" viewBox="0 0 12 14" fill="none" xmlns="http://www.w3.org/2000/svg">
<path fill-rule="evenodd" clip-rule="evenodd" d="M4.66667 11.0067C5.03533 11.0067 5.33333 10.7087 5.33333 10.34V6.34001C5.33333 5.97134 5.03533 5.67334 4.66667 5.67334C4.298 5.67334 4 5.97134 4 6.34001V10.34C4 10.7087 4.298 11.0067 4.66667 11.0067Z" fill="#F02525"/>
<path fill-rule="evenodd" clip-rule="evenodd" d="M7.3339 11.0067C7.70257 11.0067 8.00057 10.7087 8.00057 10.34V6.34001C8.00057 5.97134 7.70257 5.67334 7.3339 5.67334C6.96524 5.67334 6.66724 5.97134 6.66724 6.34001V10.34C6.66724 10.7087 6.96524 11.0067 7.3339 11.0067Z" fill="#F02525"/>
<path fill-rule="evenodd" clip-rule="evenodd" d="M9.00842 12.0337C8.99976 12.203 8.83642 12.3357 8.67709 12.3343H3.31242C3.15909 12.317 3.00509 12.2037 2.99642 12.029L2.56442 4.33301H9.42242L9.00842 12.0337ZM4.66442 2.07701C4.66442 1.85434 4.85309 1.66634 5.07576 1.66634H6.92109C7.14776 1.66634 7.33242 1.85101 7.33242 2.07701V2.99967H4.66442V2.07701ZM11.3331 2.99967H10.1744C10.1704 2.99967 10.1664 2.99634 10.1618 2.99634C10.1538 2.99567 10.1471 2.99967 10.1384 2.99967H8.66576V2.07701C8.66576 1.11567 7.88376 0.333008 6.92109 0.333008H5.07576C4.11376 0.333008 3.33109 1.11567 3.33109 2.07701V2.99967H0.666423C0.298423 2.99967 -0.000244141 3.29767 -0.000244141 3.66634C-0.000244141 4.03501 0.298423 4.33301 0.666423 4.33301H1.22976L1.66509 12.0977C1.70709 12.971 2.43909 13.6683 3.29176 13.6683C3.30376 13.6683 3.31576 13.6677 3.32776 13.6677H8.66109H8.69909C9.56576 13.6677 10.2984 12.9717 10.3404 12.1023L10.7578 4.33301H11.3331C11.7018 4.33301 11.9998 4.03501 11.9998 3.66634C11.9998 3.29767 11.7018 2.99967 11.3331 2.99967Z" fill="#F02525"/>
<defs>
<filter id="filter0_d_312_665" x="-34" y="-74" width="170" height="125" filterUnits="userSpaceOnUse" color-interpolation-filters="sRGB">
<feFlood flood-opacity="0" result="BackgroundImageFix"/>
<feColorMatrix in="SourceAlpha" type="matrix" values="0 0 0 0 0 0 0 0 0 0 0 0 0 0 0 0 0 0 127 0" result="hardAlpha"/>
<feOffset dy="4"/>
<feGaussianBlur stdDeviation="8"/>
<feComposite in2="hardAlpha" operator="out"/>
<feColorMatrix type="matrix" values="0 0 0 0 0 0 0 0 0 0 0 0 0 0 0 0 0 0 0.14 0"/>
<feBlend mode="normal" in2="BackgroundImageFix" result="effect1_dropShadow_312_665"/>
<feBlend mode="normal" in="SourceGraphic" in2="effect1_dropShadow_312_665" result="shape"/>
</filter>
</defs>
</svg>
