<svg width="21" height="21" viewBox="0 0 18 21" fill="none" xmlns="http://www.w3.org/2000/svg">
<path fill-rule="evenodd" clip-rule="evenodd" d="M13.3611 14.7894L10.0761 13.4924C9.5631 13.2884 8.9801 13.5414 8.7791 14.0554C8.5761 14.5684 8.8281 15.1494 9.3411 15.3514L10.5071 15.8124C9.8321 16.0474 9.1211 16.1824 8.3971 16.1824H8.3821C6.1131 16.1774 3.9921 14.9544 2.8451 12.9914C2.5681 12.5154 1.9551 12.3534 1.4781 12.6324C1.0011 12.9104 0.840104 13.5224 1.1191 13.9994C2.6211 16.5724 5.4021 18.1754 8.3791 18.1824H8.3971C9.3531 18.1824 10.2941 18.0034 11.1871 17.6894L10.8271 18.6504C10.6331 19.1674 10.8951 19.7434 11.4131 19.9374C11.5281 19.9804 11.6461 20.0014 11.7631 20.0014C12.1681 20.0014 12.5491 19.7544 12.7001 19.3514L13.9301 16.0694C14.1221 15.5594 13.8691 14.9894 13.3611 14.7894Z" />
<path fill-rule="evenodd" clip-rule="evenodd" d="M12.793 3.682C13.472 3.682 14.023 4.234 14.023 4.912C14.023 5.59 13.472 6.142 12.793 6.142C12.115 6.142 11.564 5.59 11.564 4.912C11.564 4.234 12.115 3.682 12.793 3.682ZM5.205 2C5.883 2 6.435 2.552 6.435 3.23C6.435 3.909 5.883 4.46 5.205 4.46C4.526 4.46 3.975 3.909 3.975 3.23C3.975 2.552 4.526 2 5.205 2ZM17.935 11.007C17.309 9.339 16.124 8.101 14.707 7.499C15.501 6.911 16.023 5.974 16.023 4.912C16.023 3.131 14.574 1.682 12.793 1.682C11.013 1.682 9.564 3.131 9.564 4.912C9.564 5.974 10.086 6.911 10.88 7.499C10.483 7.667 10.102 7.873 9.75 8.138C9.089 7.068 8.172 6.264 7.118 5.818C7.912 5.229 8.435 4.292 8.435 3.23C8.435 1.45 6.985 0 5.205 0C3.424 0 1.975 1.45 1.975 3.23C1.975 4.292 2.497 5.229 3.291 5.818C1.874 6.418 0.688998 7.658 0.0639976 9.326C-0.130002 9.843 0.131998 10.419 0.647998 10.614C1.165 10.804 1.742 10.546 1.937 10.029C2.533 8.438 3.816 7.41 5.205 7.41C6.493 7.41 7.684 8.301 8.326 9.699C8.064 10.101 7.831 10.533 7.652 11.008C7.459 11.525 7.721 12.101 8.238 12.295C8.354 12.338 8.472 12.359 8.589 12.359C8.993 12.359 9.375 12.112 9.525 11.709C10.122 10.119 11.404 9.091 12.793 9.091C14.182 9.091 15.465 10.119 16.062 11.71C16.256 12.228 16.832 12.487 17.35 12.295C17.866 12.101 18.128 11.525 17.935 11.007Z" />
</svg>
