<svg width="16" height="16" viewBox="0 0 16 16" fill="none" xmlns="http://www.w3.org/2000/svg">
<path fill-rule="evenodd" clip-rule="evenodd" d="M14.6667 7.99998C14.6667 11.6819 11.6819 14.6666 8.00004 14.6666C4.31814 14.6666 1.33337 11.6819 1.33337 7.99998C1.33337 4.31808 4.31814 1.33331 8.00004 1.33331C11.6819 1.33331 14.6667 4.31808 14.6667 7.99998ZM2.66671 7.99998C2.66671 10.9455 5.05452 13.3333 8.00004 13.3333C10.9456 13.3333 13.3334 10.9455 13.3334 7.99998C13.3334 5.05446 10.9456 2.66665 8.00004 2.66665C5.05452 2.66665 2.66671 5.05446 2.66671 7.99998Z" fill="currentColor"/>
<path d="M6.96139 6.08946C6.96139 5.57606 7.39595 5.15279 7.94139 5.15279C8.48561 5.15279 8.92005 5.57617 8.92005 6.08946C8.92581 6.46416 8.83055 6.59424 8.36991 6.93045L8.33843 6.95342C7.55727 7.52344 7.22948 7.97805 7.27558 8.88208L7.27472 9.01346C7.27472 9.38165 7.5732 9.68013 7.94139 9.68013C8.30958 9.68013 8.60805 9.38165 8.60805 9.01346V8.84812C8.58981 8.47343 8.67025 8.36186 9.12437 8.03049L9.15598 8.00742C9.93162 7.44129 10.2674 6.98282 10.2533 6.07907C10.2534 4.83198 9.2144 3.81946 7.94139 3.81946C6.66733 3.81946 5.62805 4.8317 5.62805 6.08946C5.62805 6.45765 5.92653 6.75612 6.29472 6.75612C6.66291 6.75612 6.96139 6.45765 6.96139 6.08946Z" fill="currentColor"/>
<path d="M7.99996 10.5C8.4602 10.5 8.83329 10.8731 8.83329 11.3333C8.83329 11.7936 8.4602 12.1667 7.99996 12.1667C7.53972 12.1667 7.16663 11.7936 7.16663 11.3333C7.16663 10.8731 7.53972 10.5 7.99996 10.5Z" fill="currentColor"/>
</svg>
