<svg width="24" height="24" viewBox="0 0 24 24" fill="none" xmlns="http://www.w3.org/2000/svg">
<path d="M17 17V15C17 14.4477 17.4477 14 18 14C18.5523 14 19 14.4477 19 15V17C19 18.1046 18.1046 19 17 19H7C5.89543 19 5 18.1046 5 17V7C5 5.89543 5.89543 5 7 5H9C9.55228 5 10 5.44772 10 6C10 6.55228 9.55228 7 9 7H7V17H17Z" fill="currentColor"/>
<path fill-rule="evenodd" clip-rule="evenodd" d="M15.5858 7H13C12.4478 7 12 6.55228 12 6C12 5.44772 12.4478 5 13 5H18C18.2762 5 18.5262 5.11193 18.7071 5.29289C18.8881 5.47386 19 5.72386 19 6V11C19 11.5523 18.5523 12 18 12C17.4478 12 17 11.5523 17 11V8.41421L10.7574 14.6569C10.3669 15.0474 9.73371 15.0474 9.34319 14.6569C8.95266 14.2663 8.95266 13.6332 9.34319 13.2426L15.5858 7Z" fill="currentColor"/>
</svg>
