<svg width="16" height="16" viewBox="0 0 16 16" fill="none" xmlns="http://www.w3.org/2000/svg">
<path fill-rule="evenodd" clip-rule="evenodd" d="M3.38114e-08 8.00073C-0.000401789 3.58259 3.58077 0.000603143 7.99891 7.45783e-08C10.1208 -0.000289454 12.1559 0.842437 13.6565 2.34276C15.157 3.84308 16 5.87808 16 8C16 12.4181 12.4185 15.9998 8.00036 16C3.58223 16.0002 0.000402175 12.4189 3.38114e-08 8.00073ZM10.1428 8.43674H13.8551C13.9991 8.44211 14.1345 8.36834 14.2081 8.24443C14.2818 8.12052 14.2818 7.96629 14.2081 7.84238C14.1345 7.71847 13.9991 7.6447 13.8551 7.65006H10.1603C9.98196 6.4917 8.94797 5.66168 7.77846 5.73811C6.60896 5.81454 5.69179 6.77208 5.66577 7.94379C5.63975 9.11551 6.5135 10.1128 7.67847 10.2411C8.84343 10.3694 9.91325 9.58605 10.1428 8.43674Z" fill="#008C73"/>
</svg>
