<svg width="42" height="42" viewBox="0 0 42 42" fill="none" xmlns="http://www.w3.org/2000/svg">
    <path d="M14.0042 9.33159C14.0042 9.77358 14.3816 10.1352 14.8429 10.1352H30.0405C31.6886 10.1352 32.649 11.0554 32.649 12.5702V27.1964C32.649 27.6384 33.0264 28 33.4877 28H37.1613C37.6226 28 38 27.6384 38 27.1964V10.1151C37.9958 9.65304 37.8574 9.32757 37.5135 8.99808L33.8903 5.52638C33.5464 5.19689 33.1354 5 32.6532 5H14.8387C14.3774 5.00402 14 5.36565 14 5.80765V9.33159H14.0042Z" fill="#12FF80"/>
    <path d="M4.58125 34.0261L7.12643 36.4472C7.44736 36.7525 7.96768 36.7525 8.28861 36.4472L33.2842 12.6697C33.6052 12.3644 33.6052 11.8694 33.2842 11.5641L30.7391 9.14298C30.4181 8.83769 29.8978 8.83769 29.5769 9.14298L4.58125 32.9205C4.26033 33.2258 4.26033 33.7208 4.58125 34.0261Z" fill="#12FF80"/>
</svg>