<svg width="42" height="42" viewBox="0 0 42 42" fill="none" xmlns="http://www.w3.org/2000/svg">
    <path d="M4 18.9404V23.0596C4 23.579 4.33816 24 4.7553 24L37.2447 24C37.6618 24 38 23.579 38 23.0596V18.9404C38 18.421 37.6618 18 37.2447 18H4.7553C4.33816 18 4 18.421 4 18.9404Z" fill="#12FF80"/>
    <path d="M23.0596 4H18.9404C18.421 4 18 4.33816 18 4.7553V37.2447C18 37.6618 18.421 38 18.9404 38H23.0596C23.579 38 24 37.6618 24 37.2447V4.7553C24 4.33816 23.579 4 23.0596 4Z" fill="#12FF80"/>
</svg>