<svg width="19" height="18" viewBox="0 0 19 18" fill="none" xmlns="http://www.w3.org/2000/svg">
<path fill-rule="evenodd" clip-rule="evenodd" d="M18.4222 9.20443C18.4222 8.56625 18.365 7.95262 18.2586 7.36353H9.78223V10.8449H14.6259C14.4172 11.9699 13.7831 12.9231 12.83 13.5613V15.8194H15.7386C17.4404 14.2526 18.4222 11.9453 18.4222 9.20443Z" fill="#4285F4"/>
<path fill-rule="evenodd" clip-rule="evenodd" d="M9.78199 18C12.212 18 14.2493 17.1941 15.7383 15.8195L12.8297 13.5613C12.0238 14.1013 10.9929 14.4204 9.78199 14.4204C7.43789 14.4204 5.4538 12.8372 4.74608 10.71H1.73926V13.0418C3.22017 15.9831 6.2638 18 9.78199 18Z" fill="#34A853"/>
<path fill-rule="evenodd" clip-rule="evenodd" d="M4.74632 10.7101C4.56632 10.1701 4.46404 9.59325 4.46404 9.00007C4.46404 8.40689 4.56632 7.83007 4.74632 7.29007V4.95825H1.7395C1.12995 6.17325 0.782227 7.5478 0.782227 9.00007C0.782227 10.4523 1.12995 11.8269 1.7395 13.0419L4.74632 10.7101Z" fill="#FBBC05"/>
<path fill-rule="evenodd" clip-rule="evenodd" d="M9.78199 3.57955C11.1033 3.57955 12.2897 4.03364 13.2224 4.92545L15.8038 2.34409C14.2452 0.891818 12.2079 0 9.78199 0C6.2638 0 3.22017 2.01682 1.73926 4.95818L4.74608 7.29C5.4538 5.16273 7.43789 3.57955 9.78199 3.57955Z" fill="#EA4335"/>
</svg>
