<svg width="65" height="64" viewBox="0 0 65 64" fill="none" xmlns="http://www.w3.org/2000/svg">
<path d="M39.3016 47.8791V50.4924C39.3016 51.2782 38.6651 51.9147 37.8794 51.9147H14.082C13.2963 51.9147 12.6598 51.2782 12.6598 50.4924L12.6527 26.7022C12.6563 25.9164 13.2891 25.28 14.0749 25.28H16.6954C17.0865 25.28 17.4065 24.96 17.4065 24.5689V21.2302C17.4065 20.8391 17.0865 20.5191 16.6954 20.5191H13.7691C12.9834 20.5191 12.3469 21.1556 12.3469 21.9413V23.5271C12.3469 24.3129 11.714 24.9493 10.9283 24.9529H10.1994L9.31404 24.96C8.53182 24.96 7.89893 25.6 7.89893 26.3822V50.8373C7.89893 51.6231 8.53537 52.2596 9.32115 52.2596H10.9247C11.7105 52.2596 12.3469 52.896 12.3469 53.6818V55.2533C12.3469 56.0391 12.9834 56.6756 13.7691 56.6756H38.1851C38.9709 56.6756 39.6074 56.0391 39.6074 55.2569V53.6604C39.6074 52.8782 40.2403 52.2453 41.026 52.2418H41.8154L41.8474 52.2382H42.6403C43.4225 52.2311 44.0554 51.5947 44.0554 50.8124V47.8791C44.0554 47.488 43.7354 47.168 43.3443 47.168H40.0127C39.6216 47.168 39.3016 47.488 39.3016 47.8791Z" class="illustration-light-fill"/>
<path d="M57.1722 37.6889V13.3476C57.1722 12.5618 56.5322 11.9253 55.7464 11.9253H54.1571C53.3713 11.9289 52.7349 11.296 52.7313 10.5102V8.81066C52.7242 8.02844 52.0878 7.392 51.3055 7.392H26.8824C26.0967 7.392 25.4602 8.02844 25.4602 8.81422V10.4071C25.4602 11.1893 24.8273 11.8258 24.0451 11.8293L22.4273 11.8364C21.6451 11.8364 21.0122 12.4764 21.0122 13.2587V37.7138C21.0122 38.4996 21.6487 39.136 22.4344 39.136H24.038C24.8238 39.136 25.4602 39.7724 25.4602 40.5582V42.1298C25.4602 42.9156 26.0967 43.552 26.8824 43.552H51.302C52.0878 43.552 52.7242 42.9156 52.7242 42.1298V40.5369C52.7242 39.7547 53.3571 39.1182 54.1393 39.1147L55.7535 39.1076C56.5358 39.1076 57.1687 38.4676 57.1687 37.6853L57.1722 37.6889ZM50.9962 38.7911H27.1953C26.4095 38.7911 25.7731 38.1547 25.7731 37.3689L25.766 13.5787C25.766 12.7929 26.4024 12.1564 27.1882 12.1564H50.9855C51.7713 12.1564 52.4078 12.7929 52.4078 13.5787L52.4149 37.3689C52.4149 38.1547 51.7784 38.7911 50.9926 38.7911H50.9962Z" class="illustration-light-fill"/>
</svg>
