<svg width="24" height="24" viewBox="0 0 24 24" fill="none" xmlns="http://www.w3.org/2000/svg">
<path fill-rule="evenodd" clip-rule="evenodd" d="M11.6748 21.9362C11.9021 22.0215 12.1527 22.0213 12.3798 21.9355C16.3253 20.4449 18.8299 18.3949 20.089 16.0572C20.3255 15.6341 20.5105 15.1643 20.6517 14.6561C20.8149 14.069 20.9142 13.4521 20.9639 12.8264C20.9975 12.4042 21.0048 12.0411 20.9981 11.717C20.9965 11.647 20.9965 11.647 20.9964 11.654V5.279C20.9964 4.69989 20.506 4.24186 19.9282 4.28133C19.4283 4.31547 19.1772 4.328 18.8994 4.328C16.2811 4.328 14.1185 3.39264 12.6182 2.21372C12.2322 1.91033 11.6829 1.93214 11.3221 2.2652C11.3006 2.28505 11.2747 2.30621 11.2358 2.33553C11.2057 2.35816 11.1689 2.38486 11.0714 2.45561C10.6544 2.73402 10.4122 2.88668 10.0484 3.08197C9.96778 3.12523 9.88702 3.16697 9.80602 3.20715C8.38423 3.90539 6.84274 4.328 5.10338 4.328C4.82402 4.328 4.57478 4.31557 4.07352 4.28133C3.49576 4.24186 3.00538 4.69989 3.00538 5.279V11.606C2.92126 12.7826 3.22547 14.8548 4.05794 16.2732C4.2169 16.5679 4.42431 16.8738 4.68419 17.2033C6.16047 19.1604 8.51801 20.7508 11.6748 21.9362ZM18.3403 15.0866L18.3315 15.1027C17.3487 16.9318 15.3335 18.6175 12.0254 19.9282C9.38042 18.8858 7.4534 17.5534 6.26767 15.9817C6.06087 15.7192 5.91605 15.5056 5.79967 15.2907C5.45153 14.6964 5.22422 13.9393 5.09977 13.0916C5.01415 12.5084 4.98663 11.9106 5.00297 11.6753L5.00498 6.32759C5.03744 6.32787 5.07014 6.328 5.10338 6.328C7.17923 6.328 9.01073 5.82588 10.6912 5.0006C10.7953 4.94898 10.8951 4.8974 10.9943 4.84414C11.364 4.6457 11.625 4.48652 12 4.23889C13.7668 5.4456 16.1089 6.328 18.8994 6.328C18.9321 6.328 18.9644 6.32787 18.9964 6.32759V11.654C18.9973 11.7081 18.9973 11.7081 18.9985 11.7587C19.004 12.0208 18.998 12.3192 18.9702 12.6679C18.93 13.1745 18.8505 13.6681 18.7247 14.1207C18.6232 14.4861 18.4949 14.8112 18.3403 15.0866Z" />
</svg>
