<svg width="24" height="24" viewBox="0 0 24 24" fill="none" xmlns="http://www.w3.org/2000/svg">
<path fill-rule="evenodd" clip-rule="evenodd" d="M13.0105 4C14.6645 4 16.0105 5.346 16.0105 7C16.0105 8.654 14.6645 10 13.0105 10C11.3565 10 10.0105 8.654 10.0105 7C10.0105 5.346 11.3565 4 13.0105 4ZM22.9675 20.726C21.8365 16.85 19.9605 12.494 15.4815 11.32C16.9845 10.457 18.0105 8.854 18.0105 7C18.0105 4.243 15.7675 2 13.0105 2C10.2535 2 8.0105 4.243 8.0105 7C8.0105 8.859 9.0425 10.466 10.5525 11.327C9.8965 11.504 9.2725 11.746 8.6935 12.07C8.2105 12.34 8.0385 12.949 8.3095 13.431C8.5775 13.911 9.1885 14.086 9.6695 13.814C10.6425 13.271 11.7345 13.006 13.0075 13.006C16.9495 13.006 19.3545 15.482 21.0475 21.286C21.1745 21.723 21.5735 22.006 22.0075 22.006C22.0995 22.006 22.1945 21.993 22.2875 21.966C22.8185 21.812 23.1215 21.256 22.9675 20.726Z" fill="black"/>
<path fill-rule="evenodd" clip-rule="evenodd" d="M6.999 17.003H8.999C9.551 17.003 9.999 17.451 9.999 18.003C9.999 18.556 9.551 19.003 8.999 19.003H6.999V21.003C6.999 21.555 6.552 22.003 5.999 22.003C5.447 22.003 4.999 21.555 4.999 21.003V19.003H3C2.448 19.003 2 18.556 2 18.003C2 17.451 2.448 17.003 3 17.003H4.999V15.004C4.999 14.451 5.447 14.004 5.999 14.004C6.552 14.004 6.999 14.451 6.999 15.004V17.003Z" fill="black"/>
</svg>
