<svg width="24" height="24" viewBox="0 0 24 24" fill="none" xmlns="http://www.w3.org/2000/svg">
<path fill-rule="evenodd" clip-rule="evenodd" d="M4 9V15H3C2.44772 15 2 15.4477 2 16C2 16.5523 2.44772 17 3 17H4V20C4 21.1046 4.89543 22 6 22H18C19.1046 22 20 21.1046 20 20V4C20 2.89543 19.1046 2 18 2H6C4.89543 2 4 2.89543 4 4V7H3C2.44772 7 2 7.44772 2 8C2 8.55228 2.44772 9 3 9H4ZM7 15H6V9H7C7.55228 9 8 8.55228 8 8C8 7.44772 7.55228 7 7 7H6V4H18V20H6V17H7C7.55228 17 8 16.5523 8 16C8 15.4477 7.55228 15 7 15Z" fill="black"/>
</svg>
