<svg width="24" height="24" viewBox="0 0 24 24" fill="none" xmlns="http://www.w3.org/2000/svg">
<path fill-rule="evenodd" clip-rule="evenodd" d="M11.9988 8.00232C12.5508 8.00232 12.9988 8.44932 12.9988 9.00232V13.0023C12.9988 13.5543 12.5508 14.0023 11.9988 14.0023C11.4458 14.0023 10.9988 13.5543 10.9988 13.0023V9.00232C10.9988 8.44932 11.4458 8.00232 11.9988 8.00232" fill="#FF5F72"/>
<path fill-rule="evenodd" clip-rule="evenodd" d="M11.9988 15.7523C12.6888 15.7523 13.2488 16.3123 13.2488 17.0023C13.2488 17.6923 12.6888 18.2523 11.9988 18.2523C11.3088 18.2523 10.7488 17.6923 10.7488 17.0023C10.7488 16.3123 11.3088 15.7523 11.9988 15.7523" fill="#FF5F72"/>
<path fill-rule="evenodd" clip-rule="evenodd" d="M11.9998 2.00037C11.4978 2.00037 10.9958 2.25037 10.7168 2.75237L1.18682 19.8294C0.643825 20.8044 1.35182 22.0004 2.47082 22.0004H21.5298C22.6488 22.0004 23.3558 20.8044 22.8128 19.8294L13.2838 2.75237C13.0038 2.25037 12.5018 2.00037 11.9998 2.00037M11.9998 4.55437L20.6238 20.0084H3.37682L11.9998 4.55437" fill="#FF5F72"/>
</svg>
