<svg width="8" height="8" viewBox="0 0 8 8" fill="none" xmlns="http://www.w3.org/2000/svg">
<path fill-rule="evenodd" clip-rule="evenodd" d="M4.98411 4.60828L6.28578 3.28579C6.66995 2.90162 7.30994 2.90162 7.69411 3.28579C8.07828 3.66996 8.07828 4.30995 7.69411 4.69412L4.72837 7.70168C4.5367 7.89334 4.28003 8 4.0242 8C3.76837 8 3.51255 7.89333 3.32004 7.70168L0.290934 4.69412C-0.13573 4.26746 -0.0932346 3.54247 0.419266 3.17912C0.824255 2.8808 1.40093 2.96579 1.74175 3.32829L2.87258 4.43744L3.00092 4.45911V3.47744L3.00008 0.981669C3.00008 0.426664 3.44842 0 3.98175 0C4.55842 0 4.98509 0.448339 4.98509 0.981669L4.98411 4.60828Z" fill="black"/>
</svg>
