<svg width="24" height="24" viewBox="0 0 24 24" fill="none" xmlns="http://www.w3.org/2000/svg">
<path d="M17 8.66667C17 7.34059 16.4732 6.06882 15.5355 5.13114C14.5979 4.19346 13.3261 3.66667 12 3.66667C10.6739 3.66667 9.40215 4.19346 8.46447 5.13114C7.52678 6.06882 7 7.34059 7 8.66667C7 14.5 4.5 16.1667 4.5 16.1667H19.5C19.5 16.1667 17 14.5 17 8.66667Z" stroke="#121312" stroke-width="2" stroke-linecap="round" stroke-linejoin="round"/>
<path d="M13.4417 19.5C13.2952 19.7526 13.0849 19.9622 12.8319 20.1079C12.5789 20.2537 12.292 20.3304 12 20.3304C11.708 20.3304 11.4212 20.2537 11.1682 20.1079C10.9151 19.9622 10.7049 19.7526 10.5583 19.5" stroke="#121312" stroke-width="2" stroke-linecap="round" stroke-linejoin="round"/>
</svg>
