<svg width="24" height="24" viewBox="0 0 24 24" fill="none" xmlns="http://www.w3.org/2000/svg">
<path fill-rule="evenodd" clip-rule="evenodd" d="M22 12C22 17.5228 17.5228 22 12 22C6.47715 22 2 17.5228 2 12C2 6.47715 6.47715 2 12 2C17.5228 2 22 6.47715 22 12ZM4 12C4 16.4183 7.58172 20 12 20C16.4183 20 20 16.4183 20 12C20 7.58172 16.4183 4 12 4C7.58172 4 4 7.58172 4 12Z" fill="black"/>
<path d="M7.68141 10.2758C7.2782 9.8984 6.64538 9.91932 6.26797 10.3225C5.89056 10.7257 5.91148 11.3586 6.31469 11.736L10.4557 15.612C10.8531 15.9839 11.475 15.9697 11.855 15.58L17.202 10.096C17.5876 9.70056 17.5796 9.06745 17.1841 8.6819C16.7887 8.29634 16.1556 8.30435 15.77 8.69978L11.107 13.4822L7.68141 10.2758Z" fill="black"/>
</svg>
