<svg width="24" height="24" viewBox="0 0 24 24" fill="none" xmlns="http://www.w3.org/2000/svg">
<path fill-rule="evenodd" clip-rule="evenodd" d="M22 12C22 17.5228 17.5228 22 12 22C6.47715 22 2 17.5228 2 12C2 6.47715 6.47715 2 12 2C17.5228 2 22 6.47715 22 12ZM4 12C4 16.4183 7.58172 20 12 20C16.4183 20 20 16.4183 20 12C20 7.58172 16.4183 4 12 4C7.58172 4 4 7.58172 4 12Z" fill="black"/>
<path fill-rule="evenodd" clip-rule="evenodd" d="M10.5703 16C10.3803 16 10.1982 15.916 10.0647 15.7657L7.2088 12.5635C6.93028 12.2508 6.93028 11.7446 7.20951 11.4319C7.48875 11.1208 7.94081 11.12 8.22004 11.4327L10.5703 14.0686L15.7808 8.23452C16.06 7.92183 16.5113 7.92183 16.7906 8.23452C17.0698 8.54722 17.0698 9.05266 16.7906 9.36536L11.0752 15.7657C10.9417 15.916 10.7603 16 10.5703 16Z" fill="black"/>
<path d="M10.5703 16V16C10.3803 16 10.1982 15.916 10.0647 15.7657L7.2088 12.5635C6.93028 12.2508 6.93028 11.7446 7.20951 11.4319C7.48875 11.1208 7.94081 11.12 8.22004 11.4327L10.5703 14.0686L15.7808 8.23452C16.06 7.92183 16.5113 7.92183 16.7906 8.23452C17.0698 8.54722 17.0698 9.05266 16.7906 9.36536L11.0752 15.7657C10.9417 15.916 10.7603 16 10.5703 16" stroke="black" stroke-width="0.5"/>
</svg>
