<svg width="24" height="24" viewBox="0 0 24 24" fill="none" xmlns="http://www.w3.org/2000/svg">
<path fill-rule="evenodd" clip-rule="evenodd" d="M13.2735 12L20.7373 19.4639C21.0875 19.8149 21.0875 20.3865 20.7373 20.7367C20.3862 21.0878 19.8146 21.0878 19.4636 20.7367L12 13.2734L4.53643 20.7367C4.18537 21.0878 3.61377 21.0878 3.26271 20.7367C2.91255 20.3865 2.91255 19.8149 3.26271 19.4639L10.7265 12L3.26262 4.53636C2.91246 4.1853 2.91246 3.61369 3.26262 3.26262C3.61368 2.91246 4.18528 2.91246 4.53634 3.26262L12 10.7264L19.4637 3.26262C19.8147 2.91246 20.3863 2.91246 20.7374 3.26262C21.0875 3.61369 21.0875 4.1853 20.7374 4.53636L13.2735 12Z" fill="black" stroke="black"/>
</svg>
