<svg width="24" height="24" viewBox="0 0 24 24" fill="none" xmlns="http://www.w3.org/2000/svg">
<path fill-rule="evenodd" clip-rule="evenodd" d="M22.0002 11.9997C22.0002 17.5227 17.5222 21.9997 12.0002 21.9997C6.47724 21.9997 2.00024 17.5227 2.00024 11.9997C2.00024 6.4777 6.47724 1.9997 12.0002 1.9997C17.5222 1.9997 22.0002 6.4777 22.0002 11.9997ZM13.4145 12.0001L16.8547 8.5603C17.2437 8.1703 17.2437 7.5353 16.8547 7.1453C16.4647 6.7563 15.8297 6.7563 15.4397 7.1453L12 10.5855L8.55974 7.1453C8.17074 6.7563 7.53474 6.7563 7.14574 7.1453C6.75674 7.5353 6.75674 8.1703 7.14574 8.5603L10.5855 12.0001L7.14574 15.4403C6.75674 15.8293 6.75674 16.4653 7.14574 16.8543C7.53474 17.2433 8.17074 17.2433 8.55974 16.8543L12 13.4145L15.4397 16.8543C15.8297 17.2433 16.4647 17.2433 16.8547 16.8543C17.2437 16.4653 17.2437 15.8293 16.8547 15.4403L13.4145 12.0001Z" fill="black"/>
</svg>
