<svg width="27" height="20" viewBox="0 0 27 20" fill="none" xmlns="http://www.w3.org/2000/svg">
<g clip-path="url(#clip0_2177_575)">
<path d="M8.09998 0.801587C8.09998 0.635025 8.23428 0.5 8.39997 0.5H10.5C10.6657 0.5 10.8 0.635025 10.8 0.801587V2.9127C10.8 3.07926 10.6657 3.21429 10.5 3.21429H8.09998V0.801587Z" fill="black"/>
<path d="M5.40002 3.51587C5.40002 3.34931 5.53433 3.21429 5.70002 3.21429H8.10002V5.62698C8.10002 5.79355 7.96571 5.92857 7.80002 5.92857H5.40002V3.51587Z" fill="black"/>
<path d="M2.70001 6.23016C2.70001 6.0636 2.83432 5.92857 3.00001 5.92857H5.40001V8.34127C5.40001 8.50783 5.2657 8.64286 5.10001 8.64286H2.70001V6.23016Z" fill="black"/>
<path d="M0 8.94443C0 8.77787 0.134315 8.64285 0.3 8.64285H2.7V11.3571H0.3C0.134315 11.3571 0 11.2221 0 11.0556V8.94443Z" fill="black"/>
<path d="M2.70001 11.3571H5.10001C5.2657 11.3571 5.40001 11.4922 5.40001 11.6587V14.0714H3.00001C2.83432 14.0714 2.70001 13.9364 2.70001 13.7698V11.3571Z" fill="black"/>
<path d="M5.40002 14.0714H7.80002C7.96571 14.0714 8.10002 14.2065 8.10002 14.373V16.7857H5.70002C5.53433 16.7857 5.40002 16.6507 5.40002 16.4841V14.0714Z" fill="black"/>
<path d="M8.09998 16.7857H10.5C10.6657 16.7857 10.8 16.9207 10.8 17.0873V19.1984C10.8 19.365 10.6657 19.5 10.5 19.5H8.39997C8.23428 19.5 8.09998 19.365 8.09998 19.1984V16.7857Z" fill="black"/>
<path d="M18.9 0.801587C18.9 0.635025 18.7657 0.5 18.6 0.5H16.5C16.3343 0.5 16.2 0.635025 16.2 0.801587V2.9127C16.2 3.07926 16.3343 3.21429 16.5 3.21429H18.9V0.801587Z" fill="black"/>
<path d="M21.6 3.51587C21.6 3.34931 21.4657 3.21429 21.3 3.21429H18.9V5.62698C18.9 5.79355 19.0343 5.92857 19.2 5.92857H21.6V3.51587Z" fill="black"/>
<path d="M24.3 6.23016C24.3 6.0636 24.1657 5.92857 24 5.92857H21.6V8.34127C21.6 8.50783 21.7343 8.64286 21.9 8.64286H24.3V6.23016Z" fill="black"/>
<path d="M27 8.94443C27 8.77787 26.8657 8.64285 26.7 8.64285H24.3V11.3571H26.7C26.8657 11.3571 27 11.2221 27 11.0556V8.94443Z" fill="black"/>
<path d="M24.3 11.3571H21.9C21.7343 11.3571 21.6 11.4922 21.6 11.6587V14.0714H24C24.1657 14.0714 24.3 13.9364 24.3 13.7698V11.3571Z" fill="black"/>
<path d="M21.6 14.0714H19.2C19.0343 14.0714 18.9 14.2065 18.9 14.373V16.7857H21.3C21.4657 16.7857 21.6 16.6507 21.6 16.4841V14.0714Z" fill="black"/>
<path d="M18.9 16.7857H16.5C16.3343 16.7857 16.2 16.9207 16.2 17.0873V19.1984C16.2 19.365 16.3343 19.5 16.5 19.5H18.6C18.7657 19.5 18.9 19.365 18.9 19.1984V16.7857Z" fill="black"/>
</g>
<defs>
<clipPath id="clip0_2177_575">
<rect width="27" height="19" fill="white" transform="translate(0 0.5)"/>
</clipPath>
</defs>
</svg>
