<svg width="24" height="24" viewBox="0 0 24 24" fill="none" xmlns="http://www.w3.org/2000/svg">
<path fill-rule="evenodd" clip-rule="evenodd" d="M19.0849 7.18621C15.172 3.35516 8.82795 3.35516 4.91505 7.18621L4.39817 7.69228C4.20253 7.88384 4.20253 8.1944 4.39817 8.38596L6.00911 9.9632C6.10693 10.059 6.26553 10.059 6.36335 9.9632L7.05736 9.28371C9.78709 6.61107 14.2129 6.61107 16.9426 9.28371L17.5907 9.9182C17.6885 10.014 17.8471 10.014 17.9449 9.9182L19.5558 8.34096C19.7515 8.14941 19.7515 7.83884 19.5558 7.64729L19.0849 7.18621ZM23.8498 11.8519L22.4161 10.4481C22.2205 10.2566 21.9033 10.2566 21.7076 10.4481L17.1193 14.9405C17.0704 14.9883 16.9911 14.9883 16.9422 14.9405L12.3538 10.448L12.3538 10.448C12.1581 10.2565 11.8409 10.2565 11.6453 10.448L7.05711 14.9405C7.0082 14.9884 6.9289 14.9884 6.87999 14.9405L2.29159 10.448C2.09594 10.2565 1.77874 10.2565 1.5831 10.448L0.149358 11.8518C-0.0462867 12.0433 -0.0462867 12.3539 0.149358 12.5455L6.61435 18.8752C6.81 19.0668 7.1272 19.0668 7.32285 18.8752L11.9111 14.3829C11.96 14.335 12.0393 14.335 12.0882 14.3829L16.6765 18.8752C16.8722 19.0668 17.1894 19.0668 17.385 18.8752L23.8498 12.5455C24.0455 12.354 24.0455 12.0434 23.8498 11.8519Z" fill="#121312"/>
</svg>
