<svg width="24" height="24" viewBox="0 0 24 24" fill="none" xmlns="http://www.w3.org/2000/svg">
<path fill-rule="evenodd" clip-rule="evenodd" d="M10 18.0097C10.553 18.0097 11 17.5627 11 17.0097V11.0097C11 10.4567 10.553 10.0097 10 10.0097C9.447 10.0097 9 10.4567 9 11.0097V17.0097C9 17.5627 9.447 18.0097 10 18.0097Z" fill="black"/>
<path fill-rule="evenodd" clip-rule="evenodd" d="M14.001 18.0097C14.554 18.0097 15.001 17.5627 15.001 17.0097V11.0097C15.001 10.4567 14.554 10.0097 14.001 10.0097C13.448 10.0097 13.001 10.4567 13.001 11.0097V17.0097C13.001 17.5627 13.448 18.0097 14.001 18.0097Z" fill="black"/>
<path fill-rule="evenodd" clip-rule="evenodd" d="M16.5128 19.5508C16.4998 19.8048 16.2548 20.0038 16.0158 20.0018H7.96876C7.73876 19.9758 7.50776 19.8058 7.49476 19.5438L6.84676 7.9998H17.1338L16.5128 19.5508ZM9.99676 4.6158C9.99676 4.2818 10.2798 3.9998 10.6138 3.9998H13.3818C13.7218 3.9998 13.9988 4.2768 13.9988 4.6158V5.9998H9.99676V4.6158ZM19.9998 5.9998H18.2618C18.2558 5.9998 18.2498 5.9948 18.2428 5.9948C18.2308 5.9938 18.2208 5.9998 18.2078 5.9998H15.9988V4.6158C15.9988 3.1738 14.8258 1.9998 13.3818 1.9998H10.6138C9.17076 1.9998 7.99676 3.1738 7.99676 4.6158V5.9998H3.99976C3.44776 5.9998 2.99976 6.4468 2.99976 6.9998C2.99976 7.5528 3.44776 7.9998 3.99976 7.9998H4.84476L5.49776 19.6468C5.56076 20.9568 6.65876 22.0028 7.93776 22.0028C7.95576 22.0028 7.97376 22.0018 7.99176 22.0018H15.9918H16.0488C17.3488 22.0018 18.4478 20.9578 18.5108 19.6538L19.1368 7.9998H19.9998C20.5528 7.9998 20.9998 7.5528 20.9998 6.9998C20.9998 6.4468 20.5528 5.9998 19.9998 5.9998Z" fill="black"/>
</svg>
