<svg width="24" height="24" viewBox="0 0 24 24" fill="none" xmlns="http://www.w3.org/2000/svg">
<path fill-rule="evenodd" clip-rule="evenodd" d="M6.00049 20.0004V4.0004H11.9985V8.0204C11.9985 9.1084 12.8865 9.9944 13.9775 9.9944H18.0005V20.0004H6.00049ZM17.1755 8.0034L13.9985 8.0204V4.8304L17.1755 8.0034ZM19.7345 7.7334L14.3025 2.3074C14.1055 2.1104 13.8395 2.0004 13.5625 2.0004H6.00049C4.89549 2.0004 4.00049 2.8964 4.00049 4.0004V20.0004C4.00049 21.1044 4.89549 22.0004 6.00049 22.0004H18.0005C19.1045 22.0004 20.0005 21.1044 20.0005 20.0004V8.3714C20.0005 8.1324 19.9045 7.9024 19.7345 7.7334Z" fill="black"/>
</svg>
