<svg width="24" height="24" viewBox="0 0 24 24" fill="none" xmlns="http://www.w3.org/2000/svg">
<path d="M6.69997 18.2901C7.08997 18.6801 7.71997 18.6801 8.10997 18.2901L12 14.4201L15.88 18.3001C16.27 18.6901 16.9 18.6901 17.29 18.3001C17.68 17.9101 17.68 17.2801 17.29 16.8901L12.7 12.3001C12.6075 12.2073 12.4976 12.1338 12.3766 12.0836C12.2556 12.0334 12.1259 12.0076 11.995 12.0076C11.864 12.0076 11.7343 12.0334 11.6133 12.0836C11.4924 12.1338 11.3825 12.2073 11.29 12.3001L6.69997 16.8801C6.30997 17.2701 6.30997 17.9001 6.69997 18.2901Z" fill="black"/>
<path d="M6.69997 11.7C7.08997 12.09 7.71997 12.09 8.10997 11.7L12 7.82997L15.88 11.71C16.27 12.1 16.9 12.1 17.29 11.71C17.68 11.32 17.68 10.69 17.29 10.3L12.7 5.70997C12.6075 5.61725 12.4976 5.54369 12.3766 5.4935C12.2556 5.44331 12.1259 5.41748 11.995 5.41748C11.864 5.41748 11.7343 5.44331 11.6133 5.4935C11.4924 5.54369 11.3825 5.61725 11.29 5.70997L6.69997 10.29C6.30997 10.68 6.30997 11.31 6.69997 11.7Z" fill="black"/>
</svg>
