<svg width="24" height="24" viewBox="0 0 24 24" fill="none" xmlns="http://www.w3.org/2000/svg">
<path fill-rule="evenodd" clip-rule="evenodd" d="M12.0031 4C13.6571 4 15.0031 5.345 15.0031 7C15.0031 8.654 13.6571 10 12.0031 10C10.3491 10 9.00314 8.654 9.00314 7C9.00314 5.345 10.3491 4 12.0031 4ZM16.3141 12.069C15.7341 11.746 15.1121 11.504 14.4591 11.328C15.9701 10.467 17.0031 8.86 17.0031 7C17.0031 4.243 14.7601 2 12.0031 2C9.24614 2 7.00314 4.243 7.00314 7C7.00314 8.853 8.02814 10.455 9.53014 11.319C5.04714 12.491 3.17014 16.848 2.04014 20.725C1.88614 21.255 2.19014 21.811 2.72014 21.965C2.81414 21.993 2.90814 22.005 3.00014 22.005C3.43414 22.005 3.83314 21.722 3.96014 21.286C5.65214 15.482 8.05714 13.005 12.0001 13.005C13.2721 13.005 14.3631 13.27 15.3371 13.815C15.8181 14.083 16.4281 13.911 16.6981 13.43C16.9681 12.948 16.7951 12.338 16.3141 12.069Z" fill="black"/>
<path fill-rule="evenodd" clip-rule="evenodd" d="M13.3986 20.3853L13.4066 21.7273C13.4066 21.8783 13.5296 22.0003 13.6806 22.0003H15.0136C15.0866 22.0003 15.1566 21.9713 15.2086 21.9193L19.2366 17.8913C19.3946 17.7333 19.3946 17.4773 19.2366 17.3193L18.0546 16.1363C17.9106 15.9923 17.6766 15.9923 17.5326 16.1363L13.4796 20.1903C13.4276 20.2413 13.3986 20.3123 13.3986 20.3853Z" fill="black"/>
<path fill-rule="evenodd" clip-rule="evenodd" d="M20.4415 16.6861L21.9205 15.2071C22.0315 15.0971 22.0315 14.9161 21.9205 14.8051L20.5925 13.4791C20.4825 13.3681 20.3015 13.3681 20.1905 13.4791L18.7125 14.9571C18.6005 15.0681 18.6005 15.2491 18.7125 15.3601L20.0385 16.6861C20.1495 16.7971 20.3305 16.7971 20.4415 16.6861Z" fill="black"/>
</svg>
