<svg width="24" height="24" viewBox="0 0 24 24" fill="none" xmlns="http://www.w3.org/2000/svg">
<path fill-rule="evenodd" clip-rule="evenodd" d="M17.5928 9.042L15.0118 6.439L17.4808 4.019L19.9778 6.538C19.9838 6.544 19.9728 6.64 19.9798 6.646L17.5928 9.042ZM6.58976 20H3.99976V17.379L13.5848 7.841L16.1798 10.458L6.58976 20ZM21.9998 6.557C21.9928 6.001 21.7718 5.487 21.3978 5.13L18.9188 2.63C18.5498 2.236 18.0238 2.007 17.4738 2H17.4468C16.8958 2 16.3618 2.222 15.9788 2.607L2.29476 16.254C2.10676 16.441 1.99976 16.697 1.99976 16.963V21C1.99976 21.553 2.44676 22 2.99976 22H7.00276C7.26776 22 7.52076 21.896 7.70776 21.709L21.3978 8.057C21.7878 7.663 22.0078 7.116 21.9998 6.557Z" fill="black"/>
</svg>
