<svg width="24" height="24" viewBox="0 0 24 24" fill="none" xmlns="http://www.w3.org/2000/svg">
<path fill-rule="evenodd" clip-rule="evenodd" d="M12.0002 4.00018C6.80485 4.00018 2.36833 7.31672 0.571777 12.0001C2.36833 16.6835 6.80485 20 12.0002 20C17.1944 20 21.631 16.6835 23.4287 12.0001C21.631 7.31672 17.1944 4.00018 12.0002 4.00018ZM12.0002 6.28587C15.8322 6.28587 19.2539 8.5007 20.9407 12.0001C19.2539 15.4995 15.8322 17.7143 12.0002 17.7143C8.16715 17.7143 4.74547 15.4995 3.05978 12.0001C4.74547 8.5007 8.16715 6.28587 12.0002 6.28587Z" fill="black"/>
<path fill-rule="evenodd" clip-rule="evenodd" d="M12.0013 7.41089C9.47562 7.41089 7.42993 9.45772 7.42993 11.9823C7.42993 14.508 9.47562 16.5536 12.0013 16.5536C14.5259 16.5536 16.5727 14.508 16.5727 11.9823C16.5727 9.45772 14.5259 7.41089 12.0013 7.41089ZM12.0014 9.69658C13.2619 9.69658 14.287 10.7217 14.287 11.9823C14.287 13.244 13.2619 14.268 12.0014 14.268C10.7408 14.268 9.71567 13.244 9.71567 11.9823C9.71567 10.7217 10.7408 9.69658 12.0014 9.69658Z" fill="black"/>
</svg>
