<svg width="24" height="24" viewBox="0 0 24 24" fill="none" xmlns="http://www.w3.org/2000/svg">
<path fill-rule="evenodd" clip-rule="evenodd" d="M4.80245 2.82273C5.31625 2.29592 6.01312 2 6.73973 2H13.7534C14.015 2 14.2658 2.10654 14.4508 2.29618L19.7111 7.68946C19.8961 7.8791 20 8.13631 20 8.40451V19.191C20 19.9359 19.7114 20.6504 19.1976 21.1772C19.1975 21.1772 19.1975 21.1772 19.1975 21.1773C19.1974 21.1773 19.1974 21.1774 19.1973 21.1774C18.6834 21.7044 17.9865 22 17.2602 22H6.73973C6.01324 22 5.31629 21.7043 4.80237 21.1772C4.28856 20.6504 4 19.9359 4 19.191V4.80899C4 4.064 4.28865 3.34953 4.80244 2.82274C4.80244 2.82274 4.80245 2.82274 4.80245 2.82273ZM6.73973 4.02248C6.53624 4.02248 6.34113 4.10535 6.1973 4.25282L6.19729 4.25284C6.05342 4.40035 5.9726 4.60041 5.9726 4.80899V19.191C5.9726 19.3997 6.05345 19.5997 6.19722 19.7471L6.19737 19.7473C6.34109 19.8947 6.53612 19.9775 6.73973 19.9775H17.2602C17.4638 19.9775 17.6589 19.8946 17.8025 19.7473L17.8028 19.747C17.9466 19.5997 18.0274 19.3996 18.0274 19.191V9.41575H13.7525C13.4909 9.41575 13.24 9.30919 13.0551 9.11951C12.8701 8.92983 12.7662 8.67257 12.7662 8.40435L12.7669 4.02248H6.73973ZM14.7393 5.45217L16.6326 7.39327H14.739L14.7393 5.45217ZM7.50727 9.30383C7.50727 8.74534 7.94885 8.29259 8.49356 8.29259H10.247C10.7917 8.29259 11.2333 8.74534 11.2333 9.30383C11.2333 9.86232 10.7917 10.3151 10.247 10.3151H8.49356C7.94885 10.3151 7.50727 9.86232 7.50727 9.30383ZM7.50598 12.8998C7.50598 12.3413 7.94756 11.8885 8.49228 11.8885H15.5059C16.0506 11.8885 16.4922 12.3413 16.4922 12.8998C16.4922 13.4583 16.0506 13.911 15.5059 13.911H8.49228C7.94756 13.911 7.50598 13.4583 7.50598 12.8998ZM7.50598 16.4944C7.50598 15.9359 7.94756 15.4832 8.49228 15.4832H15.5059C16.0506 15.4832 16.4922 15.9359 16.4922 16.4944C16.4922 17.0529 16.0506 17.5057 15.5059 17.5057H8.49228C7.94756 17.5057 7.50598 17.0529 7.50598 16.4944Z" fill="black"/>
</svg>
