<svg width="32" height="32" viewBox="0 0 32 32" fill="none" xmlns="http://www.w3.org/2000/svg">
<g clip-path="url(#clip0_2177_565)">
<path d="M9.79826 0.232955L9.79821 0.233009L9.8647 0.292823L9.8681 0.295881L9.86805 0.295931L12.7687 3.06988L12.7687 3.06991L9.79826 0.232955ZM9.79826 0.232955L9.79469 0.22994M9.79826 0.232955L9.79469 0.22994M9.79469 0.22994C9.49418 -0.0239356 9.11823 -0.15 8.7444 -0.15M9.79469 0.22994L8.7444 -0.15M13.8684 18.1453L7.88648 12.4246C6.7491 11.3369 6.52755 9.70175 7.22528 8.40058L7.22197 8.39756L7.21949 8.39529L7.21951 8.39526L4.3189 5.62098C3.71467 5.04351 3.6942 4.11558 4.25869 3.51401L4.26148 3.51104L4.26152 3.51108L4.31598 3.45611L4.31883 3.45323L4.31887 3.45327L7.62068 0.295997L13.8684 18.1453ZM13.8684 18.1453L8.07562 23.6852L8.07428 23.6865L7.98507 23.7739L7.98375 23.7753C6.0512 25.718 6.08206 28.7939 8.07563 30.7004L8.07565 30.7005C9.08682 31.6671 10.4111 32.15 11.7336 32.15C13.0561 32.15 14.3807 31.6671 15.3915 30.7004L26.6314 19.9515L26.6328 19.9502L26.722 19.8627L26.7233 19.8614C28.6558 17.9187 28.625 14.843 26.6314 12.9365L26.63 12.9352L26.5415 12.8526L26.5415 12.8526L26.5385 12.85L26.4534 12.7747C26.3902 12.7079 26.3248 12.6422 26.2575 12.5778L26.1627 12.6768L26.2575 12.5778L16.982 3.70743L16.9821 3.70741L16.9801 3.70565L16.891 3.6233L16.891 3.62329L16.889 3.62153C16.1977 3.00508 15.3155 2.69797 14.435 2.69797C13.867 2.69797 13.2985 2.82573 12.7812 3.08193L13.8684 18.1453ZM8.7444 -0.15C8.3391 -0.15 7.93197 -0.00203529 7.62076 0.295925L8.7444 -0.15ZM25.4069 14.126L25.4069 14.126C26.0558 14.7466 26.4115 15.5693 26.4115 16.444C26.4115 17.3186 26.0558 18.1418 25.4069 18.7623L14.1692 29.5096L14.1674 29.5113L14.0851 29.5874C14.0848 29.5877 14.0845 29.588 14.0841 29.5883C13.4451 30.1603 12.6156 30.4747 11.7335 30.4747C10.8127 30.4747 9.94876 30.132 9.29966 29.5113C8.65077 28.8904 8.29509 28.0676 8.29509 27.1926C8.29509 26.318 8.65077 25.4952 9.29966 24.8747L20.5374 14.1277L20.5392 14.126L20.6215 14.0498C20.6218 14.0495 20.6221 14.0492 20.6224 14.0489C21.2612 13.4767 22.091 13.1623 22.973 13.1623C23.8939 13.1623 24.7578 13.5049 25.4069 14.126ZM15.7577 4.89721L15.7578 4.89727L22.6586 11.4961C21.4426 11.5665 20.2461 12.0461 19.315 12.9365C19.315 12.9365 19.315 12.9365 19.315 12.9365L15.102 16.9651L9.11164 11.2363L9.05038 11.175C8.38664 10.4785 8.40631 9.397 9.11043 8.72332L9.34005 8.50449C9.38389 8.47063 9.42629 8.43422 9.46702 8.39526L9.46703 8.39526L12.7686 5.23757L12.7686 5.23761L12.7714 5.23474L12.8273 5.17833L12.8275 5.1785L12.833 5.17224L12.8809 5.11825L13.1103 4.89847L13.1805 4.83452C13.5244 4.53681 13.9655 4.37326 14.4349 4.37326C14.9361 4.37326 15.4052 4.55978 15.7577 4.89721ZM5.65642 4.53444L8.74384 1.5809L11.4247 4.14985L8.33695 7.10275L5.65642 4.53444ZM22.8273 14.3789C21.5779 14.3789 20.5536 15.3491 20.5536 16.5599C20.5536 17.7707 21.5779 18.7409 22.8273 18.7409C24.0767 18.7409 25.1014 17.7708 25.1014 16.5599C25.1014 15.349 24.0767 14.3789 22.8273 14.3789ZM22.8273 16.0541C23.1298 16.0541 23.3633 16.2869 23.3633 16.5598C23.3633 16.8327 23.1298 17.0655 22.8273 17.0655C22.5251 17.0655 22.2917 16.8329 22.2917 16.5598C22.2917 16.2867 22.5251 16.0541 22.8273 16.0541Z" fill="#121312" stroke="#121312" stroke-width="0.3"/>
</g>
<defs>
<clipPath id="clip0_2177_565">
<rect width="32" height="32" fill="white"/>
</clipPath>
</defs>
</svg>
