<svg width="20" height="20" viewBox="0 0 20 20" fill="none" xmlns="http://www.w3.org/2000/svg">
<path d="M0 7.48657H4.55732V11.8814H0V7.48657Z" fill="#121312"/>
<path d="M7.90326 15.0854H12.4606V19.4802H7.90326V15.0854Z" fill="#121312"/>
<path d="M0 3.03928C0 1.36073 1.36073 0 3.03927 0H4.55732V4.23198H0V3.03928Z" fill="#121312"/>
<path d="M0 16.4421C0 18.1207 1.36073 19.4814 3.03927 19.4814H4.55732V15.2494H0V16.4421Z" fill="#121312"/>
<path d="M19.999 16.4421C19.999 18.1207 18.6383 19.4814 16.9597 19.4814H15.4417V15.2494H19.999V16.4421Z" fill="#121312"/>
<path d="M7.62982 0H17.5686C18.9114 0 20 1.08858 20 2.43142V11.882H7.62982V0Z" fill="#121312"/>
</svg>
