<svg width="24" height="24" viewBox="0 0 24 24" fill="none" xmlns="http://www.w3.org/2000/svg">
<path d="M12.0008 2C8.51927 2 5.68677 4.83212 5.68677 8.31367C5.68677 9.50062 6.02075 10.6589 6.65207 11.6626C6.88265 12.03 7.1609 12.5569 7.24622 12.8525L8.13638 15.9376C8.22635 16.2479 8.40623 16.5262 8.63843 16.7512C8.5709 16.8728 8.52867 17.0106 8.52867 17.1596V20.1387C8.52867 20.6048 8.90698 20.9832 9.37318 20.9832H9.80133C9.77385 21.0592 9.75577 21.1387 9.75577 21.2223C9.75577 21.6517 10.1346 22 10.6003 22H13.4003C13.8669 22 14.2448 21.6517 14.2448 21.2223C14.2448 21.1383 14.2266 21.0588 14.2004 20.9832H14.6269C15.0935 20.9832 15.4714 20.6048 15.4714 20.1387V17.1596C15.4714 17.0258 15.4372 16.9003 15.3819 16.7881C15.6357 16.5533 15.8316 16.2581 15.9236 15.9233L16.7664 12.8454C16.8483 12.5469 17.1207 12.0254 17.3471 11.6652C17.9792 10.6615 18.3132 9.50287 18.3132 8.3142C18.3132 4.83252 15.4815 2 12.0008 2ZM15.9173 10.7653C15.8189 10.922 15.3189 11.7365 15.1373 12.3982L14.2945 15.476C14.2789 15.533 14.1628 15.6217 14.1037 15.6221H9.96258C9.8997 15.6221 9.77633 15.5284 9.75902 15.4689L8.86887 12.3838C8.68223 11.7374 8.1814 10.922 8.08257 10.764C7.62018 10.0293 7.37572 9.18185 7.37572 8.31367C7.37572 5.76358 9.45027 3.68903 12.0007 3.68903C14.55 3.68903 16.6241 5.76358 16.6241 8.31367C16.6241 9.1831 16.38 10.031 15.9173 10.7653Z" fill="black"/>
</svg>
