<svg width="24" height="24" viewBox="0 0 24 24" fill="none" xmlns="http://www.w3.org/2000/svg">
<path d="M11.7947 4.2286L12.3936 3.6485C14.5921 1.4512 18.1551 1.4512 20.3526 3.64869C22.4917 5.7878 22.5495 9.21877 20.5262 11.4276L20.3527 11.6088L17.3344 14.6281C15.1369 16.8244 11.5731 16.8244 9.37541 14.6279C9.16318 14.4157 8.96942 14.1884 8.79617 13.9487C8.47256 13.5012 8.57303 12.8761 9.02057 12.5524C9.46812 12.2288 10.0933 12.3293 10.4169 12.7769C10.5278 12.9303 10.6525 13.0766 10.7894 13.2135C12.1554 14.5787 14.3411 14.6274 15.7653 13.36L15.9203 13.2138L18.9384 10.1947C20.3559 8.77722 20.3559 6.48038 18.9384 5.06291C17.5725 3.69699 15.3879 3.6482 13.9527 4.92651L13.7964 5.074L13.1864 5.665C12.7897 6.0493 12.1566 6.03929 11.7723 5.64263C11.4176 5.27649 11.3988 4.70889 11.71 4.32148L11.7947 4.2286Z" fill="black"/>
<path d="M6.66735 9.37569C8.86484 7.1782 12.4289 7.1782 14.6276 9.37569C14.7828 9.53094 14.9277 9.69371 15.0626 9.86424C15.4053 10.2973 15.3321 10.9262 14.899 11.269C14.4659 11.6117 13.837 11.5384 13.4943 11.1054C13.4072 10.9953 13.3138 10.8904 13.2135 10.7901C11.8467 9.42399 9.66109 9.3752 8.23652 10.6437L8.08144 10.79L5.06276 13.8077C3.64602 15.2252 3.64602 17.5224 5.06256 18.9397C6.42941 20.3065 8.61393 20.3554 10.035 19.0903L10.1897 18.9444L10.9427 18.1814C11.3306 17.7883 11.9638 17.7841 12.3569 18.172C12.7197 18.5301 12.7512 19.0972 12.4488 19.4915L12.3662 19.5862L11.6086 20.3539C9.41004 22.5524 5.84687 22.5524 3.64815 20.3537C1.51027 18.2146 1.45249 14.784 3.4751 12.5748L3.64847 12.3936L6.66735 9.37569Z" fill="black"/>
</svg>
