<svg width="24" height="24" viewBox="0 0 24 24" fill="none" xmlns="http://www.w3.org/2000/svg">
<path fill-rule="evenodd" clip-rule="evenodd" d="M18 18.9966C18 19.5486 17.552 19.9966 17 19.9966H7C6.448 19.9966 6 19.5486 6 18.9966V11.9966C6 11.4446 6.448 10.9966 7 10.9966H17C17.552 10.9966 18 11.4446 18 11.9966V18.9966ZM12.004 3.9996C14.21 3.9996 16.004 5.7946 16.004 8.0006V8.9966H8.004V8.0006C8.004 5.7946 9.798 3.9996 12.004 3.9996ZM18.004 9.1826V8.0006C18.004 4.6916 15.312 1.9996 12.004 1.9996C8.695 1.9996 6.004 4.6916 6.004 8.0006V9.1796C4.84 9.5926 4 10.6926 4 11.9966V18.9966C4 20.6506 5.346 21.9966 7 21.9966H17C18.654 21.9966 20 20.6506 20 18.9966V11.9966C20 10.6956 19.163 9.5976 18.004 9.1826Z" fill="black"/>
<path fill-rule="evenodd" clip-rule="evenodd" d="M13.5 14.4937C13.5 13.6647 12.828 12.9937 12 12.9937C11.172 12.9937 10.5 13.6647 10.5 14.4937C10.5 14.9367 10.695 15.3307 11.002 15.6047V16.9897C11.002 17.5437 11.451 17.9927 12.005 17.9927C12.56 17.9927 13.009 17.5437 13.009 16.9897V15.5977C13.309 15.3227 13.5 14.9317 13.5 14.4937Z" fill="black"/>
</svg>
