<svg width="16" height="16" viewBox="0 0 16 16" fill="none" xmlns="http://www.w3.org/2000/svg">
<path d="M8 3.83875C7.21971 3.83875 6.58716 3.2062 6.58716 2.42591C6.58716 1.64561 7.21971 1.01306 8 1.01306C8.78029 1.01306 9.41285 1.64561 9.41285 2.42591C9.41285 3.2062 8.78029 3.83875 8 3.83875Z" fill="black"/>
<path d="M8 9.42591C7.21971 9.42591 6.58716 8.79336 6.58716 8.01306C6.58716 7.23277 7.21971 6.60022 8 6.60022C8.78029 6.60022 9.41285 7.23277 9.41285 8.01306C9.41285 8.79336 8.78029 9.42591 8 9.42591Z" fill="black"/>
<path d="M8 15.0131C7.21971 15.0131 6.58716 14.3805 6.58716 13.6002C6.58716 12.8199 7.21971 12.1874 8 12.1874C8.7803 12.1874 9.41285 12.8199 9.41285 13.6002C9.41285 14.3805 8.7803 15.0131 8 15.0131Z" fill="black"/>
</svg>
