<svg width="24" height="24" viewBox="0 0 24 24" fill="none" xmlns="http://www.w3.org/2000/svg">
<path fill-rule="evenodd" clip-rule="evenodd" d="M16.0001 8.999C17.1031 8.999 18.0001 9.896 18.0001 10.999C18.0001 12.102 17.1031 12.999 16.0001 12.999C14.8971 12.999 14.0001 12.102 14.0001 10.999C14.0001 9.896 14.8971 8.999 16.0001 8.999ZM7.99809 4C9.10109 4 9.99809 4.897 9.99809 6C9.99809 7.103 9.10109 8 7.99809 8C6.89609 8 5.99809 7.103 5.99809 6C5.99809 4.897 6.89609 4 7.99809 4ZM22.9571 20.719C22.2691 18.357 21.0441 15.363 18.1661 14.353C19.2671 13.64 20.0001 12.406 20.0001 10.999C20.0001 8.793 18.2061 6.999 16.0001 6.999C13.9771 6.999 12.3171 8.514 12.0541 10.466C11.5261 10.008 10.8961 9.623 10.1511 9.36C11.2591 8.648 11.9981 7.412 11.9981 6C11.9981 3.794 10.2041 2 7.99809 2C5.79209 2 3.99809 3.794 3.99809 6C3.99809 7.407 4.73209 8.642 5.83409 9.354C2.95409 10.364 1.72909 13.359 1.04009 15.722C0.886092 16.252 1.18909 16.808 1.72009 16.962C1.81309 16.989 1.90709 17.002 2.00009 17.002C2.43409 17.002 2.83309 16.719 2.96009 16.282C4.04009 12.581 5.54709 11.002 8.00009 11.002C10.1631 11.002 11.5521 12.206 12.5931 14.961C10.5781 16.283 9.61809 18.727 9.03709 20.719C8.88309 21.249 9.18809 21.805 9.71709 21.959C9.81109 21.986 9.90509 21.999 9.99709 21.999C10.4311 21.999 10.8301 21.716 10.9571 21.279C12.0361 17.578 13.5431 15.999 15.9971 15.999C18.4501 15.999 19.9571 17.578 21.0371 21.279C21.1911 21.808 21.7391 22.113 22.2771 21.959C22.8081 21.805 23.1111 21.249 22.9571 20.719Z" fill="black"/>
</svg>
