<svg width="24" height="24" viewBox="0 0 24 24" fill="none" xmlns="http://www.w3.org/2000/svg">
<path fill-rule="evenodd" clip-rule="evenodd" d="M16.5002 3H18C19.1046 3 20 3.89543 20 5V20C20 21.1046 19.1046 22 18 22H6C4.89543 22 4 21.1046 4 20V5C4 3.89543 4.89543 3 6 3H7.49982C7.95592 2.39278 8.68209 2 9.5 2H14.5C15.3179 2 16.0441 2.39278 16.5002 3ZM7.05001 5H6V20H18V5H16.95C16.7184 6.14112 15.7095 7 14.5 7H9.5C8.29052 7 7.28164 6.14112 7.05001 5ZM9 4.5C9 4.22386 9.22386 4 9.5 4H14.5C14.7761 4 15 4.22386 15 4.5C15 4.77614 14.7761 5 14.5 5H9.5C9.22386 5 9 4.77614 9 4.5Z" fill="black"/>
</svg>
