<svg width="24" height="24" viewBox="0 0 24 24" fill="none" xmlns="http://www.w3.org/2000/svg">
<path d="M20.6332 7.11954C20.9776 7.7402 21.2578 8.4018 21.4673 9.0963C23.063 14.3804 20.0943 19.9644 14.8371 21.567C9.58026 23.1695 4.02592 20.1858 2.4315 14.9029C0.835701 9.61843 3.80391 4.0347 9.06186 2.43223C10.0075 2.14414 10.9793 2 11.9494 2C12.5599 2 13.0549 2.49747 13.0549 3.11113C13.0549 3.72479 12.5599 4.22226 11.9494 4.22226C11.1961 4.22226 10.4404 4.33435 9.7033 4.55891C5.61435 5.8051 3.306 10.1475 4.54717 14.2577C5.78716 18.3662 10.107 20.6867 14.1955 19.4404C18.2838 18.194 20.5927 13.8513 19.3517 9.74153C19.1802 9.17321 18.9485 8.63412 18.6623 8.13095L18.3882 9.72196C18.284 10.3266 17.7119 10.7319 17.1103 10.6272C16.5088 10.5225 16.1055 9.94741 16.2097 9.34275L16.8907 5.39046C16.9936 4.7931 17.5539 4.38893 18.1499 4.48214L22.0644 5.09438C22.6676 5.18873 23.0806 5.75678 22.9867 6.36314C22.8928 6.9695 22.3277 7.38457 21.7244 7.29021L20.6332 7.11954Z" fill="black"/>
<path d="M8.48669 12.8533C8.00591 13.1888 7.85591 13.9027 8.15166 14.448C8.44741 14.9933 9.07691 15.1634 9.55769 14.828L12.5135 12.7658C12.8158 12.5549 13 12.1811 13 11.7785V7.15918C13 6.51898 12.5424 6 11.978 6C11.4135 6 10.9559 6.51898 10.9559 7.15918V11.1306L8.48669 12.8533Z" fill="black"/>
</svg>
