<svg width="24" height="24" viewBox="0 0 24 24" fill="none" xmlns="http://www.w3.org/2000/svg">
<path fill-rule="evenodd" clip-rule="evenodd" d="M16.3615 16.7891L13.0765 15.4921C12.5635 15.2881 11.9805 15.5411 11.7795 16.0551C11.5765 16.5681 11.8285 17.1491 12.3415 17.3511L13.5075 17.8121C12.8325 18.0471 12.1215 18.1821 11.3975 18.1821H11.3825C9.11347 18.1771 6.99247 16.9541 5.84547 14.9911C5.56847 14.5151 4.95547 14.3531 4.47847 14.6321C4.00147 14.9101 3.84047 15.5221 4.11947 15.9991C5.62147 18.5721 8.40247 20.1751 11.3795 20.1821H11.3975C12.3535 20.1821 13.2945 20.0031 14.1875 19.6891L13.8275 20.6501C13.6335 21.1671 13.8955 21.7431 14.4135 21.9371C14.5285 21.9801 14.6465 22.0011 14.7635 22.0011C15.1685 22.0011 15.5495 21.7541 15.7005 21.3511L16.9305 18.0691C17.1225 17.5591 16.8695 16.9891 16.3615 16.7891Z" fill="black"/>
<path fill-rule="evenodd" clip-rule="evenodd" d="M15.7932 5.68169C16.4722 5.68169 17.0232 6.2337 17.0232 6.91169C17.0232 7.58969 16.4722 8.1417 15.7932 8.1417C15.1152 8.1417 14.5642 7.58969 14.5642 6.91169C14.5642 6.2337 15.1152 5.68169 15.7932 5.68169ZM8.20524 3.99969C8.88324 3.99969 9.43524 4.55169 9.43524 5.22969C9.43524 5.90869 8.88324 6.45969 8.20524 6.45969C7.52624 6.45969 6.97524 5.90869 6.97524 5.22969C6.97524 4.55169 7.52624 3.99969 8.20524 3.99969ZM20.9352 13.0067C20.3092 11.3387 19.1242 10.1007 17.7072 9.49869C18.5012 8.9107 19.0232 7.97369 19.0232 6.9117C19.0232 5.13069 17.5742 3.68169 15.7932 3.68169C14.0132 3.68169 12.5642 5.13069 12.5642 6.9117C12.5642 7.97369 13.0862 8.9107 13.8802 9.49869C13.4832 9.6667 13.1022 9.87269 12.7502 10.1377C12.0892 9.06769 11.1722 8.26369 10.1182 7.81769C10.9122 7.22869 11.4352 6.29169 11.4352 5.22969C11.4352 3.44969 9.98524 1.99969 8.20524 1.99969C6.42424 1.99969 4.97524 3.44969 4.97524 5.22969C4.97524 6.29169 5.49724 7.22869 6.29124 7.81769C4.87424 8.41769 3.68924 9.65769 3.06424 11.3257C2.87024 11.8427 3.13224 12.4187 3.64824 12.6137C4.16524 12.8037 4.74224 12.5457 4.93724 12.0287C5.53324 10.4377 6.81624 9.40969 8.20524 9.40969C9.49324 9.40969 10.6842 10.3007 11.3262 11.6987C11.0642 12.1007 10.8312 12.5327 10.6522 13.0077C10.4592 13.5247 10.7212 14.1007 11.2382 14.2947C11.3542 14.3377 11.4722 14.3587 11.5892 14.3587C11.9932 14.3587 12.3752 14.1117 12.5252 13.7087C13.1222 12.1187 14.4042 11.0907 15.7932 11.0907C17.1822 11.0907 18.4652 12.1187 19.0622 13.7097C19.2562 14.2277 19.8322 14.4867 20.3502 14.2947C20.8662 14.1007 21.1282 13.5247 20.9352 13.0067Z" fill="black"/>
</svg>
