<svg width="24" height="24" viewBox="0 0 24 24" fill="none" xmlns="http://www.w3.org/2000/svg">
<path fill-rule="evenodd" clip-rule="evenodd" d="M3 5.25C3 4.42157 3.67157 3.75 4.5 3.75H19.5C20.3284 3.75 21 4.42157 21 5.25C21 6.07843 20.3284 6.75 19.5 6.75H4.5C3.67157 6.75 3 6.07843 3 5.25Z" fill="black"/>
<path fill-rule="evenodd" clip-rule="evenodd" d="M3 17.25C3 16.4216 3.67157 15.75 4.5 15.75H19.5C20.3284 15.75 21 16.4216 21 17.25C21 18.0784 20.3284 18.75 19.5 18.75H4.5C3.67157 18.75 3 18.0784 3 17.25Z" fill="black"/>
<path fill-rule="evenodd" clip-rule="evenodd" d="M3 11.25C3 10.4216 3.67157 9.75 4.5 9.75H19.5C20.3284 9.75 21 10.4216 21 11.25C21 12.0784 20.3284 12.75 19.5 12.75H4.5C3.67157 12.75 3 12.0784 3 11.25Z" fill="black"/>
</svg>
