<svg width="24" height="24" viewBox="0 0 24 24" fill="none" xmlns="http://www.w3.org/2000/svg">
<path fill-rule="evenodd" clip-rule="evenodd" d="M20.0002 3.9998C21.0541 3.9998 21.9184 4.8162 21.9948 5.85061L22.0002 5.9998V17.9998C22.0002 19.0536 21.1838 19.9179 20.1494 19.9943L19.9972 19.9988C19.9973 20.5172 19.6119 20.9393 19.1141 20.997L18.9973 21.0037C18.4848 21.0037 18.0619 20.6183 18.0041 20.1205L17.9972 19.9988H5.99824C5.99834 20.5172 5.61206 20.9393 5.11491 20.997L4.99834 21.0037C4.44534 21.0037 3.99834 20.5567 3.99834 20.0037C2.9453 19.9989 2.08203 19.1827 2.00573 18.1489L2.00024 17.9998V5.9998C2.00024 4.94598 2.81664 4.08169 3.85105 4.00529L4.00024 3.9998H20.0002ZM20.0002 5.9998H4.00024V17.9998H20.0002V5.9998Z" fill="black"/>
<path fill-rule="evenodd" clip-rule="evenodd" d="M14.9973 8.00079C12.7883 8.00079 10.9973 9.79179 10.9973 12.0008C10.9973 14.2098 12.7883 16.0008 14.9973 16.0008C17.2063 16.0008 18.9973 14.2098 18.9973 12.0008C18.9973 9.79179 17.2063 8.00079 14.9973 8.00079ZM14.9973 10.0008C16.1003 10.0008 16.9973 10.8968 16.9973 12.0008C16.9973 13.1038 16.1003 14.0008 14.9973 14.0008C13.8943 14.0008 12.9973 13.1038 12.9973 12.0008C12.9973 10.8968 13.8943 10.0008 14.9973 10.0008Z" fill="black"/>
<path d="M6.99829 7.9998C7.51113 7.9998 7.9338 8.38584 7.99156 8.88318L7.99829 8.9998V14.9998C7.99829 15.5521 7.55058 15.9998 6.99829 15.9998C6.48546 15.9998 6.06278 15.6138 6.00502 15.1164L5.99829 14.9998V8.9998C5.99829 8.44752 6.44601 7.9998 6.99829 7.9998Z" fill="black"/>
</svg>
