<svg width="22" height="19" viewBox="0 0 22 19" fill="none" xmlns="http://www.w3.org/2000/svg">
<path d="M21.3257 0.651799C21.4119 0.138843 21.4117 0.138815 21.4115 0.138785L21.7942 0.198896L21.8564 0.568796C21.8564 0.568608 21.8564 0.568441 21.3257 0.651799Z" fill="#121312"/>
<path fill-rule="evenodd" clip-rule="evenodd" d="M0.14357 0.569171L0.674289 0.652167C0.144048 0.568881 0.143602 0.568983 0.14357 0.569171L0.20576 0.199271L0.588457 0.13916C0.588263 0.139191 0.588122 0.139656 0.674289 0.652167L0.588457 0.13916L0.590339 0.138867L0.594645 0.138206L0.609332 0.136004L0.662346 0.12845C0.707936 0.122157 0.773722 0.113529 0.857647 0.103703C1.02543 0.0840568 1.2661 0.0595726 1.56315 0.0393724C2.15626 -0.000962079 2.97923 -0.0245723 3.89854 0.0430585C5.7155 0.176727 8.01256 0.674303 9.60581 2.21428C10.2162 2.80424 10.6673 3.49332 10.9994 4.21485C11.3316 3.49326 11.7827 2.80414 12.3932 2.21414C13.9866 0.67399 16.2839 0.176357 18.1011 0.0426726C19.0205 -0.0249659 19.8435 -0.00135295 20.4367 0.0389861C20.7338 0.0591887 20.9745 0.0836756 21.1423 0.103324C21.2262 0.113152 21.292 0.12178 21.3376 0.128074L21.3907 0.135629L21.4053 0.137831L21.4096 0.138492L21.4115 0.138785L21.3257 0.651799L21.8564 0.568796L21.8567 0.570615L21.8574 0.574777L21.8597 0.588974L21.8675 0.640221C21.874 0.684291 21.8829 0.747884 21.8931 0.829012C21.9134 0.991207 21.9388 1.22385 21.9597 1.511C22.0014 2.08435 22.0258 2.87989 21.9559 3.76856C21.8175 5.52497 21.3027 7.74546 19.7093 9.2856C18.4943 10.46 16.8722 11.0256 15.3794 11.288C14.1784 11.4991 13.0272 11.52 12.1697 11.4874V17.6776C12.1697 18.329 11.6233 18.8571 10.9493 18.8571C10.2753 18.8571 9.72893 18.329 9.72893 17.6776V11.4901C8.86239 11.5179 7.71902 11.4888 6.53265 11.2715C5.065 11.0027 3.48203 10.4367 2.29048 9.285C0.697227 7.74502 0.182436 5.52478 0.0441438 3.76857C-0.0258267 2.88 -0.00139956 2.08455 0.0403303 1.51127C0.0612294 1.22415 0.0865606 0.991535 0.106886 0.829359C0.117053 0.74824 0.125979 0.684654 0.13249 0.640588L0.140305 0.589347L0.142583 0.575151L0.143267 0.570989L0.14357 0.569171ZM18.2863 2.395C18.7432 2.36139 19.175 2.35453 19.5566 2.3617C19.564 2.73055 19.5569 3.14788 19.5221 3.58952C19.3988 5.15616 18.9553 6.67807 17.9834 7.61744C17.0115 8.55682 15.437 8.9855 13.8161 9.10474C13.3592 9.13835 12.9274 9.14521 12.5458 9.13804C12.5384 8.76918 12.5455 8.35186 12.5803 7.91022C12.7036 6.34358 13.1472 4.82167 14.119 3.8823C15.0909 2.94292 16.6655 2.51424 18.2863 2.395ZM2.47785 3.58953C2.44309 3.14804 2.43599 2.73084 2.4434 2.36209C2.82491 2.35492 3.25654 2.36179 3.71331 2.39539C5.33394 2.51461 6.90824 2.94323 7.87994 3.88244C8.85165 4.82165 9.29509 6.34331 9.41844 7.90975C9.45321 8.35124 9.4603 8.76844 9.4529 9.13719C9.07138 9.14436 8.63975 9.1375 8.18299 9.10389C6.56236 8.98467 4.98806 8.55605 4.01635 7.61684C3.04465 6.67763 2.6012 5.15597 2.47785 3.58953Z" fill="#121312"/>
</svg>
