<svg width="24" height="24" viewBox="0 0 24 24" fill="none" xmlns="http://www.w3.org/2000/svg">
<path fill-rule="evenodd" clip-rule="evenodd" d="M22.958 20.7261C21.4141 15.4337 19.1421 12.271 15.5288 11.3156C17.0084 10.4472 18.0019 8.83967 18.0019 7.00021C18.0019 4.23893 15.7632 2.00021 13.0019 2.00021C10.2399 2.00021 8.00189 4.23862 8.00189 7.00021C8.00189 8.84877 9.00468 10.4629 10.4962 11.3282C8.79615 11.7949 7.35872 12.7645 6.16795 14.2063C5.81626 14.6322 5.87638 15.2625 6.30221 15.6142C6.72805 15.9658 7.35835 15.9057 7.71004 15.4799C9.07156 13.8313 10.7699 13.0061 12.998 13.0061C17.0439 13.0061 19.3815 15.6079 21.038 21.2862C21.1927 21.8163 21.7479 22.1208 22.278 21.9661C22.8082 21.8114 23.1126 21.2563 22.958 20.7261ZM16.0019 7.00021C16.0019 8.65693 14.6586 10.0002 13.0019 10.0002C11.3446 10.0002 10.0019 8.65731 10.0019 7.00021C10.0019 5.34311 11.3446 4.00021 13.0019 4.00021C14.6586 4.00021 16.0019 5.3435 16.0019 7.00021Z" fill="black"/>
<path d="M11.5824 20.0051H3.00049C2.4482 20.0051 2.00049 19.5574 2.00049 19.0051C2.00049 18.4528 2.4482 18.0051 3.00049 18.0051H11.584L11.3009 17.722C10.9104 17.3315 10.9104 16.6983 11.3009 16.3078C11.6914 15.9173 12.3246 15.9173 12.7151 16.3078L14.7041 18.2968C15.0946 18.6872 15.0946 19.3203 14.7043 19.7108L12.7153 21.7008C12.3248 22.0914 11.6917 22.0916 11.3011 21.7012C10.9104 21.3108 10.9103 20.6776 11.3007 20.287L11.5824 20.0051Z" fill="black"/>
</svg>
