<svg width="24" height="24" viewBox="0 0 24 24" fill="none" xmlns="http://www.w3.org/2000/svg">
<path fill-rule="evenodd" clip-rule="evenodd" d="M9.99976 12.0035C9.99976 11.6318 9.94186 11.2737 9.83458 10.9377L14.9195 7.85704C15.5596 8.55905 16.4816 8.9995 17.5067 8.9995C19.4399 8.9995 21.0067 7.43278 21.0067 5.4995C21.0067 3.56693 19.4397 1.9995 17.5067 1.9995C15.5737 1.9995 14.0067 3.56693 14.0067 5.4995C14.0067 5.68541 14.0211 5.86793 14.0491 6.046L8.70384 9.28434C8.10216 8.79606 7.33518 8.5035 6.49976 8.5035C4.56647 8.5035 2.99976 10.0702 2.99976 12.0035C2.99976 13.9361 4.56675 15.5035 6.49976 15.5035C7.33534 15.5035 8.10253 15.2106 8.70432 14.7219L14.0493 17.9601C14.0212 18.1387 14.0067 18.3218 14.0067 18.5083C14.0067 20.4416 15.5734 22.0083 17.5067 22.0083C19.4399 22.0083 21.0067 20.4416 21.0067 18.5083C21.0067 16.575 19.4399 15.0083 17.5067 15.0083C16.4822 15.0083 15.5606 15.4483 14.9206 16.1496L9.83476 13.0684C9.94192 12.7326 9.99976 12.3748 9.99976 12.0035ZM17.5067 3.9995C18.335 3.9995 19.0067 4.67137 19.0067 5.4995C19.0067 6.32821 18.3354 6.9995 17.5067 6.9995C16.6779 6.9995 16.0067 6.32821 16.0067 5.4995C16.0067 4.67137 16.6783 3.9995 17.5067 3.9995ZM7.99976 12.0035C7.99976 11.1748 7.32847 10.5035 6.49976 10.5035C5.67104 10.5035 4.99976 11.1748 4.99976 12.0035C4.99976 12.8316 5.67145 13.5035 6.49976 13.5035C7.32806 13.5035 7.99976 12.8316 7.99976 12.0035ZM17.5067 17.0083C18.3354 17.0083 19.0067 17.6796 19.0067 18.5083C19.0067 19.337 18.3354 20.0083 17.5067 20.0083C16.6779 20.0083 16.0067 19.337 16.0067 18.5083C16.0067 17.6796 16.6779 17.0083 17.5067 17.0083Z" fill="black"/>
</svg>
