<svg width="24" height="24" viewBox="0 0 24 24" fill="none" xmlns="http://www.w3.org/2000/svg">
<path fill-rule="evenodd" clip-rule="evenodd" d="M11.6749 21.9362C11.9022 22.0215 12.1527 22.0213 12.3798 21.9355C16.3254 20.4449 18.8299 18.3949 20.0891 16.0572C20.3256 15.6341 20.5106 15.1643 20.6518 14.6561C20.8149 14.069 20.9143 13.4521 20.964 12.8264C20.9976 12.4042 21.0049 12.0411 20.9981 11.717C20.9965 11.647 20.9965 11.647 20.9964 11.654V5.279C20.9964 4.69989 20.5061 4.24186 19.9283 4.28133C19.4284 4.31547 19.1773 4.328 18.8994 4.328C16.2811 4.328 14.1186 3.39264 12.6183 2.21372C12.2322 1.91033 11.683 1.93214 11.3222 2.2652C11.3006 2.28505 11.2748 2.30621 11.2358 2.33553C11.2058 2.35816 11.169 2.38486 11.0714 2.45561C10.6545 2.73402 10.4123 2.88668 10.0484 3.08197C9.96784 3.12523 9.88708 3.16697 9.80608 3.20715C8.38429 3.90539 6.8428 4.328 5.10344 4.328C4.82408 4.328 4.57484 4.31557 4.07358 4.28133C3.49582 4.24186 3.00544 4.69989 3.00544 5.279V11.606C2.92132 12.7826 3.22553 14.8548 4.058 16.2732C4.21696 16.5679 4.42437 16.8738 4.68425 17.2033C6.16053 19.1604 8.51807 20.7508 11.6749 21.9362ZM18.3404 15.0866L18.3315 15.1027C17.3488 16.9318 15.3336 18.6175 12.0254 19.9282C9.38048 18.8858 7.45346 17.5534 6.26773 15.9817C6.06093 15.7192 5.91611 15.5056 5.79973 15.2907C5.45159 14.6964 5.22428 13.9393 5.09983 13.0916C5.01421 12.5084 4.9867 11.9106 5.00303 11.6753L5.00504 6.32759C5.0375 6.32787 5.0702 6.328 5.10344 6.328C7.17929 6.328 9.01079 5.82588 10.6912 5.0006C10.7953 4.94898 10.8951 4.8974 10.9943 4.84414C11.364 4.6457 11.6251 4.48652 12.0001 4.23889C13.7669 5.4456 16.109 6.328 18.8994 6.328C18.9322 6.328 18.9644 6.32787 18.9964 6.32759V11.654C18.9973 11.7081 18.9973 11.7081 18.9986 11.7587C19.004 12.0208 18.998 12.3192 18.9703 12.6679C18.93 13.1745 18.8505 13.6681 18.7248 14.1207C18.6233 14.4861 18.4949 14.8112 18.3404 15.0866Z" fill="black"/>
</svg>
