<svg width="24" height="24" viewBox="0 0 24 24" fill="none" xmlns="http://www.w3.org/2000/svg">
<path fill-rule="evenodd" clip-rule="evenodd" d="M9.00055 18.9993C8.74478 18.9993 8.48902 18.9012 8.2942 18.7072L2.29273 12.7083C2.1059 12.5202 2 12.2662 2 12.0002C2 11.7352 2.1059 11.4802 2.29273 11.2933L8.2892 5.29325C8.67984 4.90225 9.31226 4.90225 9.7019 5.29325C10.0925 5.68425 10.0925 6.31625 9.7019 6.70725L4.41278 12.0002L9.70689 17.2913C10.0975 17.6823 10.0975 18.3142 9.70789 18.7063C9.51307 18.9012 9.25631 18.9993 9.00055 18.9993Z" fill="black"/>
<path fill-rule="evenodd" clip-rule="evenodd" d="M15.0002 18.9993C14.7442 18.9993 14.4882 18.9012 14.2932 18.7063C13.9022 18.3153 13.9022 17.6832 14.2932 17.2922L19.5852 12.0002L14.2932 6.70725C13.9022 6.31625 13.9022 5.68425 14.2932 5.29325C14.6842 4.90225 15.3162 4.90225 15.7072 5.29325L21.7063 11.2933C22.0972 11.6842 22.0972 12.3163 21.7063 12.7073L15.7072 18.7063C15.5122 18.9012 15.2563 18.9993 15.0002 18.9993Z" fill="black"/>
</svg>
