<svg width="24" height="25" viewBox="0 0 24 25" fill="none" xmlns="http://www.w3.org/2000/svg">
<path fill-rule="evenodd" clip-rule="evenodd" d="M21.4002 2.42072C21.0004 2.11671 20.331 2.01965 19.4035 2.01965C17.2292 2.01965 14.9363 2.58736 13.513 3.76003L13.2934 3.95313L12.8386 4.40977C9.85815 3.8457 7.07605 4.32958 4.61368 5.48036C3.56335 5.97123 2.80214 6.46869 2.3719 6.81979C1.90996 7.19674 1.87337 7.89473 2.2933 8.31882L5.62849 11.6878L4.91039 12.4136L4.81173 12.5222C3.85544 13.6717 4.84554 15.6741 6.66139 17.5074L6.83766 17.6822C8.66369 19.4612 10.622 20.3693 11.7059 19.2769L12.4255 18.5482L15.7625 21.9181L15.8564 22.0019C16.2797 22.3347 16.9007 22.2719 17.2474 21.8387C17.5951 21.4042 18.0878 20.6356 18.574 19.575C19.6812 17.1597 20.1651 14.44 19.6798 11.5282L19.6335 11.2708L20.0853 10.8148L20.2423 10.6306C21.9357 8.52453 22.5025 3.81193 21.5921 2.61291C21.5371 2.54037 21.4725 2.47572 21.4002 2.42072ZM13.8395 17.1206L17.8455 13.0766C17.969 15.0991 17.5506 16.9999 16.759 18.7269L16.6124 19.0354C16.5135 19.2362 16.4126 19.4272 16.3069 19.612L13.8395 17.1206ZM19.4035 4.0389C17.6694 4.0389 15.8169 4.49558 14.8341 5.27601L14.6785 5.40905L6.4669 13.6976L6.49201 13.791L6.54322 13.9394L6.57702 14.0225L6.63807 14.1572C6.9119 14.7279 7.42465 15.4224 8.07561 16.0796C8.72687 16.7371 9.41462 17.255 9.9796 17.5316C10.0722 17.577 10.1578 17.6139 10.2344 17.6425L10.3423 17.6792L10.4349 17.7038L18.6308 9.42919C19.2772 8.71604 19.7269 7.45064 19.9136 5.97956C19.9778 5.4735 20.006 4.97223 19.9996 4.53663L19.9917 4.28364L19.9759 4.06172L19.7479 4.0465L19.581 4.04084L19.4035 4.0389ZM4.85737 7.61193C5.04635 7.51036 5.24531 7.41026 5.45382 7.31281C7.16433 6.51341 9.04708 6.09103 11.0506 6.2159L7.04349 10.2592L4.5759 7.76806L4.85737 7.61193Z" fill="black"/>
</svg>
