<svg width="24" height="24" viewBox="0 0 24 24" fill="none" xmlns="http://www.w3.org/2000/svg">
<g clip-path="url(#clip0_2171_431)">
<path d="M12.0019 16.2C9.6199 16.2 7.6839 14.32 7.6839 12C7.6839 9.68 9.6179 7.8 12.0039 7.8C14.3879 7.8 16.3199 9.68 16.3199 12C16.3199 14.32 14.3879 16.2 12.0019 16.2ZM21.1679 13.164C21.2179 12.78 21.2559 12.396 21.2559 12C21.2559 11.604 21.2179 11.208 21.1679 10.8L23.7719 8.844C23.8854 8.75561 23.9629 8.62904 23.9901 8.4878C24.0174 8.34656 23.9924 8.20024 23.9199 8.076L21.4519 3.924C21.3784 3.79774 21.2624 3.7018 21.1246 3.65341C20.9867 3.60502 20.8362 3.60736 20.6999 3.66L17.6279 4.86C16.9886 4.37705 16.2878 3.98156 15.5439 3.684L15.0859 0.504003C15.0587 0.361065 14.9821 0.232251 14.8694 0.140111C14.7568 0.0479708 14.6154 -0.00162552 14.4699 3.41718e-06H9.5359C9.39006 -0.00209876 9.24815 0.0472818 9.13512 0.139463C9.02209 0.231643 8.94517 0.360722 8.9179 0.504003L8.4619 3.684C7.6839 3.984 7.0179 4.392 6.3779 4.86L3.3059 3.66C3.16939 3.60682 3.01836 3.60419 2.88009 3.65261C2.74182 3.70102 2.62541 3.79728 2.5519 3.924L0.0858967 8.076C0.0103105 8.19941 -0.0164147 8.34661 0.0109685 8.4887C0.0383518 8.6308 0.117865 8.75753 0.233897 8.844L2.8359 10.8C2.78314 11.1979 2.75442 11.5986 2.7499 12C2.7499 12.396 2.7879 12.78 2.8359 13.164L0.233897 15.156C0.117865 15.2425 0.0383518 15.3692 0.0109685 15.5113C-0.0164147 15.6534 0.0103105 15.8006 0.0858967 15.924L2.5519 20.076C2.6999 20.34 3.0339 20.436 3.3059 20.34L6.3779 19.128C7.0179 19.608 7.6839 20.016 8.4619 20.316L8.9179 23.496C8.94517 23.6393 9.02209 23.7684 9.13512 23.8605C9.24815 23.9527 9.39006 24.0021 9.5359 24H14.4699C14.6154 24.0016 14.7568 23.952 14.8694 23.8599C14.9821 23.7678 15.0587 23.6389 15.0859 23.496L15.5439 20.316C16.2882 20.0143 16.9891 19.6148 17.6279 19.128L20.6999 20.34C20.9719 20.436 21.3039 20.34 21.4519 20.076L23.9199 15.924C23.9924 15.7998 24.0174 15.6535 23.9901 15.5122C23.9629 15.371 23.8854 15.2444 23.7719 15.156L21.1679 13.164Z" fill="black"/>
</g>
<defs>
<clipPath id="clip0_2171_431">
<rect width="24" height="24" fill="white"/>
</clipPath>
</defs>
</svg>
