<svg width="24" height="25" viewBox="0 0 24 25" fill="none" xmlns="http://www.w3.org/2000/svg">
<path fill-rule="evenodd" clip-rule="evenodd" d="M18.4742 15.829C17.6336 15.8301 16.9474 15.1372 16.9485 14.2886V9.29917L6.60361 19.7431C6.01013 20.3423 5.03899 20.3423 4.44551 19.7431C3.85096 19.1429 3.85204 18.1635 4.44551 17.5644L14.7904 7.12039L9.84723 7.11931C9.00773 7.11931 8.32146 6.42645 8.32146 5.57891C8.32146 4.73136 9.00773 4.03851 9.84723 4.03851L18.4742 4.0396C18.6016 4.03742 18.7159 4.08318 18.8335 4.11259C18.9058 4.13111 18.9814 4.12893 19.0526 4.15726C19.1163 4.18231 19.1659 4.23242 19.2231 4.26837C19.5133 4.43723 19.754 4.68234 19.8835 4.99609C19.9104 5.06472 19.9083 5.1388 19.9255 5.2107C19.9568 5.33162 20 5.44709 20 5.58V14.2886C20 15.1361 19.3137 15.829 18.4742 15.829Z" fill="black"/>
</svg>
