<svg width="24" height="24" viewBox="0 0 24 24" fill="none" xmlns="http://www.w3.org/2000/svg">
<path fill-rule="evenodd" clip-rule="evenodd" d="M7.67901 3.90476C7.2861 3.90476 6.90928 4.05527 6.63144 4.32318C6.35361 4.59109 6.19753 4.95445 6.19753 5.33333C6.19753 5.71221 6.35361 6.07558 6.63144 6.34349C6.90928 6.6114 7.2861 6.7619 7.67901 6.7619H10.7941C10.6735 6.45773 10.5209 6.12325 10.3321 5.7923C9.71093 4.70318 8.85817 3.90476 7.67901 3.90476ZM12 4.76599C11.2493 3.49577 9.89332 2 7.67901 2C6.76221 2 5.88297 2.35119 5.23469 2.97631C4.58642 3.60143 4.22222 4.44928 4.22222 5.33333C4.22222 6.15536 4.53711 6.94609 5.10247 7.55556H2.90909C2.40701 7.55556 2 7.91088 2 8.34921V12.3175C2 12.7558 2.40701 13.1111 2.90909 13.1111H3.11111V21.1667C3.11111 21.6269 3.5533 22 4.09877 22L12 22L19.9012 22C20.4467 22 20.8889 21.6269 20.8889 21.1667V13.1111H21.0909C21.593 13.1111 22 12.7558 22 12.3175V8.34921C22 7.91088 21.593 7.55556 21.0909 7.55556H18.8975C19.4629 6.94609 19.7778 6.15536 19.7778 5.33333C19.7778 4.44928 19.4136 3.60143 18.7653 2.97631C18.117 2.35119 17.2378 2 16.321 2C14.1067 2 12.7507 3.49577 12 4.76599ZM13.1111 20.3333H18.9136V13.1111H13.1111V20.3333ZM10.8889 13.1111V20.3333H5.08642V13.1111H10.8889ZM13.1111 11.5238H20.1818V9.14286H13.1111V11.5238ZM10.8889 9.14286V11.5238H3.81818V9.14286H10.8889ZM16.321 6.7619H13.2059C13.3265 6.45773 13.4791 6.12325 13.6679 5.7923C14.2891 4.70318 15.1418 3.90476 16.321 3.90476C16.7139 3.90476 17.0907 4.05527 17.3686 4.32318C17.6464 4.59109 17.8025 4.95445 17.8025 5.33333C17.8025 5.71221 17.6464 6.07558 17.3686 6.34349C17.0907 6.6114 16.7139 6.7619 16.321 6.7619Z" fill="black"/>
</svg>
