<svg width="24" height="24" viewBox="0 0 24 24" fill="none" xmlns="http://www.w3.org/2000/svg">
<path fill-rule="evenodd" clip-rule="evenodd" d="M10.9994 15.5839V3.00089C10.9994 2.4479 11.4474 2.00089 11.9994 2.00089C12.5524 2.00089 12.9994 2.4479 12.9994 3.00089V15.5839L17.1214 11.4629C17.5124 11.0719 18.1454 11.0719 18.5354 11.4629C18.9264 11.8539 18.9264 12.4859 18.5354 12.8769L12.8784 18.5339C12.8494 18.5629 12.8184 18.5899 12.7874 18.6139C12.6034 18.8489 12.3194 18.9979 11.9994 18.9979C11.6804 18.9979 11.3954 18.8489 11.2124 18.6139C11.1814 18.5899 11.1494 18.5629 11.1214 18.5339L5.46439 12.8769C5.07339 12.4859 5.07339 11.8539 5.46439 11.4629C5.85439 11.0719 6.48739 11.0719 6.87839 11.4629L10.9994 15.5839Z"/>
<path fill-rule="evenodd" clip-rule="evenodd" d="M20.9995 20H2.99951C2.44951 20 1.99951 20.45 1.99951 21C1.99951 21.55 2.44951 22 2.99951 22H20.9995C21.5505 22 21.9995 21.55 21.9995 21C21.9995 20.45 21.5505 20 20.9995 20Z"/>
</svg>