<svg width="24" height="24" viewBox="0 0 24 24" fill="none" xmlns="http://www.w3.org/2000/svg">
<path fill-rule="evenodd" clip-rule="evenodd" d="M10.9995 15.5839V3.00089C10.9995 2.4479 11.4475 2.00089 11.9995 2.00089C12.5525 2.00089 12.9995 2.4479 12.9995 3.00089V15.5839L17.1215 11.4629C17.5125 11.0719 18.1455 11.0719 18.5355 11.4629C18.9265 11.8539 18.9265 12.4859 18.5355 12.8769L12.8785 18.5339C12.8495 18.5629 12.8185 18.5899 12.7875 18.6139C12.6035 18.8489 12.3195 18.9979 11.9995 18.9979C11.6805 18.9979 11.3955 18.8489 11.2125 18.6139C11.1815 18.5899 11.1495 18.5629 11.1215 18.5339L5.4645 12.8769C5.0735 12.4859 5.0735 11.8539 5.4645 11.4629C5.8545 11.0719 6.4875 11.0719 6.8785 11.4629L10.9995 15.5839Z"/>
<path fill-rule="evenodd" clip-rule="evenodd" d="M20.9995 20H2.9995C2.4495 20 1.9995 20.45 1.9995 21C1.9995 21.55 2.4495 22 2.9995 22H20.9995C21.5505 22 21.9995 21.55 21.9995 21C21.9995 20.45 21.5505 20 20.9995 20Z"/>
</svg>
