<svg width="24" height="24" viewBox="0 0 24 24" fill="none" xmlns="http://www.w3.org/2000/svg">
<path fill-rule="evenodd" clip-rule="evenodd" d="M10 5H6C5.44772 5 5 5.44772 5 6V10C5 10.5523 5.44772 11 6 11H10C10.5523 11 11 10.5523 11 10V6C11 5.44772 10.5523 5 10 5ZM7 9V7H9V9H7Z" fill="#008C73"/>
<path fill-rule="evenodd" clip-rule="evenodd" d="M10 13H6C5.44772 13 5 13.4477 5 14V18C5 18.5523 5.44772 19 6 19H10C10.5523 19 11 18.5523 11 18V14C11 13.4477 10.5523 13 10 13ZM7 17V15H9V17H7Z" fill="#008C73"/>
<path fill-rule="evenodd" clip-rule="evenodd" d="M18 5H14C13.4477 5 13 5.44772 13 6V10C13 10.5523 13.4477 11 14 11H18C18.5523 11 19 10.5523 19 10V6C19 5.44772 18.5523 5 18 5ZM15 9V7H17V9H15Z" fill="#008C73"/>
<path d="M14.5 12.7998H13.5C13.1134 12.7998 12.8 13.1132 12.8 13.4998V14.4998C12.8 14.8864 13.1134 15.1998 13.5 15.1998H14.5C14.8866 15.1998 15.2 14.8864 15.2 14.4998V13.4998C15.2 13.1132 14.8866 12.7998 14.5 12.7998Z" fill="#008C73"/>
<path d="M18.5 12.7998H17.5C17.1134 12.7998 16.8 13.1132 16.8 13.4998V14.4998C16.8 14.8864 17.1134 15.1998 17.5 15.1998H18.5C18.8866 15.1998 19.2 14.8864 19.2 14.4998V13.4998C19.2 13.1132 18.8866 12.7998 18.5 12.7998Z" fill="#008C73"/>
<path d="M18.5 16.7998H17.5C17.1134 16.7998 16.8 17.1132 16.8 17.4998V18.4998C16.8 18.8864 17.1134 19.1998 17.5 19.1998H18.5C18.8866 19.1998 19.2 18.8864 19.2 18.4998V17.4998C19.2 17.1132 18.8866 16.7998 18.5 16.7998Z" fill="#008C73"/>
<path d="M14.5 16.7998H13.5C13.1134 16.7998 12.8 17.1132 12.8 17.4998V18.4998C12.8 18.8864 13.1134 19.1998 13.5 19.1998H14.5C14.8866 19.1998 15.2 18.8864 15.2 18.4998V17.4998C15.2 17.1132 14.8866 16.7998 14.5 16.7998Z" fill="#008C73"/>
<path d="M16.5 14.7998H15.5C15.1134 14.7998 14.8 15.1132 14.8 15.4998V16.4998C14.8 16.8864 15.1134 17.1998 15.5 17.1998H16.5C16.8866 17.1998 17.2 16.8864 17.2 16.4998V15.4998C17.2 15.1132 16.8866 14.7998 16.5 14.7998Z" fill="#008C73"/>
</svg>
