<svg width="16" height="16" viewBox="0 0 16 16" fill="none" xmlns="http://www.w3.org/2000/svg">
<path fill-rule="evenodd" clip-rule="evenodd" d="M6.43146 10.9899H9.0303C9.58538 10.9899 10.0354 11.4399 10.0354 11.9949C10.0354 12.55 9.58538 13 9.0303 13L4.00505 13C3.72751 13 3.47625 12.8875 3.29437 12.7056C3.11249 12.5237 3 12.2725 3 11.9949V6.9697C3 6.41462 3.44998 5.96465 4.00505 5.96465C4.56012 5.96465 5.0101 6.41462 5.0101 6.9697L5.0101 9.56854L11.2843 3.29437C11.6768 2.90188 12.3131 2.90188 12.7056 3.29437C13.0981 3.68687 13.0981 4.32323 12.7056 4.71573L6.43146 10.9899Z" fill="#008C73"/>
</svg>
