<svg width="16" height="16" viewBox="0 0 16 16" fill="none" xmlns="http://www.w3.org/2000/svg">
<path fill-rule="evenodd" clip-rule="evenodd" d="M9.56854 5.0101H6.9697C6.41462 5.0101 5.96465 4.56012 5.96465 4.00505C5.96465 3.44998 6.41462 3 6.9697 3H11.9949C12.2725 3 12.5237 3.11249 12.7056 3.29437C12.8875 3.47625 13 3.72751 13 4.00505V9.0303C13 9.58538 12.55 10.0354 11.9949 10.0354C11.4399 10.0354 10.9899 9.58538 10.9899 9.0303V6.43146L4.71573 12.7056C4.32323 13.0981 3.68687 13.0981 3.29437 12.7056C2.90188 12.3131 2.90188 11.6768 3.29437 11.2843L9.56854 5.0101Z" fill="#F02525"/>
</svg>
