<svg width="73" height="65" viewBox="0 0 73 65" fill="none" xmlns="http://www.w3.org/2000/svg">
<path fill-rule="evenodd" clip-rule="evenodd" d="M36.5 0C54.4491 0 69 14.5509 69 32.5C69 50.4484 54.4491 65 36.5 65C18.5509 65 4 50.4484 4 32.5C4 14.5509 18.5509 0 36.5 0Z" class="illustration-background-fill" fill="#EEEFF0"/>
<path fill-rule="evenodd" clip-rule="evenodd" d="M31.911 23.1372H41.3587L58.056 15.131C59.0557 14.6517 60.1582 15.5634 59.875 16.6353L55.5144 33.1394L57.5211 44.0984C57.6124 44.5969 57.4056 45.0993 56.9984 45.3901L56.9082 45.4491L37.258 57.1666C36.8471 57.4117 36.3347 57.4112 35.9243 57.1654L16.3593 45.4478C15.8943 45.1693 15.6509 44.6316 15.7485 44.0984L17.7546 33.1394L13.3952 16.6352C13.1204 15.5949 14.1509 14.7054 15.1258 15.0923L15.2142 15.131L31.911 23.1372ZM52.9269 32.7568L56.6422 18.6918L42.2172 25.6095C42.0417 25.6937 41.8496 25.7373 41.6551 25.7373H31.6152C31.4206 25.7373 31.2285 25.6937 31.0531 25.6095L16.6275 18.6918L20.3427 32.7569C20.3817 32.9047 20.3943 33.058 20.3801 33.2096L20.3645 33.323L18.4683 43.6798L36.5936 54.5354L54.8007 43.6785L52.9051 33.323C52.8775 33.1725 52.8768 33.0187 52.9026 32.8686L52.9269 32.7568Z" class="illustration-light-fill" fill="#A1A3A7"/>
<path d="M30.3762 37.043C30.8775 36.9367 31.3907 37.135 31.6912 37.5419L31.7523 37.6322L36.6025 45.4951L41.4429 37.6333C41.7118 37.1965 42.2098 36.9615 42.7121 37.0248L42.8197 37.043L48.0457 38.1513C48.748 38.3002 49.1967 38.9903 49.0477 39.6927C48.9055 40.3631 48.2703 40.8023 47.602 40.7113L47.5063 40.6947L43.1766 39.7758L37.7115 48.6552C37.2229 49.4489 36.094 49.4788 35.5573 48.7444L35.498 48.6563L30.0193 39.7758L25.6896 40.6947C25.0192 40.8369 24.3599 40.4346 24.1718 39.7868L24.1482 39.6927C24.006 39.0222 24.4083 38.363 25.056 38.1749L25.1502 38.1513L30.3762 37.043Z" class="illustration-main-fill" fill="#121312"/>
</svg>
