<svg width="160" height="160" viewBox="0 0 160 160" fill="none" xmlns="http://www.w3.org/2000/svg">
<path d="M74.5 113C97.9726 113 117 93.9721 117 70.5C117 47.028 97.9726 28 74.5 28C51.0279 28 32 47.028 32 70.5C32 93.9721 51.0279 113 74.5 113Z" class="illustration-background-warning-fill" />
<path d="M62 80C78.5686 80 92 66.5686 92 50C92 33.4314 78.5686 20 62 20C45.4314 20 32 33.4314 32 50C32 66.5686 45.4314 80 62 80Z" fill="#FFB7A6"/>
<path d="M59.1882 76C58.8577 76 58.5916 75.7335 58.5916 75.4026C58.5916 75.0717 58.8577 74.8052 59.1882 74.796C60.6934 74.7868 62.1987 74.6581 63.6765 74.4191C63.9977 74.364 64.3098 74.5846 64.3648 74.9155C64.4199 75.2371 64.1996 75.5496 63.8692 75.6048C62.3364 75.8529 60.7669 75.9908 59.1973 76H59.1882ZM55.5168 75.7978C55.5168 75.7978 55.4709 75.7978 55.4433 75.7978C53.8922 75.614 52.341 75.3107 50.8449 74.8879C50.5236 74.796 50.3401 74.4651 50.4318 74.1526C50.5236 73.8309 50.8541 73.6471 51.1661 73.739C52.6072 74.1434 54.0941 74.4375 55.581 74.6122C55.9114 74.6489 56.1409 74.9522 56.1042 75.2739C56.0675 75.5772 55.8105 75.807 55.5076 75.807L55.5168 75.7978ZM67.3479 74.796C67.0909 74.796 66.8522 74.6305 66.7788 74.364C66.687 74.0423 66.8614 73.7114 67.1826 73.6195C68.6145 73.1967 70.028 72.6453 71.3864 72.0019C71.6801 71.8549 72.0381 71.9835 72.1849 72.2868C72.3318 72.5809 72.2033 72.9394 71.9004 73.0864C70.4961 73.7574 69.0184 74.3272 67.5223 74.7684C67.4672 74.7868 67.4121 74.796 67.3479 74.796ZM47.5406 73.6839C47.4672 73.6839 47.3846 73.6655 47.3111 73.6379C45.8793 73.0313 44.475 72.3052 43.1533 71.478C42.8687 71.3034 42.7861 70.9357 42.9605 70.6508C43.1349 70.3659 43.5021 70.2832 43.7866 70.4578C45.0624 71.2574 46.4025 71.956 47.7793 72.535C48.0821 72.6637 48.229 73.0129 48.1005 73.3162C47.9995 73.546 47.7793 73.6839 47.5498 73.6839H47.5406ZM74.8467 71.3585C74.654 71.3585 74.4612 71.2574 74.3419 71.0828C74.1675 70.8071 74.2409 70.4302 74.5255 70.2556C75.7829 69.4468 76.9945 68.5277 78.1143 67.5351C78.3621 67.3145 78.7384 67.3329 78.9587 67.581C79.179 67.8292 79.1514 68.206 78.9128 68.4266C77.7471 69.4652 76.4897 70.4211 75.1771 71.2574C75.0762 71.3218 74.966 71.3493 74.8559 71.3493L74.8467 71.3585ZM40.464 69.4284C40.3355 69.4284 40.1978 69.3825 40.0877 69.2905C38.8761 68.3071 37.738 67.2134 36.6916 66.0553C36.4713 65.8071 36.4897 65.4303 36.7375 65.2097C36.9853 64.9891 37.3616 65.0075 37.5819 65.2557C38.5824 66.3678 39.6838 67.4156 40.8403 68.3623C41.0973 68.5737 41.134 68.9505 40.9229 69.2078C40.8036 69.3549 40.6292 69.4284 40.4548 69.4284H40.464ZM81.0973 65.9726C80.9596 65.9726 80.8128 65.9266 80.7026 65.8255C80.4548 65.6049 80.4273 65.2281 80.6475 64.98C81.6388 63.8495 82.5475 62.6362 83.346 61.3679C83.5204 61.0921 83.8967 61.0094 84.1721 61.1841C84.4474 61.3587 84.5301 61.7355 84.3557 62.0112C83.5204 63.3256 82.575 64.5939 81.547 65.7704C81.4277 65.9082 81.2625 65.9726 81.0973 65.9726ZM34.8559 63.3807C34.6631 63.3807 34.4796 63.2888 34.3694 63.1234C33.4791 61.8366 32.6806 60.4763 32.0014 59.0793C31.8545 58.7852 31.983 58.4267 32.2767 58.2797C32.5704 58.1326 32.9284 58.2613 33.0753 58.5554C33.7269 59.9065 34.4979 61.2116 35.3515 62.4432C35.5443 62.719 35.4709 63.0866 35.2047 63.2796C35.1037 63.3531 34.9844 63.3899 34.8651 63.3899L34.8559 63.3807ZM85.6223 59.0609C85.5397 59.0609 85.4479 59.0425 85.3653 59.0058C85.0624 58.8679 84.9339 58.5095 85.0808 58.2062C85.7141 56.8459 86.2464 55.4305 86.6687 53.9875C86.7604 53.6658 87.1 53.4912 87.4121 53.5739C87.7334 53.6658 87.9169 53.9967 87.8251 54.3184C87.3938 55.8165 86.8339 57.2962 86.173 58.7117C86.072 58.9323 85.8518 59.0609 85.6315 59.0609H85.6223ZM31.1386 56.0095C30.8908 56.0095 30.6521 55.8533 30.5695 55.6051C30.0739 54.1253 29.6884 52.5996 29.4222 51.0555C29.3671 50.7338 29.5874 50.4214 29.9087 50.3662C30.2299 50.3111 30.542 50.5316 30.5971 50.8533C30.8449 52.3331 31.2212 53.8037 31.6985 55.2191C31.8086 55.5316 31.6342 55.8716 31.3222 55.9819C31.2579 56.0003 31.1937 56.0095 31.1294 56.0095H31.1386ZM88.0363 51.1658C88.0363 51.1658 87.972 51.1658 87.9445 51.1658C87.614 51.1107 87.3938 50.8074 87.4488 50.4857C87.6783 49.0059 87.7976 47.4986 87.7976 45.9913C87.7976 45.1365 87.7609 44.2726 87.6875 43.427C87.6599 43.0961 87.8986 42.8112 88.229 42.7744C88.5594 42.7468 88.844 42.9858 88.8807 43.3167C88.9541 44.199 89 45.0997 89 45.9913C89 47.5537 88.8807 49.1346 88.642 50.6695C88.5961 50.9636 88.3391 51.175 88.0546 51.175L88.0363 51.1658ZM29.6241 47.8938C29.3029 47.8938 29.0367 47.6457 29.0275 47.324C29.0092 46.8828 29 46.4324 29 45.9913C29 44.87 29.0643 43.7487 29.1836 42.6365C29.2203 42.3057 29.514 42.0667 29.8444 42.1035C30.1749 42.1402 30.4135 42.4343 30.3768 42.7652C30.2575 43.8314 30.2024 44.9067 30.2024 45.9821C30.2024 46.4141 30.2116 46.8368 30.2299 47.2688C30.2483 47.5997 29.9913 47.8754 29.6609 47.8938C29.6609 47.8938 29.6425 47.8938 29.6333 47.8938H29.6241ZM87.7242 40.3204C87.4488 40.3204 87.201 40.1274 87.1368 39.8517C86.8155 38.3903 86.3841 36.9381 85.8426 35.5319C85.7233 35.2194 85.8793 34.8793 86.1822 34.7598C86.4851 34.6403 86.8339 34.7966 86.9532 35.0999C87.5223 36.5521 87.972 38.0686 88.3024 39.5943C88.3759 39.916 88.1647 40.2377 87.8435 40.302C87.7976 40.3112 87.7609 40.3112 87.715 40.3112L87.7242 40.3204ZM30.4135 39.6678C30.3676 39.6678 30.3217 39.6678 30.2758 39.6495C29.9546 39.5759 29.7526 39.2451 29.8352 38.9234C30.2024 37.3977 30.6888 35.8995 31.2855 34.4565C31.414 34.1532 31.7627 34.0062 32.0656 34.1348C32.3685 34.2635 32.5154 34.6128 32.3869 34.9161C31.8086 36.3039 31.3405 37.7469 30.9917 39.1991C30.9275 39.4748 30.6797 39.6587 30.4135 39.6587V39.6678ZM84.8605 32.5816C84.6494 32.5816 84.4383 32.4713 84.3373 32.2691C83.6214 30.9547 82.8045 29.6772 81.8958 28.4915C81.6939 28.225 81.749 27.8574 82.006 27.6552C82.2721 27.453 82.6393 27.5081 82.8412 27.7655C83.7866 29.0062 84.6494 30.3298 85.3928 31.7084C85.5489 32.0025 85.4387 32.361 85.1542 32.5172C85.0624 32.5632 84.9614 32.5907 84.8697 32.5907L84.8605 32.5816ZM33.4608 31.9933C33.3598 31.9933 33.2588 31.9658 33.167 31.9106C32.8825 31.7452 32.7816 31.3775 32.9468 31.0926C33.7178 29.7415 34.6081 28.4364 35.581 27.214C35.7921 26.9566 36.1684 26.9107 36.4254 27.1221C36.6824 27.3335 36.7283 27.7103 36.5172 27.9677C35.581 29.1441 34.7274 30.3941 33.9839 31.69C33.8738 31.883 33.6719 31.9933 33.4608 31.9933ZM79.95 25.9456C79.7939 25.9456 79.6379 25.8813 79.5278 25.771C78.4722 24.7048 77.3341 23.703 76.1317 22.8115C75.8655 22.6185 75.8105 22.2416 76.0032 21.9751C76.196 21.7086 76.5723 21.6534 76.8385 21.8464C78.0867 22.7747 79.2799 23.8133 80.3722 24.9254C80.6017 25.1644 80.6017 25.5412 80.3722 25.771C80.2529 25.8813 80.106 25.9456 79.95 25.9456ZM38.5181 25.4677C38.3621 25.4677 38.2061 25.4034 38.0867 25.2839C37.8573 25.0449 37.8665 24.6681 38.0959 24.4383C39.2157 23.3538 40.4273 22.3427 41.7031 21.442C41.9693 21.249 42.3456 21.3133 42.5383 21.5891C42.7311 21.8556 42.6668 22.2324 42.3915 22.4255C41.1707 23.2894 40.005 24.2637 38.9312 25.3023C38.8118 25.4125 38.665 25.4677 38.5181 25.4677ZM73.3965 20.9273C73.2955 20.9273 73.1946 20.8997 73.1028 20.8538C71.7994 20.1185 70.4227 19.4751 69.0184 18.9604C68.7063 18.841 68.5503 18.5009 68.6696 18.1884C68.7797 17.8759 69.1285 17.7197 69.4406 17.8391C70.8999 18.3814 72.3318 19.0524 73.6902 19.8152C73.9748 19.9806 74.0757 20.3391 73.9197 20.6332C73.8095 20.8262 73.6076 20.9365 73.3965 20.9365V20.9273ZM45.1817 20.6056C44.9706 20.6056 44.7595 20.4953 44.6494 20.284C44.4933 19.9898 44.6035 19.6314 44.8972 19.4751C46.274 18.7399 47.7242 18.1057 49.1927 17.6002C49.5048 17.4899 49.8444 17.6553 49.9546 17.9678C50.0647 18.2803 49.8995 18.6204 49.5874 18.7307C48.1739 19.2178 46.788 19.8244 45.4663 20.5321C45.3745 20.5781 45.2827 20.6056 45.1817 20.6056ZM65.7049 17.931C65.7049 17.931 65.6131 17.931 65.5672 17.9127C64.1078 17.5726 62.6117 17.3428 61.1156 17.2325C60.7852 17.205 60.5374 16.92 60.5649 16.5892C60.5925 16.2583 60.8678 16.0101 61.2074 16.0377C62.7678 16.148 64.3281 16.387 65.8426 16.7454C66.1638 16.8189 66.3658 17.1406 66.2923 17.4623C66.2281 17.738 65.9803 17.9219 65.7141 17.9219L65.7049 17.931ZM52.9284 17.784C52.6531 17.784 52.4052 17.591 52.341 17.3061C52.2767 16.9844 52.4787 16.6627 52.7999 16.5983C54.3235 16.2767 55.8839 16.0745 57.4442 16.0009C57.7838 15.9825 58.0592 16.2399 58.0684 16.5708C58.0867 16.9016 57.8297 17.1866 57.4993 17.1958C56.0032 17.2693 54.4979 17.4623 53.0385 17.7748C52.9927 17.7748 52.9559 17.784 52.9192 17.784H52.9284Z" fill="currentColor"/>
<path d="M63.0085 45.5757L62.5842 46L63.0085 46.4243L69.6577 53.0734C70.6474 54.0632 70.6474 55.6679 69.6577 56.6577C68.6679 57.6474 67.0632 57.6474 66.0734 56.6577L59.4243 50.0085L59 49.5842L58.5757 50.0085L51.9266 56.6577C50.9368 57.6474 49.3321 57.6474 48.3423 56.6577C47.3526 55.6679 47.3526 54.0632 48.3423 53.0734L54.9915 46.4243L55.4158 46L54.9915 45.5757L48.3423 38.9266C47.3526 37.9368 47.3526 36.3321 48.3423 35.3423C49.3321 34.3526 50.9368 34.3526 51.9266 35.3423L58.5757 41.9915L59 42.4158L59.4243 41.9915L66.0734 35.3423C67.0632 34.3526 68.6679 34.3526 69.6577 35.3423C70.6474 36.3321 70.6474 37.9368 69.6577 38.9266L63.0085 45.5757Z" stroke="currentColor" stroke-width="1.2"/>
<path d="M151.471 92.172L151.355 92.2992L132.47 111.184C131.689 111.965 130.422 111.965 129.641 111.184C128.901 110.444 128.862 109.269 129.524 108.483L129.641 108.356L145.113 92.884L82.9997 92.8848C81.8952 92.8848 80.9997 91.9894 80.9997 90.8848C80.9997 89.8304 81.8156 88.9666 82.8505 88.8903L82.9997 88.8848L145.113 88.884L129.641 73.4142C128.901 72.6743 128.862 71.4988 129.524 70.713L129.641 70.5858C130.381 69.8458 131.557 69.8069 132.342 70.469L132.47 70.5858L151.355 89.4708C152.095 90.2107 152.134 91.3862 151.471 92.172Z" stroke="currentColor" stroke-linecap="round" stroke-linejoin="round" stroke-dasharray="3 3"/>
<path fill-rule="evenodd" clip-rule="evenodd" d="M101.941 103.885C101.941 104.407 101.541 104.836 101.032 104.881L100.922 104.885L36.4126 104.886L53.5922 122.063C53.9575 122.428 53.9811 123.007 53.6626 123.399L53.5795 123.489C53.2136 123.843 52.6435 123.863 52.256 123.548L52.1629 123.462L33.2929 104.592C32.9276 104.227 32.9039 103.648 33.2224 103.256L33.3079 103.163L52.1779 84.2929C52.5684 83.9024 53.2016 83.9024 53.5921 84.2929C53.9575 84.6582 53.9812 85.237 53.6626 85.629L53.5771 85.7222L36.4127 102.886L100.941 102.885C101.493 102.885 101.941 103.333 101.941 103.885Z" fill="currentColor"/>
</svg>
