<svg width="24" height="24" viewBox="0 0 24 24" fill="none" xmlns="http://www.w3.org/2000/svg">
<path fill-rule="evenodd" clip-rule="evenodd" d="M21.4003 2.39764C21.0005 2.09652 20.3311 2.0004 19.4036 2.0004C17.2293 2.0004 14.9364 2.56269 13.5131 3.72418L13.2935 3.91544L12.8387 4.36773C9.85826 3.80903 7.07615 4.2883 4.61378 5.42811C3.56346 5.9143 2.80225 6.40702 2.372 6.75477C1.91007 7.12813 1.87347 7.81947 2.29341 8.23951L5.6286 11.5764L4.9105 12.2953L4.81184 12.4028C3.85555 13.5414 4.84564 15.5246 6.6615 17.3405L6.83777 17.5137C8.6638 19.2756 10.6221 20.1751 11.706 19.0932L12.4256 18.3714L15.7626 21.7091L15.8566 21.7921C16.2798 22.1218 16.9008 22.0596 17.2475 21.6305C17.5952 21.2002 18.0879 20.4388 18.5741 19.3884C19.6813 16.9961 20.1652 14.3023 19.6799 11.4183L19.6336 11.1634L20.0854 10.7117L20.2425 10.5293C21.9358 8.44326 22.5026 3.77559 21.5922 2.588C21.5372 2.51615 21.4726 2.45211 21.4003 2.39764ZM13.8396 16.9574L17.8456 12.9519C17.9691 14.9552 17.5508 16.8378 16.7591 18.5483L16.6125 18.854C16.5136 19.0528 16.4127 19.242 16.307 19.425L13.8396 16.9574ZM19.4036 4.0004C17.6695 4.0004 15.817 4.45272 14.8342 5.22571L14.6786 5.35748L6.46701 13.567L6.49211 13.6595L6.54333 13.8065L6.57712 13.8889L6.63818 14.0223C6.91201 14.5875 7.42476 15.2753 8.07571 15.9263C8.72697 16.5775 9.41473 17.0905 9.9797 17.3645C10.0723 17.4094 10.1579 17.4459 10.2345 17.4743L10.3424 17.5107L10.435 17.535L18.6309 9.3393C19.2773 8.63294 19.727 7.37961 19.9137 5.92255C19.9779 5.42131 20.0061 4.92483 19.9997 4.49338L19.9918 4.2428L19.976 4.023L19.748 4.00792L19.5811 4.00231L19.4036 4.0004ZM4.85748 7.53936C5.04646 7.43876 5.24542 7.33961 5.45393 7.2431C7.16444 6.45131 9.04719 6.03296 11.0508 6.15664L7.0436 10.1614L4.57601 7.694L4.85748 7.53936Z" fill="currentColor"/>
</svg>
