<svg xmlns="http://www.w3.org/2000/svg" width="12" height="12" viewBox="0 0 12 12">
    <path fill="#A1A3A7" fill-rule="nonzero" d="M6.001 8.1C4.81 8.1 3.842 7.16 3.842 6c0-1.16.967-2.1 2.16-2.1 1.192 0 2.158.94 2.158 2.1 0 1.16-.966 2.1-2.159 2.1zm4.583-1.518c.025-.192.044-.384.044-.582 0-.198-.019-.396-.044-.6l1.302-.978a.297.297 0 0 0 .074-.384l-1.234-2.076a.307.307 0 0 0-.376-.132l-1.536.6a4.503 4.503 0 0 0-1.042-.588L7.543.252A.31.31 0 0 0 7.235 0H4.768a.31.31 0 0 0-.309.252l-.228 1.59c-.389.15-.722.354-1.042.588l-1.536-.6a.307.307 0 0 0-.377.132L.043 4.038a.29.29 0 0 0 .074.384l1.301.978a4.993 4.993 0 0 0-.043.6c0 .198.019.39.043.582l-1.301.996a.29.29 0 0 0-.074.384l1.233 2.076c.074.132.241.18.377.132l1.536-.606c.32.24.653.444 1.042.594l.228 1.59a.31.31 0 0 0 .309.252h2.467a.31.31 0 0 0 .308-.252l.229-1.59a4.522 4.522 0 0 0 1.042-.594l1.536.606c.136.048.302 0 .376-.132l1.234-2.076a.297.297 0 0 0-.074-.384l-1.302-.996z"/>
</svg>
