<svg width="360" height="360" viewBox="0 0 360 360" fill="none" xmlns="http://www.w3.org/2000/svg">
<g clip-path="url(#clip0_1_3240)">
<path d="M179.311 333.974C264.708 333.974 333.937 264.745 333.937 179.348C333.937 93.9508 264.708 24.7227 179.311 24.7227C93.914 24.7227 24.6858 93.9508 24.6858 179.348C24.6858 264.745 93.914 333.974 179.311 333.974Z" fill="url(#paint0_linear_1_3240)"/>
<path d="M179.311 333.974C264.708 333.974 333.937 264.745 333.937 179.348C333.937 93.9508 264.708 24.7227 179.311 24.7227C93.914 24.7227 24.6858 93.9508 24.6858 179.348C24.6858 264.745 93.914 333.974 179.311 333.974Z" fill="url(#paint1_radial_1_3240)"/>
<circle cx="179.433" cy="179.47" r="37.2475" fill="black" stroke="#2B344D"/>
<g filter="url(#filter0_d_1_3240)">
<path d="M179.311 333.974C264.708 333.974 333.937 264.745 333.937 179.348C333.937 93.9508 264.708 24.7227 179.311 24.7227C93.914 24.7227 24.6858 93.9508 24.6858 179.348C24.6858 264.745 93.914 333.974 179.311 333.974Z" fill="url(#paint2_linear_1_3240)" fill-opacity="0.75" shape-rendering="crispEdges"/>
</g>
<path d="M265.17 232.953C256.442 246.126 245.262 245.689 231.63 231.641C245.684 245.266 246.127 256.446 232.959 265.182L225.611 269.327L233.872 285.53C238.932 282.95 243.819 279.997 248.455 276.716C259.786 269.221 271.328 271.338 283.082 283.067C271.346 271.32 269.223 259.778 276.712 248.443C279.991 243.805 282.942 238.917 285.519 233.855L269.312 225.603L265.17 232.953Z" fill="#F7262B"/>
<path d="M127.44 265.209C114.267 256.481 114.704 245.301 128.752 231.668C115.127 245.723 103.947 246.166 95.2114 232.998L91.0657 225.65L74.8635 233.91C77.4431 238.971 80.3964 243.857 83.6775 248.494C91.1725 259.825 89.0553 271.367 77.3259 283.121C89.0735 271.385 100.615 269.262 111.95 276.751C116.588 280.03 121.476 282.981 126.538 285.557L134.79 269.351L127.44 265.209Z" fill="#F7262B"/>
<path d="M113.288 50.8603C126.79 76.5881 129.389 92.6959 121.085 99.1835C112.494 105.285 97.8021 98.1884 77.01 77.8924C87.5355 67.0911 99.9273 57.8574 113.288 50.8603Z" fill="#E1727F" stroke="#E1727F" stroke-width="0.75"/>
<path d="M245.993 50.8603C232.49 76.5881 229.891 92.6959 238.195 99.1835C246.786 105.285 261.478 98.1884 282.27 77.8924C271.744 67.0911 259.353 57.8574 245.993 50.8603Z" fill="#E1727F" stroke="#E1727F" stroke-width="0.75"/>
<path d="M202.641 36.6067C197.926 65.2774 190.3 79.7018 179.763 79.8797C169.23 79.577 161.776 65.0633 157.4 36.3387C172.308 34.0549 187.761 34.1464 202.641 36.6067Z" fill="#E1727F" stroke="#E1727F" stroke-width="0.75"/>
<path d="M202.641 36.6067C197.926 65.2774 190.3 79.7018 179.764 79.8797C169.23 79.577 161.776 65.0633 157.4 36.3387C172.308 34.0549 187.762 34.1464 202.641 36.6067Z" fill="#E1727F" stroke="#E1727F" stroke-width="0.75"/>
<path d="M156.859 36.5091C161.451 65.1999 158.777 81.2954 148.837 84.7956C138.749 87.839 127.088 76.4269 113.854 50.5593C127.275 43.6791 141.965 38.8798 156.859 36.5091Z" fill="#E1727F" stroke="#E1727F" stroke-width="0.75"/>
<path d="M245.906 50.8504C232.572 76.6658 220.866 88.0321 210.789 84.9492C200.864 81.41 198.253 65.3041 202.957 36.6316C217.842 39.0607 232.513 43.9176 245.906 50.8504Z" fill="#E1727F" stroke="#E1727F" stroke-width="0.75"/>
<path d="M35.6858 179.912C64.6586 179.912 80.0852 174.743 81.9652 164.404C81.2733 174.604 95.886 179.773 125.804 179.912C95.886 180.05 81.2733 185.219 81.9652 195.419C80.0852 185.081 64.6586 179.912 35.6858 179.912Z" fill="#8BA0A5" stroke="#8BA0A5" stroke-width="0.75"/>
<path d="M179.875 35.7227C179.875 64.6954 185.044 80.122 195.383 82.002C185.183 81.3102 180.014 95.9233 179.875 125.841C179.737 95.9233 174.568 81.3102 164.368 82.002C174.706 80.122 179.875 64.6954 179.875 35.7227Z" fill="#8BA0A5" stroke="#8BA0A5" stroke-width="0.75"/>
<path d="M135.318 317.044C144.271 289.489 144.122 273.22 134.871 268.237C144.358 272.047 153.789 259.746 163.166 231.336C154.053 259.832 154.454 275.328 164.368 277.821C153.954 276.414 144.271 289.489 135.318 317.044Z" fill="#8BA0A5" stroke="#8BA0A5" stroke-width="0.75"/>
<path d="M179.875 324.101C179.875 295.128 174.706 279.701 164.368 277.821C174.568 278.513 179.737 263.9 179.875 233.982C180.014 263.9 185.183 278.513 195.383 277.821C185.044 279.701 179.875 295.128 179.875 324.101Z" fill="#8BA0A5" stroke="#8BA0A5" stroke-width="0.75"/>
<path d="M224.431 317.044C215.478 289.489 205.794 276.414 195.381 277.821C205.295 275.328 205.696 259.832 196.583 231.336C205.96 259.746 215.391 272.047 224.878 268.237C215.627 273.22 215.478 289.489 224.431 317.044Z" fill="#8BA0A5" stroke="#8BA0A5" stroke-width="0.75"/>
<path d="M324.065 179.912C295.091 179.912 279.665 185.081 277.785 195.419C278.477 185.219 263.864 180.05 233.946 179.912C263.864 179.773 278.477 174.604 277.785 164.404C279.665 174.743 295.091 179.912 324.065 179.912Z" fill="#8BA0A5" stroke="#8BA0A5" stroke-width="0.75"/>
<path d="M42.8363 135.068C70.3723 144.079 86.6415 143.964 91.6435 134.723C87.814 144.201 100.094 153.659 128.485 163.095C100.008 153.923 84.5124 154.291 81.9978 164.2C83.4263 153.79 70.3723 144.079 42.8363 135.068Z" fill="#8BA0A5" stroke="#8BA0A5" stroke-width="0.75"/>
<path d="M316.981 135.278C289.431 144.247 276.362 153.937 277.775 164.35C275.276 154.437 259.78 154.045 231.289 163.174C259.694 153.781 271.99 144.343 268.174 134.859C273.162 144.107 289.431 144.247 316.981 135.278Z" fill="#8BA0A5" stroke="#8BA0A5" stroke-width="0.75"/>
<path d="M27.4743 203.867C22.2754 172.609 27.692 138.215 42.2462 110.068L58.3585 118.26C55.8967 123.102 53.7227 128.101 51.86 133.203C46.0715 150.22 52.8081 160.095 72.07 162.828C52.9005 159.508 43.4549 166.835 43.7331 184.807C43.9375 190.235 44.4699 195.66 45.3245 201.023L27.4743 203.867Z" fill="#584974" stroke="#584974" stroke-width="0.75"/>
<path d="M316.313 110.261C330.828 138.427 336.197 172.83 330.955 204.08L313.109 201.211C313.971 195.849 314.511 190.424 314.723 184.997C315.026 167.025 305.59 159.686 286.416 162.978C305.682 160.272 312.432 150.407 306.667 133.382C304.812 128.277 302.645 123.275 300.19 118.43L316.313 110.261Z" fill="#584974" stroke="#584974" stroke-width="0.75"/>
<path d="M270.442 303.55C245.066 322.527 212.026 333.515 180.34 333.516L180.215 315.441C185.646 315.404 191.085 315.039 196.473 314.35C214.247 311.675 219.924 301.155 213.503 282.79C219.361 301.342 230.207 306.367 246.043 297.864C250.771 295.189 255.345 292.224 259.717 289.001L270.442 303.55Z" fill="#584974" stroke="#584974" stroke-width="0.75"/>
<path d="M179.752 333.52C148.067 333.839 114.918 323.186 89.3514 304.468L99.9287 289.811C104.333 292.989 108.937 295.908 113.691 298.534C129.612 306.877 140.408 301.742 146.077 283.132C139.843 301.561 145.625 312.023 163.426 314.518C168.82 315.152 174.263 315.463 179.694 315.445L179.752 333.52Z" fill="#584974" stroke="#584974" stroke-width="0.75"/>
<path d="M196.282 212.233C204.601 229.028 205.647 238.397 199.42 240.34C193.237 242.421 188.586 234.221 185.466 215.74L198.21 296.513C193.623 267.042 194.961 251.198 202.222 248.983C209.402 246.516 219.782 258.56 233.363 285.115L196.282 212.233Z" fill="#EFCA82" stroke="#EFCA82" stroke-width="0.75"/>
<path d="M212.194 163.36C228.99 155.041 238.359 153.995 240.302 160.222C242.383 166.405 234.183 171.056 215.701 174.176L296.475 161.432C267.003 166.019 251.16 164.681 248.945 157.42C246.477 150.24 258.521 139.86 285.076 126.279L212.194 163.36Z" fill="#EFCA82" stroke="#EFCA82" stroke-width="0.75"/>
<path d="M174.096 215.734C170.954 234.211 166.293 242.406 160.113 240.317C153.888 238.367 154.945 228.999 163.284 212.213L126.116 285.051C139.729 258.512 150.123 246.481 157.3 248.957C164.558 251.181 165.877 267.026 161.256 296.492L174.096 215.734Z" fill="#EFCA82" stroke="#EFCA82" stroke-width="0.75"/>
<path d="M174.045 142.907C171.323 124.363 173.224 115.129 179.747 115.205C186.27 115.137 188.159 124.373 185.416 142.914L198.256 62.1553C193.511 91.6016 187.343 106.256 179.752 106.119C172.162 106.247 166.011 91.5853 161.301 62.1333L174.045 142.907Z" fill="#EFCA82" stroke="#EFCA82" stroke-width="0.75"/>
<path d="M215.72 174.297C234.274 171.638 243.501 173.57 243.403 180.093C243.449 186.616 234.207 188.474 215.675 185.668L296.39 198.781C266.959 193.936 252.326 187.719 252.488 180.129C252.386 172.538 267.069 166.437 296.537 161.827L215.72 174.297Z" fill="#EFCA82" stroke="#EFCA82" stroke-width="0.75"/>
<path d="M143.361 185.147C124.839 188.016 115.59 186.19 115.615 179.666C115.494 173.144 124.715 171.181 143.277 173.776L62.4185 161.582C91.9019 166.092 106.605 172.142 106.529 179.734C106.718 187.323 92.1053 193.59 62.6918 198.536L143.361 185.147Z" fill="#EFCA82" stroke="#EFCA82" stroke-width="0.75"/>
<path d="M143.294 173.654C124.802 170.597 116.586 165.974 118.646 159.784C120.568 153.55 129.941 154.564 146.764 162.826L73.7558 125.995C100.357 139.485 112.436 149.824 109.994 157.011C107.803 164.28 91.9645 165.672 62.4774 161.186L143.294 173.654Z" fill="#EFCA82" stroke="#EFCA82" stroke-width="0.75"/>
</g>
<defs>
<filter id="filter0_d_1_3240" x="9.68579" y="12.7227" width="339.251" height="339.251" filterUnits="userSpaceOnUse" color-interpolation-filters="sRGB">
<feFlood flood-opacity="0" result="BackgroundImageFix"/>
<feColorMatrix in="SourceAlpha" type="matrix" values="0 0 0 0 0 0 0 0 0 0 0 0 0 0 0 0 0 0 127 0" result="hardAlpha"/>
<feOffset dy="3"/>
<feGaussianBlur stdDeviation="7.5"/>
<feComposite in2="hardAlpha" operator="out"/>
<feColorMatrix type="matrix" values="0 0 0 0 0.160784 0 0 0 0 0.231373 0 0 0 0 0.447059 0 0 0 1 0"/>
<feBlend mode="normal" in2="BackgroundImageFix" result="effect1_dropShadow_1_3240"/>
<feBlend mode="normal" in="SourceGraphic" in2="effect1_dropShadow_1_3240" result="shape"/>
</filter>
<linearGradient id="paint0_linear_1_3240" x1="333.686" y1="77.8399" x2="24.6858" y2="290.34" gradientUnits="userSpaceOnUse">
<stop stop-color="#293B72"/>
<stop offset="1" stop-color="#0D100F"/>
</linearGradient>
<radialGradient id="paint1_radial_1_3240" cx="0" cy="0" r="1" gradientUnits="userSpaceOnUse" gradientTransform="translate(358.186 207.84) rotate(134.617) scale(158.749 212.663)">
<stop stop-color="white" stop-opacity="0"/>
<stop offset="1" stop-opacity="0.34"/>
</radialGradient>
<linearGradient id="paint2_linear_1_3240" x1="15.1858" y1="338.34" x2="309.686" y2="59.8398" gradientUnits="userSpaceOnUse">
<stop/>
<stop offset="1" stop-opacity="0"/>
</linearGradient>
<clipPath id="clip0_1_3240">
<rect width="360" height="360" fill="white"/>
</clipPath>
</defs>
</svg>
