<svg xmlns="http://www.w3.org/2000/svg" width="108" height="96" viewBox="0 0 108 96">
    <g fill="none" fill-rule="evenodd">
        <path d="M0 0H108V96H0z" opacity=".557"/>
        <path fill="#F6F7F8" d="M54 4c25.405 0 46 20.595 46 46S79.405 96 54 96 8 75.405 8 50 28.595 4 54 4"/>
        <path fill="#B2B5B2" d="M73.32 49.744c-9.838 0-17.842 8.004-17.842 17.843 0 9.84 8.004 17.843 17.842 17.843 9.84 0 17.843-8.004 17.843-17.843S83.16 49.744 73.32 49.744m0 39.686c-12.044 0-21.842-9.799-21.842-21.843s9.798-21.843 21.842-21.843c12.044 0 21.843 9.8 21.843 21.843 0 12.044-9.799 21.843-21.843 21.843M35.657 65.261L22.471 43.332l12.178 7.108c.312.181.659.272 1.008.272s.696-.091 1.008-.272l12.177-7.108-13.185 21.929zm0-59.002l16.291 30.629-16.291 9.509-16.292-9.509L35.657 6.259zm20.94 31.628c.011-.082.011-.164.011-.246.001-.062.004-.122 0-.183l-.008-.045c-.033-.34-.15-.67-.348-.953L37.423 1.061C37.076.408 36.396 0 35.657 0c-.739 0-1.419.408-1.766 1.061L15.061 36.46c-.199.283-.315.613-.349.953l-.006.045c-.005.061-.002.121-.001.183-.001.082.001.164.011.246l.002.01c.045.36.186.704.416.992l18.809 31.283c.361.602 1.012.97 1.714.97s1.353-.368 1.714-.97L56.18 38.889c.229-.288.37-.632.415-.992l.002-.01z"/>
        <path fill="#B2B5B2" d="M85.407 65.587H75.32V55.501c0-1.104-.895-2-2-2-1.104 0-2 .896-2 2v10.086H61.234c-1.104 0-2 .896-2 2s.896 2 2 2H71.32v10.087c0 1.104.896 2 2 2 1.105 0 2-.896 2-2V69.587h10.087c1.104 0 2-.896 2-2s-.896-2-2-2"/>
        <path fill="#008C73" d="M89.737 19.335H79.651V9.248c0-1.104-.895-2-2-2-1.104 0-2 .896-2 2v10.087H65.564c-1.104 0-2 .896-2 2s.896 2 2 2h10.087v10.086c0 1.104.896 2 2 2 1.105 0 2-.896 2-2V23.335h10.086c1.104 0 2-.896 2-2s-.896-2-2-2"/>
    </g>
</svg>
