<svg width="73" height="65" viewBox="0 0 73 65" fill="none" xmlns="http://www.w3.org/2000/svg">
<path fill-rule="evenodd" clip-rule="evenodd" d="M36.4998 2.70813C53.6717 2.70813 67.5924 16.6527 67.5924 33.854C67.5924 51.0553 53.6717 64.9998 36.4998 64.9998C19.3279 64.9998 5.40723 51.0553 5.40723 33.854C5.40723 16.6527 19.3279 2.70813 36.4998 2.70813Z" fill="#EEEFF0"/>
<path fill-rule="evenodd" clip-rule="evenodd" d="M49.559 33.681C42.9092 33.681 37.4991 39.1004 37.4991 45.7622C37.4991 52.424 42.9092 57.8434 49.559 57.8434C56.2094 57.8434 61.6195 52.424 61.6195 45.7622C61.6195 39.1004 56.2094 33.681 49.559 33.681ZM49.559 60.5517C41.4181 60.5517 34.7954 53.917 34.7954 45.7622C34.7954 37.6074 41.4181 30.9727 49.559 30.9727C57.6998 30.9727 64.3232 37.6074 64.3232 45.7622C64.3232 53.917 57.6998 60.5517 49.559 60.5517Z" fill="#A1A3A7"/>
<path fill-rule="evenodd" clip-rule="evenodd" d="M24.1017 44.187L15.1889 29.3393L23.4204 34.152C23.6313 34.2745 23.8658 34.3361 24.1017 34.3361C24.3376 34.3361 24.5721 34.2745 24.783 34.152L33.0138 29.3393L24.1017 44.187ZM24.1017 4.23774L35.1132 24.9761L24.1017 31.4145L13.0895 24.9761L24.1017 4.23774ZM38.2556 25.6525C38.263 25.597 38.263 25.5415 38.263 25.486C38.2637 25.444 38.2657 25.4034 38.263 25.3621C38.2617 25.3519 38.259 25.3418 38.2576 25.3316C38.2353 25.1014 38.1562 24.8779 38.0224 24.6863L25.2954 0.718263C25.0608 0.276128 24.6012 -0.00012207 24.1017 -0.00012207C23.6022 -0.00012207 23.1426 0.276128 22.908 0.718263L10.1803 24.6863C10.0458 24.8779 9.96741 25.1014 9.94443 25.3316C9.94308 25.3418 9.94105 25.3519 9.94037 25.3621C9.93699 25.4034 9.93902 25.444 9.9397 25.486C9.93902 25.5415 9.94037 25.597 9.94713 25.6525C9.94713 25.6552 9.94781 25.6573 9.94849 25.6593C9.9789 25.9031 10.0742 26.136 10.2297 26.331L22.9432 47.5122C23.1872 47.9198 23.6272 48.1689 24.1017 48.1689C24.5762 48.1689 25.0162 47.9198 25.2602 47.5122L37.9737 26.331C38.1285 26.136 38.2238 25.9031 38.2542 25.6593C38.2549 25.6573 38.2549 25.6552 38.2556 25.6525Z" fill="#A1A3A7"/>
<path fill-rule="evenodd" clip-rule="evenodd" d="M57.7286 44.4078H50.9105V37.5788C50.9105 36.8313 50.3056 36.2246 49.5587 36.2246C48.8125 36.2246 48.2068 36.8313 48.2068 37.5788V44.4078H41.3894C40.6432 44.4078 40.0376 45.0145 40.0376 45.762C40.0376 46.5095 40.6432 47.1162 41.3894 47.1162H48.2068V53.9459C48.2068 54.6934 48.8125 55.3001 49.5587 55.3001C50.3056 55.3001 50.9105 54.6934 50.9105 53.9459V47.1162H57.7286C58.4748 47.1162 59.0805 46.5095 59.0805 45.762C59.0805 45.0145 58.4748 44.4078 57.7286 44.4078Z" fill="#A1A3A7"/>
<path fill-rule="evenodd" clip-rule="evenodd" d="M60.6559 13.0914H53.8385V6.26164C53.8385 5.51414 53.2335 4.90747 52.4866 4.90747C51.7404 4.90747 51.1348 5.51414 51.1348 6.26164V13.0914H44.3167C43.5705 13.0914 42.9648 13.698 42.9648 14.4455C42.9648 15.193 43.5705 15.7997 44.3167 15.7997H51.1348V22.6288C51.1348 23.3763 51.7404 23.9829 52.4866 23.9829C53.2335 23.9829 53.8385 23.3763 53.8385 22.6288V15.7997H60.6559C61.4021 15.7997 62.0077 15.193 62.0077 14.4455C62.0077 13.698 61.4021 13.0914 60.6559 13.0914Z" fill="#121312"/>
</svg>
