<svg width="73" height="65" viewBox="0 0 73 65" fill="none" xmlns="http://www.w3.org/2000/svg">
<path fill-rule="evenodd" clip-rule="evenodd" d="M36.4998 2.70813C53.6717 2.70813 67.5924 16.6527 67.5924 33.854C67.5924 51.0553 53.6717 64.9998 36.4998 64.9998C19.3279 64.9998 5.40723 51.0553 5.40723 33.854C5.40723 16.6527 19.3279 2.70813 36.4998 2.70813Z" class="illustration-background-fill"/>
<path fill-rule="evenodd" clip-rule="evenodd" d="M49.559 33.6809C42.9092 33.6809 37.4991 39.1003 37.4991 45.7621C37.4991 52.4239 42.9092 57.8433 49.559 57.8433C56.2094 57.8433 61.6195 52.4239 61.6195 45.7621C61.6195 39.1003 56.2094 33.6809 49.559 33.6809ZM49.559 60.5516C41.4181 60.5516 34.7954 53.9169 34.7954 45.7621C34.7954 37.6073 41.4181 30.9726 49.559 30.9726C57.6998 30.9726 64.3232 37.6073 64.3232 45.7621C64.3232 53.9169 57.6998 60.5516 49.559 60.5516Z" class="illustration-light-fill"/>
<path fill-rule="evenodd" clip-rule="evenodd" d="M24.1017 44.1869L15.1889 29.3392L23.4204 34.1519C23.6313 34.2744 23.8658 34.336 24.1017 34.336C24.3376 34.336 24.5721 34.2744 24.783 34.1519L33.0138 29.3392L24.1017 44.1869ZM24.1017 4.23765L35.1132 24.976L24.1017 31.4144L13.0895 24.976L24.1017 4.23765ZM38.2556 25.6524C38.263 25.5969 38.263 25.5414 38.263 25.4859C38.2637 25.4439 38.2657 25.4033 38.263 25.362C38.2617 25.3518 38.259 25.3417 38.2576 25.3315C38.2353 25.1013 38.1562 24.8779 38.0224 24.6862L25.2954 0.718172C25.0608 0.276036 24.6012 -0.000213623 24.1017 -0.000213623C23.6022 -0.000213623 23.1426 0.276036 22.908 0.718172L10.1803 24.6862C10.0458 24.8779 9.96741 25.1013 9.94443 25.3315C9.94308 25.3417 9.94105 25.3518 9.94037 25.362C9.93699 25.4033 9.93902 25.4439 9.9397 25.4859C9.93902 25.5414 9.94037 25.5969 9.94713 25.6524C9.94713 25.6552 9.94781 25.6572 9.94849 25.6592C9.9789 25.903 10.0742 26.1359 10.2297 26.3309L22.9432 47.5121C23.1872 47.9197 23.6272 48.1688 24.1017 48.1688C24.5762 48.1688 25.0162 47.9197 25.2602 47.5121L37.9737 26.3309C38.1285 26.1359 38.2238 25.903 38.2542 25.6592C38.2549 25.6572 38.2549 25.6552 38.2556 25.6524Z" class="illustration-light-fill"/>
<path fill-rule="evenodd" clip-rule="evenodd" d="M57.7286 44.4078H50.9105V37.5787C50.9105 36.8312 50.3056 36.2245 49.5587 36.2245C48.8125 36.2245 48.2068 36.8312 48.2068 37.5787V44.4078H41.3894C40.6432 44.4078 40.0376 45.0144 40.0376 45.7619C40.0376 46.5094 40.6432 47.1161 41.3894 47.1161H48.2068V53.9459C48.2068 54.6934 48.8125 55.3 49.5587 55.3C50.3056 55.3 50.9105 54.6934 50.9105 53.9459V47.1161H57.7286C58.4748 47.1161 59.0805 46.5094 59.0805 45.7619C59.0805 45.0144 58.4748 44.4078 57.7286 44.4078Z" class="illustration-light-fill"/>
<path fill-rule="evenodd" clip-rule="evenodd" d="M60.6559 13.0913H53.8385V6.26161C53.8385 5.51411 53.2335 4.90744 52.4866 4.90744C51.7404 4.90744 51.1348 5.51411 51.1348 6.26161V13.0913H44.3167C43.5705 13.0913 42.9648 13.698 42.9648 14.4455C42.9648 15.193 43.5705 15.7997 44.3167 15.7997H51.1348V22.6287C51.1348 23.3762 51.7404 23.9829 52.4866 23.9829C53.2335 23.9829 53.8385 23.3762 53.8385 22.6287V15.7997H60.6559C61.4021 15.7997 62.0077 15.193 62.0077 14.4455C62.0077 13.698 61.4021 13.0913 60.6559 13.0913Z" class="illustration-main-fill"/>
</svg>
