<svg width="73" height="65" viewBox="0 0 73 65" fill="none" xmlns="http://www.w3.org/2000/svg">
<path fill-rule="evenodd" clip-rule="evenodd" d="M36.4998 2.88745C53.6717 2.88745 67.5924 16.7481 67.5924 33.846C67.5924 50.9439 53.6717 64.8046 36.4998 64.8046C19.3279 64.8046 5.40723 50.9439 5.40723 33.846C5.40723 16.7481 19.3279 2.88745 36.4998 2.88745Z" fill="#303033"/>
<path fill-rule="evenodd" clip-rule="evenodd" d="M59.9225 45.7899H54.6712V40.5613C54.6712 39.8183 54.0662 39.2153 53.3193 39.2153C52.5731 39.2153 51.9675 39.8183 51.9675 40.5613V45.7899H46.7176C45.9707 45.7899 45.3657 46.3929 45.3657 47.1359C45.3657 47.8789 45.9707 48.482 46.7176 48.482H51.9675V53.7099C51.9675 54.4529 52.5731 55.056 53.3193 55.056C54.0662 55.056 54.6712 54.4529 54.6712 53.7099V48.482H59.9225C60.6687 48.482 61.2743 47.8789 61.2743 47.1359C61.2743 46.3929 60.6687 45.7899 59.9225 45.7899Z" fill="#12FF80"/>
<path fill-rule="evenodd" clip-rule="evenodd" d="M31.8501 27.6048C31.8501 25.1314 33.8704 23.1191 36.3544 23.1191C38.8385 23.1191 40.8595 25.1314 40.8595 27.6048C40.8595 30.0781 38.8385 32.0897 36.3544 32.0897C33.8704 32.0897 31.8501 30.0781 31.8501 27.6048ZM49.5999 41.5146C47.295 37.0377 44.1431 34.491 40.02 33.7743C42.137 32.5225 43.5632 30.2288 43.5632 27.6048C43.5632 23.6468 40.3295 20.4271 36.3544 20.4271C32.38 20.4271 29.1464 23.6468 29.1464 27.6048C29.1464 30.5102 30.8929 33.0124 33.3925 34.1404C27.2409 36.0268 24.6183 42.1721 23.015 47.6451C22.8055 48.3585 23.2178 49.1055 23.9343 49.3141C24.0607 49.3511 24.1878 49.3686 24.3135 49.3686C24.8988 49.3686 25.4382 48.987 25.6106 48.3982C28.1048 39.8832 31.6567 36.2496 37.4866 36.2483C41.8288 36.2489 44.913 38.3124 47.1943 42.7422C47.5336 43.4044 48.3474 43.6662 49.0138 43.3257C49.6783 42.9865 49.9405 42.1755 49.5999 41.5146Z" fill="#12FF80"/>
<path fill-rule="evenodd" clip-rule="evenodd" d="M17.9089 28.0103C15.4249 28.0103 13.4039 25.998 13.4039 23.5247C13.4039 21.0514 15.4249 19.0398 17.9089 19.0398C20.393 19.0398 22.4133 21.0514 22.4133 23.5247C22.4133 25.998 20.393 28.0103 17.9089 28.0103ZM27.4192 38.3C28.0086 37.5678 28.6555 36.8874 29.3848 36.2918C27.3131 32.8076 24.6317 30.6862 21.2717 29.8685C23.5556 28.6632 25.117 26.2733 25.117 23.5247C25.117 19.5674 21.8834 16.3477 17.9089 16.3477C13.9338 16.3477 10.7002 19.5674 10.7002 23.5247C10.7002 26.2686 12.2562 28.6551 14.534 29.8631C7.86197 31.475 5.09878 37.8828 3.43397 43.5657C3.22444 44.2791 3.63675 45.0261 4.35323 45.2347C4.47963 45.2711 4.60671 45.2893 4.73243 45.2893C5.31778 45.2893 5.85717 44.907 6.02953 44.3188C8.5237 35.8038 12.0757 32.1695 17.9055 32.1682C22.1152 32.1689 25.1576 34.124 27.4192 38.3Z" fill="#636669"/>
<path fill-rule="evenodd" clip-rule="evenodd" d="M54.8055 28.0103C52.3214 28.0103 50.3011 25.998 50.3011 23.5247C50.3011 21.0514 52.3214 19.0398 54.8055 19.0398C57.2895 19.0398 59.3098 21.0514 59.3098 23.5247C59.3098 25.998 57.2895 28.0103 54.8055 28.0103ZM69.275 43.5657C67.6109 37.8834 64.8484 31.477 58.1783 29.8638C60.4569 28.6564 62.0135 26.2692 62.0135 23.5247C62.0135 19.5674 58.7799 16.3477 54.8055 16.3477C50.831 16.3477 47.5974 19.5674 47.5974 23.5247C47.5974 26.2692 49.154 28.6564 51.4326 29.8638C48.4261 30.592 45.9745 32.3634 44.0103 35.2176C44.7774 35.6652 45.4993 36.2029 46.1766 36.8355C48.326 33.6616 51.0913 32.1689 54.8034 32.1682C60.6333 32.1695 64.1853 35.8038 66.6795 44.3188C66.8518 44.907 67.3912 45.2893 67.9766 45.2893C68.1023 45.2893 68.2294 45.2711 68.3558 45.2347C69.0722 45.0261 69.4845 44.2791 69.275 43.5657Z" fill="#636669"/>
</svg>
