<svg xmlns="http://www.w3.org/2000/svg" width="108" height="96" viewBox="0 0 108 96">
    <g fill="none" fill-rule="evenodd">
        <path d="M0 0H108V96H0z" opacity=".557"/>
        <path fill="#F6F7F8" d="M54 4c25.405 0 46 20.595 46 46S79.405 96 54 96 8 75.405 8 50 28.595 4 54 4"/>
        <g>
            <path fill="#008C73" d="M83.653 43.747h-7.77v-7.77c0-1.103-.894-2-2-2-1.103 0-2 .897-2 2v7.77h-7.766c-1.105 0-2 .896-2 2s.895 2 2 2h7.767v7.768c0 1.104.896 2 2 2 1.105 0 2-.896 2-2v-7.768h7.769c1.104 0 2-.896 2-2s-.896-2-2-2" transform="translate(5 24)"/>
            <path fill="#008C73" d="M42.12 16.726c0-3.675 2.99-6.665 6.665-6.665s6.665 2.99 6.665 6.665-2.99 6.664-6.665 6.664-6.664-2.989-6.664-6.664m26.26 20.668c-3.41-6.652-8.073-10.436-14.173-11.5 3.132-1.86 5.242-5.269 5.242-9.168 0-5.88-4.784-10.665-10.665-10.665-5.88 0-10.664 4.784-10.664 10.665 0 4.317 2.584 8.035 6.282 9.711-9.101 2.803-12.981 11.934-15.353 20.066-.31 1.06.3 2.17 1.36 2.48.187.055.375.081.56.081.867 0 1.665-.567 1.92-1.442 3.69-12.652 8.945-18.05 17.57-18.053 6.424.001 10.987 3.067 14.362 9.65.502.983 1.706 1.372 2.692.866.983-.504 1.37-1.709.867-2.69" transform="translate(5 24)"/>
            <path fill="#B2B5B2" d="M21.496 17.329c-3.675 0-6.665-2.99-6.665-6.665S17.82 4 21.496 4s6.664 2.989 6.664 6.664-2.99 6.665-6.664 6.665m14.07 15.289c.872-1.088 1.829-2.099 2.908-2.984-3.065-5.177-7.032-8.329-12.003-9.544 3.379-1.791 5.689-5.342 5.689-9.426C32.16 4.784 27.376 0 21.496 0 15.615 0 10.83 4.784 10.83 10.664c0 4.077 2.302 7.623 5.672 9.418C6.632 22.477 2.543 31.998.08 40.442c-.31 1.06.3 2.17 1.36 2.48.187.054.375.081.56.081.867 0 1.665-.568 1.92-1.442 3.69-12.652 8.945-18.052 17.57-18.054 6.228.001 10.729 2.906 14.075 9.111M76.083 17.329c-3.675 0-6.664-2.99-6.664-6.665S72.408 4 76.083 4s6.664 2.989 6.664 6.664-2.99 6.665-6.664 6.665M97.49 40.442c-2.462-8.443-6.55-17.962-16.417-20.359 3.37-1.794 5.674-5.341 5.674-9.419C86.747 4.784 81.963 0 76.083 0S65.419 4.784 65.419 10.664c0 4.078 2.303 7.625 5.674 9.419-4.448 1.082-8.075 3.714-10.981 7.955 1.135.665 2.203 1.464 3.205 2.404 3.18-4.716 7.27-6.934 12.763-6.935 8.625.002 13.88 5.402 17.57 18.054.255.874 1.053 1.442 1.919 1.442.186 0 .374-.027.56-.081 1.06-.31 1.67-1.42 1.36-2.48" transform="translate(5 24)"/>
        </g>
    </g>
</svg>
