<svg width="73" height="66" viewBox="0 0 73 66" fill="none" xmlns="http://www.w3.org/2000/svg">
<path fill-rule="evenodd" clip-rule="evenodd" d="M36.4998 3.38745C53.6717 3.38745 67.5924 17.2481 67.5924 34.346C67.5924 51.4439 53.6717 65.3046 36.4998 65.3046C19.3279 65.3046 5.40723 51.4439 5.40723 34.346C5.40723 17.2481 19.3279 3.38745 36.4998 3.38745Z" class="illustration-background-fill" />
<path fill-rule="evenodd" clip-rule="evenodd" d="M59.9225 46.29H54.6712V41.0614C54.6712 40.3184 54.0662 39.7153 53.3193 39.7153C52.5731 39.7153 51.9675 40.3184 51.9675 41.0614V46.29H46.7176C45.9707 46.29 45.3657 46.893 45.3657 47.636C45.3657 48.379 45.9707 48.982 46.7176 48.982H51.9675V54.21C51.9675 54.953 52.5731 55.556 53.3193 55.556C54.0662 55.556 54.6712 54.953 54.6712 54.21V48.982H59.9225C60.6687 48.982 61.2743 48.379 61.2743 47.636C61.2743 46.893 60.6687 46.29 59.9225 46.29Z" class="illustration-main-fill" />
<path fill-rule="evenodd" clip-rule="evenodd" d="M31.8501 28.1048C31.8501 25.6315 33.8704 23.6192 36.3544 23.6192C38.8385 23.6192 40.8595 25.6315 40.8595 28.1048C40.8595 30.5781 38.8385 32.5898 36.3544 32.5898C33.8704 32.5898 31.8501 30.5781 31.8501 28.1048ZM49.5999 42.0146C47.295 37.5377 44.1431 34.9911 40.02 34.2743C42.137 33.0225 43.5632 30.7289 43.5632 28.1048C43.5632 24.1468 40.3295 20.9271 36.3544 20.9271C32.38 20.9271 29.1464 24.1468 29.1464 28.1048C29.1464 31.0102 30.8929 33.5125 33.3925 34.6404C27.2409 36.5269 24.6183 42.6722 23.015 48.1451C22.8055 48.8585 23.2178 49.6055 23.9343 49.8142C24.0607 49.8512 24.1878 49.8687 24.3135 49.8687C24.8988 49.8687 25.4382 49.4871 25.6106 48.8982C28.1048 40.3832 31.6567 36.7496 37.4866 36.7483C41.8288 36.749 44.913 38.8124 47.1943 43.2422C47.5336 43.9044 48.3474 44.1662 49.0138 43.8257C49.6783 43.4865 49.9405 42.6755 49.5999 42.0146Z" class="illustration-main-fill" />
<path fill-rule="evenodd" clip-rule="evenodd" d="M17.9089 28.5104C15.4249 28.5104 13.4039 26.4981 13.4039 24.0248C13.4039 21.5515 15.4249 19.5398 17.9089 19.5398C20.393 19.5398 22.4133 21.5515 22.4133 24.0248C22.4133 26.4981 20.393 28.5104 17.9089 28.5104ZM27.4192 38.8001C28.0086 38.0679 28.6555 37.3874 29.3848 36.7918C27.3131 33.3076 24.6317 31.1863 21.2717 30.3686C23.5556 29.1632 25.117 26.7734 25.117 24.0248C25.117 20.0675 21.8834 16.8478 17.9089 16.8478C13.9338 16.8478 10.7002 20.0675 10.7002 24.0248C10.7002 26.7687 12.2562 29.1552 14.534 30.3632C7.86197 31.9751 5.09878 38.3828 3.43397 44.0657C3.22444 44.7791 3.63675 45.5262 4.35323 45.7348C4.47963 45.7712 4.60671 45.7893 4.73243 45.7893C5.31778 45.7893 5.85717 45.4071 6.02953 44.8188C8.5237 36.3039 12.0757 32.6696 17.9055 32.6683C22.1152 32.669 25.1576 34.6241 27.4192 38.8001Z" class="illustration-light-fill" />
<path fill-rule="evenodd" clip-rule="evenodd" d="M54.8055 28.5104C52.3214 28.5104 50.3011 26.4981 50.3011 24.0248C50.3011 21.5515 52.3214 19.5398 54.8055 19.5398C57.2895 19.5398 59.3098 21.5515 59.3098 24.0248C59.3098 26.4981 57.2895 28.5104 54.8055 28.5104ZM69.275 44.0657C67.6109 38.3835 64.8484 31.9771 58.1783 30.3639C60.4569 29.1565 62.0135 26.7693 62.0135 24.0248C62.0135 20.0675 58.7799 16.8478 54.8055 16.8478C50.831 16.8478 47.5974 20.0675 47.5974 24.0248C47.5974 26.7693 49.154 29.1565 51.4326 30.3639C48.4261 31.0921 45.9745 32.8635 44.0103 35.7177C44.7774 36.1653 45.4993 36.703 46.1766 37.3356C48.326 34.1617 51.0913 32.669 54.8034 32.6683C60.6333 32.6696 64.1853 36.3039 66.6795 44.8188C66.8518 45.4071 67.3912 45.7893 67.9766 45.7893C68.1023 45.7893 68.2294 45.7712 68.3558 45.7348C69.0722 45.5262 69.4845 44.7791 69.275 44.0657Z" class="illustration-light-fill" />
</svg>
