<svg width="73" height="66" viewBox="0 0 73 66" fill="none" xmlns="http://www.w3.org/2000/svg">
<path fill-rule="evenodd" clip-rule="evenodd" d="M36.4998 3.20834C53.6717 3.20834 67.5924 17.1529 67.5924 34.3542C67.5924 51.5555 53.6717 65.5 36.4998 65.5C19.3286 65.5 5.40723 51.5555 5.40723 34.3542C5.40723 17.1529 19.3286 3.20834 36.4998 3.20834Z" class="illustration-background-fill"/>
<path fill-rule="evenodd" clip-rule="evenodd" d="M35.6464 54.5152H16.8841L26.2652 46.0699L35.6464 54.5152ZM22.1968 38.9172C24.3814 37.5739 24.445 34.6814 24.445 34.3544C24.445 31.967 23.1573 30.5133 22.3706 29.8436C22.3246 29.8017 22.2752 29.7631 22.2239 29.7285C20.5111 28.5667 19.0937 27.4955 17.9108 26.4846H34.7414C33.5321 27.5158 32.0748 28.6113 30.308 29.8098C30.26 29.8423 30.2147 29.8768 30.1714 29.9154V29.9147C28.827 31.0035 28.0862 32.5804 28.0862 34.3544C28.0862 34.6807 28.147 37.5841 30.2248 38.8976C39.729 45.3678 40.3928 49.066 40.382 54.5152H39.6912L27.169 43.2424C26.6553 42.7793 25.8752 42.7793 25.3615 43.2424L12.8393 54.5152H12.0715C12.0904 48.6164 13.0299 45.1396 22.1968 38.9172ZM40.459 14.1935C40.4475 17.9195 40.067 20.68 37.4782 23.7763H15.1699C12.4257 20.5216 12.1161 17.7245 12.083 14.1935H40.459ZM44.0252 54.5152H43.0816C43.0539 48.0017 41.9717 43.6209 31.7064 36.6321C30.9582 36.1595 30.7899 34.7951 30.7899 34.3544C30.7899 33.1492 31.3786 32.4206 31.8714 32.0211C31.8741 32.0184 31.8768 32.0164 31.8802 32.0144C42.0995 25.0695 43.1445 20.7064 43.1627 14.1935H44.0252C44.7714 14.1935 45.377 13.5875 45.377 12.8394C45.377 12.0919 44.7714 11.4852 44.0252 11.4852H8.50664C7.75974 11.4852 7.15479 12.0919 7.15479 12.8394C7.15479 13.5875 7.75974 14.1935 8.50664 14.1935H9.38399C9.482 20.7138 10.5784 25.0851 20.6422 31.9263C21.0586 32.2832 21.7413 33.0652 21.7413 34.3469C21.7359 34.787 21.5473 36.1493 20.77 36.6158C20.749 36.6287 20.7287 36.6422 20.7078 36.6558C10.4364 43.623 9.38737 47.9901 9.36777 54.5152H8.50664C7.75974 54.5152 7.15479 55.1219 7.15479 55.8694C7.15479 56.6175 7.75974 57.2235 8.50664 57.2235H41.7074H41.7237H44.0252C44.7714 57.2235 45.377 56.6175 45.377 55.8694C45.377 55.1219 44.7714 54.5152 44.0252 54.5152Z" class="illustration-light-fill"/>
<path fill-rule="evenodd" clip-rule="evenodd" d="M70.85 24.8161L65.3047 23.9521C64.5679 23.8411 63.89 24.3313 63.7649 25.0585L62.7997 30.6397C62.672 31.3763 63.1654 32.0778 63.9008 32.2051C63.9792 32.2186 64.0563 32.2247 64.1326 32.2247C64.7788 32.2247 65.3493 31.7609 65.4635 31.1021L65.9475 28.3024C66.5031 29.1697 66.9452 30.1122 67.2453 31.1042C69.0345 37.0097 65.6934 43.2727 59.7973 45.0643C53.9025 46.8592 47.6509 43.5097 45.861 37.6042C44.0718 31.6986 47.4129 25.4356 53.3084 23.6441C54.3689 23.3218 55.4598 23.1586 56.5535 23.1586C57.2997 23.1586 57.9053 22.5519 57.9053 21.8044C57.9053 21.0562 57.2997 20.4503 56.5535 20.4503C55.1949 20.4503 53.839 20.6527 52.5236 21.0515C45.2013 23.2778 41.0518 31.0561 43.2736 38.3909C45.0898 44.3852 50.6074 48.2567 56.5602 48.2567C57.8918 48.2567 59.245 48.0631 60.5834 47.6561C67.9057 45.4306 72.0545 37.6522 69.8327 30.3174C69.4988 29.2165 69.0291 28.1622 68.4396 27.1818L70.4343 27.4926C71.1717 27.6036 71.8625 27.1019 71.9781 26.3625C72.093 25.6232 71.5874 24.9312 70.85 24.8161Z" class="illustration-main-fill"/>
<path fill-rule="evenodd" clip-rule="evenodd" d="M52.0218 38.4986C51.5675 38.4986 51.1241 38.2697 50.8686 37.854C50.4779 37.2162 50.6767 36.3827 51.312 35.9907L55.1979 33.5972V28.1026C55.1979 27.3545 55.8036 26.7485 56.5498 26.7485C57.2967 26.7485 57.9016 27.3545 57.9016 28.1026V34.3542C57.9016 34.824 57.6583 35.2614 57.2582 35.5079L52.7288 38.2982C52.5078 38.4336 52.2631 38.4986 52.0218 38.4986Z" class="illustration-main-fill"/>
</svg>
