<svg width="73" height="65" viewBox="0 0 73 65" fill="none" xmlns="http://www.w3.org/2000/svg">
<path fill-rule="evenodd" clip-rule="evenodd" d="M36.4998 2.70837C53.6717 2.70837 67.5924 16.6529 67.5924 33.8542C67.5924 51.0555 53.6717 65 36.4998 65C19.3286 65 5.40723 51.0555 5.40723 33.8542C5.40723 16.6529 19.3286 2.70837 36.4998 2.70837Z" fill="#EEEFF0"/>
<path fill-rule="evenodd" clip-rule="evenodd" d="M35.6464 54.0152H16.8841L26.2652 45.57L35.6464 54.0152ZM22.1968 38.4173C24.3814 37.0739 24.445 34.1814 24.445 33.8544C24.445 31.467 23.1573 30.0133 22.3706 29.3437C22.3246 29.3017 22.2752 29.2631 22.2239 29.2286C20.5111 28.0667 19.0937 26.9955 17.9108 25.9847H34.7414C33.5321 27.0159 32.0748 28.1114 30.308 29.3098C30.26 29.3423 30.2147 29.3768 30.1714 29.4154V29.4148C28.827 30.5035 28.0862 32.0804 28.0862 33.8544C28.0862 34.1807 28.147 37.0841 30.2248 38.3976C39.729 44.8678 40.3928 48.5661 40.382 54.0152H39.6912L27.169 42.7425C26.6553 42.2793 25.8752 42.2793 25.3615 42.7425L12.8393 54.0152H12.0715C12.0904 48.1165 13.0299 44.6397 22.1968 38.4173ZM40.459 13.6936C40.4475 17.4196 40.067 20.18 37.4782 23.2763H15.1699C12.4257 20.0216 12.1161 17.2246 12.083 13.6936H40.459ZM44.0252 54.0152H43.0816C43.0539 47.5017 41.9717 43.121 31.7064 36.1321C30.9582 35.6595 30.7899 34.2952 30.7899 33.8544C30.7899 32.6492 31.3786 31.9206 31.8714 31.5212C31.8741 31.5185 31.8768 31.5164 31.8802 31.5144C42.0995 24.5696 43.1445 20.2064 43.1627 13.6936H44.0252C44.7714 13.6936 45.377 13.0876 45.377 12.3394C45.377 11.5919 44.7714 10.9852 44.0252 10.9852H8.50664C7.75974 10.9852 7.15479 11.5919 7.15479 12.3394C7.15479 13.0876 7.75974 13.6936 8.50664 13.6936H9.38399C9.482 20.2139 10.5784 24.5851 20.6422 31.4264C21.0586 31.7832 21.7413 32.5652 21.7413 33.8469C21.7359 34.2871 21.5473 35.6493 20.77 36.1159C20.749 36.1287 20.7287 36.1423 20.7078 36.1558C10.4364 43.123 9.38737 47.4902 9.36777 54.0152H8.50664C7.75974 54.0152 7.15479 54.6219 7.15479 55.3694C7.15479 56.1176 7.75974 56.7236 8.50664 56.7236H41.7074H41.7237H44.0252C44.7714 56.7236 45.377 56.1176 45.377 55.3694C45.377 54.6219 44.7714 54.0152 44.0252 54.0152Z" fill="#A1A3A7"/>
<path fill-rule="evenodd" clip-rule="evenodd" d="M70.85 24.3162L65.3047 23.4522C64.5679 23.3412 63.89 23.8314 63.7649 24.5585L62.7997 30.1397C62.672 30.8764 63.1654 31.5779 63.9008 31.7052C63.9792 31.7187 64.0563 31.7248 64.1326 31.7248C64.7788 31.7248 65.3493 31.261 65.4635 30.6022L65.9475 27.8025C66.5031 28.6698 66.9452 29.6123 67.2453 30.6042C69.0345 36.5097 65.6934 42.7728 59.7973 44.5643C53.9025 46.3593 47.6509 43.0097 45.861 37.1042C44.0718 31.1987 47.4129 24.9357 53.3084 23.1441C54.3689 22.8218 55.4598 22.6587 56.5535 22.6587C57.2997 22.6587 57.9053 22.052 57.9053 21.3045C57.9053 20.5563 57.2997 19.9503 56.5535 19.9503C55.1949 19.9503 53.839 20.1528 52.5236 20.5516C45.2013 22.7778 41.0518 30.5562 43.2736 37.891C45.0898 43.8852 50.6074 47.7568 56.5602 47.7568C57.8918 47.7568 59.245 47.5631 60.5834 47.1562C67.9057 44.9306 72.0545 37.1523 69.8327 29.8175C69.4988 28.7165 69.0291 27.6623 68.4396 26.6819L70.4343 26.9927C71.1717 27.1037 71.8625 26.602 71.9781 25.8626C72.093 25.1232 71.5874 24.4313 70.85 24.3162Z" fill="#121312"/>
<path fill-rule="evenodd" clip-rule="evenodd" d="M52.0218 37.9986C51.5675 37.9986 51.1241 37.7698 50.8686 37.3541C50.4779 36.7162 50.6767 35.8828 51.312 35.4907L55.1979 33.0972V27.6027C55.1979 26.8545 55.8036 26.2485 56.5498 26.2485C57.2967 26.2485 57.9016 26.8545 57.9016 27.6027V33.8542C57.9016 34.3241 57.6583 34.7615 57.2582 35.008L52.7288 37.7982C52.5078 37.9336 52.2631 37.9986 52.0218 37.9986Z" fill="#121312"/>
</svg>
