<svg xmlns="http://www.w3.org/2000/svg" width="108" height="96" viewBox="0 0 108 96">
    <g fill="none" fill-rule="evenodd">
        <path d="M0 0H108V96H0z" opacity=".557"/>
        <path fill="#F6F7F8" d="M54 4c25.405 0 46 20.595 46 46S79.405 96 54 96C28.596 96 8 75.405 8 50S28.596 4 54 4"/>
        <path fill="#B2B5B2" d="M52.737 79.776H24.979l13.879-12.473 13.879 12.473zM32.839 56.74c3.232-1.984 3.326-6.256 3.326-6.739 0-3.526-1.905-5.673-3.07-6.662-.067-.062-.14-.119-.216-.17-2.534-1.716-4.631-3.298-6.381-4.79h24.9c-1.79 1.522-3.945 3.14-6.56 4.91-.07.048-.137.1-.201.156-1.99 1.607-3.085 3.936-3.085 6.556 0 .482.09 4.77 3.164 6.71 14.06 9.556 15.043 15.018 15.027 23.066h-1.022L40.195 63.127c-.76-.684-1.914-.684-2.674 0l-18.526 16.65h-1.136c.028-8.713 1.418-13.848 14.98-23.038zm27.018-36.515c-.017 5.503-.58 9.58-4.41 14.153H22.443c-4.06-4.807-4.518-8.938-4.567-14.153h41.98zm5.276 59.552h-1.396c-.041-9.62-1.642-16.09-16.83-26.412-1.106-.698-1.355-2.713-1.355-3.364 0-1.78.87-2.856 1.6-3.446l.013-.01c15.119-10.257 16.665-16.7 16.692-26.32h1.276c1.104 0 2-.895 2-2 0-1.104-.896-2-2-2H12.585c-1.105 0-2 .896-2 2 0 1.105.895 2 2 2h1.298c.145 9.63 1.767 16.086 16.656 26.19.616.527 1.626 1.682 1.626 3.575-.008.65-.287 2.662-1.437 3.351l-.092.06C15.44 63.69 13.888 70.14 13.859 79.775h-1.274c-1.105 0-2 .896-2 2 0 1.105.895 2 2 2h52.548c1.104 0 2-.895 2-2 0-1.104-.896-2-2-2z"/>
        <path fill="#008C73" d="M104.819 35.913l-8.204-1.276c-1.09-.164-2.093.56-2.278 1.634l-1.428 8.243c-.189 1.088.541 2.124 1.629 2.312.116.02.23.029.343.029.956 0 1.8-.685 1.969-1.658l.716-4.135c.822 1.281 1.476 2.673 1.92 4.138 2.647 8.722-2.296 17.972-11.019 20.618-8.721 2.651-17.97-2.296-20.618-11.018-2.647-8.722 2.296-17.972 11.018-20.618 1.569-.476 3.183-.717 4.801-.717 1.104 0 2-.896 2-2 0-1.105-.896-2-2-2-2.01 0-4.016.299-5.962.888-10.833 3.288-16.972 14.776-13.685 25.609 2.687 8.853 10.85 14.571 19.657 14.571 1.97 0 3.972-.286 5.952-.887 10.833-3.287 16.971-14.775 13.684-25.608-.494-1.626-1.189-3.183-2.061-4.631l2.951.459c1.091.164 2.113-.577 2.284-1.669.17-1.092-.578-2.114-1.669-2.284"/>
        <path fill="#008C73" d="M76.963 56.121c-.671 0-1.328-.338-1.706-.952-.578-.942-.284-2.173.656-2.752l5.75-3.535v-8.115c0-1.105.895-2 2-2s2 .895 2 2V50c0 .694-.36 1.34-.953 1.704l-6.7 4.121c-.328.2-.69.296-1.047.296"/>
    </g>
</svg>
