<svg width="24" height="24" viewBox="0 0 24 24" fill="none" xmlns="http://www.w3.org/2000/svg">
<path d="M11.7947 4.22853L12.3936 3.64844C14.5921 1.45114 18.1551 1.45114 20.3526 3.64863C22.4917 5.78774 22.5495 9.21871 20.5262 11.4275L20.3527 11.6087L17.3344 14.628C15.1369 16.8243 11.5731 16.8243 9.37541 14.6278C9.16318 14.4156 8.96942 14.1883 8.79617 13.9487C8.47256 13.5011 8.57303 12.876 9.02057 12.5524C9.46812 12.2288 10.0933 12.3292 10.4169 12.7768C10.5278 12.9302 10.6525 13.0765 10.7894 13.2134C12.1554 14.5786 14.3411 14.6274 15.7653 13.36L15.9203 13.2137L18.9384 10.1946C20.3559 8.77716 20.3559 6.48032 18.9384 5.06284C17.5725 3.69693 15.3879 3.64814 13.9527 4.92645L13.7964 5.07394L13.1864 5.66494C12.7897 6.04924 12.1566 6.03922 11.7723 5.64257C11.4176 5.27643 11.3988 4.70883 11.71 4.32141L11.7947 4.22853Z" fill="#5FDDFF"/>
<path d="M6.6671 9.37566C8.8646 7.17817 12.4286 7.17817 14.6273 9.37566C14.7826 9.53091 14.9274 9.69368 15.0624 9.86421C15.4051 10.2973 15.3318 10.9262 14.8988 11.2689C14.4657 11.6116 13.8368 11.5384 13.4941 11.1053C13.407 10.9953 13.3136 10.8904 13.2133 10.7901C11.8464 9.42396 9.66084 9.37517 8.23627 10.6436L8.0812 10.79L5.06251 13.8077C3.64578 15.2252 3.64578 17.5223 5.06232 18.9397C6.42917 20.3065 8.61369 20.3553 10.0348 19.0903L10.1895 18.9443L10.9425 18.1813C11.3304 17.7882 11.9635 17.7841 12.3566 18.172C12.7195 18.5301 12.751 19.0971 12.4485 19.4914L12.366 19.5862L11.6083 20.3539C9.40979 22.5524 5.84663 22.5524 3.64791 20.3537C1.51003 18.2146 1.45225 14.7839 3.47486 12.5748L3.64822 12.3935L6.6671 9.37566Z" fill="#5FDDFF"/>
</svg>
