<svg width="32" height="32" viewBox="0 0 32 32" fill="none" xmlns="http://www.w3.org/2000/svg">
<path fill-rule="evenodd" clip-rule="evenodd" d="M16.523 27.1792L16.5323 28.9685C16.5336 29.1699 16.6963 29.3325 16.8976 29.3325H18.675C18.7723 29.3325 18.8656 29.2939 18.935 29.2259L24.3057 23.8539C24.5163 23.6432 24.5163 23.3005 24.3057 23.0899L22.7296 21.5139C22.5376 21.3219 22.2257 21.3219 22.0337 21.5139L16.6296 26.9192C16.5603 26.9872 16.5216 27.0819 16.523 27.1792" class="illustration-light-fill"/>
<path fill-rule="evenodd" clip-rule="evenodd" d="M25.912 22.2467L27.884 20.2761C28.032 20.1281 28.032 19.8867 27.884 19.7387L26.1146 17.9694C25.9666 17.8214 25.7253 17.8214 25.5773 17.9694L23.6066 19.9414C23.4573 20.0894 23.4573 20.3307 23.6066 20.4787L25.376 22.2467C25.524 22.3947 25.764 22.3947 25.912 22.2467" class="illustration-light-fill"/>
<path fill-rule="evenodd" clip-rule="evenodd" d="M17.3312 10.6934V6.44008L21.5672 10.6721L17.3312 10.6934ZM25.3338 14.6654V14.6601V14.6547V11.1627C25.3338 10.8427 25.2058 10.5374 24.9792 10.3121L17.7365 3.07608C17.4738 2.81341 17.1192 2.66675 16.7485 2.66675H6.66715C5.19249 2.66675 4.00049 3.86008 4.00049 5.33341V26.6667C4.00049 28.1387 5.19249 29.3334 6.66715 29.3334H11.9858C11.9912 29.3334 11.9952 29.3361 12.0005 29.3361C12.7378 29.3361 13.3338 28.7387 13.3338 28.0027C13.3338 27.2667 12.7378 26.6694 12.0005 26.6694V26.6667H6.66715V5.33341H14.6645V10.6934C14.6645 12.1454 15.8485 13.3267 17.3032 13.3267H22.6672V14.6721H22.6698C22.6778 15.4027 23.2685 15.9934 24.0005 15.9934C24.7338 15.9934 25.3245 15.4027 25.3312 14.6721H25.3338V14.6654Z" class="illustration-light-fill"/>
</svg>
