<svg width="16" height="16" viewBox="0 0 16 16" fill="none" xmlns="http://www.w3.org/2000/svg">
<path d="M8 15C11.866 15 15 11.866 15 8C15 4.13401 11.866 1 8 1C4.13401 1 1 4.13401 1 8C1 11.866 4.13401 15 8 15Z" fill="currentColor"/>
<path class="illustration-background-fill" d="M7.68894 8.54156L6.18321 7.13278C5.77992 6.75545 5.14711 6.7765 4.76978 7.17979C4.39245 7.58308 4.4135 8.2159 4.8168 8.59322L7.0378 10.6712C7.4352 11.043 8.05698 11.0288 8.43694 10.6392L11.3049 7.69817C11.6905 7.30277 11.6826 6.66965 11.2872 6.28406C10.8918 5.89848 10.2587 5.90643 9.87307 6.30183L7.68894 8.54156Z" />
</svg>
