<svg width="89" height="80" viewBox="0 0 89 80" fill="none" xmlns="http://www.w3.org/2000/svg">
    <path fill-rule="evenodd" clip-rule="evenodd" d="M45.8982 0C67.9886 0 85.8982 17.9087 85.8982 40C85.8982 62.0904 67.9886 80 45.8982 80C23.8069 80 5.89819 62.0904 5.89819 40C5.89819 17.9087 23.8069 0 45.8982 0Z" class="illustration-background-fill" />
    <path fill-rule="evenodd" clip-rule="evenodd" d="M13.359 28.673H6.759C3.39639 28.673 0.672046 31.3983 0.672046 34.76V41.3609C0.672046 44.7217 3.39639 47.4478 6.759 47.4478H13.359C16.7207 47.4478 19.446 44.7217 19.446 41.3609V34.7609C19.446 31.3983 16.7207 28.6739 13.359 28.6739M13.359 32.1522C14.7973 32.1522 15.9677 33.3217 15.9677 34.7609V41.3609C15.9677 42.7983 14.7973 43.9696 13.359 43.9696H6.759C5.31987 43.9696 4.15031 42.7983 4.15031 41.3609V34.7609C4.15031 33.3217 5.31987 32.1522 6.759 32.1522H13.359ZM33.0007 28.673H32.966C27.792 28.673 23.5964 32.8678 23.5964 38.0417V38.0774C23.5964 43.253 27.7912 47.4478 32.9651 47.4478H33.0007C38.1755 47.4478 42.3703 43.253 42.3703 38.0774V38.0426C42.3703 32.8687 38.1755 28.673 33.0007 28.673M33.0007 32.1513C36.2486 32.1513 38.892 34.7948 38.892 38.0774C38.892 41.3261 36.2486 43.9696 32.9651 43.9696C29.7173 43.9696 27.0747 41.3261 27.0747 38.0417C27.0747 34.7939 29.7181 32.1513 32.9651 32.1513H33.0007M36.306 51.62H29.7042C26.3425 51.62 23.6173 54.3452 23.6173 57.7069V64.307C23.6173 67.6696 26.3425 70.3939 29.7042 70.3939H36.3042C39.6668 70.3939 42.3912 67.6696 42.3912 64.307V57.7069C42.3912 54.3452 39.6668 51.62 36.3042 51.62M36.3042 55.0983C37.7434 55.0983 38.9129 56.2687 38.9129 57.7069V64.307C38.9129 65.7452 37.7434 66.9156 36.3042 66.9156H29.7042C28.266 66.9156 27.0955 65.7452 27.0955 64.307V57.7069C27.0955 56.2687 28.266 55.0983 29.7042 55.0983H36.3042ZM18.8468 69.8026L18.8416 69.8078C18.0642 70.5852 16.792 70.5852 16.0138 69.8078L1.23465 55.0296C0.457263 54.2513 0.457263 52.9791 1.23465 52.2017L1.23987 52.1965C2.01726 51.4183 3.28944 51.4183 4.0677 52.1965L18.8468 66.9739C19.6251 67.7522 19.6251 69.0235 18.8468 69.8017" class="illustration-light-fill" />
    <path fill-rule="evenodd" clip-rule="evenodd" d="M1.23457 69.8026L1.24066 69.8078C2.01805 70.5852 3.29023 70.5852 4.06849 69.8078L18.8467 55.0295C19.6241 54.2513 19.6241 52.9791 18.8467 52.2017L18.8415 52.1965C18.0641 51.4182 16.792 51.4182 16.0137 52.1965L1.23457 66.9739C0.456314 67.7521 0.456314 69.0234 1.23457 69.8017" class="illustration-light-fill" />
    <path d="M11.1138 13.8991H31.9833M21.5486 24.3339V3.46436" class="illustration-main-stroke" stroke="#121312" stroke-width="4" stroke-linecap="round" stroke-linejoin="round" />
    <path fill-rule="evenodd" clip-rule="evenodd" d="M43.0165 59.1252C40.2896 59.1252 38.0713 56.9061 38.0713 54.18V22.3304C38.0713 19.6044 40.2887 17.3852 43.0165 17.3852H81.8209C84.5478 17.3852 86.7669 19.6044 86.7669 22.3304V54.1791C86.7669 56.9052 84.5478 59.1243 81.8209 59.1243H43.0165V59.1252Z" class="illustration-background-fill" />
    <path fill-rule="evenodd" clip-rule="evenodd" d="M81.8209 15.647H43.0165C39.3243 15.647 36.3313 18.6383 36.3313 22.3313V54.18C36.3313 57.8722 39.3243 60.8644 43.0165 60.8644H81.8209C85.5122 60.8644 88.5052 57.8722 88.5052 54.18V22.3304C88.5052 18.6383 85.5122 15.6461 81.8209 15.6461M81.8209 19.1243C83.5887 19.1243 85.0278 20.5626 85.0278 22.3304V54.1791C85.0278 55.947 83.5887 57.3852 81.8209 57.3852H43.0165C41.2478 57.3852 39.8096 55.947 39.8096 54.1791V22.3304C39.8096 20.5626 41.2478 19.1243 43.0165 19.1243H81.8209Z" class="illustration-light-fill" />
    <path d="M39.4053 29.5461H85.4922" class="illustration-light-stroke" stroke="#A1A3A7" stroke-width="4" stroke-linecap="round" stroke-linejoin="round"/>
    <path fill-rule="evenodd" clip-rule="evenodd" d="M45.8975 23.4582C45.8975 24.4182 45.1183 25.1974 44.1583 25.1974C43.1983 25.1974 42.4192 24.4182 42.4192 23.4582C42.4192 22.4982 43.1983 21.7191 44.1583 21.7191C45.1183 21.7191 45.8975 22.4982 45.8975 23.4582ZM51.9627 23.4582C51.9627 24.4182 51.1835 25.1974 50.2235 25.1974C49.2635 25.1974 48.4844 24.4182 48.4844 23.4582C48.4844 22.4982 49.2635 21.7191 50.2235 21.7191C51.1835 21.7191 51.9627 22.4982 51.9627 23.4582ZM58.0644 23.4582C58.0644 24.4182 57.2853 25.1974 56.3253 25.1974C55.3653 25.1974 54.5861 24.4182 54.5861 23.4582C54.5861 22.4982 55.3653 21.7191 56.3253 21.7191C57.2853 21.7191 58.0644 22.4982 58.0644 23.4582Z" class="illustration-light-fill" />
    <path d="M58.0722 52.1539L50.2461 44.3278L58.0722 36.5017M66.753 52.1539L74.5791 44.3278L66.753 36.5017" class="illustration-light-stroke" stroke="#A1A3A7" stroke-width="4" stroke-linecap="round" stroke-linejoin="round"/>
</svg>