<svg width="48" height="48" viewBox="0 0 48 48" fill="none" xmlns="http://www.w3.org/2000/svg">
<path fill-rule="evenodd" clip-rule="evenodd" d="M18 4H8C5.79086 4 4 5.79086 4 8V18C4 20.2091 5.79086 22 8 22H18C20.2091 22 22 20.2091 22 18V8C22 5.79086 20.2091 4 18 4ZM8 18V8H18V18H8Z" fill="#DDDEE0"/>
<path fill-rule="evenodd" clip-rule="evenodd" d="M40 26H30C27.7909 26 26 27.7909 26 30V40C26 42.2091 27.7909 44 30 44H40C42.2091 44 44 42.2091 44 40V30C44 27.7909 42.2091 26 40 26ZM30 40V30H40V40H30Z" fill="#DDDEE0"/>
<path fill-rule="evenodd" clip-rule="evenodd" d="M44 13C44 17.9706 39.9706 22 35 22C30.0294 22 26 17.9706 26 13C26 8.02944 30.0294 4 35 4C39.9706 4 44 8.02944 44 13ZM30 13C30 15.7614 32.2386 18 35 18C37.7614 18 40 15.7614 40 13C40 10.2386 37.7614 8 35 8C32.2386 8 30 10.2386 30 13Z" fill="#DDDEE0"/>
<path fill-rule="evenodd" clip-rule="evenodd" d="M13.0025 37.7182L7.27273 43.448C6.52873 44.192 5.31273 44.192 4.56673 43.448L4.55873 43.438C3.81473 42.694 3.81473 41.476 4.55873 40.73L10.2867 35.002L4.55953 29.274C3.81553 28.53 3.81553 27.312 4.55953 26.568L4.56753 26.558C5.31353 25.814 6.52953 25.814 7.27353 26.558L13.0025 32.2862L18.7307 26.558C19.4747 25.814 20.6927 25.814 21.4367 26.558L21.4467 26.568C22.1907 27.312 22.1907 28.53 21.4467 29.274L15.7187 35.002L21.4475 40.73C22.1915 41.476 22.1915 42.694 21.4475 43.438L21.4375 43.448C20.6935 44.192 19.4755 44.192 18.7315 43.448L13.0025 37.7182Z" fill="#DDDEE0"/>
</svg>
