<svg xmlns="http://www.w3.org/2000/svg" width="16" height="16" viewBox="0 0 16 16">
    
    <path
    className="fill"
    fillRule="nonzero"
    d="M2 1h4a1 1 0 0 1 1 1v4a1 1 0 0 1-1 1H2a1 1 0 0 1-1-1V2a1 1 0 0 1 1-1zm1 2v2h2V3H3zM10 9h4a1 1 0 0 1 1 1v4a1 1 0 0 1-1 1h-4a1 1 0 0 1-1-1v-4a1 1 0 0 1 1-1zm1 2v2h2v-2h-2zM12 7a3 3 0 1 0 0-6 3 3 0 0 0 0 6zm0-1.9a1.1 1.1 0 1 1 0-2.2 1.1 1.1 0 0 1 0 2.2z"
    />
    <path
    className="fill"
    d="M2.641 11.999l-1.36-1.361A.96.96 0 0 1 2.637 9.28l1.36 1.36 1.362-1.36a.959.959 0 1 1 1.357 1.357l-1.36 1.36 1.36 1.362a.96.96 0 0 1-1.357 1.358L4 13.356l-1.361 1.362a.962.962 0 0 1-1.358 0 .964.964 0 0 1 0-1.358l1.361-1.361z"
    />
</svg> 

