<svg width="24" height="24" viewBox="0 0 24 24" fill="none" xmlns="http://www.w3.org/2000/svg">
<path fill-rule="evenodd" clip-rule="evenodd" d="M9 2H4C2.89543 2 2 2.89543 2 4V9C2 10.1046 2.89543 11 4 11H9C10.1046 11 11 10.1046 11 9V4C11 2.89543 10.1046 2 9 2ZM4 9V4H9V9H4Z"/>
<path fill-rule="evenodd" clip-rule="evenodd" d="M20 13H15C13.8954 13 13 13.8954 13 15V20C13 21.1046 13.8954 22 15 22H20C21.1046 22 22 21.1046 22 20V15C22 13.8954 21.1046 13 20 13ZM15 20V15H20V20H15Z"/>
<path fill-rule="evenodd" clip-rule="evenodd" d="M22 6.5C22 8.98528 19.9853 11 17.5 11C15.0147 11 13 8.98528 13 6.5C13 4.01472 15.0147 2 17.5 2C19.9853 2 22 4.01472 22 6.5ZM15 6.5C15 7.88071 16.1193 9 17.5 9C18.8807 9 20 7.88071 20 6.5C20 5.11929 18.8807 4 17.5 4C16.1193 4 15 5.11929 15 6.5Z"/>
<path fill-rule="evenodd" clip-rule="evenodd" d="M6.5013 18.859L3.6364 21.7239C3.2644 22.0959 2.6564 22.0959 2.2834 21.7239L2.2794 21.7189C1.9074 21.3469 1.9074 20.7379 2.2794 20.3649L5.14339 17.5009L2.2798 14.6369C1.9078 14.2649 1.9078 13.6559 2.2798 13.2839L2.2838 13.2789C2.6568 12.9069 3.2648 12.9069 3.6368 13.2789L6.5013 16.143L9.3654 13.2789C9.7374 12.9069 10.3464 12.9069 10.7184 13.2789L10.7234 13.2839C11.0954 13.6559 11.0954 14.2649 10.7234 14.6369L7.85939 17.5009L10.7238 20.3649C11.0958 20.7379 11.0958 21.3469 10.7238 21.7189L10.7188 21.7239C10.3468 22.0959 9.7378 22.0959 9.3658 21.7239L6.5013 18.859Z"/>
</svg>
