<svg width="22" height="22" viewBox="0 0 22 22" fill="none" xmlns="http://www.w3.org/2000/svg">
<circle cx="11" cy="11" r="11" fill="#FFD600"/>
<path fill-rule="evenodd" clip-rule="evenodd" d="M10.7764 5.55279C10.9172 5.4824 11.0828 5.4824 11.2236 5.55279L16.2235 8.05279C16.3929 8.13748 16.4999 8.31061 16.4999 8.5C16.4999 8.68939 16.3929 8.86252 16.2235 8.94721L11.2236 11.4472C11.0828 11.5176 10.9172 11.5176 10.7764 11.4472L5.7765 8.94721C5.60711 8.86252 5.50011 8.68939 5.50011 8.5C5.50011 8.31061 5.60711 8.13748 5.7765 8.05279L10.7764 5.55279ZM7.11811 8.5L11 10.441L14.8819 8.5L11 6.55902L7.11811 8.5ZM5.55289 10.7764C5.67639 10.5294 5.97672 10.4293 6.2237 10.5528L11 12.941L15.7763 10.5528C16.0233 10.4293 16.3236 10.5294 16.4471 10.7764C16.5706 11.0234 16.4705 11.3237 16.2235 11.4472L11.2236 13.9472C11.0828 14.0176 10.9172 14.0176 10.7764 13.9472L5.7765 11.4472C5.52951 11.3237 5.4294 11.0234 5.55289 10.7764ZM5.55289 13.2764C5.67639 13.0294 5.97672 12.9293 6.2237 13.0528L11 15.441L15.7763 13.0528C16.0233 12.9293 16.3236 13.0294 16.4471 13.2764C16.5706 13.5234 16.4705 13.8237 16.2235 13.9472L11.2236 16.4472C11.0828 16.5176 10.9172 16.5176 10.7764 16.4472L5.7765 13.9472C5.52951 13.8237 5.4294 13.5234 5.55289 13.2764Z" fill="black"/>
</svg>
