<?xml version="1.0" standalone="no"?>
<!DOCTYPE svg PUBLIC "-//W3C//DTD SVG 20010904//EN"
 "http://www.w3.org/TR/2001/REC-SVG-20010904/DTD/svg10.dtd">
<svg version="1.0" xmlns="http://www.w3.org/2000/svg"
 width="512.000000pt" height="512.000000pt" viewBox="0 0 512.000000 512.000000"
 preserveAspectRatio="xMidYMid meet">

<g transform="translate(0.000000,512.000000) scale(0.100000,-0.100000)"
fill="#000000" stroke="none">
<path d="M4590 4479 c-31 -10 -547 -208 -3432 -1319 -509 -196 -764 -300 -802
-325 -60 -39 -96 -88 -96 -127 0 -38 40 -89 90 -115 46 -24 1086 -353 1115
-353 9 0 239 141 513 313 1444 911 1939 1221 1969 1233 68 29 127 9 104 -35
-11 -20 -134 -132 -1351 -1231 -344 -310 -627 -568 -630 -572 -3 -4 -20 -220
-38 -480 -18 -260 -36 -502 -39 -537 l-6 -64 40 5 c22 3 56 13 75 22 19 9 162
139 318 289 155 150 286 273 290 275 3 1 242 -172 531 -384 288 -213 547 -398
576 -411 147 -68 259 -20 316 137 9 25 175 790 368 1700 389 1828 380 1781
330 1883 -31 63 -82 97 -152 102 -30 3 -70 0 -89 -6z"/>
</g>
</svg>
