<svg width="110" height="92" viewBox="0 0 110 92" fill="none" xmlns="http://www.w3.org/2000/svg">
<path fill-rule="evenodd" clip-rule="evenodd" class="illustration-background-fill" d="M46 0C71.405 0 92 20.595 92 46C92 71.406 71.405 92.001 46 92.001C20.595 92.001 0 71.406 0 46C0 20.595 20.595 0 46 0Z" fill="#F6F7F8"/>
<path class="illustration-light-fill" fill-rule="evenodd" clip-rule="evenodd" d="M26.1364 13C22.7725 13 20 15.7286 20 19.0392V73.3919C20 76.7024 22.7725 79.431 26.1364 79.431H103.864C107.227 79.431 110 76.7024 110 73.3919V19.0392C110 15.7286 107.227 13 103.864 13H26.1364ZM25.9805 16.9078H44.7596C44.8311 16.9316 44.9066 16.9554 44.982 16.9713C46.2292 17.1618 47.2619 17.7968 48.3502 18.908C49.4384 20.0192 50.5108 21.5671 51.6865 23.226C52.5841 24.4921 53.5652 25.8375 54.7368 27.0677H23.9474V18.9397C23.9474 17.7769 24.8172 16.9077 25.981 16.9077L25.9805 16.9078ZM52.3684 16.9077H104.008C105.178 16.9077 106.053 17.7769 106.053 18.9397V27.0677H63.5848C63.457 27.0439 63.3292 27.036 63.2014 27.036C59.7822 26.6669 57.7691 24.1031 55.4683 20.8765C54.5216 19.5509 53.4911 18.1897 52.3687 16.9078L52.3684 16.9077ZM29.0789 20.0339C27.988 20.0339 27.1053 20.9078 27.1053 21.9877C27.1053 23.0677 27.988 23.9416 29.0789 23.9416C30.1699 23.9416 31.0526 23.0677 31.0526 21.9877C31.0526 20.9078 30.1699 20.0339 29.0789 20.0339ZM36.1842 20.0339C35.0933 20.0339 34.2105 20.9078 34.2105 21.9877C34.2105 23.0677 35.0933 23.9416 36.1842 23.9416C37.2751 23.9416 38.1579 23.0677 38.1579 21.9877C38.1579 20.9078 37.2751 20.0339 36.1842 20.0339ZM43.2895 20.0339C42.1985 20.0339 41.3158 20.9078 41.3158 21.9877C41.3158 23.0677 42.1985 23.9416 43.2895 23.9416C44.3804 23.9416 45.2632 23.0677 45.2632 21.9877C45.2632 20.9078 44.3804 20.0339 43.2895 20.0339ZM23.9474 30.9755H105.263V73.4984C105.263 74.6572 104.394 75.5233 103.23 75.5233H25.9803C24.8169 75.5233 23.9474 74.6572 23.9474 73.4984V30.9755Z" fill="#B2BBC0"/>
<path class="illustration-main-fill" d="M96.1 76.8C96 77 95.8 77.2 95.5 77.2H91.8L93.8 81.8C93.9 82.1 93.8 82.5 93.5 82.6L91.8 83.3C91.5 83.4 91.1 83.3 91 83L89 78.7L86 81.7C85.9 81.8 85.7 81.9 85.6 81.9C85.5 81.9 85.4 81.9 85.4 81.9C85.2 81.8 85 81.6 85 81.3V66.6C85 66.3 85.2 66.1 85.4 66C85.5 66 85.6 66 85.6 66C85.8 66 85.9 66.1 86 66.2L96 76.2C96.2 76.3 96.2 76.6 96.1 76.8Z" fill="#008C73"/>
<path class="illustration-main-fill" fill-rule="evenodd" clip-rule="evenodd" d="M61.4999 40.3333H55.6666C54.3779 40.3333 53.3333 41.378 53.3333 42.6666V48.5C53.3333 49.7886 54.3779 50.8333 55.6666 50.8333H61.4999C62.7886 50.8333 63.8333 49.7886 63.8333 48.5V42.6666C63.8333 41.378 62.7886 40.3333 61.4999 40.3333ZM55.6666 48.5V42.6666H61.4999V48.5H55.6666Z" fill="#008C73"/>
<path class="illustration-main-fill" fill-rule="evenodd" clip-rule="evenodd" d="M74.3332 53.1666H68.4998C67.2112 53.1666 66.1665 54.2113 66.1665 55.5V61.3333C66.1665 62.622 67.2112 63.6666 68.4998 63.6666H74.3332C75.6218 63.6666 76.6665 62.622 76.6665 61.3333V55.5C76.6665 54.2113 75.6218 53.1666 74.3332 53.1666ZM68.4998 61.3333V55.5H74.3332V61.3333H68.4998Z" fill="#008C73"/>
<path class="illustration-main-fill" fill-rule="evenodd" clip-rule="evenodd" d="M76.6665 45.5833C76.6665 48.4828 74.316 50.8333 71.4165 50.8333C68.517 50.8333 66.1665 48.4828 66.1665 45.5833C66.1665 42.6838 68.517 40.3333 71.4165 40.3333C74.316 40.3333 76.6665 42.6838 76.6665 45.5833ZM68.4998 45.5833C68.4998 47.1941 69.8057 48.5 71.4165 48.5C73.0273 48.5 74.3332 47.1941 74.3332 45.5833C74.3332 43.9725 73.0273 42.6666 71.4165 42.6666C69.8057 42.6666 68.4998 43.9725 68.4998 45.5833Z" fill="#008C73"/>
<path class="illustration-main-fill" fill-rule="evenodd" clip-rule="evenodd" d="M58.5848 60.0021L55.2424 63.3445C54.8084 63.7785 54.0991 63.7785 53.6639 63.3445L53.6592 63.3387C53.2252 62.9047 53.2252 62.1942 53.6592 61.759L57.0006 58.4177L53.6597 55.0763C53.2257 54.6423 53.2257 53.9318 53.6597 53.4978L53.6644 53.492C54.0995 53.058 54.8089 53.058 55.2429 53.492L58.5848 56.8335L61.9262 53.492C62.3602 53.058 63.0707 53.058 63.5047 53.492L63.5106 53.4978C63.9446 53.9318 63.9446 54.6423 63.5106 55.0763L60.1692 58.4177L63.511 61.759C63.945 62.1942 63.945 62.9047 63.511 63.3387L63.5052 63.3445C63.0712 63.7785 62.3607 63.7785 61.9267 63.3445L58.5848 60.0021Z" fill="#008C73"/>
</svg>
