<svg width="16" height="16" viewBox="0 0 16 16" fill="none" xmlns="http://www.w3.org/2000/svg">
<path class="illustration-main-fill" fill-rule="evenodd" clip-rule="evenodd" d="M2 3.5C2 2.94772 2.44772 2.5 3 2.5H13C13.5523 2.5 14 2.94772 14 3.5C14 4.05228 13.5523 4.5 13 4.5H3C2.44772 4.5 2 4.05228 2 3.5Z"/>
<path class="illustration-main-fill" fill-rule="evenodd" clip-rule="evenodd" d="M2 11.5C2 10.9477 2.44772 10.5 3 10.5H13C13.5523 10.5 14 10.9477 14 11.5C14 12.0523 13.5523 12.5 13 12.5H3C2.44772 12.5 2 12.0523 2 11.5Z"/>
<path class="illustration-main-fill" fill-rule="evenodd" clip-rule="evenodd" d="M2 7.5C2 6.94772 2.44772 6.5 3 6.5H13C13.5523 6.5 14 6.94772 14 7.5C14 8.05228 13.5523 8.5 13 8.5H3C2.44772 8.5 2 8.05228 2 7.5Z"/>
</svg>
